DBRep_DrawableShape

CASCADE Topology V1, (c) Matra-Datavision
Locations 39
1
              1              -0               0              -0 
              0               1               0               0 
             -0               0               1              -0 
2  1 -1 0
1
              1              -0               0              -0 
              0               1               0               0 
             -0               0               1              -0 
1
              1              -0               0              -9 
              0               1               0             -82 
             -0               0               1              -0 
2  3 1 4 1 3 -1 0
2  1 -1 3 1 4 -1 3 -1 0
1
              1              -0               0           -10.5 
              0               1               0             -45 
             -0               0               1              -0 
2  3 1 7 1 3 -1 0
2  1 -1 3 1 7 -1 3 -1 0
1
              1              -0               0           -10.5 
              0               1               0              -5 
             -0               0               1              -0 
2  3 1 10 1 3 -1 0
2  1 -1 3 1 10 -1 3 -1 0
1
              1              -0               0               9 
              0               1               0             -82 
             -0               0               1              -0 
2  3 1 13 1 3 -1 0
2  1 -1 3 1 13 -1 3 -1 0
1
              1              -0               0            10.5 
              0               1               0             -45 
             -0               0               1              -0 
2  3 1 16 1 3 -1 0
2  1 -1 3 1 16 -1 3 -1 0
1
              1              -0               0            10.5 
              0               1               0              -5 
             -0               0               1              -0 
2  3 1 19 1 3 -1 0
2  1 -1 3 1 19 -1 3 -1 0
1
              1              -0               0           -10.5 
              0               1               0              35 
             -0               0               1               0 
2  3 1 22 1 3 -1 0
2  1 -1 3 1 22 -1 3 -1 0
1
              1              -0               0           -10.5 
              0               1               0              75 
             -0               0               1               0 
2  3 1 25 1 3 -1 0
2  1 -1 3 1 25 -1 3 -1 0
1
              1              -0               0              -9 
              0               1               0              82 
             -0               0               1               0 
2  3 1 28 1 3 -1 0
2  1 -1 3 1 28 -1 3 -1 0
1
              1              -0               0            10.5 
              0               1               0              35 
             -0               0               1              -0 
2  3 1 31 1 3 -1 0
2  1 -1 3 1 31 -1 3 -1 0
1
              1              -0               0               9 
              0               1               0              82 
             -0               0               1              -0 
2  3 1 34 1 3 -1 0
2  1 -1 3 1 34 -1 3 -1 0
1
              1              -0               0            10.5 
              0               1               0              75 
             -0               0               1              -0 
2  3 1 37 1 3 -1 0
2  1 -1 3 1 37 -1 3 -1 0
Curve2ds 124
1 0 0 1 0 
1 0 0 1 0 
1 0 0 1 0 
1 0 0 1 0 
1 0 0 1 0 
1 0 0 1 0 
1 0 0 1 0 
1 0 0 1 0 
1 0 0 1 0 
1 0 0 1 0 
1 0 0 1 0 
1 0 0 1 0 
1 0 0 1 0 
1 0 0 1 0 
1 0 0 1 0 
1 0 0 1 0 
1 0 0 1 0 
1 0 0 1 0 
1 0 0 1 0 
1 0 0 1 0 
1 0 0 1 0 
1 0 0 1 0 
1 0 0 1 0 
1 0 0 1 0 
1 0 0 1 0 
1 0 0 1 0 
1 0 0 1 0 
1 0 0 1 0 
1 0 0 1 0 
1 0 0 1 0 
1 0 0 1 0 
1 0 -1.6000000000000001 1 0 
1 0 -1.6000000000000001 1 0 
1 0 -1.6000000000000001 1 0 
1 0 -1.6000000000000001 1 0 
1 0 -1.6000000000000001 1 0 
1 0 -1.6000000000000001 1 0 
1 0 -1.6000000000000001 1 0 
1 0 -1.6000000000000001 1 0 
1 0 -1.6000000000000001 1 0 
1 0 -1.6000000000000001 1 0 
1 0 -1.6000000000000001 1 0 
1 0 -1.6000000000000001 1 0 
1 0 -1.6000000000000001 1 0 
1 0 -1.6000000000000001 1 0 
1 0 -1.6000000000000001 1 0 
1 0 -1.6000000000000001 1 0 
1 0 -1.6000000000000001 1 0 
1 0 -1.6000000000000001 1 0 
1 0 -1.6000000000000001 1 0 
1 0 -1.6000000000000001 1 0 
1 0 -1.6000000000000001 1 0 
1 0 -1.6000000000000001 1 0 
1 0 -1.6000000000000001 1 0 
1 0 -1.6000000000000001 1 0 
1 0 -1.6000000000000001 1 0 
1 0 -1.6000000000000001 1 0 
1 0 -1.6000000000000001 1 0 
1 0 -1.6000000000000001 1 0 
1 0 -1.6000000000000001 1 0 
1 0 -1.6000000000000001 1 0 
1 0 -1.6000000000000001 1 0 
1 0 0 0 -1 
1 6.2831853071795862 0 0 -1 
1 0 0 0 -1 
1 6.2831853071795862 0 0 -1 
1 0 0 0 -1 
1 6.2831853071795862 0 0 -1 
1 0 0 0 -1 
1 6.2831853071795862 0 0 -1 
1 0 0 0 -1 
1 6.2831853071795862 0 0 -1 
1 0 0 0 -1 
1 6.2831853071795862 0 0 -1 
1 0 0 0 -1 
1 6.2831853071795862 0 0 -1 
1 0 0 0 -1 
1 6.2831853071795862 0 0 -1 
1 0 0 0 -1 
1 6.2831853071795862 0 0 -1 
1 0 0 0 -1 
1 6.2831853071795862 0 0 -1 
1 0 0 0 -1 
1 6.2831853071795862 0 0 -1 
1 0 0 0 -1 
1 6.2831853071795862 0 0 -1 
1 0 0 0 -1 
1 6.2831853071795862 0 0 -1 
1 0 0 0 -1 
1 6.2831853071795862 0 0 -1 
1 0 0 0 -1 
1 6.2831853071795862 0 0 -1 
1 0 0 0 -1 
1 6.2831853071795862 0 0 -1 
1 0 0 0 -1 
1 6.2831853071795862 0 0 -1 
1 0 0 0 -1 
1 6.2831853071795862 0 0 -1 
1 0 0 0 -1 
1 6.2831853071795862 0 0 -1 
1 0 0 0 -1 
1 6.2831853071795862 0 0 -1 
1 0 0 0 -1 
1 6.2831853071795862 0 0 -1 
1 0 0 0 -1 
1 6.2831853071795862 0 0 -1 
1 0 0 0 -1 
1 6.2831853071795862 0 0 -1 
1 0 0 0 -1 
1 6.2831853071795862 0 0 -1 
1 0 0 0 -1 
1 6.2831853071795862 0 0 -1 
1 0 0 0 -1 
1 6.2831853071795862 0 0 -1 
1 0 0 0 -1 
1 6.2831853071795862 0 0 -1 
1 0 0 0 -1 
1 6.2831853071795862 0 0 -1 
1 0 0 0 -1 
1 6.2831853071795862 0 0 -1 
1 0 0 0 -1 
1 6.2831853071795862 0 0 -1 
1 0 0 0 -1 
1 6.2831853071795862 0 0 -1 
Curves 186
1 -14.800000000000001 92 14 0 0 1 
1 14.799999999999999 92 14 0 0 1 
8 0 48
1 -24 92 14 1 0 0 
8 0 48
1 -24 92 15.6 1 0 0 
1 -14.799999999999999 -92 14 0 0 1 
1 -14.800000000000001 -188 14 0 1 0 
1 -14.800000000000001 -188 15.6 0 1 0 
1 14.800000000000001 -92 14 0 0 1 
1 14.800000000000001 -188 14 0 1 0 
1 14.800000000000001 -188 15.6 0 1 0 
8 0 48
1 24 -92 14 -1 0 0 
2 -13.199999999999999 -91 14 0 0 1 1 0 0 0 1 0 0.67500000000000004
2 -13.199999999999999 -89 14 0 0 1 1 0 0 0 1 0 0.67500000000000004
2 -13.199999999999999 -87 14 0 0 1 1 0 0 0 1 0 0.67500000000000004
2 -13.199999999999999 -85 14 0 0 1 1 0 0 0 1 0 0.67500000000000004
2 -13.199999999999999 -83 14 0 0 1 1 0 0 0 1 0 0.67500000000000004
2 -13.199999999999999 -81 14 0 0 1 1 0 0 0 1 0 0.67500000000000004
2 0 0 14 0 0 1 1 0 0 0 1 0 1.125
2 -6 -86 14 0 0 1 1 0 0 0 1 0 1.575
2 0 0 14 0 0 1 1 0 0 0 1 0 1.125
2 0 0 14 0 0 1 1 0 0 0 1 0 1.125
2 0 -86 14 0 0 1 1 0 0 0 1 0 2.75
2 6 -86 14 0 0 1 1 0 0 0 1 0 1.575
1 13 -36.5 14 0 -1 0 
1 6.5 -47 14 1 0 0 
1 -6.5 -73 14 -1 0 0 
1 -13 -23.5 14 0 1 0 
2 0 0 14 0 0 1 1 0 0 0 1 0 1.125
2 13.199999999999999 -91 14 0 0 1 1 0 0 0 1 0 0.67500000000000004
2 13.199999999999999 -89 14 0 0 1 1 0 0 0 1 0 0.67500000000000004
2 13.199999999999999 -87 14 0 0 1 1 0 0 0 1 0 0.67500000000000004
2 13.199999999999999 -85 14 0 0 1 1 0 0 0 1 0 0.67500000000000004
2 13.199999999999999 -83 14 0 0 1 1 0 0 0 1 0 0.67500000000000004
2 13.199999999999999 -81 14 0 0 1 1 0 0 0 1 0 0.67500000000000004
1 13 -16.5 14 0 -1 0 
1 6.5 -7 14 1 0 0 
1 -6.5 -33 14 -1 0 0 
1 -13 -3.5 14 0 1 0 
2 0 0 14 0 0 1 1 0 0 0 1 0 1.125
2 0 0 14 0 0 1 1 0 0 0 1 0 1.125
2 0 0 14 0 0 1 1 0 0 0 1 0 1.125
2 0 0 14 0 0 1 1 0 0 0 1 0 1.125
2 -13.199999999999999 81 14 0 0 1 1 0 0 0 1 0 0.67500000000000004
2 -13.199999999999999 83 14 0 0 1 1 0 0 0 1 0 0.67500000000000004
2 -13.199999999999999 85 14 0 0 1 1 0 0 0 1 0 0.67500000000000004
2 -13.199999999999999 87 14 0 0 1 1 0 0 0 1 0 0.67500000000000004
2 -13.199999999999999 89 14 0 0 1 1 0 0 0 1 0 0.67500000000000004
2 -13.199999999999999 91 14 0 0 1 1 0 0 0 1 0 0.67500000000000004
2 0 0 14 0 0 1 1 0 0 0 1 0 1.125
2 -6 86 14 0 0 1 1 0 0 0 1 0 1.575
1 13 3.5 14 0 -1 0 
1 6.5 33 14 1 0 0 
1 -6.5 7 14 -1 0 0 
1 -13 16.5 14 0 1 0 
2 0 0 14 0 0 1 1 0 0 0 1 0 1.125
1 13 23.5 14 0 -1 0 
1 6.5 73 14 1 0 0 
1 -6.5 47 14 -1 0 0 
1 -13 36.5 14 0 1 0 
2 0 86 14 0 0 1 1 0 0 0 1 0 2.75
2 6 86 14 0 0 1 1 0 0 0 1 0 1.575
2 0 0 14 0 0 1 1 0 0 0 1 0 1.125
2 0 0 14 0 0 1 1 0 0 0 1 0 1.125
2 13.199999999999999 81 14 0 0 1 1 0 0 0 1 0 0.67500000000000004
2 13.199999999999999 83 14 0 0 1 1 0 0 0 1 0 0.67500000000000004
2 13.199999999999999 85 14 0 0 1 1 0 0 0 1 0 0.67500000000000004
2 13.199999999999999 87 14 0 0 1 1 0 0 0 1 0 0.67500000000000004
2 13.199999999999999 89 14 0 0 1 1 0 0 0 1 0 0.67500000000000004
2 13.199999999999999 91 14 0 0 1 1 0 0 0 1 0 0.67500000000000004
8 0 48
1 24 -92 15.6 -1 0 0 
2 -13.199999999999999 -91 15.6 0 0 1 1 0 0 0 1 0 0.67500000000000004
2 -13.199999999999999 -89 15.6 0 0 1 1 0 0 0 1 0 0.67500000000000004
2 -13.199999999999999 -87 15.6 0 0 1 1 0 0 0 1 0 0.67500000000000004
2 -13.199999999999999 -85 15.6 0 0 1 1 0 0 0 1 0 0.67500000000000004
2 -13.199999999999999 -83 15.6 0 0 1 1 0 0 0 1 0 0.67500000000000004
2 -13.199999999999999 -81 15.6 0 0 1 1 0 0 0 1 0 0.67500000000000004
2 0 0 15.6 0 0 1 1 0 0 0 1 0 1.125
2 -6 -86 15.6 0 0 1 1 0 0 0 1 0 1.575
2 0 0 15.6 0 0 1 1 0 0 0 1 0 1.125
2 0 0 15.6 0 0 1 1 0 0 0 1 0 1.125
2 0 -86 15.6 0 0 1 1 0 0 0 1 0 2.75
2 6 -86 15.6 0 0 1 1 0 0 0 1 0 1.575
1 13 -36.5 15.6 0 -1 0 
1 6.5 -47 15.6 1 0 0 
1 -6.5 -73 15.6 -1 0 0 
1 -13 -23.5 15.6 0 1 0 
2 0 0 15.6 0 0 1 1 0 0 0 1 0 1.125
2 13.199999999999999 -91 15.6 0 0 1 1 0 0 0 1 0 0.67500000000000004
2 13.199999999999999 -89 15.6 0 0 1 1 0 0 0 1 0 0.67500000000000004
2 13.199999999999999 -87 15.6 0 0 1 1 0 0 0 1 0 0.67500000000000004
2 13.199999999999999 -85 15.6 0 0 1 1 0 0 0 1 0 0.67500000000000004
2 13.199999999999999 -83 15.6 0 0 1 1 0 0 0 1 0 0.67500000000000004
2 13.199999999999999 -81 15.6 0 0 1 1 0 0 0 1 0 0.67500000000000004
1 13 -16.5 15.6 0 -1 0 
1 6.5 -7 15.6 1 0 0 
1 -6.5 -33 15.6 -1 0 0 
1 -13 -3.5 15.6 0 1 0 
2 0 0 15.6 0 0 1 1 0 0 0 1 0 1.125
2 0 0 15.6 0 0 1 1 0 0 0 1 0 1.125
2 0 0 15.6 0 0 1 1 0 0 0 1 0 1.125
2 0 0 15.6 0 0 1 1 0 0 0 1 0 1.125
2 -13.199999999999999 81 15.6 0 0 1 1 0 0 0 1 0 0.67500000000000004
2 -13.199999999999999 83 15.6 0 0 1 1 0 0 0 1 0 0.67500000000000004
2 -13.199999999999999 85 15.6 0 0 1 1 0 0 0 1 0 0.67500000000000004
2 -13.199999999999999 87 15.6 0 0 1 1 0 0 0 1 0 0.67500000000000004
2 -13.199999999999999 89 15.6 0 0 1 1 0 0 0 1 0 0.67500000000000004
2 -13.199999999999999 91 15.6 0 0 1 1 0 0 0 1 0 0.67500000000000004
2 0 0 15.6 0 0 1 1 0 0 0 1 0 1.125
2 -6 86 15.6 0 0 1 1 0 0 0 1 0 1.575
1 13 3.5 15.6 0 -1 0 
1 6.5 33 15.6 1 0 0 
1 -6.5 7 15.6 -1 0 0 
1 -13 16.5 15.6 0 1 0 
2 0 0 15.6 0 0 1 1 0 0 0 1 0 1.125
1 13 23.5 15.6 0 -1 0 
1 6.5 73 15.6 1 0 0 
1 -6.5 47 15.6 -1 0 0 
1 -13 36.5 15.6 0 1 0 
2 0 86 15.6 0 0 1 1 0 0 0 1 0 2.75
2 6 86 15.6 0 0 1 1 0 0 0 1 0 1.575
2 0 0 15.6 0 0 1 1 0 0 0 1 0 1.125
2 0 0 15.6 0 0 1 1 0 0 0 1 0 1.125
2 13.199999999999999 81 15.6 0 0 1 1 0 0 0 1 0 0.67500000000000004
2 13.199999999999999 83 15.6 0 0 1 1 0 0 0 1 0 0.67500000000000004
2 13.199999999999999 85 15.6 0 0 1 1 0 0 0 1 0 0.67500000000000004
2 13.199999999999999 87 15.6 0 0 1 1 0 0 0 1 0 0.67500000000000004
2 13.199999999999999 89 15.6 0 0 1 1 0 0 0 1 0 0.67500000000000004
2 13.199999999999999 91 15.6 0 0 1 1 0 0 0 1 0 0.67500000000000004
1 -12.524999999999999 -91 14 0 0 1 
1 -12.524999999999999 -89 14 0 0 1 
1 -12.524999999999999 -87 14 0 0 1 
1 -12.524999999999999 -85 14 0 0 1 
1 -12.524999999999999 -83 14 0 0 1 
1 -12.524999999999999 -81 14 0 0 1 
1 1.125 0 14 0 0 1 
1 -4.4249999999999998 -86 14 0 0 1 
1 1.125 0 14 0 0 1 
1 1.125 0 14 0 0 1 
1 2.75 -86 14 0 0 1 
1 7.5750000000000002 -86 14 0 0 1 
1 13 -47 14 0 0 1 
1 13 -73 14 0 0 1 
1 -13 -47 14 0 0 1 
1 -13 -73 14 0 0 1 
1 1.125 0 14 0 0 1 
1 13.875 -91 14 0 0 1 
1 13.875 -89 14 0 0 1 
1 13.875 -87 14 0 0 1 
1 13.875 -85 14 0 0 1 
1 13.875 -83 14 0 0 1 
1 13.875 -81 14 0 0 1 
1 13 -7 14 0 0 1 
1 13 -33 14 0 0 1 
1 -13 -7 14 0 0 1 
1 -13 -33 14 0 0 1 
1 1.125 0 14 0 0 1 
1 1.125 0 14 0 0 1 
1 1.125 0 14 0 0 1 
1 1.125 0 14 0 0 1 
1 -12.524999999999999 81 14 0 0 1 
1 -12.524999999999999 83 14 0 0 1 
1 -12.524999999999999 85 14 0 0 1 
1 -12.524999999999999 87 14 0 0 1 
1 -12.524999999999999 89 14 0 0 1 
1 -12.524999999999999 91 14 0 0 1 
1 1.125 0 14 0 0 1 
1 -4.4249999999999998 86 14 0 0 1 
1 13 33 14 0 0 1 
1 13 7 14 0 0 1 
1 -13 33 14 0 0 1 
1 -13 7 14 0 0 1 
1 1.125 0 14 0 0 1 
1 13 73 14 0 0 1 
1 13 47 14 0 0 1 
1 -13 73 14 0 0 1 
1 -13 47 14 0 0 1 
1 2.75 86 14 0 0 1 
1 7.5750000000000002 86 14 0 0 1 
1 1.125 0 14 0 0 1 
1 1.125 0 14 0 0 1 
1 13.875 81 14 0 0 1 
1 13.875 83 14 0 0 1 
1 13.875 85 14 0 0 1 
1 13.875 87 14 0 0 1 
1 13.875 89 14 0 0 1 
1 13.875 91 14 0 0 1 
Polygon3D 0
PolygonOnTriangulations 0
Surfaces 64
1 -14.800000000000001 92 14 0 1 0 1 0 0 0 0 -1 
1 -14.800000000000001 -92 14 -1 0 0 0 1 0 0 0 -1 
1 14.800000000000001 -92 14 -1 0 0 0 1 0 0 0 -1 
1 0 0 14 0 0 1 1 0 0 0 1 0 
2 -13.199999999999999 -91 14 -0 -0 -1 1 0 0 0 1 0 0.67500000000000004
2 -13.199999999999999 -89 14 -0 -0 -1 1 0 0 0 1 0 0.67500000000000004
2 -13.199999999999999 -87 14 -0 -0 -1 1 0 0 0 1 0 0.67500000000000004
2 -13.199999999999999 -85 14 -0 -0 -1 1 0 0 0 1 0 0.67500000000000004
2 -13.199999999999999 -83 14 -0 -0 -1 1 0 0 0 1 0 0.67500000000000004
2 -13.199999999999999 -81 14 -0 -0 -1 1 0 0 0 1 0 0.67500000000000004
2 0 0 14 -0 -0 -1 1 0 0 0 1 0 1.125
2 -6 -86 14 -0 -0 -1 1 0 0 0 1 0 1.575
2 0 0 14 -0 -0 -1 1 0 0 0 1 0 1.125
2 0 0 14 -0 -0 -1 1 0 0 0 1 0 1.125
2 0 -86 14 -0 -0 -1 1 0 0 0 1 0 2.75
2 6 -86 14 -0 -0 -1 1 0 0 0 1 0 1.575
2 0 0 14 -0 -0 -1 1 0 0 0 1 0 1.125
2 13.199999999999999 -91 14 -0 -0 -1 1 0 0 0 1 0 0.67500000000000004
2 13.199999999999999 -89 14 -0 -0 -1 1 0 0 0 1 0 0.67500000000000004
2 13.199999999999999 -87 14 -0 -0 -1 1 0 0 0 1 0 0.67500000000000004
2 13.199999999999999 -85 14 -0 -0 -1 1 0 0 0 1 0 0.67500000000000004
2 13.199999999999999 -83 14 -0 -0 -1 1 0 0 0 1 0 0.67500000000000004
2 13.199999999999999 -81 14 -0 -0 -1 1 0 0 0 1 0 0.67500000000000004
2 0 0 14 -0 -0 -1 1 0 0 0 1 0 1.125
2 0 0 14 -0 -0 -1 1 0 0 0 1 0 1.125
2 0 0 14 -0 -0 -1 1 0 0 0 1 0 1.125
2 0 0 14 -0 -0 -1 1 0 0 0 1 0 1.125
2 -13.199999999999999 81 14 -0 -0 -1 1 0 0 0 1 0 0.67500000000000004
2 -13.199999999999999 83 14 -0 -0 -1 1 0 0 0 1 0 0.67500000000000004
2 -13.199999999999999 85 14 -0 -0 -1 1 0 0 0 1 0 0.67500000000000004
2 -13.199999999999999 87 14 -0 -0 -1 1 0 0 0 1 0 0.67500000000000004
2 -13.199999999999999 89 14 -0 -0 -1 1 0 0 0 1 0 0.67500000000000004
2 -13.199999999999999 91 14 -0 -0 -1 1 0 0 0 1 0 0.67500000000000004
2 0 0 14 -0 -0 -1 1 0 0 0 1 0 1.125
2 -6 86 14 -0 -0 -1 1 0 0 0 1 0 1.575
2 0 0 14 -0 -0 -1 1 0 0 0 1 0 1.125
2 0 86 14 -0 -0 -1 1 0 0 0 1 0 2.75
2 6 86 14 -0 -0 -1 1 0 0 0 1 0 1.575
2 0 0 14 -0 -0 -1 1 0 0 0 1 0 1.125
2 0 0 14 -0 -0 -1 1 0 0 0 1 0 1.125
2 13.199999999999999 81 14 -0 -0 -1 1 0 0 0 1 0 0.67500000000000004
2 13.199999999999999 83 14 -0 -0 -1 1 0 0 0 1 0 0.67500000000000004
2 13.199999999999999 85 14 -0 -0 -1 1 0 0 0 1 0 0.67500000000000004
2 13.199999999999999 87 14 -0 -0 -1 1 0 0 0 1 0 0.67500000000000004
2 13.199999999999999 89 14 -0 -0 -1 1 0 0 0 1 0 0.67500000000000004
2 13.199999999999999 91 14 -0 -0 -1 1 0 0 0 1 0 0.67500000000000004
1 0 0 15.6 0 0 1 1 0 0 0 1 0 
1 14.800000000000001 -92 14 0 -1 0 -1 0 0 -0 -0 -1 
1 13 -47 14 1 0 0 0 -1 0 0 0 -1 
1 -13 -47 14 0 1 0 1 0 0 0 0 -1 
1 13 -73 14 0 -1 0 -1 0 0 -0 -0 -1 
1 -13 -73 14 -1 0 0 0 1 0 0 0 -1 
1 13 -7 14 1 0 0 0 -1 0 0 0 -1 
1 -13 -7 14 0 1 0 1 0 0 0 0 -1 
1 13 -33 14 0 -1 0 -1 0 0 -0 -0 -1 
1 -13 -33 14 -1 0 0 0 1 0 0 0 -1 
1 13 33 14 1 0 0 0 -1 0 0 0 -1 
1 -13 33 14 0 1 0 1 0 0 0 0 -1 
1 13 7 14 0 -1 0 -1 0 0 -0 -0 -1 
1 -13 7 14 -1 0 0 0 1 0 0 0 -1 
1 13 73 14 1 0 0 0 -1 0 0 0 -1 
1 -13 73 14 0 1 0 1 0 0 0 0 -1 
1 13 47 14 0 -1 0 -1 0 0 -0 -0 -1 
1 -13 47 14 -1 0 0 0 1 0 0 0 -1 
Triangulations 0

TShapes 532
Ve
1.5e-07
-14.8 92 14
0 0

0101101
*
Ve
1.5e-07
-14.8 92 15.6
0 0

0101101
*
Ed
 1.5e-07 1 1 0
1  1 0 0 1.6
0

0101000
+532 2 -531 2 *
Ve
1.5e-07
14.8 92 14
0 0

0101101
*
Ve
1.5e-07
14.8 92 15.6
0 0

0101101
*
Ed
 1.5e-07 1 1 0
1  2 0 0 1.6
0

0101000
+529 2 -528 2 *
Ed
 1e-07 1 1 0
1  3 0 9.2 38.8
0

0101000
+532 2 -529 2 *
Ed
 1e-07 1 1 0
1  4 0 9.2 38.8
0

0101000
+531 2 -528 2 *
Wi

0101100
+530 0 -527 0 -526 0 +525 0 *
Fa
0  1e-07 1 0

0101000
+524 0 *
Ve
1.5e-07
-14.8 -92 14
0 0

0101101
*
Ve
1.5e-07
-14.8 -92 15.6
0 0

0101101
*
Ed
 1.5e-07 1 1 0
1  5 0 0 1.6
0

0101000
+522 2 -521 2 *
Ed
 1e-07 1 1 0
1  6 0 96 280
0

0101000
+522 2 -532 2 *
Ed
 1e-07 1 1 0
1  7 0 96 280
0

0101000
+521 2 -531 2 *
Wi

0101100
+520 0 -530 0 -519 0 +518 0 *
Fa
0  1e-07 2 0

0101000
+517 0 *
Ve
1.5e-07
14.8 -92 14
0 0

0101101
*
Ve
1.5e-07
14.8 -92 15.6
0 0

0101101
*
Ed
 1.5e-07 1 1 0
1  8 0 0 1.6
0

0101000
+515 2 -514 2 *
Ed
 1e-07 1 1 0
1  9 0 96 280
0

0101000
+515 2 -529 2 *
Ed
 1e-07 1 1 0
1  10 0 96 280
0

0101000
+514 2 -528 2 *
Wi

0101100
+513 0 -527 0 -512 0 +511 0 *
Fa
0  1e-07 3 0

0101000
+510 0 *
Ed
 1e-07 1 1 0
1  11 0 9.2 38.8
0

0101000
+515 2 -522 2 *
Wi

0101100
-526 0 -519 0 +512 0 -508 0 *
Ve
1e-07
-12.525 -91 14
0 0

0101101
*
Ed
 1e-07 1 1 0
1  12 0 0 6.28318530717959
2  1 5 0 0 6.28318530717959
0

0101000
+506 2 -506 2 *
Wi

0101100
-505 0 *
Ve
1e-07
-12.525 -89 14
0 0

0101101
*
Ed
 1e-07 1 1 0
1  13 0 0 6.28318530717959
2  2 6 0 0 6.28318530717959
0

0101000
+503 2 -503 2 *
Wi

0101100
-502 0 *
Ve
1e-07
-12.525 -87 14
0 0

0101101
*
Ed
 1e-07 1 1 0
1  14 0 0 6.28318530717959
2  3 7 0 0 6.28318530717959
0

0101000
+500 2 -500 2 *
Wi

0101100
-499 0 *
Ve
1e-07
-12.525 -85 14
0 0

0101101
*
Ed
 1e-07 1 1 0
1  15 0 0 6.28318530717959
2  4 8 0 0 6.28318530717959
0

0101000
+497 2 -497 2 *
Wi

0101100
-496 0 *
Ve
1e-07
-12.525 -83 14
0 0

0101101
*
Ed
 1e-07 1 1 0
1  16 0 0 6.28318530717959
2  5 9 0 0 6.28318530717959
0

0101000
+494 2 -494 2 *
Wi

0101100
-493 0 *
Ve
1e-07
-12.525 -81 14
0 0

0101101
*
Ed
 1e-07 1 1 0
1  17 0 0 6.28318530717959
2  6 10 0 0 6.28318530717959
0

0101000
+491 2 -491 2 *
Wi

0101100
-490 0 *
Ve
1e-07
-7.875 -82 14
0 0

0101101
*
Ed
 1e-07 1 1 0
1  18 0 0 6.28318530717959
2  7 11 0 0 6.28318530717959
0

0101000
+488 6 -488 6 *
Wi

0101100
-487 5 *
Ve
1e-07
-4.425 -86 14
0 0

0101101
*
Ed
 1e-07 1 1 0
1  19 0 0 6.28318530717959
2  8 12 0 0 6.28318530717959
0

0101000
+485 2 -485 2 *
Wi

0101100
-484 0 *
Ve
1e-07
-9.375 -45 14
0 0

0101101
*
Ed
 1e-07 1 1 0
1  20 0 0 6.28318530717959
2  7 13 0 0 6.28318530717959
0

0101000
+482 9 -482 9 *
Wi

0101100
-481 8 *
Ve
1e-07
-9.375 -5 14
0 0

0101101
*
Ed
 1e-07 1 1 0
1  21 0 0 6.28318530717959
2  7 14 0 0 6.28318530717959
0

0101000
+479 12 -479 12 *
Wi

0101100
-478 11 *
Ve
1e-07
2.75 -86 14
0 0

0101101
*
Ed
 1e-07 1 1 0
1  22 0 0 6.28318530717959
2  9 15 0 0 6.28318530717959
0

0101000
+476 2 -476 2 *
Wi

0101100
-475 0 *
Ve
1e-07
7.575 -86 14
0 0

0101101
*
Ed
 1e-07 1 1 0
1  23 0 0 6.28318530717959
2  10 16 0 0 6.28318530717959
0

0101000
+473 2 -473 2 *
Wi

0101100
-472 0 *
Ve
1.5e-07
13 -47 14
0 0

0101101
*
Ve
1.5e-07
13 -73 14
0 0

0101101
*
Ed
 1.5e-07 1 1 0
1  24 0 10.5 36.5
0

0101000
+470 2 -469 2 *
Ve
1.5e-07
-13 -47 14
0 0

0101101
*
Ed
 1.5e-07 1 1 0
1  25 0 -19.5 6.5
0

0101000
+467 2 -470 2 *
Ve
1.5e-07
-13 -73 14
0 0

0101101
*
Ed
 1.5e-07 1 1 0
1  26 0 -19.5 6.5
0

0101000
+469 2 -465 2 *
Ed
 1.5e-07 1 1 0
1  27 0 -49.5 -23.5
0

0101000
+465 2 -467 2 *
Wi

0101100
+468 0 +466 0 +464 0 +463 0 *
Ve
1e-07
10.125 -82 14
0 0

0101101
*
Ed
 1e-07 1 1 0
1  28 0 0 6.28318530717959
2  7 17 0 0 6.28318530717959
0

0101000
+461 15 -461 15 *
Wi

0101100
-460 14 *
Ve
1e-07
13.875 -91 14
0 0

0101101
*
Ed
 1e-07 1 1 0
1  29 0 0 6.28318530717959
2  11 18 0 0 6.28318530717959
0

0101000
+458 2 -458 2 *
Wi

0101100
-457 0 *
Ve
1e-07
13.875 -89 14
0 0

0101101
*
Ed
 1e-07 1 1 0
1  30 0 0 6.28318530717959
2  12 19 0 0 6.28318530717959
0

0101000
+455 2 -455 2 *
Wi

0101100
-454 0 *
Ve
1e-07
13.875 -87 14
0 0

0101101
*
Ed
 1e-07 1 1 0
1  31 0 0 6.28318530717959
2  13 20 0 0 6.28318530717959
0

0101000
+452 2 -452 2 *
Wi

0101100
-451 0 *
Ve
1e-07
13.875 -85 14
0 0

0101101
*
Ed
 1e-07 1 1 0
1  32 0 0 6.28318530717959
2  14 21 0 0 6.28318530717959
0

0101000
+449 2 -449 2 *
Wi

0101100
-448 0 *
Ve
1e-07
13.875 -83 14
0 0

0101101
*
Ed
 1e-07 1 1 0
1  33 0 0 6.28318530717959
2  15 22 0 0 6.28318530717959
0

0101000
+446 2 -446 2 *
Wi

0101100
-445 0 *
Ve
1e-07
13.875 -81 14
0 0

0101101
*
Ed
 1e-07 1 1 0
1  34 0 0 6.28318530717959
2  16 23 0 0 6.28318530717959
0

0101000
+443 2 -443 2 *
Wi

0101100
-442 0 *
Ve
1.5e-07
13 -7 14
0 0

0101101
*
Ve
1.5e-07
13 -33 14
0 0

0101101
*
Ed
 1.5e-07 1 1 0
1  35 0 -9.5 16.5
0

0101000
+440 2 -439 2 *
Ve
1.5e-07
-13 -7 14
0 0

0101101
*
Ed
 1.5e-07 1 1 0
1  36 0 -19.5 6.5
0

0101000
+437 2 -440 2 *
Ve
1.5e-07
-13 -33 14
0 0

0101101
*
Ed
 1.5e-07 1 1 0
1  37 0 -19.5 6.5
0

0101000
+439 2 -435 2 *
Ed
 1.5e-07 1 1 0
1  38 0 -29.5 -3.5
0

0101000
+435 2 -437 2 *
Wi

0101100
+438 0 +436 0 +434 0 +433 0 *
Ve
1e-07
11.625 -45 14
0 0

0101101
*
Ed
 1e-07 1 1 0
1  39 0 0 6.28318530717959
2  7 24 0 0 6.28318530717959
0

0101000
+431 18 -431 18 *
Wi

0101100
-430 17 *
Ve
1e-07
11.625 -5 14
0 0

0101101
*
Ed
 1e-07 1 1 0
1  40 0 0 6.28318530717959
2  7 25 0 0 6.28318530717959
0

0101000
+428 21 -428 21 *
Wi

0101100
-427 20 *
Ve
1e-07
-9.375 35 14
0 0

0101101
*
Ed
 1e-07 1 1 0
1  41 0 0 6.28318530717959
2  7 26 0 0 6.28318530717959
0

0101000
+425 24 -425 24 *
Wi

0101100
-424 23 *
Ve
1e-07
-9.375 75 14
0 0

0101101
*
Ed
 1e-07 1 1 0
1  42 0 0 6.28318530717959
2  7 27 0 0 6.28318530717959
0

0101000
+422 27 -422 27 *
Wi

0101100
-421 26 *
Ve
1e-07
-12.525 81 14
0 0

0101101
*
Ed
 1e-07 1 1 0
1  43 0 0 6.28318530717959
2  17 28 0 0 6.28318530717959
0

0101000
+419 2 -419 2 *
Wi

0101100
-418 0 *
Ve
1e-07
-12.525 83 14
0 0

0101101
*
Ed
 1e-07 1 1 0
1  44 0 0 6.28318530717959
2  18 29 0 0 6.28318530717959
0

0101000
+416 2 -416 2 *
Wi

0101100
-415 0 *
Ve
1e-07
-12.525 85 14
0 0

0101101
*
Ed
 1e-07 1 1 0
1  45 0 0 6.28318530717959
2  19 30 0 0 6.28318530717959
0

0101000
+413 2 -413 2 *
Wi

0101100
-412 0 *
Ve
1e-07
-12.525 87 14
0 0

0101101
*
Ed
 1e-07 1 1 0
1  46 0 0 6.28318530717959
2  20 31 0 0 6.28318530717959
0

0101000
+410 2 -410 2 *
Wi

0101100
-409 0 *
Ve
1e-07
-12.525 89 14
0 0

0101101
*
Ed
 1e-07 1 1 0
1  47 0 0 6.28318530717959
2  21 32 0 0 6.28318530717959
0

0101000
+407 2 -407 2 *
Wi

0101100
-406 0 *
Ve
1e-07
-12.525 91 14
0 0

0101101
*
Ed
 1e-07 1 1 0
1  48 0 0 6.28318530717959
2  22 33 0 0 6.28318530717959
0

0101000
+404 2 -404 2 *
Wi

0101100
-403 0 *
Ve
1e-07
-7.875 82 14
0 0

0101101
*
Ed
 1e-07 1 1 0
1  49 0 0 6.28318530717959
2  7 34 0 0 6.28318530717959
0

0101000
+401 30 -401 30 *
Wi

0101100
-400 29 *
Ve
1e-07
-4.425 86 14
0 0

0101101
*
Ed
 1e-07 1 1 0
1  50 0 0 6.28318530717959
2  23 35 0 0 6.28318530717959
0

0101000
+398 2 -398 2 *
Wi

0101100
-397 0 *
Ve
1.5e-07
13 33 14
0 0

0101101
*
Ve
1.5e-07
13 7 14
0 0

0101101
*
Ed
 1.5e-07 1 1 0
1  51 0 -29.5 -3.5
0

0101000
+395 2 -394 2 *
Ve
1.5e-07
-13 33 14
0 0

0101101
*
Ed
 1.5e-07 1 1 0
1  52 0 -19.5 6.5
0

0101000
+392 2 -395 2 *
Ve
1.5e-07
-13 7 14
0 0

0101101
*
Ed
 1.5e-07 1 1 0
1  53 0 -19.5 6.5
0

0101000
+394 2 -390 2 *
Ed
 1.5e-07 1 1 0
1  54 0 -9.5 16.5
0

0101000
+390 2 -392 2 *
Wi

0101100
+393 0 +391 0 +389 0 +388 0 *
Ve
1e-07
11.625 35 14
0 0

0101101
*
Ed
 1e-07 1 1 0
1  55 0 0 6.28318530717959
2  7 36 0 0 6.28318530717959
0

0101000
+386 33 -386 33 *
Wi

0101100
-385 32 *
Ve
1.5e-07
13 73 14
0 0

0101101
*
Ve
1.5e-07
13 47 14
0 0

0101101
*
Ed
 1.5e-07 1 1 0
1  56 0 -49.5 -23.5
0

0101000
+383 2 -382 2 *
Ve
1.5e-07
-13 73 14
0 0

0101101
*
Ed
 1.5e-07 1 1 0
1  57 0 -19.5 6.5
0

0101000
+380 2 -383 2 *
Ve
1.5e-07
-13 47 14
0 0

0101101
*
Ed
 1.5e-07 1 1 0
1  58 0 -19.5 6.5
0

0101000
+382 2 -378 2 *
Ed
 1.5e-07 1 1 0
1  59 0 10.5 36.5
0

0101000
+378 2 -380 2 *
Wi

0101100
+381 0 +379 0 +377 0 +376 0 *
Ve
1e-07
2.75 86 14
0 0

0101101
*
Ed
 1e-07 1 1 0
1  60 0 0 6.28318530717959
2  24 37 0 0 6.28318530717959
0

0101000
+374 2 -374 2 *
Wi

0101100
-373 0 *
Ve
1e-07
7.575 86 14
0 0

0101101
*
Ed
 1e-07 1 1 0
1  61 0 0 6.28318530717959
2  25 38 0 0 6.28318530717959
0

0101000
+371 2 -371 2 *
Wi

0101100
-370 0 *
Ve
1e-07
10.125 82 14
0 0

0101101
*
Ed
 1e-07 1 1 0
1  62 0 0 6.28318530717959
2  7 39 0 0 6.28318530717959
0

0101000
+368 36 -368 36 *
Wi

0101100
-367 35 *
Ve
1e-07
11.625 75 14
0 0

0101101
*
Ed
 1e-07 1 1 0
1  63 0 0 6.28318530717959
2  7 40 0 0 6.28318530717959
0

0101000
+365 39 -365 39 *
Wi

0101100
-364 38 *
Ve
1e-07
13.875 81 14
0 0

0101101
*
Ed
 1e-07 1 1 0
1  64 0 0 6.28318530717959
2  26 41 0 0 6.28318530717959
0

0101000
+362 2 -362 2 *
Wi

0101100
-361 0 *
Ve
1e-07
13.875 83 14
0 0

0101101
*
Ed
 1e-07 1 1 0
1  65 0 0 6.28318530717959
2  27 42 0 0 6.28318530717959
0

0101000
+359 2 -359 2 *
Wi

0101100
-358 0 *
Ve
1e-07
13.875 85 14
0 0

0101101
*
Ed
 1e-07 1 1 0
1  66 0 0 6.28318530717959
2  28 43 0 0 6.28318530717959
0

0101000
+356 2 -356 2 *
Wi

0101100
-355 0 *
Ve
1e-07
13.875 87 14
0 0

0101101
*
Ed
 1e-07 1 1 0
1  67 0 0 6.28318530717959
2  29 44 0 0 6.28318530717959
0

0101000
+353 2 -353 2 *
Wi

0101100
-352 0 *
Ve
1e-07
13.875 89 14
0 0

0101101
*
Ed
 1e-07 1 1 0
1  68 0 0 6.28318530717959
2  30 45 0 0 6.28318530717959
0

0101000
+350 2 -350 2 *
Wi

0101100
-349 0 *
Ve
1e-07
13.875 91 14
0 0

0101101
*
Ed
 1e-07 1 1 0
1  69 0 0 6.28318530717959
2  31 46 0 0 6.28318530717959
0

0101000
+347 2 -347 2 *
Wi

0101100
-346 0 *
Fa
0  1e-07 4 0

0101000
+507 0 +504 0 +501 0 +498 0 +495 0 +492 0 +489 0 +486 0 +483 0 +480 0 
+477 0 +474 0 +471 0 +462 0 +459 0 +456 0 +453 0 +450 0 +447 0 +444 0 
+441 0 +432 0 +429 0 +426 0 +423 0 +420 0 +417 0 +414 0 +411 0 +408 0 
+405 0 +402 0 +399 0 +396 0 +387 0 +384 0 +375 0 +372 0 +369 0 +366 0 
+363 0 +360 0 +357 0 +354 0 +351 0 +348 0 +345 0 *
Ed
 1e-07 1 1 0
1  70 0 9.2 38.8
0

0101000
+514 2 -521 2 *
Wi

0101100
-525 0 -518 0 +511 0 -343 0 *
Ve
1e-07
-12.525 -91 15.6
0 0

0101101
*
Ed
 1e-07 1 1 0
1  71 0 0 6.28318530717959
2  32 5 0 0 6.28318530717959
0

0101000
+341 2 -341 2 *
Wi

0101100
-340 0 *
Ve
1e-07
-12.525 -89 15.6
0 0

0101101
*
Ed
 1e-07 1 1 0
1  72 0 0 6.28318530717959
2  33 6 0 0 6.28318530717959
0

0101000
+338 2 -338 2 *
Wi

0101100
-337 0 *
Ve
1e-07
-12.525 -87 15.6
0 0

0101101
*
Ed
 1e-07 1 1 0
1  73 0 0 6.28318530717959
2  34 7 0 0 6.28318530717959
0

0101000
+335 2 -335 2 *
Wi

0101100
-334 0 *
Ve
1e-07
-12.525 -85 15.6
0 0

0101101
*
Ed
 1e-07 1 1 0
1  74 0 0 6.28318530717959
2  35 8 0 0 6.28318530717959
0

0101000
+332 2 -332 2 *
Wi

0101100
-331 0 *
Ve
1e-07
-12.525 -83 15.6
0 0

0101101
*
Ed
 1e-07 1 1 0
1  75 0 0 6.28318530717959
2  36 9 0 0 6.28318530717959
0

0101000
+329 2 -329 2 *
Wi

0101100
-328 0 *
Ve
1e-07
-12.525 -81 15.6
0 0

0101101
*
Ed
 1e-07 1 1 0
1  76 0 0 6.28318530717959
2  37 10 0 0 6.28318530717959
0

0101000
+326 2 -326 2 *
Wi

0101100
-325 0 *
Ve
1e-07
-7.875 -82 15.6
0 0

0101101
*
Ed
 1e-07 1 1 0
1  77 0 0 6.28318530717959
2  38 11 0 0 6.28318530717959
0

0101000
+323 6 -323 6 *
Wi

0101100
-322 5 *
Ve
1e-07
-4.425 -86 15.6
0 0

0101101
*
Ed
 1e-07 1 1 0
1  78 0 0 6.28318530717959
2  39 12 0 0 6.28318530717959
0

0101000
+320 2 -320 2 *
Wi

0101100
-319 0 *
Ve
1e-07
-9.375 -45 15.6
0 0

0101101
*
Ed
 1e-07 1 1 0
1  79 0 0 6.28318530717959
2  38 13 0 0 6.28318530717959
0

0101000
+317 9 -317 9 *
Wi

0101100
-316 8 *
Ve
1e-07
-9.375 -5 15.6
0 0

0101101
*
Ed
 1e-07 1 1 0
1  80 0 0 6.28318530717959
2  38 14 0 0 6.28318530717959
0

0101000
+314 12 -314 12 *
Wi

0101100
-313 11 *
Ve
1e-07
2.75 -86 15.6
0 0

0101101
*
Ed
 1e-07 1 1 0
1  81 0 0 6.28318530717959
2  40 15 0 0 6.28318530717959
0

0101000
+311 2 -311 2 *
Wi

0101100
-310 0 *
Ve
1e-07
7.575 -86 15.6
0 0

0101101
*
Ed
 1e-07 1 1 0
1  82 0 0 6.28318530717959
2  41 16 0 0 6.28318530717959
0

0101000
+308 2 -308 2 *
Wi

0101100
-307 0 *
Ve
1.5e-07
13 -47 15.6
0 0

0101101
*
Ve
1.5e-07
13 -73 15.6
0 0

0101101
*
Ed
 1.5e-07 1 1 0
1  83 0 10.5 36.5
0

0101000
+305 2 -304 2 *
Ve
1.5e-07
-13 -47 15.6
0 0

0101101
*
Ed
 1.5e-07 1 1 0
1  84 0 -19.5 6.5
0

0101000
+302 2 -305 2 *
Ve
1.5e-07
-13 -73 15.6
0 0

0101101
*
Ed
 1.5e-07 1 1 0
1  85 0 -19.5 6.5
0

0101000
+304 2 -300 2 *
Ed
 1.5e-07 1 1 0
1  86 0 -49.5 -23.5
0

0101000
+300 2 -302 2 *
Wi

0101100
+303 0 +301 0 +299 0 +298 0 *
Ve
1e-07
10.125 -82 15.6
0 0

0101101
*
Ed
 1e-07 1 1 0
1  87 0 0 6.28318530717959
2  38 17 0 0 6.28318530717959
0

0101000
+296 15 -296 15 *
Wi

0101100
-295 14 *
Ve
1e-07
13.875 -91 15.6
0 0

0101101
*
Ed
 1e-07 1 1 0
1  88 0 0 6.28318530717959
2  42 18 0 0 6.28318530717959
0

0101000
+293 2 -293 2 *
Wi

0101100
-292 0 *
Ve
1e-07
13.875 -89 15.6
0 0

0101101
*
Ed
 1e-07 1 1 0
1  89 0 0 6.28318530717959
2  43 19 0 0 6.28318530717959
0

0101000
+290 2 -290 2 *
Wi

0101100
-289 0 *
Ve
1e-07
13.875 -87 15.6
0 0

0101101
*
Ed
 1e-07 1 1 0
1  90 0 0 6.28318530717959
2  44 20 0 0 6.28318530717959
0

0101000
+287 2 -287 2 *
Wi

0101100
-286 0 *
Ve
1e-07
13.875 -85 15.6
0 0

0101101
*
Ed
 1e-07 1 1 0
1  91 0 0 6.28318530717959
2  45 21 0 0 6.28318530717959
0

0101000
+284 2 -284 2 *
Wi

0101100
-283 0 *
Ve
1e-07
13.875 -83 15.6
0 0

0101101
*
Ed
 1e-07 1 1 0
1  92 0 0 6.28318530717959
2  46 22 0 0 6.28318530717959
0

0101000
+281 2 -281 2 *
Wi

0101100
-280 0 *
Ve
1e-07
13.875 -81 15.6
0 0

0101101
*
Ed
 1e-07 1 1 0
1  93 0 0 6.28318530717959
2  47 23 0 0 6.28318530717959
0

0101000
+278 2 -278 2 *
Wi

0101100
-277 0 *
Ve
1.5e-07
13 -7 15.6
0 0

0101101
*
Ve
1.5e-07
13 -33 15.6
0 0

0101101
*
Ed
 1.5e-07 1 1 0
1  94 0 -9.5 16.5
0

0101000
+275 2 -274 2 *
Ve
1.5e-07
-13 -7 15.6
0 0

0101101
*
Ed
 1.5e-07 1 1 0
1  95 0 -19.5 6.5
0

0101000
+272 2 -275 2 *
Ve
1.5e-07
-13 -33 15.6
0 0

0101101
*
Ed
 1.5e-07 1 1 0
1  96 0 -19.5 6.5
0

0101000
+274 2 -270 2 *
Ed
 1.5e-07 1 1 0
1  97 0 -29.5 -3.5
0

0101000
+270 2 -272 2 *
Wi

0101100
+273 0 +271 0 +269 0 +268 0 *
Ve
1e-07
11.625 -45 15.6
0 0

0101101
*
Ed
 1e-07 1 1 0
1  98 0 0 6.28318530717959
2  38 24 0 0 6.28318530717959
0

0101000
+266 18 -266 18 *
Wi

0101100
-265 17 *
Ve
1e-07
11.625 -5 15.6
0 0

0101101
*
Ed
 1e-07 1 1 0
1  99 0 0 6.28318530717959
2  38 25 0 0 6.28318530717959
0

0101000
+263 21 -263 21 *
Wi

0101100
-262 20 *
Ve
1e-07
-9.375 35 15.6
0 0

0101101
*
Ed
 1e-07 1 1 0
1  100 0 0 6.28318530717959
2  38 26 0 0 6.28318530717959
0

0101000
+260 24 -260 24 *
Wi

0101100
-259 23 *
Ve
1e-07
-9.375 75 15.6
0 0

0101101
*
Ed
 1e-07 1 1 0
1  101 0 0 6.28318530717959
2  38 27 0 0 6.28318530717959
0

0101000
+257 27 -257 27 *
Wi

0101100
-256 26 *
Ve
1e-07
-12.525 81 15.6
0 0

0101101
*
Ed
 1e-07 1 1 0
1  102 0 0 6.28318530717959
2  48 28 0 0 6.28318530717959
0

0101000
+254 2 -254 2 *
Wi

0101100
-253 0 *
Ve
1e-07
-12.525 83 15.6
0 0

0101101
*
Ed
 1e-07 1 1 0
1  103 0 0 6.28318530717959
2  49 29 0 0 6.28318530717959
0

0101000
+251 2 -251 2 *
Wi

0101100
-250 0 *
Ve
1e-07
-12.525 85 15.6
0 0

0101101
*
Ed
 1e-07 1 1 0
1  104 0 0 6.28318530717959
2  50 30 0 0 6.28318530717959
0

0101000
+248 2 -248 2 *
Wi

0101100
-247 0 *
Ve
1e-07
-12.525 87 15.6
0 0

0101101
*
Ed
 1e-07 1 1 0
1  105 0 0 6.28318530717959
2  51 31 0 0 6.28318530717959
0

0101000
+245 2 -245 2 *
Wi

0101100
-244 0 *
Ve
1e-07
-12.525 89 15.6
0 0

0101101
*
Ed
 1e-07 1 1 0
1  106 0 0 6.28318530717959
2  52 32 0 0 6.28318530717959
0

0101000
+242 2 -242 2 *
Wi

0101100
-241 0 *
Ve
1e-07
-12.525 91 15.6
0 0

0101101
*
Ed
 1e-07 1 1 0
1  107 0 0 6.28318530717959
2  53 33 0 0 6.28318530717959
0

0101000
+239 2 -239 2 *
Wi

0101100
-238 0 *
Ve
1e-07
-7.875 82 15.6
0 0

0101101
*
Ed
 1e-07 1 1 0
1  108 0 0 6.28318530717959
2  38 34 0 0 6.28318530717959
0

0101000
+236 30 -236 30 *
Wi

0101100
-235 29 *
Ve
1e-07
-4.425 86 15.6
0 0

0101101
*
Ed
 1e-07 1 1 0
1  109 0 0 6.28318530717959
2  54 35 0 0 6.28318530717959
0

0101000
+233 2 -233 2 *
Wi

0101100
-232 0 *
Ve
1.5e-07
13 33 15.6
0 0

0101101
*
Ve
1.5e-07
13 7 15.6
0 0

0101101
*
Ed
 1.5e-07 1 1 0
1  110 0 -29.5 -3.5
0

0101000
+230 2 -229 2 *
Ve
1.5e-07
-13 33 15.6
0 0

0101101
*
Ed
 1.5e-07 1 1 0
1  111 0 -19.5 6.5
0

0101000
+227 2 -230 2 *
Ve
1.5e-07
-13 7 15.6
0 0

0101101
*
Ed
 1.5e-07 1 1 0
1  112 0 -19.5 6.5
0

0101000
+229 2 -225 2 *
Ed
 1.5e-07 1 1 0
1  113 0 -9.5 16.5
0

0101000
+225 2 -227 2 *
Wi

0101100
+228 0 +226 0 +224 0 +223 0 *
Ve
1e-07
11.625 35 15.6
0 0

0101101
*
Ed
 1e-07 1 1 0
1  114 0 0 6.28318530717959
2  38 36 0 0 6.28318530717959
0

0101000
+221 33 -221 33 *
Wi

0101100
-220 32 *
Ve
1.5e-07
13 73 15.6
0 0

0101101
*
Ve
1.5e-07
13 47 15.6
0 0

0101101
*
Ed
 1.5e-07 1 1 0
1  115 0 -49.5 -23.5
0

0101000
+218 2 -217 2 *
Ve
1.5e-07
-13 73 15.6
0 0

0101101
*
Ed
 1.5e-07 1 1 0
1  116 0 -19.5 6.5
0

0101000
+215 2 -218 2 *
Ve
1.5e-07
-13 47 15.6
0 0

0101101
*
Ed
 1.5e-07 1 1 0
1  117 0 -19.5 6.5
0

0101000
+217 2 -213 2 *
Ed
 1.5e-07 1 1 0
1  118 0 10.5 36.5
0

0101000
+213 2 -215 2 *
Wi

0101100
+216 0 +214 0 +212 0 +211 0 *
Ve
1e-07
2.75 86 15.6
0 0

0101101
*
Ed
 1e-07 1 1 0
1  119 0 0 6.28318530717959
2  55 37 0 0 6.28318530717959
0

0101000
+209 2 -209 2 *
Wi

0101100
-208 0 *
Ve
1e-07
7.575 86 15.6
0 0

0101101
*
Ed
 1e-07 1 1 0
1  120 0 0 6.28318530717959
2  56 38 0 0 6.28318530717959
0

0101000
+206 2 -206 2 *
Wi

0101100
-205 0 *
Ve
1e-07
10.125 82 15.6
0 0

0101101
*
Ed
 1e-07 1 1 0
1  121 0 0 6.28318530717959
2  38 39 0 0 6.28318530717959
0

0101000
+203 36 -203 36 *
Wi

0101100
-202 35 *
Ve
1e-07
11.625 75 15.6
0 0

0101101
*
Ed
 1e-07 1 1 0
1  122 0 0 6.28318530717959
2  38 40 0 0 6.28318530717959
0

0101000
+200 39 -200 39 *
Wi

0101100
-199 38 *
Ve
1e-07
13.875 81 15.6
0 0

0101101
*
Ed
 1e-07 1 1 0
1  123 0 0 6.28318530717959
2  57 41 0 0 6.28318530717959
0

0101000
+197 2 -197 2 *
Wi

0101100
-196 0 *
Ve
1e-07
13.875 83 15.6
0 0

0101101
*
Ed
 1e-07 1 1 0
1  124 0 0 6.28318530717959
2  58 42 0 0 6.28318530717959
0

0101000
+194 2 -194 2 *
Wi

0101100
-193 0 *
Ve
1e-07
13.875 85 15.6
0 0

0101101
*
Ed
 1e-07 1 1 0
1  125 0 0 6.28318530717959
2  59 43 0 0 6.28318530717959
0

0101000
+191 2 -191 2 *
Wi

0101100
-190 0 *
Ve
1e-07
13.875 87 15.6
0 0

0101101
*
Ed
 1e-07 1 1 0
1  126 0 0 6.28318530717959
2  60 44 0 0 6.28318530717959
0

0101000
+188 2 -188 2 *
Wi

0101100
-187 0 *
Ve
1e-07
13.875 89 15.6
0 0

0101101
*
Ed
 1e-07 1 1 0
1  127 0 0 6.28318530717959
2  61 45 0 0 6.28318530717959
0

0101000
+185 2 -185 2 *
Wi

0101100
-184 0 *
Ve
1e-07
13.875 91 15.6
0 0

0101101
*
Ed
 1e-07 1 1 0
1  128 0 0 6.28318530717959
2  62 46 0 0 6.28318530717959
0

0101000
+182 2 -182 2 *
Wi

0101100
-181 0 *
Fa
0  1e-07 47 0

0101000
+342 0 +339 0 +336 0 +333 0 +330 0 +327 0 +324 0 +321 0 +318 0 +315 0 
+312 0 +309 0 +306 0 +297 0 +294 0 +291 0 +288 0 +285 0 +282 0 +279 0 
+276 0 +267 0 +264 0 +261 0 +258 0 +255 0 +252 0 +249 0 +246 0 +243 0 
+240 0 +237 0 +234 0 +231 0 +222 0 +219 0 +210 0 +207 0 +204 0 +201 0 
+198 0 +195 0 +192 0 +189 0 +186 0 +183 0 +180 0 *
Wi

0101100
+513 0 -520 0 -508 0 +343 0 *
Fa
0  1e-07 48 0

0101000
+178 0 *
Ed
 1e-07 1 1 0
1  129 0 0 1.6
3  63 64CN 5 0 0 1.6
0

0101000
+506 2 -341 2 *
Wi

0101100
+176 0 -176 0 -505 0 +340 0 *
Fa
0  1e-07 5 0

0101000
+175 0 *
Ed
 1e-07 1 1 0
1  130 0 0 1.6
3  65 66CN 6 0 0 1.6
0

0101000
+503 2 -338 2 *
Wi

0101100
+173 0 -173 0 -502 0 +337 0 *
Fa
0  1e-07 6 0

0101000
+172 0 *
Ed
 1e-07 1 1 0
1  131 0 0 1.6
3  67 68CN 7 0 0 1.6
0

0101000
+500 2 -335 2 *
Wi

0101100
+170 0 -170 0 -499 0 +334 0 *
Fa
0  1e-07 7 0

0101000
+169 0 *
Ed
 1e-07 1 1 0
1  132 0 0 1.6
3  69 70CN 8 0 0 1.6
0

0101000
+497 2 -332 2 *
Wi

0101100
+167 0 -167 0 -496 0 +331 0 *
Fa
0  1e-07 8 0

0101000
+166 0 *
Ed
 1e-07 1 1 0
1  133 0 0 1.6
3  71 72CN 9 0 0 1.6
0

0101000
+494 2 -329 2 *
Wi

0101100
+164 0 -164 0 -493 0 +328 0 *
Fa
0  1e-07 9 0

0101000
+163 0 *
Ed
 1e-07 1 1 0
1  134 0 0 1.6
3  73 74CN 10 0 0 1.6
0

0101000
+491 2 -326 2 *
Wi

0101100
+161 0 -161 0 -490 0 +325 0 *
Fa
0  1e-07 10 0

0101000
+160 0 *
Ed
 1e-07 1 1 0
1  135 0 0 1.6
3  75 76CN 11 0 0 1.6
0

0101000
+488 6 -323 6 *
Wi

0101100
+158 0 -158 0 -487 0 +322 0 *
Fa
0  1e-07 11 0

0101000
+157 0 *
Ed
 1e-07 1 1 0
1  136 0 0 1.6
3  77 78CN 12 0 0 1.6
0

0101000
+485 2 -320 2 *
Wi

0101100
+155 0 -155 0 -484 0 +319 0 *
Fa
0  1e-07 12 0

0101000
+154 0 *
Ed
 1e-07 1 1 0
1  137 0 0 1.6
3  75 76CN 13 0 0 1.6
0

0101000
+482 9 -317 9 *
Wi

0101100
+152 0 -152 0 -481 0 +316 0 *
Fa
0  1e-07 13 0

0101000
+151 0 *
Ed
 1e-07 1 1 0
1  138 0 0 1.6
3  75 76CN 14 0 0 1.6
0

0101000
+479 12 -314 12 *
Wi

0101100
+149 0 -149 0 -478 0 +313 0 *
Fa
0  1e-07 14 0

0101000
+148 0 *
Ed
 1e-07 1 1 0
1  139 0 0 1.6
3  79 80CN 15 0 0 1.6
0

0101000
+476 2 -311 2 *
Wi

0101100
+146 0 -146 0 -475 0 +310 0 *
Fa
0  1e-07 15 0

0101000
+145 0 *
Ed
 1e-07 1 1 0
1  140 0 0 1.6
3  81 82CN 16 0 0 1.6
0

0101000
+473 2 -308 2 *
Wi

0101100
+143 0 -143 0 -472 0 +307 0 *
Fa
0  1e-07 16 0

0101000
+142 0 *
Ed
 1.5e-07 1 1 0
1  141 0 0 1.6
0

0101000
+470 2 -305 2 *
Ed
 1.5e-07 1 1 0
1  142 0 0 1.6
0

0101000
+469 2 -304 2 *
Wi

0101100
+140 0 -139 0 -468 0 +303 0 *
Fa
0  1.5e-07 49 0

0101000
+138 0 *
Ed
 1.5e-07 1 1 0
1  143 0 0 1.6
0

0101000
+467 2 -302 2 *
Wi

0101100
+136 0 -140 0 -466 0 +301 0 *
Fa
0  1.5e-07 50 0

0101000
+135 0 *
Ed
 1.5e-07 1 1 0
1  144 0 0 1.6
0

0101000
+465 2 -300 2 *
Wi

0101100
+139 0 -133 0 -464 0 +299 0 *
Fa
0  1.5e-07 51 0

0101000
+132 0 *
Wi

0101100
+133 0 -136 0 -463 0 +298 0 *
Fa
0  1.5e-07 52 0

0101000
+130 0 *
Ed
 1e-07 1 1 0
1  145 0 0 1.6
3  75 76CN 17 0 0 1.6
0

0101000
+461 15 -296 15 *
Wi

0101100
+128 0 -128 0 -460 0 +295 0 *
Fa
0  1e-07 17 0

0101000
+127 0 *
Ed
 1e-07 1 1 0
1  146 0 0 1.6
3  83 84CN 18 0 0 1.6
0

0101000
+458 2 -293 2 *
Wi

0101100
+125 0 -125 0 -457 0 +292 0 *
Fa
0  1e-07 18 0

0101000
+124 0 *
Ed
 1e-07 1 1 0
1  147 0 0 1.6
3  85 86CN 19 0 0 1.6
0

0101000
+455 2 -290 2 *
Wi

0101100
+122 0 -122 0 -454 0 +289 0 *
Fa
0  1e-07 19 0

0101000
+121 0 *
Ed
 1e-07 1 1 0
1  148 0 0 1.6
3  87 88CN 20 0 0 1.6
0

0101000
+452 2 -287 2 *
Wi

0101100
+119 0 -119 0 -451 0 +286 0 *
Fa
0  1e-07 20 0

0101000
+118 0 *
Ed
 1e-07 1 1 0
1  149 0 0 1.6
3  89 90CN 21 0 0 1.6
0

0101000
+449 2 -284 2 *
Wi

0101100
+116 0 -116 0 -448 0 +283 0 *
Fa
0  1e-07 21 0

0101000
+115 0 *
Ed
 1e-07 1 1 0
1  150 0 0 1.6
3  91 92CN 22 0 0 1.6
0

0101000
+446 2 -281 2 *
Wi

0101100
+113 0 -113 0 -445 0 +280 0 *
Fa
0  1e-07 22 0

0101000
+112 0 *
Ed
 1e-07 1 1 0
1  151 0 0 1.6
3  93 94CN 23 0 0 1.6
0

0101000
+443 2 -278 2 *
Wi

0101100
+110 0 -110 0 -442 0 +277 0 *
Fa
0  1e-07 23 0

0101000
+109 0 *
Ed
 1.5e-07 1 1 0
1  152 0 0 1.6
0

0101000
+440 2 -275 2 *
Ed
 1.5e-07 1 1 0
1  153 0 0 1.6
0

0101000
+439 2 -274 2 *
Wi

0101100
+107 0 -106 0 -438 0 +273 0 *
Fa
0  1.5e-07 53 0

0101000
+105 0 *
Ed
 1.5e-07 1 1 0
1  154 0 0 1.6
0

0101000
+437 2 -272 2 *
Wi

0101100
+103 0 -107 0 -436 0 +271 0 *
Fa
0  1.5e-07 54 0

0101000
+102 0 *
Ed
 1.5e-07 1 1 0
1  155 0 0 1.6
0

0101000
+435 2 -270 2 *
Wi

0101100
+106 0 -100 0 -434 0 +269 0 *
Fa
0  1.5e-07 55 0

0101000
+99 0 *
Wi

0101100
+100 0 -103 0 -433 0 +268 0 *
Fa
0  1.5e-07 56 0

0101000
+97 0 *
Ed
 1e-07 1 1 0
1  156 0 0 1.6
3  75 76CN 24 0 0 1.6
0

0101000
+431 18 -266 18 *
Wi

0101100
+95 0 -95 0 -430 0 +265 0 *
Fa
0  1e-07 24 0

0101000
+94 0 *
Ed
 1e-07 1 1 0
1  157 0 0 1.6
3  75 76CN 25 0 0 1.6
0

0101000
+428 21 -263 21 *
Wi

0101100
+92 0 -92 0 -427 0 +262 0 *
Fa
0  1e-07 25 0

0101000
+91 0 *
Ed
 1e-07 1 1 0
1  158 0 0 1.6
3  75 76CN 26 0 0 1.6
0

0101000
+425 24 -260 24 *
Wi

0101100
+89 0 -89 0 -424 0 +259 0 *
Fa
0  1e-07 26 0

0101000
+88 0 *
Ed
 1e-07 1 1 0
1  159 0 0 1.6
3  75 76CN 27 0 0 1.6
0

0101000
+422 27 -257 27 *
Wi

0101100
+86 0 -86 0 -421 0 +256 0 *
Fa
0  1e-07 27 0

0101000
+85 0 *
Ed
 1e-07 1 1 0
1  160 0 0 1.6
3  95 96CN 28 0 0 1.6
0

0101000
+419 2 -254 2 *
Wi

0101100
+83 0 -83 0 -418 0 +253 0 *
Fa
0  1e-07 28 0

0101000
+82 0 *
Ed
 1e-07 1 1 0
1  161 0 0 1.6
3  97 98CN 29 0 0 1.6
0

0101000
+416 2 -251 2 *
Wi

0101100
+80 0 -80 0 -415 0 +250 0 *
Fa
0  1e-07 29 0

0101000
+79 0 *
Ed
 1e-07 1 1 0
1  162 0 0 1.6
3  99 100CN 30 0 0 1.6
0

0101000
+413 2 -248 2 *
Wi

0101100
+77 0 -77 0 -412 0 +247 0 *
Fa
0  1e-07 30 0

0101000
+76 0 *
Ed
 1e-07 1 1 0
1  163 0 0 1.6
3  101 102CN 31 0 0 1.6
0

0101000
+410 2 -245 2 *
Wi

0101100
+74 0 -74 0 -409 0 +244 0 *
Fa
0  1e-07 31 0

0101000
+73 0 *
Ed
 1e-07 1 1 0
1  164 0 0 1.6
3  103 104CN 32 0 0 1.6
0

0101000
+407 2 -242 2 *
Wi

0101100
+71 0 -71 0 -406 0 +241 0 *
Fa
0  1e-07 32 0

0101000
+70 0 *
Ed
 1e-07 1 1 0
1  165 0 0 1.6
3  105 106CN 33 0 0 1.6
0

0101000
+404 2 -239 2 *
Wi

0101100
+68 0 -68 0 -403 0 +238 0 *
Fa
0  1e-07 33 0

0101000
+67 0 *
Ed
 1e-07 1 1 0
1  166 0 0 1.6
3  75 76CN 34 0 0 1.6
0

0101000
+401 30 -236 30 *
Wi

0101100
+65 0 -65 0 -400 0 +235 0 *
Fa
0  1e-07 34 0

0101000
+64 0 *
Ed
 1e-07 1 1 0
1  167 0 0 1.6
3  107 108CN 35 0 0 1.6
0

0101000
+398 2 -233 2 *
Wi

0101100
+62 0 -62 0 -397 0 +232 0 *
Fa
0  1e-07 35 0

0101000
+61 0 *
Ed
 1.5e-07 1 1 0
1  168 0 0 1.6
0

0101000
+395 2 -230 2 *
Ed
 1.5e-07 1 1 0
1  169 0 0 1.6
0

0101000
+394 2 -229 2 *
Wi

0101100
+59 0 -58 0 -393 0 +228 0 *
Fa
0  1.5e-07 57 0

0101000
+57 0 *
Ed
 1.5e-07 1 1 0
1  170 0 0 1.6
0

0101000
+392 2 -227 2 *
Wi

0101100
+55 0 -59 0 -391 0 +226 0 *
Fa
0  1.5e-07 58 0

0101000
+54 0 *
Ed
 1.5e-07 1 1 0
1  171 0 0 1.6
0

0101000
+390 2 -225 2 *
Wi

0101100
+58 0 -52 0 -389 0 +224 0 *
Fa
0  1.5e-07 59 0

0101000
+51 0 *
Wi

0101100
+52 0 -55 0 -388 0 +223 0 *
Fa
0  1.5e-07 60 0

0101000
+49 0 *
Ed
 1e-07 1 1 0
1  172 0 0 1.6
3  75 76CN 36 0 0 1.6
0

0101000
+386 33 -221 33 *
Wi

0101100
+47 0 -47 0 -385 0 +220 0 *
Fa
0  1e-07 36 0

0101000
+46 0 *
Ed
 1.5e-07 1 1 0
1  173 0 0 1.6
0

0101000
+383 2 -218 2 *
Ed
 1.5e-07 1 1 0
1  174 0 0 1.6
0

0101000
+382 2 -217 2 *
Wi

0101100
+44 0 -43 0 -381 0 +216 0 *
Fa
0  1.5e-07 61 0

0101000
+42 0 *
Ed
 1.5e-07 1 1 0
1  175 0 0 1.6
0

0101000
+380 2 -215 2 *
Wi

0101100
+40 0 -44 0 -379 0 +214 0 *
Fa
0  1.5e-07 62 0

0101000
+39 0 *
Ed
 1.5e-07 1 1 0
1  176 0 0 1.6
0

0101000
+378 2 -213 2 *
Wi

0101100
+43 0 -37 0 -377 0 +212 0 *
Fa
0  1.5e-07 63 0

0101000
+36 0 *
Wi

0101100
+37 0 -40 0 -376 0 +211 0 *
Fa
0  1.5e-07 64 0

0101000
+34 0 *
Ed
 1e-07 1 1 0
1  177 0 0 1.6
3  109 110CN 37 0 0 1.6
0

0101000
+374 2 -209 2 *
Wi

0101100
+32 0 -32 0 -373 0 +208 0 *
Fa
0  1e-07 37 0

0101000
+31 0 *
Ed
 1e-07 1 1 0
1  178 0 0 1.6
3  111 112CN 38 0 0 1.6
0

0101000
+371 2 -206 2 *
Wi

0101100
+29 0 -29 0 -370 0 +205 0 *
Fa
0  1e-07 38 0

0101000
+28 0 *
Ed
 1e-07 1 1 0
1  179 0 0 1.6
3  75 76CN 39 0 0 1.6
0

0101000
+368 36 -203 36 *
Wi

0101100
+26 0 -26 0 -367 0 +202 0 *
Fa
0  1e-07 39 0

0101000
+25 0 *
Ed
 1e-07 1 1 0
1  180 0 0 1.6
3  75 76CN 40 0 0 1.6
0

0101000
+365 39 -200 39 *
Wi

0101100
+23 0 -23 0 -364 0 +199 0 *
Fa
0  1e-07 40 0

0101000
+22 0 *
Ed
 1e-07 1 1 0
1  181 0 0 1.6
3  113 114CN 41 0 0 1.6
0

0101000
+362 2 -197 2 *
Wi

0101100
+20 0 -20 0 -361 0 +196 0 *
Fa
0  1e-07 41 0

0101000
+19 0 *
Ed
 1e-07 1 1 0
1  182 0 0 1.6
3  115 116CN 42 0 0 1.6
0

0101000
+359 2 -194 2 *
Wi

0101100
+17 0 -17 0 -358 0 +193 0 *
Fa
0  1e-07 42 0

0101000
+16 0 *
Ed
 1e-07 1 1 0
1  183 0 0 1.6
3  117 118CN 43 0 0 1.6
0

0101000
+356 2 -191 2 *
Wi

0101100
+14 0 -14 0 -355 0 +190 0 *
Fa
0  1e-07 43 0

0101000
+13 0 *
Ed
 1e-07 1 1 0
1  184 0 0 1.6
3  119 120CN 44 0 0 1.6
0

0101000
+353 2 -188 2 *
Wi

0101100
+11 0 -11 0 -352 0 +187 0 *
Fa
0  1e-07 44 0

0101000
+10 0 *
Ed
 1e-07 1 1 0
1  185 0 0 1.6
3  121 122CN 45 0 0 1.6
0

0101000
+350 2 -185 2 *
Wi

0101100
+8 0 -8 0 -349 0 +184 0 *
Fa
0  1e-07 45 0

0101000
+7 0 *
Ed
 1e-07 1 1 0
1  186 0 0 1.6
3  123 124CN 46 0 0 1.6
0

0101000
+347 2 -182 2 *
Wi

0101100
+5 0 -5 0 -346 0 +181 0 *
Fa
0  1e-07 46 0

0101000
+4 0 *
Sh

0101100
+523 0 +516 0 -509 0 -344 0 +179 0 +177 0 +174 0 +171 0 +168 0 +165 0 
+162 0 +159 0 +156 5 +153 0 +150 8 +147 11 +144 0 +141 0 -137 0 -134 0 
-131 0 -129 0 +126 14 +123 0 +120 0 +117 0 +114 0 +111 0 +108 0 -104 0 
-101 0 -98 0 -96 0 +93 17 +90 20 +87 23 +84 26 +81 0 +78 0 +75 0 
+72 0 +69 0 +66 0 +63 29 +60 0 -56 0 -53 0 -50 0 -48 0 +45 32 
-41 0 -38 0 -35 0 -33 0 +30 0 +27 0 +24 35 +21 38 +18 0 +15 0 
+12 0 +9 0 +6 0 +3 0 *
So

0100000
+2 0 *

+1 1 