DBRep_DrawableShape

CASCADE Topology V1, (c) Matra-Datavision
Locations 135
1
              1              -0               0               0 
              0               1               0             -60 
             -0               0               1              -0 
1
              1              -0               0              -0 
              0               1               0               0 
             -0               0               1              -0 
1
              1              -0               0             -14 
              0               1               0             -11 
             -0               0               1              -0 
2  2 1 3 1 2 -1 0
2  2 1 3 -1 2 -1 0
1
              1              -0               0             -14 
              0               1               0              -9 
             -0               0               1              -0 
2  2 1 6 -1 2 -1 0
1
              1              -0               0             -14 
              0               1               0              -7 
             -0               0               1              -0 
2  2 1 8 -1 2 -1 0
1
              1              -0               0             -14 
              0               1               0              -5 
             -0               0               1              -0 
2  2 1 10 -1 2 -1 0
1
              1              -0               0             -14 
              0               1               0              -3 
             -0               0               1              -0 
2  2 1 12 -1 2 -1 0
1
              1              -0               0             -14 
              0               1               0              -1 
             -0               0               1              -0 
2  2 1 14 -1 2 -1 0
1
              1              -0               0             -14 
              0               1               0               1 
             -0               0               1               0 
2  2 1 16 -1 2 -1 0
1
              1              -0               0             -14 
              0               1               0               3 
             -0               0               1               0 
2  2 1 18 -1 2 -1 0
1
              1              -0               0             -14 
              0               1               0               5 
             -0               0               1               0 
2  2 1 20 -1 2 -1 0
1
              1              -0               0             -14 
              0               1               0               7 
             -0               0               1               0 
2  2 1 22 -1 2 -1 0
1
              1              -0               0             -14 
              0               1               0               9 
             -0               0               1               0 
2  2 1 24 -1 2 -1 0
1
              1              -0               0             -14 
              0               1               0              11 
             -0               0               1               0 
2  2 1 26 -1 2 -1 0
1
              1              -0               0              14 
              0               1               0             -11 
             -0               0               1              -0 
2  2 1 28 -1 2 -1 0
1
              1              -0               0              14 
              0               1               0              -9 
             -0               0               1              -0 
2  2 1 30 -1 2 -1 0
1
              1              -0               0              14 
              0               1               0              -7 
             -0               0               1              -0 
2  2 1 32 -1 2 -1 0
1
              1              -0               0              14 
              0               1               0              -5 
             -0               0               1              -0 
2  2 1 34 -1 2 -1 0
1
              1              -0               0              14 
              0               1               0              -3 
             -0               0               1              -0 
2  2 1 36 -1 2 -1 0
1
              1              -0               0              14 
              0               1               0              -1 
             -0               0               1              -0 
2  2 1 38 -1 2 -1 0
1
              1              -0               0              14 
              0               1               0               1 
             -0               0               1              -0 
2  2 1 40 -1 2 -1 0
1
              1              -0               0              14 
              0               1               0               3 
             -0               0               1              -0 
2  2 1 42 -1 2 -1 0
1
              1              -0               0              14 
              0               1               0               5 
             -0               0               1              -0 
2  2 1 44 -1 2 -1 0
1
              1              -0               0              14 
              0               1               0               7 
             -0               0               1              -0 
2  2 1 46 -1 2 -1 0
1
              1              -0               0              14 
              0               1               0               9 
             -0               0               1              -0 
2  2 1 48 -1 2 -1 0
1
              1              -0               0              14 
              0               1               0              11 
             -0               0               1              -0 
2  2 1 50 -1 2 -1 0
1
              1              -0               0              -0 
              0               1               0               0 
             -0               0               1              -0 
1
              1              -0               0             -12 
              0               1               0          -11.41 
             -0               0               1              -0 
2  52 1 53 1 52 -1 0
1
              1              -0               0             -12 
              0               1               0            8.91 
             -0               0               1               0 
2  52 1 55 -1 52 -1 0
1
              1              -0               0             -12 
              0               1               0           11.41 
             -0               0               1               0 
2  52 1 57 -1 52 -1 0
1
              1              -0               0              12 
              0               1               0            8.91 
             -0               0               1              -0 
2  52 1 59 -1 52 -1 0
1
              1              -0               0              12 
              0               1               0           11.41 
             -0               0               1              -0 
2  52 1 61 -1 52 -1 0
1
              1              -0               0             -12 
              0               1               0            3.83 
             -0               0               1               0 
2  52 1 63 -1 52 -1 0
1
              1              -0               0             -12 
              0               1               0            6.33 
             -0               0               1               0 
2  52 1 65 -1 52 -1 0
1
              1              -0               0              12 
              0               1               0            3.83 
             -0               0               1              -0 
2  52 1 67 -1 52 -1 0
1
              1              -0               0              12 
              0               1               0            6.33 
             -0               0               1              -0 
2  52 1 69 -1 52 -1 0
1
              1              -0               0             -12 
              0               1               0           -1.25 
             -0               0               1              -0 
2  52 1 71 -1 52 -1 0
1
              1              -0               0             -12 
              0               1               0            1.25 
             -0               0               1               0 
2  52 1 73 -1 52 -1 0
1
              1              -0               0              12 
              0               1               0           -1.25 
             -0               0               1              -0 
2  52 1 75 -1 52 -1 0
1
              1              -0               0              12 
              0               1               0            1.25 
             -0               0               1              -0 
2  52 1 77 -1 52 -1 0
1
              1              -0               0             -12 
              0               1               0           -6.33 
             -0               0               1              -0 
2  52 1 79 -1 52 -1 0
1
              1              -0               0             -12 
              0               1               0           -3.83 
             -0               0               1              -0 
2  52 1 81 -1 52 -1 0
1
              1              -0               0              12 
              0               1               0           -6.33 
             -0               0               1              -0 
2  52 1 83 -1 52 -1 0
1
              1              -0               0              12 
              0               1               0           -3.83 
             -0               0               1              -0 
2  52 1 85 -1 52 -1 0
2  52 1 53 -1 52 -1 0
1
              1              -0               0             -12 
              0               1               0           -8.91 
             -0               0               1              -0 
2  52 1 88 -1 52 -1 0
1
              1              -0               0              12 
              0               1               0          -11.41 
             -0               0               1              -0 
2  52 1 90 -1 52 -1 0
1
              1              -0               0              12 
              0               1               0           -8.91 
             -0               0               1              -0 
2  52 1 92 -1 52 -1 0
2  2 1 6 1 2 -1 0
2  52 1 88 1 52 -1 0
2  2 1 8 1 2 -1 0
2  52 1 79 1 52 -1 0
2  2 1 10 1 2 -1 0
2  52 1 81 1 52 -1 0
2  2 1 12 1 2 -1 0
2  2 1 14 1 2 -1 0
2  52 1 71 1 52 -1 0
2  52 1 90 1 52 -1 0
2  2 1 28 1 2 -1 0
2  52 1 92 1 52 -1 0
2  2 1 30 1 2 -1 0
2  52 1 83 1 52 -1 0
2  2 1 32 1 2 -1 0
2  2 1 34 1 2 -1 0
2  52 1 85 1 52 -1 0
2  2 1 36 1 2 -1 0
2  52 1 75 1 52 -1 0
2  2 1 38 1 2 -1 0
2  2 1 16 1 2 -1 0
2  52 1 73 1 52 -1 0
2  2 1 18 1 2 -1 0
2  52 1 63 1 52 -1 0
2  2 1 20 1 2 -1 0
2  2 1 22 1 2 -1 0
2  52 1 65 1 52 -1 0
2  2 1 24 1 2 -1 0
2  52 1 55 1 52 -1 0
2  2 1 26 1 2 -1 0
2  52 1 57 1 52 -1 0
2  52 1 77 1 52 -1 0
2  2 1 40 1 2 -1 0
2  2 1 42 1 2 -1 0
2  52 1 67 1 52 -1 0
2  2 1 44 1 2 -1 0
2  52 1 69 1 52 -1 0
2  2 1 46 1 2 -1 0
2  52 1 59 1 52 -1 0
2  2 1 48 1 2 -1 0
2  52 1 61 1 52 -1 0
2  2 1 50 1 2 -1 0
Curve2ds 172
1 -15 -15 1 0 
1 -15 -15 1 0 
1 -15 15 0 -1 
1 -15 15 0 -1 
1 15 -15 0 1 
1 15 -15 0 1 
1 15 15 -1 0 
1 0 0 1 0 
2 2.6287219575453358e-17 -3.5984557178457238e-17 1 0 -0 1 0.40639999999999998
2 -14 -11 1 0 -0 1 0.40639999999999965
2 -14 -9 1 0 -0 1 0.40639999999999965
2 -14 -7 1 0 -0 1 0.40639999999999965
2 -14 -5 1 0 -0 1 0.40639999999999965
2 -14 -3 1 0 -0 1 0.40639999999999965
2 -14 -1 1 0 -0 1 0.40639999999999965
2 -14 1 1 0 -0 1 0.40639999999999965
2 -14 3 1 0 -0 1 0.40639999999999965
2 -14 5 1 0 -0 1 0.40639999999999965
2 -14 7 1 0 -0 1 0.40639999999999965
2 -14 9 1 0 -0 1 0.40639999999999965
2 -14 11 1 0 -0 1 0.40639999999999965
2 14 -11 1 0 -0 1 0.40639999999999965
2 14 -9 1 0 -0 1 0.40639999999999965
2 14 -7 1 0 -0 1 0.40639999999999965
2 14 -5 1 0 -0 1 0.40639999999999965
2 14 -3 1 0 -0 1 0.40639999999999965
2 14 -1 1 0 -0 1 0.40639999999999965
2 14 1 1 0 -0 1 0.40639999999999965
2 14 3 1 0 -0 1 0.40639999999999965
2 14 5 1 0 -0 1 0.40639999999999965
2 14 7 1 0 -0 1 0.40639999999999965
2 14 9 1 0 -0 1 0.40639999999999965
2 14 11 1 0 -0 1 0.40639999999999965
1 0 0 1 0 
2 2.4034029326128786e-17 -1.1777691837524331e-17 1 0 -0 1 0.88900000000000001
2 -12 8.9100000000000001 1 0 -0 1 0.88899999999999935
2 -12 11.41 1 0 -0 1 0.88899999999999935
2 12 8.9100000000000001 1 0 -0 1 0.88899999999999935
2 12 11.41 1 0 -0 1 0.88899999999999935
2 -12 3.8300000000000001 1 0 -0 1 0.88899999999999935
2 -12 6.3300000000000001 1 0 -0 1 0.88899999999999935
2 12 3.8300000000000001 1 0 -0 1 0.88899999999999935
2 12 6.3300000000000001 1 0 -0 1 0.88899999999999935
2 -12 -1.25 1 0 -0 1 0.88899999999999935
2 -12 1.25 1 0 -0 1 0.88899999999999935
2 12 -1.25 1 0 -0 1 0.88899999999999935
2 12 1.25 1 0 -0 1 0.88899999999999935
2 -12 -6.3300000000000001 1 0 -0 1 0.88899999999999935
2 -12 -3.8300000000000001 1 0 -0 1 0.88899999999999935
2 12 -6.3300000000000001 1 0 -0 1 0.88899999999999935
2 12 -3.8300000000000001 1 0 -0 1 0.88899999999999935
2 -12 -11.41 1 0 -0 1 0.88899999999999935
2 -12 -8.9100000000000001 1 0 -0 1 0.88899999999999935
2 12 -11.41 1 0 -0 1 0.88899999999999935
2 12 -8.9100000000000001 1 0 -0 1 0.88899999999999935
1 -9.9000000000000004 -12 1 0 
1 0 0 1 0 
1 -9.9000000000000004 -12 1 0 
1 0 0 1 0 
2 -7.9000000000000004 -10 0 -1 -1 -0 2
2 -7.9000000000000004 -10 0 -1 -1 -0 2
1 0 0 1 0 
2 7.9000000000000004 -10 0 -1 1 0 2
2 7.9000000000000004 -10 0 -1 1 0 2
1 -9.9000000000000004 12 0 -1 
1 0 0 1 0 
1 -9.9000000000000004 12 0 -1 
1 9.9000000000000004 -12 0 1 
1 0 0 1 0 
1 9.9000000000000004 -12 0 1 
1 -3.1415926535897931 0 1 0 
2 -7.9000000000000004 10 0 -1 1 0 2
2 -7.9000000000000004 10 0 -1 1 0 2
1 -1.5707963267948966 0 1 0 
2 7.9000000000000004 10 0 -1 1 0 2
2 7.9000000000000004 10 0 -1 1 0 2
1 9.9000000000000004 12 -1 0 
1 0 -0 1 0 
1 9.9000000000000004 12 -1 0 
1 15 15 -1 0 
1 0 -1.6000000000000001 1 0 
2 2.6287219575453358e-17 -3.5984557178457238e-17 1 0 -0 1 0.40639999999999998
2 -14 -11 1 0 -0 1 0.40639999999999965
2 -14 -9 1 0 -0 1 0.40639999999999965
2 -14 -7 1 0 -0 1 0.40639999999999965
2 -14 -5 1 0 -0 1 0.40639999999999965
2 -14 -3 1 0 -0 1 0.40639999999999965
2 -14 -1 1 0 -0 1 0.40639999999999965
2 -14 1 1 0 -0 1 0.40639999999999965
2 -14 3 1 0 -0 1 0.40639999999999965
2 -14 5 1 0 -0 1 0.40639999999999965
2 -14 7 1 0 -0 1 0.40639999999999965
2 -14 9 1 0 -0 1 0.40639999999999965
2 -14 11 1 0 -0 1 0.40639999999999965
2 14 -11 1 0 -0 1 0.40639999999999965
2 14 -9 1 0 -0 1 0.40639999999999965
2 14 -7 1 0 -0 1 0.40639999999999965
2 14 -5 1 0 -0 1 0.40639999999999965
2 14 -3 1 0 -0 1 0.40639999999999965
2 14 -1 1 0 -0 1 0.40639999999999965
2 14 1 1 0 -0 1 0.40639999999999965
2 14 3 1 0 -0 1 0.40639999999999965
2 14 5 1 0 -0 1 0.40639999999999965
2 14 7 1 0 -0 1 0.40639999999999965
2 14 9 1 0 -0 1 0.40639999999999965
2 14 11 1 0 -0 1 0.40639999999999965
1 0 -1.6000000000000001 1 0 
2 2.4034029326128786e-17 -1.1777691837524331e-17 1 0 -0 1 0.88900000000000001
2 -12 8.9100000000000001 1 0 -0 1 0.88899999999999935
2 -12 11.41 1 0 -0 1 0.88899999999999935
2 12 8.9100000000000001 1 0 -0 1 0.88899999999999935
2 12 11.41 1 0 -0 1 0.88899999999999935
2 -12 3.8300000000000001 1 0 -0 1 0.88899999999999935
2 -12 6.3300000000000001 1 0 -0 1 0.88899999999999935
2 12 3.8300000000000001 1 0 -0 1 0.88899999999999935
2 12 6.3300000000000001 1 0 -0 1 0.88899999999999935
2 -12 -1.25 1 0 -0 1 0.88899999999999935
2 -12 1.25 1 0 -0 1 0.88899999999999935
2 12 -1.25 1 0 -0 1 0.88899999999999935
2 12 1.25 1 0 -0 1 0.88899999999999935
2 -12 -6.3300000000000001 1 0 -0 1 0.88899999999999935
2 -12 -3.8300000000000001 1 0 -0 1 0.88899999999999935
2 12 -6.3300000000000001 1 0 -0 1 0.88899999999999935
2 12 -3.8300000000000001 1 0 -0 1 0.88899999999999935
2 -12 -11.41 1 0 -0 1 0.88899999999999935
2 -12 -8.9100000000000001 1 0 -0 1 0.88899999999999935
2 12 -11.41 1 0 -0 1 0.88899999999999935
2 12 -8.9100000000000001 1 0 -0 1 0.88899999999999935
1 -9.9000000000000004 -12 1 0 
1 0 -1.6000000000000001 1 0 
1 -9.9000000000000004 -12 1 0 
1 0 1.6000000000000001 1 0 
2 -7.9000000000000004 -10 0 -1 -1 -0 2
2 -7.9000000000000004 -10 0 -1 -1 -0 2
1 0 1.6000000000000001 1 0 
2 7.9000000000000004 -10 0 -1 1 0 2
2 7.9000000000000004 -10 0 -1 1 0 2
1 -9.9000000000000004 12 0 -1 
1 0 -1.6000000000000001 1 0 
1 -9.9000000000000004 12 0 -1 
1 9.9000000000000004 -12 0 1 
1 0 -1.6000000000000001 1 0 
1 9.9000000000000004 -12 0 1 
1 -3.1415926535897931 1.6000000000000001 1 0 
2 -7.9000000000000004 10 0 -1 1 0 2
2 -7.9000000000000004 10 0 -1 1 0 2
1 -1.5707963267948966 1.6000000000000001 1 0 
2 7.9000000000000004 10 0 -1 1 0 2
2 7.9000000000000004 10 0 -1 1 0 2
1 9.9000000000000004 12 -1 0 
1 0 -1.6000000000000001 1 0 
1 9.9000000000000004 12 -1 0 
1 0 0 0 -1 
1 6.2831853071795862 0 0 -1 
1 0 0 0 -1 
1 6.2831853071795862 0 0 -1 
1 0 0 0 1 
1 2 0 0 -1 
1 0 0 0 1 
1 17.800000000000001 0 0 -1 
1 1.5707963267948966 0 0 1 
1 22 0 0 -1 
1 1.5707963267948966 0 0 1 
1 2 0 0 -1 
1 1.5707963267948966 0 0 1 
1 2 0 0 -1 
1 0 0 0 1 
1 22 0 0 -1 
1 0 0 0 1 
1 17.800000000000001 0 0 -1 
1 1.5707963267948966 0 0 1 
1 2 0 0 -1 
Curves 42
1 -15 -15 0 0 0 1 
1 15 -15 0 0 0 1 
1 -15 -15 0 1 0 0 
1 -15 -15 1.6000000000000001 1 0 0 
1 -15 15 0 0 0 1 
1 -15 15 0 0 -1 0 
1 -15 15 1.6000000000000001 0 -1 0 
1 15 15 0 0 0 1 
1 15 -15 0 0 1 0 
1 15 -15 1.6000000000000001 0 1 0 
1 15 15 0 -1 0 0 
2 0 0 0 0 0 1 1 0 0 0 1 0 0.40639999999999998
2 0 0 0 0 0 1 1 0 0 0 1 0 0.88900000000000001
1 -9.9000000000000004 -12 0 1 0 0 
8 0 1.5707963267948966
2 -7.9000000000000004 -10 0 -0 -0 -1 0 -1 0 -1 0 0 2
8 0 1.5707963267948966
2 7.9000000000000004 -10 0 0 0 1 0 -1 0 1 0 -0 2
1 -9.9000000000000004 12 0 0 -1 0 
1 9.9000000000000004 -12 0 0 1 0 
8 3.1415926535897931 4.7123889803846897
2 -7.9000000000000004 10 0 0 0 1 0 -1 0 1 0 -0 2
8 1.5707963267948966 3.1415926535897931
2 7.9000000000000004 10 0 0 0 1 0 -1 0 1 0 -0 2
1 9.9000000000000004 12 0 -1 0 0 
1 15 15 1.6000000000000001 -1 0 0 
2 0 0 1.6000000000000001 0 0 1 1 0 0 0 1 0 0.40639999999999998
2 0 0 1.6000000000000001 0 0 1 1 0 0 0 1 0 0.88900000000000001
1 -9.9000000000000004 -12 1.6000000000000001 1 0 0 
8 0 1.5707963267948966
2 -7.9000000000000004 -10 1.6000000000000001 -0 -0 -1 0 -1 0 -1 0 0 2
8 0 1.5707963267948966
2 7.9000000000000004 -10 1.6000000000000001 0 0 1 0 -1 0 1 0 -0 2
1 -9.9000000000000004 12 1.6000000000000001 0 -1 0 
1 9.9000000000000004 -12 1.6000000000000001 0 1 0 
8 3.1415926535897931 4.7123889803846897
2 -7.9000000000000004 10 1.6000000000000001 0 0 1 0 -1 0 1 0 -0 2
8 1.5707963267948966 3.1415926535897931
2 7.9000000000000004 10 1.6000000000000001 0 0 1 0 -1 0 1 0 -0 2
1 9.9000000000000004 12 1.6000000000000001 -1 0 0 
1 0.40639999999999998 0 0 0 0 1 
1 0.88900000000000001 0 0 0 0 1 
1 -7.9000000000000004 -12 0 0 0 1 
1 7.9000000000000004 -12 0 0 0 1 
1 -9.9000000000000004 -10 0 0 0 1 
1 9.9000000000000004 -10 0 0 0 1 
1 -9.9000000000000004 10 0 0 0 1 
1 9.9000000000000004 10 0 0 0 1 
1 -7.9000000000000004 12 0 0 0 1 
1 7.9000000000000004 12 0 0 0 1 
Polygon3D 0
PolygonOnTriangulations 0
Surfaces 22
1 -15 -15 0 0 1 0 1 0 0 0 0 -1 
1 0 0 0 0 0 1 1 0 -0 -0 1 0 
1 0 0 1.6000000000000001 0 0 1 1 0 -0 -0 1 0 
1 -15 15 0 1 0 -0 0 -1 0 0 -0 -1 
1 15 -15 0 -1 0 0 0 1 0 0 0 -1 
2 0 0 0 -0 -0 -1 1 0 0 0 1 0 0.40639999999999998
1 -2.6287219575453358e-17 3.5984557178457238e-17 0 0 0 1 1 0 -0 -0 1 0 
2 0 0 0 -0 -0 -1 1 0 0 0 1 0 0.88900000000000001
1 -2.4034029326128786e-17 1.1777691837524331e-17 0 0 0 1 1 0 -0 -0 1 0 
1 0 0 0 0 0 1 1 0 -0 -0 1 0 
1 -9.9000000000000004 -12 0 0 1 0 1 0 0 0 0 -1 
2 -7.9000000000000004 -10 0 0 0 1 0 -1 0 -1 -0 0 2
2 7.9000000000000004 -10 0 0 0 1 0 -1 0 1 0 -0 2
1 -9.9000000000000004 12 0 1 0 -0 0 -1 0 0 -0 -1 
1 9.9000000000000004 -12 0 -1 0 0 0 1 0 0 0 -1 
2 -7.9000000000000004 10 0 0 0 1 -0 1 0 -1 -0 0 2
2 7.9000000000000004 10 0 0 0 1 1 0 -0 -0 1 0 2
1 9.9000000000000004 12 0 0 -1 0 -1 0 0 -0 -0 -1 
1 -2.6287219575453358e-17 3.5984557178457238e-17 1.6000000000000001 0 0 1 1 0 -0 -0 1 0 
1 -2.4034029326128786e-17 1.1777691837524331e-17 1.6000000000000001 0 0 1 1 0 -0 -0 1 0 
1 0 0 1.6000000000000001 0 0 1 1 0 -0 -0 1 0 
1 15 15 0 0 -1 0 -1 0 0 -0 -0 -1 
Triangulations 0

TShapes 194
Ve
1e-07
-15 -15 0
0 0

0101101
*
Ve
1e-07
-15 -15 1.6
0 0

0101101
*
Ed
 1e-07 1 1 0
1  1 0 0 1.6
0

0101000
+194 0 -193 0 *
Ve
1e-07
15 -15 0
0 0

0101101
*
Ve
1e-07
15 -15 1.6
0 0

0101101
*
Ed
 1e-07 1 1 0
1  2 0 0 1.6
0

0101000
+191 0 -190 0 *
Ed
 1e-07 1 1 0
1  3 0 0 30
2  1 2 0 0 30
0

0101000
+194 0 -191 0 *
Ed
 1e-07 1 1 0
1  4 0 0 30
2  2 3 0 0 30
0

0101000
+193 0 -190 0 *
Wi

0101100
+192 0 -189 0 -188 0 +187 0 *
Fa
0  1e-07 1 0

0101000
+186 0 *
Ve
1e-07
-15 15 0
0 0

0101101
*
Ve
1e-07
-15 15 1.6
0 0

0101101
*
Ed
 1e-07 1 1 0
1  5 0 0 1.6
0

0101000
+184 0 -183 0 *
Ed
 1e-07 1 1 0
1  6 0 0 30
2  3 2 0 0 30
0

0101000
+184 0 -194 0 *
Ed
 1e-07 1 1 0
1  7 0 0 30
2  4 3 0 0 30
0

0101000
+183 0 -193 0 *
Wi

0101100
+182 0 -192 0 -181 0 +180 0 *
Fa
0  1e-07 4 0

0101000
+179 0 *
Ve
1e-07
15 15 0
0 0

0101101
*
Ve
1e-07
15 15 1.6
0 0

0101101
*
Ed
 1e-07 1 1 0
1  8 0 0 1.6
0

0101000
+177 0 -176 0 *
Ed
 1e-07 1 1 0
1  9 0 0 30
2  5 2 0 0 30
0

0101000
+191 0 -177 0 *
Ed
 1e-07 1 1 0
1  10 0 0 30
2  6 3 0 0 30
0

0101000
+190 0 -176 0 *
Wi

0101100
+189 0 -175 0 -174 0 +173 0 *
Fa
0  1e-07 5 0

0101000
+172 0 *
Ed
 1e-07 1 1 0
1  11 0 0 30
2  7 2 0 0 30
0

0101000
+177 0 -184 0 *
Wi

0101100
+188 0 +181 0 +174 0 +170 0 *
Ve
1e-07
0.4064 0 0
0 0

0101101
*
Ed
 1e-07 1 1 0
1  12 0 0 6.28318530717959
2  8 6 0 0 6.28318530717959
2  9 7 0 0 6.28318530717959
2  10 2 5 0 6.28318530717959
2  11 2 7 0 6.28318530717959
2  12 2 9 0 6.28318530717959
2  13 2 11 0 6.28318530717959
2  14 2 13 0 6.28318530717959
2  15 2 15 0 6.28318530717959
2  16 2 17 0 6.28318530717959
2  17 2 19 0 6.28318530717959
2  18 2 21 0 6.28318530717959
2  19 2 23 0 6.28318530717959
2  20 2 25 0 6.28318530717959
2  21 2 27 0 6.28318530717959
2  22 2 29 0 6.28318530717959
2  23 2 31 0 6.28318530717959
2  24 2 33 0 6.28318530717959
2  25 2 35 0 6.28318530717959
2  26 2 37 0 6.28318530717959
2  27 2 39 0 6.28318530717959
2  28 2 41 0 6.28318530717959
2  29 2 43 0 6.28318530717959
2  30 2 45 0 6.28318530717959
2  31 2 47 0 6.28318530717959
2  32 2 49 0 6.28318530717959
2  33 2 51 0 6.28318530717959
0

0101000
+168 0 -168 0 *
Wi

0101100
-167 4 *
Ve
1e-07
0.889 0 0
0 0

0101101
*
Ed
 1e-07 1 1 0
1  13 0 0 6.28318530717959
2  34 8 0 0 6.28318530717959
2  35 9 0 0 6.28318530717959
2  36 2 56 0 6.28318530717959
2  37 2 58 0 6.28318530717959
2  38 2 60 0 6.28318530717959
2  39 2 62 0 6.28318530717959
2  40 2 64 0 6.28318530717959
2  41 2 66 0 6.28318530717959
2  42 2 68 0 6.28318530717959
2  43 2 70 0 6.28318530717959
2  44 2 72 0 6.28318530717959
2  45 2 74 0 6.28318530717959
2  46 2 76 0 6.28318530717959
2  47 2 78 0 6.28318530717959
2  48 2 80 0 6.28318530717959
2  49 2 82 0 6.28318530717959
2  50 2 84 0 6.28318530717959
2  51 2 86 0 6.28318530717959
2  52 2 87 0 6.28318530717959
2  53 2 89 0 6.28318530717959
2  54 2 91 0 6.28318530717959
2  55 2 93 0 6.28318530717959
0

0101000
+165 0 -165 0 *
Wi

0101100
-164 54 *
Wi

0101100
-167 94 *
Wi

0101100
-164 95 *
Wi

0101100
-167 96 *
Wi

0101100
-164 97 *
Wi

0101100
-167 98 *
Wi

0101100
-164 99 *
Wi

0101100
-167 100 *
Wi

0101100
-167 101 *
Wi

0101100
-164 102 *
Wi

0101100
-164 103 *
Wi

0101100
-167 104 *
Wi

0101100
-164 105 *
Wi

0101100
-167 106 *
Wi

0101100
-164 107 *
Wi

0101100
-167 108 *
Wi

0101100
-167 109 *
Wi

0101100
-164 110 *
Wi

0101100
-167 111 *
Wi

0101100
-164 112 *
Wi

0101100
-167 113 *
Wi

0101100
-167 114 *
Wi

0101100
-164 115 *
Wi

0101100
-167 116 *
Wi

0101100
-164 117 *
Wi

0101100
-167 118 *
Wi

0101100
-167 119 *
Wi

0101100
-164 120 *
Wi

0101100
-167 121 *
Wi

0101100
-164 122 *
Wi

0101100
-167 123 *
Wi

0101100
-164 124 *
Ve
1e-07
-7.9 -12 0
0 0

0101101
*
Ve
1e-07
7.9 -12 0
0 0

0101101
*
Ed
 1e-07 1 1 0
1  14 0 2 17.8
2  56 10 0 2 17.8
2  57 11 0 2 17.8
2  58 2 0 2 17.8
0

0101000
+131 0 -130 0 *
Ve
1e-07
-9.9 -10 0
0 0

0101101
*
Ed
 1e-07 1 1 0
1  15 0 0 1.5707963267949
2  59 12 0 0 1.5707963267949
2  60 10 0 0 1.5707963267949
2  61 2 0 0 1.5707963267949
0

0101000
+131 0 -128 0 *
Ve
1e-07
9.9 -10 0
0 0

0101101
*
Ed
 1e-07 1 1 0
1  16 0 0 1.5707963267949
2  62 13 0 0 1.5707963267949
2  63 10 0 0 1.5707963267949
2  64 2 0 0 1.5707963267949
0

0101000
+130 0 -126 0 *
Ve
1e-07
-9.9 10 0
0 0

0101101
*
Ed
 1e-07 1 1 0
1  17 0 2 22
2  65 10 0 2 22
2  66 14 0 2 22
2  67 2 0 2 22
0

0101000
+124 0 -128 0 *
Ve
1e-07
9.9 10 0
0 0

0101101
*
Ed
 1e-07 1 1 0
1  18 0 2 22
2  68 10 0 2 22
2  69 15 0 2 22
2  70 2 0 2 22
0

0101000
+126 0 -122 0 *
Ve
1e-07
-7.9 12 0
0 0

0101101
*
Ed
 1e-07 1 1 0
1  19 0 3.14159265358979 4.71238898038469
2  71 16 0 3.14159265358979 4.71238898038469
2  72 10 0 3.14159265358979 4.71238898038469
2  73 2 0 3.14159265358979 4.71238898038469
0

0101000
+120 0 -124 0 *
Ve
1e-07
7.9 12 0
0 0

0101101
*
Ed
 1e-07 1 1 0
1  20 0 1.5707963267949 3.14159265358979
2  74 17 0 1.5707963267949 3.14159265358979
2  75 10 0 1.5707963267949 3.14159265358979
2  76 2 0 1.5707963267949 3.14159265358979
0

0101000
+122 0 -118 0 *
Ed
 1e-07 1 1 0
1  21 0 2 17.8
2  77 10 0 2 17.8
2  78 18 0 2 17.8
2  79 2 0 2 17.8
0

0101000
+118 0 -120 0 *
Wi

0101100
-129 0 +127 0 -125 0 -123 0 -121 0 -119 0 -117 0 -116 0 *
Wi

0101100
-164 125 *
Wi

0101100
-167 126 *
Wi

0101100
-167 127 *
Wi

0101100
-164 128 *
Wi

0101100
-167 129 *
Wi

0101100
-164 130 *
Wi

0101100
-167 131 *
Wi

0101100
-164 132 *
Wi

0101100
-167 133 *
Wi

0101100
-164 134 *
Wi

0101100
-167 135 *
Fa
0  1e-07 2 0

0101000
+169 0 +166 0 +163 0 +162 0 +161 0 +160 0 +159 0 +158 0 +157 0 +156 0 
+155 0 +154 0 +153 0 +152 0 +151 0 +150 0 +149 0 +148 0 +147 0 +146 0 
+145 0 +144 0 +143 0 +142 0 +141 0 +140 0 +139 0 +138 0 +137 0 +136 0 
+135 0 +134 0 +133 0 +132 0 +115 0 +114 0 +113 0 +112 0 +111 0 +110 0 
+109 0 +108 0 +107 0 +106 0 +105 0 +104 0 *
Ed
 1e-07 1 1 0
1  22 0 0 30
2  80 3 0 0 30
0

0101000
+176 0 -183 0 *
Wi

0101100
+187 0 +180 0 +173 0 +102 0 *
Ve
1e-07
0.4064 0 1.6
0 0

0101101
*
Ed
 1e-07 1 1 0
1  23 0 0 6.28318530717959
2  81 6 0 0 6.28318530717959
2  82 19 0 0 6.28318530717959
2  83 3 5 0 6.28318530717959
2  84 3 7 0 6.28318530717959
2  85 3 9 0 6.28318530717959
2  86 3 11 0 6.28318530717959
2  87 3 13 0 6.28318530717959
2  88 3 15 0 6.28318530717959
2  89 3 17 0 6.28318530717959
2  90 3 19 0 6.28318530717959
2  91 3 21 0 6.28318530717959
2  92 3 23 0 6.28318530717959
2  93 3 25 0 6.28318530717959
2  94 3 27 0 6.28318530717959
2  95 3 29 0 6.28318530717959
2  96 3 31 0 6.28318530717959
2  97 3 33 0 6.28318530717959
2  98 3 35 0 6.28318530717959
2  99 3 37 0 6.28318530717959
2  100 3 39 0 6.28318530717959
2  101 3 41 0 6.28318530717959
2  102 3 43 0 6.28318530717959
2  103 3 45 0 6.28318530717959
2  104 3 47 0 6.28318530717959
2  105 3 49 0 6.28318530717959
2  106 3 51 0 6.28318530717959
0

0101000
+100 0 -100 0 *
Wi

0101100
-99 4 *
Ve
1e-07
0.889 0 1.6
0 0

0101101
*
Ed
 1e-07 1 1 0
1  24 0 0 6.28318530717959
2  107 8 0 0 6.28318530717959
2  108 20 0 0 6.28318530717959
2  109 3 56 0 6.28318530717959
2  110 3 58 0 6.28318530717959
2  111 3 60 0 6.28318530717959
2  112 3 62 0 6.28318530717959
2  113 3 64 0 6.28318530717959
2  114 3 66 0 6.28318530717959
2  115 3 68 0 6.28318530717959
2  116 3 70 0 6.28318530717959
2  117 3 72 0 6.28318530717959
2  118 3 74 0 6.28318530717959
2  119 3 76 0 6.28318530717959
2  120 3 78 0 6.28318530717959
2  121 3 80 0 6.28318530717959
2  122 3 82 0 6.28318530717959
2  123 3 84 0 6.28318530717959
2  124 3 86 0 6.28318530717959
2  125 3 87 0 6.28318530717959
2  126 3 89 0 6.28318530717959
2  127 3 91 0 6.28318530717959
2  128 3 93 0 6.28318530717959
0

0101000
+97 0 -97 0 *
Wi

0101100
-96 54 *
Wi

0101100
-99 94 *
Wi

0101100
-96 95 *
Wi

0101100
-99 96 *
Wi

0101100
-96 97 *
Wi

0101100
-99 98 *
Wi

0101100
-96 99 *
Wi

0101100
-99 100 *
Wi

0101100
-99 101 *
Wi

0101100
-96 102 *
Wi

0101100
-96 103 *
Wi

0101100
-99 104 *
Wi

0101100
-96 105 *
Wi

0101100
-99 106 *
Wi

0101100
-96 107 *
Wi

0101100
-99 108 *
Wi

0101100
-99 109 *
Wi

0101100
-96 110 *
Wi

0101100
-99 111 *
Wi

0101100
-96 112 *
Wi

0101100
-99 113 *
Wi

0101100
-99 114 *
Wi

0101100
-96 115 *
Wi

0101100
-99 116 *
Wi

0101100
-96 117 *
Wi

0101100
-99 118 *
Wi

0101100
-99 119 *
Wi

0101100
-96 120 *
Wi

0101100
-99 121 *
Wi

0101100
-96 122 *
Wi

0101100
-99 123 *
Wi

0101100
-96 124 *
Ve
1e-07
-7.9 -12 1.6
0 0

0101101
*
Ve
1e-07
7.9 -12 1.6
0 0

0101101
*
Ed
 1e-07 1 1 0
1  25 0 2 17.8
2  129 21 0 2 17.8
2  130 11 0 2 17.8
2  131 3 0 2 17.8
0

0101000
+63 0 -62 0 *
Ve
1e-07
-9.9 -10 1.6
0 0

0101101
*
Ed
 1e-07 1 1 0
1  26 0 0 1.5707963267949
2  132 12 0 0 1.5707963267949
2  133 21 0 0 1.5707963267949
2  134 3 0 0 1.5707963267949
0

0101000
+63 0 -60 0 *
Ve
1e-07
9.9 -10 1.6
0 0

0101101
*
Ed
 1e-07 1 1 0
1  27 0 0 1.5707963267949
2  135 13 0 0 1.5707963267949
2  136 21 0 0 1.5707963267949
2  137 3 0 0 1.5707963267949
0

0101000
+62 0 -58 0 *
Ve
1e-07
-9.9 10 1.6
0 0

0101101
*
Ed
 1e-07 1 1 0
1  28 0 2 22
2  138 21 0 2 22
2  139 14 0 2 22
2  140 3 0 2 22
0

0101000
+56 0 -60 0 *
Ve
1e-07
9.9 10 1.6
0 0

0101101
*
Ed
 1e-07 1 1 0
1  29 0 2 22
2  141 21 0 2 22
2  142 15 0 2 22
2  143 3 0 2 22
0

0101000
+58 0 -54 0 *
Ve
1e-07
-7.9 12 1.6
0 0

0101101
*
Ed
 1e-07 1 1 0
1  30 0 3.14159265358979 4.71238898038469
2  144 16 0 3.14159265358979 4.71238898038469
2  145 21 0 3.14159265358979 4.71238898038469
2  146 3 0 3.14159265358979 4.71238898038469
0

0101000
+52 0 -56 0 *
Ve
1e-07
7.9 12 1.6
0 0

0101101
*
Ed
 1e-07 1 1 0
1  31 0 1.5707963267949 3.14159265358979
2  147 17 0 1.5707963267949 3.14159265358979
2  148 21 0 1.5707963267949 3.14159265358979
2  149 3 0 1.5707963267949 3.14159265358979
0

0101000
+54 0 -50 0 *
Ed
 1e-07 1 1 0
1  32 0 2 17.8
2  150 21 0 2 17.8
2  151 18 0 2 17.8
2  152 3 0 2 17.8
0

0101000
+50 0 -52 0 *
Wi

0101100
-61 0 +59 0 -57 0 -55 0 -53 0 -51 0 -49 0 -48 0 *
Wi

0101100
-96 125 *
Wi

0101100
-99 126 *
Wi

0101100
-99 127 *
Wi

0101100
-96 128 *
Wi

0101100
-99 129 *
Wi

0101100
-96 130 *
Wi

0101100
-99 131 *
Wi

0101100
-96 132 *
Wi

0101100
-99 133 *
Wi

0101100
-96 134 *
Wi

0101100
-99 135 *
Fa
0  1e-07 3 0

0101000
+101 0 +98 0 +95 0 +94 0 +93 0 +92 0 +91 0 +90 0 +89 0 +88 0 
+87 0 +86 0 +85 0 +84 0 +83 0 +82 0 +81 0 +80 0 +79 0 +78 0 
+77 0 +76 0 +75 0 +74 0 +73 0 +72 0 +71 0 +70 0 +69 0 +68 0 
+67 0 +66 0 +65 0 +64 0 +47 0 +46 0 +45 0 +44 0 +43 0 +42 0 
+41 0 +40 0 +39 0 +38 0 +37 0 +36 0 *
Wi

0101100
+175 0 -182 0 -170 0 +102 0 *
Fa
0  1e-07 22 0

0101000
+34 0 *
Ed
 1e-07 1 1 0
1  33 0 0 1.6
3  153 154CN 6 0 0 1.6
0

0101000
+168 0 -100 0 *
Wi

0101100
+32 0 -32 0 -167 0 +99 0 *
Fa
0  1e-07 6 0

0101000
+31 0 *
Ed
 1e-07 1 1 0
1  34 0 0 1.6
3  155 156CN 8 0 0 1.6
0

0101000
+165 0 -97 0 *
Wi

0101100
+29 0 -29 0 -164 0 +96 0 *
Fa
0  1e-07 8 0

0101000
+28 0 *
Ed
 1e-07 1 1 0
1  35 0 -0 1.6
2  157 12 0 -0 1.6
2  158 11 0 -0 1.6
4 G1 12 0 11 0
0

0101000
+131 0 -63 0 *
Ed
 1e-07 1 1 0
1  36 0 -0 1.6
2  159 13 0 -0 1.6
2  160 11 0 -0 1.6
4 G1 13 0 11 0
0

0101000
+130 0 -62 0 *
Wi

0101100
-129 0 +26 0 -25 0 +61 0 *
Fa
0  1e-07 11 0

0101000
+24 0 *
Ed
 1e-07 1 1 0
1  37 0 -0 1.6
2  161 12 0 -0 1.6
2  162 14 0 -0 1.6
4 G1 12 0 14 0
0

0101000
+128 0 -60 0 *
Wi

0101100
+127 0 -26 0 +22 0 -59 0 *
Fa
0  0 12 0

0101000
+21 0 *
Ed
 1e-07 1 1 0
1  38 0 -0 1.6
2  163 13 0 -0 1.6
2  164 15 0 -0 1.6
4 G1 13 0 15 0
0

0101000
+126 0 -58 0 *
Wi

0101100
+125 0 -25 0 +19 0 -57 0 *
Fa
0  0 13 0

0101000
+18 0 *
Ed
 1e-07 1 1 0
1  39 0 -0 1.6
2  165 16 0 -0 1.6
2  166 14 0 -0 1.6
4 G1 16 0 14 0
0

0101000
+124 0 -56 0 *
Wi

0101100
-123 0 +16 0 -22 0 +55 0 *
Fa
0  1e-07 14 0

0101000
+15 0 *
Ed
 1e-07 1 1 0
1  40 0 -0 1.6
2  167 17 0 -0 1.6
2  168 15 0 -0 1.6
4 G1 17 0 15 0
0

0101000
+122 0 -54 0 *
Wi

0101100
-121 0 +19 0 -13 0 +53 0 *
Fa
0  1e-07 15 0

0101000
+12 0 *
Ed
 1e-07 1 1 0
1  41 0 -0 1.6
2  169 16 0 -0 1.6
2  170 18 0 -0 1.6
4 G1 16 0 18 0
0

0101000
+120 0 -52 0 *
Wi

0101100
+119 0 -10 0 +16 0 -51 0 *
Fa
0  0 16 0

0101000
+9 0 *
Ed
 1e-07 1 1 0
1  42 0 -0 1.6
2  171 17 0 -0 1.6
2  172 18 0 -0 1.6
4 G1 17 0 18 0
0

0101000
+118 0 -50 0 *
Wi

0101100
+117 0 -13 0 +7 0 -49 0 *
Fa
0  0 17 0

0101000
+6 0 *
Wi

0101100
-116 0 +7 0 -10 0 +48 0 *
Fa
0  1e-07 18 0

0101000
+4 0 *
Sh

0101100
-185 0 -178 0 -171 0 -103 0 +35 0 -33 0 +30 4 +27 54 +30 94 +27 95 
+30 96 +27 97 +30 98 +27 99 +30 100 +30 101 +27 102 +27 103 +30 104 +27 105 
+30 106 +27 107 +30 108 +30 109 +27 110 +30 111 +27 112 +30 113 +30 114 +27 115 
+30 116 +27 117 +30 118 +30 119 +27 120 +30 121 +27 122 +30 123 +27 124 +23 0 
+20 0 -17 0 +14 0 +11 0 -8 0 -5 0 +3 0 +27 125 +30 126 +30 127 
+27 128 +30 129 +27 130 +30 131 +27 132 +30 133 +27 134 +30 135 *
So

0100000
+2 0 *

+1 1 