DBRep_DrawableShape

CASCADE Topology V1, (c) Matra-Datavision
Locations 2
1
              1              -0               0             -60 
              0               1               0              -0 
             -0               0               1               0 
2  1 -1 0
Curve2ds 64
1 0 0 0 1 
1 -4.7123889803846897 0 1 0 
1 0 0 1 0 
1 -4.7123889803846897 0 1 0 
1 -1.5707963267948966 0 1 0 
1 0 0 1 0 
1 -3.1415926535897931 0 1 0 
1 -3.1415926535897931 0 1 0 
1 -4.7123889803846897 0 1 0 
1 -1.5707963267948966 0 1 0 
1 0 0 1 0 
1 6.2831853071795862 -212.00000019999999 1 -0 
1 6.2831853071795862 -212.00000019999999 1 -0 
1 6.2831853071795862 -212.00000019999999 1 -0 
1 6.2831853071795862 -212.00000019999999 1 -0 
1 6.2831853071795862 -212.00000019999999 1 -0 
1 6.2831853071795862 -212.00000019999999 1 -0 
1 1.5707963267948966 0 0 1 
1 -4.7123889803846897 1.6000000000000001 1 0 
1 0 1.6000000000000001 1 0 
1 -4.7123889803846897 1.6000000000000001 1 0 
1 -1.5707963267948966 1.6000000000000001 1 0 
1 0 1.6000000000000001 1 0 
1 -3.1415926535897931 1.6000000000000001 1 0 
1 -3.1415926535897931 1.6000000000000001 1 0 
1 -4.7123889803846897 1.6000000000000001 1 0 
1 -1.5707963267948966 1.6000000000000001 1 0 
1 0 1.6000000000000001 1 0 
1 6.2831853071795862 -213.60000019999998 -1 0 
1 6.2831853071795862 -213.60000019999998 -1 0 
1 6.2831853071795862 -213.60000019999998 -1 0 
1 6.2831853071795862 -213.60000019999998 -1 0 
1 6.2831853071795862 -213.60000019999998 -1 0 
1 6.2831853071795862 -213.60000019999998 -1 0 
1 0 0 0 1 
1 0 0 0 1 
1 1.5707963267948966 0 0 1 
1 1.5707963267948966 0 0 1 
1 0 0 0 1 
1 0 0 0 1 
1 1.5707963267948966 0 0 1 
1 1.5707963267948966 0 0 1 
1 0 0 0 1 
1 1.5707963267948966 0 0 1 
1 1.5707963267948966 0 0 1 
1 0 0 0 1 
1 0 0 0 1 
1 1.5707963267948966 0 0 1 
1 1.5707963267948966 0 0 1 
1 0 0 0 1 
1 0 0 0 1 
1 1.5707963267948966 0 0 1 
1 0 0 0 -1 
1 6.2831853071795862 0 0 -1 
1 0 0 0 -1 
1 6.2831853071795862 0 0 -1 
1 0 0 0 -1 
1 6.2831853071795862 0 0 -1 
1 0 0 0 -1 
1 6.2831853071795862 0 0 -1 
1 0 0 0 -1 
1 6.2831853071795862 0 0 -1 
1 0 0 0 -1 
1 6.2831853071795862 0 0 -1 
Curves 84
1 -15.800000000000001 94 0 0 0 1 
1 -15.800000000000001 94 0.75000000000000044 1 0 0 
1 -15.800000000000001 94 0 1 0 0 
1 -14.199999999999999 94 0 0 0 1 
8 4.7123889803846897 6.2831853071795862
2 -15.800000000000001 96 0.75000000000000044 -1 0 0 0 0 1 0 1 0 2
1 -15.800000000000001 -94 0 0 1 0 
1 -15.800000000000001 94 2.75 0 1 0 
1 -15.800000000000001 -94 2.75 0 0 -1 
8 0 1.5707963267948966
2 -15.800000000000001 104 0.75000000000000044 -1 0 0 0 0 1 0 1 0 2
8 4.7123889803846897 6.2831853071795862
2 -15.800000000000001 -96 0.75000000000000044 1 0 -0 0 0 1 0 -1 0 2
1 -15.800000000000001 106 2.75 0 0 -1 
8 0 101.57999999999998
1 -15.800000000000001 -195.57999999999998 2.75 0 1 0 
8 1.5707963267948966 3.1415926535897931
2 -15.800000000000001 104 -18.25 -1 0 0 0 0 1 0 1 0 2
8 0 1.5707963267948968
2 -15.800000000000001 -193.58000000000001 0.75000000000000044 1 0 -0 0 0 1 0 -1 0 2
1 -15.800000000000001 106 -20.25 0 -1 0 
1 -15.800000000000001 -195.57999999999998 -20.25 0 0 1 
8 3.1415926535897931 4.7123889803846897
2 -15.800000000000001 86 -18.25 -1 0 0 0 0 1 0 1 0 2
8 3.1415926535897931 4.7123889803846897
2 -15.800000000000001 -193.58000000000001 -18.25 -1 0 0 0 0 1 0 1 0 2
1 -15.800000000000001 84 -20.25 0 0 1 
8 0 111.57999999999998
1 -15.800000000000001 -84 -20.25 0 -1 0 
8 4.7123889803846897 6.2831853071795862
2 -15.800000000000001 82 -17 1 0 -0 0 0 1 0 -1 0 2
8 1.5707963267948966 3.1415926535897931
2 -15.800000000000001 -86 -18.25 -1 0 0 0 0 1 0 1 0 2
1 -15.800000000000001 84 -15 0 -1 0 
1 -15.800000000000001 -84 -15 0 0 -1 
8 0 1.5707963267948966
2 -15.800000000000001 -82 -17 1 0 -0 0 0 1 0 -1 0 2
2 -15.800000000000001 97 -0.24999999999999234 1 -0 0 0 1 -6.9567321905179512e-15 0 6.9567321905179512e-15 1 1.099999999999993
2 -15.800000000000001 103 -17.25 1 -0 0 0 1 -2.4492935982947064e-16 0 2.4492935982947064e-16 1 1.5
2 -15.800000000000001 87 -17.249999999999993 1 -0 0 0 1 -6.7044087758304148e-15 0 6.7044087758304148e-15 1 1.0999999999999932
2 -15.800000000000001 -97 -0.24999999999999234 1 -0 0 0 1 -6.9567321905179512e-15 0 6.9567321905179512e-15 1 1.099999999999993
2 -15.800000000000001 -87 -17.249999999999993 1 -0 0 0 1 -6.7044087758304148e-15 0 6.7044087758304148e-15 1 1.0999999999999932
2 -15.800000000000001 -103 -17.25 1 -0 0 0 1 -2.4492935982947064e-16 0 2.4492935982947064e-16 1 1.5
1 -15.800000000000001 96 2.7500000000000004 1 0 0 
8 4.7123889803846897 6.2831853071795862
2 -14.199999999999999 96 0.75000000000000044 -1 0 0 0 0 1 0 1 0 2
1 -15.800000000000001 -94 0 1 0 0 
1 -14.199999999999999 -94 0 0 1 0 
1 -14.199999999999999 94 2.75 0 1 0 
1 -14.199999999999999 -94 2.75 0 0 -1 
8 0 1.5707963267948966
2 -14.199999999999999 104 0.75000000000000044 -1 0 0 0 0 1 0 1 0 2
8 4.7123889803846897 6.2831853071795862
2 -14.199999999999999 -96 0.75000000000000044 1 0 -0 0 0 1 0 -1 0 2
1 -14.199999999999999 106 2.75 0 0 -1 
8 0 101.57999999999998
1 -14.199999999999999 -94 2.75 0 -1 0 
8 1.5707963267948966 3.1415926535897931
2 -14.199999999999999 104 -18.25 -1 0 0 0 0 1 0 1 0 2
8 0 1.5707963267948968
2 -14.199999999999999 -193.58000000000001 0.75000000000000044 1 0 -0 0 0 1 0 -1 0 2
1 -14.199999999999999 106 -20.25 0 -1 0 
1 -14.199999999999999 -195.57999999999998 -20.25 0 0 1 
8 3.1415926535897931 4.7123889803846897
2 -14.199999999999999 86 -18.25 -1 0 0 0 0 1 0 1 0 2
8 3.1415926535897931 4.7123889803846897
2 -14.199999999999999 -193.58000000000001 -18.25 -1 0 0 0 0 1 0 1 0 2
1 -14.199999999999999 84 -20.25 0 0 1 
8 0 111.57999999999998
1 -14.199999999999999 -195.57999999999998 -20.25 0 1 0 
8 4.7123889803846897 6.2831853071795862
2 -14.199999999999999 82 -17 1 0 -0 0 0 1 0 -1 0 2
8 1.5707963267948966 3.1415926535897931
2 -14.199999999999999 -86 -18.25 -1 0 0 0 0 1 0 1 0 2
1 -14.199999999999999 84 -15 0 -1 0 
1 -14.199999999999999 -84 -15 0 0 -1 
8 0 1.5707963267948966
2 -14.199999999999999 -82 -17 1 0 -0 0 0 1 0 -1 0 2
2 -14.200000000000006 97 -0.25 -1 0 0 0 1 0 0 0 -1 1.1000000000000001
2 -14.200000000000006 103 -17.25 -1 0 0 0 1 0 0 0 -1 1.5
2 -14.200000000000006 87 -17.25 -1 0 0 0 1 0 0 0 -1 1.1000000000000001
2 -14.200000000000006 -97 -0.25 -1 0 0 0 1 0 0 0 -1 1.1000000000000001
2 -14.200000000000006 -87 -17.25 -1 0 0 0 1 0 0 0 -1 1.1000000000000001
2 -14.200000000000006 -103 -17.25 -1 0 0 0 1 0 0 0 -1 1.5
1 -15.800000000000001 104 2.7500000000000004 1 0 0 
1 -15.800000000000001 -94 0.75000000000000044 1 0 0 
1 -15.800000000000001 106 0.75000000000000056 1 0 0 
1 -15.800000000000001 -96 2.7500000000000004 1 0 0 
1 -15.800000000000001 106 -18.25 1 0 0 
1 -15.800000000000001 -193.58000000000001 2.7500000000000004 1 0 0 
1 -15.800000000000001 104 -20.25 1 0 0 
1 -15.800000000000001 -195.58000000000001 0.75000000000000056 1 0 0 
1 -15.800000000000001 86 -20.25 1 0 0 
1 -15.800000000000001 -195.58000000000001 -18.25 1 0 0 
1 -15.800000000000001 84 -18.25 1 0 0 
1 -15.800000000000001 -193.58000000000001 -20.25 1 0 0 
1 -15.800000000000001 84 -17 1 0 0 
1 -15.800000000000001 -86 -20.25 1 0 0 
1 -15.800000000000001 82 -15 1 0 0 
1 -15.800000000000001 -84 -18.25 1 0 0 
1 -15.800000000000001 -82 -15 1 0 0 
1 -15.800000000000001 -84 -17 1 0 0 
1 -227.8000002 98.099999999999994 -0.25 1 0 0 
1 -227.8000002 104.5 -17.25 1 0 0 
1 -227.8000002 88.099999999999994 -17.25 1 0 0 
1 -227.8000002 -95.900000000000006 -0.25 1 0 0 
1 -227.8000002 -85.900000000000006 -17.25 1 0 0 
1 -227.8000002 -101.5 -17.25 1 0 0 
Polygon3D 0
PolygonOnTriangulations 0
Surfaces 30
1 -15.800000000000001 94 0 0 -1 0 0 0 1 -1 0 0 
2 -15.800000000000001 96 0.75000000000000044 1 0 0 0 -1 0 0 0 1 2
1 -15.800000000000001 0 -8.076131687242798 -1 -0 -0 0 0 -1 0 -1 0 
2 -15.800000000000001 104 0.75000000000000044 1 0 0 0 0 1 0 1 0 2
2 -15.800000000000001 -96 0.75000000000000044 1 0 0 0 1 0 0 0 1 2
2 -15.800000000000001 104 -18.25 1 0 0 0 1 0 0 0 -1 2
2 -15.800000000000001 -193.58000000000001 0.75000000000000044 1 0 0 0 0 1 0 -1 0 2
2 -15.800000000000001 86 -18.25 1 0 0 0 0 -1 0 -1 0 2
2 -15.800000000000001 -193.58000000000001 -18.25 1 0 0 0 0 -1 0 -1 0 2
2 -15.800000000000001 82 -17 1 0 0 0 1 0 0 0 1 2
2 -15.800000000000001 -86 -18.25 1 0 0 0 1 0 0 0 -1 2
2 -15.800000000000001 -82 -17 1 0 0 0 0 1 0 -1 0 2
2 -227.8000002 97 -0.25 -1 0 0 0 1 0 0 0 1 1.1000000000000001
2 -227.8000002 103 -17.25 -1 0 0 0 1 0 0 0 1 1.5
2 -227.8000002 87 -17.25 -1 0 0 0 1 0 0 0 1 1.1000000000000001
2 -227.8000002 -97 -0.25 -1 0 0 0 1 0 0 0 1 1.1000000000000001
2 -227.8000002 -87 -17.25 -1 0 0 0 1 0 0 0 1 1.1000000000000001
2 -227.8000002 -103 -17.25 -1 0 0 0 1 0 0 0 1 1.5
1 -15.800000000000001 94 2.75 0 0 1 0 1 0 -1 0 0 
1 -15.800000000000001 -94 0 0 0 1 0 1 0 -1 0 0 
1 -14.199999999999999 0 -8.076131687242798 -1 -0 -0 0 0 -1 0 -1 0 
1 -15.800000000000001 -94 2.75 0 1 0 0 0 -1 -1 0 0 
1 -15.800000000000001 106 2.75 0 1 0 0 0 -1 -1 0 0 
1 -15.800000000000001 -106 2.75 0 0 1 0 1 0 -1 0 0 
1 -15.800000000000001 106 -20.25 0 0 -1 0 -1 0 -1 -0 -0 
1 -15 -195.58000000000001 -8.75 -0 -1 -0 0 0 -1 1 0 0 
1 -15.800000000000001 84 -20.25 0 -1 0 0 0 1 -1 0 0 
1 -15.800000000000001 -84 -20.25 0 0 -1 0 -1 0 -1 -0 -0 
1 -15.800000000000001 84 -15 0 0 -1 0 -1 0 -1 -0 -0 
1 -15.800000000000001 -84 -15 0 1 0 0 0 -1 -1 0 0 
Triangulations 0

TShapes 214
Ve
1e-07
-75.8 94 0.75
0 0

0101101
*
Ve
1e-07
-75.8 94 0
0 0

0101101
*
Ed
 1e-07 1 1 0
1  1 0 0 0.75
0

0101000
-214 2 +213 2 *
Ve
1e-07
-74.2 94 0.75
0 0

0101101
*
Ed
 1e-07 1 1 0
1  2 0 -0 1.6
2  1 2 0 -0 1.6
4 G1 1 0 2 0
0

0101000
+214 2 -211 2 *
Ve
1e-07
-74.2 94 0
0 0

0101101
*
Ed
 1e-07 1 1 0
1  3 0 0 1.6
0

0101000
+213 2 -209 2 *
Ed
 1e-07 1 1 0
1  4 0 0 0.75
0

0101000
-211 2 +209 2 *
Wi

0101100
-212 0 -210 0 +208 0 +207 0 *
Fa
0  1e-07 1 0

0101000
+206 0 *
Ve
1e-07
-75.8 96 2.75
0 0

0101101
*
Ed
 1e-07 1 1 0
1  5 0 4.71238898038469 6.28318530717959
2  2 2 0 4.71238898038469 6.28318530717959
0

0101000
+214 2 -204 2 *
Ve
1e-07
-75.8 -94 0
0 0

0101101
*
Ed
 1e-07 1 1 0
1  6 0 0 188
0

0101000
+202 2 -213 2 *
Ve
1e-07
-75.8 104 2.75
0 0

0101101
*
Ed
 1e-07 1 1 0
1  7 0 2 10
0

0101000
+204 2 -200 2 *
Ve
1e-07
-75.8 -94 0.75
0 0

0101101
*
Ed
 1e-07 1 1 0
1  8 0 2 2.75
0

0101000
+198 2 -202 2 *
Ve
1e-07
-75.8 106 0.750000000000001
0 0

0101101
*
Ed
 1e-07 1 1 0
1  9 0 0 1.5707963267949
2  3 4 0 0 1.5707963267949
0

0101000
+200 2 -196 2 *
Ve
1e-07
-75.8 -96 2.75
0 0

0101101
*
Ed
 1e-07 1 1 0
1  10 0 4.71238898038469 6.28318530717959
2  4 5 0 4.71238898038469 6.28318530717959
0

0101000
+198 2 -194 2 *
Ve
1e-07
-75.8 106 -18.25
0 0

0101101
*
Ed
 1e-07 1 1 0
1  11 0 2 21
0

0101000
+196 2 -192 2 *
Ve
1e-07
-75.8 -193.58 2.75
0 0

0101101
*
Ed
 1e-07 1 1 0
1  12 0 1.99999999999997 99.58
0

0101000
+190 2 -194 2 *
Ve
1e-07
-75.8 104 -20.25
0 0

0101101
*
Ed
 1e-07 1 1 0
1  13 0 1.5707963267949 3.14159265358979
2  5 6 0 1.5707963267949 3.14159265358979
0

0101000
+192 2 -188 2 *
Ve
1e-07
-75.8 -195.58 0.750000000000001
0 0

0101101
*
Ed
 1e-07 1 1 0
1  14 0 0 1.5707963267949
2  6 7 0 0 1.5707963267949
0

0101000
+190 2 -186 2 *
Ve
1e-07
-75.8 86 -20.25
0 0

0101101
*
Ed
 1e-07 1 1 0
1  15 0 2 20
0

0101000
+188 2 -184 2 *
Ve
1e-07
-75.8 -195.58 -18.25
0 0

0101101
*
Ed
 1e-07 1 1 0
1  16 0 2 21
0

0101000
+182 2 -186 2 *
Ve
1e-07
-75.8 84 -18.25
0 0

0101101
*
Ed
 1e-07 1 1 0
1  17 0 3.14159265358979 4.71238898038469
2  7 8 0 3.14159265358979 4.71238898038469
0

0101000
+184 2 -180 2 *
Ve
1e-07
-75.8 -193.58 -20.25
0 0

0101101
*
Ed
 1e-07 1 1 0
1  18 0 3.14159265358979 4.71238898038469
2  8 9 0 3.14159265358979 4.71238898038469
0

0101000
+178 2 -182 2 *
Ve
1e-07
-75.8 84 -17
0 0

0101101
*
Ed
 1e-07 1 1 0
1  19 0 2 3.25
0

0101000
+180 2 -176 2 *
Ve
1e-07
-75.8 -86 -20.25
0 0

0101101
*
Ed
 1e-07 1 1 0
1  20 0 2 109.58
0

0101000
+174 2 -178 2 *
Ve
1e-07
-75.8 82 -15
0 0

0101101
*
Ed
 1e-07 1 1 0
1  21 0 4.71238898038469 6.28318530717959
2  9 10 0 4.71238898038469 6.28318530717959
0

0101000
+176 2 -172 2 *
Ve
1e-07
-75.8 -84 -18.25
0 0

0101101
*
Ed
 1e-07 1 1 0
1  22 0 1.5707963267949 3.14159265358979
2  10 11 0 1.5707963267949 3.14159265358979
0

0101000
+170 2 -174 2 *
Ve
1e-07
-75.8 -82 -15
0 0

0101101
*
Ed
 1e-07 1 1 0
1  23 0 2 166
0

0101000
+172 2 -168 2 *
Ve
1e-07
-75.8 -84 -17
0 0

0101101
*
Ed
 1e-07 1 1 0
1  24 0 2 3.25
0

0101000
+166 2 -170 2 *
Ed
 1e-07 1 1 0
1  25 0 0 1.5707963267949
2  11 12 0 0 1.5707963267949
0

0101000
+168 2 -166 2 *
Wi

0101100
+212 0 +203 0 +201 0 +199 0 +197 0 +195 0 -193 0 +191 0 +189 0 +187 0 
-185 0 +183 0 +181 0 +179 0 +177 0 +175 0 +173 0 +171 0 +169 0 +167 0 
+165 0 +164 0 *
Ve
1.00000000277556e-07
-75.8 98.1 -0.25
0 0

0101101
*
Ed
 1e-07 1 1 0
1  26 0 -6.28318530717959 -0
2  12 13 0 -6.28318530717959 -0
0

0101000
+162 2 -162 2 *
Wi

0101100
+161 0 *
Ve
1e-07
-75.8 104.5 -17.25
0 0

0101101
*
Ed
 1e-07 1 1 0
1  27 0 -6.28318530717959 -0
2  13 14 0 -6.28318530717959 -0
0

0101000
+159 2 -159 2 *
Wi

0101100
+158 0 *
Ve
1e-07
-75.8 88.1 -17.25
0 0

0101101
*
Ed
 1e-07 1 1 0
1  28 0 -6.28318530717959 -0
2  14 15 0 -6.28318530717959 -0
0

0101000
+156 2 -156 2 *
Wi

0101100
+155 0 *
Ve
1.00000000277556e-07
-75.8 -95.9 -0.25
0 0

0101101
*
Ed
 1e-07 1 1 0
1  29 0 -6.28318530717959 -0
2  15 16 0 -6.28318530717959 -0
0

0101000
+153 2 -153 2 *
Wi

0101100
+152 0 *
Ve
1e-07
-75.8 -85.9 -17.25
0 0

0101101
*
Ed
 1e-07 1 1 0
1  30 0 -6.28318530717959 -0
2  16 17 0 -6.28318530717959 -0
0

0101000
+150 2 -150 2 *
Wi

0101100
+149 0 *
Ve
1e-07
-75.8 -101.5 -17.25
0 0

0101101
*
Ed
 1e-07 1 1 0
1  31 0 -6.28318530717959 -0
2  17 18 0 -6.28318530717959 -0
0

0101000
+147 2 -147 2 *
Wi

0101100
+146 0 *
Fa
0  1e-07 3 0

0101000
+163 0 +160 0 +157 0 +154 0 +151 0 +148 0 +145 0 *
Ve
1e-07
-74.2 96 2.75
0 0

0101101
*
Ed
 1e-07 1 1 0
1  32 0 -0 1.6
2  18 2 0 -0 1.6
4 G1 2 0 19 0
0

0101000
+204 2 -143 2 *
Ed
 1e-07 1 1 0
1  33 0 4.71238898038469 6.28318530717959
2  19 2 0 4.71238898038469 6.28318530717959
0

0101000
+211 2 -143 2 *
Wi

0101100
+203 0 -210 0 +142 0 -141 0 *
Fa
0  1e-07 2 0

0101000
+140 0 *
Ve
1e-07
-74.2 -94 0
0 0

0101101
*
Ed
 1e-07 1 1 0
1  34 0 0 1.6
0

0101000
+202 2 -138 2 *
Ed
 1e-07 1 1 0
1  35 0 0 188
0

0101000
+138 2 -209 2 *
Wi

0101100
+137 0 -208 0 -201 0 +136 0 *
Fa
0  1e-07 20 0

0101000
+135 0 *
Ve
1e-07
-74.2 104 2.75
0 0

0101101
*
Ed
 1e-07 1 1 0
1  36 0 2 10
0

0101000
+143 2 -133 2 *
Ve
1e-07
-74.2 -94 0.75
0 0

0101101
*
Ed
 1e-07 1 1 0
1  37 0 2 2.75
0

0101000
+131 2 -138 2 *
Ve
1e-07
-74.2 106 0.750000000000001
0 0

0101101
*
Ed
 1e-07 1 1 0
1  38 0 0 1.5707963267949
2  20 4 0 0 1.5707963267949
0

0101000
+133 2 -129 2 *
Ve
1e-07
-74.2 -96 2.75
0 0

0101101
*
Ed
 1e-07 1 1 0
1  39 0 4.71238898038469 6.28318530717959
2  21 5 0 4.71238898038469 6.28318530717959
0

0101000
+131 2 -127 2 *
Ve
1e-07
-74.2 106 -18.25
0 0

0101101
*
Ed
 1e-07 1 1 0
1  40 0 2 21
0

0101000
+129 2 -125 2 *
Ve
1e-07
-74.2 -193.58 2.75
0 0

0101101
*
Ed
 1e-07 1 1 0
1  41 0 2 99.58
0

0101000
+127 2 -123 2 *
Ve
1e-07
-74.2 104 -20.25
0 0

0101101
*
Ed
 1e-07 1 1 0
1  42 0 1.5707963267949 3.14159265358979
2  22 6 0 1.5707963267949 3.14159265358979
0

0101000
+125 2 -121 2 *
Ve
1e-07
-74.2 -195.58 0.750000000000001
0 0

0101101
*
Ed
 1e-07 1 1 0
1  43 0 0 1.5707963267949
2  23 7 0 0 1.5707963267949
0

0101000
+123 2 -119 2 *
Ve
1e-07
-74.2 86 -20.25
0 0

0101101
*
Ed
 1e-07 1 1 0
1  44 0 2 20
0

0101000
+121 2 -117 2 *
Ve
1e-07
-74.2 -195.58 -18.25
0 0

0101101
*
Ed
 1e-07 1 1 0
1  45 0 2 21
0

0101000
+115 2 -119 2 *
Ve
1e-07
-74.2 84 -18.25
0 0

0101101
*
Ed
 1e-07 1 1 0
1  46 0 3.14159265358979 4.71238898038469
2  24 8 0 3.14159265358979 4.71238898038469
0

0101000
+117 2 -113 2 *
Ve
1e-07
-74.2 -193.58 -20.25
0 0

0101101
*
Ed
 1e-07 1 1 0
1  47 0 3.14159265358979 4.71238898038469
2  25 9 0 3.14159265358979 4.71238898038469
0

0101000
+111 2 -115 2 *
Ve
1e-07
-74.2 84 -17
0 0

0101101
*
Ed
 1e-07 1 1 0
1  48 0 2 3.25
0

0101000
+113 2 -109 2 *
Ve
1e-07
-74.2 -86 -20.25
0 0

0101101
*
Ed
 1e-07 1 1 0
1  49 0 1.99999999999997 109.58
0

0101000
+111 2 -107 2 *
Ve
1e-07
-74.2 82 -15
0 0

0101101
*
Ed
 1e-07 1 1 0
1  50 0 4.71238898038469 6.28318530717959
2  26 10 0 4.71238898038469 6.28318530717959
0

0101000
+109 2 -105 2 *
Ve
1e-07
-74.2 -84 -18.25
0 0

0101101
*
Ed
 1e-07 1 1 0
1  51 0 1.5707963267949 3.14159265358979
2  27 11 0 1.5707963267949 3.14159265358979
0

0101000
+103 2 -107 2 *
Ve
1e-07
-74.2 -82 -15
0 0

0101101
*
Ed
 1e-07 1 1 0
1  52 0 2 166
0

0101000
+105 2 -101 2 *
Ve
1e-07
-74.2 -84 -17
0 0

0101101
*
Ed
 1e-07 1 1 0
1  53 0 2 3.25
0

0101000
+99 2 -103 2 *
Ed
 1e-07 1 1 0
1  54 0 0 1.5707963267949
2  28 12 0 0 1.5707963267949
0

0101000
+101 2 -99 2 *
Wi

0101100
+207 0 +141 0 +136 0 +132 0 +130 0 +128 0 -126 0 +124 0 -122 0 +120 0 
-118 0 +116 0 +114 0 +112 0 +110 0 +108 0 -106 0 +104 0 +102 0 +100 0 
+98 0 +97 0 *
Ve
1.00000000277556e-07
-74.2 98.1 -0.25
0 0

0101101
*
Ed
 1e-07 1 1 0
1  55 0 2.52323414687537e-16 6.28318530717959
2  29 13 0 2.52323414687537e-16 6.28318530717959
0

0101000
+95 2 -95 2 *
Wi

0101100
-94 0 *
Ve
1e-07
-74.2 104.5 -17.25
0 0

0101101
*
Ed
 1e-07 1 1 0
1  56 0 0 6.28318530717959
2  30 14 0 0 6.28318530717959
0

0101000
+92 2 -92 2 *
Wi

0101100
-91 0 *
Ve
1e-07
-74.2 88.1 -17.25
0 0

0101101
*
Ed
 1e-07 1 1 0
1  57 0 0 6.28318530717959
2  31 15 0 0 6.28318530717959
0

0101000
+89 2 -89 2 *
Wi

0101100
-88 0 *
Ve
1.00000000277556e-07
-74.2 -95.9 -0.25
0 0

0101101
*
Ed
 1e-07 1 1 0
1  58 0 2.52323414687537e-16 6.28318530717959
2  32 16 0 2.52323414687537e-16 6.28318530717959
0

0101000
+86 2 -86 2 *
Wi

0101100
-85 0 *
Ve
1e-07
-74.2 -85.9 -17.25
0 0

0101101
*
Ed
 1e-07 1 1 0
1  59 0 0 6.28318530717959
2  33 17 0 0 6.28318530717959
0

0101000
+83 2 -83 2 *
Wi

0101100
-82 0 *
Ve
1e-07
-74.2 -101.5 -17.25
0 0

0101101
*
Ed
 1e-07 1 1 0
1  60 0 0 6.28318530717959
2  34 18 0 0 6.28318530717959
0

0101000
+80 2 -80 2 *
Wi

0101100
-79 0 *
Fa
0  1e-07 21 0

0101000
+96 0 +93 0 +90 0 +87 0 +84 0 +81 0 +78 0 *
Ed
 1e-07 1 1 0
1  61 0 -0 1.6
2  35 4 0 -0 1.6
4 G1 19 0 4 0
0

0101000
+200 2 -133 2 *
Wi

0101100
-199 0 +142 0 -76 0 +132 0 *
Fa
0  1e-07 19 0

0101000
+75 0 *
Ed
 1e-07 1 1 0
1  62 0 -0 1.6
2  36 5 0 -0 1.6
4 G1 22 0 5 0
0

0101000
+198 2 -131 2 *
Wi

0101100
-197 0 +73 0 -137 0 +130 0 *
Fa
0  1e-07 22 0

0101000
+72 0 *
Ed
 1e-07 1 1 0
1  63 0 -0 1.6
2  37 4 0 -0 1.6
4 G1 4 0 23 0
0

0101000
+196 2 -129 2 *
Wi

0101100
+195 0 -76 0 +70 0 -128 0 *
Fa
0  1e-07 4 0

0101000
+69 0 *
Ed
 1e-07 1 1 0
1  64 0 -0 1.6
2  38 5 0 -0 1.6
4 G1 5 0 24 0
0

0101000
+194 2 -127 2 *
Wi

0101100
+193 0 -73 0 +67 0 -126 0 *
Fa
0  1e-07 5 0

0101000
+66 0 *
Ed
 1e-07 1 1 0
1  65 0 -0 1.6
2  39 6 0 -0 1.6
4 G1 23 0 6 0
0

0101000
+192 2 -125 2 *
Wi

0101100
-191 0 +70 0 -64 0 +124 0 *
Fa
0  1e-07 23 0

0101000
+63 0 *
Ed
 1e-07 1 1 0
1  66 0 -0 1.6
2  40 7 0 -0 1.6
4 G1 24 0 7 0
0

0101000
+190 2 -123 2 *
Wi

0101100
-189 0 +61 0 -67 0 -122 0 *
Fa
0  1e-07 24 0

0101000
+60 0 *
Ed
 1e-07 1 1 0
1  67 0 -0 1.6
2  41 6 0 -0 1.6
4 G1 6 0 25 0
0

0101000
+188 2 -121 2 *
Wi

0101100
+187 0 -64 0 +58 0 -120 0 *
Fa
0  1e-07 6 0

0101000
+57 0 *
Ed
 1e-07 1 1 0
1  68 0 0 1.6
2  42 7 0 0 1.6
4 G1 7 0 26 0
0

0101000
+186 2 -119 2 *
Wi

0101100
+185 0 -61 0 +55 0 -118 0 *
Fa
0  1e-07 7 0

0101000
+54 0 *
Ed
 1e-07 1 1 0
1  69 0 -0 1.6
2  43 8 0 -0 1.6
4 G1 25 0 8 0
0

0101000
+184 2 -117 2 *
Wi

0101100
-183 0 +58 0 -52 0 +116 0 *
Fa
0  1e-07 25 0

0101000
+51 0 *
Ed
 1e-07 1 1 0
1  70 0 0 1.6
2  44 9 0 0 1.6
4 G1 26 0 9 0
0

0101000
+182 2 -115 2 *
Wi

0101100
+114 0 +49 0 -55 0 -181 0 *
Fa
0  1e-07 26 0

0101000
+48 0 *
Ed
 1e-07 1 1 0
1  71 0 -0 1.6
2  45 8 0 -0 1.6
4 G1 8 0 27 0
0

0101000
+180 2 -113 2 *
Wi

0101100
+179 0 -52 0 +46 0 -112 0 *
Fa
0  1e-07 8 0

0101000
+45 0 *
Ed
 1e-07 1 1 0
1  72 0 -0 1.6
2  46 9 0 -0 1.6
4 G1 9 0 28 0
0

0101000
+178 2 -111 2 *
Wi

0101100
+177 0 -43 0 +49 0 -110 0 *
Fa
0  1e-07 9 0

0101000
+42 0 *
Ed
 1e-07 1 1 0
1  73 0 -0 1.6
2  47 10 0 -0 1.6
4 G1 27 0 10 0
0

0101000
+176 2 -109 2 *
Wi

0101100
-175 0 +46 0 -40 0 +108 0 *
Fa
0  1e-07 27 0

0101000
+39 0 *
Ed
 1e-07 1 1 0
1  74 0 -0 1.6
2  48 11 0 -0 1.6
4 G1 28 0 11 0
0

0101000
+174 2 -107 2 *
Wi

0101100
-106 0 -43 0 +37 0 -173 0 *
Fa
0  1e-07 28 0

0101000
+36 0 *
Ed
 1e-07 1 1 0
1  75 0 -0 1.6
2  49 10 0 -0 1.6
4 G1 10 0 29 0
0

0101000
+172 2 -105 2 *
Wi

0101100
+171 0 -40 0 +34 0 -104 0 *
Fa
0  1e-07 10 0

0101000
+33 0 *
Ed
 1e-07 1 1 0
1  76 0 -0 1.6
2  50 11 0 -0 1.6
4 G1 11 0 30 0
0

0101000
+170 2 -103 2 *
Wi

0101100
+169 0 -31 0 +37 0 -102 0 *
Fa
0  1e-07 11 0

0101000
+30 0 *
Ed
 1e-07 1 1 0
1  77 0 -0 1.6
2  51 12 0 -0 1.6
4 G1 29 0 12 0
0

0101000
+168 2 -101 2 *
Wi

0101100
-167 0 +34 0 -28 0 +100 0 *
Fa
0  1e-07 29 0

0101000
+27 0 *
Ed
 1e-07 1 1 0
1  78 0 -0 1.6
2  52 12 0 -0 1.6
4 G1 30 0 12 0
0

0101000
+166 2 -99 2 *
Wi

0101100
-165 0 +25 0 -31 0 +98 0 *
Fa
0  1e-07 30 0

0101000
+24 0 *
Wi

0101100
+164 0 -28 0 +25 0 -97 0 *
Fa
0  1e-07 12 0

0101000
+22 0 *
Ed
 1e-07 1 1 0
1  79 0 212.0000002 213.6000002
3  53 54CN 13 0 212.0000002 213.6000002
0

0101000
+162 2 -95 2 *
Wi

0101100
-161 0 +20 0 -94 0 -20 0 *
Fa
0  1e-07 13 0

0111000
+19 0 *
Ed
 1e-07 1 1 0
1  80 0 212.0000002 213.6000002
3  55 56CN 14 0 212.0000002 213.6000002
0

0101000
+159 2 -92 2 *
Wi

0101100
-158 0 +17 0 -91 0 -17 0 *
Fa
0  1e-07 14 0

0111000
+16 0 *
Ed
 1e-07 1 1 0
1  81 0 212.0000002 213.6000002
3  57 58CN 15 0 212.0000002 213.6000002
0

0101000
+156 2 -89 2 *
Wi

0101100
-155 0 +14 0 -88 0 -14 0 *
Fa
0  1e-07 15 0

0111000
+13 0 *
Ed
 1e-07 1 1 0
1  82 0 212.0000002 213.6000002
3  59 60CN 16 0 212.0000002 213.6000002
0

0101000
+153 2 -86 2 *
Wi

0101100
-152 0 +11 0 -85 0 -11 0 *
Fa
0  1e-07 16 0

0111000
+10 0 *
Ed
 1e-07 1 1 0
1  83 0 212.0000002 213.6000002
3  61 62CN 17 0 212.0000002 213.6000002
0

0101000
+150 2 -83 2 *
Wi

0101100
-149 0 +8 0 -82 0 -8 0 *
Fa
0  1e-07 17 0

0111000
+7 0 *
Ed
 1e-07 1 1 0
1  84 0 212.0000002 213.6000002
3  63 64CN 18 0 212.0000002 213.6000002
0

0101000
+147 2 -80 2 *
Wi

0101100
-146 0 +5 0 -79 0 -5 0 *
Fa
0  1e-07 18 0

0111000
+4 0 *
Sh

0101100
+205 0 +144 0 -139 0 +134 0 -77 0 +74 0 +71 0 -68 0 +65 0 +62 0 
+59 0 -56 0 +53 0 +50 0 +47 0 -44 0 -41 0 +38 0 +35 0 -32 0 
-29 0 +26 0 +23 0 -21 0 +18 0 +15 0 +12 0 +9 0 +6 0 +3 0 
*
So

0100000
+2 0 *

+1 1 