DBRep_DrawableShape

CASCADE Topology V1, (c) Matra-Datavision
Locations 39
1
              1              -0               0              -0 
              0               1               0               0 
             -0               0               1              -0 
1
              1               0               0               0 
              0               1               0               0 
              0               0               1               0 
1
              1              -0               0              -0 
              0               1               0               0 
             -0               0               1              -0 
2  2 1 3 1 0
2  3 -1 2 -1 0
1
              1               0               0               0 
              0               1               0               0 
              0               0               1               0 
1
              1              -0               0              -0 
              0               1               0               0 
             -0               0               1              -0 
2  6 1 7 1 0
2  7 -1 6 -1 0
1
              1               0               0               0 
              0               1               0               0 
              0               0               1               0 
1
              1              -0               0              -0 
              0               1               0               0 
             -0               0               1              -0 
2  10 1 11 1 0
2  11 -1 10 -1 0
1
              1               0              -0              -0 
              0              -1              -0              20 
              0               0              -1              -0 
1
              1              -0               0              -0 
              0               1               0              20 
             -0               0               1            20.5 
1
              1              -0               0              -0 
              0               1               0              20 
             -0               0               1            20.5 
2  15 1 16 1 15 -1 0
2  15 1 16 -1 15 -1 0
1
              1               0               0               0 
              0               1               0               0 
              0               0               1               0 
1
              1              -0               0              -0 
              0               1               0               0 
             -0               0               1              -0 
2  19 1 20 1 15 1 16 1 15 -1 0
2  15 1 16 -1 15 -1 20 -1 19 -1 0
1
              1              -0               0              -0 
              0               1               0               6 
             -0               0               1           23.25 
1
              1               0               0               0 
              0               1               0               0 
              0               0               1               0 
2  23 1 24 1 0
2  24 -1 23 -1 0
1
              1               0               0               0 
              0               1               0               0 
              0               0               1               0 
1
              1              -0               0              -0 
              0               1               0               0 
             -0               0               1              -0 
2  27 1 28 1 23 1 24 1 0
2  24 -1 23 -1 28 -1 27 -1 0
1
              1               0               0               0 
              0               1               0               0 
              0               0               1               0 
1
              1               0              -0              -0 
              0              -1              -0               6 
              0               0              -1              -0 
2  31 1 32 1 0
2  32 -1 31 -1 0
2  14 -1 0
2  19 1 20 1 0
2  20 -1 19 -1 0
2  27 1 28 1 0
2  28 -1 27 -1 0
Curve2ds 94
1 0 0 1 0 
1 0 0 1 0 
1 0 0 1 0 
1 5.8604501019892394 0 0 1 
1 0 5.5 1 0 
1 0 0 1 0 
1 -4.7123889803846897 5 1 0 
1 -4.7123889803846897 5 1 0 
1 -1.5707963267948966 5 1 0 
1 -1.5707963267948966 5 1 0 
1 0 0 1 0 
1 -4.7123889803846897 5 1 0 
1 -4.7123889803846897 5 1 0 
1 -1.5707963267948966 5 1 0 
1 -1.5707963267948966 5 1 0 
1 0 0 1 0 
1 0 0.25 1 0 
1 0 0.25 1 0 
1 0 0 0 -1 
1 6.2831853071795862 0 0 -1 
1 0 -4 1 0 
1 0 0 0 -1 
1 6.2831853071795862 0 0 -1 
1 0 -4.7999999999999998 1 0 
1 0 0 0 -1 
1 6.2831853071795862 0 0 -1 
1 0 -4 1 0 
1 3.5643278587801395 0 0 1 
1 6.2831853071795862 -0 0 1 
1 0 -0 0 1 
1 0 9.5 1 0 
1 0.17875806109155701 0 0 1 
1 5.6586799924114981 -20.5 0 1 
1 0 10.5 1 0 
1 2.9628345924982362 0 0 1 
1 3.7660979683578812 -20.5 0 1 
1 0 9.5 1 0 
1 3.32035071468135 0 0 1 
1 2.517087338821705 -20.5 0 1 
1 6.1044272460880293 0 0 1 
1 0.62450531476808813 -20.5 0 1 
1 0 9.5 1 0 
1 0 0 1 0 
1 0 0 1 0 
1 0 0 1 0 
1 0 0 0 -1 
1 6.2831853071795862 0 0 -1 
1 0 -10 1 0 
1 0 -11 1 0 
1 0 -10 1 0 
1 -4.7123889803846897 0 1 0 
1 0 0 0 1 
1 1.5707963267948966 0 0 1 
1 1.5707963267948966 0 0 1 
1 -4.7123889803846897 0 1 0 
1 0 0 0 1 
1 0 0 0 1 
1 -1.5707963267948966 0 1 0 
1 1.5707963267948966 0 0 1 
1 1.5707963267948966 0 0 1 
1 -1.5707963267948966 0 1 0 
1 0 0 0 1 
1 0 0 0 -1 
1 6.2831853071795862 0 0 -1 
1 0 -11 1 0 
1 0 -10 1 0 
1 -4.7123889803846897 0 1 0 
1 0 0 0 1 
1 1.5707963267948966 0 0 1 
1 1.5707963267948966 0 0 1 
1 -4.7123889803846897 0 1 0 
1 0 0 0 1 
1 0 0 0 1 
1 -1.5707963267948966 0 1 0 
1 1.5707963267948966 0 0 1 
1 1.5707963267948966 0 0 1 
1 -1.5707963267948966 0 1 0 
1 0 0 0 1 
1 0 18.25 1 0 
1 6.2831853071795862 -0 0 1 
1 0 -0 0 1 
1 0 10.5 1 0 
1 0 0 0 -1 
1 6.2831853071795862 0 0 -1 
1 0 -4 1 0 
1 0 0 0 -1 
1 6.2831853071795862 0 0 -1 
1 0 -4.7999999999999998 1 0 
1 0 0 0 -1 
1 6.2831853071795862 0 0 -1 
1 0 -4 1 0 
1 0 15.5 1 0 
1 6.2831853071795862 -0 0 1 
1 0 -0 0 1 
Curves 129
1 -12.199999999999999 -84 -20.25 0 0 1 
1 -12.199999999999999 -94 -15 0 1 0 
1 -12.199999999999999 -80 -15 0 0 1 
8 0 14
1 -12.199999999999999 -94 0 0 1 0 
1 -12.199999999999999 -94 -20.5 0 0 1 
1 -12.199999999999999 -106 2.75 0 1 0 
1 -12.199999999999999 -106 -20.5 0 0 1 
1 -12.199999999999999 -106 -20.5 0 1 0 
1 -12.199999999999999 -94 -20.5 0 0 1 
1 -12.199999999999999 -94 -20.25 0 1 0 
2 -12.199999999999999 -87 -17.25 -1 0 0 0 -1 0 0 0 1 0.80000000000000004
2 -12.199999999999999 -103 -17.25 -1 0 0 0 -1 0 0 0 1 1.5
2 -12.199999999999999 -97 -0.25 -1 0 0 0 -1 0 0 0 1 0.80000000000000004
1 -4.4458548109446845 -84 -20.5 0 0 1 
1 -12.199999999999999 -84 -15 -1 0 0 
1 -12.199999999999999 -84 -20.25 1 0 0 
1 -12.199999999999999 -80 -15 1 0 0 
1 12.199999999999999 -94 -15 0 1 0 
1 -12.199999999999999 -84 -15 -1 0 0 
2 0 -86 -15 0 0 1 -1 0 0 0 -1 0 4.875
1 12.199999999999999 -80 -15 0 0 1 
1 -12.199999999999999 -80 0 1 0 0 
1 -12.199999999999999 -94 0 1 0 0 
8 0 14
1 12.199999999999999 -94 0 0 1 0 
2 -6 -86 0 0 0 1 1 0 0 0 1 0 1.4824999999999999
8 4.7123889803846897 6.2831853071795862
2 -2.0500000000000003 -108.67 -20.5 -0 0 1 0 -1 0 1 0 0 2
1 -4.0499999999999998 -110.67 -20.5 1 0 0 
8 4.7123889803846897 6.2831853071795862
2 2.0500000000000003 -108.67 -20.5 -0 -0 -1 0 -1 0 -1 0 0 2
1 4.0499999999999998 -110.67 -20.5 0 1 0 
8 1.5707963267948963 3.1415926535897936
2 2.0500000000000003 -103.33 -20.5 -0 0 1 0 -1 0 1 0 0 2
1 -4.0499999999999998 -101.33 -20.5 1 0 0 
8 1.5707963267948966 3.1415926535897931
2 -2.0500000000000003 -103.33 -20.5 -0 -0 -1 0 -1 0 -1 0 0 2
1 -4.0499999999999998 -110.67 -20.5 0 1 0 
2 6 -86 0 0 0 1 1 0 0 0 1 0 1.4824999999999999
1 12.199999999999999 -94 -20.5 0 0 1 
1 -12.199999999999999 -94 2.75 1 0 0 
1 -12.199999999999999 -106 2.75 1 0 0 
1 12.199999999999999 -106 2.75 0 1 0 
8 4.7123889803846897 6.2831853071795862
2 -2.0500000000000003 -108.67 -20.5 -0 0 1 0 -1 0 1 0 0 2
1 -4.0499999999999998 -110.67 -20.5 1 0 0 
8 4.7123889803846897 6.2831853071795862
2 2.0500000000000003 -108.67 -20.5 -0 -0 -1 0 -1 0 -1 0 0 2
1 4.0499999999999998 -110.67 -20.5 0 1 0 
8 1.5707963267948963 3.1415926535897936
2 2.0500000000000003 -103.33 -20.5 -0 0 1 0 -1 0 1 0 0 2
1 -4.0499999999999998 -101.33 -20.5 1 0 0 
8 1.5707963267948966 3.1415926535897931
2 -2.0500000000000003 -103.33 -20.5 -0 -0 -1 0 -1 0 -1 0 0 2
1 -4.0499999999999998 -110.67 -20.5 0 1 0 
1 -12.199999999999999 -106 -20.5 1 0 0 
1 12.199999999999999 -106 -20.5 0 0 1 
1 -12.199999999999999 -94 -20.5 1 0 0 
1 12.199999999999999 -106 -20.5 0 1 0 
2 0 106 20.5 0 0 -1 -1 0 0 0 1 0 2.6499999999999999
1 12.199999999999999 -94 -20.5 0 0 1 
1 -12.199999999999999 -94 -20.25 1 0 0 
2 0 -86 -20.25 0 0 1 -1 0 0 0 -1 0 4.875
2 0 -86 -20.25 0 0 1 -1 0 0 0 -1 0 4.875
1 -12.199999999999999 -84 -20.25 1 0 0 
1 12.199999999999999 -94 -20.25 0 1 0 
1 -12.199999999999999 -87.799999999999997 -17.25 1 0 -0 
2 -8.1999999999999993 -87 -17.25 -1 0 0 0 -1 0 0 0 1 0.80000000000000004
1 -12.199999999999999 -104.5 -17.25 1 0 -0 
2 -7.3999999999999995 -103 -17.25 -1 0 0 0 -1 0 0 0 1 1.5
1 -12.199999999999999 -97.799999999999997 -0.25 1 0 -0 
2 -8.1999999999999993 -97 -0.25 -1 0 0 0 -1 0 0 0 1 0.80000000000000004
1 4.4458548109446845 -84 -20.5 0 0 1 
1 -4.875 106 20.5 0 0 -1 
2 0 -86 -11 0 0 1 -1 0 0 0 -1 0 4.875
1 -4.7973182291666667 -86.866811864308048 -20.5 0 0 1 
2 0 106 10 0 0 -1 -1 0 0 0 1 0 4.875
1 4.7973182291666667 -86.866811864308048 -20.5 0 0 1 
2 0 -86 -11 0 0 1 -1 0 0 0 -1 0 4.875
1 4.7973182291666667 -85.133188135691952 -20.5 0 0 1 
2 0 106 10 0 0 -1 -1 0 0 0 1 0 4.875
1 -4.7973182291666667 -85.133188135691952 -20.5 0 0 1 
2 0 -86 -11 0 0 1 -1 0 0 0 -1 0 4.875
1 12.199999999999999 -84 -20.25 0 0 1 
2 12.199999999999999 -87 -17.25 1 0 0 0 1 0 0 0 1 0.80000000000000004
2 12.199999999999999 -103 -17.25 1 0 0 0 1 0 0 0 1 1.5
2 12.199999999999999 -97 -0.25 1 0 0 0 1 0 0 0 1 0.80000000000000004
1 -4.5175000000000001 -86 0 -0 -0 -1 
2 -6 -86 -10 0 0 1 1 0 -0 -0 1 0 1.4824999999999999
2 -6 -86 -11 0 0 1 1 0 0 0 1 0 1.4824999999999999
2 -6 -86 -10 0 0 1 1 0 -0 -0 1 0 1.4824999999999999
8 4.7123889803846897 6.2831853071795862
2 -2.0500000000000003 -108.67 -25.5 -0 0 1 0 -1 0 1 0 0 2
1 -4.0500000000000007 -108.67 -25.5 0 0 1 
1 -2.0500000000000003 -110.67 -25.5 0 0 1 
1 -4.0499999999999998 -110.67 -25.5 1 0 0 
1 2.0500000000000003 -110.67 -25.5 0 0 1 
8 4.7123889803846897 6.2831853071795862
2 2.0500000000000003 -108.67 -25.5 -0 -0 -1 0 -1 0 -1 0 0 2
1 4.0500000000000007 -108.67 -25.5 0 0 1 
1 4.0500000000000007 -103.33 -25.5 0 0 1 
1 4.0499999999999998 -110.67 -25.5 0 1 0 
8 1.5707963267948963 3.1415926535897936
2 2.0500000000000003 -103.33 -25.5 -0 0 1 0 -1 0 1 0 0 2
1 2.0500000000000003 -101.33 -25.5 0 0 1 
1 -4.0499999999999998 -101.33 -25.5 1 0 0 
1 -2.0500000000000003 -101.33 -25.5 0 0 1 
8 1.5707963267948966 3.1415926535897931
2 -2.0500000000000003 -103.33 -25.5 -0 -0 -1 0 -1 0 -1 0 0 2
1 -4.0500000000000007 -103.33 -25.5 0 0 1 
1 -4.0499999999999998 -110.67 -25.5 0 1 0 
1 7.4824999999999999 -86 0 -0 -0 -1 
2 6 -86 -11 0 0 1 1 0 0 0 1 0 1.4824999999999999
2 6 -86 -10 0 0 1 1 0 -0 -0 1 0 1.4824999999999999
2 6 -86 -11 0 0 1 1 0 0 0 1 0 1.4824999999999999
8 4.7123889803846897 6.2831853071795862
2 -2.0500000000000003 -108.67 -25.5 -0 0 1 0 -1 0 1 0 0 2
1 -4.0500000000000007 -108.67 -25.5 0 0 1 
1 -2.0500000000000003 -110.67 -25.5 0 0 1 
1 -4.0499999999999998 -110.67 -25.5 1 0 0 
1 2.0500000000000003 -110.67 -25.5 0 0 1 
8 4.7123889803846897 6.2831853071795862
2 2.0500000000000003 -108.67 -25.5 -0 -0 -1 0 -1 0 -1 0 0 2
1 4.0500000000000007 -108.67 -25.5 0 0 1 
1 4.0500000000000007 -103.33 -25.5 0 0 1 
1 4.0499999999999998 -110.67 -25.5 0 1 0 
8 1.5707963267948963 3.1415926535897936
2 2.0500000000000003 -103.33 -25.5 -0 0 1 0 -1 0 1 0 0 2
1 2.0500000000000003 -101.33 -25.5 0 0 1 
1 -4.0499999999999998 -101.33 -25.5 1 0 0 
1 -2.0500000000000003 -101.33 -25.5 0 0 1 
8 1.5707963267948966 3.1415926535897931
2 -2.0500000000000003 -103.33 -25.5 -0 -0 -1 0 -1 0 -1 0 0 2
1 -4.0500000000000007 -103.33 -25.5 0 0 1 
1 -4.0499999999999998 -110.67 -25.5 0 1 0 
2 0 -100 -2.25 0 0 1 -1 0 0 0 -1 0 2.6499999999999999
1 -2.6499999999999999 106 20.5 0 0 -1 
2 0 106 10 0 0 -1 -1 0 0 0 1 0 2.75
1 12.199999999999999 -86.200000000000003 -17.25 -1 -0 0 
2 8.1999999999999993 -87 -17.25 1 0 0 0 1 0 0 0 1 0.80000000000000004
1 12.199999999999999 -101.5 -17.25 -1 -0 0 
2 7.3999999999999995 -103 -17.25 1 0 0 0 1 0 0 0 1 1.5
1 12.199999999999999 -96.200000000000003 -0.25 -1 -0 0 
2 8.1999999999999993 -97 -0.25 1 0 0 0 1 0 0 0 1 0.80000000000000004
2 0 -86 -5 0 0 1 -1 0 0 0 -1 0 2.75
1 -2.75 106 20.5 0 0 -1 
Polygon3D 0
PolygonOnTriangulations 0
Surfaces 51
1 -12.199999999999999 -94 -20.25 1 0 0 0 0 1 0 -1 0 
2 -12.199999999999999 -87 -17.25 -1 0 0 0 -1 0 0 0 1 0.80000000000000004
2 -12.199999999999999 -103 -17.25 -1 0 0 0 -1 0 0 0 1 1.5
2 -12.199999999999999 -97 -0.25 -1 0 0 0 -1 0 0 0 1 0.80000000000000004
1 -12.199999999999999 -84 -20.25 0 1 0 0 0 1 1 0 0 
2 0 106 20.5 0 0 -1 -1 0 0 0 1 0 4.875
1 -12.199999999999999 -94 -15 0 0 1 1 0 0 0 1 0 
1 -12.199999999999999 -80 -15 0 1 0 0 0 1 1 0 0 
1 -12.199999999999999 -94 0 0 0 1 1 0 0 0 1 0 
2 -6 -86 0 0 0 1 1 0 0 0 1 0 1.4824999999999999
2 -2.0500000000000003 -108.67 -25.5 0 0 1 -1 0 0 0 -1 0 2
2 2.0500000000000003 -108.67 -25.5 0 0 1 1 0 0 0 -1 0 2
2 2.0500000000000003 -103.33 -25.5 0 0 1 1 0 0 0 1 0 2
2 -2.0500000000000003 -103.33 -25.5 0 0 1 -1 0 0 0 1 0 2
2 6 -86 0 0 0 1 1 0 0 0 1 0 1.4824999999999999
1 -12.199999999999999 -94 -20.5 0 1 0 0 0 1 1 0 0 
1 -12.199999999999999 -106 2.75 0 0 1 1 0 0 0 1 0 
2 -2.0500000000000003 -108.67 -25.5 0 0 1 -1 0 0 0 -1 0 2
2 2.0500000000000003 -108.67 -25.5 0 0 1 1 0 0 0 -1 0 2
2 2.0500000000000003 -103.33 -25.5 0 0 1 1 0 0 0 1 0 2
2 -2.0500000000000003 -103.33 -25.5 0 0 1 -1 0 0 0 1 0 2
1 -12.199999999999999 -106 -20.5 0 1 0 0 0 1 1 0 0 
1 -12.199999999999999 -106 -20.5 0 0 1 1 0 0 0 1 0 
2 0 106 20.5 0 0 -1 -1 0 0 0 1 0 2.6499999999999999
1 -12.199999999999999 -94 -20.5 0 1 0 0 0 1 1 0 0 
1 -12.199999999999999 -94 -20.25 0 0 1 1 0 0 0 1 0 
1 12.199999999999999 -94 -20.25 1 0 0 0 0 1 0 -1 0 
2 12.199999999999999 -87 -17.25 1 0 0 0 1 0 0 0 1 0.80000000000000004
2 12.199999999999999 -103 -17.25 1 0 0 0 1 0 0 0 1 1.5
2 12.199999999999999 -97 -0.25 1 0 0 0 1 0 0 0 1 0.80000000000000004
1 -12.199999999999999 -84 -20.25 0 1 0 0 0 1 1 0 0 
1 -4.0499999999999998 -110.67 -25.5 1 0 0 0 0 1 0 -1 0 
1 -4.0499999999999998 -110.67 -25.5 0 1 0 0 0 1 1 0 0 
1 4.0499999999999998 -110.67 -25.5 1 0 0 0 0 1 0 -1 0 
1 -4.0499999999999998 -101.33 -25.5 0 1 0 0 0 1 1 0 0 
1 -4.0499999999999998 -110.67 -25.5 1 0 0 0 0 1 0 -1 0 
1 -4.0499999999999998 -110.67 -25.5 0 1 0 0 0 1 1 0 0 
1 4.0499999999999998 -110.67 -25.5 1 0 0 0 0 1 0 -1 0 
1 -4.0499999999999998 -101.33 -25.5 0 1 0 0 0 1 1 0 0 
1 -8.1999999999999993 -87 -17.25 -1 -0 -0 0 0 -1 0 -1 0 
1 -7.4000000000000012 -103 -17.25 -1 -5.25907270147341e-31 -2.1895288505075267e-46 5.25907270147341e-31 -1 0 -2.1895288505075267e-46 -1.1514891406792589e-76 1 
1 -8.1999999999999993 -97 -0.25 -1 -0 -0 0 0 -1 0 -1 0 
1 -6.0000000000000009 -86 -11 0 0 1 1 0 -0 -0 1 0 
1 0 106 10 0 0 -1 -1 0 0 0 1 0 
2 0 106 20.5 0 0 -1 -1 0 0 0 1 0 2.75
1 6.0000000000000009 -86 -11 0 0 1 1 0 -0 -0 1 0 
1 -4.0499999999999998 -110.67 -25.5 0 0 1 1 0 0 0 1 0 
1 -4.0499999999999998 -110.67 -25.5 0 0 1 1 0 0 0 1 0 
1 8.1999999999999993 -87 -17.25 1 0 0 -0 0 1 0 -1 0 
1 7.4000000000000012 -103 -17.25 1 -1.7530242338244704e-31 3.28429327576129e-47 1.7530242338244704e-31 1 0 -3.28429327576129e-47 5.7574457033962951e-78 1 
1 8.1999999999999993 -97 -0.25 1 0 0 -0 0 1 0 -1 0 
Triangulations 0

TShapes 333
Ve
1e-07
-12.2 -84 -20.25
0 0

0101101
*
Ve
1.5e-07
-12.2 -84 -15
0 0

0101101
*
Ed
 1e-07 1 1 0
1  1 0 0 5.25
0

0101000
+333 5 -332 5 *
Ve
1e-07
-12.2 -80 -15
0 0

0101101
*
Ed
 1e-07 1 1 0
1  2 0 10 14
0

0101000
+332 9 -330 9 *
Ve
1e-07
-12.2 -80 0
0 0

0101101
*
Ed
 1e-07 1 1 0
1  3 0 0 15
0

0101000
-328 9 +330 9 *
Ve
1e-07
-12.2 -94 0
0 0

0101101
*
Ed
 1e-07 1 1 0
1  4 0 0 14
0

0101000
+326 0 -328 0 *
Ve
1e-07
-12.2 -94 2.75
0 0

0101101
*
Ed
 1e-07 1 1 0
1  5 0 20.5 23.25
0

0101000
+326 13 -324 13 *
Ve
1e-07
-12.2 -106 2.75
0 0

0101101
*
Ed
 1e-07 1 1 0
1  6 0 0 12
0

0101000
-324 13 +322 13 *
Ve
1e-07
-12.2 -106 -20.5
0 0

0101101
*
Ed
 1e-07 1 1 0
1  7 0 0 23.25
0

0101000
-322 13 +320 13 *
Ve
1e-07
-12.2 -94 -20.5
0 0

0101101
*
Ed
 1e-07 1 1 0
1  8 0 0 12
0

0101000
-318 13 +320 13 *
Ve
1e-07
-12.2 -94 -20.25
0 0

0101101
*
Ed
 1e-07 1 1 0
1  9 0 0 0.25
0

0101000
+318 13 -316 13 *
Ed
 1e-07 1 1 0
1  10 0 0 10
0

0101000
-333 5 +316 5 *
Wi

0101100
+331 4 +329 8 +327 8 -325 0 +323 12 -321 12 -319 12 +317 12 +315 12 +314 4 
*
Ve
1e-07
-12.2 -87.8 -17.25
0 0

0101101
*
Ed
 1e-07 1 1 0
1  11 0 0 6.28318530717959
2  1 2 0 0 6.28318530717959
0

0101000
+312 0 -312 0 *
Wi

0101100
+311 0 *
Ve
1e-07
-12.2 -104.5 -17.25
0 0

0101101
*
Ed
 1e-07 1 1 0
1  12 0 0 6.28318530717959
2  2 3 0 0 6.28318530717959
0

0101000
+309 0 -309 0 *
Wi

0101100
+308 0 *
Ve
1e-07
-12.2 -97.8 -0.25
0 0

0101101
*
Ed
 1e-07 1 1 0
1  13 0 0 6.28318530717959
2  3 4 0 0 6.28318530717959
0

0101000
+306 0 -306 0 *
Wi

0101100
+305 0 *
Fa
0  1e-07 1 0

0101000
+313 0 +310 0 +307 0 +304 0 *
Ve
1.00000007944109e-07
-4.44585481094469 -84 -20.25
0 0

0101101
*
Ve
1.5e-07
-4.44585481094469 -84 -15
0 0

0101101
*
Ed
 1e-07 1 1 0
1  14 0 0.25 5.5
2  4 6 14 0.25 5.5
0

0101000
+302 0 -301 0 *
Ed
 1.5e-07 1 1 0
1  15 0 -7.75414518905531 0
0

0101000
+301 0 -332 0 *
Ed
 1e-07 1 1 0
1  16 0 0 7.75414518905531
0

0101000
+333 5 -302 5 *
Wi

0101100
-300 0 -299 0 +331 4 -298 4 *
Fa
0  1e-07 5 4

0101000
+297 0 *
Ve
1e-07
12.2 -80 -15
0 0

0101101
*
Ed
 1e-07 1 1 0
1  17 0 0 24.4
0

0101000
-295 9 +330 9 *
Ve
1.5e-07
12.2 -84 -15
0 0

0101101
*
Ed
 1e-07 1 1 0
1  18 0 10 14
0

0101000
+293 9 -295 9 *
Ve
1.5e-07
4.44585481094469 -84 -15
0 0

0101101
*
Ed
 1.5e-07 1 1 0
1  19 0 -24.4 -16.6458548109447
0

0101000
+293 0 -291 0 *
Ed
 1e-07 1 1 0
1  20 0 3.56432785878014 5.86045010198924
2  5 6 14 3.56432785878014 5.86045010198924
0

0101000
+291 0 -301 0 *
Wi

0101100
-329 8 -294 8 +292 8 -290 0 -289 0 -299 0 *
Fa
0  1e-07 7 8

0101000
+288 0 *
Ve
1e-07
12.2 -80 0
0 0

0101101
*
Ed
 1e-07 1 1 0
1  21 0 0 15
0

0101000
-286 9 +295 9 *
Ed
 1e-07 1 1 0
1  22 0 0 24.4
0

0101000
-286 9 +328 9 *
Wi

0101100
-294 0 -285 0 +284 0 +327 0 *
Fa
0  1e-07 8 0

0101000
+283 0 *
Ve
1e-07
12.2 -94 0
0 0

0101101
*
Ed
 1e-07 1 1 0
1  23 0 0 24.4
0

0101000
+326 9 -281 9 *
Ed
 1e-07 1 1 0
1  24 0 0 14
0

0101000
+281 0 -286 0 *
Wi

0101100
-325 0 +280 8 -284 8 +279 0 *
Ve
1e-07
-4.5175 -86 0
0 0

0101101
*
Ed
 1e-07 1 1 0
1  25 0 0 6.28318530717959
2  6 10 0 0 6.28318530717959
0

0101000
+277 0 -277 0 *
Wi

0101100
-276 0 *
Ve
1e-07
-4.05 -88.67 0
0 0

0101101
*
Ve
1e-07
-2.05 -90.67 0
0 0

0101101
*
Ed
 1e-07 1 1 0
1  26 0 4.71238898038469 6.28318530717959
2  7 11 0 4.71238898038469 6.28318530717959
0

0101000
+274 18 -273 18 *
Ve
1e-07
2.05 -90.67 0
0 0

0101101
*
Ed
 1e-07 1 1 0
1  27 0 2 6.1
0

0101000
+273 22 -271 22 *
Ve
1e-07
4.05 -88.67 0
0 0

0101101
*
Ed
 1e-07 1 1 0
1  28 0 4.71238898038469 6.28318530717959
2  8 12 0 4.71238898038469 6.28318530717959
0

0101000
+269 18 -271 18 *
Ve
1e-07
4.05 -83.33 0
0 0

0101101
*
Ed
 1e-07 1 1 0
1  29 0 2 7.34
0

0101000
+269 22 -267 22 *
Ve
1e-07
2.05 -81.33 0
0 0

0101101
*
Ed
 1e-07 1 1 0
1  30 0 1.5707963267949 3.14159265358979
2  9 13 0 1.5707963267949 3.14159265358979
0

0101000
+267 18 -265 18 *
Ve
1e-07
-2.05 -81.33 0
0 0

0101101
*
Ed
 1e-07 1 1 0
1  31 0 2 6.1
0

0101000
+263 22 -265 22 *
Ve
1e-07
-4.05 -83.33 0
0 0

0101101
*
Ed
 1e-07 1 1 0
1  32 0 1.5707963267949 3.14159265358979
2  10 14 0 1.5707963267949 3.14159265358979
0

0101000
+261 18 -263 18 *
Ed
 1e-07 1 1 0
1  33 0 2 7.34
0

0101000
+274 22 -261 22 *
Wi

0101100
-272 17 -270 21 +268 17 -266 21 -264 17 +262 21 +260 17 +259 21 *
Ve
1e-07
7.4825 -86 0
0 0

0101101
*
Ed
 1e-07 1 1 0
1  34 0 0 6.28318530717959
2  11 15 0 0 6.28318530717959
0

0101000
+257 0 -257 0 *
Wi

0101100
-256 0 *
Fa
0  1e-07 9 0

0101000
+278 0 +275 0 +258 0 +255 0 *
Ve
1e-07
12.2 -94 2.75
0 0

0101101
*
Ed
 1e-07 1 1 0
1  35 0 20.5 23.25
0

0101000
+281 13 -253 13 *
Ed
 1e-07 1 1 0
1  36 0 0 24.4
0

0101000
-253 13 +324 13 *
Wi

0101100
-252 12 +251 12 +323 12 -280 8 *
Fa
0  1e-07 16 12

0101000
+250 0 *
Ve
1e-07
12.2 -106 2.75
0 0

0101101
*
Ed
 1e-07 1 1 0
1  37 0 0 24.4
0

0101000
-248 13 +322 13 *
Ed
 1e-07 1 1 0
1  38 0 0 12
0

0101000
-253 13 +248 13 *
Wi

0101100
-321 12 -251 12 +247 12 +246 12 *
Ve
1e-07
-4.05 -102.67 2.75
0 0

0101101
*
Ve
1e-07
-2.05 -104.67 2.75
0 0

0101101
*
Ed
 1e-07 1 1 0
1  39 0 4.71238898038469 6.28318530717959
2  12 18 0 4.71238898038469 6.28318530717959
0

0101000
+244 26 -243 26 *
Ve
1e-07
2.05 -104.67 2.75
0 0

0101101
*
Ed
 1e-07 1 1 0
1  40 0 2 6.1
0

0101000
+243 30 -241 30 *
Ve
1e-07
4.05 -102.67 2.75
0 0

0101101
*
Ed
 1e-07 1 1 0
1  41 0 4.71238898038469 6.28318530717959
2  13 19 0 4.71238898038469 6.28318530717959
0

0101000
+239 26 -241 26 *
Ve
1e-07
4.05 -97.33 2.75
0 0

0101101
*
Ed
 1e-07 1 1 0
1  42 0 2 7.34
0

0101000
+239 30 -237 30 *
Ve
1e-07
2.05 -95.33 2.75
0 0

0101101
*
Ed
 1e-07 1 1 0
1  43 0 1.5707963267949 3.14159265358979
2  14 20 0 1.5707963267949 3.14159265358979
0

0101000
+237 26 -235 26 *
Ve
1e-07
-2.05 -95.33 2.75
0 0

0101101
*
Ed
 1e-07 1 1 0
1  44 0 2 6.1
0

0101000
+233 30 -235 30 *
Ve
1e-07
-4.05 -97.33 2.75
0 0

0101101
*
Ed
 1e-07 1 1 0
1  45 0 1.5707963267949 3.14159265358979
2  15 21 0 1.5707963267949 3.14159265358979
0

0101000
+231 26 -233 26 *
Ed
 1e-07 1 1 0
1  46 0 2 7.34
0

0101000
+244 30 -231 30 *
Wi

0101100
-242 25 -240 29 +238 25 -236 29 -234 25 +232 29 +230 25 +229 29 *
Fa
0  1e-07 17 12

0101000
+245 0 +228 0 *
Ve
1e-07
12.2 -106 -20.5
0 0

0101101
*
Ed
 1e-07 1 1 0
1  47 0 0 24.4
0

0101000
-226 13 +320 13 *
Ed
 1e-07 1 1 0
1  48 0 0 23.25
0

0101000
-248 13 +226 13 *
Wi

0101100
-225 0 -224 0 +247 0 +319 0 *
Fa
0  1e-07 22 0

0101000
+223 0 *
Ve
1e-07
12.2 -94 -20.5
0 0

0101101
*
Ed
 1e-07 1 1 0
1  49 0 0 24.4
0

0101000
-221 13 +318 13 *
Ed
 1e-07 1 1 0
1  50 0 0 12
0

0101000
-221 13 +226 13 *
Wi

0101100
-317 12 -220 12 +225 12 +219 12 *
Ve
1e-07
-2.65 -100 -20.5
0 0

0101101
*
Ed
 1e-07 1 1 0
1  51 0 0 6.28318530717959
2  16 24 0 0 6.28318530717959
0

0101000
+217 34 -217 34 *
Wi

0101100
-216 33 *
Fa
0  1e-07 23 12

0101000
+218 0 +215 0 *
Ve
1e-07
12.2 -94 -20.25
0 0

0101101
*
Ed
 1e-07 1 1 0
1  52 0 0 0.25
0

0101000
+221 13 -213 13 *
Ed
 1e-07 1 1 0
1  53 0 0 24.4
0

0101000
-213 5 +316 5 *
Wi

0101100
-212 12 +211 4 +315 12 -220 12 *
Fa
0  1e-07 25 12

0101000
+210 0 *
Ve
1e-07
-4.875 -86 -20.25
0 0

0101101
*
Ed
 1e-07 1 1 0
1  54 0 5.86045010198924 6.28318530717959
2  17 6 14 5.86045010198924 6.28318530717959
0

0101000
+302 0 -208 0 *
Ve
1.00000007105427e-07
4.44585481094469 -84 -20.25
0 0

0101101
*
Ed
 1e-07 1 1 0
1  55 0 0 3.56432785878014
2  18 6 14 0 3.56432785878014
0

0101000
+208 0 -206 0 *
Ve
1e-07
12.2 -84 -20.25
0 0

0101101
*
Ed
 1e-07 1 1 0
1  56 0 16.6458548109447 24.4
0

0101000
+206 5 -204 5 *
Ed
 1e-07 1 1 0
1  57 0 0 10
0

0101000
-204 5 +213 5 *
Wi

0101100
-298 4 -207 0 -205 0 -203 4 +202 4 +211 4 -314 4 *
Fa
0  1e-07 26 4

0101000
+201 0 *
Ve
1e-07
-8.2 -87.8 -17.25
0 0

0101101
*
Ed
 1e-07 1 1 0
1  58 0 0 4
3  19 20CN 2 0 0 4
0

0101000
+312 0 -199 0 *
Ed
 1e-07 1 1 0
1  59 0 0 6.28318530717959
2  21 2 0 0 6.28318530717959
0

0101000
+199 0 -199 0 *
Wi

0101100
+198 0 -198 0 -311 0 +197 0 *
Fa
0  1e-07 2 0

0101000
+196 0 *
Ve
1e-07
-7.4 -104.5 -17.25
0 0

0101101
*
Ed
 1e-07 1 1 0
1  60 0 0 4.8
3  22 23CN 3 0 0 4.8
0

0101000
+309 0 -194 0 *
Ed
 1e-07 1 1 0
1  61 0 0 6.28318530717959
2  24 3 0 0 6.28318530717959
0

0101000
+194 0 -194 0 *
Wi

0101100
+193 0 -193 0 -308 0 +192 0 *
Fa
0  1e-07 3 0

0101000
+191 0 *
Ve
1e-07
-8.2 -97.8 -0.25
0 0

0101101
*
Ed
 1e-07 1 1 0
1  62 0 0 4
3  25 26CN 4 0 0 4
0

0101000
+306 0 -189 0 *
Ed
 1e-07 1 1 0
1  63 0 0 6.28318530717959
2  27 4 0 0 6.28318530717959
0

0101000
+189 0 -189 0 *
Wi

0101100
+188 0 -188 0 -305 0 +187 0 *
Fa
0  1e-07 4 0

0101000
+186 0 *
Ed
 1e-07 1 1 0
1  64 0 0.25 5.5
2  28 6 14 0.25 5.5
0

0101000
+206 0 -291 0 *
Ve
1e-07
-4.875 -86 -11
0 0

0101101
*
Ed
 1e-07 1 1 0
1  65 0 0.25 9.5
3  29 30CN 6 0 0.25 9.5
0

0101000
+208 35 -183 35 *
Ve
1.00000000888178e-07
-4.79731822916667 -86.866811864308 -11
0 0

0101101
*
Ed
 1e-07 1 1 0
1  66 0 0 0.178758061091557
2  31 6 14 0 0.178758061091557
0

0101000
+183 0 -181 0 *
Ve
1.00000010805157e-07
-4.79731822916667 -86.866811864308 -10
0 0

0101101
*
Ed
 1e-07 1 1 0
1  67 0 9.5 10.5
2  32 6 14 9.5 10.5
2  33 10 0 9.5 10.5
0

0101000
+181 0 -179 0 *
Ve
1.00000007160723e-07
4.79731822916667 -86.866811864308 -10
0 0

0101101
*
Ed
 1e-07 1 1 0
1  68 0 0.178758061091555 2.96283459249824
2  34 6 0 0.178758061091555 2.96283459249824
0

0101000
+179 35 -177 35 *
Ve
1e-07
4.79731822916667 -86.866811864308 -11
0 0

0101101
*
Ed
 1e-07 1 1 0
1  69 0 9.5 10.5
2  35 6 14 9.5 10.5
2  36 15 0 9.5 10.5
0

0101000
+175 0 -177 0 *
Ve
1e-07
4.79731822916667 -85.133188135692 -11
0 0

0101101
*
Ed
 1e-07 1 1 0
1  70 0 2.96283459249824 3.32035071468135
2  37 6 14 2.96283459249824 3.32035071468135
0

0101000
+175 0 -173 0 *
Ve
1.00000010805157e-07
4.79731822916667 -85.133188135692 -10
0 0

0101101
*
Ed
 1e-07 1 1 0
1  71 0 9.5 10.5
2  38 6 14 9.5 10.5
2  39 15 0 9.5 10.5
0

0101000
+173 0 -171 0 *
Ve
1.00000007324107e-07
-4.79731822916667 -85.133188135692 -10
0 0

0101101
*
Ed
 1e-07 1 1 0
1  72 0 3.32035071468135 6.10442724608803
2  34 6 0 3.32035071468135 6.10442724608803
0

0101000
+171 35 -169 35 *
Ve
1.00000003552714e-07
-4.79731822916667 -85.133188135692 -11
0 0

0101101
*
Ed
 1e-07 1 1 0
1  73 0 9.5 10.5
2  40 6 14 9.5 10.5
2  41 10 0 9.5 10.5
0

0101000
+167 0 -169 0 *
Ed
 1e-07 1 1 0
1  74 0 6.10442724608803 6.28318530717959
2  42 6 14 6.10442724608803 6.28318530717959
0

0101000
+167 0 -183 0 *
Wi

0101100
+207 0 -300 0 +289 0 +184 0 +205 0 -182 14 -180 0 -178 0 -176 14 +174 0 
-172 0 -170 0 -168 14 +166 0 -165 0 +182 14 *
Fa
0  1e-07 6 14

0101000
+164 0 *
Ed
 1e-07 1 1 0
1  75 0 0 5.25
0

0101000
+204 5 -293 5 *
Wi

0101100
+162 4 +292 8 +285 8 -279 0 +252 12 -246 12 -224 12 +219 12 +212 12 +202 4 
*
Ve
1e-07
12.2 -86.2 -17.25
0 0

0101101
*
Ed
 1e-07 1 1 0
1  76 0 0 6.28318530717959
2  43 28 0 0 6.28318530717959
0

0101000
+160 0 -160 0 *
Wi

0101100
-159 0 *
Ve
1e-07
12.2 -101.5 -17.25
0 0

0101101
*
Ed
 1e-07 1 1 0
1  77 0 0 6.28318530717959
2  44 29 0 0 6.28318530717959
0

0101000
+157 0 -157 0 *
Wi

0101100
-156 0 *
Ve
1e-07
12.2 -96.2 -0.25
0 0

0101101
*
Ed
 1e-07 1 1 0
1  78 0 0 6.28318530717959
2  45 30 0 0 6.28318530717959
0

0101000
+154 0 -154 0 *
Wi

0101100
-153 0 *
Fa
0  1e-07 27 0

0101000
+161 0 +158 0 +155 0 +152 0 *
Wi

0101100
-162 4 -290 0 +184 0 -203 4 *
Fa
0  1e-07 31 4

0101000
+150 0 *
Ve
1e-07
-4.5175 -86 -10
0 0

0101101
*
Ed
 1e-07 1 1 0
1  79 0 0 10
3  46 47CN 10 0 0 10
0

0101000
+277 0 -148 0 *
Ed
 1e-07 1 1 0
1  80 0 5.6586799924115 6.28318530717959
2  48 10 0 5.6586799924115 6.28318530717959
0

0101000
+179 0 -148 0 *
Ed
 1e-07 1 1 0
1  81 0 0.624505314768088 5.6586799924115
2  49 10 0 0.624505314768088 5.6586799924115
0

0101000
+167 0 -181 0 *
Ed
 1e-07 1 1 0
1  82 0 0 0.624505314768085
2  50 10 0 0 0.624505314768085
0

0101000
+148 0 -169 0 *
Wi

0101100
-276 0 -147 0 +146 0 +178 0 +145 0 -166 0 +144 0 +147 0 *
Fa
0  1e-07 10 0

0101000
+143 0 *
Ve
1e-07
-4.05 -88.67 -5
0 0

0101101
*
Ve
1e-07
-2.05 -90.67 -5
0 0

0101101
*
Ed
 1e-07 1 1 0
1  83 0 4.71238898038469 6.28318530717959
2  51 11 0 4.71238898038469 6.28318530717959
0

0101000
+141 18 -140 18 *
Ed
 1e-07 1 1 0
1  84 0 0 5
2  52 11 0 0 5
4 G1 11 0 32 36
0

0101000
+141 18 -274 18 *
Ed
 1e-07 1 1 0
1  85 0 0 5
2  53 11 0 0 5
4 G1 11 0 33 36
0

0101000
+140 18 -273 18 *
Wi

0101100
+139 0 -138 0 +137 0 -272 0 *
Fa
0  1e-07 11 0

0101000
+136 0 *
Ve
1e-07
2.05 -90.67 -5
0 0

0101101
*
Ed
 1e-07 1 1 0
1  86 0 2 6.1
0

0101000
+140 22 -134 22 *
Ed
 1e-07 1 1 0
1  87 0 0 5
2  54 12 0 0 5
4 G1 33 36 12 0
0

0101000
+134 18 -271 18 *
Wi

0101100
-133 36 +137 0 -132 0 +270 36 *
Fa
0  1e-07 33 0

0101000
+131 37 *
Ve
1e-07
4.05 -88.67 -5
0 0

0101101
*
Ed
 1e-07 1 1 0
1  88 0 4.71238898038469 6.28318530717959
2  55 12 0 4.71238898038469 6.28318530717959
0

0101000
+129 18 -134 18 *
Ed
 1e-07 1 1 0
1  89 0 0 5
2  56 12 0 0 5
4 G1 12 0 34 36
0

0101000
+129 18 -269 18 *
Wi

0101100
+128 0 -127 0 +132 0 -268 0 *
Fa
0  1e-07 12 0

0101000
+126 0 *
Ve
1e-07
4.05 -83.33 -5
0 0

0101101
*
Ed
 1e-07 1 1 0
1  90 0 0 5
2  57 13 0 0 5
4 G1 34 36 13 0
0

0101000
+124 18 -267 18 *
Ed
 1e-07 1 1 0
1  91 0 2 7.34
0

0101000
+129 22 -124 22 *
Wi

0101100
-266 36 -127 0 +123 0 +122 36 *
Fa
0  1e-07 34 0

0101000
+121 37 *
Ve
1e-07
2.05 -81.33 -5
0 0

0101101
*
Ed
 1e-07 1 1 0
1  92 0 1.5707963267949 3.14159265358979
2  58 13 0 1.5707963267949 3.14159265358979
0

0101000
+124 18 -119 18 *
Ed
 1e-07 1 1 0
1  93 0 0 5
2  59 13 0 0 5
4 G1 13 0 35 36
0

0101000
+119 18 -265 18 *
Wi

0101100
+118 0 -123 0 +117 0 -264 0 *
Fa
0  1e-07 13 0

0101000
+116 0 *
Ve
1e-07
-2.05 -81.33 -5
0 0

0101101
*
Ed
 1e-07 1 1 0
1  94 0 2 6.1
0

0101000
+114 22 -119 22 *
Ed
 1e-07 1 1 0
1  95 0 0 5
2  60 14 0 0 5
4 G1 35 36 14 0
0

0101000
+114 18 -263 18 *
Wi

0101100
-113 36 +112 0 -117 0 +262 36 *
Fa
0  1e-07 35 0

0101000
+111 37 *
Ve
1e-07
-4.05 -83.33 -5
0 0

0101101
*
Ed
 1e-07 1 1 0
1  96 0 1.5707963267949 3.14159265358979
2  61 14 0 1.5707963267949 3.14159265358979
0

0101000
+109 18 -114 18 *
Ed
 1e-07 1 1 0
1  97 0 0 5
2  62 14 0 0 5
4 G1 14 0 32 36
0

0101000
+109 18 -261 18 *
Wi

0101100
+108 0 -107 0 +112 0 -260 0 *
Fa
0  1e-07 14 0

0101000
+106 0 *
Ed
 1e-07 1 1 0
1  98 0 2 7.34
0

0101000
+141 22 -109 22 *
Wi

0101100
-259 36 -138 0 +107 0 +104 36 *
Fa
0  1e-07 32 0

0101000
+103 37 *
Ve
1e-07
7.4825 -86 -11
0 0

0101101
*
Ed
 1e-07 1 1 0
1  99 0 0 11
3  63 64CN 15 0 0 11
0

0101000
+257 0 -101 0 *
Ed
 1e-07 1 1 0
1  100 0 3.76609796835788 6.28318530717959
2  65 15 0 3.76609796835788 6.28318530717959
0

0101000
+175 0 -101 0 *
Ed
 1e-07 1 1 0
1  101 0 2.51708733882171 3.76609796835788
2  66 15 0 2.51708733882171 3.76609796835788
0

0101000
+171 0 -177 0 *
Ed
 1e-07 1 1 0
1  102 0 0 2.5170873388217
2  65 15 0 0 2.5170873388217
0

0101000
+101 0 -173 0 *
Wi

0101100
-256 0 -100 0 +99 0 -174 0 +98 0 +170 0 +97 0 +100 0 *
Fa
0  1e-07 15 0

0101000
+96 0 *
Ve
1e-07
-4.05 -102.67 -2.25
0 0

0101101
*
Ve
1e-07
-2.05 -104.67 -2.25
0 0

0101101
*
Ed
 1e-07 1 1 0
1  103 0 4.71238898038469 6.28318530717959
2  67 18 0 4.71238898038469 6.28318530717959
0

0101000
+94 26 -93 26 *
Ed
 1e-07 1 1 0
1  104 0 0 5
2  68 18 0 0 5
4 G1 18 0 36 38
0

0101000
+94 26 -244 26 *
Ed
 1e-07 1 1 0
1  105 0 0 5
2  69 18 0 0 5
4 G1 18 0 37 38
0

0101000
+93 26 -243 26 *
Wi

0101100
+92 0 -91 0 +90 0 -242 0 *
Fa
0  1e-07 18 0

0101000
+89 0 *
Ve
1e-07
2.05 -104.67 -2.25
0 0

0101101
*
Ed
 1e-07 1 1 0
1  106 0 2 6.1
0

0101000
+93 30 -87 30 *
Ed
 1e-07 1 1 0
1  107 0 0 5
2  70 19 0 0 5
4 G1 37 38 19 0
0

0101000
+87 26 -241 26 *
Wi

0101100
-86 38 +90 0 -85 0 +240 38 *
Fa
0  1e-07 37 0

0101000
+84 39 *
Ve
1e-07
4.05 -102.67 -2.25
0 0

0101101
*
Ed
 1e-07 1 1 0
1  108 0 4.71238898038469 6.28318530717959
2  71 19 0 4.71238898038469 6.28318530717959
0

0101000
+82 26 -87 26 *
Ed
 1e-07 1 1 0
1  109 0 0 5
2  72 19 0 0 5
4 G1 19 0 38 38
0

0101000
+82 26 -239 26 *
Wi

0101100
+81 0 -80 0 +85 0 -238 0 *
Fa
0  1e-07 19 0

0101000
+79 0 *
Ve
1e-07
4.05 -97.33 -2.25
0 0

0101101
*
Ed
 1e-07 1 1 0
1  110 0 0 5
2  73 20 0 0 5
4 G1 38 38 20 0
0

0101000
+77 26 -237 26 *
Ed
 1e-07 1 1 0
1  111 0 2 7.34
0

0101000
+82 30 -77 30 *
Wi

0101100
-236 38 -80 0 +76 0 +75 38 *
Fa
0  1e-07 38 0

0101000
+74 39 *
Ve
1e-07
2.05 -95.33 -2.25
0 0

0101101
*
Ed
 1e-07 1 1 0
1  112 0 1.5707963267949 3.14159265358979
2  74 20 0 1.5707963267949 3.14159265358979
0

0101000
+77 26 -72 26 *
Ed
 1e-07 1 1 0
1  113 0 0 5
2  75 20 0 0 5
4 G1 20 0 39 38
0

0101000
+72 26 -235 26 *
Wi

0101100
+71 0 -76 0 +70 0 -234 0 *
Fa
0  1e-07 20 0

0101000
+69 0 *
Ve
1e-07
-2.05 -95.33 -2.25
0 0

0101101
*
Ed
 1e-07 1 1 0
1  114 0 2 6.1
0

0101000
+67 30 -72 30 *
Ed
 1e-07 1 1 0
1  115 0 0 5
2  76 21 0 0 5
4 G1 39 38 21 0
0

0101000
+67 26 -233 26 *
Wi

0101100
-66 38 +65 0 -70 0 +232 38 *
Fa
0  1e-07 39 0

0101000
+64 39 *
Ve
1e-07
-4.05 -97.33 -2.25
0 0

0101101
*
Ed
 1e-07 1 1 0
1  116 0 1.5707963267949 3.14159265358979
2  77 21 0 1.5707963267949 3.14159265358979
0

0101000
+62 26 -67 26 *
Ed
 1e-07 1 1 0
1  117 0 0 5
2  78 21 0 0 5
4 G1 21 0 36 38
0

0101000
+62 26 -231 26 *
Wi

0101100
+61 0 -60 0 +65 0 -230 0 *
Fa
0  1e-07 21 0

0101000
+59 0 *
Ed
 1e-07 1 1 0
1  118 0 2 7.34
0

0101000
+94 30 -62 30 *
Wi

0101100
-229 38 -91 0 +60 0 +57 38 *
Fa
0  1e-07 36 0

0101000
+56 39 *
Ve
1.00000000888178e-07
-2.65 -100 -2.25
0 0

0101101
*
Ed
 1e-07 1 1 0
1  119 0 0 6.28318530717959
2  79 24 33 0 6.28318530717959
0

0101000
+54 0 -54 0 *
Ed
 1e-07 1 1 0
1  120 0 0 18.25
3  80 81CN 24 0 0 18.25
0

0101000
+217 34 -54 34 *
Wi

0101100
-53 0 +52 33 +216 33 -52 33 *
Fa
0  1e-07 24 33

0101000
+51 0 *
Wi

0101100
+197 0 *
Fa
0  1e-07 40 0

0101000
+49 0 *
Wi

0101100
+192 0 *
Fa
0  1e-07 41 0

0101000
+47 0 *
Wi

0101100
+187 0 *
Fa
0  1e-07 42 0

0101000
+45 0 *
Wi

0101100
-165 0 -180 0 +145 0 *
Fa
0  1e-07 43 0

0101000
+43 0 *
Wi

0101100
-146 0 -144 0 +168 14 -98 0 +176 14 *
Ve
1.00000000673556e-07
-2.75 -86 -10
0 0

0101101
*
Ed
 1e-07 1 1 0
1  121 0 0 6.28318530717959
2  82 45 0 0 6.28318530717959
0

0101000
+40 35 -40 35 *
Wi

0101100
-39 14 *
Fa
0  1e-07 44 14

0101000
+41 0 +38 0 *
Wi

0101100
+99 0 -172 0 +97 0 *
Fa
0  1e-07 46 0

0101000
+36 0 *
Ve
1e-07
8.2 -86.2 -17.25
0 0

0101101
*
Ed
 1e-07 1 1 0
1  122 0 0 4
3  83 84CN 28 0 0 4
0

0101000
+160 0 -34 0 *
Ed
 1e-07 1 1 0
1  123 0 0 6.28318530717959
2  85 28 0 0 6.28318530717959
0

0101000
+34 0 -34 0 *
Wi

0101100
+33 0 -33 0 -159 0 +32 0 *
Fa
0  1e-07 28 0

0101000
+31 0 *
Ve
1e-07
7.4 -101.5 -17.25
0 0

0101101
*
Ed
 1e-07 1 1 0
1  124 0 0 4.8
3  86 87CN 29 0 0 4.8
0

0101000
+157 0 -29 0 *
Ed
 1e-07 1 1 0
1  125 0 0 6.28318530717959
2  88 29 0 0 6.28318530717959
0

0101000
+29 0 -29 0 *
Wi

0101100
+28 0 -28 0 -156 0 +27 0 *
Fa
0  1e-07 29 0

0101000
+26 0 *
Ve
1e-07
8.2 -96.2 -0.25
0 0

0101101
*
Ed
 1e-07 1 1 0
1  126 0 0 4
3  89 90CN 30 0 0 4
0

0101000
+154 0 -24 0 *
Ed
 1e-07 1 1 0
1  127 0 0 6.28318530717959
2  91 30 0 0 6.28318530717959
0

0101000
+24 0 -24 0 *
Wi

0101100
+23 0 -23 0 -153 0 +22 0 *
Fa
0  1e-07 30 0

0101000
+21 0 *
Wi

0101100
-104 21 +139 17 -108 17 +133 21 -113 21 -128 17 +118 17 +122 21 *
Ve
1e-07
-2.75 -86 -5
0 0

0101101
*
Ed
 1e-07 1 1 0
1  128 0 0 6.28318530717959
2  92 45 14 0 6.28318530717959
0

0101000
+18 0 -18 0 *
Wi

0101100
-17 0 *
Fa
0  1e-07 47 21

0101000
+19 0 +16 0 *
Wi

0101100
-57 29 +92 25 -61 25 +86 29 -66 29 -81 25 +71 25 +75 29 *
Wi

0101100
-53 0 *
Fa
0  1e-07 48 29

0101000
+14 0 +13 0 *
Ed
 1e-07 1 1 0
1  129 0 10.5 15.5
3  93 94CN 45 0 10.5 15.5
0

0101000
+40 35 -18 35 *
Wi

0101100
-11 14 -17 0 +11 14 +39 14 *
Fa
0  1e-07 45 14

0101000
+10 0 *
Wi

0101100
+32 0 *
Fa
0  1e-07 49 0

0101000
+8 0 *
Wi

0101100
+27 0 *
Fa
0  1e-07 50 0

0101000
+6 0 *
Wi

0101100
+22 0 *
Fa
0  1e-07 51 0

0101000
+4 0 *
Sh

0101100
-303 0 +296 0 -287 0 +282 8 +254 0 +249 0 +227 0 -222 12 -214 0 +209 0 
-200 0 -195 0 -190 0 -185 0 -163 0 +151 0 +149 0 -142 0 -135 17 +130 21 
+125 17 -120 21 -115 17 -110 21 +105 17 +102 21 -95 0 -88 25 +83 29 +78 25 
-73 29 -68 25 -63 29 +58 25 +55 29 -50 0 +48 0 +46 0 +44 0 +42 0 
-37 0 +35 0 -30 0 -25 0 -20 0 +15 0 +12 0 -9 0 +7 0 +5 0 
+3 0 *
So

0100000
+2 0 *

+1 1 