DBRep_DrawableShape

CASCADE Topology V1, (c) Matra-Datavision
Locations 39
1
              1              -0               0              -0 
              0               1               0               0 
             -0               0               1              -0 
1
              1               0               0               0 
              0               1               0               0 
              0               0               1               0 
1
              1              -0               0              -0 
              0               1               0               0 
             -0               0               1              -0 
2  2 1 3 1 0
2  3 -1 2 -1 0
1
              1               0               0               0 
              0               1               0               0 
              0               0               1               0 
1
              1              -0               0              -0 
              0               1               0               0 
             -0               0               1              -0 
2  6 1 7 1 0
2  7 -1 6 -1 0
1
              1               0               0               0 
              0               1               0               0 
              0               0               1               0 
1
              1              -0               0              -0 
              0               1               0               0 
             -0               0               1              -0 
2  10 1 11 1 0
2  11 -1 10 -1 0
1
              1               0              -0              -0 
              0              -1              -0              20 
              0               0              -1              -0 
1
              1              -0               0              -0 
              0               1               0              20 
             -0               0               1            20.5 
1
              1              -0               0              -0 
              0               1               0              20 
             -0               0               1            20.5 
2  15 1 16 1 15 -1 0
2  15 1 16 -1 15 -1 0
1
              1               0               0               0 
              0               1               0               0 
              0               0               1               0 
1
              1              -0               0              -0 
              0               1               0               0 
             -0               0               1              -0 
2  19 1 20 1 15 1 16 1 15 -1 0
2  15 1 16 -1 15 -1 20 -1 19 -1 0
1
              1              -0               0              -0 
              0               1               0               6 
             -0               0               1           23.25 
1
              1               0               0               0 
              0               1               0               0 
              0               0               1               0 
2  23 1 24 1 0
2  24 -1 23 -1 0
1
              1               0               0               0 
              0               1               0               0 
              0               0               1               0 
1
              1              -0               0              -0 
              0               1               0               0 
             -0               0               1              -0 
2  27 1 28 1 23 1 24 1 0
2  24 -1 23 -1 28 -1 27 -1 0
1
              1               0               0               0 
              0               1               0               0 
              0               0               1               0 
1
              1               0              -0              -0 
              0              -1              -0               6 
              0               0              -1              -0 
2  31 1 32 1 0
2  32 -1 31 -1 0
2  14 -1 0
2  19 1 20 1 0
2  20 -1 19 -1 0
2  27 1 28 1 0
2  28 -1 27 -1 0
Curve2ds 80
1 0 0 1 0 
1 0 0 1 0 
1 0 0 1 0 
1 5.8604501019892394 0 0 1 
1 0 5.5 1 0 
1 0 0 1 0 
1 -4.7123889803846897 5 1 0 
1 -4.7123889803846897 5 1 0 
1 -1.5707963267948966 5 1 0 
1 -1.5707963267948966 5 1 0 
1 0 0 1 0 
1 -4.7123889803846897 5 1 0 
1 -4.7123889803846897 5 1 0 
1 -1.5707963267948966 5 1 0 
1 -1.5707963267948966 5 1 0 
1 0 0 1 0 
1 0 0.25 1 0 
1 0 0.25 1 0 
1 0 0 0 -1 
1 6.2831853071795862 0 0 -1 
1 0 -4 1 0 
1 0 0 0 -1 
1 6.2831853071795862 0 0 -1 
1 0 -4.7999999999999998 1 0 
1 0 0 0 -1 
1 6.2831853071795862 0 0 -1 
1 0 -4 1 0 
1 6.2831853071795862 -0 0 1 
1 0 -0 0 1 
1 3.5643278587801395 0 0 1 
1 0 10.5 1 0 
1 0 0 1 0 
1 0 0 1 0 
1 0 0 1 0 
1 0 0 0 -1 
1 6.2831853071795862 0 0 -1 
1 0 -15 1 0 
1 -4.7123889803846897 0 1 0 
1 0 0 0 1 
1 1.5707963267948966 0 0 1 
1 1.5707963267948966 0 0 1 
1 -4.7123889803846897 0 1 0 
1 0 0 0 1 
1 0 0 0 1 
1 -1.5707963267948966 0 1 0 
1 1.5707963267948966 0 0 1 
1 1.5707963267948966 0 0 1 
1 -1.5707963267948966 0 1 0 
1 0 0 0 1 
1 0 0 0 -1 
1 6.2831853071795862 0 0 -1 
1 0 -15 1 0 
1 -4.7123889803846897 0 1 0 
1 0 0 0 1 
1 1.5707963267948966 0 0 1 
1 1.5707963267948966 0 0 1 
1 -4.7123889803846897 0 1 0 
1 0 0 0 1 
1 0 0 0 1 
1 -1.5707963267948966 0 1 0 
1 1.5707963267948966 0 0 1 
1 1.5707963267948966 0 0 1 
1 -1.5707963267948966 0 1 0 
1 0 0 0 1 
1 0 18.25 1 0 
1 6.2831853071795862 -0 0 1 
1 0 -0 0 1 
1 0 10.5 1 0 
1 0 0 0 -1 
1 6.2831853071795862 0 0 -1 
1 0 -4 1 0 
1 0 0 0 -1 
1 6.2831853071795862 0 0 -1 
1 0 -4.7999999999999998 1 0 
1 0 0 0 -1 
1 6.2831853071795862 0 0 -1 
1 0 -4 1 0 
1 0 15.5 1 0 
1 6.2831853071795862 -0 0 1 
1 0 -0 0 1 
Curves 117
1 -12.199999999999999 -84 -20.25 0 0 1 
1 -12.199999999999999 -94 -15 0 1 0 
1 -12.199999999999999 -80 -15 0 0 1 
8 0 14
1 -12.199999999999999 -94 0 0 1 0 
1 -12.199999999999999 -94 -20.5 0 0 1 
1 -12.199999999999999 -106 2.75 0 1 0 
1 -12.199999999999999 -106 -20.5 0 0 1 
1 -12.199999999999999 -106 -20.5 0 1 0 
1 -12.199999999999999 -94 -20.5 0 0 1 
1 -12.199999999999999 -94 -20.25 0 1 0 
2 -12.199999999999999 -87 -17.25 -1 0 0 0 -1 0 0 0 1 0.80000000000000004
2 -12.199999999999999 -103 -17.25 -1 0 0 0 -1 0 0 0 1 1.5
2 -12.199999999999999 -97 -0.25 -1 0 0 0 -1 0 0 0 1 0.80000000000000004
1 -4.4458548109446845 -84 -20.5 0 0 1 
1 -12.199999999999999 -84 -15 -1 0 0 
1 -12.199999999999999 -84 -20.25 1 0 0 
1 -12.199999999999999 -80 -15 1 0 0 
1 12.199999999999999 -94 -15 0 1 0 
1 -12.199999999999999 -84 -15 -1 0 0 
2 0 -86 -15 0 0 1 -1 0 0 0 -1 0 4.875
1 12.199999999999999 -80 -15 0 0 1 
1 -12.199999999999999 -80 0 1 0 0 
1 -12.199999999999999 -94 0 1 0 0 
8 0 14
1 12.199999999999999 -94 0 0 1 0 
2 -6.5 -86 0 0 0 1 1 0 0 0 1 0 1.4824999999999999
8 4.7123889803846897 6.2831853071795862
2 -2.0500000000000003 -108.67 -20.5 -0 0 1 0 -1 0 1 0 0 2
1 -4.0499999999999998 -110.67 -20.5 1 0 0 
8 4.7123889803846897 6.2831853071795862
2 2.0500000000000003 -108.67 -20.5 -0 -0 -1 0 -1 0 -1 0 0 2
1 4.0499999999999998 -110.67 -20.5 0 1 0 
8 1.5707963267948963 3.1415926535897936
2 2.0500000000000003 -103.33 -20.5 -0 0 1 0 -1 0 1 0 0 2
1 -4.0499999999999998 -101.33 -20.5 1 0 0 
8 1.5707963267948966 3.1415926535897931
2 -2.0500000000000003 -103.33 -20.5 -0 -0 -1 0 -1 0 -1 0 0 2
1 -4.0499999999999998 -110.67 -20.5 0 1 0 
2 6.5 -86 0 0 0 1 1 0 0 0 1 0 1.4824999999999999
1 12.199999999999999 -94 -20.5 0 0 1 
1 -12.199999999999999 -94 2.75 1 0 0 
1 -12.199999999999999 -106 2.75 1 0 0 
1 12.199999999999999 -106 2.75 0 1 0 
8 4.7123889803846897 6.2831853071795862
2 -2.0500000000000003 -108.67 -20.5 -0 0 1 0 -1 0 1 0 0 2
1 -4.0499999999999998 -110.67 -20.5 1 0 0 
8 4.7123889803846897 6.2831853071795862
2 2.0500000000000003 -108.67 -20.5 -0 -0 -1 0 -1 0 -1 0 0 2
1 4.0499999999999998 -110.67 -20.5 0 1 0 
8 1.5707963267948963 3.1415926535897936
2 2.0500000000000003 -103.33 -20.5 -0 0 1 0 -1 0 1 0 0 2
1 -4.0499999999999998 -101.33 -20.5 1 0 0 
8 1.5707963267948966 3.1415926535897931
2 -2.0500000000000003 -103.33 -20.5 -0 -0 -1 0 -1 0 -1 0 0 2
1 -4.0499999999999998 -110.67 -20.5 0 1 0 
1 -12.199999999999999 -106 -20.5 1 0 0 
1 12.199999999999999 -106 -20.5 0 0 1 
1 -12.199999999999999 -94 -20.5 1 0 0 
1 12.199999999999999 -106 -20.5 0 1 0 
2 0 106 20.5 0 0 -1 -1 0 0 0 1 0 2.6499999999999999
1 12.199999999999999 -94 -20.5 0 0 1 
1 -12.199999999999999 -94 -20.25 1 0 0 
2 0 -86 -20.25 0 0 1 -1 0 0 0 -1 0 4.875
2 0 -86 -20.25 0 0 1 -1 0 0 0 -1 0 4.875
1 -12.199999999999999 -84 -20.25 1 0 0 
1 12.199999999999999 -94 -20.25 0 1 0 
1 -12.199999999999999 -87.799999999999997 -17.25 1 0 -0 
2 -8.1999999999999993 -87 -17.25 -1 0 0 0 -1 0 0 0 1 0.80000000000000004
1 -12.199999999999999 -104.5 -17.25 1 0 -0 
2 -7.3999999999999995 -103 -17.25 -1 0 0 0 -1 0 0 0 1 1.5
1 -12.199999999999999 -97.799999999999997 -0.25 1 0 -0 
2 -8.1999999999999993 -97 -0.25 -1 0 0 0 -1 0 0 0 1 0.80000000000000004
1 -4.875 106 20.5 0 0 -1 
1 4.4458548109446845 -84 -20.5 0 0 1 
2 0 106 10 0 0 -1 -1 0 0 0 1 0 4.875
1 12.199999999999999 -84 -20.25 0 0 1 
2 12.199999999999999 -87 -17.25 1 0 0 0 1 0 0 0 1 0.80000000000000004
2 12.199999999999999 -103 -17.25 1 0 0 0 1 0 0 0 1 1.5
2 12.199999999999999 -97 -0.25 1 0 0 0 1 0 0 0 1 0.80000000000000004
1 -5.0175000000000001 -86 0 -0 -0 -1 
2 -6.5 -86 -15 0 0 1 1 0 0 0 1 0 1.4824999999999999
8 4.7123889803846897 6.2831853071795862
2 -2.0500000000000003 -108.67 -25.5 -0 0 1 0 -1 0 1 0 0 2
1 -4.0500000000000007 -108.67 -25.5 0 0 1 
1 -2.0500000000000003 -110.67 -25.5 0 0 1 
1 -4.0499999999999998 -110.67 -25.5 1 0 0 
1 2.0500000000000003 -110.67 -25.5 0 0 1 
8 4.7123889803846897 6.2831853071795862
2 2.0500000000000003 -108.67 -25.5 -0 -0 -1 0 -1 0 -1 0 0 2
1 4.0500000000000007 -108.67 -25.5 0 0 1 
1 4.0500000000000007 -103.33 -25.5 0 0 1 
1 4.0499999999999998 -110.67 -25.5 0 1 0 
8 1.5707963267948963 3.1415926535897936
2 2.0500000000000003 -103.33 -25.5 -0 0 1 0 -1 0 1 0 0 2
1 2.0500000000000003 -101.33 -25.5 0 0 1 
1 -4.0499999999999998 -101.33 -25.5 1 0 0 
1 -2.0500000000000003 -101.33 -25.5 0 0 1 
8 1.5707963267948966 3.1415926535897931
2 -2.0500000000000003 -103.33 -25.5 -0 -0 -1 0 -1 0 -1 0 0 2
1 -4.0500000000000007 -103.33 -25.5 0 0 1 
1 -4.0499999999999998 -110.67 -25.5 0 1 0 
1 7.9824999999999999 -86 0 -0 -0 -1 
2 6.5 -86 -15 0 0 1 1 0 0 0 1 0 1.4824999999999999
8 4.7123889803846897 6.2831853071795862
2 -2.0500000000000003 -108.67 -25.5 -0 0 1 0 -1 0 1 0 0 2
1 -4.0500000000000007 -108.67 -25.5 0 0 1 
1 -2.0500000000000003 -110.67 -25.5 0 0 1 
1 -4.0499999999999998 -110.67 -25.5 1 0 0 
1 2.0500000000000003 -110.67 -25.5 0 0 1 
8 4.7123889803846897 6.2831853071795862
2 2.0500000000000003 -108.67 -25.5 -0 -0 -1 0 -1 0 -1 0 0 2
1 4.0500000000000007 -108.67 -25.5 0 0 1 
1 4.0500000000000007 -103.33 -25.5 0 0 1 
1 4.0499999999999998 -110.67 -25.5 0 1 0 
8 1.5707963267948963 3.1415926535897936
2 2.0500000000000003 -103.33 -25.5 -0 0 1 0 -1 0 1 0 0 2
1 2.0500000000000003 -101.33 -25.5 0 0 1 
1 -4.0499999999999998 -101.33 -25.5 1 0 0 
1 -2.0500000000000003 -101.33 -25.5 0 0 1 
8 1.5707963267948966 3.1415926535897931
2 -2.0500000000000003 -103.33 -25.5 -0 -0 -1 0 -1 0 -1 0 0 2
1 -4.0500000000000007 -103.33 -25.5 0 0 1 
1 -4.0499999999999998 -110.67 -25.5 0 1 0 
2 0 -100 -2.25 0 0 1 -1 0 0 0 -1 0 2.6499999999999999
1 -2.6499999999999999 106 20.5 0 0 -1 
2 0 106 10 0 0 -1 -1 0 0 0 1 0 2.75
1 12.199999999999999 -86.200000000000003 -17.25 -1 -0 0 
2 8.1999999999999993 -87 -17.25 1 0 0 0 1 0 0 0 1 0.80000000000000004
1 12.199999999999999 -101.5 -17.25 -1 -0 0 
2 7.3999999999999995 -103 -17.25 1 0 0 0 1 0 0 0 1 1.5
1 12.199999999999999 -96.200000000000003 -0.25 -1 -0 0 
2 8.1999999999999993 -97 -0.25 1 0 0 0 1 0 0 0 1 0.80000000000000004
2 0 -86 -5 0 0 1 -1 0 0 0 -1 0 2.75
1 -2.75 106 20.5 0 0 -1 
Polygon3D 0
PolygonOnTriangulations 0
Surfaces 51
1 -12.199999999999999 -94 -20.25 1 0 0 0 0 1 0 -1 0 
2 -12.199999999999999 -87 -17.25 -1 0 0 0 -1 0 0 0 1 0.80000000000000004
2 -12.199999999999999 -103 -17.25 -1 0 0 0 -1 0 0 0 1 1.5
2 -12.199999999999999 -97 -0.25 -1 0 0 0 -1 0 0 0 1 0.80000000000000004
1 -12.199999999999999 -84 -20.25 0 1 0 0 0 1 1 0 0 
2 0 106 20.5 0 0 -1 -1 0 0 0 1 0 4.875
1 -12.199999999999999 -94 -15 0 0 1 1 0 0 0 1 0 
1 -12.199999999999999 -80 -15 0 1 0 0 0 1 1 0 0 
1 -12.199999999999999 -94 0 0 0 1 1 0 0 0 1 0 
2 -6.5 -86 0 0 0 1 1 0 0 0 1 0 1.4824999999999999
2 -2.0500000000000003 -108.67 -25.5 0 0 1 -1 0 0 0 -1 0 2
2 2.0500000000000003 -108.67 -25.5 0 0 1 1 0 0 0 -1 0 2
2 2.0500000000000003 -103.33 -25.5 0 0 1 1 0 0 0 1 0 2
2 -2.0500000000000003 -103.33 -25.5 0 0 1 -1 0 0 0 1 0 2
2 6.5 -86 0 0 0 1 1 0 0 0 1 0 1.4824999999999999
1 -12.199999999999999 -94 -20.5 0 1 0 0 0 1 1 0 0 
1 -12.199999999999999 -106 2.75 0 0 1 1 0 0 0 1 0 
2 -2.0500000000000003 -108.67 -25.5 0 0 1 -1 0 0 0 -1 0 2
2 2.0500000000000003 -108.67 -25.5 0 0 1 1 0 0 0 -1 0 2
2 2.0500000000000003 -103.33 -25.5 0 0 1 1 0 0 0 1 0 2
2 -2.0500000000000003 -103.33 -25.5 0 0 1 -1 0 0 0 1 0 2
1 -12.199999999999999 -106 -20.5 0 1 0 0 0 1 1 0 0 
1 -12.199999999999999 -106 -20.5 0 0 1 1 0 0 0 1 0 
2 0 106 20.5 0 0 -1 -1 0 0 0 1 0 2.6499999999999999
1 -12.199999999999999 -94 -20.5 0 1 0 0 0 1 1 0 0 
1 -12.199999999999999 -94 -20.25 0 0 1 1 0 0 0 1 0 
1 12.199999999999999 -94 -20.25 1 0 0 0 0 1 0 -1 0 
2 12.199999999999999 -87 -17.25 1 0 0 0 1 0 0 0 1 0.80000000000000004
2 12.199999999999999 -103 -17.25 1 0 0 0 1 0 0 0 1 1.5
2 12.199999999999999 -97 -0.25 1 0 0 0 1 0 0 0 1 0.80000000000000004
1 -12.199999999999999 -84 -20.25 0 1 0 0 0 1 1 0 0 
1 -4.0499999999999998 -110.67 -25.5 1 0 0 0 0 1 0 -1 0 
1 -4.0499999999999998 -110.67 -25.5 0 1 0 0 0 1 1 0 0 
1 4.0499999999999998 -110.67 -25.5 1 0 0 0 0 1 0 -1 0 
1 -4.0499999999999998 -101.33 -25.5 0 1 0 0 0 1 1 0 0 
1 -4.0499999999999998 -110.67 -25.5 1 0 0 0 0 1 0 -1 0 
1 -4.0499999999999998 -110.67 -25.5 0 1 0 0 0 1 1 0 0 
1 4.0499999999999998 -110.67 -25.5 1 0 0 0 0 1 0 -1 0 
1 -4.0499999999999998 -101.33 -25.5 0 1 0 0 0 1 1 0 0 
1 -8.1999999999999993 -87 -17.25 -1 -0 -0 0 0 -1 0 -1 0 
1 -7.4000000000000012 -103 -17.25 -1 -5.25907270147341e-31 -2.1895288505075267e-46 5.25907270147341e-31 -1 0 -2.1895288505075267e-46 -1.1514891406792589e-76 1 
1 -8.1999999999999993 -97 -0.25 -1 -0 -0 0 0 -1 0 -1 0 
1 0 106 10 0 0 -1 -1 0 0 0 1 0 
2 0 106 20.5 0 0 -1 -1 0 0 0 1 0 2.75
1 -6.5 -86 -15 0 0 1 1 0 -0 -0 1 0 
1 -4.0499999999999998 -110.67 -25.5 0 0 1 1 0 0 0 1 0 
1 6.5 -86 -15 0 0 1 1 0 -0 -0 1 0 
1 -4.0499999999999998 -110.67 -25.5 0 0 1 1 0 0 0 1 0 
1 8.1999999999999993 -87 -17.25 1 0 0 -0 0 1 0 -1 0 
1 7.4000000000000012 -103 -17.25 1 -1.7530242338244704e-31 3.28429327576129e-47 1.7530242338244704e-31 1 0 -3.28429327576129e-47 5.7574457033962951e-78 1 
1 8.1999999999999993 -97 -0.25 1 0 0 -0 0 1 0 -1 0 
Triangulations 0

TShapes 313
Ve
1e-07
-12.2 -84 -20.25
0 0

0101101
*
Ve
1.5e-07
-12.2 -84 -15
0 0

0101101
*
Ed
 1e-07 1 1 0
1  1 0 0 5.25
0

0101000
+313 5 -312 5 *
Ve
1e-07
-12.2 -80 -15
0 0

0101101
*
Ed
 1e-07 1 1 0
1  2 0 10 14
0

0101000
+312 9 -310 9 *
Ve
1e-07
-12.2 -80 0
0 0

0101101
*
Ed
 1e-07 1 1 0
1  3 0 0 15
0

0101000
-308 9 +310 9 *
Ve
1e-07
-12.2 -94 0
0 0

0101101
*
Ed
 1e-07 1 1 0
1  4 0 0 14
0

0101000
+306 0 -308 0 *
Ve
1e-07
-12.2 -94 2.75
0 0

0101101
*
Ed
 1e-07 1 1 0
1  5 0 20.5 23.25
0

0101000
+306 13 -304 13 *
Ve
1e-07
-12.2 -106 2.75
0 0

0101101
*
Ed
 1e-07 1 1 0
1  6 0 0 12
0

0101000
-304 13 +302 13 *
Ve
1e-07
-12.2 -106 -20.5
0 0

0101101
*
Ed
 1e-07 1 1 0
1  7 0 0 23.25
0

0101000
-302 13 +300 13 *
Ve
1e-07
-12.2 -94 -20.5
0 0

0101101
*
Ed
 1e-07 1 1 0
1  8 0 0 12
0

0101000
-298 13 +300 13 *
Ve
1e-07
-12.2 -94 -20.25
0 0

0101101
*
Ed
 1e-07 1 1 0
1  9 0 0 0.25
0

0101000
+298 13 -296 13 *
Ed
 1e-07 1 1 0
1  10 0 0 10
0

0101000
-313 5 +296 5 *
Wi

0101100
+311 4 +309 8 +307 8 -305 0 +303 12 -301 12 -299 12 +297 12 +295 12 +294 4 
*
Ve
1e-07
-12.2 -87.8 -17.25
0 0

0101101
*
Ed
 1e-07 1 1 0
1  11 0 0 6.28318530717959
2  1 2 0 0 6.28318530717959
0

0101000
+292 0 -292 0 *
Wi

0101100
+291 0 *
Ve
1e-07
-12.2 -104.5 -17.25
0 0

0101101
*
Ed
 1e-07 1 1 0
1  12 0 0 6.28318530717959
2  2 3 0 0 6.28318530717959
0

0101000
+289 0 -289 0 *
Wi

0101100
+288 0 *
Ve
1e-07
-12.2 -97.8 -0.25
0 0

0101101
*
Ed
 1e-07 1 1 0
1  13 0 0 6.28318530717959
2  3 4 0 0 6.28318530717959
0

0101000
+286 0 -286 0 *
Wi

0101100
+285 0 *
Fa
0  1e-07 1 0

0101000
+293 0 +290 0 +287 0 +284 0 *
Ve
1.00000007944109e-07
-4.44585481094469 -84 -20.25
0 0

0101101
*
Ve
1.5e-07
-4.44585481094469 -84 -15
0 0

0101101
*
Ed
 1e-07 1 1 0
1  14 0 0.25 5.5
2  4 6 14 0.25 5.5
0

0101000
+282 0 -281 0 *
Ed
 1.5e-07 1 1 0
1  15 0 -7.75414518905531 0
0

0101000
+281 0 -312 0 *
Ed
 1e-07 1 1 0
1  16 0 0 7.75414518905531
0

0101000
+313 5 -282 5 *
Wi

0101100
-280 0 -279 0 +311 4 -278 4 *
Fa
0  1e-07 5 4

0101000
+277 0 *
Ve
1e-07
12.2 -80 -15
0 0

0101101
*
Ed
 1e-07 1 1 0
1  17 0 0 24.4
0

0101000
-275 9 +310 9 *
Ve
1.5e-07
12.2 -84 -15
0 0

0101101
*
Ed
 1e-07 1 1 0
1  18 0 10 14
0

0101000
+273 9 -275 9 *
Ve
1.5e-07
4.44585481094469 -84 -15
0 0

0101101
*
Ed
 1.5e-07 1 1 0
1  19 0 -24.4 -16.6458548109447
0

0101000
+273 0 -271 0 *
Ed
 1e-07 1 1 0
1  20 0 3.56432785878014 5.86045010198924
2  5 6 14 3.56432785878014 5.86045010198924
0

0101000
+271 0 -281 0 *
Wi

0101100
-309 8 -274 8 +272 8 -270 0 -269 0 -279 0 *
Fa
0  1e-07 7 8

0101000
+268 0 *
Ve
1e-07
12.2 -80 0
0 0

0101101
*
Ed
 1e-07 1 1 0
1  21 0 0 15
0

0101000
-266 9 +275 9 *
Ed
 1e-07 1 1 0
1  22 0 0 24.4
0

0101000
-266 9 +308 9 *
Wi

0101100
-274 0 -265 0 +264 0 +307 0 *
Fa
0  1e-07 8 0

0101000
+263 0 *
Ve
1e-07
12.2 -94 0
0 0

0101101
*
Ed
 1e-07 1 1 0
1  23 0 0 24.4
0

0101000
+306 9 -261 9 *
Ed
 1e-07 1 1 0
1  24 0 0 14
0

0101000
+261 0 -266 0 *
Wi

0101100
-305 0 +260 8 -264 8 +259 0 *
Ve
1e-07
-5.0175 -86 0
0 0

0101101
*
Ed
 1e-07 1 1 0
1  25 0 0 6.28318530717959
2  6 10 0 0 6.28318530717959
0

0101000
+257 0 -257 0 *
Wi

0101100
-256 0 *
Ve
1e-07
-4.05 -88.67 0
0 0

0101101
*
Ve
1e-07
-2.05 -90.67 0
0 0

0101101
*
Ed
 1e-07 1 1 0
1  26 0 4.71238898038469 6.28318530717959
2  7 11 0 4.71238898038469 6.28318530717959
0

0101000
+254 18 -253 18 *
Ve
1e-07
2.05 -90.67 0
0 0

0101101
*
Ed
 1e-07 1 1 0
1  27 0 2 6.1
0

0101000
+253 22 -251 22 *
Ve
1e-07
4.05 -88.67 0
0 0

0101101
*
Ed
 1e-07 1 1 0
1  28 0 4.71238898038469 6.28318530717959
2  8 12 0 4.71238898038469 6.28318530717959
0

0101000
+249 18 -251 18 *
Ve
1e-07
4.05 -83.33 0
0 0

0101101
*
Ed
 1e-07 1 1 0
1  29 0 2 7.34
0

0101000
+249 22 -247 22 *
Ve
1e-07
2.05 -81.33 0
0 0

0101101
*
Ed
 1e-07 1 1 0
1  30 0 1.5707963267949 3.14159265358979
2  9 13 0 1.5707963267949 3.14159265358979
0

0101000
+247 18 -245 18 *
Ve
1e-07
-2.05 -81.33 0
0 0

0101101
*
Ed
 1e-07 1 1 0
1  31 0 2 6.1
0

0101000
+243 22 -245 22 *
Ve
1e-07
-4.05 -83.33 0
0 0

0101101
*
Ed
 1e-07 1 1 0
1  32 0 1.5707963267949 3.14159265358979
2  10 14 0 1.5707963267949 3.14159265358979
0

0101000
+241 18 -243 18 *
Ed
 1e-07 1 1 0
1  33 0 2 7.34
0

0101000
+254 22 -241 22 *
Wi

0101100
-252 17 -250 21 +248 17 -246 21 -244 17 +242 21 +240 17 +239 21 *
Ve
1e-07
7.9825 -86 0
0 0

0101101
*
Ed
 1e-07 1 1 0
1  34 0 0 6.28318530717959
2  11 15 0 0 6.28318530717959
0

0101000
+237 0 -237 0 *
Wi

0101100
-236 0 *
Fa
0  1e-07 9 0

0101000
+258 0 +255 0 +238 0 +235 0 *
Ve
1e-07
12.2 -94 2.75
0 0

0101101
*
Ed
 1e-07 1 1 0
1  35 0 20.5 23.25
0

0101000
+261 13 -233 13 *
Ed
 1e-07 1 1 0
1  36 0 0 24.4
0

0101000
-233 13 +304 13 *
Wi

0101100
-232 12 +231 12 +303 12 -260 8 *
Fa
0  1e-07 16 12

0101000
+230 0 *
Ve
1e-07
12.2 -106 2.75
0 0

0101101
*
Ed
 1e-07 1 1 0
1  37 0 0 24.4
0

0101000
-228 13 +302 13 *
Ed
 1e-07 1 1 0
1  38 0 0 12
0

0101000
-233 13 +228 13 *
Wi

0101100
-301 12 -231 12 +227 12 +226 12 *
Ve
1e-07
-4.05 -102.67 2.75
0 0

0101101
*
Ve
1e-07
-2.05 -104.67 2.75
0 0

0101101
*
Ed
 1e-07 1 1 0
1  39 0 4.71238898038469 6.28318530717959
2  12 18 0 4.71238898038469 6.28318530717959
0

0101000
+224 26 -223 26 *
Ve
1e-07
2.05 -104.67 2.75
0 0

0101101
*
Ed
 1e-07 1 1 0
1  40 0 2 6.1
0

0101000
+223 30 -221 30 *
Ve
1e-07
4.05 -102.67 2.75
0 0

0101101
*
Ed
 1e-07 1 1 0
1  41 0 4.71238898038469 6.28318530717959
2  13 19 0 4.71238898038469 6.28318530717959
0

0101000
+219 26 -221 26 *
Ve
1e-07
4.05 -97.33 2.75
0 0

0101101
*
Ed
 1e-07 1 1 0
1  42 0 2 7.34
0

0101000
+219 30 -217 30 *
Ve
1e-07
2.05 -95.33 2.75
0 0

0101101
*
Ed
 1e-07 1 1 0
1  43 0 1.5707963267949 3.14159265358979
2  14 20 0 1.5707963267949 3.14159265358979
0

0101000
+217 26 -215 26 *
Ve
1e-07
-2.05 -95.33 2.75
0 0

0101101
*
Ed
 1e-07 1 1 0
1  44 0 2 6.1
0

0101000
+213 30 -215 30 *
Ve
1e-07
-4.05 -97.33 2.75
0 0

0101101
*
Ed
 1e-07 1 1 0
1  45 0 1.5707963267949 3.14159265358979
2  15 21 0 1.5707963267949 3.14159265358979
0

0101000
+211 26 -213 26 *
Ed
 1e-07 1 1 0
1  46 0 2 7.34
0

0101000
+224 30 -211 30 *
Wi

0101100
-222 25 -220 29 +218 25 -216 29 -214 25 +212 29 +210 25 +209 29 *
Fa
0  1e-07 17 12

0101000
+225 0 +208 0 *
Ve
1e-07
12.2 -106 -20.5
0 0

0101101
*
Ed
 1e-07 1 1 0
1  47 0 0 24.4
0

0101000
-206 13 +300 13 *
Ed
 1e-07 1 1 0
1  48 0 0 23.25
0

0101000
-228 13 +206 13 *
Wi

0101100
-205 0 -204 0 +227 0 +299 0 *
Fa
0  1e-07 22 0

0101000
+203 0 *
Ve
1e-07
12.2 -94 -20.5
0 0

0101101
*
Ed
 1e-07 1 1 0
1  49 0 0 24.4
0

0101000
-201 13 +298 13 *
Ed
 1e-07 1 1 0
1  50 0 0 12
0

0101000
-201 13 +206 13 *
Wi

0101100
-297 12 -200 12 +205 12 +199 12 *
Ve
1e-07
-2.65 -100 -20.5
0 0

0101101
*
Ed
 1e-07 1 1 0
1  51 0 0 6.28318530717959
2  16 24 0 0 6.28318530717959
0

0101000
+197 34 -197 34 *
Wi

0101100
-196 33 *
Fa
0  1e-07 23 12

0101000
+198 0 +195 0 *
Ve
1e-07
12.2 -94 -20.25
0 0

0101101
*
Ed
 1e-07 1 1 0
1  52 0 0 0.25
0

0101000
+201 13 -193 13 *
Ed
 1e-07 1 1 0
1  53 0 0 24.4
0

0101000
-193 5 +296 5 *
Wi

0101100
-192 12 +191 4 +295 12 -200 12 *
Fa
0  1e-07 25 12

0101000
+190 0 *
Ve
1e-07
-4.875 -86 -20.25
0 0

0101101
*
Ed
 1e-07 1 1 0
1  54 0 5.86045010198924 6.28318530717959
2  17 6 14 5.86045010198924 6.28318530717959
0

0101000
+282 0 -188 0 *
Ve
1.00000007105427e-07
4.44585481094469 -84 -20.25
0 0

0101101
*
Ed
 1e-07 1 1 0
1  55 0 0 3.56432785878014
2  18 6 14 0 3.56432785878014
0

0101000
+188 0 -186 0 *
Ve
1e-07
12.2 -84 -20.25
0 0

0101101
*
Ed
 1e-07 1 1 0
1  56 0 16.6458548109447 24.4
0

0101000
+186 5 -184 5 *
Ed
 1e-07 1 1 0
1  57 0 0 10
0

0101000
-184 5 +193 5 *
Wi

0101100
-278 4 -187 0 -185 0 -183 4 +182 4 +191 4 -294 4 *
Fa
0  1e-07 26 4

0101000
+181 0 *
Ve
1e-07
-8.2 -87.8 -17.25
0 0

0101101
*
Ed
 1e-07 1 1 0
1  58 0 0 4
3  19 20CN 2 0 0 4
0

0101000
+292 0 -179 0 *
Ed
 1e-07 1 1 0
1  59 0 0 6.28318530717959
2  21 2 0 0 6.28318530717959
0

0101000
+179 0 -179 0 *
Wi

0101100
+178 0 -178 0 -291 0 +177 0 *
Fa
0  1e-07 2 0

0101000
+176 0 *
Ve
1e-07
-7.4 -104.5 -17.25
0 0

0101101
*
Ed
 1e-07 1 1 0
1  60 0 0 4.8
3  22 23CN 3 0 0 4.8
0

0101000
+289 0 -174 0 *
Ed
 1e-07 1 1 0
1  61 0 0 6.28318530717959
2  24 3 0 0 6.28318530717959
0

0101000
+174 0 -174 0 *
Wi

0101100
+173 0 -173 0 -288 0 +172 0 *
Fa
0  1e-07 3 0

0101000
+171 0 *
Ve
1e-07
-8.2 -97.8 -0.25
0 0

0101101
*
Ed
 1e-07 1 1 0
1  62 0 0 4
3  25 26CN 4 0 0 4
0

0101000
+286 0 -169 0 *
Ed
 1e-07 1 1 0
1  63 0 0 6.28318530717959
2  27 4 0 0 6.28318530717959
0

0101000
+169 0 -169 0 *
Wi

0101100
+168 0 -168 0 -285 0 +167 0 *
Fa
0  1e-07 4 0

0101000
+166 0 *
Ve
1e-07
-4.875 -86 -10
0 0

0101101
*
Ed
 1e-07 1 1 0
1  64 0 0.25 10.5
3  28 29CN 6 0 0.25 10.5
0

0101000
+188 35 -164 35 *
Ed
 1e-07 1 1 0
1  65 0 0.25 5.5
2  30 6 14 0.25 5.5
0

0101000
+186 0 -271 0 *
Ed
 1e-07 1 1 0
1  66 0 0 6.28318530717959
2  31 6 0 0 6.28318530717959
0

0101000
+164 35 -164 35 *
Wi

0101100
+163 14 +187 0 -280 0 +269 0 +162 0 +185 0 -163 14 -161 14 *
Fa
0  1e-07 6 14

0101000
+160 0 *
Ed
 1e-07 1 1 0
1  67 0 0 5.25
0

0101000
+184 5 -273 5 *
Wi

0101100
+158 4 +272 8 +265 8 -259 0 +232 12 -226 12 -204 12 +199 12 +192 12 +182 4 
*
Ve
1e-07
12.2 -86.2 -17.25
0 0

0101101
*
Ed
 1e-07 1 1 0
1  68 0 0 6.28318530717959
2  32 28 0 0 6.28318530717959
0

0101000
+156 0 -156 0 *
Wi

0101100
-155 0 *
Ve
1e-07
12.2 -101.5 -17.25
0 0

0101101
*
Ed
 1e-07 1 1 0
1  69 0 0 6.28318530717959
2  33 29 0 0 6.28318530717959
0

0101000
+153 0 -153 0 *
Wi

0101100
-152 0 *
Ve
1e-07
12.2 -96.2 -0.25
0 0

0101101
*
Ed
 1e-07 1 1 0
1  70 0 0 6.28318530717959
2  34 30 0 0 6.28318530717959
0

0101000
+150 0 -150 0 *
Wi

0101100
-149 0 *
Fa
0  1e-07 27 0

0101000
+157 0 +154 0 +151 0 +148 0 *
Wi

0101100
-158 4 -270 0 +162 0 -183 4 *
Fa
0  1e-07 31 4

0101000
+146 0 *
Ve
1e-07
-5.0175 -86 -15
0 0

0101101
*
Ed
 1e-07 1 1 0
1  71 0 0 15
3  35 36CN 10 0 0 15
0

0101000
+257 0 -144 0 *
Ed
 1e-07 1 1 0
1  72 0 0 6.28318530717959
2  37 10 0 0 6.28318530717959
0

0101000
+144 0 -144 0 *
Wi

0101100
+143 0 -143 0 -256 0 +142 0 *
Fa
0  1e-07 10 0

0101000
+141 0 *
Ve
1e-07
-4.05 -88.67 -5
0 0

0101101
*
Ve
1e-07
-2.05 -90.67 -5
0 0

0101101
*
Ed
 1e-07 1 1 0
1  73 0 4.71238898038469 6.28318530717959
2  38 11 0 4.71238898038469 6.28318530717959
0

0101000
+139 18 -138 18 *
Ed
 1e-07 1 1 0
1  74 0 0 5
2  39 11 0 0 5
4 G1 11 0 32 36
0

0101000
+139 18 -254 18 *
Ed
 1e-07 1 1 0
1  75 0 0 5
2  40 11 0 0 5
4 G1 11 0 33 36
0

0101000
+138 18 -253 18 *
Wi

0101100
+137 0 -136 0 +135 0 -252 0 *
Fa
0  1e-07 11 0

0101000
+134 0 *
Ve
1e-07
2.05 -90.67 -5
0 0

0101101
*
Ed
 1e-07 1 1 0
1  76 0 2 6.1
0

0101000
+138 22 -132 22 *
Ed
 1e-07 1 1 0
1  77 0 0 5
2  41 12 0 0 5
4 G1 33 36 12 0
0

0101000
+132 18 -251 18 *
Wi

0101100
-131 36 +135 0 -130 0 +250 36 *
Fa
0  1e-07 33 0

0101000
+129 37 *
Ve
1e-07
4.05 -88.67 -5
0 0

0101101
*
Ed
 1e-07 1 1 0
1  78 0 4.71238898038469 6.28318530717959
2  42 12 0 4.71238898038469 6.28318530717959
0

0101000
+127 18 -132 18 *
Ed
 1e-07 1 1 0
1  79 0 0 5
2  43 12 0 0 5
4 G1 12 0 34 36
0

0101000
+127 18 -249 18 *
Wi

0101100
+126 0 -125 0 +130 0 -248 0 *
Fa
0  1e-07 12 0

0101000
+124 0 *
Ve
1e-07
4.05 -83.33 -5
0 0

0101101
*
Ed
 1e-07 1 1 0
1  80 0 0 5
2  44 13 0 0 5
4 G1 34 36 13 0
0

0101000
+122 18 -247 18 *
Ed
 1e-07 1 1 0
1  81 0 2 7.34
0

0101000
+127 22 -122 22 *
Wi

0101100
-246 36 -125 0 +121 0 +120 36 *
Fa
0  1e-07 34 0

0101000
+119 37 *
Ve
1e-07
2.05 -81.33 -5
0 0

0101101
*
Ed
 1e-07 1 1 0
1  82 0 1.5707963267949 3.14159265358979
2  45 13 0 1.5707963267949 3.14159265358979
0

0101000
+122 18 -117 18 *
Ed
 1e-07 1 1 0
1  83 0 0 5
2  46 13 0 0 5
4 G1 13 0 35 36
0

0101000
+117 18 -245 18 *
Wi

0101100
+116 0 -121 0 +115 0 -244 0 *
Fa
0  1e-07 13 0

0101000
+114 0 *
Ve
1e-07
-2.05 -81.33 -5
0 0

0101101
*
Ed
 1e-07 1 1 0
1  84 0 2 6.1
0

0101000
+112 22 -117 22 *
Ed
 1e-07 1 1 0
1  85 0 0 5
2  47 14 0 0 5
4 G1 35 36 14 0
0

0101000
+112 18 -243 18 *
Wi

0101100
-111 36 +110 0 -115 0 +242 36 *
Fa
0  1e-07 35 0

0101000
+109 37 *
Ve
1e-07
-4.05 -83.33 -5
0 0

0101101
*
Ed
 1e-07 1 1 0
1  86 0 1.5707963267949 3.14159265358979
2  48 14 0 1.5707963267949 3.14159265358979
0

0101000
+107 18 -112 18 *
Ed
 1e-07 1 1 0
1  87 0 0 5
2  49 14 0 0 5
4 G1 14 0 32 36
0

0101000
+107 18 -241 18 *
Wi

0101100
+106 0 -105 0 +110 0 -240 0 *
Fa
0  1e-07 14 0

0101000
+104 0 *
Ed
 1e-07 1 1 0
1  88 0 2 7.34
0

0101000
+139 22 -107 22 *
Wi

0101100
-239 36 -136 0 +105 0 +102 36 *
Fa
0  1e-07 32 0

0101000
+101 37 *
Ve
1e-07
7.9825 -86 -15
0 0

0101101
*
Ed
 1e-07 1 1 0
1  89 0 0 15
3  50 51CN 15 0 0 15
0

0101000
+237 0 -99 0 *
Ed
 1e-07 1 1 0
1  90 0 0 6.28318530717959
2  52 15 0 0 6.28318530717959
0

0101000
+99 0 -99 0 *
Wi

0101100
+98 0 -98 0 -236 0 +97 0 *
Fa
0  1e-07 15 0

0101000
+96 0 *
Ve
1e-07
-4.05 -102.67 -2.25
0 0

0101101
*
Ve
1e-07
-2.05 -104.67 -2.25
0 0

0101101
*
Ed
 1e-07 1 1 0
1  91 0 4.71238898038469 6.28318530717959
2  53 18 0 4.71238898038469 6.28318530717959
0

0101000
+94 26 -93 26 *
Ed
 1e-07 1 1 0
1  92 0 0 5
2  54 18 0 0 5
4 G1 18 0 36 38
0

0101000
+94 26 -224 26 *
Ed
 1e-07 1 1 0
1  93 0 0 5
2  55 18 0 0 5
4 G1 18 0 37 38
0

0101000
+93 26 -223 26 *
Wi

0101100
+92 0 -91 0 +90 0 -222 0 *
Fa
0  1e-07 18 0

0101000
+89 0 *
Ve
1e-07
2.05 -104.67 -2.25
0 0

0101101
*
Ed
 1e-07 1 1 0
1  94 0 2 6.1
0

0101000
+93 30 -87 30 *
Ed
 1e-07 1 1 0
1  95 0 0 5
2  56 19 0 0 5
4 G1 37 38 19 0
0

0101000
+87 26 -221 26 *
Wi

0101100
-86 38 +90 0 -85 0 +220 38 *
Fa
0  1e-07 37 0

0101000
+84 39 *
Ve
1e-07
4.05 -102.67 -2.25
0 0

0101101
*
Ed
 1e-07 1 1 0
1  96 0 4.71238898038469 6.28318530717959
2  57 19 0 4.71238898038469 6.28318530717959
0

0101000
+82 26 -87 26 *
Ed
 1e-07 1 1 0
1  97 0 0 5
2  58 19 0 0 5
4 G1 19 0 38 38
0

0101000
+82 26 -219 26 *
Wi

0101100
+81 0 -80 0 +85 0 -218 0 *
Fa
0  1e-07 19 0

0101000
+79 0 *
Ve
1e-07
4.05 -97.33 -2.25
0 0

0101101
*
Ed
 1e-07 1 1 0
1  98 0 0 5
2  59 20 0 0 5
4 G1 38 38 20 0
0

0101000
+77 26 -217 26 *
Ed
 1e-07 1 1 0
1  99 0 2 7.34
0

0101000
+82 30 -77 30 *
Wi

0101100
-216 38 -80 0 +76 0 +75 38 *
Fa
0  1e-07 38 0

0101000
+74 39 *
Ve
1e-07
2.05 -95.33 -2.25
0 0

0101101
*
Ed
 1e-07 1 1 0
1  100 0 1.5707963267949 3.14159265358979
2  60 20 0 1.5707963267949 3.14159265358979
0

0101000
+77 26 -72 26 *
Ed
 1e-07 1 1 0
1  101 0 0 5
2  61 20 0 0 5
4 G1 20 0 39 38
0

0101000
+72 26 -215 26 *
Wi

0101100
+71 0 -76 0 +70 0 -214 0 *
Fa
0  1e-07 20 0

0101000
+69 0 *
Ve
1e-07
-2.05 -95.33 -2.25
0 0

0101101
*
Ed
 1e-07 1 1 0
1  102 0 2 6.1
0

0101000
+67 30 -72 30 *
Ed
 1e-07 1 1 0
1  103 0 0 5
2  62 21 0 0 5
4 G1 39 38 21 0
0

0101000
+67 26 -213 26 *
Wi

0101100
-66 38 +65 0 -70 0 +212 38 *
Fa
0  1e-07 39 0

0101000
+64 39 *
Ve
1e-07
-4.05 -97.33 -2.25
0 0

0101101
*
Ed
 1e-07 1 1 0
1  104 0 1.5707963267949 3.14159265358979
2  63 21 0 1.5707963267949 3.14159265358979
0

0101000
+62 26 -67 26 *
Ed
 1e-07 1 1 0
1  105 0 0 5
2  64 21 0 0 5
4 G1 21 0 36 38
0

0101000
+62 26 -211 26 *
Wi

0101100
+61 0 -60 0 +65 0 -210 0 *
Fa
0  1e-07 21 0

0101000
+59 0 *
Ed
 1e-07 1 1 0
1  106 0 2 7.34
0

0101000
+94 30 -62 30 *
Wi

0101100
-209 38 -91 0 +60 0 +57 38 *
Fa
0  1e-07 36 0

0101000
+56 39 *
Ve
1.00000000888178e-07
-2.65 -100 -2.25
0 0

0101101
*
Ed
 1e-07 1 1 0
1  107 0 0 6.28318530717959
2  65 24 33 0 6.28318530717959
0

0101000
+54 0 -54 0 *
Ed
 1e-07 1 1 0
1  108 0 0 18.25
3  66 67CN 24 0 0 18.25
0

0101000
+197 34 -54 34 *
Wi

0101100
-53 0 +52 33 +196 33 -52 33 *
Fa
0  1e-07 24 33

0101000
+51 0 *
Wi

0101100
+177 0 *
Fa
0  1e-07 40 0

0101000
+49 0 *
Wi

0101100
+172 0 *
Fa
0  1e-07 41 0

0101000
+47 0 *
Wi

0101100
+167 0 *
Fa
0  1e-07 42 0

0101000
+45 0 *
Wi

0101100
+161 0 *
Ve
1.00000000673556e-07
-2.75 -86 -10
0 0

0101101
*
Ed
 1e-07 1 1 0
1  109 0 0 6.28318530717959
2  68 44 0 0 6.28318530717959
0

0101000
+42 35 -42 35 *
Wi

0101100
-41 0 *
Fa
0  1e-07 43 0

0101000
+43 0 +40 0 *
Ve
1e-07
8.2 -86.2 -17.25
0 0

0101101
*
Ed
 1e-07 1 1 0
1  110 0 0 4
3  69 70CN 28 0 0 4
0

0101000
+156 0 -38 0 *
Ed
 1e-07 1 1 0
1  111 0 0 6.28318530717959
2  71 28 0 0 6.28318530717959
0

0101000
+38 0 -38 0 *
Wi

0101100
+37 0 -37 0 -155 0 +36 0 *
Fa
0  1e-07 28 0

0101000
+35 0 *
Ve
1e-07
7.4 -101.5 -17.25
0 0

0101101
*
Ed
 1e-07 1 1 0
1  112 0 0 4.8
3  72 73CN 29 0 0 4.8
0

0101000
+153 0 -33 0 *
Ed
 1e-07 1 1 0
1  113 0 0 6.28318530717959
2  74 29 0 0 6.28318530717959
0

0101000
+33 0 -33 0 *
Wi

0101100
+32 0 -32 0 -152 0 +31 0 *
Fa
0  1e-07 29 0

0101000
+30 0 *
Ve
1e-07
8.2 -96.2 -0.25
0 0

0101101
*
Ed
 1e-07 1 1 0
1  114 0 0 4
3  75 76CN 30 0 0 4
0

0101000
+150 0 -28 0 *
Ed
 1e-07 1 1 0
1  115 0 0 6.28318530717959
2  77 30 0 0 6.28318530717959
0

0101000
+28 0 -28 0 *
Wi

0101100
+27 0 -27 0 -149 0 +26 0 *
Fa
0  1e-07 30 0

0101000
+25 0 *
Wi

0101100
+142 0 *
Fa
0  1e-07 45 0

0101000
+23 0 *
Wi

0101100
-102 21 +137 17 -106 17 +131 21 -111 21 -126 17 +116 17 +120 21 *
Ve
1e-07
-2.75 -86 -5
0 0

0101101
*
Ed
 1e-07 1 1 0
1  116 0 0 6.28318530717959
2  78 44 14 0 6.28318530717959
0

0101000
+20 0 -20 0 *
Wi

0101100
-19 0 *
Fa
0  1e-07 46 21

0101000
+21 0 +18 0 *
Wi

0101100
+97 0 *
Fa
0  1e-07 47 0

0101000
+16 0 *
Wi

0101100
-57 29 +92 25 -61 25 +86 29 -66 29 -81 25 +71 25 +75 29 *
Wi

0101100
-53 0 *
Fa
0  1e-07 48 29

0101000
+14 0 +13 0 *
Ed
 1e-07 1 1 0
1  117 0 10.5 15.5
3  79 80CN 44 0 10.5 15.5
0

0101000
+42 35 -20 35 *
Wi

0101100
-11 14 -19 0 +11 14 +41 14 *
Fa
0  1e-07 44 14

0101000
+10 0 *
Wi

0101100
+36 0 *
Fa
0  1e-07 49 0

0101000
+8 0 *
Wi

0101100
+31 0 *
Fa
0  1e-07 50 0

0101000
+6 0 *
Wi

0101100
+26 0 *
Fa
0  1e-07 51 0

0101000
+4 0 *
Sh

0101100
-283 0 +276 0 -267 0 +262 8 +234 0 +229 0 +207 0 -202 12 -194 0 +189 0 
-180 0 -175 0 -170 0 -165 0 -159 0 +147 0 +145 0 -140 0 -133 17 +128 21 
+123 17 -118 21 -113 17 -108 21 +103 17 +100 21 -95 0 -88 25 +83 29 +78 25 
-73 29 -68 25 -63 29 +58 25 +55 29 -50 0 +48 0 +46 0 +44 0 -39 14 
-34 0 -29 0 -24 0 +22 0 +17 0 +15 0 +12 0 -9 0 +7 0 +5 0 
+3 0 *
So

0100000
+2 0 *

+1 1 