DBRep_DrawableShape

CASCADE Topology V1, (c) Matra-Datavision
Locations 39
1
              1              -0               0              -0 
              0               1               0               0 
             -0               0               1              -0 
1
              1               0               0               0 
              0               1               0               0 
              0               0               1               0 
1
              1              -0               0              -0 
              0               1               0               0 
             -0               0               1              -0 
2  2 1 3 1 0
2  3 -1 2 -1 0
1
              1               0               0               0 
              0               1               0               0 
              0               0               1               0 
1
              1              -0               0              -0 
              0               1               0               0 
             -0               0               1              -0 
2  6 1 7 1 0
2  7 -1 6 -1 0
1
              1               0               0               0 
              0               1               0               0 
              0               0               1               0 
1
              1              -0               0              -0 
              0               1               0               0 
             -0               0               1              -0 
2  10 1 11 1 0
2  11 -1 10 -1 0
1
              1               0              -0              -0 
              0              -1              -0              20 
              0               0              -1              -0 
1
              1              -0               0              -0 
              0               1               0              20 
             -0               0               1            20.5 
1
              1              -0               0              -0 
              0               1               0              20 
             -0               0               1            20.5 
2  15 1 16 1 15 -1 0
2  15 1 16 -1 15 -1 0
1
              1               0               0               0 
              0               1               0               0 
              0               0               1               0 
1
              1              -0               0              -0 
              0               1               0               0 
             -0               0               1              -0 
2  19 1 20 1 15 1 16 1 15 -1 0
2  15 1 16 -1 15 -1 20 -1 19 -1 0
1
              1              -0               0              -0 
              0               1               0               6 
             -0               0               1           23.25 
1
              1               0               0               0 
              0               1               0               0 
              0               0               1               0 
2  23 1 24 1 0
2  24 -1 23 -1 0
1
              1               0               0               0 
              0               1               0               0 
              0               0               1               0 
1
              1              -0               0              -0 
              0               1               0               0 
             -0               0               1              -0 
2  27 1 28 1 23 1 24 1 0
2  24 -1 23 -1 28 -1 27 -1 0
1
              1               0               0               0 
              0               1               0               0 
              0               0               1               0 
1
              1               0              -0              -0 
              0              -1              -0               6 
              0               0              -1              -0 
2  31 1 32 1 0
2  32 -1 31 -1 0
2  14 -1 0
2  19 1 20 1 0
2  20 -1 19 -1 0
2  27 1 28 1 0
2  28 -1 27 -1 0
Curve2ds 80
1 0 0 1 0 
1 0 0 1 0 
1 0 0 1 0 
1 5.8604501019892394 0 0 1 
1 0 5.5 1 0 
1 0 0 1 0 
1 -4.7123889803846897 5 1 0 
1 -4.7123889803846897 5 1 0 
1 -1.5707963267948966 5 1 0 
1 -1.5707963267948966 5 1 0 
1 0 0 1 0 
1 -4.7123889803846897 5 1 0 
1 -4.7123889803846897 5 1 0 
1 -1.5707963267948966 5 1 0 
1 -1.5707963267948966 5 1 0 
1 0 0 1 0 
1 0 0.25 1 0 
1 0 0.25 1 0 
1 0 0 0 -1 
1 6.2831853071795862 0 0 -1 
1 0 -4 1 0 
1 0 0 0 -1 
1 6.2831853071795862 0 0 -1 
1 0 -4.7999999999999998 1 0 
1 0 0 0 -1 
1 6.2831853071795862 0 0 -1 
1 0 -4 1 0 
1 3.5643278587801395 0 0 1 
1 6.2831853071795862 -0 0 1 
1 0 -0 0 1 
1 0 10.5 1 0 
1 0 0 1 0 
1 0 0 1 0 
1 0 0 1 0 
1 0 0 0 -1 
1 6.2831853071795862 0 0 -1 
1 0 -10 1 0 
1 -4.7123889803846897 0 1 0 
1 0 0 0 1 
1 1.5707963267948966 0 0 1 
1 1.5707963267948966 0 0 1 
1 -4.7123889803846897 0 1 0 
1 0 0 0 1 
1 0 0 0 1 
1 -1.5707963267948966 0 1 0 
1 1.5707963267948966 0 0 1 
1 1.5707963267948966 0 0 1 
1 -1.5707963267948966 0 1 0 
1 0 0 0 1 
1 0 0 0 -1 
1 6.2831853071795862 0 0 -1 
1 0 -10 1 0 
1 -4.7123889803846897 0 1 0 
1 0 0 0 1 
1 1.5707963267948966 0 0 1 
1 1.5707963267948966 0 0 1 
1 -4.7123889803846897 0 1 0 
1 0 0 0 1 
1 0 0 0 1 
1 -1.5707963267948966 0 1 0 
1 1.5707963267948966 0 0 1 
1 1.5707963267948966 0 0 1 
1 -1.5707963267948966 0 1 0 
1 0 0 0 1 
1 0 18.25 1 0 
1 6.2831853071795862 -0 0 1 
1 0 -0 0 1 
1 0 10.5 1 0 
1 0 0 0 -1 
1 6.2831853071795862 0 0 -1 
1 0 -4 1 0 
1 0 0 0 -1 
1 6.2831853071795862 0 0 -1 
1 0 -4.7999999999999998 1 0 
1 0 0 0 -1 
1 6.2831853071795862 0 0 -1 
1 0 -4 1 0 
1 0 15.5 1 0 
1 6.2831853071795862 -0 0 1 
1 0 -0 0 1 
Curves 125
1 -12.199999999999999 -84 -20.25 0 0 1 
1 -12.199999999999999 -94 -15 0 1 0 
1 -12.199999999999999 -80 -15 0 0 1 
8 0 14
1 -12.199999999999999 -94 0 0 1 0 
1 -12.199999999999999 -94 -20.5 0 0 1 
1 -12.199999999999999 -106 2.75 0 1 0 
1 -12.199999999999999 -106 -20.5 0 0 1 
1 -12.199999999999999 -106 -20.5 0 1 0 
1 -12.199999999999999 -94 -20.5 0 0 1 
1 -12.199999999999999 -94 -20.25 0 1 0 
2 -12.199999999999999 -87 -17.25 -1 0 0 0 -1 0 0 0 1 0.80000000000000004
2 -12.199999999999999 -103 -17.25 -1 0 0 0 -1 0 0 0 1 1.5
2 -12.199999999999999 -97 -0.25 -1 0 0 0 -1 0 0 0 1 0.80000000000000004
1 -4.4458548109446845 -84 -20.5 0 0 1 
1 -12.199999999999999 -84 -15 -1 0 0 
1 -12.199999999999999 -84 -20.25 1 0 0 
1 -12.199999999999999 -80 -15 1 0 0 
1 12.199999999999999 -94 -15 0 1 0 
1 -12.199999999999999 -84 -15 -1 0 0 
2 0 -86 -15 0 0 1 -1 0 0 0 -1 0 4.875
1 12.199999999999999 -80 -15 0 0 1 
1 -12.199999999999999 -80 0 1 0 0 
1 -12.199999999999999 -94 0 1 0 0 
8 0 14
1 12.199999999999999 -94 0 0 1 0 
2 -6 -86 0 0 0 1 1 0 0 0 1 0 1.4824999999999999
8 4.7123889803846897 6.2831853071795862
2 -2.0500000000000003 -108.67 -20.5 -0 0 1 0 -1 0 1 0 0 2
1 -4.0499999999999998 -110.67 -20.5 1 0 0 
8 4.7123889803846897 6.2831853071795862
2 2.0500000000000003 -108.67 -20.5 -0 -0 -1 0 -1 0 -1 0 0 2
1 4.0499999999999998 -110.67 -20.5 0 1 0 
8 1.5707963267948963 3.1415926535897936
2 2.0500000000000003 -103.33 -20.5 -0 0 1 0 -1 0 1 0 0 2
1 -4.0499999999999998 -101.33 -20.5 1 0 0 
8 1.5707963267948966 3.1415926535897931
2 -2.0500000000000003 -103.33 -20.5 -0 -0 -1 0 -1 0 -1 0 0 2
1 -4.0499999999999998 -110.67 -20.5 0 1 0 
2 6 -86 0 0 0 1 1 0 0 0 1 0 1.4824999999999999
1 12.199999999999999 -94 -20.5 0 0 1 
1 -12.199999999999999 -94 2.75 1 0 0 
1 -12.199999999999999 -106 2.75 1 0 0 
1 12.199999999999999 -106 2.75 0 1 0 
8 4.7123889803846897 6.2831853071795862
2 -2.0500000000000003 -108.67 -20.5 -0 0 1 0 -1 0 1 0 0 2
1 -4.0499999999999998 -110.67 -20.5 1 0 0 
8 4.7123889803846897 6.2831853071795862
2 2.0500000000000003 -108.67 -20.5 -0 -0 -1 0 -1 0 -1 0 0 2
1 4.0499999999999998 -110.67 -20.5 0 1 0 
8 1.5707963267948963 3.1415926535897936
2 2.0500000000000003 -103.33 -20.5 -0 0 1 0 -1 0 1 0 0 2
1 -4.0499999999999998 -101.33 -20.5 1 0 0 
8 1.5707963267948966 3.1415926535897931
2 -2.0500000000000003 -103.33 -20.5 -0 -0 -1 0 -1 0 -1 0 0 2
1 -4.0499999999999998 -110.67 -20.5 0 1 0 
1 -12.199999999999999 -106 -20.5 1 0 0 
1 12.199999999999999 -106 -20.5 0 0 1 
1 -12.199999999999999 -94 -20.5 1 0 0 
1 12.199999999999999 -106 -20.5 0 1 0 
2 0 106 20.5 0 0 -1 -1 0 0 0 1 0 2.6499999999999999
1 12.199999999999999 -94 -20.5 0 0 1 
1 -12.199999999999999 -94 -20.25 1 0 0 
2 0 -86 -20.25 0 0 1 -1 0 0 0 -1 0 4.875
2 0 -86 -20.25 0 0 1 -1 0 0 0 -1 0 4.875
1 -12.199999999999999 -84 -20.25 1 0 0 
1 12.199999999999999 -94 -20.25 0 1 0 
1 -12.199999999999999 -87.799999999999997 -17.25 1 0 -0 
2 -8.1999999999999993 -87 -17.25 -1 0 0 0 -1 0 0 0 1 0.80000000000000004
1 -12.199999999999999 -104.5 -17.25 1 0 -0 
2 -7.3999999999999995 -103 -17.25 -1 0 0 0 -1 0 0 0 1 1.5
1 -12.199999999999999 -97.799999999999997 -0.25 1 0 -0 
2 -8.1999999999999993 -97 -0.25 -1 0 0 0 -1 0 0 0 1 0.80000000000000004
1 4.4458548109446845 -84 -20.5 0 0 1 
1 -4.875 106 20.5 0 0 -1 
2 0 106 10 0 0 -1 -1 0 0 0 1 0 4.875
2 0 106 10 0 0 -1 -1 0 0 0 1 0 4.875
2 0 106 10 0 0 -1 -1 0 0 0 1 0 4.875
2 0 106 10 0 0 -1 -1 0 0 0 1 0 4.875
2 0 106 10 0 0 -1 -1 0 0 0 1 0 4.875
1 12.199999999999999 -84 -20.25 0 0 1 
2 12.199999999999999 -87 -17.25 1 0 0 0 1 0 0 0 1 0.80000000000000004
2 12.199999999999999 -103 -17.25 1 0 0 0 1 0 0 0 1 1.5
2 12.199999999999999 -97 -0.25 1 0 0 0 1 0 0 0 1 0.80000000000000004
1 -4.5175000000000001 -86 0 -0 -0 -1 
2 -6 -86 -10 0 0 1 1 0 0 0 1 0 1.4824999999999999
2 -6 -86 -10 0 0 1 1 0 0 0 1 0 1.4824999999999999
2 -6 -86 -10 0 0 1 1 0 0 0 1 0 1.4824999999999999
8 4.7123889803846897 6.2831853071795862
2 -2.0500000000000003 -108.67 -25.5 -0 0 1 0 -1 0 1 0 0 2
1 -4.0500000000000007 -108.67 -25.5 0 0 1 
1 -2.0500000000000003 -110.67 -25.5 0 0 1 
1 -4.0499999999999998 -110.67 -25.5 1 0 0 
1 2.0500000000000003 -110.67 -25.5 0 0 1 
8 4.7123889803846897 6.2831853071795862
2 2.0500000000000003 -108.67 -25.5 -0 -0 -1 0 -1 0 -1 0 0 2
1 4.0500000000000007 -108.67 -25.5 0 0 1 
1 4.0500000000000007 -103.33 -25.5 0 0 1 
1 4.0499999999999998 -110.67 -25.5 0 1 0 
8 1.5707963267948963 3.1415926535897936
2 2.0500000000000003 -103.33 -25.5 -0 0 1 0 -1 0 1 0 0 2
1 2.0500000000000003 -101.33 -25.5 0 0 1 
1 -4.0499999999999998 -101.33 -25.5 1 0 0 
1 -2.0500000000000003 -101.33 -25.5 0 0 1 
8 1.5707963267948966 3.1415926535897931
2 -2.0500000000000003 -103.33 -25.5 -0 -0 -1 0 -1 0 -1 0 0 2
1 -4.0500000000000007 -103.33 -25.5 0 0 1 
1 -4.0499999999999998 -110.67 -25.5 0 1 0 
1 7.4824999999999999 -86 0 -0 -0 -1 
2 6 -86 -10 0 0 1 1 0 0 0 1 0 1.4824999999999999
2 6 -86 -10 0 0 1 1 0 0 0 1 0 1.4824999999999999
2 6 -86 -10 0 0 1 1 0 0 0 1 0 1.4824999999999999
8 4.7123889803846897 6.2831853071795862
2 -2.0500000000000003 -108.67 -25.5 -0 0 1 0 -1 0 1 0 0 2
1 -4.0500000000000007 -108.67 -25.5 0 0 1 
1 -2.0500000000000003 -110.67 -25.5 0 0 1 
1 -4.0499999999999998 -110.67 -25.5 1 0 0 
1 2.0500000000000003 -110.67 -25.5 0 0 1 
8 4.7123889803846897 6.2831853071795862
2 2.0500000000000003 -108.67 -25.5 -0 -0 -1 0 -1 0 -1 0 0 2
1 4.0500000000000007 -108.67 -25.5 0 0 1 
1 4.0500000000000007 -103.33 -25.5 0 0 1 
1 4.0499999999999998 -110.67 -25.5 0 1 0 
8 1.5707963267948963 3.1415926535897936
2 2.0500000000000003 -103.33 -25.5 -0 0 1 0 -1 0 1 0 0 2
1 2.0500000000000003 -101.33 -25.5 0 0 1 
1 -4.0499999999999998 -101.33 -25.5 1 0 0 
1 -2.0500000000000003 -101.33 -25.5 0 0 1 
8 1.5707963267948966 3.1415926535897931
2 -2.0500000000000003 -103.33 -25.5 -0 -0 -1 0 -1 0 -1 0 0 2
1 -4.0500000000000007 -103.33 -25.5 0 0 1 
1 -4.0499999999999998 -110.67 -25.5 0 1 0 
2 0 -100 -2.25 0 0 1 -1 0 0 0 -1 0 2.6499999999999999
1 -2.6499999999999999 106 20.5 0 0 -1 
2 0 106 10 0 0 -1 -1 0 0 0 1 0 2.75
1 12.199999999999999 -86.200000000000003 -17.25 -1 -0 0 
2 8.1999999999999993 -87 -17.25 1 0 0 0 1 0 0 0 1 0.80000000000000004
1 12.199999999999999 -101.5 -17.25 -1 -0 0 
2 7.3999999999999995 -103 -17.25 1 0 0 0 1 0 0 0 1 1.5
1 12.199999999999999 -96.200000000000003 -0.25 -1 -0 0 
2 8.1999999999999993 -97 -0.25 1 0 0 0 1 0 0 0 1 0.80000000000000004
2 0 -86 -5 0 0 1 -1 0 0 0 -1 0 2.75
1 -2.75 106 20.5 0 0 -1 
Polygon3D 0
PolygonOnTriangulations 0
Surfaces 51
1 -12.199999999999999 -94 -20.25 1 0 0 0 0 1 0 -1 0 
2 -12.199999999999999 -87 -17.25 -1 0 0 0 -1 0 0 0 1 0.80000000000000004
2 -12.199999999999999 -103 -17.25 -1 0 0 0 -1 0 0 0 1 1.5
2 -12.199999999999999 -97 -0.25 -1 0 0 0 -1 0 0 0 1 0.80000000000000004
1 -12.199999999999999 -84 -20.25 0 1 0 0 0 1 1 0 0 
2 0 106 20.5 0 0 -1 -1 0 0 0 1 0 4.875
1 -12.199999999999999 -94 -15 0 0 1 1 0 0 0 1 0 
1 -12.199999999999999 -80 -15 0 1 0 0 0 1 1 0 0 
1 -12.199999999999999 -94 0 0 0 1 1 0 0 0 1 0 
2 -6 -86 0 0 0 1 1 0 0 0 1 0 1.4824999999999999
2 -2.0500000000000003 -108.67 -25.5 0 0 1 -1 0 0 0 -1 0 2
2 2.0500000000000003 -108.67 -25.5 0 0 1 1 0 0 0 -1 0 2
2 2.0500000000000003 -103.33 -25.5 0 0 1 1 0 0 0 1 0 2
2 -2.0500000000000003 -103.33 -25.5 0 0 1 -1 0 0 0 1 0 2
2 6 -86 0 0 0 1 1 0 0 0 1 0 1.4824999999999999
1 -12.199999999999999 -94 -20.5 0 1 0 0 0 1 1 0 0 
1 -12.199999999999999 -106 2.75 0 0 1 1 0 0 0 1 0 
2 -2.0500000000000003 -108.67 -25.5 0 0 1 -1 0 0 0 -1 0 2
2 2.0500000000000003 -108.67 -25.5 0 0 1 1 0 0 0 -1 0 2
2 2.0500000000000003 -103.33 -25.5 0 0 1 1 0 0 0 1 0 2
2 -2.0500000000000003 -103.33 -25.5 0 0 1 -1 0 0 0 1 0 2
1 -12.199999999999999 -106 -20.5 0 1 0 0 0 1 1 0 0 
1 -12.199999999999999 -106 -20.5 0 0 1 1 0 0 0 1 0 
2 0 106 20.5 0 0 -1 -1 0 0 0 1 0 2.6499999999999999
1 -12.199999999999999 -94 -20.5 0 1 0 0 0 1 1 0 0 
1 -12.199999999999999 -94 -20.25 0 0 1 1 0 0 0 1 0 
1 12.199999999999999 -94 -20.25 1 0 0 0 0 1 0 -1 0 
2 12.199999999999999 -87 -17.25 1 0 0 0 1 0 0 0 1 0.80000000000000004
2 12.199999999999999 -103 -17.25 1 0 0 0 1 0 0 0 1 1.5
2 12.199999999999999 -97 -0.25 1 0 0 0 1 0 0 0 1 0.80000000000000004
1 -12.199999999999999 -84 -20.25 0 1 0 0 0 1 1 0 0 
1 -4.0499999999999998 -110.67 -25.5 1 0 0 0 0 1 0 -1 0 
1 -4.0499999999999998 -110.67 -25.5 0 1 0 0 0 1 1 0 0 
1 4.0499999999999998 -110.67 -25.5 1 0 0 0 0 1 0 -1 0 
1 -4.0499999999999998 -101.33 -25.5 0 1 0 0 0 1 1 0 0 
1 -4.0499999999999998 -110.67 -25.5 1 0 0 0 0 1 0 -1 0 
1 -4.0499999999999998 -110.67 -25.5 0 1 0 0 0 1 1 0 0 
1 4.0499999999999998 -110.67 -25.5 1 0 0 0 0 1 0 -1 0 
1 -4.0499999999999998 -101.33 -25.5 0 1 0 0 0 1 1 0 0 
1 -8.1999999999999993 -87 -17.25 -1 -0 -0 0 0 -1 0 -1 0 
1 -7.4000000000000012 -103 -17.25 -1 -5.25907270147341e-31 -2.1895288505075267e-46 5.25907270147341e-31 -1 0 -2.1895288505075267e-46 -1.1514891406792589e-76 1 
1 -8.1999999999999993 -97 -0.25 -1 -0 -0 0 0 -1 0 -1 0 
1 -6.0000000000000009 -86 -10 0 0 1 1 0 -0 -0 1 0 
1 0 106 10 0 0 -1 -1 0 0 0 1 0 
2 0 106 20.5 0 0 -1 -1 0 0 0 1 0 2.75
1 6.0000000000000009 -86 -10 0 0 1 1 0 -0 -0 1 0 
1 -4.0499999999999998 -110.67 -25.5 0 0 1 1 0 0 0 1 0 
1 -4.0499999999999998 -110.67 -25.5 0 0 1 1 0 0 0 1 0 
1 8.1999999999999993 -87 -17.25 1 0 0 -0 0 1 0 -1 0 
1 7.4000000000000012 -103 -17.25 1 -1.7530242338244704e-31 3.28429327576129e-47 1.7530242338244704e-31 1 0 -3.28429327576129e-47 5.7574457033962951e-78 1 
1 8.1999999999999993 -97 -0.25 1 0 0 -0 0 1 0 -1 0 
Triangulations 0

TShapes 325
Ve
1e-07
-12.2 -84 -20.25
0 0

0101101
*
Ve
1.5e-07
-12.2 -84 -15
0 0

0101101
*
Ed
 1e-07 1 1 0
1  1 0 0 5.25
0

0101000
+325 5 -324 5 *
Ve
1e-07
-12.2 -80 -15
0 0

0101101
*
Ed
 1e-07 1 1 0
1  2 0 10 14
0

0101000
+324 9 -322 9 *
Ve
1e-07
-12.2 -80 0
0 0

0101101
*
Ed
 1e-07 1 1 0
1  3 0 0 15
0

0101000
-320 9 +322 9 *
Ve
1e-07
-12.2 -94 0
0 0

0101101
*
Ed
 1e-07 1 1 0
1  4 0 0 14
0

0101000
+318 0 -320 0 *
Ve
1e-07
-12.2 -94 2.75
0 0

0101101
*
Ed
 1e-07 1 1 0
1  5 0 20.5 23.25
0

0101000
+318 13 -316 13 *
Ve
1e-07
-12.2 -106 2.75
0 0

0101101
*
Ed
 1e-07 1 1 0
1  6 0 0 12
0

0101000
-316 13 +314 13 *
Ve
1e-07
-12.2 -106 -20.5
0 0

0101101
*
Ed
 1e-07 1 1 0
1  7 0 0 23.25
0

0101000
-314 13 +312 13 *
Ve
1e-07
-12.2 -94 -20.5
0 0

0101101
*
Ed
 1e-07 1 1 0
1  8 0 0 12
0

0101000
-310 13 +312 13 *
Ve
1e-07
-12.2 -94 -20.25
0 0

0101101
*
Ed
 1e-07 1 1 0
1  9 0 0 0.25
0

0101000
+310 13 -308 13 *
Ed
 1e-07 1 1 0
1  10 0 0 10
0

0101000
-325 5 +308 5 *
Wi

0101100
+323 4 +321 8 +319 8 -317 0 +315 12 -313 12 -311 12 +309 12 +307 12 +306 4 
*
Ve
1e-07
-12.2 -87.8 -17.25
0 0

0101101
*
Ed
 1e-07 1 1 0
1  11 0 0 6.28318530717959
2  1 2 0 0 6.28318530717959
0

0101000
+304 0 -304 0 *
Wi

0101100
+303 0 *
Ve
1e-07
-12.2 -104.5 -17.25
0 0

0101101
*
Ed
 1e-07 1 1 0
1  12 0 0 6.28318530717959
2  2 3 0 0 6.28318530717959
0

0101000
+301 0 -301 0 *
Wi

0101100
+300 0 *
Ve
1e-07
-12.2 -97.8 -0.25
0 0

0101101
*
Ed
 1e-07 1 1 0
1  13 0 0 6.28318530717959
2  3 4 0 0 6.28318530717959
0

0101000
+298 0 -298 0 *
Wi

0101100
+297 0 *
Fa
0  1e-07 1 0

0101000
+305 0 +302 0 +299 0 +296 0 *
Ve
1.00000007944109e-07
-4.44585481094469 -84 -20.25
0 0

0101101
*
Ve
1.5e-07
-4.44585481094469 -84 -15
0 0

0101101
*
Ed
 1e-07 1 1 0
1  14 0 0.25 5.5
2  4 6 14 0.25 5.5
0

0101000
+294 0 -293 0 *
Ed
 1.5e-07 1 1 0
1  15 0 -7.75414518905531 0
0

0101000
+293 0 -324 0 *
Ed
 1e-07 1 1 0
1  16 0 0 7.75414518905531
0

0101000
+325 5 -294 5 *
Wi

0101100
-292 0 -291 0 +323 4 -290 4 *
Fa
0  1e-07 5 4

0101000
+289 0 *
Ve
1e-07
12.2 -80 -15
0 0

0101101
*
Ed
 1e-07 1 1 0
1  17 0 0 24.4
0

0101000
-287 9 +322 9 *
Ve
1.5e-07
12.2 -84 -15
0 0

0101101
*
Ed
 1e-07 1 1 0
1  18 0 10 14
0

0101000
+285 9 -287 9 *
Ve
1.5e-07
4.44585481094469 -84 -15
0 0

0101101
*
Ed
 1.5e-07 1 1 0
1  19 0 -24.4 -16.6458548109447
0

0101000
+285 0 -283 0 *
Ed
 1e-07 1 1 0
1  20 0 3.56432785878014 5.86045010198924
2  5 6 14 3.56432785878014 5.86045010198924
0

0101000
+283 0 -293 0 *
Wi

0101100
-321 8 -286 8 +284 8 -282 0 -281 0 -291 0 *
Fa
0  1e-07 7 8

0101000
+280 0 *
Ve
1e-07
12.2 -80 0
0 0

0101101
*
Ed
 1e-07 1 1 0
1  21 0 0 15
0

0101000
-278 9 +287 9 *
Ed
 1e-07 1 1 0
1  22 0 0 24.4
0

0101000
-278 9 +320 9 *
Wi

0101100
-286 0 -277 0 +276 0 +319 0 *
Fa
0  1e-07 8 0

0101000
+275 0 *
Ve
1e-07
12.2 -94 0
0 0

0101101
*
Ed
 1e-07 1 1 0
1  23 0 0 24.4
0

0101000
+318 9 -273 9 *
Ed
 1e-07 1 1 0
1  24 0 0 14
0

0101000
+273 0 -278 0 *
Wi

0101100
-317 0 +272 8 -276 8 +271 0 *
Ve
1e-07
-4.5175 -86 0
0 0

0101101
*
Ed
 1e-07 1 1 0
1  25 0 0 6.28318530717959
2  6 10 0 0 6.28318530717959
0

0101000
+269 0 -269 0 *
Wi

0101100
-268 0 *
Ve
1e-07
-4.05 -88.67 0
0 0

0101101
*
Ve
1e-07
-2.05 -90.67 0
0 0

0101101
*
Ed
 1e-07 1 1 0
1  26 0 4.71238898038469 6.28318530717959
2  7 11 0 4.71238898038469 6.28318530717959
0

0101000
+266 18 -265 18 *
Ve
1e-07
2.05 -90.67 0
0 0

0101101
*
Ed
 1e-07 1 1 0
1  27 0 2 6.1
0

0101000
+265 22 -263 22 *
Ve
1e-07
4.05 -88.67 0
0 0

0101101
*
Ed
 1e-07 1 1 0
1  28 0 4.71238898038469 6.28318530717959
2  8 12 0 4.71238898038469 6.28318530717959
0

0101000
+261 18 -263 18 *
Ve
1e-07
4.05 -83.33 0
0 0

0101101
*
Ed
 1e-07 1 1 0
1  29 0 2 7.34
0

0101000
+261 22 -259 22 *
Ve
1e-07
2.05 -81.33 0
0 0

0101101
*
Ed
 1e-07 1 1 0
1  30 0 1.5707963267949 3.14159265358979
2  9 13 0 1.5707963267949 3.14159265358979
0

0101000
+259 18 -257 18 *
Ve
1e-07
-2.05 -81.33 0
0 0

0101101
*
Ed
 1e-07 1 1 0
1  31 0 2 6.1
0

0101000
+255 22 -257 22 *
Ve
1e-07
-4.05 -83.33 0
0 0

0101101
*
Ed
 1e-07 1 1 0
1  32 0 1.5707963267949 3.14159265358979
2  10 14 0 1.5707963267949 3.14159265358979
0

0101000
+253 18 -255 18 *
Ed
 1e-07 1 1 0
1  33 0 2 7.34
0

0101000
+266 22 -253 22 *
Wi

0101100
-264 17 -262 21 +260 17 -258 21 -256 17 +254 21 +252 17 +251 21 *
Ve
1e-07
7.4825 -86 0
0 0

0101101
*
Ed
 1e-07 1 1 0
1  34 0 0 6.28318530717959
2  11 15 0 0 6.28318530717959
0

0101000
+249 0 -249 0 *
Wi

0101100
-248 0 *
Fa
0  1e-07 9 0

0101000
+270 0 +267 0 +250 0 +247 0 *
Ve
1e-07
12.2 -94 2.75
0 0

0101101
*
Ed
 1e-07 1 1 0
1  35 0 20.5 23.25
0

0101000
+273 13 -245 13 *
Ed
 1e-07 1 1 0
1  36 0 0 24.4
0

0101000
-245 13 +316 13 *
Wi

0101100
-244 12 +243 12 +315 12 -272 8 *
Fa
0  1e-07 16 12

0101000
+242 0 *
Ve
1e-07
12.2 -106 2.75
0 0

0101101
*
Ed
 1e-07 1 1 0
1  37 0 0 24.4
0

0101000
-240 13 +314 13 *
Ed
 1e-07 1 1 0
1  38 0 0 12
0

0101000
-245 13 +240 13 *
Wi

0101100
-313 12 -243 12 +239 12 +238 12 *
Ve
1e-07
-4.05 -102.67 2.75
0 0

0101101
*
Ve
1e-07
-2.05 -104.67 2.75
0 0

0101101
*
Ed
 1e-07 1 1 0
1  39 0 4.71238898038469 6.28318530717959
2  12 18 0 4.71238898038469 6.28318530717959
0

0101000
+236 26 -235 26 *
Ve
1e-07
2.05 -104.67 2.75
0 0

0101101
*
Ed
 1e-07 1 1 0
1  40 0 2 6.1
0

0101000
+235 30 -233 30 *
Ve
1e-07
4.05 -102.67 2.75
0 0

0101101
*
Ed
 1e-07 1 1 0
1  41 0 4.71238898038469 6.28318530717959
2  13 19 0 4.71238898038469 6.28318530717959
0

0101000
+231 26 -233 26 *
Ve
1e-07
4.05 -97.33 2.75
0 0

0101101
*
Ed
 1e-07 1 1 0
1  42 0 2 7.34
0

0101000
+231 30 -229 30 *
Ve
1e-07
2.05 -95.33 2.75
0 0

0101101
*
Ed
 1e-07 1 1 0
1  43 0 1.5707963267949 3.14159265358979
2  14 20 0 1.5707963267949 3.14159265358979
0

0101000
+229 26 -227 26 *
Ve
1e-07
-2.05 -95.33 2.75
0 0

0101101
*
Ed
 1e-07 1 1 0
1  44 0 2 6.1
0

0101000
+225 30 -227 30 *
Ve
1e-07
-4.05 -97.33 2.75
0 0

0101101
*
Ed
 1e-07 1 1 0
1  45 0 1.5707963267949 3.14159265358979
2  15 21 0 1.5707963267949 3.14159265358979
0

0101000
+223 26 -225 26 *
Ed
 1e-07 1 1 0
1  46 0 2 7.34
0

0101000
+236 30 -223 30 *
Wi

0101100
-234 25 -232 29 +230 25 -228 29 -226 25 +224 29 +222 25 +221 29 *
Fa
0  1e-07 17 12

0101000
+237 0 +220 0 *
Ve
1e-07
12.2 -106 -20.5
0 0

0101101
*
Ed
 1e-07 1 1 0
1  47 0 0 24.4
0

0101000
-218 13 +312 13 *
Ed
 1e-07 1 1 0
1  48 0 0 23.25
0

0101000
-240 13 +218 13 *
Wi

0101100
-217 0 -216 0 +239 0 +311 0 *
Fa
0  1e-07 22 0

0101000
+215 0 *
Ve
1e-07
12.2 -94 -20.5
0 0

0101101
*
Ed
 1e-07 1 1 0
1  49 0 0 24.4
0

0101000
-213 13 +310 13 *
Ed
 1e-07 1 1 0
1  50 0 0 12
0

0101000
-213 13 +218 13 *
Wi

0101100
-309 12 -212 12 +217 12 +211 12 *
Ve
1e-07
-2.65 -100 -20.5
0 0

0101101
*
Ed
 1e-07 1 1 0
1  51 0 0 6.28318530717959
2  16 24 0 0 6.28318530717959
0

0101000
+209 34 -209 34 *
Wi

0101100
-208 33 *
Fa
0  1e-07 23 12

0101000
+210 0 +207 0 *
Ve
1e-07
12.2 -94 -20.25
0 0

0101101
*
Ed
 1e-07 1 1 0
1  52 0 0 0.25
0

0101000
+213 13 -205 13 *
Ed
 1e-07 1 1 0
1  53 0 0 24.4
0

0101000
-205 5 +308 5 *
Wi

0101100
-204 12 +203 4 +307 12 -212 12 *
Fa
0  1e-07 25 12

0101000
+202 0 *
Ve
1e-07
-4.875 -86 -20.25
0 0

0101101
*
Ed
 1e-07 1 1 0
1  54 0 5.86045010198924 6.28318530717959
2  17 6 14 5.86045010198924 6.28318530717959
0

0101000
+294 0 -200 0 *
Ve
1.00000007105427e-07
4.44585481094469 -84 -20.25
0 0

0101101
*
Ed
 1e-07 1 1 0
1  55 0 0 3.56432785878014
2  18 6 14 0 3.56432785878014
0

0101000
+200 0 -198 0 *
Ve
1e-07
12.2 -84 -20.25
0 0

0101101
*
Ed
 1e-07 1 1 0
1  56 0 16.6458548109447 24.4
0

0101000
+198 5 -196 5 *
Ed
 1e-07 1 1 0
1  57 0 0 10
0

0101000
-196 5 +205 5 *
Wi

0101100
-290 4 -199 0 -197 0 -195 4 +194 4 +203 4 -306 4 *
Fa
0  1e-07 26 4

0101000
+193 0 *
Ve
1e-07
-8.2 -87.8 -17.25
0 0

0101101
*
Ed
 1e-07 1 1 0
1  58 0 0 4
3  19 20CN 2 0 0 4
0

0101000
+304 0 -191 0 *
Ed
 1e-07 1 1 0
1  59 0 0 6.28318530717959
2  21 2 0 0 6.28318530717959
0

0101000
+191 0 -191 0 *
Wi

0101100
+190 0 -190 0 -303 0 +189 0 *
Fa
0  1e-07 2 0

0101000
+188 0 *
Ve
1e-07
-7.4 -104.5 -17.25
0 0

0101101
*
Ed
 1e-07 1 1 0
1  60 0 0 4.8
3  22 23CN 3 0 0 4.8
0

0101000
+301 0 -186 0 *
Ed
 1e-07 1 1 0
1  61 0 0 6.28318530717959
2  24 3 0 0 6.28318530717959
0

0101000
+186 0 -186 0 *
Wi

0101100
+185 0 -185 0 -300 0 +184 0 *
Fa
0  1e-07 3 0

0101000
+183 0 *
Ve
1e-07
-8.2 -97.8 -0.25
0 0

0101101
*
Ed
 1e-07 1 1 0
1  62 0 0 4
3  25 26CN 4 0 0 4
0

0101000
+298 0 -181 0 *
Ed
 1e-07 1 1 0
1  63 0 0 6.28318530717959
2  27 4 0 0 6.28318530717959
0

0101000
+181 0 -181 0 *
Wi

0101100
+180 0 -180 0 -297 0 +179 0 *
Fa
0  1e-07 4 0

0101000
+178 0 *
Ed
 1e-07 1 1 0
1  64 0 0.25 5.5
2  28 6 14 0.25 5.5
0

0101000
+198 0 -283 0 *
Ve
1e-07
-4.875 -86 -10
0 0

0101101
*
Ed
 1e-07 1 1 0
1  65 0 0.25 10.5
3  29 30CN 6 0 0.25 10.5
0

0101000
+200 35 -175 35 *
Ve
1.0000006004408e-07
-4.79731822916665 -86.8668118643079 -10
0 0

0101101
*
Ed
 1e-07 1 1 0
1  66 0 0 0.178758061091532
2  31 6 0 0 0.178758061091532
0

0101000
+175 35 -173 35 *
Ve
1.00000036241598e-07
4.79731822916666 -86.866811864308 -10
0 0

0101101
*
Ed
 1e-07 1 1 0
1  67 0 0.178758061091532 2.96283459249825
2  31 6 0 0.178758061091532 2.96283459249825
0

0101000
+173 35 -171 35 *
Ve
1.00000034820672e-07
4.79731822916666 -85.133188135692 -10
0 0

0101101
*
Ed
 1e-07 1 1 0
1  68 0 2.96283459249825 3.32035071468134
2  31 6 0 2.96283459249825 3.32035071468134
0

0101000
+171 35 -169 35 *
Ve
1.00000065370173e-07
-4.79731822916665 -85.1331881356921 -10
0 0

0101101
*
Ed
 1e-07 1 1 0
1  69 0 3.32035071468134 6.10442724608806
2  31 6 0 3.32035071468134 6.10442724608806
0

0101000
+169 35 -167 35 *
Ed
 1e-07 1 1 0
1  70 0 6.10442724608806 6.28318530717959
2  31 6 0 6.10442724608806 6.28318530717959
0

0101000
+167 35 -175 35 *
Wi

0101100
+199 0 -292 0 +281 0 +176 0 +197 0 -174 14 -172 14 -170 14 -168 14 -166 14 
-165 14 +174 14 *
Fa
0  1e-07 6 14

0101000
+164 0 *
Ed
 1e-07 1 1 0
1  71 0 0 5.25
0

0101000
+196 5 -285 5 *
Wi

0101100
+162 4 +284 8 +277 8 -271 0 +244 12 -238 12 -216 12 +211 12 +204 12 +194 4 
*
Ve
1e-07
12.2 -86.2 -17.25
0 0

0101101
*
Ed
 1e-07 1 1 0
1  72 0 0 6.28318530717959
2  32 28 0 0 6.28318530717959
0

0101000
+160 0 -160 0 *
Wi

0101100
-159 0 *
Ve
1e-07
12.2 -101.5 -17.25
0 0

0101101
*
Ed
 1e-07 1 1 0
1  73 0 0 6.28318530717959
2  33 29 0 0 6.28318530717959
0

0101000
+157 0 -157 0 *
Wi

0101100
-156 0 *
Ve
1e-07
12.2 -96.2 -0.25
0 0

0101101
*
Ed
 1e-07 1 1 0
1  74 0 0 6.28318530717959
2  34 30 0 0 6.28318530717959
0

0101000
+154 0 -154 0 *
Wi

0101100
-153 0 *
Fa
0  1e-07 27 0

0101000
+161 0 +158 0 +155 0 +152 0 *
Wi

0101100
-162 4 -282 0 +176 0 -195 4 *
Fa
0  1e-07 31 4

0101000
+150 0 *
Ve
1e-07
-4.5175 -86 -10
0 0

0101101
*
Ed
 1e-07 1 1 0
1  75 0 0 10
3  35 36CN 10 0 0 10
0

0101000
+269 0 -148 0 *
Ed
 1e-07 1 1 0
1  76 0 5.65867999241158 6.28318530717959
2  37 10 0 5.65867999241158 6.28318530717959
0

0101000
+173 0 -148 0 *
Ed
 1e-07 1 1 0
1  77 0 0.624505314768005 5.65867999241158
2  37 10 0 0.624505314768005 5.65867999241158
0

0101000
+167 0 -173 0 *
Ed
 1e-07 1 1 0
1  78 0 0 0.624505314768005
2  37 10 0 0 0.624505314768005
0

0101000
+148 0 -167 0 *
Wi

0101100
-268 0 -147 0 +146 0 +145 0 +144 0 +147 0 *
Fa
0  1e-07 10 0

0101000
+143 0 *
Ve
1e-07
-4.05 -88.67 -5
0 0

0101101
*
Ve
1e-07
-2.05 -90.67 -5
0 0

0101101
*
Ed
 1e-07 1 1 0
1  79 0 4.71238898038469 6.28318530717959
2  38 11 0 4.71238898038469 6.28318530717959
0

0101000
+141 18 -140 18 *
Ed
 1e-07 1 1 0
1  80 0 0 5
2  39 11 0 0 5
4 G1 11 0 32 36
0

0101000
+141 18 -266 18 *
Ed
 1e-07 1 1 0
1  81 0 0 5
2  40 11 0 0 5
4 G1 11 0 33 36
0

0101000
+140 18 -265 18 *
Wi

0101100
+139 0 -138 0 +137 0 -264 0 *
Fa
0  1e-07 11 0

0101000
+136 0 *
Ve
1e-07
2.05 -90.67 -5
0 0

0101101
*
Ed
 1e-07 1 1 0
1  82 0 2 6.1
0

0101000
+140 22 -134 22 *
Ed
 1e-07 1 1 0
1  83 0 0 5
2  41 12 0 0 5
4 G1 33 36 12 0
0

0101000
+134 18 -263 18 *
Wi

0101100
-133 36 +137 0 -132 0 +262 36 *
Fa
0  1e-07 33 0

0101000
+131 37 *
Ve
1e-07
4.05 -88.67 -5
0 0

0101101
*
Ed
 1e-07 1 1 0
1  84 0 4.71238898038469 6.28318530717959
2  42 12 0 4.71238898038469 6.28318530717959
0

0101000
+129 18 -134 18 *
Ed
 1e-07 1 1 0
1  85 0 0 5
2  43 12 0 0 5
4 G1 12 0 34 36
0

0101000
+129 18 -261 18 *
Wi

0101100
+128 0 -127 0 +132 0 -260 0 *
Fa
0  1e-07 12 0

0101000
+126 0 *
Ve
1e-07
4.05 -83.33 -5
0 0

0101101
*
Ed
 1e-07 1 1 0
1  86 0 0 5
2  44 13 0 0 5
4 G1 34 36 13 0
0

0101000
+124 18 -259 18 *
Ed
 1e-07 1 1 0
1  87 0 2 7.34
0

0101000
+129 22 -124 22 *
Wi

0101100
-258 36 -127 0 +123 0 +122 36 *
Fa
0  1e-07 34 0

0101000
+121 37 *
Ve
1e-07
2.05 -81.33 -5
0 0

0101101
*
Ed
 1e-07 1 1 0
1  88 0 1.5707963267949 3.14159265358979
2  45 13 0 1.5707963267949 3.14159265358979
0

0101000
+124 18 -119 18 *
Ed
 1e-07 1 1 0
1  89 0 0 5
2  46 13 0 0 5
4 G1 13 0 35 36
0

0101000
+119 18 -257 18 *
Wi

0101100
+118 0 -123 0 +117 0 -256 0 *
Fa
0  1e-07 13 0

0101000
+116 0 *
Ve
1e-07
-2.05 -81.33 -5
0 0

0101101
*
Ed
 1e-07 1 1 0
1  90 0 2 6.1
0

0101000
+114 22 -119 22 *
Ed
 1e-07 1 1 0
1  91 0 0 5
2  47 14 0 0 5
4 G1 35 36 14 0
0

0101000
+114 18 -255 18 *
Wi

0101100
-113 36 +112 0 -117 0 +254 36 *
Fa
0  1e-07 35 0

0101000
+111 37 *
Ve
1e-07
-4.05 -83.33 -5
0 0

0101101
*
Ed
 1e-07 1 1 0
1  92 0 1.5707963267949 3.14159265358979
2  48 14 0 1.5707963267949 3.14159265358979
0

0101000
+109 18 -114 18 *
Ed
 1e-07 1 1 0
1  93 0 0 5
2  49 14 0 0 5
4 G1 14 0 32 36
0

0101000
+109 18 -253 18 *
Wi

0101100
+108 0 -107 0 +112 0 -252 0 *
Fa
0  1e-07 14 0

0101000
+106 0 *
Ed
 1e-07 1 1 0
1  94 0 2 7.34
0

0101000
+141 22 -109 22 *
Wi

0101100
-251 36 -138 0 +107 0 +104 36 *
Fa
0  1e-07 32 0

0101000
+103 37 *
Ve
1e-07
7.4825 -86 -10
0 0

0101101
*
Ed
 1e-07 1 1 0
1  95 0 0 10
3  50 51CN 15 0 0 10
0

0101000
+249 0 -101 0 *
Ed
 1e-07 1 1 0
1  96 0 3.76609796835783 6.28318530717959
2  52 15 0 3.76609796835783 6.28318530717959
0

0101000
+171 0 -101 0 *
Ed
 1e-07 1 1 0
1  97 0 2.51708733882175 3.76609796835783
2  52 15 0 2.51708733882175 3.76609796835783
0

0101000
+169 0 -171 0 *
Ed
 1e-07 1 1 0
1  98 0 0 2.51708733882175
2  52 15 0 0 2.51708733882175
0

0101000
+101 0 -169 0 *
Wi

0101100
-248 0 -100 0 +99 0 +98 0 +97 0 +100 0 *
Fa
0  1e-07 15 0

0101000
+96 0 *
Ve
1e-07
-4.05 -102.67 -2.25
0 0

0101101
*
Ve
1e-07
-2.05 -104.67 -2.25
0 0

0101101
*
Ed
 1e-07 1 1 0
1  99 0 4.71238898038469 6.28318530717959
2  53 18 0 4.71238898038469 6.28318530717959
0

0101000
+94 26 -93 26 *
Ed
 1e-07 1 1 0
1  100 0 0 5
2  54 18 0 0 5
4 G1 18 0 36 38
0

0101000
+94 26 -236 26 *
Ed
 1e-07 1 1 0
1  101 0 0 5
2  55 18 0 0 5
4 G1 18 0 37 38
0

0101000
+93 26 -235 26 *
Wi

0101100
+92 0 -91 0 +90 0 -234 0 *
Fa
0  1e-07 18 0

0101000
+89 0 *
Ve
1e-07
2.05 -104.67 -2.25
0 0

0101101
*
Ed
 1e-07 1 1 0
1  102 0 2 6.1
0

0101000
+93 30 -87 30 *
Ed
 1e-07 1 1 0
1  103 0 0 5
2  56 19 0 0 5
4 G1 37 38 19 0
0

0101000
+87 26 -233 26 *
Wi

0101100
-86 38 +90 0 -85 0 +232 38 *
Fa
0  1e-07 37 0

0101000
+84 39 *
Ve
1e-07
4.05 -102.67 -2.25
0 0

0101101
*
Ed
 1e-07 1 1 0
1  104 0 4.71238898038469 6.28318530717959
2  57 19 0 4.71238898038469 6.28318530717959
0

0101000
+82 26 -87 26 *
Ed
 1e-07 1 1 0
1  105 0 0 5
2  58 19 0 0 5
4 G1 19 0 38 38
0

0101000
+82 26 -231 26 *
Wi

0101100
+81 0 -80 0 +85 0 -230 0 *
Fa
0  1e-07 19 0

0101000
+79 0 *
Ve
1e-07
4.05 -97.33 -2.25
0 0

0101101
*
Ed
 1e-07 1 1 0
1  106 0 0 5
2  59 20 0 0 5
4 G1 38 38 20 0
0

0101000
+77 26 -229 26 *
Ed
 1e-07 1 1 0
1  107 0 2 7.34
0

0101000
+82 30 -77 30 *
Wi

0101100
-228 38 -80 0 +76 0 +75 38 *
Fa
0  1e-07 38 0

0101000
+74 39 *
Ve
1e-07
2.05 -95.33 -2.25
0 0

0101101
*
Ed
 1e-07 1 1 0
1  108 0 1.5707963267949 3.14159265358979
2  60 20 0 1.5707963267949 3.14159265358979
0

0101000
+77 26 -72 26 *
Ed
 1e-07 1 1 0
1  109 0 0 5
2  61 20 0 0 5
4 G1 20 0 39 38
0

0101000
+72 26 -227 26 *
Wi

0101100
+71 0 -76 0 +70 0 -226 0 *
Fa
0  1e-07 20 0

0101000
+69 0 *
Ve
1e-07
-2.05 -95.33 -2.25
0 0

0101101
*
Ed
 1e-07 1 1 0
1  110 0 2 6.1
0

0101000
+67 30 -72 30 *
Ed
 1e-07 1 1 0
1  111 0 0 5
2  62 21 0 0 5
4 G1 39 38 21 0
0

0101000
+67 26 -225 26 *
Wi

0101100
-66 38 +65 0 -70 0 +224 38 *
Fa
0  1e-07 39 0

0101000
+64 39 *
Ve
1e-07
-4.05 -97.33 -2.25
0 0

0101101
*
Ed
 1e-07 1 1 0
1  112 0 1.5707963267949 3.14159265358979
2  63 21 0 1.5707963267949 3.14159265358979
0

0101000
+62 26 -67 26 *
Ed
 1e-07 1 1 0
1  113 0 0 5
2  64 21 0 0 5
4 G1 21 0 36 38
0

0101000
+62 26 -223 26 *
Wi

0101100
+61 0 -60 0 +65 0 -222 0 *
Fa
0  1e-07 21 0

0101000
+59 0 *
Ed
 1e-07 1 1 0
1  114 0 2 7.34
0

0101000
+94 30 -62 30 *
Wi

0101100
-221 38 -91 0 +60 0 +57 38 *
Fa
0  1e-07 36 0

0101000
+56 39 *
Ve
1.00000000888178e-07
-2.65 -100 -2.25
0 0

0101101
*
Ed
 1e-07 1 1 0
1  115 0 0 6.28318530717959
2  65 24 33 0 6.28318530717959
0

0101000
+54 0 -54 0 *
Ed
 1e-07 1 1 0
1  116 0 0 18.25
3  66 67CN 24 0 0 18.25
0

0101000
+209 34 -54 34 *
Wi

0101100
-53 0 +52 33 +208 33 -52 33 *
Fa
0  1e-07 24 33

0101000
+51 0 *
Wi

0101100
+189 0 *
Fa
0  1e-07 40 0

0101000
+49 0 *
Wi

0101100
+184 0 *
Fa
0  1e-07 41 0

0101000
+47 0 *
Wi

0101100
+179 0 *
Fa
0  1e-07 42 0

0101000
+45 0 *
Wi

0101100
-165 14 -172 14 +145 0 *
Fa
0  1e-07 43 0

0101000
+43 0 *
Wi

0101100
-146 0 -144 0 +166 14 -98 0 +170 14 *
Ve
1.00000000673556e-07
-2.75 -86 -10
0 0

0101101
*
Ed
 1e-07 1 1 0
1  117 0 0 6.28318530717959
2  68 45 0 0 6.28318530717959
0

0101000
+40 35 -40 35 *
Wi

0101100
-39 14 *
Fa
0  1e-07 44 14

0101000
+41 0 +38 0 *
Wi

0101100
+99 0 -168 14 +97 0 *
Fa
0  1e-07 46 0

0101000
+36 0 *
Ve
1e-07
8.2 -86.2 -17.25
0 0

0101101
*
Ed
 1e-07 1 1 0
1  118 0 0 4
3  69 70CN 28 0 0 4
0

0101000
+160 0 -34 0 *
Ed
 1e-07 1 1 0
1  119 0 0 6.28318530717959
2  71 28 0 0 6.28318530717959
0

0101000
+34 0 -34 0 *
Wi

0101100
+33 0 -33 0 -159 0 +32 0 *
Fa
0  1e-07 28 0

0101000
+31 0 *
Ve
1e-07
7.4 -101.5 -17.25
0 0

0101101
*
Ed
 1e-07 1 1 0
1  120 0 0 4.8
3  72 73CN 29 0 0 4.8
0

0101000
+157 0 -29 0 *
Ed
 1e-07 1 1 0
1  121 0 0 6.28318530717959
2  74 29 0 0 6.28318530717959
0

0101000
+29 0 -29 0 *
Wi

0101100
+28 0 -28 0 -156 0 +27 0 *
Fa
0  1e-07 29 0

0101000
+26 0 *
Ve
1e-07
8.2 -96.2 -0.25
0 0

0101101
*
Ed
 1e-07 1 1 0
1  122 0 0 4
3  75 76CN 30 0 0 4
0

0101000
+154 0 -24 0 *
Ed
 1e-07 1 1 0
1  123 0 0 6.28318530717959
2  77 30 0 0 6.28318530717959
0

0101000
+24 0 -24 0 *
Wi

0101100
+23 0 -23 0 -153 0 +22 0 *
Fa
0  1e-07 30 0

0101000
+21 0 *
Wi

0101100
-104 21 +139 17 -108 17 +133 21 -113 21 -128 17 +118 17 +122 21 *
Ve
1e-07
-2.75 -86 -5
0 0

0101101
*
Ed
 1e-07 1 1 0
1  124 0 0 6.28318530717959
2  78 45 14 0 6.28318530717959
0

0101000
+18 0 -18 0 *
Wi

0101100
-17 0 *
Fa
0  1e-07 47 21

0101000
+19 0 +16 0 *
Wi

0101100
-57 29 +92 25 -61 25 +86 29 -66 29 -81 25 +71 25 +75 29 *
Wi

0101100
-53 0 *
Fa
0  1e-07 48 29

0101000
+14 0 +13 0 *
Ed
 1e-07 1 1 0
1  125 0 10.5 15.5
3  79 80CN 45 0 10.5 15.5
0

0101000
+40 35 -18 35 *
Wi

0101100
-11 14 -17 0 +11 14 +39 14 *
Fa
0  1e-07 45 14

0101000
+10 0 *
Wi

0101100
+32 0 *
Fa
0  1e-07 49 0

0101000
+8 0 *
Wi

0101100
+27 0 *
Fa
0  1e-07 50 0

0101000
+6 0 *
Wi

0101100
+22 0 *
Fa
0  1e-07 51 0

0101000
+4 0 *
Sh

0101100
-295 0 +288 0 -279 0 +274 8 +246 0 +241 0 +219 0 -214 12 -206 0 +201 0 
-192 0 -187 0 -182 0 -177 0 -163 0 +151 0 +149 0 -142 0 -135 17 +130 21 
+125 17 -120 21 -115 17 -110 21 +105 17 +102 21 -95 0 -88 25 +83 29 +78 25 
-73 29 -68 25 -63 29 +58 25 +55 29 -50 0 +48 0 +46 0 +44 0 +42 0 
-37 0 +35 0 -30 0 -25 0 -20 0 +15 0 +12 0 -9 0 +7 0 +5 0 
+3 0 *
So

0100000
+2 0 *

+1 1 