DBRep_DrawableShape

CASCADE Topology V1, (c) Matra-Datavision
Locations 2
1
              1              -0               0               0 
              0               1               0             -60 
             -0               0               1              -0 
2  1 -1 0
Curve2ds 0
Curves 12
1 -15 -15 2.7999999999999998 0 0 1 
1 15 -15 2.7999999999999998 0 0 1 
1 -15 -15 2.7999999999999998 1 0 0 
1 -15 -15 3.8999999999999999 1 0 0 
1 15 15 2.7999999999999998 0 0 1 
1 15 -15 2.7999999999999998 0 1 0 
1 15 -15 3.8999999999999999 0 1 0 
1 -15 15 2.7999999999999998 0 0 1 
1 15 15 2.7999999999999998 -1 0 0 
1 15 15 3.8999999999999999 -1 0 0 
1 -15 15 2.7999999999999998 0 -1 0 
1 -15 15 3.8999999999999999 0 -1 0 
Polygon3D 0
PolygonOnTriangulations 0
Surfaces 6
1 -15 -15 2.7999999999999998 0 1 0 1 0 0 0 0 -1 
1 15 -15 2.7999999999999998 -1 0 0 0 1 0 0 0 -1 
1 15 15 2.7999999999999998 0 -1 0 -1 0 0 -0 -0 -1 
1 -15 15 2.7999999999999998 1 0 0 0 -1 0 0 0 -1 
1 0 0 2.7999999999999998 0 0 1 1 0 0 0 1 0 
1 0 0 3.8999999999999999 0 0 1 1 0 0 0 1 0 
Triangulations 0

TShapes 34
Ve
1e-07
-15 -75 2.8
0 0

0101101
*
Ve
1e-07
-15 -75 3.9
0 0

0101101
*
Ed
 1e-07 1 1 0
1  1 0 0 1.1
0

0101000
+34 2 -33 2 *
Ve
1e-07
15 -75 2.8
0 0

0101101
*
Ve
1e-07
15 -75 3.9
0 0

0101101
*
Ed
 1e-07 1 1 0
1  2 0 0 1.1
0

0101000
+31 2 -30 2 *
Ed
 1e-07 1 1 0
1  3 0 0 30
0

0101000
+34 2 -31 2 *
Ed
 1e-07 1 1 0
1  4 0 0 30
0

0101000
+33 2 -30 2 *
Wi

0101100
+32 0 -29 0 -28 0 +27 0 *
Fa
0  1e-07 1 0

0101000
+26 0 *
Ve
1e-07
15 -45 2.8
0 0

0101101
*
Ve
1e-07
15 -45 3.9
0 0

0101101
*
Ed
 1e-07 1 1 0
1  5 0 0 1.1
0

0101000
+24 2 -23 2 *
Ed
 1e-07 1 1 0
1  6 0 0 30
0

0101000
+31 2 -24 2 *
Ed
 1e-07 1 1 0
1  7 0 0 30
0

0101000
+30 2 -23 2 *
Wi

0101100
+29 0 -22 0 -21 0 +20 0 *
Fa
0  1e-07 2 0

0101000
+19 0 *
Ve
1e-07
-15 -45 2.8
0 0

0101101
*
Ve
1e-07
-15 -45 3.9
0 0

0101101
*
Ed
 1e-07 1 1 0
1  8 0 0 1.1
0

0101000
+17 2 -16 2 *
Ed
 1e-07 1 1 0
1  9 0 0 30
0

0101000
+24 2 -17 2 *
Ed
 1e-07 1 1 0
1  10 0 0 30
0

0101000
+23 2 -16 2 *
Wi

0101100
+22 0 -15 0 -14 0 +13 0 *
Fa
0  1e-07 3 0

0101000
+12 0 *
Ed
 1e-07 1 1 0
1  11 0 0 30
0

0101000
+17 2 -34 2 *
Ed
 1e-07 1 1 0
1  12 0 0 30
0

0101000
+16 2 -33 2 *
Wi

0101100
+15 0 -32 0 -10 0 +9 0 *
Fa
0  1e-07 4 0

0101000
+8 0 *
Wi

0101100
+28 0 +21 0 +14 0 +10 0 *
Fa
0  1e-07 5 0

0101000
+6 0 *
Wi

0101100
+27 0 +20 0 +13 0 +9 0 *
Fa
0  1e-07 6 0

0101000
+4 0 *
Sh

0101100
+25 0 +18 0 +11 0 +7 0 +5 0 -3 0 *
So

0100000
-2 0 *

+1 1 