DBRep_DrawableShape

CASCADE Topology V1, (c) Matra-Datavision
Locations 45
1
              1              -0               0             -60 
              0               1               0              -0 
             -0               0               1               0 
2  1 -1 0
1
              1              -0               0              -0 
              0               1               0               0 
             -0               0               1              -0 
1
              1              -0               0              -9 
              0               1               0             -82 
             -0               0               1              -0 
2  3 1 4 1 3 -1 0
2  1 -1 3 1 4 -1 3 -1 0
1
              1              -0               0              -9 
              0               1               0             -45 
             -0               0               1              -0 
2  3 1 7 1 3 -1 0
2  1 -1 3 1 7 -1 3 -1 0
1
              1              -0               0              -9 
              0               1               0             -15 
             -0               0               1              -0 
2  3 1 10 1 3 -1 0
2  1 -1 3 1 10 -1 3 -1 0
1
              1              -0               0               9 
              0               1               0             -82 
             -0               0               1              -0 
2  3 1 13 1 3 -1 0
2  1 -1 3 1 13 -1 3 -1 0
1
              1              -0               0               9 
              0               1               0             -45 
             -0               0               1              -0 
2  3 1 16 1 3 -1 0
2  1 -1 3 1 16 -1 3 -1 0
1
              1              -0               0               9 
              0               1               0             -15 
             -0               0               1              -0 
2  3 1 19 1 3 -1 0
2  1 -1 3 1 19 -1 3 -1 0
1
              1              -0               0              -9 
              0               1               0              15 
             -0               0               1               0 
2  3 1 22 1 3 -1 0
2  1 -1 3 1 22 -1 3 -1 0
1
              1              -0               0              -9 
              0               1               0              45 
             -0               0               1               0 
2  3 1 25 1 3 -1 0
2  1 -1 3 1 25 -1 3 -1 0
1
              1              -0               0              -9 
              0               1               0              75 
             -0               0               1               0 
2  3 1 28 1 3 -1 0
2  1 -1 3 1 28 -1 3 -1 0
1
              1              -0               0              -9 
              0               1               0              82 
             -0               0               1               0 
2  3 1 31 1 3 -1 0
2  1 -1 3 1 31 -1 3 -1 0
1
              1              -0               0               9 
              0               1               0              15 
             -0               0               1              -0 
2  3 1 34 1 3 -1 0
2  1 -1 3 1 34 -1 3 -1 0
1
              1              -0               0               9 
              0               1               0              45 
             -0               0               1              -0 
2  3 1 37 1 3 -1 0
2  1 -1 3 1 37 -1 3 -1 0
1
              1              -0               0               9 
              0               1               0              75 
             -0               0               1              -0 
2  3 1 40 1 3 -1 0
2  1 -1 3 1 40 -1 3 -1 0
1
              1              -0               0               9 
              0               1               0              82 
             -0               0               1              -0 
2  3 1 43 1 3 -1 0
2  1 -1 3 1 43 -1 3 -1 0
Curve2ds 124
1 0 0 1 0 
1 0 0 1 0 
1 0 0 1 0 
1 0 0 1 0 
1 0 0 1 0 
1 0 0 1 0 
1 0 0 1 0 
1 0 0 1 0 
1 0 0 1 0 
1 0 0 1 0 
1 0 0 1 0 
1 0 0 1 0 
1 0 0 1 0 
1 0 0 1 0 
1 0 0 1 0 
1 0 0 1 0 
1 0 0 1 0 
1 0 0 1 0 
1 0 0 1 0 
1 0 0 1 0 
1 0 0 1 0 
1 0 0 1 0 
1 0 0 1 0 
1 0 0 1 0 
1 0 0 1 0 
1 0 0 1 0 
1 0 0 1 0 
1 0 0 1 0 
1 0 0 1 0 
1 0 0 1 0 
1 0 0 1 0 
1 0 -1.6000000000000001 1 0 
1 0 -1.6000000000000001 1 0 
1 0 -1.6000000000000001 1 0 
1 0 -1.6000000000000001 1 0 
1 0 -1.6000000000000001 1 0 
1 0 -1.6000000000000001 1 0 
1 0 -1.6000000000000001 1 0 
1 0 -1.6000000000000001 1 0 
1 0 -1.6000000000000001 1 0 
1 0 -1.6000000000000001 1 0 
1 0 -1.6000000000000001 1 0 
1 0 -1.6000000000000001 1 0 
1 0 -1.6000000000000001 1 0 
1 0 -1.6000000000000001 1 0 
1 0 -1.6000000000000001 1 0 
1 0 -1.6000000000000001 1 0 
1 0 -1.6000000000000001 1 0 
1 0 -1.6000000000000001 1 0 
1 0 -1.6000000000000001 1 0 
1 0 -1.6000000000000001 1 0 
1 0 -1.6000000000000001 1 0 
1 0 -1.6000000000000001 1 0 
1 0 -1.6000000000000001 1 0 
1 0 -1.6000000000000001 1 0 
1 0 -1.6000000000000001 1 0 
1 0 -1.6000000000000001 1 0 
1 0 -1.6000000000000001 1 0 
1 0 -1.6000000000000001 1 0 
1 0 -1.6000000000000001 1 0 
1 0 -1.6000000000000001 1 0 
1 0 -1.6000000000000001 1 0 
1 0 0 0 -1 
1 6.2831853071795862 0 0 -1 
1 0 0 0 -1 
1 6.2831853071795862 0 0 -1 
1 0 0 0 -1 
1 6.2831853071795862 0 0 -1 
1 0 0 0 -1 
1 6.2831853071795862 0 0 -1 
1 0 0 0 -1 
1 6.2831853071795862 0 0 -1 
1 0 0 0 -1 
1 6.2831853071795862 0 0 -1 
1 0 0 0 -1 
1 6.2831853071795862 0 0 -1 
1 0 0 0 -1 
1 6.2831853071795862 0 0 -1 
1 0 0 0 -1 
1 6.2831853071795862 0 0 -1 
1 0 0 0 -1 
1 6.2831853071795862 0 0 -1 
1 0 0 0 -1 
1 6.2831853071795862 0 0 -1 
1 0 0 0 -1 
1 6.2831853071795862 0 0 -1 
1 0 0 0 -1 
1 6.2831853071795862 0 0 -1 
1 0 0 0 -1 
1 6.2831853071795862 0 0 -1 
1 0 0 0 -1 
1 6.2831853071795862 0 0 -1 
1 0 0 0 -1 
1 6.2831853071795862 0 0 -1 
1 0 0 0 -1 
1 6.2831853071795862 0 0 -1 
1 0 0 0 -1 
1 6.2831853071795862 0 0 -1 
1 0 0 0 -1 
1 6.2831853071795862 0 0 -1 
1 0 0 0 -1 
1 6.2831853071795862 0 0 -1 
1 0 0 0 -1 
1 6.2831853071795862 0 0 -1 
1 0 0 0 -1 
1 6.2831853071795862 0 0 -1 
1 0 0 0 -1 
1 6.2831853071795862 0 0 -1 
1 0 0 0 -1 
1 6.2831853071795862 0 0 -1 
1 0 0 0 -1 
1 6.2831853071795862 0 0 -1 
1 0 0 0 -1 
1 6.2831853071795862 0 0 -1 
1 0 0 0 -1 
1 6.2831853071795862 0 0 -1 
1 0 0 0 -1 
1 6.2831853071795862 0 0 -1 
1 0 0 0 -1 
1 6.2831853071795862 0 0 -1 
1 0 0 0 -1 
1 6.2831853071795862 0 0 -1 
1 0 0 0 -1 
1 6.2831853071795862 0 0 -1 
Curves 204
1 -14.799999999999999 92 14 0 0 1 
1 14.799999999999999 92 14 0 0 1 
8 0 168
1 -84 92 14 1 0 0 
8 0 168
1 -84 92 15.6 1 0 0 
1 -14.799999999999999 -92 14 0 0 1 
1 -14.800000000000001 -188 14 0 1 0 
1 -14.800000000000001 -188 15.6 0 1 0 
1 14.799999999999999 -92 14 0 0 1 
1 14.800000000000001 -188 14 0 1 0 
1 14.800000000000001 -188 15.6 0 1 0 
8 0 168
1 84 -92 14 -1 0 0 
2 -13.199999999999999 -91 14 0 0 1 1 0 0 0 1 0 0.40639999999999998
2 -13.199999999999999 -89 14 0 0 1 1 0 0 0 1 0 0.40639999999999998
2 -13.199999999999999 -87 14 0 0 1 1 0 0 0 1 0 0.40639999999999998
2 -13.199999999999999 -85 14 0 0 1 1 0 0 0 1 0 0.40639999999999998
2 -13.199999999999999 -83 14 0 0 1 1 0 0 0 1 0 0.40639999999999998
2 -13.199999999999999 -81 14 0 0 1 1 0 0 0 1 0 0.40639999999999998
2 0 0 14 0 0 1 1 0 0 0 1 0 1.125
2 -6.5 -86 14 0 0 1 1 0 0 0 1 0 1.575
2 0 0 14 0 0 1 1 0 0 0 1 0 1.125
2 0 0 14 0 0 1 1 0 0 0 1 0 1.125
2 0 -86 14 0 0 1 1 0 0 0 1 0 2.8999999999999999
2 6.5 -86 14 0 0 1 1 0 0 0 1 0 1.575
1 13 -36.5 14 0 -1 0 
1 6.5 -47 14 1 0 0 
1 -6.5 -73 14 -1 0 0 
1 -13 -23.5 14 0 1 0 
2 0 0 14 0 0 1 1 0 0 0 1 0 1.125
2 13.199999999999999 -91 14 0 0 1 1 0 0 0 1 0 0.40639999999999998
2 13.199999999999999 -89 14 0 0 1 1 0 0 0 1 0 0.40639999999999998
2 13.199999999999999 -87 14 0 0 1 1 0 0 0 1 0 0.40639999999999998
2 13.199999999999999 -85 14 0 0 1 1 0 0 0 1 0 0.40639999999999998
2 13.199999999999999 -83 14 0 0 1 1 0 0 0 1 0 0.40639999999999998
2 13.199999999999999 -81 14 0 0 1 1 0 0 0 1 0 0.40639999999999998
1 13 -21.5 14 0 -1 0 
1 6.5 -17 14 1 0 0 
1 -6.5 -43 14 -1 0 0 
1 -13 -8.5 14 0 1 0 
2 0 0 14 0 0 1 1 0 0 0 1 0 1.125
2 0 0 14 0 0 1 1 0 0 0 1 0 1.125
2 0 0 14 0 0 1 1 0 0 0 1 0 1.125
2 0 0 14 0 0 1 1 0 0 0 1 0 1.125
2 -13.199999999999999 81 14 0 0 1 1 0 0 0 1 0 0.40639999999999998
2 -13.199999999999999 83 14 0 0 1 1 0 0 0 1 0 0.40639999999999998
2 -13.199999999999999 85 14 0 0 1 1 0 0 0 1 0 0.40639999999999998
2 -13.199999999999999 87 14 0 0 1 1 0 0 0 1 0 0.40639999999999998
2 -13.199999999999999 89 14 0 0 1 1 0 0 0 1 0 0.40639999999999998
2 -13.199999999999999 91 14 0 0 1 1 0 0 0 1 0 0.40639999999999998
2 0 0 14 0 0 1 1 0 0 0 1 0 1.125
2 0 0 14 0 0 1 1 0 0 0 1 0 1.125
2 -6.5 86 14 0 0 1 1 0 0 0 1 0 1.575
1 13 -6.5 14 0 -1 0 
1 6.5 13 14 1 0 0 
1 -6.5 -13 14 -1 0 0 
1 -13 6.5 14 0 1 0 
1 13 8.5 14 0 -1 0 
1 6.5 43 14 1 0 0 
1 -6.5 17 14 -1 0 0 
1 -13 21.5 14 0 1 0 
2 0 0 14 0 0 1 1 0 0 0 1 0 1.125
2 0 0 14 0 0 1 1 0 0 0 1 0 1.125
1 13 23.5 14 0 -1 0 
1 6.5 73 14 1 0 0 
1 -6.5 47 14 -1 0 0 
1 -13 36.5 14 0 1 0 
2 0 86 14 0 0 1 1 0 0 0 1 0 2.8999999999999999
2 6.5 86 14 0 0 1 1 0 0 0 1 0 1.575
2 0 0 14 0 0 1 1 0 0 0 1 0 1.125
2 0 0 14 0 0 1 1 0 0 0 1 0 1.125
2 13.199999999999999 81 14 0 0 1 1 0 0 0 1 0 0.40639999999999998
2 13.199999999999999 83 14 0 0 1 1 0 0 0 1 0 0.40639999999999998
2 13.199999999999999 85 14 0 0 1 1 0 0 0 1 0 0.40639999999999998
2 13.199999999999999 87 14 0 0 1 1 0 0 0 1 0 0.40639999999999998
2 13.199999999999999 89 14 0 0 1 1 0 0 0 1 0 0.40639999999999998
2 13.199999999999999 91 14 0 0 1 1 0 0 0 1 0 0.40639999999999998
8 0 168
1 84 -92 15.6 -1 0 0 
2 -13.199999999999999 -91 15.6 0 0 1 1 0 0 0 1 0 0.40639999999999998
2 -13.199999999999999 -89 15.6 0 0 1 1 0 0 0 1 0 0.40639999999999998
2 -13.199999999999999 -87 15.6 0 0 1 1 0 0 0 1 0 0.40639999999999998
2 -13.199999999999999 -85 15.6 0 0 1 1 0 0 0 1 0 0.40639999999999998
2 -13.199999999999999 -83 15.6 0 0 1 1 0 0 0 1 0 0.40639999999999998
2 -13.199999999999999 -81 15.6 0 0 1 1 0 0 0 1 0 0.40639999999999998
2 0 0 15.6 0 0 1 1 0 0 0 1 0 1.125
2 -6.5 -86 15.6 0 0 1 1 0 0 0 1 0 1.575
2 0 0 15.6 0 0 1 1 0 0 0 1 0 1.125
2 0 0 15.6 0 0 1 1 0 0 0 1 0 1.125
2 0 -86 15.6 0 0 1 1 0 0 0 1 0 2.8999999999999999
2 6.5 -86 15.6 0 0 1 1 0 0 0 1 0 1.575
1 13 -36.5 15.6 0 -1 0 
1 6.5 -47 15.6 1 0 0 
1 -6.5 -73 15.6 -1 0 0 
1 -13 -23.5 15.6 0 1 0 
2 0 0 15.6 0 0 1 1 0 0 0 1 0 1.125
2 13.199999999999999 -91 15.6 0 0 1 1 0 0 0 1 0 0.40639999999999998
2 13.199999999999999 -89 15.6 0 0 1 1 0 0 0 1 0 0.40639999999999998
2 13.199999999999999 -87 15.6 0 0 1 1 0 0 0 1 0 0.40639999999999998
2 13.199999999999999 -85 15.6 0 0 1 1 0 0 0 1 0 0.40639999999999998
2 13.199999999999999 -83 15.6 0 0 1 1 0 0 0 1 0 0.40639999999999998
2 13.199999999999999 -81 15.6 0 0 1 1 0 0 0 1 0 0.40639999999999998
1 13 -21.5 15.6 0 -1 0 
1 6.5 -17 15.6 1 0 0 
1 -6.5 -43 15.6 -1 0 0 
1 -13 -8.5 15.6 0 1 0 
2 0 0 15.6 0 0 1 1 0 0 0 1 0 1.125
2 0 0 15.6 0 0 1 1 0 0 0 1 0 1.125
2 0 0 15.6 0 0 1 1 0 0 0 1 0 1.125
2 0 0 15.6 0 0 1 1 0 0 0 1 0 1.125
2 -13.199999999999999 81 15.6 0 0 1 1 0 0 0 1 0 0.40639999999999998
2 -13.199999999999999 83 15.6 0 0 1 1 0 0 0 1 0 0.40639999999999998
2 -13.199999999999999 85 15.6 0 0 1 1 0 0 0 1 0 0.40639999999999998
2 -13.199999999999999 87 15.6 0 0 1 1 0 0 0 1 0 0.40639999999999998
2 -13.199999999999999 89 15.6 0 0 1 1 0 0 0 1 0 0.40639999999999998
2 -13.199999999999999 91 15.6 0 0 1 1 0 0 0 1 0 0.40639999999999998
2 0 0 15.6 0 0 1 1 0 0 0 1 0 1.125
2 0 0 15.6 0 0 1 1 0 0 0 1 0 1.125
2 -6.5 86 15.6 0 0 1 1 0 0 0 1 0 1.575
1 13 -6.5 15.6 0 -1 0 
1 6.5 13 15.6 1 0 0 
1 -6.5 -13 15.6 -1 0 0 
1 -13 6.5 15.6 0 1 0 
1 13 8.5 15.6 0 -1 0 
1 6.5 43 15.6 1 0 0 
1 -6.5 17 15.6 -1 0 0 
1 -13 21.5 15.6 0 1 0 
2 0 0 15.6 0 0 1 1 0 0 0 1 0 1.125
2 0 0 15.6 0 0 1 1 0 0 0 1 0 1.125
1 13 23.5 15.6 0 -1 0 
1 6.5 73 15.6 1 0 0 
1 -6.5 47 15.6 -1 0 0 
1 -13 36.5 15.6 0 1 0 
2 0 86 15.6 0 0 1 1 0 0 0 1 0 2.8999999999999999
2 6.5 86 15.6 0 0 1 1 0 0 0 1 0 1.575
2 0 0 15.6 0 0 1 1 0 0 0 1 0 1.125
2 0 0 15.6 0 0 1 1 0 0 0 1 0 1.125
2 13.199999999999999 81 15.6 0 0 1 1 0 0 0 1 0 0.40639999999999998
2 13.199999999999999 83 15.6 0 0 1 1 0 0 0 1 0 0.40639999999999998
2 13.199999999999999 85 15.6 0 0 1 1 0 0 0 1 0 0.40639999999999998
2 13.199999999999999 87 15.6 0 0 1 1 0 0 0 1 0 0.40639999999999998
2 13.199999999999999 89 15.6 0 0 1 1 0 0 0 1 0 0.40639999999999998
2 13.199999999999999 91 15.6 0 0 1 1 0 0 0 1 0 0.40639999999999998
1 -12.7936 -91 14 0 0 1 
1 -12.7936 -89 14 0 0 1 
1 -12.7936 -87 14 0 0 1 
1 -12.7936 -85 14 0 0 1 
1 -12.7936 -83 14 0 0 1 
1 -12.7936 -81 14 0 0 1 
1 1.125 0 14 0 0 1 
1 -4.9249999999999998 -86 14 0 0 1 
1 1.125 0 14 0 0 1 
1 1.125 0 14 0 0 1 
1 2.8999999999999999 -86 14 0 0 1 
1 8.0749999999999993 -86 14 0 0 1 
1 13 -47 14 0 0 1 
1 13 -73 14 0 0 1 
1 -13 -47 14 0 0 1 
1 -13 -73 14 0 0 1 
1 1.125 0 14 0 0 1 
1 13.606399999999999 -91 14 0 0 1 
1 13.606399999999999 -89 14 0 0 1 
1 13.606399999999999 -87 14 0 0 1 
1 13.606399999999999 -85 14 0 0 1 
1 13.606399999999999 -83 14 0 0 1 
1 13.606399999999999 -81 14 0 0 1 
1 13 -17 14 0 0 1 
1 13 -43 14 0 0 1 
1 -13 -17 14 0 0 1 
1 -13 -43 14 0 0 1 
1 1.125 0 14 0 0 1 
1 1.125 0 14 0 0 1 
1 1.125 0 14 0 0 1 
1 1.125 0 14 0 0 1 
1 -12.7936 81 14 0 0 1 
1 -12.7936 83 14 0 0 1 
1 -12.7936 85 14 0 0 1 
1 -12.7936 87 14 0 0 1 
1 -12.7936 89 14 0 0 1 
1 -12.7936 91 14 0 0 1 
1 1.125 0 14 0 0 1 
1 1.125 0 14 0 0 1 
1 -4.9249999999999998 86 14 0 0 1 
1 13 13 14 0 0 1 
1 13 -13 14 0 0 1 
1 -13 13 14 0 0 1 
1 -13 -13 14 0 0 1 
1 13 43 14 0 0 1 
1 13 17 14 0 0 1 
1 -13 43 14 0 0 1 
1 -13 17 14 0 0 1 
1 1.125 0 14 0 0 1 
1 1.125 0 14 0 0 1 
1 13 73 14 0 0 1 
1 13 47 14 0 0 1 
1 -13 73 14 0 0 1 
1 -13 47 14 0 0 1 
1 2.8999999999999999 86 14 0 0 1 
1 8.0749999999999993 86 14 0 0 1 
1 1.125 0 14 0 0 1 
1 1.125 0 14 0 0 1 
1 13.606399999999999 81 14 0 0 1 
1 13.606399999999999 83 14 0 0 1 
1 13.606399999999999 85 14 0 0 1 
1 13.606399999999999 87 14 0 0 1 
1 13.606399999999999 89 14 0 0 1 
1 13.606399999999999 91 14 0 0 1 
Polygon3D 0
PolygonOnTriangulations 0
Surfaces 70
1 -14.799999999999997 92 14 0 1 0 1 0 0 0 0 -1 
1 -14.800000000000001 -92 14 -1 0 0 0 1 0 0 0 -1 
1 14.800000000000001 -92 14 -1 0 0 0 1 0 0 0 -1 
1 0 0 14 0 0 1 1 0 0 0 1 0 
2 -13.199999999999999 -91 14 -0 -0 -1 1 0 0 0 1 0 0.40639999999999998
2 -13.199999999999999 -89 14 -0 -0 -1 1 0 0 0 1 0 0.40639999999999998
2 -13.199999999999999 -87 14 -0 -0 -1 1 0 0 0 1 0 0.40639999999999998
2 -13.199999999999999 -85 14 -0 -0 -1 1 0 0 0 1 0 0.40639999999999998
2 -13.199999999999999 -83 14 -0 -0 -1 1 0 0 0 1 0 0.40639999999999998
2 -13.199999999999999 -81 14 -0 -0 -1 1 0 0 0 1 0 0.40639999999999998
2 0 0 14 -0 -0 -1 1 0 0 0 1 0 1.125
2 -6.5 -86 14 -0 -0 -1 1 0 0 0 1 0 1.575
2 0 0 14 -0 -0 -1 1 0 0 0 1 0 1.125
2 0 0 14 -0 -0 -1 1 0 0 0 1 0 1.125
2 0 -86 14 -0 -0 -1 1 0 0 0 1 0 2.8999999999999999
2 6.5 -86 14 -0 -0 -1 1 0 0 0 1 0 1.575
2 0 0 14 -0 -0 -1 1 0 0 0 1 0 1.125
2 13.199999999999999 -91 14 -0 -0 -1 1 0 0 0 1 0 0.40639999999999998
2 13.199999999999999 -89 14 -0 -0 -1 1 0 0 0 1 0 0.40639999999999998
2 13.199999999999999 -87 14 -0 -0 -1 1 0 0 0 1 0 0.40639999999999998
2 13.199999999999999 -85 14 -0 -0 -1 1 0 0 0 1 0 0.40639999999999998
2 13.199999999999999 -83 14 -0 -0 -1 1 0 0 0 1 0 0.40639999999999998
2 13.199999999999999 -81 14 -0 -0 -1 1 0 0 0 1 0 0.40639999999999998
2 0 0 14 -0 -0 -1 1 0 0 0 1 0 1.125
2 0 0 14 -0 -0 -1 1 0 0 0 1 0 1.125
2 0 0 14 -0 -0 -1 1 0 0 0 1 0 1.125
2 0 0 14 -0 -0 -1 1 0 0 0 1 0 1.125
2 -13.199999999999999 81 14 -0 -0 -1 1 0 0 0 1 0 0.40639999999999998
2 -13.199999999999999 83 14 -0 -0 -1 1 0 0 0 1 0 0.40639999999999998
2 -13.199999999999999 85 14 -0 -0 -1 1 0 0 0 1 0 0.40639999999999998
2 -13.199999999999999 87 14 -0 -0 -1 1 0 0 0 1 0 0.40639999999999998
2 -13.199999999999999 89 14 -0 -0 -1 1 0 0 0 1 0 0.40639999999999998
2 -13.199999999999999 91 14 -0 -0 -1 1 0 0 0 1 0 0.40639999999999998
2 0 0 14 -0 -0 -1 1 0 0 0 1 0 1.125
2 0 0 14 -0 -0 -1 1 0 0 0 1 0 1.125
2 -6.5 86 14 -0 -0 -1 1 0 0 0 1 0 1.575
2 0 0 14 -0 -0 -1 1 0 0 0 1 0 1.125
2 0 0 14 -0 -0 -1 1 0 0 0 1 0 1.125
2 0 86 14 -0 -0 -1 1 0 0 0 1 0 2.8999999999999999
2 6.5 86 14 -0 -0 -1 1 0 0 0 1 0 1.575
2 0 0 14 -0 -0 -1 1 0 0 0 1 0 1.125
2 0 0 14 -0 -0 -1 1 0 0 0 1 0 1.125
2 13.199999999999999 81 14 -0 -0 -1 1 0 0 0 1 0 0.40639999999999998
2 13.199999999999999 83 14 -0 -0 -1 1 0 0 0 1 0 0.40639999999999998
2 13.199999999999999 85 14 -0 -0 -1 1 0 0 0 1 0 0.40639999999999998
2 13.199999999999999 87 14 -0 -0 -1 1 0 0 0 1 0 0.40639999999999998
2 13.199999999999999 89 14 -0 -0 -1 1 0 0 0 1 0 0.40639999999999998
2 13.199999999999999 91 14 -0 -0 -1 1 0 0 0 1 0 0.40639999999999998
1 0 0 15.6 0 0 1 1 0 0 0 1 0 
1 14.799999999999997 -92 14 0 -1 0 -1 0 0 -0 -0 -1 
1 13 -47 14 1 0 0 0 -1 0 0 0 -1 
1 -13 -47 14 0 1 0 1 0 0 0 0 -1 
1 13 -73 14 0 -1 0 -1 0 0 -0 -0 -1 
1 -13 -73 14 -1 0 0 0 1 0 0 0 -1 
1 13 -17 14 1 0 0 0 -1 0 0 0 -1 
1 -13 -17 14 0 1 0 1 0 0 0 0 -1 
1 13 -43 14 0 -1 0 -1 0 0 -0 -0 -1 
1 -13 -43 14 -1 0 0 0 1 0 0 0 -1 
1 13 13 14 1 0 0 0 -1 0 0 0 -1 
1 -13 13 14 0 1 0 1 0 0 0 0 -1 
1 13 -13 14 0 -1 0 -1 0 0 -0 -0 -1 
1 -13 -13 14 -1 0 0 0 1 0 0 0 -1 
1 13 43 14 1 0 0 0 -1 0 0 0 -1 
1 -13 43 14 0 1 0 1 0 0 0 0 -1 
1 13 17 14 0 -1 0 -1 0 0 -0 -0 -1 
1 -13 17 14 -1 0 0 0 1 0 0 0 -1 
1 13 73 14 1 0 0 0 -1 0 0 0 -1 
1 -13 73 14 0 1 0 1 0 0 0 0 -1 
1 13 47 14 0 -1 0 -1 0 0 -0 -0 -1 
1 -13 47 14 -1 0 0 0 1 0 0 0 -1 
Triangulations 0

TShapes 580
Ve
1.5e-07
-74.8 92 14
0 0

0101101
*
Ve
1.5e-07
-74.8 92 15.6
0 0

0101101
*
Ed
 1.5e-07 1 1 0
1  1 0 0 1.6
0

0101000
+580 2 -579 2 *
Ve
1.5e-07
-45.2 92 14
0 0

0101101
*
Ve
1.5e-07
-45.2 92 15.6
0 0

0101101
*
Ed
 1.5e-07 1 1 0
1  2 0 0 1.6
0

0101000
+577 2 -576 2 *
Ed
 1e-07 1 1 0
1  3 0 69.2 98.8
0

0101000
+580 2 -577 2 *
Ed
 1e-07 1 1 0
1  4 0 69.2 98.8
0

0101000
+579 2 -576 2 *
Wi

0101100
+578 0 -575 0 -574 0 +573 0 *
Fa
0  1e-07 1 0

0101000
+572 0 *
Ve
1.5e-07
-74.8 -92 14
0 0

0101101
*
Ve
1.5e-07
-74.8 -92 15.6
0 0

0101101
*
Ed
 1.5e-07 1 1 0
1  5 0 0 1.6
0

0101000
+570 2 -569 2 *
Ed
 1e-07 1 1 0
1  6 0 96 280
0

0101000
+570 2 -580 2 *
Ed
 1e-07 1 1 0
1  7 0 96 280
0

0101000
+569 2 -579 2 *
Wi

0101100
+568 0 -578 0 -567 0 +566 0 *
Fa
0  1e-07 2 0

0101000
+565 0 *
Ve
1.5e-07
-45.2 -92 14
0 0

0101101
*
Ve
1.5e-07
-45.2 -92 15.6
0 0

0101101
*
Ed
 1.5e-07 1 1 0
1  8 0 0 1.6
0

0101000
+563 2 -562 2 *
Ed
 1e-07 1 1 0
1  9 0 96 280
0

0101000
+563 2 -577 2 *
Ed
 1e-07 1 1 0
1  10 0 96 280
0

0101000
+562 2 -576 2 *
Wi

0101100
+561 0 -575 0 -560 0 +559 0 *
Fa
0  1e-07 3 0

0101000
+558 0 *
Ed
 1e-07 1 1 0
1  11 0 69.2 98.8
0

0101000
+563 2 -570 2 *
Wi

0101100
-574 0 -567 0 +560 0 -556 0 *
Ve
1e-07
-72.7936 -91 14
0 0

0101101
*
Ed
 1e-07 1 1 0
1  12 0 0 6.28318530717959
2  1 5 0 0 6.28318530717959
0

0101000
+554 2 -554 2 *
Wi

0101100
-553 0 *
Ve
1e-07
-72.7936 -89 14
0 0

0101101
*
Ed
 1e-07 1 1 0
1  13 0 0 6.28318530717959
2  2 6 0 0 6.28318530717959
0

0101000
+551 2 -551 2 *
Wi

0101100
-550 0 *
Ve
1e-07
-72.7936 -87 14
0 0

0101101
*
Ed
 1e-07 1 1 0
1  14 0 0 6.28318530717959
2  3 7 0 0 6.28318530717959
0

0101000
+548 2 -548 2 *
Wi

0101100
-547 0 *
Ve
1e-07
-72.7936 -85 14
0 0

0101101
*
Ed
 1e-07 1 1 0
1  15 0 0 6.28318530717959
2  4 8 0 0 6.28318530717959
0

0101000
+545 2 -545 2 *
Wi

0101100
-544 0 *
Ve
1e-07
-72.7936 -83 14
0 0

0101101
*
Ed
 1e-07 1 1 0
1  16 0 0 6.28318530717959
2  5 9 0 0 6.28318530717959
0

0101000
+542 2 -542 2 *
Wi

0101100
-541 0 *
Ve
1e-07
-72.7936 -81 14
0 0

0101101
*
Ed
 1e-07 1 1 0
1  17 0 0 6.28318530717959
2  6 10 0 0 6.28318530717959
0

0101000
+539 2 -539 2 *
Wi

0101100
-538 0 *
Ve
1e-07
-67.875 -82 14
0 0

0101101
*
Ed
 1e-07 1 1 0
1  18 0 0 6.28318530717959
2  7 11 0 0 6.28318530717959
0

0101000
+536 6 -536 6 *
Wi

0101100
-535 5 *
Ve
1e-07
-64.925 -86 14
0 0

0101101
*
Ed
 1e-07 1 1 0
1  19 0 0 6.28318530717959
2  8 12 0 0 6.28318530717959
0

0101000
+533 2 -533 2 *
Wi

0101100
-532 0 *
Ve
1e-07
-67.875 -45 14
0 0

0101101
*
Ed
 1e-07 1 1 0
1  20 0 0 6.28318530717959
2  7 13 0 0 6.28318530717959
0

0101000
+530 9 -530 9 *
Wi

0101100
-529 8 *
Ve
1e-07
-67.875 -15 14
0 0

0101101
*
Ed
 1e-07 1 1 0
1  21 0 0 6.28318530717959
2  7 14 0 0 6.28318530717959
0

0101000
+527 12 -527 12 *
Wi

0101100
-526 11 *
Ve
1e-07
-57.1 -86 14
0 0

0101101
*
Ed
 1e-07 1 1 0
1  22 0 0 6.28318530717959
2  9 15 0 0 6.28318530717959
0

0101000
+524 2 -524 2 *
Wi

0101100
-523 0 *
Ve
1e-07
-51.925 -86 14
0 0

0101101
*
Ed
 1e-07 1 1 0
1  23 0 0 6.28318530717959
2  10 16 0 0 6.28318530717959
0

0101000
+521 2 -521 2 *
Wi

0101100
-520 0 *
Ve
1.5e-07
-47 -47 14
0 0

0101101
*
Ve
1.5e-07
-47 -73 14
0 0

0101101
*
Ed
 1.5e-07 1 1 0
1  24 0 10.5 36.5
0

0101000
+518 2 -517 2 *
Ve
1.5e-07
-73 -47 14
0 0

0101101
*
Ed
 1.5e-07 1 1 0
1  25 0 -19.5 6.5
0

0101000
+515 2 -518 2 *
Ve
1.5e-07
-73 -73 14
0 0

0101101
*
Ed
 1.5e-07 1 1 0
1  26 0 -19.5 6.5
0

0101000
+517 2 -513 2 *
Ed
 1.5e-07 1 1 0
1  27 0 -49.5 -23.5
0

0101000
+513 2 -515 2 *
Wi

0101100
+516 0 +514 0 +512 0 +511 0 *
Ve
1e-07
-49.875 -82 14
0 0

0101101
*
Ed
 1e-07 1 1 0
1  28 0 0 6.28318530717959
2  7 17 0 0 6.28318530717959
0

0101000
+509 15 -509 15 *
Wi

0101100
-508 14 *
Ve
1e-07
-46.3936 -91 14
0 0

0101101
*
Ed
 1e-07 1 1 0
1  29 0 0 6.28318530717959
2  11 18 0 0 6.28318530717959
0

0101000
+506 2 -506 2 *
Wi

0101100
-505 0 *
Ve
1e-07
-46.3936 -89 14
0 0

0101101
*
Ed
 1e-07 1 1 0
1  30 0 0 6.28318530717959
2  12 19 0 0 6.28318530717959
0

0101000
+503 2 -503 2 *
Wi

0101100
-502 0 *
Ve
1e-07
-46.3936 -87 14
0 0

0101101
*
Ed
 1e-07 1 1 0
1  31 0 0 6.28318530717959
2  13 20 0 0 6.28318530717959
0

0101000
+500 2 -500 2 *
Wi

0101100
-499 0 *
Ve
1e-07
-46.3936 -85 14
0 0

0101101
*
Ed
 1e-07 1 1 0
1  32 0 0 6.28318530717959
2  14 21 0 0 6.28318530717959
0

0101000
+497 2 -497 2 *
Wi

0101100
-496 0 *
Ve
1e-07
-46.3936 -83 14
0 0

0101101
*
Ed
 1e-07 1 1 0
1  33 0 0 6.28318530717959
2  15 22 0 0 6.28318530717959
0

0101000
+494 2 -494 2 *
Wi

0101100
-493 0 *
Ve
1e-07
-46.3936 -81 14
0 0

0101101
*
Ed
 1e-07 1 1 0
1  34 0 0 6.28318530717959
2  16 23 0 0 6.28318530717959
0

0101000
+491 2 -491 2 *
Wi

0101100
-490 0 *
Ve
1.5e-07
-47 -17 14
0 0

0101101
*
Ve
1.5e-07
-47 -43 14
0 0

0101101
*
Ed
 1.5e-07 1 1 0
1  35 0 -4.5 21.5
0

0101000
+488 2 -487 2 *
Ve
1.5e-07
-73 -17 14
0 0

0101101
*
Ed
 1.5e-07 1 1 0
1  36 0 -19.5 6.5
0

0101000
+485 2 -488 2 *
Ve
1.5e-07
-73 -43 14
0 0

0101101
*
Ed
 1.5e-07 1 1 0
1  37 0 -19.5 6.5
0

0101000
+487 2 -483 2 *
Ed
 1.5e-07 1 1 0
1  38 0 -34.5 -8.5
0

0101000
+483 2 -485 2 *
Wi

0101100
+486 0 +484 0 +482 0 +481 0 *
Ve
1e-07
-49.875 -45 14
0 0

0101101
*
Ed
 1e-07 1 1 0
1  39 0 0 6.28318530717959
2  7 24 0 0 6.28318530717959
0

0101000
+479 18 -479 18 *
Wi

0101100
-478 17 *
Ve
1e-07
-49.875 -15 14
0 0

0101101
*
Ed
 1e-07 1 1 0
1  40 0 0 6.28318530717959
2  7 25 0 0 6.28318530717959
0

0101000
+476 21 -476 21 *
Wi

0101100
-475 20 *
Ve
1e-07
-67.875 15 14
0 0

0101101
*
Ed
 1e-07 1 1 0
1  41 0 0 6.28318530717959
2  7 26 0 0 6.28318530717959
0

0101000
+473 24 -473 24 *
Wi

0101100
-472 23 *
Ve
1e-07
-67.875 45 14
0 0

0101101
*
Ed
 1e-07 1 1 0
1  42 0 0 6.28318530717959
2  7 27 0 0 6.28318530717959
0

0101000
+470 27 -470 27 *
Wi

0101100
-469 26 *
Ve
1e-07
-72.7936 81 14
0 0

0101101
*
Ed
 1e-07 1 1 0
1  43 0 0 6.28318530717959
2  17 28 0 0 6.28318530717959
0

0101000
+467 2 -467 2 *
Wi

0101100
-466 0 *
Ve
1e-07
-72.7936 83 14
0 0

0101101
*
Ed
 1e-07 1 1 0
1  44 0 0 6.28318530717959
2  18 29 0 0 6.28318530717959
0

0101000
+464 2 -464 2 *
Wi

0101100
-463 0 *
Ve
1e-07
-72.7936 85 14
0 0

0101101
*
Ed
 1e-07 1 1 0
1  45 0 0 6.28318530717959
2  19 30 0 0 6.28318530717959
0

0101000
+461 2 -461 2 *
Wi

0101100
-460 0 *
Ve
1e-07
-72.7936 87 14
0 0

0101101
*
Ed
 1e-07 1 1 0
1  46 0 0 6.28318530717959
2  20 31 0 0 6.28318530717959
0

0101000
+458 2 -458 2 *
Wi

0101100
-457 0 *
Ve
1e-07
-72.7936 89 14
0 0

0101101
*
Ed
 1e-07 1 1 0
1  47 0 0 6.28318530717959
2  21 32 0 0 6.28318530717959
0

0101000
+455 2 -455 2 *
Wi

0101100
-454 0 *
Ve
1e-07
-72.7936 91 14
0 0

0101101
*
Ed
 1e-07 1 1 0
1  48 0 0 6.28318530717959
2  22 33 0 0 6.28318530717959
0

0101000
+452 2 -452 2 *
Wi

0101100
-451 0 *
Ve
1e-07
-67.875 75 14
0 0

0101101
*
Ed
 1e-07 1 1 0
1  49 0 0 6.28318530717959
2  7 34 0 0 6.28318530717959
0

0101000
+449 30 -449 30 *
Wi

0101100
-448 29 *
Ve
1e-07
-67.875 82 14
0 0

0101101
*
Ed
 1e-07 1 1 0
1  50 0 0 6.28318530717959
2  7 35 0 0 6.28318530717959
0

0101000
+446 33 -446 33 *
Wi

0101100
-445 32 *
Ve
1e-07
-64.925 86 14
0 0

0101101
*
Ed
 1e-07 1 1 0
1  51 0 0 6.28318530717959
2  23 36 0 0 6.28318530717959
0

0101000
+443 2 -443 2 *
Wi

0101100
-442 0 *
Ve
1.5e-07
-47 13 14
0 0

0101101
*
Ve
1.5e-07
-47 -13 14
0 0

0101101
*
Ed
 1.5e-07 1 1 0
1  52 0 -19.5 6.5
0

0101000
+440 2 -439 2 *
Ve
1.5e-07
-73 13 14
0 0

0101101
*
Ed
 1.5e-07 1 1 0
1  53 0 -19.5 6.5
0

0101000
+437 2 -440 2 *
Ve
1.5e-07
-73 -13 14
0 0

0101101
*
Ed
 1.5e-07 1 1 0
1  54 0 -19.5 6.5
0

0101000
+439 2 -435 2 *
Ed
 1.5e-07 1 1 0
1  55 0 -19.5 6.5
0

0101000
+435 2 -437 2 *
Wi

0101100
+438 0 +436 0 +434 0 +433 0 *
Ve
1.5e-07
-47 43 14
0 0

0101101
*
Ve
1.5e-07
-47 17 14
0 0

0101101
*
Ed
 1.5e-07 1 1 0
1  56 0 -34.5 -8.5
0

0101000
+431 2 -430 2 *
Ve
1.5e-07
-73 43 14
0 0

0101101
*
Ed
 1.5e-07 1 1 0
1  57 0 -19.5 6.5
0

0101000
+428 2 -431 2 *
Ve
1.5e-07
-73 17 14
0 0

0101101
*
Ed
 1.5e-07 1 1 0
1  58 0 -19.5 6.5
0

0101000
+430 2 -426 2 *
Ed
 1.5e-07 1 1 0
1  59 0 -4.5 21.5
0

0101000
+426 2 -428 2 *
Wi

0101100
+429 0 +427 0 +425 0 +424 0 *
Ve
1e-07
-49.875 15 14
0 0

0101101
*
Ed
 1e-07 1 1 0
1  60 0 0 6.28318530717959
2  7 37 0 0 6.28318530717959
0

0101000
+422 36 -422 36 *
Wi

0101100
-421 35 *
Ve
1e-07
-49.875 45 14
0 0

0101101
*
Ed
 1e-07 1 1 0
1  61 0 0 6.28318530717959
2  7 38 0 0 6.28318530717959
0

0101000
+419 39 -419 39 *
Wi

0101100
-418 38 *
Ve
1.5e-07
-47 73 14
0 0

0101101
*
Ve
1.5e-07
-47 47 14
0 0

0101101
*
Ed
 1.5e-07 1 1 0
1  62 0 -49.5 -23.5
0

0101000
+416 2 -415 2 *
Ve
1.5e-07
-73 73 14
0 0

0101101
*
Ed
 1.5e-07 1 1 0
1  63 0 -19.5 6.5
0

0101000
+413 2 -416 2 *
Ve
1.5e-07
-73 47 14
0 0

0101101
*
Ed
 1.5e-07 1 1 0
1  64 0 -19.5 6.5
0

0101000
+415 2 -411 2 *
Ed
 1.5e-07 1 1 0
1  65 0 10.5 36.5
0

0101000
+411 2 -413 2 *
Wi

0101100
+414 0 +412 0 +410 0 +409 0 *
Ve
1e-07
-57.1 86 14
0 0

0101101
*
Ed
 1e-07 1 1 0
1  66 0 0 6.28318530717959
2  24 39 0 0 6.28318530717959
0

0101000
+407 2 -407 2 *
Wi

0101100
-406 0 *
Ve
1e-07
-51.925 86 14
0 0

0101101
*
Ed
 1e-07 1 1 0
1  67 0 0 6.28318530717959
2  25 40 0 0 6.28318530717959
0

0101000
+404 2 -404 2 *
Wi

0101100
-403 0 *
Ve
1e-07
-49.875 75 14
0 0

0101101
*
Ed
 1e-07 1 1 0
1  68 0 0 6.28318530717959
2  7 41 0 0 6.28318530717959
0

0101000
+401 42 -401 42 *
Wi

0101100
-400 41 *
Ve
1e-07
-49.875 82 14
0 0

0101101
*
Ed
 1e-07 1 1 0
1  69 0 0 6.28318530717959
2  7 42 0 0 6.28318530717959
0

0101000
+398 45 -398 45 *
Wi

0101100
-397 44 *
Ve
1e-07
-46.3936 81 14
0 0

0101101
*
Ed
 1e-07 1 1 0
1  70 0 0 6.28318530717959
2  26 43 0 0 6.28318530717959
0

0101000
+395 2 -395 2 *
Wi

0101100
-394 0 *
Ve
1e-07
-46.3936 83 14
0 0

0101101
*
Ed
 1e-07 1 1 0
1  71 0 0 6.28318530717959
2  27 44 0 0 6.28318530717959
0

0101000
+392 2 -392 2 *
Wi

0101100
-391 0 *
Ve
1e-07
-46.3936 85 14
0 0

0101101
*
Ed
 1e-07 1 1 0
1  72 0 0 6.28318530717959
2  28 45 0 0 6.28318530717959
0

0101000
+389 2 -389 2 *
Wi

0101100
-388 0 *
Ve
1e-07
-46.3936 87 14
0 0

0101101
*
Ed
 1e-07 1 1 0
1  73 0 0 6.28318530717959
2  29 46 0 0 6.28318530717959
0

0101000
+386 2 -386 2 *
Wi

0101100
-385 0 *
Ve
1e-07
-46.3936 89 14
0 0

0101101
*
Ed
 1e-07 1 1 0
1  74 0 0 6.28318530717959
2  30 47 0 0 6.28318530717959
0

0101000
+383 2 -383 2 *
Wi

0101100
-382 0 *
Ve
1e-07
-46.3936 91 14
0 0

0101101
*
Ed
 1e-07 1 1 0
1  75 0 0 6.28318530717959
2  31 48 0 0 6.28318530717959
0

0101000
+380 2 -380 2 *
Wi

0101100
-379 0 *
Fa
0  1e-07 4 0

0101000
+555 0 +552 0 +549 0 +546 0 +543 0 +540 0 +537 0 +534 0 +531 0 +528 0 
+525 0 +522 0 +519 0 +510 0 +507 0 +504 0 +501 0 +498 0 +495 0 +492 0 
+489 0 +480 0 +477 0 +474 0 +471 0 +468 0 +465 0 +462 0 +459 0 +456 0 
+453 0 +450 0 +447 0 +444 0 +441 0 +432 0 +423 0 +420 0 +417 0 +408 0 
+405 0 +402 0 +399 0 +396 0 +393 0 +390 0 +387 0 +384 0 +381 0 +378 0 
*
Ed
 1e-07 1 1 0
1  76 0 69.2 98.8
0

0101000
+562 2 -569 2 *
Wi

0101100
-573 0 -566 0 +559 0 -376 0 *
Ve
1e-07
-72.7936 -91 15.6
0 0

0101101
*
Ed
 1e-07 1 1 0
1  77 0 0 6.28318530717959
2  32 5 0 0 6.28318530717959
0

0101000
+374 2 -374 2 *
Wi

0101100
-373 0 *
Ve
1e-07
-72.7936 -89 15.6
0 0

0101101
*
Ed
 1e-07 1 1 0
1  78 0 0 6.28318530717959
2  33 6 0 0 6.28318530717959
0

0101000
+371 2 -371 2 *
Wi

0101100
-370 0 *
Ve
1e-07
-72.7936 -87 15.6
0 0

0101101
*
Ed
 1e-07 1 1 0
1  79 0 0 6.28318530717959
2  34 7 0 0 6.28318530717959
0

0101000
+368 2 -368 2 *
Wi

0101100
-367 0 *
Ve
1e-07
-72.7936 -85 15.6
0 0

0101101
*
Ed
 1e-07 1 1 0
1  80 0 0 6.28318530717959
2  35 8 0 0 6.28318530717959
0

0101000
+365 2 -365 2 *
Wi

0101100
-364 0 *
Ve
1e-07
-72.7936 -83 15.6
0 0

0101101
*
Ed
 1e-07 1 1 0
1  81 0 0 6.28318530717959
2  36 9 0 0 6.28318530717959
0

0101000
+362 2 -362 2 *
Wi

0101100
-361 0 *
Ve
1e-07
-72.7936 -81 15.6
0 0

0101101
*
Ed
 1e-07 1 1 0
1  82 0 0 6.28318530717959
2  37 10 0 0 6.28318530717959
0

0101000
+359 2 -359 2 *
Wi

0101100
-358 0 *
Ve
1e-07
-67.875 -82 15.6
0 0

0101101
*
Ed
 1e-07 1 1 0
1  83 0 0 6.28318530717959
2  38 11 0 0 6.28318530717959
0

0101000
+356 6 -356 6 *
Wi

0101100
-355 5 *
Ve
1e-07
-64.925 -86 15.6
0 0

0101101
*
Ed
 1e-07 1 1 0
1  84 0 0 6.28318530717959
2  39 12 0 0 6.28318530717959
0

0101000
+353 2 -353 2 *
Wi

0101100
-352 0 *
Ve
1e-07
-67.875 -45 15.6
0 0

0101101
*
Ed
 1e-07 1 1 0
1  85 0 0 6.28318530717959
2  38 13 0 0 6.28318530717959
0

0101000
+350 9 -350 9 *
Wi

0101100
-349 8 *
Ve
1e-07
-67.875 -15 15.6
0 0

0101101
*
Ed
 1e-07 1 1 0
1  86 0 0 6.28318530717959
2  38 14 0 0 6.28318530717959
0

0101000
+347 12 -347 12 *
Wi

0101100
-346 11 *
Ve
1e-07
-57.1 -86 15.6
0 0

0101101
*
Ed
 1e-07 1 1 0
1  87 0 0 6.28318530717959
2  40 15 0 0 6.28318530717959
0

0101000
+344 2 -344 2 *
Wi

0101100
-343 0 *
Ve
1e-07
-51.925 -86 15.6
0 0

0101101
*
Ed
 1e-07 1 1 0
1  88 0 0 6.28318530717959
2  41 16 0 0 6.28318530717959
0

0101000
+341 2 -341 2 *
Wi

0101100
-340 0 *
Ve
1.5e-07
-47 -47 15.6
0 0

0101101
*
Ve
1.5e-07
-47 -73 15.6
0 0

0101101
*
Ed
 1.5e-07 1 1 0
1  89 0 10.5 36.5
0

0101000
+338 2 -337 2 *
Ve
1.5e-07
-73 -47 15.6
0 0

0101101
*
Ed
 1.5e-07 1 1 0
1  90 0 -19.5 6.5
0

0101000
+335 2 -338 2 *
Ve
1.5e-07
-73 -73 15.6
0 0

0101101
*
Ed
 1.5e-07 1 1 0
1  91 0 -19.5 6.5
0

0101000
+337 2 -333 2 *
Ed
 1.5e-07 1 1 0
1  92 0 -49.5 -23.5
0

0101000
+333 2 -335 2 *
Wi

0101100
+336 0 +334 0 +332 0 +331 0 *
Ve
1e-07
-49.875 -82 15.6
0 0

0101101
*
Ed
 1e-07 1 1 0
1  93 0 0 6.28318530717959
2  38 17 0 0 6.28318530717959
0

0101000
+329 15 -329 15 *
Wi

0101100
-328 14 *
Ve
1e-07
-46.3936 -91 15.6
0 0

0101101
*
Ed
 1e-07 1 1 0
1  94 0 0 6.28318530717959
2  42 18 0 0 6.28318530717959
0

0101000
+326 2 -326 2 *
Wi

0101100
-325 0 *
Ve
1e-07
-46.3936 -89 15.6
0 0

0101101
*
Ed
 1e-07 1 1 0
1  95 0 0 6.28318530717959
2  43 19 0 0 6.28318530717959
0

0101000
+323 2 -323 2 *
Wi

0101100
-322 0 *
Ve
1e-07
-46.3936 -87 15.6
0 0

0101101
*
Ed
 1e-07 1 1 0
1  96 0 0 6.28318530717959
2  44 20 0 0 6.28318530717959
0

0101000
+320 2 -320 2 *
Wi

0101100
-319 0 *
Ve
1e-07
-46.3936 -85 15.6
0 0

0101101
*
Ed
 1e-07 1 1 0
1  97 0 0 6.28318530717959
2  45 21 0 0 6.28318530717959
0

0101000
+317 2 -317 2 *
Wi

0101100
-316 0 *
Ve
1e-07
-46.3936 -83 15.6
0 0

0101101
*
Ed
 1e-07 1 1 0
1  98 0 0 6.28318530717959
2  46 22 0 0 6.28318530717959
0

0101000
+314 2 -314 2 *
Wi

0101100
-313 0 *
Ve
1e-07
-46.3936 -81 15.6
0 0

0101101
*
Ed
 1e-07 1 1 0
1  99 0 0 6.28318530717959
2  47 23 0 0 6.28318530717959
0

0101000
+311 2 -311 2 *
Wi

0101100
-310 0 *
Ve
1.5e-07
-47 -17 15.6
0 0

0101101
*
Ve
1.5e-07
-47 -43 15.6
0 0

0101101
*
Ed
 1.5e-07 1 1 0
1  100 0 -4.5 21.5
0

0101000
+308 2 -307 2 *
Ve
1.5e-07
-73 -17 15.6
0 0

0101101
*
Ed
 1.5e-07 1 1 0
1  101 0 -19.5 6.5
0

0101000
+305 2 -308 2 *
Ve
1.5e-07
-73 -43 15.6
0 0

0101101
*
Ed
 1.5e-07 1 1 0
1  102 0 -19.5 6.5
0

0101000
+307 2 -303 2 *
Ed
 1.5e-07 1 1 0
1  103 0 -34.5 -8.5
0

0101000
+303 2 -305 2 *
Wi

0101100
+306 0 +304 0 +302 0 +301 0 *
Ve
1e-07
-49.875 -45 15.6
0 0

0101101
*
Ed
 1e-07 1 1 0
1  104 0 0 6.28318530717959
2  38 24 0 0 6.28318530717959
0

0101000
+299 18 -299 18 *
Wi

0101100
-298 17 *
Ve
1e-07
-49.875 -15 15.6
0 0

0101101
*
Ed
 1e-07 1 1 0
1  105 0 0 6.28318530717959
2  38 25 0 0 6.28318530717959
0

0101000
+296 21 -296 21 *
Wi

0101100
-295 20 *
Ve
1e-07
-67.875 15 15.6
0 0

0101101
*
Ed
 1e-07 1 1 0
1  106 0 0 6.28318530717959
2  38 26 0 0 6.28318530717959
0

0101000
+293 24 -293 24 *
Wi

0101100
-292 23 *
Ve
1e-07
-67.875 45 15.6
0 0

0101101
*
Ed
 1e-07 1 1 0
1  107 0 0 6.28318530717959
2  38 27 0 0 6.28318530717959
0

0101000
+290 27 -290 27 *
Wi

0101100
-289 26 *
Ve
1e-07
-72.7936 81 15.6
0 0

0101101
*
Ed
 1e-07 1 1 0
1  108 0 0 6.28318530717959
2  48 28 0 0 6.28318530717959
0

0101000
+287 2 -287 2 *
Wi

0101100
-286 0 *
Ve
1e-07
-72.7936 83 15.6
0 0

0101101
*
Ed
 1e-07 1 1 0
1  109 0 0 6.28318530717959
2  49 29 0 0 6.28318530717959
0

0101000
+284 2 -284 2 *
Wi

0101100
-283 0 *
Ve
1e-07
-72.7936 85 15.6
0 0

0101101
*
Ed
 1e-07 1 1 0
1  110 0 0 6.28318530717959
2  50 30 0 0 6.28318530717959
0

0101000
+281 2 -281 2 *
Wi

0101100
-280 0 *
Ve
1e-07
-72.7936 87 15.6
0 0

0101101
*
Ed
 1e-07 1 1 0
1  111 0 0 6.28318530717959
2  51 31 0 0 6.28318530717959
0

0101000
+278 2 -278 2 *
Wi

0101100
-277 0 *
Ve
1e-07
-72.7936 89 15.6
0 0

0101101
*
Ed
 1e-07 1 1 0
1  112 0 0 6.28318530717959
2  52 32 0 0 6.28318530717959
0

0101000
+275 2 -275 2 *
Wi

0101100
-274 0 *
Ve
1e-07
-72.7936 91 15.6
0 0

0101101
*
Ed
 1e-07 1 1 0
1  113 0 0 6.28318530717959
2  53 33 0 0 6.28318530717959
0

0101000
+272 2 -272 2 *
Wi

0101100
-271 0 *
Ve
1e-07
-67.875 75 15.6
0 0

0101101
*
Ed
 1e-07 1 1 0
1  114 0 0 6.28318530717959
2  38 34 0 0 6.28318530717959
0

0101000
+269 30 -269 30 *
Wi

0101100
-268 29 *
Ve
1e-07
-67.875 82 15.6
0 0

0101101
*
Ed
 1e-07 1 1 0
1  115 0 0 6.28318530717959
2  38 35 0 0 6.28318530717959
0

0101000
+266 33 -266 33 *
Wi

0101100
-265 32 *
Ve
1e-07
-64.925 86 15.6
0 0

0101101
*
Ed
 1e-07 1 1 0
1  116 0 0 6.28318530717959
2  54 36 0 0 6.28318530717959
0

0101000
+263 2 -263 2 *
Wi

0101100
-262 0 *
Ve
1.5e-07
-47 13 15.6
0 0

0101101
*
Ve
1.5e-07
-47 -13 15.6
0 0

0101101
*
Ed
 1.5e-07 1 1 0
1  117 0 -19.5 6.5
0

0101000
+260 2 -259 2 *
Ve
1.5e-07
-73 13 15.6
0 0

0101101
*
Ed
 1.5e-07 1 1 0
1  118 0 -19.5 6.5
0

0101000
+257 2 -260 2 *
Ve
1.5e-07
-73 -13 15.6
0 0

0101101
*
Ed
 1.5e-07 1 1 0
1  119 0 -19.5 6.5
0

0101000
+259 2 -255 2 *
Ed
 1.5e-07 1 1 0
1  120 0 -19.5 6.5
0

0101000
+255 2 -257 2 *
Wi

0101100
+258 0 +256 0 +254 0 +253 0 *
Ve
1.5e-07
-47 43 15.6
0 0

0101101
*
Ve
1.5e-07
-47 17 15.6
0 0

0101101
*
Ed
 1.5e-07 1 1 0
1  121 0 -34.5 -8.5
0

0101000
+251 2 -250 2 *
Ve
1.5e-07
-73 43 15.6
0 0

0101101
*
Ed
 1.5e-07 1 1 0
1  122 0 -19.5 6.5
0

0101000
+248 2 -251 2 *
Ve
1.5e-07
-73 17 15.6
0 0

0101101
*
Ed
 1.5e-07 1 1 0
1  123 0 -19.5 6.5
0

0101000
+250 2 -246 2 *
Ed
 1.5e-07 1 1 0
1  124 0 -4.5 21.5
0

0101000
+246 2 -248 2 *
Wi

0101100
+249 0 +247 0 +245 0 +244 0 *
Ve
1e-07
-49.875 15 15.6
0 0

0101101
*
Ed
 1e-07 1 1 0
1  125 0 0 6.28318530717959
2  38 37 0 0 6.28318530717959
0

0101000
+242 36 -242 36 *
Wi

0101100
-241 35 *
Ve
1e-07
-49.875 45 15.6
0 0

0101101
*
Ed
 1e-07 1 1 0
1  126 0 0 6.28318530717959
2  38 38 0 0 6.28318530717959
0

0101000
+239 39 -239 39 *
Wi

0101100
-238 38 *
Ve
1.5e-07
-47 73 15.6
0 0

0101101
*
Ve
1.5e-07
-47 47 15.6
0 0

0101101
*
Ed
 1.5e-07 1 1 0
1  127 0 -49.5 -23.5
0

0101000
+236 2 -235 2 *
Ve
1.5e-07
-73 73 15.6
0 0

0101101
*
Ed
 1.5e-07 1 1 0
1  128 0 -19.5 6.5
0

0101000
+233 2 -236 2 *
Ve
1.5e-07
-73 47 15.6
0 0

0101101
*
Ed
 1.5e-07 1 1 0
1  129 0 -19.5 6.5
0

0101000
+235 2 -231 2 *
Ed
 1.5e-07 1 1 0
1  130 0 10.5 36.5
0

0101000
+231 2 -233 2 *
Wi

0101100
+234 0 +232 0 +230 0 +229 0 *
Ve
1e-07
-57.1 86 15.6
0 0

0101101
*
Ed
 1e-07 1 1 0
1  131 0 0 6.28318530717959
2  55 39 0 0 6.28318530717959
0

0101000
+227 2 -227 2 *
Wi

0101100
-226 0 *
Ve
1e-07
-51.925 86 15.6
0 0

0101101
*
Ed
 1e-07 1 1 0
1  132 0 0 6.28318530717959
2  56 40 0 0 6.28318530717959
0

0101000
+224 2 -224 2 *
Wi

0101100
-223 0 *
Ve
1e-07
-49.875 75 15.6
0 0

0101101
*
Ed
 1e-07 1 1 0
1  133 0 0 6.28318530717959
2  38 41 0 0 6.28318530717959
0

0101000
+221 42 -221 42 *
Wi

0101100
-220 41 *
Ve
1e-07
-49.875 82 15.6
0 0

0101101
*
Ed
 1e-07 1 1 0
1  134 0 0 6.28318530717959
2  38 42 0 0 6.28318530717959
0

0101000
+218 45 -218 45 *
Wi

0101100
-217 44 *
Ve
1e-07
-46.3936 81 15.6
0 0

0101101
*
Ed
 1e-07 1 1 0
1  135 0 0 6.28318530717959
2  57 43 0 0 6.28318530717959
0

0101000
+215 2 -215 2 *
Wi

0101100
-214 0 *
Ve
1e-07
-46.3936 83 15.6
0 0

0101101
*
Ed
 1e-07 1 1 0
1  136 0 0 6.28318530717959
2  58 44 0 0 6.28318530717959
0

0101000
+212 2 -212 2 *
Wi

0101100
-211 0 *
Ve
1e-07
-46.3936 85 15.6
0 0

0101101
*
Ed
 1e-07 1 1 0
1  137 0 0 6.28318530717959
2  59 45 0 0 6.28318530717959
0

0101000
+209 2 -209 2 *
Wi

0101100
-208 0 *
Ve
1e-07
-46.3936 87 15.6
0 0

0101101
*
Ed
 1e-07 1 1 0
1  138 0 0 6.28318530717959
2  60 46 0 0 6.28318530717959
0

0101000
+206 2 -206 2 *
Wi

0101100
-205 0 *
Ve
1e-07
-46.3936 89 15.6
0 0

0101101
*
Ed
 1e-07 1 1 0
1  139 0 0 6.28318530717959
2  61 47 0 0 6.28318530717959
0

0101000
+203 2 -203 2 *
Wi

0101100
-202 0 *
Ve
1e-07
-46.3936 91 15.6
0 0

0101101
*
Ed
 1e-07 1 1 0
1  140 0 0 6.28318530717959
2  62 48 0 0 6.28318530717959
0

0101000
+200 2 -200 2 *
Wi

0101100
-199 0 *
Fa
0  1e-07 49 0

0101000
+375 0 +372 0 +369 0 +366 0 +363 0 +360 0 +357 0 +354 0 +351 0 +348 0 
+345 0 +342 0 +339 0 +330 0 +327 0 +324 0 +321 0 +318 0 +315 0 +312 0 
+309 0 +300 0 +297 0 +294 0 +291 0 +288 0 +285 0 +282 0 +279 0 +276 0 
+273 0 +270 0 +267 0 +264 0 +261 0 +252 0 +243 0 +240 0 +237 0 +228 0 
+225 0 +222 0 +219 0 +216 0 +213 0 +210 0 +207 0 +204 0 +201 0 +198 0 
*
Wi

0101100
+561 0 -568 0 -556 0 +376 0 *
Fa
0  1e-07 50 0

0101000
+196 0 *
Ed
 1e-07 1 1 0
1  141 0 0 1.6
3  63 64CN 5 0 0 1.6
0

0101000
+554 2 -374 2 *
Wi

0101100
+194 0 -194 0 -553 0 +373 0 *
Fa
0  1e-07 5 0

0101000
+193 0 *
Ed
 1e-07 1 1 0
1  142 0 0 1.6
3  65 66CN 6 0 0 1.6
0

0101000
+551 2 -371 2 *
Wi

0101100
+191 0 -191 0 -550 0 +370 0 *
Fa
0  1e-07 6 0

0101000
+190 0 *
Ed
 1e-07 1 1 0
1  143 0 0 1.6
3  67 68CN 7 0 0 1.6
0

0101000
+548 2 -368 2 *
Wi

0101100
+188 0 -188 0 -547 0 +367 0 *
Fa
0  1e-07 7 0

0101000
+187 0 *
Ed
 1e-07 1 1 0
1  144 0 0 1.6
3  69 70CN 8 0 0 1.6
0

0101000
+545 2 -365 2 *
Wi

0101100
+185 0 -185 0 -544 0 +364 0 *
Fa
0  1e-07 8 0

0101000
+184 0 *
Ed
 1e-07 1 1 0
1  145 0 0 1.6
3  71 72CN 9 0 0 1.6
0

0101000
+542 2 -362 2 *
Wi

0101100
+182 0 -182 0 -541 0 +361 0 *
Fa
0  1e-07 9 0

0101000
+181 0 *
Ed
 1e-07 1 1 0
1  146 0 0 1.6
3  73 74CN 10 0 0 1.6
0

0101000
+539 2 -359 2 *
Wi

0101100
+179 0 -179 0 -538 0 +358 0 *
Fa
0  1e-07 10 0

0101000
+178 0 *
Ed
 1e-07 1 1 0
1  147 0 0 1.6
3  75 76CN 11 0 0 1.6
0

0101000
+536 6 -356 6 *
Wi

0101100
+176 0 -176 0 -535 0 +355 0 *
Fa
0  1e-07 11 0

0101000
+175 0 *
Ed
 1e-07 1 1 0
1  148 0 0 1.6
3  77 78CN 12 0 0 1.6
0

0101000
+533 2 -353 2 *
Wi

0101100
+173 0 -173 0 -532 0 +352 0 *
Fa
0  1e-07 12 0

0101000
+172 0 *
Ed
 1e-07 1 1 0
1  149 0 0 1.6
3  75 76CN 13 0 0 1.6
0

0101000
+530 9 -350 9 *
Wi

0101100
+170 0 -170 0 -529 0 +349 0 *
Fa
0  1e-07 13 0

0101000
+169 0 *
Ed
 1e-07 1 1 0
1  150 0 0 1.6
3  75 76CN 14 0 0 1.6
0

0101000
+527 12 -347 12 *
Wi

0101100
+167 0 -167 0 -526 0 +346 0 *
Fa
0  1e-07 14 0

0101000
+166 0 *
Ed
 1e-07 1 1 0
1  151 0 0 1.6
3  79 80CN 15 0 0 1.6
0

0101000
+524 2 -344 2 *
Wi

0101100
+164 0 -164 0 -523 0 +343 0 *
Fa
0  1e-07 15 0

0101000
+163 0 *
Ed
 1e-07 1 1 0
1  152 0 0 1.6
3  81 82CN 16 0 0 1.6
0

0101000
+521 2 -341 2 *
Wi

0101100
+161 0 -161 0 -520 0 +340 0 *
Fa
0  1e-07 16 0

0101000
+160 0 *
Ed
 1.5e-07 1 1 0
1  153 0 0 1.6
0

0101000
+518 2 -338 2 *
Ed
 1.5e-07 1 1 0
1  154 0 0 1.6
0

0101000
+517 2 -337 2 *
Wi

0101100
+158 0 -157 0 -516 0 +336 0 *
Fa
0  1.5e-07 51 0

0101000
+156 0 *
Ed
 1.5e-07 1 1 0
1  155 0 0 1.6
0

0101000
+515 2 -335 2 *
Wi

0101100
+154 0 -158 0 -514 0 +334 0 *
Fa
0  1.5e-07 52 0

0101000
+153 0 *
Ed
 1.5e-07 1 1 0
1  156 0 0 1.6
0

0101000
+513 2 -333 2 *
Wi

0101100
+157 0 -151 0 -512 0 +332 0 *
Fa
0  1.5e-07 53 0

0101000
+150 0 *
Wi

0101100
+151 0 -154 0 -511 0 +331 0 *
Fa
0  1.5e-07 54 0

0101000
+148 0 *
Ed
 1e-07 1 1 0
1  157 0 0 1.6
3  75 76CN 17 0 0 1.6
0

0101000
+509 15 -329 15 *
Wi

0101100
+146 0 -146 0 -508 0 +328 0 *
Fa
0  1e-07 17 0

0101000
+145 0 *
Ed
 1e-07 1 1 0
1  158 0 0 1.6
3  83 84CN 18 0 0 1.6
0

0101000
+506 2 -326 2 *
Wi

0101100
+143 0 -143 0 -505 0 +325 0 *
Fa
0  1e-07 18 0

0101000
+142 0 *
Ed
 1e-07 1 1 0
1  159 0 0 1.6
3  85 86CN 19 0 0 1.6
0

0101000
+503 2 -323 2 *
Wi

0101100
+140 0 -140 0 -502 0 +322 0 *
Fa
0  1e-07 19 0

0101000
+139 0 *
Ed
 1e-07 1 1 0
1  160 0 0 1.6
3  87 88CN 20 0 0 1.6
0

0101000
+500 2 -320 2 *
Wi

0101100
+137 0 -137 0 -499 0 +319 0 *
Fa
0  1e-07 20 0

0101000
+136 0 *
Ed
 1e-07 1 1 0
1  161 0 0 1.6
3  89 90CN 21 0 0 1.6
0

0101000
+497 2 -317 2 *
Wi

0101100
+134 0 -134 0 -496 0 +316 0 *
Fa
0  1e-07 21 0

0101000
+133 0 *
Ed
 1e-07 1 1 0
1  162 0 0 1.6
3  91 92CN 22 0 0 1.6
0

0101000
+494 2 -314 2 *
Wi

0101100
+131 0 -131 0 -493 0 +313 0 *
Fa
0  1e-07 22 0

0101000
+130 0 *
Ed
 1e-07 1 1 0
1  163 0 0 1.6
3  93 94CN 23 0 0 1.6
0

0101000
+491 2 -311 2 *
Wi

0101100
+128 0 -128 0 -490 0 +310 0 *
Fa
0  1e-07 23 0

0101000
+127 0 *
Ed
 1.5e-07 1 1 0
1  164 0 0 1.6
0

0101000
+488 2 -308 2 *
Ed
 1.5e-07 1 1 0
1  165 0 0 1.6
0

0101000
+487 2 -307 2 *
Wi

0101100
+125 0 -124 0 -486 0 +306 0 *
Fa
0  1.5e-07 55 0

0101000
+123 0 *
Ed
 1.5e-07 1 1 0
1  166 0 0 1.6
0

0101000
+485 2 -305 2 *
Wi

0101100
+121 0 -125 0 -484 0 +304 0 *
Fa
0  1.5e-07 56 0

0101000
+120 0 *
Ed
 1.5e-07 1 1 0
1  167 0 0 1.6
0

0101000
+483 2 -303 2 *
Wi

0101100
+124 0 -118 0 -482 0 +302 0 *
Fa
0  1.5e-07 57 0

0101000
+117 0 *
Wi

0101100
+118 0 -121 0 -481 0 +301 0 *
Fa
0  1.5e-07 58 0

0101000
+115 0 *
Ed
 1e-07 1 1 0
1  168 0 0 1.6
3  75 76CN 24 0 0 1.6
0

0101000
+479 18 -299 18 *
Wi

0101100
+113 0 -113 0 -478 0 +298 0 *
Fa
0  1e-07 24 0

0101000
+112 0 *
Ed
 1e-07 1 1 0
1  169 0 0 1.6
3  75 76CN 25 0 0 1.6
0

0101000
+476 21 -296 21 *
Wi

0101100
+110 0 -110 0 -475 0 +295 0 *
Fa
0  1e-07 25 0

0101000
+109 0 *
Ed
 1e-07 1 1 0
1  170 0 0 1.6
3  75 76CN 26 0 0 1.6
0

0101000
+473 24 -293 24 *
Wi

0101100
+107 0 -107 0 -472 0 +292 0 *
Fa
0  1e-07 26 0

0101000
+106 0 *
Ed
 1e-07 1 1 0
1  171 0 0 1.6
3  75 76CN 27 0 0 1.6
0

0101000
+470 27 -290 27 *
Wi

0101100
+104 0 -104 0 -469 0 +289 0 *
Fa
0  1e-07 27 0

0101000
+103 0 *
Ed
 1e-07 1 1 0
1  172 0 0 1.6
3  95 96CN 28 0 0 1.6
0

0101000
+467 2 -287 2 *
Wi

0101100
+101 0 -101 0 -466 0 +286 0 *
Fa
0  1e-07 28 0

0101000
+100 0 *
Ed
 1e-07 1 1 0
1  173 0 0 1.6
3  97 98CN 29 0 0 1.6
0

0101000
+464 2 -284 2 *
Wi

0101100
+98 0 -98 0 -463 0 +283 0 *
Fa
0  1e-07 29 0

0101000
+97 0 *
Ed
 1e-07 1 1 0
1  174 0 0 1.6
3  99 100CN 30 0 0 1.6
0

0101000
+461 2 -281 2 *
Wi

0101100
+95 0 -95 0 -460 0 +280 0 *
Fa
0  1e-07 30 0

0101000
+94 0 *
Ed
 1e-07 1 1 0
1  175 0 0 1.6
3  101 102CN 31 0 0 1.6
0

0101000
+458 2 -278 2 *
Wi

0101100
+92 0 -92 0 -457 0 +277 0 *
Fa
0  1e-07 31 0

0101000
+91 0 *
Ed
 1e-07 1 1 0
1  176 0 0 1.6
3  103 104CN 32 0 0 1.6
0

0101000
+455 2 -275 2 *
Wi

0101100
+89 0 -89 0 -454 0 +274 0 *
Fa
0  1e-07 32 0

0101000
+88 0 *
Ed
 1e-07 1 1 0
1  177 0 0 1.6
3  105 106CN 33 0 0 1.6
0

0101000
+452 2 -272 2 *
Wi

0101100
+86 0 -86 0 -451 0 +271 0 *
Fa
0  1e-07 33 0

0101000
+85 0 *
Ed
 1e-07 1 1 0
1  178 0 0 1.6
3  75 76CN 34 0 0 1.6
0

0101000
+449 30 -269 30 *
Wi

0101100
+83 0 -83 0 -448 0 +268 0 *
Fa
0  1e-07 34 0

0101000
+82 0 *
Ed
 1e-07 1 1 0
1  179 0 0 1.6
3  75 76CN 35 0 0 1.6
0

0101000
+446 33 -266 33 *
Wi

0101100
+80 0 -80 0 -445 0 +265 0 *
Fa
0  1e-07 35 0

0101000
+79 0 *
Ed
 1e-07 1 1 0
1  180 0 0 1.6
3  107 108CN 36 0 0 1.6
0

0101000
+443 2 -263 2 *
Wi

0101100
+77 0 -77 0 -442 0 +262 0 *
Fa
0  1e-07 36 0

0101000
+76 0 *
Ed
 1.5e-07 1 1 0
1  181 0 0 1.6
0

0101000
+440 2 -260 2 *
Ed
 1.5e-07 1 1 0
1  182 0 0 1.6
0

0101000
+439 2 -259 2 *
Wi

0101100
+74 0 -73 0 -438 0 +258 0 *
Fa
0  1.5e-07 59 0

0101000
+72 0 *
Ed
 1.5e-07 1 1 0
1  183 0 0 1.6
0

0101000
+437 2 -257 2 *
Wi

0101100
+70 0 -74 0 -436 0 +256 0 *
Fa
0  1.5e-07 60 0

0101000
+69 0 *
Ed
 1.5e-07 1 1 0
1  184 0 0 1.6
0

0101000
+435 2 -255 2 *
Wi

0101100
+73 0 -67 0 -434 0 +254 0 *
Fa
0  1.5e-07 61 0

0101000
+66 0 *
Wi

0101100
+67 0 -70 0 -433 0 +253 0 *
Fa
0  1.5e-07 62 0

0101000
+64 0 *
Ed
 1.5e-07 1 1 0
1  185 0 0 1.6
0

0101000
+431 2 -251 2 *
Ed
 1.5e-07 1 1 0
1  186 0 0 1.6
0

0101000
+430 2 -250 2 *
Wi

0101100
+62 0 -61 0 -429 0 +249 0 *
Fa
0  1.5e-07 63 0

0101000
+60 0 *
Ed
 1.5e-07 1 1 0
1  187 0 0 1.6
0

0101000
+428 2 -248 2 *
Wi

0101100
+58 0 -62 0 -427 0 +247 0 *
Fa
0  1.5e-07 64 0

0101000
+57 0 *
Ed
 1.5e-07 1 1 0
1  188 0 0 1.6
0

0101000
+426 2 -246 2 *
Wi

0101100
+61 0 -55 0 -425 0 +245 0 *
Fa
0  1.5e-07 65 0

0101000
+54 0 *
Wi

0101100
+55 0 -58 0 -424 0 +244 0 *
Fa
0  1.5e-07 66 0

0101000
+52 0 *
Ed
 1e-07 1 1 0
1  189 0 0 1.6
3  75 76CN 37 0 0 1.6
0

0101000
+422 36 -242 36 *
Wi

0101100
+50 0 -50 0 -421 0 +241 0 *
Fa
0  1e-07 37 0

0101000
+49 0 *
Ed
 1e-07 1 1 0
1  190 0 0 1.6
3  75 76CN 38 0 0 1.6
0

0101000
+419 39 -239 39 *
Wi

0101100
+47 0 -47 0 -418 0 +238 0 *
Fa
0  1e-07 38 0

0101000
+46 0 *
Ed
 1.5e-07 1 1 0
1  191 0 0 1.6
0

0101000
+416 2 -236 2 *
Ed
 1.5e-07 1 1 0
1  192 0 0 1.6
0

0101000
+415 2 -235 2 *
Wi

0101100
+44 0 -43 0 -414 0 +234 0 *
Fa
0  1.5e-07 67 0

0101000
+42 0 *
Ed
 1.5e-07 1 1 0
1  193 0 0 1.6
0

0101000
+413 2 -233 2 *
Wi

0101100
+40 0 -44 0 -412 0 +232 0 *
Fa
0  1.5e-07 68 0

0101000
+39 0 *
Ed
 1.5e-07 1 1 0
1  194 0 0 1.6
0

0101000
+411 2 -231 2 *
Wi

0101100
+43 0 -37 0 -410 0 +230 0 *
Fa
0  1.5e-07 69 0

0101000
+36 0 *
Wi

0101100
+37 0 -40 0 -409 0 +229 0 *
Fa
0  1.5e-07 70 0

0101000
+34 0 *
Ed
 1e-07 1 1 0
1  195 0 0 1.6
3  109 110CN 39 0 0 1.6
0

0101000
+407 2 -227 2 *
Wi

0101100
+32 0 -32 0 -406 0 +226 0 *
Fa
0  1e-07 39 0

0101000
+31 0 *
Ed
 1e-07 1 1 0
1  196 0 0 1.6
3  111 112CN 40 0 0 1.6
0

0101000
+404 2 -224 2 *
Wi

0101100
+29 0 -29 0 -403 0 +223 0 *
Fa
0  1e-07 40 0

0101000
+28 0 *
Ed
 1e-07 1 1 0
1  197 0 0 1.6
3  75 76CN 41 0 0 1.6
0

0101000
+401 42 -221 42 *
Wi

0101100
+26 0 -26 0 -400 0 +220 0 *
Fa
0  1e-07 41 0

0101000
+25 0 *
Ed
 1e-07 1 1 0
1  198 0 0 1.6
3  75 76CN 42 0 0 1.6
0

0101000
+398 45 -218 45 *
Wi

0101100
+23 0 -23 0 -397 0 +217 0 *
Fa
0  1e-07 42 0

0101000
+22 0 *
Ed
 1e-07 1 1 0
1  199 0 0 1.6
3  113 114CN 43 0 0 1.6
0

0101000
+395 2 -215 2 *
Wi

0101100
+20 0 -20 0 -394 0 +214 0 *
Fa
0  1e-07 43 0

0101000
+19 0 *
Ed
 1e-07 1 1 0
1  200 0 0 1.6
3  115 116CN 44 0 0 1.6
0

0101000
+392 2 -212 2 *
Wi

0101100
+17 0 -17 0 -391 0 +211 0 *
Fa
0  1e-07 44 0

0101000
+16 0 *
Ed
 1e-07 1 1 0
1  201 0 0 1.6
3  117 118CN 45 0 0 1.6
0

0101000
+389 2 -209 2 *
Wi

0101100
+14 0 -14 0 -388 0 +208 0 *
Fa
0  1e-07 45 0

0101000
+13 0 *
Ed
 1e-07 1 1 0
1  202 0 0 1.6
3  119 120CN 46 0 0 1.6
0

0101000
+386 2 -206 2 *
Wi

0101100
+11 0 -11 0 -385 0 +205 0 *
Fa
0  1e-07 46 0

0101000
+10 0 *
Ed
 1e-07 1 1 0
1  203 0 0 1.6
3  121 122CN 47 0 0 1.6
0

0101000
+383 2 -203 2 *
Wi

0101100
+8 0 -8 0 -382 0 +202 0 *
Fa
0  1e-07 47 0

0101000
+7 0 *
Ed
 1e-07 1 1 0
1  204 0 0 1.6
3  123 124CN 48 0 0 1.6
0

0101000
+380 2 -200 2 *
Wi

0101100
+5 0 -5 0 -379 0 +199 0 *
Fa
0  1e-07 48 0

0101000
+4 0 *
Sh

0101100
+571 0 +564 0 -557 0 -377 0 +197 0 +195 0 +192 0 +189 0 +186 0 +183 0 
+180 0 +177 0 +174 5 +171 0 +168 8 +165 11 +162 0 +159 0 -155 0 -152 0 
-149 0 -147 0 +144 14 +141 0 +138 0 +135 0 +132 0 +129 0 +126 0 -122 0 
-119 0 -116 0 -114 0 +111 17 +108 20 +105 23 +102 26 +99 0 +96 0 +93 0 
+90 0 +87 0 +84 0 +81 29 +78 32 +75 0 -71 0 -68 0 -65 0 -63 0 
-59 0 -56 0 -53 0 -51 0 +48 35 +45 38 -41 0 -38 0 -35 0 -33 0 
+30 0 +27 0 +24 41 +21 44 +18 0 +15 0 +12 0 +9 0 +6 0 +3 0 
*
So

0100000
+2 0 *

+1 1 