  0
SECTION
  2
HEADER
  9
$ACADVER
  1
AC1032
  9
$ACADMAINTVER
 90
        4
  9
$DWGCODEPAGE
  3
ANSI_1252
  9
$LASTSAVEDBY
  1
grey
  9
$REQUIREDVERSIONS
160
                 0
  9
$INSBASE
 10
0.0
 20
0.0
 30
0.0
  9
$EXTMIN
 10
-100.0
 20
-99.99999999999997
 30
0.0
  9
$EXTMAX
 10
100.0
 20
100.0
 30
0.0
  9
$LIMMIN
 10
0.0
 20
0.0
  9
$LIMMAX
 10
12.0
 20
9.0
  9
$ORTHOMODE
 70
     0
  9
$REGENMODE
 70
     1
  9
$FILLMODE
 70
     1
  9
$QTEXTMODE
 70
     0
  9
$MIRRTEXT
 70
     0
  9
$LTSCALE
 40
1.0
  9
$ATTMODE
 70
     1
  9
$TEXTSIZE
 40
0.2
  9
$TRACEWID
 40
0.05
  9
$TEXTSTYLE
  7
Standard
  9
$CLAYER
  8
illuminated
  9
$CELTYPE
  6
ByLayer
  9
$CECOLOR
 62
   256
  9
$CELTSCALE
 40
1.0
  9
$DISPSILH
 70
     0
  9
$DIMSCALE
 40
1.0
  9
$DIMASZ
 40
0.18
  9
$DIMEXO
 40
0.0625
  9
$DIMDLI
 40
0.38
  9
$DIMRND
 40
0.0
  9
$DIMDLE
 40
0.0
  9
$DIMEXE
 40
0.18
  9
$DIMTP
 40
0.0
  9
$DIMTM
 40
0.0
  9
$DIMTXT
 40
0.18
  9
$DIMCEN
 40
-0.09
  9
$DIMTSZ
 40
0.0
  9
$DIMTOL
 70
     0
  9
$DIMLIM
 70
     0
  9
$DIMTIH
 70
     1
  9
$DIMTOH
 70
     1
  9
$DIMSE1
 70
     0
  9
$DIMSE2
 70
     0
  9
$DIMTAD
 70
     0
  9
$DIMZIN
 70
     0
  9
$DIMBLK
  1

  9
$DIMASO
 70
     1
  9
$DIMSHO
 70
     1
  9
$DIMPOST
  1

  9
$DIMAPOST
  1

  9
$DIMALT
 70
     0
  9
$DIMALTD
 70
     2
  9
$DIMALTF
 40
25.4
  9
$DIMLFAC
 40
1.0
  9
$DIMTOFL
 70
     0
  9
$DIMTVP
 40
0.0
  9
$DIMTIX
 70
     0
  9
$DIMSOXD
 70
     0
  9
$DIMSAH
 70
     0
  9
$DIMBLK1
  1

  9
$DIMBLK2
  1

  9
$DIMSTYLE
  2
Standard
  9
$DIMCLRD
 70
     0
  9
$DIMCLRE
 70
     0
  9
$DIMCLRT
 70
     0
  9
$DIMTFAC
 40
1.0
  9
$DIMGAP
 40
0.09
  9
$DIMJUST
 70
     0
  9
$DIMSD1
 70
     0
  9
$DIMSD2
 70
     0
  9
$DIMTOLJ
 70
     1
  9
$DIMTZIN
 70
     0
  9
$DIMALTZ
 70
     0
  9
$DIMALTTZ
 70
     0
  9
$DIMUPT
 70
     0
  9
$DIMDEC
 70
     4
  9
$DIMTDEC
 70
     4
  9
$DIMALTU
 70
     2
  9
$DIMALTTD
 70
     2
  9
$DIMTXSTY
  7
Standard
  9
$DIMAUNIT
 70
     0
  9
$DIMADEC
 70
     0
  9
$DIMALTRND
 40
0.0
  9
$DIMAZIN
 70
     0
  9
$DIMDSEP
 70
    46
  9
$DIMATFIT
 70
     3
  9
$DIMFRAC
 70
     0
  9
$DIMLDRBLK
  1

  9
$DIMLUNIT
 70
     2
  9
$DIMLWD
 70
    -2
  9
$DIMLWE
 70
    -2
  9
$DIMTMOVE
 70
     0
  9
$DIMFXL
 40
1.0
  9
$DIMFXLON
 70
     0
  9
$DIMJOGANG
 40
0.7853981633974483
  9
$DIMTFILL
 70
     0
  9
$DIMTFILLCLR
 70
     0
  9
$DIMARCSYM
 70
     0
  9
$DIMLTYPE
  6

  9
$DIMLTEX1
  6

  9
$DIMLTEX2
  6

  9
$DIMTXTDIRECTION
 70
     0
  9
$LUNITS
 70
     2
  9
$LUPREC
 70
     4
  9
$SKETCHINC
 40
0.1
  9
$FILLETRAD
 40
1.0
  9
$AUNITS
 70
     0
  9
$AUPREC
 70
     0
  9
$MENU
  1
.
  9
$ELEVATION
 40
0.0
  9
$PELEVATION
 40
0.0
  9
$THICKNESS
 40
0.0
  9
$LIMCHECK
 70
     0
  9
$CHAMFERA
 40
0.0
  9
$CHAMFERB
 40
0.0
  9
$CHAMFERC
 40
0.0
  9
$CHAMFERD
 40
0.0
  9
$SKPOLY
 70
     0
  9
$TDCREATE
 40
2452643.063384271
  9
$TDUCREATE
 40
2452643.063384271
  9
$TDUPDATE
 40
2458909.37829316
  9
$TDUUPDATE
 40
2458909.37829316
  9
$TDINDWG
 40
0.0000000347
  9
$TDUSRTIMER
 40
0.000398669
  9
$USRTIMER
 70
     1
  9
$ANGBASE
 50
0.0
  9
$ANGDIR
 70
     0
  9
$PDMODE
 70
     0
  9
$PDSIZE
 40
0.0
  9
$PLINEWID
 40
0.0
  9
$SPLFRAME
 70
     0
  9
$SPLINETYPE
 70
     6
  9
$SPLINESEGS
 70
     8
  9
$HANDSEED
  5
A23
  9
$SURFTAB1
 70
     6
  9
$SURFTAB2
 70
     6
  9
$SURFTYPE
 70
     6
  9
$SURFU
 70
     6
  9
$SURFV
 70
     6
  9
$UCSBASE
  2

  9
$UCSNAME
  2

  9
$UCSORG
 10
0.0
 20
0.0
 30
0.0
  9
$UCSXDIR
 10
1.0
 20
0.0
 30
0.0
  9
$UCSYDIR
 10
0.0
 20
1.0
 30
0.0
  9
$UCSORTHOREF
  2

  9
$UCSORTHOVIEW
 70
     0
  9
$UCSORGTOP
 10
0.0
 20
0.0
 30
0.0
  9
$UCSORGBOTTOM
 10
0.0
 20
0.0
 30
0.0
  9
$UCSORGLEFT
 10
0.0
 20
0.0
 30
0.0
  9
$UCSORGRIGHT
 10
0.0
 20
0.0
 30
0.0
  9
$UCSORGFRONT
 10
0.0
 20
0.0
 30
0.0
  9
$UCSORGBACK
 10
0.0
 20
0.0
 30
0.0
  9
$PUCSBASE
  2

  9
$PUCSNAME
  2

  9
$PUCSORG
 10
0.0
 20
0.0
 30
0.0
  9
$PUCSXDIR
 10
1.0
 20
0.0
 30
0.0
  9
$PUCSYDIR
 10
0.0
 20
1.0
 30
0.0
  9
$PUCSORTHOREF
  2

  9
$PUCSORTHOVIEW
 70
     0
  9
$PUCSORGTOP
 10
0.0
 20
0.0
 30
0.0
  9
$PUCSORGBOTTOM
 10
0.0
 20
0.0
 30
0.0
  9
$PUCSORGLEFT
 10
0.0
 20
0.0
 30
0.0
  9
$PUCSORGRIGHT
 10
0.0
 20
0.0
 30
0.0
  9
$PUCSORGFRONT
 10
0.0
 20
0.0
 30
0.0
  9
$PUCSORGBACK
 10
0.0
 20
0.0
 30
0.0
  9
$USERI1
 70
     0
  9
$USERI2
 70
     0
  9
$USERI3
 70
     0
  9
$USERI4
 70
     0
  9
$USERI5
 70
     0
  9
$USERR1
 40
0.0
  9
$USERR2
 40
0.0
  9
$USERR3
 40
0.0
  9
$USERR4
 40
0.0
  9
$USERR5
 40
0.0
  9
$WORLDVIEW
 70
     1
  9
$SHADEDGE
 70
     3
  9
$SHADEDIF
 70
    70
  9
$TILEMODE
 70
     1
  9
$MAXACTVP
 70
    64
  9
$PINSBASE
 10
0.0
 20
0.0
 30
0.0
  9
$PLIMCHECK
 70
     0
  9
$PEXTMIN
 10
0.0
 20
0.0
 30
0.0
  9
$PEXTMAX
 10
0.0
 20
0.0
 30
0.0
  9
$PLIMMIN
 10
0.0
 20
0.0
  9
$PLIMMAX
 10
0.0
 20
0.0
  9
$UNITMODE
 70
     0
  9
$VISRETAIN
 70
     1
  9
$PLINEGEN
 70
     0
  9
$PSLTSCALE
 70
     1
  9
$TREEDEPTH
 70
  3020
  9
$CMLSTYLE
  2
Standard
  9
$CMLJUST
 70
     0
  9
$CMLSCALE
 40
1.0
  9
$PROXYGRAPHICS
 70
     1
  9
$MEASUREMENT
 70
     0
  9
$CELWEIGHT
370
    -1
  9
$ENDCAPS
280
     0
  9
$JOINSTYLE
280
     0
  9
$LWDISPLAY
290
     0
  9
$INSUNITS
 70
     1
  9
$HYPERLINKBASE
  1

  9
$STYLESHEET
  1

  9
$XEDIT
290
     1
  9
$CEPSNTYPE
380
     0
  9
$PSTYLEMODE
290
     1
  9
$FINGERPRINTGUID
  2
{FDEAD576-A652-11D2-9A35-0060089B3A3F}
  9
$VERSIONGUID
  2
{FBC2AE19-5C5C-49EC-81BC-71B1A3362A02}
  9
$EXTNAMES
290
     1
  9
$PSVPSCALE
 40
0.0
  9
$OLESTARTUP
290
     0
  9
$SORTENTS
280
   127
  9
$INDEXCTL
280
     0
  9
$HIDETEXT
280
     1
  9
$XCLIPFRAME
280
     0
  9
$HALOGAP
280
     0
  9
$OBSCOLOR
 70
   257
  9
$OBSLTYPE
280
     0
  9
$INTERSECTIONDISPLAY
280
     0
  9
$INTERSECTIONCOLOR
 70
   257
  9
$DIMASSOC
280
     2
  9
$PROJECTNAME
  1

  9
$CAMERADISPLAY
290
     0
  9
$LENSLENGTH
 40
50.0
  9
$CAMERAHEIGHT
 40
0.0
  9
$STEPSPERSEC
 40
2.0
  9
$STEPSIZE
 40
6.0
  9
$3DDWFPREC
 40
2.0
  9
$PSOLWIDTH
 40
0.25
  9
$PSOLHEIGHT
 40
4.0
  9
$LOFTANG1
 40
1.570796326794897
  9
$LOFTANG2
 40
1.570796326794897
  9
$LOFTMAG1
 40
0.0
  9
$LOFTMAG2
 40
0.0
  9
$LOFTPARAM
 70
     7
  9
$LOFTNORMALS
280
     1
  9
$LATITUDE
 40
37.795
  9
$LONGITUDE
 40
-122.394
  9
$NORTHDIRECTION
 40
0.0
  9
$TIMEZONE
 70
 -8000
  9
$LIGHTGLYPHDISPLAY
280
     1
  9
$TILEMODELIGHTSYNCH
280
     1
  9
$CMATERIAL
347
96
  9
$SOLIDHIST
280
     1
  9
$SHOWHIST
280
     1
  9
$DWFFRAME
280
     2
  9
$DGNFRAME
280
     2
  9
$REALWORLDSCALE
290
     1
  9
$INTERFERECOLOR
 62
     1
  9
$CSHADOW
280
     0
  9
$SHADOWPLANELOCATION
 40
0.0
  0
ENDSEC
  0
SECTION
  2
CLASSES
  0
CLASS
  1
ACDBDICTIONARYWDFLT
  2
AcDbDictionaryWithDefault
  3
ObjectDBX Classes
 90
        0
 91
        3
280
     0
281
     0
  0
CLASS
  1
ACDBPLACEHOLDER
  2
AcDbPlaceHolder
  3
ObjectDBX Classes
 90
        0
 91
        1
280
     0
281
     0
  0
CLASS
  1
LAYOUT
  2
AcDbLayout
  3
ObjectDBX Classes
 90
        0
 91
        1
280
     0
281
     0
  0
CLASS
  1
DICTIONARYVAR
  2
AcDbDictionaryVar
  3
ObjectDBX Classes
 90
        0
 91
        3
280
     0
281
     0
  0
CLASS
  1
TABLESTYLE
  2
AcDbTableStyle
  3
ObjectDBX Classes
 90
     4095
 91
        3
280
     0
281
     0
  0
CLASS
  1
MATERIAL
  2
AcDbMaterial
  3
ObjectDBX Classes
 90
     1153
 91
        3
280
     0
281
     0
  0
CLASS
  1
VISUALSTYLE
  2
AcDbVisualStyle
  3
ObjectDBX Classes
 90
     4095
 91
        3
280
     0
281
     0
  0
CLASS
  1
SCALE
  2
AcDbScale
  3
ObjectDBX Classes
 90
     1153
 91
        3
280
     0
281
     0
  0
CLASS
  1
CELLSTYLEMAP
  2
AcDbCellStyleMap
  3
ObjectDBX Classes
 90
     1152
 91
        3
280
     0
281
     0
  0
CLASS
  1
RASTERVARIABLES
  2
AcDbRasterVariables
  3
ISM
 90
        0
 91
        3
280
     0
281
     0
  0
CLASS
  1
SUN
  2
AcDbSun
  3
SCENEOE
 90
     1153
 91
        3
280
     0
281
     0
  0
CLASS
  1
MLEADERSTYLE
  2
AcDbMLeaderStyle
  3
ACDB_MLEADERSTYLE_CLASS
 90
     4095
 91
        3
280
     0
281
     0
  0
CLASS
  1
DIMASSOC
  2
AcDbDimAssoc
  3
"AcDbDimAssoc|Product Desc:     AcDim ARX App For Dimension|Company:          Autodesk, Inc.|WEB Address:      www.autodesk.com"
 90
        0
 91
        3
280
     0
281
     0
  0
ENDSEC
  0
SECTION
  2
TABLES
  0
TABLE
  2
VPORT
  5
8
330
0
100
AcDbSymbolTable
 70
     1
  0
VPORT
  5
94
330
8
100
AcDbSymbolTableRecord
100
AcDbViewportTableRecord
  2
*Active
 70
     0
 10
0.0
 20
0.0
 11
1.0
 21
1.0
 12
78.687046891372
 22
21.27505473464321
 13
0.0
 23
0.0
 14
0.5
 24
0.5
 15
0.5
 25
0.5
 16
0.0
 26
0.0
 36
1.0
 17
-27.66959356597999
 27
-19.53870295786205
 37
0.0
 40
250.2409708020915
 41
1.968807339449541
 42
50.0
 43
0.0
 44
0.0
 50
0.0
 51
0.0
 71
    16
 72
  1000
 73
     1
 74
     3
 75
     0
 76
     0
 77
     0
 78
     0
281
     0
 65
     1
110
0.0
120
0.0
130
0.0
111
1.0
121
0.0
131
0.0
112
0.0
122
1.0
132
0.0
 79
     0
146
0.0
348
9F
 60
     2
 61
     5
292
     1
282
     1
141
0.0
142
0.0
 63
   250
421
  3355443
361
ED
  0
ENDTAB
  0
TABLE
  2
LTYPE
  5
5
330
0
100
AcDbSymbolTable
 70
     1
  0
LTYPE
  5
14
330
5
100
AcDbSymbolTableRecord
100
AcDbLinetypeTableRecord
  2
ByBlock
 70
     0
  3

 72
    65
 73
     0
 40
0.0
  0
LTYPE
  5
15
330
5
100
AcDbSymbolTableRecord
100
AcDbLinetypeTableRecord
  2
ByLayer
 70
     0
  3

 72
    65
 73
     0
 40
0.0
  0
LTYPE
  5
16
330
5
100
AcDbSymbolTableRecord
100
AcDbLinetypeTableRecord
  2
Continuous
 70
     0
  3
Solid line
 72
    65
 73
     0
 40
0.0
  0
ENDTAB
  0
TABLE
  2
LAYER
  5
2
102
{ACAD_XDICTIONARY
360
13F
102
}
330
0
100
AcDbSymbolTable
 70
    20
  0
LAYER
  5
10
330
2
100
AcDbSymbolTableRecord
100
AcDbLayerTableRecord
  2
0
 70
     0
 62
    -7
  6
Continuous
370
    -3
390
F
347
98
348
0
  0
LAYER
  5
12E
330
2
100
AcDbSymbolTableRecord
100
AcDbLayerTableRecord
  2
their_pin_centers
 70
     0
 62
    -7
  6
Continuous
370
    -3
390
F
347
98
348
0
1001
AcAecLayerStandard
1000

1000

  0
LAYER
  5
14A
330
2
100
AcDbSymbolTableRecord
100
AcDbLayerTableRecord
  2
substrates
 70
     0
 62
     7
  6
Continuous
290
     0
370
    -3
390
F
347
98
348
0
1001
AcAecLayerStandard
1000

1000

  0
LAYER
  5
1AA
330
2
100
AcDbSymbolTableRecord
100
AcDbLayerTableRecord
  2
Defpoints
 70
     0
 62
    -7
  6
Continuous
290
     0
370
    -3
390
F
347
98
348
0
  0
LAYER
  5
228
330
2
100
AcDbSymbolTableRecord
100
AcDbLayerTableRecord
  2
pcb
 70
     0
 62
     7
  6
Continuous
370
    -3
390
F
347
98
348
0
1001
AcAecLayerStandard
1000

1000

  0
LAYER
  5
252
330
2
100
AcDbSymbolTableRecord
100
AcDbLayerTableRecord
  2
dims
 70
     0
 62
     3
  6
Continuous
370
    -3
390
F
347
98
348
0
1001
AcAecLayerStandard
1000

1000

  0
LAYER
  5
258
330
2
100
AcDbSymbolTableRecord
100
AcDbLayerTableRecord
  2
pin_holes
 70
     0
 62
     7
  6
Continuous
370
    -3
390
F
347
98
348
0
1001
AcAecLayerStandard
1000

1000

  0
LAYER
  5
2B6
330
2
100
AcDbSymbolTableRecord
100
AcDbLayerTableRecord
  2
my_pin_centers
 70
     0
 62
     7
  6
Continuous
370
    -3
390
F
347
98
348
0
1001
AcAecLayerStandard
1000

1000

  0
LAYER
  5
493
330
2
100
AcDbSymbolTableRecord
100
AcDbLayerTableRecord
  2
connector
 70
     0
 62
     7
  6
Continuous
370
    -3
390
F
347
98
348
0
1001
AcAecLayerStandard
1000

1000

  0
LAYER
  5
4C8
330
2
100
AcDbSymbolTableRecord
100
AcDbLayerTableRecord
  2
illuminated
 70
     0
 62
     2
  6
Continuous
370
    -3
390
F
347
98
348
0
1001
AcAecLayerStandard
1000

1000

  0
LAYER
  5
50D
330
2
100
AcDbSymbolTableRecord
100
AcDbLayerTableRecord
  2
cu_base
 70
     0
 62
     7
  6
Continuous
370
    -3
390
F
347
98
348
0
1001
AcAecLayerStandard
1000

1000

  0
LAYER
  5
523
330
2
100
AcDbSymbolTableRecord
100
AcDbLayerTableRecord
  2
3K7_press_fit
 70
     0
 62
     7
  6
Continuous
290
     0
370
    -3
390
F
347
98
348
0
1001
AcAecLayerStandard
1000

1000

  0
LAYER
  5
558
330
2
100
AcDbSymbolTableRecord
100
AcDbLayerTableRecord
  2
dowel
 70
     0
 62
     7
  6
Continuous
290
     0
370
    -3
390
F
347
98
348
0
1001
AcAecLayerStandard
1000

1000

  0
LAYER
  5
571
330
2
100
AcDbSymbolTableRecord
100
AcDbLayerTableRecord
  2
slot_plate
 70
     0
 62
     7
  6
Continuous
370
    -3
390
F
347
98
348
0
1001
AcAecLayerStandard
1000

1000

  0
LAYER
  5
669
330
2
100
AcDbSymbolTableRecord
100
AcDbLayerTableRecord
  2
slot_plate_slide_3C9
 70
     0
 62
     7
  6
Continuous
370
    -3
390
F
347
98
348
0
1001
AcAecLayerStandard
1000

1000

  0
LAYER
  5
75D
330
2
100
AcDbSymbolTableRecord
100
AcDbLayerTableRecord
  2
walls
 70
     0
 62
     7
  6
Continuous
370
    -3
390
F
347
98
348
0
1001
AcAecLayerStandard
1000

1000

  0
LAYER
  5
815
330
2
100
AcDbSymbolTableRecord
100
AcDbLayerTableRecord
  2
corner_holes
 70
     0
 62
     7
  6
Continuous
370
    -3
390
F
347
98
348
0
1001
AcAecLayerStandard
1000

1000

  0
LAYER
  5
825
330
2
100
AcDbSymbolTableRecord
100
AcDbLayerTableRecord
  2
corner_socket_head
 70
     0
 62
     7
  6
Continuous
370
    -3
390
F
347
98
348
0
1001
AcAecLayerStandard
1000

1000

  0
LAYER
  5
861
330
2
100
AcDbSymbolTableRecord
100
AcDbLayerTableRecord
  2
pusher
 70
     0
 62
     7
  6
Continuous
370
    -3
390
F
347
98
348
0
1001
AcAecLayerStandard
1000

1000

  0
LAYER
  5
9C7
330
2
100
AcDbSymbolTableRecord
100
AcDbLayerTableRecord
  2
clamper_clearance
 70
     0
 62
     7
  6
Continuous
370
    -3
390
F
347
98
348
0
1001
AcAecLayerStandard
1000

1000

  0
ENDTAB
  0
TABLE
  2
STYLE
  5
3
330
0
100
AcDbSymbolTable
 70
     2
  0
STYLE
  5
11
330
3
100
AcDbSymbolTableRecord
100
AcDbTextStyleTableRecord
  2
Standard
 70
     0
 40
0.0
 41
1.0
 50
0.0
 71
     0
 42
0.2
  3
arial.ttf
  4

1001
ACAD
1000
Arial
1071
        0
  0
STYLE
  5
125
330
3
100
AcDbSymbolTableRecord
100
AcDbTextStyleTableRecord
  2
Annotative
 70
     0
 40
0.0
 41
1.0
 50
0.0
 71
     0
 42
0.2
  3
arial.ttf
  4

1001
ACAD
1000
Arial
1071
        0
1001
AcadAnnotative
1000
AnnotativeData
1002
{
1070
     1
1070
     1
1002
}
  0
ENDTAB
  0
TABLE
  2
VIEW
  5
6
330
0
100
AcDbSymbolTable
 70
     0
  0
ENDTAB
  0
TABLE
  2
UCS
  5
7
330
0
100
AcDbSymbolTable
 70
     0
  0
ENDTAB
  0
TABLE
  2
APPID
  5
9
330
0
100
AcDbSymbolTable
 70
     4
  0
APPID
  5
12
330
9
100
AcDbSymbolTableRecord
100
AcDbRegAppTableRecord
  2
ACAD
 70
     0
  0
APPID
  5
126
330
9
100
AcDbSymbolTableRecord
100
AcDbRegAppTableRecord
  2
AcadAnnotative
 70
     0
  0
APPID
  5
130
330
9
100
AcDbSymbolTableRecord
100
AcDbRegAppTableRecord
  2
AcAecLayerStandard
 70
     0
  0
APPID
  5
8B9
330
9
100
AcDbSymbolTableRecord
100
AcDbRegAppTableRecord
  2
ACAD_DSTYLE_DIMRADIAL_EXTENSION
 70
     0
  0
ENDTAB
  0
TABLE
  2
DIMSTYLE
  5
A
330
0
100
AcDbSymbolTable
 70
     3
100
AcDbDimStyleTable
  0
DIMSTYLE
105
27
330
A
100
AcDbSymbolTableRecord
100
AcDbDimStyleTableRecord
  2
Standard
 70
     0
141
-0.09
178
     0
340
11
  0
DIMSTYLE
105
127
330
A
100
AcDbSymbolTableRecord
100
AcDbDimStyleTableRecord
  2
Annotative
 70
     0
 40
0.0
141
-0.09
178
     0
340
11
1001
AcadAnnotative
1000
AnnotativeData
1002
{
1070
     1
1070
     1
1002
}
  0
DIMSTYLE
105
131
330
A
100
AcDbSymbolTableRecord
100
AcDbDimStyleTableRecord
  2
ISO-25
 70
     0
 41
2.5
 42
0.625
 43
3.75
 44
1.25
 73
     0
 74
     0
 77
     1
 78
     8
140
2.5
141
-2.5
143
0.03937007874016
147
0.625
171
     3
172
     1
178
     0
271
     2
272
     2
274
     3
278
    44
283
     0
284
     8
340
11
  0
ENDTAB
  0
TABLE
  2
BLOCK_RECORD
  5
1
330
0
100
AcDbSymbolTable
 70
     3
  0
BLOCK_RECORD
  5
1F
330
1
100
AcDbSymbolTableRecord
100
AcDbBlockTableRecord
  2
*Model_Space
340
22
 70
     0
280
     1
281
     0
  0
BLOCK_RECORD
  5
58
330
1
100
AcDbSymbolTableRecord
100
AcDbBlockTableRecord
  2
*Paper_Space
340
59
 70
     0
280
     1
281
     0
  0
BLOCK_RECORD
  5
5D
330
1
100
AcDbSymbolTableRecord
100
AcDbBlockTableRecord
  2
*Paper_Space0
340
5E
 70
     0
280
     1
281
     0
  0
BLOCK_RECORD
  5
294
330
1
100
AcDbSymbolTableRecord
100
AcDbBlockTableRecord
  2
*D1
340
0
 70
     0
280
     1
281
     0
  0
BLOCK_RECORD
  5
2A4
330
1
100
AcDbSymbolTableRecord
100
AcDbBlockTableRecord
  2
*D2
340
0
 70
     0
280
     1
281
     0
  0
ENDTAB
  0
ENDSEC
  0
SECTION
  2
BLOCKS
  0
BLOCK
  5
20
330
1F
100
AcDbEntity
  8
0
100
AcDbBlockBegin
  2
*Model_Space
 70
     0
 10
0.0
 20
0.0
 30
0.0
  3
*Model_Space
  1

  0
ENDBLK
  5
21
330
1F
100
AcDbEntity
  8
0
100
AcDbBlockEnd
  0
BLOCK
  5
5A
330
58
100
AcDbEntity
 67
     1
  8
0
100
AcDbBlockBegin
  2
*Paper_Space
 70
     0
 10
0.0
 20
0.0
 30
0.0
  3
*Paper_Space
  1

  0
ENDBLK
  5
5B
330
58
100
AcDbEntity
 67
     1
  8
0
100
AcDbBlockEnd
  0
BLOCK
  5
5F
330
5D
100
AcDbEntity
  8
0
100
AcDbBlockBegin
  2
*Paper_Space0
 70
     0
 10
0.0
 20
0.0
 30
0.0
  3
*Paper_Space0
  1

  0
ENDBLK
  5
60
330
5D
100
AcDbEntity
  8
0
100
AcDbBlockEnd
  0
BLOCK
  5
295
330
294
100
AcDbEntity
  8
0
100
AcDbBlockBegin
  2
*D1
 70
     1
 10
0.0
 20
0.0
 30
0.0
  3
*D1
  1

  0
LINE
  5
297
330
294
100
AcDbEntity
  8
dims
 62
     0
370
    -2
100
AcDbLine
 10
134.8820954885375
 20
29.31946194409448
 30
0.0
 11
134.8820954885375
 21
31.90034956019148
 31
0.0
  0
LINE
  5
298
330
294
100
AcDbEntity
  8
dims
 62
     0
370
    -2
100
AcDbLine
 10
135.9335265080959
 20
29.31946194409448
 30
0.0
 11
135.9335265080959
 21
31.90034956019148
 31
0.0
  0
LINE
  5
299
330
294
100
AcDbEntity
  8
dims
 62
     0
370
    -2
100
AcDbLine
 10
134.7020954885375
 20
31.72034956019148
 30
0.0
 11
134.5220954885375
 21
31.72034956019148
 31
0.0
  0
LINE
  5
29A
330
294
100
AcDbEntity
  8
dims
 62
     0
370
    -2
100
AcDbLine
 10
136.1135265080959
 20
31.72034956019148
 30
0.0
 11
136.2935265080959
 21
31.72034956019148
 31
0.0
  0
SOLID
  5
29B
330
294
100
AcDbEntity
  8
dims
 62
     0
100
AcDbTrace
 10
134.7020954885375
 20
31.69034956019147
 30
0.0
 11
134.7020954885375
 21
31.75034956019148
 31
0.0
 12
134.8820954885375
 22
31.72034956019148
 32
0.0
 13
134.8820954885375
 23
31.72034956019148
 33
0.0
  0
SOLID
  5
29C
330
294
100
AcDbEntity
  8
dims
 62
     0
100
AcDbTrace
 10
136.1135265080959
 20
31.75034956019148
 30
0.0
 11
136.1135265080959
 21
31.69034956019147
 31
0.0
 12
135.9335265080959
 22
31.72034956019148
 32
0.0
 13
135.9335265080959
 23
31.72034956019148
 33
0.0
  0
MTEXT
  5
29D
330
294
100
AcDbEntity
  8
dims
 62
     0
100
AcDbMText
 10
135.4078109983167
 20
31.72034956019148
 30
0.0
 40
0.18
 41
0.0
 46
0.0
 71
     5
 72
     1
  1
\A1;1.0514
 73
     1
 44
1.0
  0
POINT
  5
29E
330
294
100
AcDbEntity
  8
Defpoints
 62
     0
100
AcDbPoint
 10
134.8820954885375
 20
29.25696194409448
 30
0.0
  0
POINT
  5
29F
330
294
100
AcDbEntity
  8
Defpoints
 62
     0
100
AcDbPoint
 10
135.9335265080959
 20
29.25696194409448
 30
0.0
  0
POINT
  5
2A0
330
294
100
AcDbEntity
  8
Defpoints
 62
     0
100
AcDbPoint
 10
135.9335265080959
 20
31.72034956019148
 30
0.0
  0
ENDBLK
  5
296
330
294
100
AcDbEntity
  8
0
100
AcDbBlockEnd
  0
BLOCK
  5
2A5
330
2A4
100
AcDbEntity
  8
0
100
AcDbBlockBegin
  2
*D2
 70
     1
 10
0.0
 20
0.0
 30
0.0
  3
*D2
  1

  0
LINE
  5
2A7
330
2A4
100
AcDbEntity
  8
dims
 62
     0
370
    -2
100
AcDbLine
 10
137.3820954885375
 20
29.31946194409448
 30
0.0
 11
137.3820954885375
 21
32.56927485508007
 31
0.0
  0
LINE
  5
2A8
330
2A4
100
AcDbEntity
  8
dims
 62
     0
370
    -2
100
AcDbLine
 10
135.9335265080959
 20
29.31946194409448
 30
0.0
 11
135.9335265080959
 21
32.56927485508007
 31
0.0
  0
LINE
  5
2A9
330
2A4
100
AcDbEntity
  8
dims
 62
     0
370
    -2
100
AcDbLine
 10
137.5620954885375
 20
32.38927485508007
 30
0.0
 11
137.7420954885375
 21
32.38927485508007
 31
0.0
  0
LINE
  5
2AA
330
2A4
100
AcDbEntity
  8
dims
 62
     0
370
    -2
100
AcDbLine
 10
135.7535265080959
 20
32.38927485508007
 30
0.0
 11
135.5735265080959
 21
32.38927485508007
 31
0.0
  0
SOLID
  5
2AB
330
2A4
100
AcDbEntity
  8
dims
 62
     0
100
AcDbTrace
 10
137.5620954885375
 20
32.41927485508008
 30
0.0
 11
137.5620954885375
 21
32.35927485508007
 31
0.0
 12
137.3820954885375
 22
32.38927485508007
 32
0.0
 13
137.3820954885375
 23
32.38927485508007
 33
0.0
  0
SOLID
  5
2AC
330
2A4
100
AcDbEntity
  8
dims
 62
     0
100
AcDbTrace
 10
135.7535265080959
 20
32.35927485508007
 30
0.0
 11
135.7535265080959
 21
32.41927485508008
 31
0.0
 12
135.9335265080959
 22
32.38927485508007
 32
0.0
 13
135.9335265080959
 23
32.38927485508007
 33
0.0
  0
MTEXT
  5
2AD
330
2A4
100
AcDbEntity
  8
dims
 62
     0
100
AcDbMText
 10
136.6578109983167
 20
32.38927485508007
 30
0.0
 40
0.18
 41
0.0
 46
0.0
 71
     5
 72
     1
  1
\A1;1.4486
 73
     1
 44
1.0
  0
POINT
  5
2AE
330
2A4
100
AcDbEntity
  8
Defpoints
 62
     0
100
AcDbPoint
 10
137.3820954885375
 20
29.25696194409448
 30
0.0
  0
POINT
  5
2AF
330
2A4
100
AcDbEntity
  8
Defpoints
 62
     0
100
AcDbPoint
 10
135.9335265080959
 20
29.25696194409448
 30
0.0
  0
POINT
  5
2B0
330
2A4
100
AcDbEntity
  8
Defpoints
 62
     0
100
AcDbPoint
 10
135.9335265080959
 20
32.38927485508007
 30
0.0
  0
ENDBLK
  5
2A6
330
2A4
100
AcDbEntity
  8
0
100
AcDbBlockEnd
  0
ENDSEC
  0
SECTION
  2
ENTITIES
  0
CIRCLE
  5
1C3
330
1F
100
AcDbEntity
  8
their_pin_centers
100
AcDbCircle
 10
-43.55143101955836
 20
-68.0
 30
0.0
 40
0.1
  0
CIRCLE
  5
1C4
330
1F
100
AcDbEntity
  8
their_pin_centers
100
AcDbCircle
 10
-41.05143101955836
 20
-68.0
 30
0.0
 40
0.1
  0
CIRCLE
  5
1C8
330
1F
100
AcDbEntity
  8
their_pin_centers
100
AcDbCircle
 10
-8.551431019558365
 20
-68.0
 30
0.0
 40
0.1
  0
CIRCLE
  5
1C9
330
1F
100
AcDbEntity
  8
their_pin_centers
100
AcDbCircle
 10
-6.051431019558365
 20
-68.0
 30
0.0
 40
0.1
  0
CIRCLE
  5
1CD
330
1F
100
AcDbEntity
  8
their_pin_centers
100
AcDbCircle
 10
26.44856898044164
 20
-68.0
 30
0.0
 40
0.1
  0
CIRCLE
  5
1CE
330
1F
100
AcDbEntity
  8
their_pin_centers
100
AcDbCircle
 10
28.94856898044164
 20
-68.0
 30
0.0
 40
0.1
  0
CIRCLE
  5
1D2
330
1F
100
AcDbEntity
  8
their_pin_centers
100
AcDbCircle
 10
61.44856898044164
 20
-68.0
 30
0.0
 40
0.1
  0
CIRCLE
  5
1D3
330
1F
100
AcDbEntity
  8
their_pin_centers
100
AcDbCircle
 10
63.94856898044164
 20
-68.0
 30
0.0
 40
0.1
  0
CIRCLE
  5
1D7
330
1F
100
AcDbEntity
  8
their_pin_centers
100
AcDbCircle
 10
-43.55143101955837
 20
-39.0
 30
0.0
 40
0.1
  0
CIRCLE
  5
1D8
330
1F
100
AcDbEntity
  8
their_pin_centers
100
AcDbCircle
 10
-41.05143101955837
 20
-39.0
 30
0.0
 40
0.1
  0
CIRCLE
  5
1DC
330
1F
100
AcDbEntity
  8
their_pin_centers
100
AcDbCircle
 10
-8.551431019558372
 20
-39.0
 30
0.0
 40
0.1
  0
CIRCLE
  5
1DD
330
1F
100
AcDbEntity
  8
their_pin_centers
100
AcDbCircle
 10
-6.051431019558372
 20
-39.0
 30
0.0
 40
0.1
  0
CIRCLE
  5
1E1
330
1F
100
AcDbEntity
  8
their_pin_centers
100
AcDbCircle
 10
26.44856898044164
 20
-39.0
 30
0.0
 40
0.1
  0
CIRCLE
  5
1E2
330
1F
100
AcDbEntity
  8
their_pin_centers
100
AcDbCircle
 10
28.94856898044164
 20
-39.0
 30
0.0
 40
0.1
  0
CIRCLE
  5
1E6
330
1F
100
AcDbEntity
  8
their_pin_centers
100
AcDbCircle
 10
61.44856898044164
 20
-39.0
 30
0.0
 40
0.1
  0
CIRCLE
  5
1E7
330
1F
100
AcDbEntity
  8
their_pin_centers
100
AcDbCircle
 10
63.94856898044164
 20
-39.0
 30
0.0
 40
0.1
  0
CIRCLE
  5
1EB
330
1F
100
AcDbEntity
  8
their_pin_centers
100
AcDbCircle
 10
-43.55143101955838
 20
-10.0
 30
0.0
 40
0.1
  0
CIRCLE
  5
1EC
330
1F
100
AcDbEntity
  8
their_pin_centers
100
AcDbCircle
 10
-41.05143101955838
 20
-10.0
 30
0.0
 40
0.1
  0
CIRCLE
  5
1F0
330
1F
100
AcDbEntity
  8
their_pin_centers
100
AcDbCircle
 10
-8.551431019558379
 20
-10.0
 30
0.0
 40
0.1
  0
CIRCLE
  5
1F1
330
1F
100
AcDbEntity
  8
their_pin_centers
100
AcDbCircle
 10
-6.051431019558379
 20
-10.0
 30
0.0
 40
0.1
  0
CIRCLE
  5
1F5
330
1F
100
AcDbEntity
  8
their_pin_centers
100
AcDbCircle
 10
26.44856898044162
 20
-10.0
 30
0.0
 40
0.1
  0
CIRCLE
  5
1F6
330
1F
100
AcDbEntity
  8
their_pin_centers
100
AcDbCircle
 10
28.94856898044162
 20
-10.0
 30
0.0
 40
0.1
  0
CIRCLE
  5
1FA
330
1F
100
AcDbEntity
  8
their_pin_centers
100
AcDbCircle
 10
61.44856898044162
 20
-9.999999999999943
 30
0.0
 40
0.1
  0
CIRCLE
  5
1FB
330
1F
100
AcDbEntity
  8
their_pin_centers
100
AcDbCircle
 10
63.94856898044162
 20
-9.999999999999943
 30
0.0
 40
0.1
  0
CIRCLE
  5
1FF
330
1F
100
AcDbEntity
  8
their_pin_centers
100
AcDbCircle
 10
-43.55143101955839
 20
19.0
 30
0.0
 40
0.1
  0
CIRCLE
  5
200
330
1F
100
AcDbEntity
  8
their_pin_centers
100
AcDbCircle
 10
-41.05143101955839
 20
19.0
 30
0.0
 40
0.1
  0
CIRCLE
  5
204
330
1F
100
AcDbEntity
  8
their_pin_centers
100
AcDbCircle
 10
-8.551431019558386
 20
19.0
 30
0.0
 40
0.1
  0
CIRCLE
  5
205
330
1F
100
AcDbEntity
  8
their_pin_centers
100
AcDbCircle
 10
-6.051431019558386
 20
19.0
 30
0.0
 40
0.1
  0
CIRCLE
  5
209
330
1F
100
AcDbEntity
  8
their_pin_centers
100
AcDbCircle
 10
26.44856898044162
 20
19.0
 30
0.0
 40
0.1
  0
CIRCLE
  5
20A
330
1F
100
AcDbEntity
  8
their_pin_centers
100
AcDbCircle
 10
28.94856898044162
 20
19.0
 30
0.0
 40
0.1
  0
CIRCLE
  5
20E
330
1F
100
AcDbEntity
  8
their_pin_centers
100
AcDbCircle
 10
61.44856898044162
 20
19.00000000000006
 30
0.0
 40
0.1
  0
CIRCLE
  5
20F
330
1F
100
AcDbEntity
  8
their_pin_centers
100
AcDbCircle
 10
63.94856898044162
 20
19.00000000000006
 30
0.0
 40
0.1
  0
CIRCLE
  5
213
330
1F
100
AcDbEntity
  8
their_pin_centers
100
AcDbCircle
 10
-43.55143101955839
 20
48.0
 30
0.0
 40
0.1
  0
CIRCLE
  5
214
330
1F
100
AcDbEntity
  8
their_pin_centers
100
AcDbCircle
 10
-41.05143101955839
 20
48.0
 30
0.0
 40
0.1
  0
CIRCLE
  5
218
330
1F
100
AcDbEntity
  8
their_pin_centers
100
AcDbCircle
 10
-8.551431019558393
 20
48.0
 30
0.0
 40
0.1
  0
CIRCLE
  5
219
330
1F
100
AcDbEntity
  8
their_pin_centers
100
AcDbCircle
 10
-6.051431019558393
 20
48.0
 30
0.0
 40
0.1
  0
CIRCLE
  5
21D
330
1F
100
AcDbEntity
  8
their_pin_centers
100
AcDbCircle
 10
26.44856898044161
 20
48.0
 30
0.0
 40
0.1
  0
CIRCLE
  5
21E
330
1F
100
AcDbEntity
  8
their_pin_centers
100
AcDbCircle
 10
28.94856898044161
 20
48.0
 30
0.0
 40
0.1
  0
CIRCLE
  5
222
330
1F
100
AcDbEntity
  8
their_pin_centers
100
AcDbCircle
 10
61.44856898044161
 20
48.00000000000006
 30
0.0
 40
0.1
  0
CIRCLE
  5
223
330
1F
100
AcDbEntity
  8
their_pin_centers
100
AcDbCircle
 10
63.94856898044161
 20
48.00000000000006
 30
0.0
 40
0.1
  0
LWPOLYLINE
  5
23A
330
1F
100
AcDbEntity
  8
pcb
100
AcDbPolyline
 90
        8
 70
     1
 43
0.0
 10
-86.0
 20
-76.0
 10
-86.0
 20
76.0
 42
-0.414213562373095
 10
-76.0
 20
86.0
 10
76.0
 20
86.0
 42
-0.414213562373095
 10
86.0
 20
76.0
 10
86.0
 20
-76.0
 42
-0.414213562373095
 10
76.0
 20
-86.0
 10
-76.0
 20
-86.0
 42
-0.414213562373095
  0
CIRCLE
  5
26D
330
1F
100
AcDbEntity
  8
pin_holes
100
AcDbCircle
 10
-41.0
 20
-67.99999999999989
 30
0.0
 40
1.0
  0
CIRCLE
  5
26E
330
1F
100
AcDbEntity
  8
pin_holes
100
AcDbCircle
 10
-44.0
 20
-67.99999999999989
 30
0.0
 40
1.0
  0
LWPOLYLINE
  5
28C
330
1F
100
AcDbEntity
  8
substrates
100
AcDbPolyline
 90
        4
 70
     1
 43
0.0
 10
-55.0
 20
-70.5
 10
-55.0
 20
-45.5
 10
-30.0
 20
-45.5
 10
-30.0
 20
-70.5
  0
CIRCLE
  5
2C9
330
1F
100
AcDbEntity
  8
my_pin_centers
100
AcDbCircle
 10
-44.0
 20
-67.99999999999989
 30
0.0
 40
0.1
  0
CIRCLE
  5
2DB
330
1F
100
AcDbEntity
  8
my_pin_centers
100
AcDbCircle
 10
-41.0
 20
-67.99999999999989
 30
0.0
 40
0.1
  0
CIRCLE
  5
2FF
330
1F
100
AcDbEntity
  8
pin_holes
100
AcDbCircle
 10
-6.0
 20
-67.99999999999989
 30
0.0
 40
1.0
  0
CIRCLE
  5
300
330
1F
100
AcDbEntity
  8
pin_holes
100
AcDbCircle
 10
-9.0
 20
-67.99999999999989
 30
0.0
 40
1.0
  0
LWPOLYLINE
  5
301
330
1F
100
AcDbEntity
  8
substrates
100
AcDbPolyline
 90
        4
 70
     1
 43
0.0
 10
-20.0
 20
-70.5
 10
-20.0
 20
-45.5
 10
5.0
 20
-45.5
 10
5.0
 20
-70.5
  0
CIRCLE
  5
302
330
1F
100
AcDbEntity
  8
my_pin_centers
100
AcDbCircle
 10
-9.0
 20
-67.99999999999989
 30
0.0
 40
0.1
  0
CIRCLE
  5
303
330
1F
100
AcDbEntity
  8
my_pin_centers
100
AcDbCircle
 10
-6.0
 20
-67.99999999999989
 30
0.0
 40
0.1
  0
CIRCLE
  5
314
330
1F
100
AcDbEntity
  8
pin_holes
100
AcDbCircle
 10
29.0
 20
-67.99999999999989
 30
0.0
 40
1.0
  0
CIRCLE
  5
315
330
1F
100
AcDbEntity
  8
pin_holes
100
AcDbCircle
 10
26.0
 20
-67.99999999999989
 30
0.0
 40
1.0
  0
LWPOLYLINE
  5
316
330
1F
100
AcDbEntity
  8
substrates
100
AcDbPolyline
 90
        4
 70
     1
 43
0.0
 10
15.0
 20
-70.5
 10
15.0
 20
-45.5
 10
40.0
 20
-45.5
 10
40.0
 20
-70.5
  0
CIRCLE
  5
317
330
1F
100
AcDbEntity
  8
my_pin_centers
100
AcDbCircle
 10
26.0
 20
-67.99999999999989
 30
0.0
 40
0.1
  0
CIRCLE
  5
318
330
1F
100
AcDbEntity
  8
my_pin_centers
100
AcDbCircle
 10
29.0
 20
-67.99999999999989
 30
0.0
 40
0.1
  0
CIRCLE
  5
329
330
1F
100
AcDbEntity
  8
pin_holes
100
AcDbCircle
 10
64.0
 20
-67.99999999999989
 30
0.0
 40
1.0
  0
CIRCLE
  5
32A
330
1F
100
AcDbEntity
  8
pin_holes
100
AcDbCircle
 10
61.0
 20
-67.99999999999989
 30
0.0
 40
1.0
  0
LWPOLYLINE
  5
32B
330
1F
100
AcDbEntity
  8
substrates
100
AcDbPolyline
 90
        4
 70
     1
 43
0.0
 10
50.0
 20
-70.5
 10
50.0
 20
-45.5
 10
75.0
 20
-45.5
 10
75.0
 20
-70.5
  0
CIRCLE
  5
32C
330
1F
100
AcDbEntity
  8
my_pin_centers
100
AcDbCircle
 10
61.0
 20
-67.99999999999989
 30
0.0
 40
0.1
  0
CIRCLE
  5
32D
330
1F
100
AcDbEntity
  8
my_pin_centers
100
AcDbCircle
 10
64.0
 20
-67.99999999999989
 30
0.0
 40
0.1
  0
CIRCLE
  5
33E
330
1F
100
AcDbEntity
  8
pin_holes
100
AcDbCircle
 10
-41.0
 20
-38.99999999999989
 30
0.0
 40
1.0
  0
CIRCLE
  5
33F
330
1F
100
AcDbEntity
  8
pin_holes
100
AcDbCircle
 10
-44.0
 20
-38.99999999999989
 30
0.0
 40
1.0
  0
LWPOLYLINE
  5
340
330
1F
100
AcDbEntity
  8
substrates
100
AcDbPolyline
 90
        4
 70
     1
 43
0.0
 10
-55.0
 20
-41.5
 10
-55.0
 20
-16.5
 10
-30.0
 20
-16.5
 10
-30.0
 20
-41.5
  0
CIRCLE
  5
341
330
1F
100
AcDbEntity
  8
my_pin_centers
100
AcDbCircle
 10
-44.0
 20
-38.99999999999989
 30
0.0
 40
0.1
  0
CIRCLE
  5
342
330
1F
100
AcDbEntity
  8
my_pin_centers
100
AcDbCircle
 10
-41.0
 20
-38.99999999999989
 30
0.0
 40
0.1
  0
CIRCLE
  5
353
330
1F
100
AcDbEntity
  8
pin_holes
100
AcDbCircle
 10
-6.0
 20
-38.99999999999989
 30
0.0
 40
1.0
  0
CIRCLE
  5
354
330
1F
100
AcDbEntity
  8
pin_holes
100
AcDbCircle
 10
-9.0
 20
-38.99999999999989
 30
0.0
 40
1.0
  0
LWPOLYLINE
  5
355
330
1F
100
AcDbEntity
  8
substrates
100
AcDbPolyline
 90
        4
 70
     1
 43
0.0
 10
-20.0
 20
-41.5
 10
-20.0
 20
-16.5
 10
5.0
 20
-16.5
 10
5.0
 20
-41.5
  0
CIRCLE
  5
356
330
1F
100
AcDbEntity
  8
my_pin_centers
100
AcDbCircle
 10
-9.0
 20
-38.99999999999989
 30
0.0
 40
0.1
  0
CIRCLE
  5
357
330
1F
100
AcDbEntity
  8
my_pin_centers
100
AcDbCircle
 10
-6.0
 20
-38.99999999999989
 30
0.0
 40
0.1
  0
CIRCLE
  5
368
330
1F
100
AcDbEntity
  8
pin_holes
100
AcDbCircle
 10
29.0
 20
-38.99999999999989
 30
0.0
 40
1.0
  0
CIRCLE
  5
369
330
1F
100
AcDbEntity
  8
pin_holes
100
AcDbCircle
 10
26.0
 20
-38.99999999999989
 30
0.0
 40
1.0
  0
LWPOLYLINE
  5
36A
330
1F
100
AcDbEntity
  8
substrates
100
AcDbPolyline
 90
        4
 70
     1
 43
0.0
 10
15.0
 20
-41.5
 10
15.0
 20
-16.5
 10
40.0
 20
-16.5
 10
40.0
 20
-41.5
  0
CIRCLE
  5
36B
330
1F
100
AcDbEntity
  8
my_pin_centers
100
AcDbCircle
 10
26.0
 20
-38.99999999999989
 30
0.0
 40
0.1
  0
CIRCLE
  5
36C
330
1F
100
AcDbEntity
  8
my_pin_centers
100
AcDbCircle
 10
29.0
 20
-38.99999999999989
 30
0.0
 40
0.1
  0
CIRCLE
  5
37D
330
1F
100
AcDbEntity
  8
pin_holes
100
AcDbCircle
 10
64.0
 20
-38.99999999999989
 30
0.0
 40
1.0
  0
CIRCLE
  5
37E
330
1F
100
AcDbEntity
  8
pin_holes
100
AcDbCircle
 10
61.0
 20
-38.99999999999989
 30
0.0
 40
1.0
  0
LWPOLYLINE
  5
37F
330
1F
100
AcDbEntity
  8
substrates
100
AcDbPolyline
 90
        4
 70
     1
 43
0.0
 10
50.0
 20
-41.5
 10
50.0
 20
-16.5
 10
75.0
 20
-16.5
 10
75.0
 20
-41.5
  0
CIRCLE
  5
380
330
1F
100
AcDbEntity
  8
my_pin_centers
100
AcDbCircle
 10
61.0
 20
-38.99999999999989
 30
0.0
 40
0.1
  0
CIRCLE
  5
381
330
1F
100
AcDbEntity
  8
my_pin_centers
100
AcDbCircle
 10
64.0
 20
-38.99999999999989
 30
0.0
 40
0.1
  0
CIRCLE
  5
392
330
1F
100
AcDbEntity
  8
pin_holes
100
AcDbCircle
 10
-41.0
 20
-9.999999999999886
 30
0.0
 40
1.0
  0
CIRCLE
  5
393
330
1F
100
AcDbEntity
  8
pin_holes
100
AcDbCircle
 10
-44.0
 20
-9.999999999999886
 30
0.0
 40
1.0
  0
LWPOLYLINE
  5
394
330
1F
100
AcDbEntity
  8
substrates
100
AcDbPolyline
 90
        4
 70
     1
 43
0.0
 10
-55.0
 20
-12.5
 10
-55.0
 20
12.5
 10
-30.0
 20
12.5
 10
-30.0
 20
-12.5
  0
CIRCLE
  5
395
330
1F
100
AcDbEntity
  8
my_pin_centers
100
AcDbCircle
 10
-44.0
 20
-9.999999999999886
 30
0.0
 40
0.1
  0
CIRCLE
  5
396
330
1F
100
AcDbEntity
  8
my_pin_centers
100
AcDbCircle
 10
-41.0
 20
-9.999999999999886
 30
0.0
 40
0.1
  0
CIRCLE
  5
3A7
330
1F
100
AcDbEntity
  8
pin_holes
100
AcDbCircle
 10
-6.0
 20
-9.999999999999886
 30
0.0
 40
1.0
  0
CIRCLE
  5
3A8
330
1F
100
AcDbEntity
  8
pin_holes
100
AcDbCircle
 10
-9.0
 20
-9.999999999999886
 30
0.0
 40
1.0
  0
LWPOLYLINE
  5
3A9
330
1F
100
AcDbEntity
  8
substrates
100
AcDbPolyline
 90
        4
 70
     1
 43
0.0
 10
-20.0
 20
-12.5
 10
-20.0
 20
12.5
 10
5.0
 20
12.5
 10
5.0
 20
-12.5
  0
CIRCLE
  5
3AA
330
1F
100
AcDbEntity
  8
my_pin_centers
100
AcDbCircle
 10
-9.0
 20
-9.999999999999886
 30
0.0
 40
0.1
  0
CIRCLE
  5
3AB
330
1F
100
AcDbEntity
  8
my_pin_centers
100
AcDbCircle
 10
-6.0
 20
-9.999999999999886
 30
0.0
 40
0.1
  0
CIRCLE
  5
3BC
330
1F
100
AcDbEntity
  8
pin_holes
100
AcDbCircle
 10
29.0
 20
-9.999999999999886
 30
0.0
 40
1.0
  0
CIRCLE
  5
3BD
330
1F
100
AcDbEntity
  8
pin_holes
100
AcDbCircle
 10
26.0
 20
-9.999999999999886
 30
0.0
 40
1.0
  0
LWPOLYLINE
  5
3BE
330
1F
100
AcDbEntity
  8
substrates
100
AcDbPolyline
 90
        4
 70
     1
 43
0.0
 10
15.0
 20
-12.5
 10
15.0
 20
12.5
 10
40.0
 20
12.5
 10
40.0
 20
-12.5
  0
CIRCLE
  5
3BF
330
1F
100
AcDbEntity
  8
my_pin_centers
100
AcDbCircle
 10
26.0
 20
-9.999999999999886
 30
0.0
 40
0.1
  0
CIRCLE
  5
3C0
330
1F
100
AcDbEntity
  8
my_pin_centers
100
AcDbCircle
 10
29.0
 20
-9.999999999999886
 30
0.0
 40
0.1
  0
CIRCLE
  5
3D1
330
1F
100
AcDbEntity
  8
pin_holes
100
AcDbCircle
 10
64.0
 20
-9.99999999999983
 30
0.0
 40
1.0
  0
CIRCLE
  5
3D2
330
1F
100
AcDbEntity
  8
pin_holes
100
AcDbCircle
 10
61.0
 20
-9.99999999999983
 30
0.0
 40
1.0
  0
LWPOLYLINE
  5
3D3
330
1F
100
AcDbEntity
  8
substrates
100
AcDbPolyline
 90
        4
 70
     1
 43
0.0
 10
50.0
 20
-12.49999999999994
 10
50.0
 20
12.50000000000006
 10
75.0
 20
12.50000000000006
 10
75.0
 20
-12.49999999999994
  0
CIRCLE
  5
3D4
330
1F
100
AcDbEntity
  8
my_pin_centers
100
AcDbCircle
 10
61.0
 20
-9.99999999999983
 30
0.0
 40
0.1
  0
CIRCLE
  5
3D5
330
1F
100
AcDbEntity
  8
my_pin_centers
100
AcDbCircle
 10
64.0
 20
-9.99999999999983
 30
0.0
 40
0.1
  0
CIRCLE
  5
3E6
330
1F
100
AcDbEntity
  8
pin_holes
100
AcDbCircle
 10
-41.0
 20
19.00000000000011
 30
0.0
 40
1.0
  0
CIRCLE
  5
3E7
330
1F
100
AcDbEntity
  8
pin_holes
100
AcDbCircle
 10
-44.0
 20
19.00000000000011
 30
0.0
 40
1.0
  0
LWPOLYLINE
  5
3E8
330
1F
100
AcDbEntity
  8
substrates
100
AcDbPolyline
 90
        4
 70
     1
 43
0.0
 10
-55.00000000000003
 20
16.5
 10
-55.00000000000003
 20
41.5
 10
-30.0
 20
41.5
 10
-30.0
 20
16.5
  0
CIRCLE
  5
3E9
330
1F
100
AcDbEntity
  8
my_pin_centers
100
AcDbCircle
 10
-44.0
 20
19.00000000000011
 30
0.0
 40
0.1
  0
CIRCLE
  5
3EA
330
1F
100
AcDbEntity
  8
my_pin_centers
100
AcDbCircle
 10
-41.0
 20
19.00000000000011
 30
0.0
 40
0.1
  0
CIRCLE
  5
3FB
330
1F
100
AcDbEntity
  8
pin_holes
100
AcDbCircle
 10
-6.0
 20
19.00000000000011
 30
0.0
 40
1.0
  0
CIRCLE
  5
3FC
330
1F
100
AcDbEntity
  8
pin_holes
100
AcDbCircle
 10
-9.0
 20
19.00000000000011
 30
0.0
 40
1.0
  0
LWPOLYLINE
  5
3FD
330
1F
100
AcDbEntity
  8
substrates
100
AcDbPolyline
 90
        4
 70
     1
 43
0.0
 10
-20.0
 20
16.5
 10
-20.0
 20
41.5
 10
5.0
 20
41.5
 10
5.0
 20
16.5
  0
CIRCLE
  5
3FE
330
1F
100
AcDbEntity
  8
my_pin_centers
100
AcDbCircle
 10
-9.0
 20
19.00000000000011
 30
0.0
 40
0.1
  0
CIRCLE
  5
3FF
330
1F
100
AcDbEntity
  8
my_pin_centers
100
AcDbCircle
 10
-6.0
 20
19.00000000000011
 30
0.0
 40
0.1
  0
CIRCLE
  5
410
330
1F
100
AcDbEntity
  8
pin_holes
100
AcDbCircle
 10
29.0
 20
19.00000000000011
 30
0.0
 40
1.0
  0
CIRCLE
  5
411
330
1F
100
AcDbEntity
  8
pin_holes
100
AcDbCircle
 10
26.0
 20
19.00000000000011
 30
0.0
 40
1.0
  0
LWPOLYLINE
  5
412
330
1F
100
AcDbEntity
  8
substrates
100
AcDbPolyline
 90
        4
 70
     1
 43
0.0
 10
15.0
 20
16.5
 10
15.0
 20
41.5
 10
40.0
 20
41.5
 10
40.0
 20
16.5
  0
CIRCLE
  5
413
330
1F
100
AcDbEntity
  8
my_pin_centers
100
AcDbCircle
 10
26.0
 20
19.00000000000011
 30
0.0
 40
0.1
  0
CIRCLE
  5
414
330
1F
100
AcDbEntity
  8
my_pin_centers
100
AcDbCircle
 10
29.0
 20
19.00000000000011
 30
0.0
 40
0.1
  0
CIRCLE
  5
425
330
1F
100
AcDbEntity
  8
pin_holes
100
AcDbCircle
 10
64.0
 20
19.00000000000017
 30
0.0
 40
1.0
  0
CIRCLE
  5
426
330
1F
100
AcDbEntity
  8
pin_holes
100
AcDbCircle
 10
61.0
 20
19.00000000000017
 30
0.0
 40
1.0
  0
LWPOLYLINE
  5
427
330
1F
100
AcDbEntity
  8
substrates
100
AcDbPolyline
 90
        4
 70
     1
 43
0.0
 10
50.0
 20
16.50000000000006
 10
50.0
 20
41.50000000000006
 10
75.0
 20
41.50000000000006
 10
75.0
 20
16.50000000000006
  0
CIRCLE
  5
428
330
1F
100
AcDbEntity
  8
my_pin_centers
100
AcDbCircle
 10
61.0
 20
19.00000000000017
 30
0.0
 40
0.1
  0
CIRCLE
  5
429
330
1F
100
AcDbEntity
  8
my_pin_centers
100
AcDbCircle
 10
64.0
 20
19.00000000000017
 30
0.0
 40
0.1
  0
CIRCLE
  5
43A
330
1F
100
AcDbEntity
  8
pin_holes
100
AcDbCircle
 10
-41.0
 20
48.00000000000011
 30
0.0
 40
1.0
  0
CIRCLE
  5
43B
330
1F
100
AcDbEntity
  8
pin_holes
100
AcDbCircle
 10
-44.0
 20
48.00000000000011
 30
0.0
 40
1.0
  0
LWPOLYLINE
  5
43C
330
1F
100
AcDbEntity
  8
substrates
100
AcDbPolyline
 90
        4
 70
     1
 43
0.0
 10
-55.00000000000003
 20
45.5
 10
-55.00000000000003
 20
70.5
 10
-30.0
 20
70.5
 10
-30.0
 20
45.5
  0
CIRCLE
  5
43D
330
1F
100
AcDbEntity
  8
my_pin_centers
100
AcDbCircle
 10
-44.0
 20
48.00000000000011
 30
0.0
 40
0.1
  0
CIRCLE
  5
43E
330
1F
100
AcDbEntity
  8
my_pin_centers
100
AcDbCircle
 10
-41.0
 20
48.00000000000011
 30
0.0
 40
0.1
  0
CIRCLE
  5
44F
330
1F
100
AcDbEntity
  8
pin_holes
100
AcDbCircle
 10
-6.000000000000057
 20
48.00000000000011
 30
0.0
 40
1.0
  0
CIRCLE
  5
450
330
1F
100
AcDbEntity
  8
pin_holes
100
AcDbCircle
 10
-9.000000000000057
 20
48.00000000000011
 30
0.0
 40
1.0
  0
LWPOLYLINE
  5
451
330
1F
100
AcDbEntity
  8
substrates
100
AcDbPolyline
 90
        4
 70
     1
 43
0.0
 10
-20.00000000000006
 20
45.5
 10
-20.00000000000006
 20
70.5
 10
4.999999999999943
 20
70.5
 10
4.999999999999943
 20
45.5
  0
CIRCLE
  5
452
330
1F
100
AcDbEntity
  8
my_pin_centers
100
AcDbCircle
 10
-9.000000000000057
 20
48.00000000000011
 30
0.0
 40
0.1
  0
CIRCLE
  5
453
330
1F
100
AcDbEntity
  8
my_pin_centers
100
AcDbCircle
 10
-6.000000000000057
 20
48.00000000000011
 30
0.0
 40
0.1
  0
CIRCLE
  5
464
330
1F
100
AcDbEntity
  8
pin_holes
100
AcDbCircle
 10
28.99999999999994
 20
48.00000000000011
 30
0.0
 40
1.0
  0
CIRCLE
  5
465
330
1F
100
AcDbEntity
  8
pin_holes
100
AcDbCircle
 10
25.99999999999994
 20
48.00000000000011
 30
0.0
 40
1.0
  0
LWPOLYLINE
  5
466
330
1F
100
AcDbEntity
  8
substrates
100
AcDbPolyline
 90
        4
 70
     1
 43
0.0
 10
14.99999999999994
 20
45.5
 10
14.99999999999994
 20
70.5
 10
39.99999999999994
 20
70.5
 10
39.99999999999994
 20
45.5
  0
CIRCLE
  5
467
330
1F
100
AcDbEntity
  8
my_pin_centers
100
AcDbCircle
 10
25.99999999999994
 20
48.00000000000011
 30
0.0
 40
0.1
  0
CIRCLE
  5
468
330
1F
100
AcDbEntity
  8
my_pin_centers
100
AcDbCircle
 10
28.99999999999994
 20
48.00000000000011
 30
0.0
 40
0.1
  0
CIRCLE
  5
479
330
1F
100
AcDbEntity
  8
pin_holes
100
AcDbCircle
 10
63.99999999999994
 20
48.00000000000017
 30
0.0
 40
1.0
  0
CIRCLE
  5
47A
330
1F
100
AcDbEntity
  8
pin_holes
100
AcDbCircle
 10
60.99999999999994
 20
48.00000000000017
 30
0.0
 40
1.0
  0
LWPOLYLINE
  5
47B
330
1F
100
AcDbEntity
  8
substrates
100
AcDbPolyline
 90
        4
 70
     1
 43
0.0
 10
49.99999999999994
 20
45.50000000000006
 10
49.99999999999994
 20
70.50000000000006
 10
74.99999999999994
 20
70.50000000000006
 10
74.99999999999994
 20
45.50000000000006
  0
CIRCLE
  5
47C
330
1F
100
AcDbEntity
  8
my_pin_centers
100
AcDbCircle
 10
60.99999999999994
 20
48.00000000000017
 30
0.0
 40
0.1
  0
CIRCLE
  5
47D
330
1F
100
AcDbEntity
  8
my_pin_centers
100
AcDbCircle
 10
63.99999999999994
 20
48.00000000000017
 30
0.0
 40
0.1
  0
LWPOLYLINE
  5
4A8
330
1F
100
AcDbEntity
  8
connector
100
AcDbPolyline
 90
        4
 70
     1
 43
0.0
 10
-65.50000000000001
 20
21.10000000000002
 10
-70.57999999999997
 20
21.10000000000002
 10
-70.57999999999997
 20
71.89999999999998
 10
-65.50000000000001
 20
71.89999999999998
  0
CIRCLE
  5
4A9
330
1F
100
AcDbEntity
  8
connector
100
AcDbCircle
 10
-66.77000000000002
 20
22.37
 30
0.0
 40
0.6940285490373804
  0
CIRCLE
  5
4C1
330
1F
100
AcDbEntity
  8
pcb
100
AcDbCircle
 10
-54.99999999999991
 20
78.33850000000002
 30
0.0
 40
1.75
  0
CIRCLE
  5
4C2
330
1F
100
AcDbEntity
  8
pcb
100
AcDbCircle
 10
75.00000000000009
 20
-78.33849999999994
 30
0.0
 40
1.75
  0
LWPOLYLINE
  5
4CC
330
1F
100
AcDbEntity
  8
illuminated
100
AcDbPolyline
 90
        4
 70
     1
 43
0.0
 10
-47.5
 20
-62.99999999999994
 10
-47.5
 20
-52.99999999999994
 10
-37.5
 20
-52.99999999999994
 10
-37.5
 20
-62.99999999999994
  0
LWPOLYLINE
  5
4CD
330
1F
100
AcDbEntity
  8
illuminated
100
AcDbPolyline
 90
        4
 70
     1
 43
0.0
 10
-12.5
 20
-62.99999999999994
 10
-12.5
 20
-52.99999999999994
 10
-2.5
 20
-52.99999999999994
 10
-2.5
 20
-62.99999999999994
  0
LWPOLYLINE
  5
4CE
330
1F
100
AcDbEntity
  8
illuminated
100
AcDbPolyline
 90
        4
 70
     1
 43
0.0
 10
22.5
 20
-62.99999999999994
 10
22.5
 20
-52.99999999999994
 10
32.5
 20
-52.99999999999994
 10
32.5
 20
-62.99999999999994
  0
LWPOLYLINE
  5
4CF
330
1F
100
AcDbEntity
  8
illuminated
100
AcDbPolyline
 90
        4
 70
     1
 43
0.0
 10
57.5
 20
-62.99999999999994
 10
57.5
 20
-52.99999999999994
 10
67.5
 20
-52.99999999999994
 10
67.5
 20
-62.99999999999994
  0
LWPOLYLINE
  5
4D0
330
1F
100
AcDbEntity
  8
illuminated
100
AcDbPolyline
 90
        4
 70
     1
 43
0.0
 10
-47.5
 20
-33.99999999999994
 10
-47.5
 20
-23.99999999999994
 10
-37.5
 20
-23.99999999999994
 10
-37.5
 20
-33.99999999999994
  0
LWPOLYLINE
  5
4D1
330
1F
100
AcDbEntity
  8
illuminated
100
AcDbPolyline
 90
        4
 70
     1
 43
0.0
 10
-12.5
 20
-33.99999999999994
 10
-12.5
 20
-23.99999999999994
 10
-2.5
 20
-23.99999999999994
 10
-2.5
 20
-33.99999999999994
  0
LWPOLYLINE
  5
4D2
330
1F
100
AcDbEntity
  8
illuminated
100
AcDbPolyline
 90
        4
 70
     1
 43
0.0
 10
22.5
 20
-33.99999999999994
 10
22.5
 20
-23.99999999999994
 10
32.5
 20
-23.99999999999994
 10
32.5
 20
-33.99999999999994
  0
LWPOLYLINE
  5
4D3
330
1F
100
AcDbEntity
  8
illuminated
100
AcDbPolyline
 90
        4
 70
     1
 43
0.0
 10
57.5
 20
-33.99999999999994
 10
57.5
 20
-23.99999999999994
 10
67.5
 20
-23.99999999999994
 10
67.5
 20
-33.99999999999994
  0
LWPOLYLINE
  5
4D4
330
1F
100
AcDbEntity
  8
illuminated
100
AcDbPolyline
 90
        4
 70
     1
 43
0.0
 10
-47.5
 20
-5.0
 10
-47.5
 20
5.0
 10
-37.5
 20
5.0
 10
-37.5
 20
-5.0
  0
LWPOLYLINE
  5
4D5
330
1F
100
AcDbEntity
  8
illuminated
100
AcDbPolyline
 90
        4
 70
     1
 43
0.0
 10
-12.5
 20
-4.999999999999886
 10
-12.5
 20
5.000000000000114
 10
-2.5
 20
5.000000000000114
 10
-2.5
 20
-4.999999999999886
  0
LWPOLYLINE
  5
4D6
330
1F
100
AcDbEntity
  8
illuminated
100
AcDbPolyline
 90
        4
 70
     1
 43
0.0
 10
22.5
 20
-4.999999999999886
 10
22.5
 20
5.000000000000114
 10
32.5
 20
5.000000000000114
 10
32.5
 20
-4.999999999999886
  0
LWPOLYLINE
  5
4D7
330
1F
100
AcDbEntity
  8
illuminated
100
AcDbPolyline
 90
        4
 70
     1
 43
0.0
 10
57.5
 20
-4.999999999999886
 10
57.5
 20
5.000000000000114
 10
67.5
 20
5.000000000000114
 10
67.5
 20
-4.999999999999886
  0
LWPOLYLINE
  5
4D8
330
1F
100
AcDbEntity
  8
illuminated
100
AcDbPolyline
 90
        4
 70
     1
 43
0.0
 10
-47.50000000000003
 20
24.0
 10
-47.50000000000003
 20
34.0
 10
-37.5
 20
34.0
 10
-37.5
 20
24.0
  0
LWPOLYLINE
  5
4D9
330
1F
100
AcDbEntity
  8
illuminated
100
AcDbPolyline
 90
        4
 70
     1
 43
0.0
 10
-12.5
 20
24.00000000000011
 10
-12.5
 20
34.00000000000011
 10
-2.5
 20
34.00000000000011
 10
-2.5
 20
24.00000000000011
  0
LWPOLYLINE
  5
4DA
330
1F
100
AcDbEntity
  8
illuminated
100
AcDbPolyline
 90
        4
 70
     1
 43
0.0
 10
22.5
 20
24.00000000000011
 10
22.5
 20
34.00000000000011
 10
32.5
 20
34.00000000000011
 10
32.5
 20
24.00000000000011
  0
LWPOLYLINE
  5
4DB
330
1F
100
AcDbEntity
  8
illuminated
100
AcDbPolyline
 90
        4
 70
     1
 43
0.0
 10
57.5
 20
24.00000000000011
 10
57.5
 20
34.00000000000011
 10
67.5
 20
34.00000000000011
 10
67.5
 20
24.00000000000011
  0
LWPOLYLINE
  5
4DC
330
1F
100
AcDbEntity
  8
illuminated
100
AcDbPolyline
 90
        4
 70
     1
 43
0.0
 10
-47.50000000000003
 20
53.0
 10
-47.50000000000003
 20
63.0
 10
-37.5
 20
63.0
 10
-37.5
 20
53.0
  0
LWPOLYLINE
  5
4DD
330
1F
100
AcDbEntity
  8
illuminated
100
AcDbPolyline
 90
        4
 70
     1
 43
0.0
 10
-12.5
 20
53.00000000000011
 10
-12.5
 20
63.00000000000011
 10
-2.5
 20
63.00000000000011
 10
-2.5
 20
53.00000000000011
  0
LWPOLYLINE
  5
4DE
330
1F
100
AcDbEntity
  8
illuminated
100
AcDbPolyline
 90
        4
 70
     1
 43
0.0
 10
22.5
 20
53.00000000000011
 10
22.5
 20
63.00000000000011
 10
32.5
 20
63.00000000000011
 10
32.5
 20
53.00000000000011
  0
LWPOLYLINE
  5
4DF
330
1F
100
AcDbEntity
  8
illuminated
100
AcDbPolyline
 90
        4
 70
     1
 43
0.0
 10
57.5
 20
53.00000000000011
 10
57.5
 20
63.00000000000011
 10
67.5
 20
63.00000000000011
 10
67.5
 20
53.00000000000011
  0
LWPOLYLINE
  5
51D
330
1F
100
AcDbEntity
  8
cu_base
100
AcDbPolyline
 90
        8
 70
     1
 43
0.0
 10
-100.0
 20
-97.99999999999997
 10
-100.0
 20
97.99999999999997
 42
-0.414213562373095
 10
-98.0
 20
99.99999999999997
 10
98.0
 20
100.0
 42
-0.414213562373095
 10
100.0
 20
98.0
 10
100.0
 20
-97.99999999999994
 42
-0.414213562373095
 10
98.0
 20
-99.99999999999994
 10
-98.0
 20
-99.99999999999997
 42
-0.414213562373095
  0
CIRCLE
  5
534
330
1F
100
AcDbEntity
  8
3K7_press_fit
100
AcDbCircle
 10
-54.99999999999991
 20
78.33850000000002
 30
0.0
 40
1.5
  0
CIRCLE
  5
535
330
1F
100
AcDbEntity
  8
3K7_press_fit
100
AcDbCircle
 10
75.00000000000009
 20
-78.33849999999994
 30
0.0
 40
1.5
  0
CIRCLE
  5
550
330
1F
100
AcDbEntity
  8
dowel
100
AcDbCircle
 10
-54.99999999999991
 20
78.33850000000002
 30
0.0
 40
1.5
  0
CIRCLE
  5
56B
330
1F
100
AcDbEntity
  8
dowel
100
AcDbCircle
 10
75.00000000000009
 20
-78.33849999999994
 30
0.0
 40
1.5
  0
LWPOLYLINE
  5
598
330
1F
100
AcDbEntity
  8
slot_plate
100
AcDbPolyline
 90
       12
 70
     1
 43
0.0
 10
-29.82299999999998
 20
-46.73721356237311
 10
-29.82299999999998
 20
-54.53589838486226
 42
-0.5773502691896258
 10
-29.82299999999998
 20
-61.46410161513779
 10
-29.82299999999998
 20
-69.26278643762697
 42
-1.000000000000035
 10
-31.2372135623732
 20
-70.67700000000002
 10
-53.76278643762703
 20
-70.67700000000002
 42
-0.9999999999999974
 10
-55.17700000000002
 20
-69.26278643762691
 10
-55.17700000000002
 20
-61.46410161513779
 42
-0.5773502691896257
 10
-55.17700000000002
 20
-54.53589838486226
 10
-55.17700000000002
 20
-46.73721356237314
 42
-1.000000000000038
 10
-53.76278643762703
 20
-45.32299999999998
 10
-31.23721356237309
 20
-45.32299999999998
 42
-0.999999999999995
  0
LWPOLYLINE
  5
599
330
1F
100
AcDbEntity
  8
slot_plate
100
AcDbPolyline
 90
       12
 70
     1
 43
0.0
 10
5.177000000000021
 20
-46.73721356237309
 10
5.177000000000021
 20
-54.53589838486226
 42
-0.5773502691896258
 10
5.177000000000021
 20
-61.46410161513779
 10
5.177000000000021
 20
-69.26278643762697
 42
-1.000000000000035
 10
3.762786437626801
 20
-70.67700000000002
 10
-18.76278643762703
 20
-70.67700000000002
 42
-0.9999999999999974
 10
-20.17700000000002
 20
-69.26278643762691
 10
-20.17700000000002
 20
-61.46410161513779
 42
-0.5773502691896257
 10
-20.17700000000002
 20
-54.53589838486226
 10
-20.17700000000002
 20
-46.73721356237314
 42
-1.000000000000038
 10
-18.76278643762703
 20
-45.32299999999998
 10
3.762786437626914
 20
-45.32299999999998
 42
-0.999999999999995
  0
LWPOLYLINE
  5
59A
330
1F
100
AcDbEntity
  8
slot_plate
100
AcDbPolyline
 90
       12
 70
     1
 43
0.0
 10
40.17700000000002
 20
-46.73721356237309
 10
40.17700000000002
 20
-54.53589838486226
 42
-0.5773502691896258
 10
40.17700000000002
 20
-61.46410161513779
 10
40.17700000000002
 20
-69.26278643762697
 42
-1.000000000000035
 10
38.7627864376268
 20
-70.67700000000002
 10
16.23721356237297
 20
-70.67700000000002
 42
-0.9999999999999974
 10
14.82299999999998
 20
-69.26278643762691
 10
14.82299999999998
 20
-61.46410161513779
 42
-0.5773502691896257
 10
14.82299999999998
 20
-54.53589838486226
 10
14.82299999999998
 20
-46.73721356237314
 42
-1.000000000000038
 10
16.23721356237297
 20
-45.32299999999998
 10
38.76278643762691
 20
-45.32299999999998
 42
-0.999999999999995
  0
LWPOLYLINE
  5
59B
330
1F
100
AcDbEntity
  8
slot_plate
100
AcDbPolyline
 90
       12
 70
     1
 43
0.0
 10
75.17700000000002
 20
-46.73721356237309
 10
75.17700000000002
 20
-54.53589838486226
 42
-0.5773502691896258
 10
75.17700000000002
 20
-61.46410161513776
 10
75.17700000000002
 20
-69.26278643762697
 42
-1.000000000000035
 10
73.7627864376268
 20
-70.67700000000002
 10
51.23721356237297
 20
-70.67700000000002
 42
-0.9999999999999974
 10
49.82299999999998
 20
-69.26278643762689
 10
49.82299999999998
 20
-61.46410161513776
 42
-0.5773502691896257
 10
49.82299999999998
 20
-54.53589838486226
 10
49.82299999999998
 20
-46.73721356237311
 42
-1.000000000000038
 10
51.23721356237297
 20
-45.32299999999998
 10
73.76278643762691
 20
-45.32299999999998
 42
-0.999999999999995
  0
LWPOLYLINE
  5
59C
330
1F
100
AcDbEntity
  8
slot_plate
100
AcDbPolyline
 90
       12
 70
     1
 43
0.0
 10
-29.82299999999998
 20
-17.73721356237309
 10
-29.82299999999998
 20
-25.53589838486226
 42
-0.5773502691896258
 10
-29.82299999999998
 20
-32.46410161513779
 10
-29.82299999999998
 20
-40.26278643762697
 42
-1.000000000000035
 10
-31.2372135623732
 20
-41.67700000000002
 10
-53.76278643762703
 20
-41.67700000000002
 42
-0.9999999999999974
 10
-55.17700000000002
 20
-40.26278643762691
 10
-55.17700000000002
 20
-32.46410161513779
 42
-0.5773502691896257
 10
-55.17700000000002
 20
-25.53589838486226
 10
-55.17700000000002
 20
-17.73721356237314
 42
-1.000000000000038
 10
-53.76278643762703
 20
-16.32299999999998
 10
-31.23721356237309
 20
-16.32299999999998
 42
-0.999999999999995
  0
LWPOLYLINE
  5
59D
330
1F
100
AcDbEntity
  8
slot_plate
100
AcDbPolyline
 90
       12
 70
     1
 43
0.0
 10
5.177000000000021
 20
-17.73721356237309
 10
5.177000000000021
 20
-25.53589838486226
 42
-0.5773502691896258
 10
5.177000000000021
 20
-32.46410161513779
 10
5.177000000000021
 20
-40.26278643762697
 42
-1.000000000000035
 10
3.762786437626801
 20
-41.67700000000002
 10
-18.76278643762703
 20
-41.67700000000002
 42
-0.9999999999999974
 10
-20.17700000000002
 20
-40.26278643762691
 10
-20.17700000000002
 20
-32.46410161513779
 42
-0.5773502691896257
 10
-20.17700000000002
 20
-25.53589838486226
 10
-20.17700000000002
 20
-17.73721356237314
 42
-1.000000000000038
 10
-18.76278643762703
 20
-16.32299999999998
 10
3.762786437626914
 20
-16.32299999999998
 42
-0.999999999999995
  0
LWPOLYLINE
  5
59E
330
1F
100
AcDbEntity
  8
slot_plate
100
AcDbPolyline
 90
       12
 70
     1
 43
0.0
 10
40.17700000000002
 20
-17.73721356237309
 10
40.17700000000002
 20
-25.53589838486226
 42
-0.5773502691896258
 10
40.17700000000002
 20
-32.46410161513779
 10
40.17700000000002
 20
-40.26278643762697
 42
-1.000000000000035
 10
38.7627864376268
 20
-41.67700000000002
 10
16.23721356237297
 20
-41.67700000000002
 42
-0.9999999999999974
 10
14.82299999999998
 20
-40.26278643762691
 10
14.82299999999998
 20
-32.46410161513779
 42
-0.5773502691896257
 10
14.82299999999998
 20
-25.53589838486226
 10
14.82299999999998
 20
-17.73721356237314
 42
-1.000000000000038
 10
16.23721356237297
 20
-16.32299999999998
 10
38.76278643762691
 20
-16.32299999999998
 42
-0.999999999999995
  0
LWPOLYLINE
  5
59F
330
1F
100
AcDbEntity
  8
slot_plate
100
AcDbPolyline
 90
       12
 70
     1
 43
0.0
 10
75.17700000000002
 20
-17.73721356237309
 10
75.17700000000002
 20
-25.53589838486226
 42
-0.5773502691896258
 10
75.17700000000002
 20
-32.46410161513779
 10
75.17700000000002
 20
-40.26278643762697
 42
-1.000000000000035
 10
73.7627864376268
 20
-41.67700000000002
 10
51.23721356237297
 20
-41.67700000000002
 42
-0.9999999999999974
 10
49.82299999999998
 20
-40.26278643762689
 10
49.82299999999998
 20
-32.46410161513779
 42
-0.5773502691896257
 10
49.82299999999998
 20
-25.53589838486226
 10
49.82299999999998
 20
-17.73721356237314
 42
-1.000000000000038
 10
51.23721356237297
 20
-16.32299999999998
 10
73.76278643762691
 20
-16.32299999999998
 42
-0.999999999999995
  0
LWPOLYLINE
  5
5A0
330
1F
100
AcDbEntity
  8
slot_plate
100
AcDbPolyline
 90
       12
 70
     1
 43
0.0
 10
-29.82299999999998
 20
11.26278643762691
 10
-29.82299999999998
 20
3.464101615137736
 42
-0.5773502691896258
 10
-29.82299999999998
 20
-3.464101615137793
 10
-29.82299999999998
 20
-11.26278643762697
 42
-1.000000000000035
 10
-31.2372135623732
 20
-12.67700000000002
 10
-53.76278643762703
 20
-12.67700000000002
 42
-0.9999999999999974
 10
-55.17700000000002
 20
-11.26278643762691
 10
-55.17700000000002
 20
-3.464101615137793
 42
-0.5773502691896257
 10
-55.17700000000002
 20
3.464101615137736
 10
-55.17700000000002
 20
11.26278643762686
 42
-1.000000000000038
 10
-53.76278643762703
 20
12.67700000000002
 10
-31.23721356237309
 20
12.67700000000002
 42
-0.999999999999995
  0
LWPOLYLINE
  5
5A1
330
1F
100
AcDbEntity
  8
slot_plate
100
AcDbPolyline
 90
       12
 70
     1
 43
0.0
 10
5.177000000000021
 20
11.26278643762691
 10
5.177000000000021
 20
3.464101615137736
 42
-0.5773502691896258
 10
5.177000000000021
 20
-3.464101615137793
 10
5.177000000000021
 20
-11.26278643762697
 42
-1.000000000000035
 10
3.762786437626801
 20
-12.67700000000002
 10
-18.76278643762703
 20
-12.67700000000002
 42
-0.9999999999999974
 10
-20.17700000000002
 20
-11.26278643762691
 10
-20.17700000000002
 20
-3.464101615137793
 42
-0.5773502691896257
 10
-20.17700000000002
 20
3.464101615137736
 10
-20.17700000000002
 20
11.26278643762686
 42
-1.000000000000038
 10
-18.76278643762703
 20
12.67700000000002
 10
3.762786437626914
 20
12.67700000000002
 42
-0.999999999999995
  0
LWPOLYLINE
  5
5A2
330
1F
100
AcDbEntity
  8
slot_plate
100
AcDbPolyline
 90
       12
 70
     1
 43
0.0
 10
40.17700000000002
 20
11.26278643762691
 10
40.17700000000002
 20
3.464101615137736
 42
-0.5773502691896258
 10
40.17700000000002
 20
-3.464101615137793
 10
40.17700000000002
 20
-11.26278643762697
 42
-1.000000000000035
 10
38.7627864376268
 20
-12.67700000000002
 10
16.23721356237297
 20
-12.67700000000002
 42
-0.9999999999999974
 10
14.82299999999998
 20
-11.26278643762691
 10
14.82299999999998
 20
-3.464101615137793
 42
-0.5773502691896257
 10
14.82299999999998
 20
3.464101615137736
 10
14.82299999999998
 20
11.26278643762686
 42
-1.000000000000038
 10
16.23721356237297
 20
12.67700000000002
 10
38.76278643762691
 20
12.67700000000002
 42
-0.999999999999995
  0
LWPOLYLINE
  5
5A3
330
1F
100
AcDbEntity
  8
slot_plate
100
AcDbPolyline
 90
       12
 70
     1
 43
0.0
 10
75.17700000000002
 20
11.26278643762691
 10
75.17700000000002
 20
3.464101615137736
 42
-0.5773502691896258
 10
75.17700000000002
 20
-3.464101615137793
 10
75.17700000000002
 20
-11.26278643762697
 42
-1.000000000000035
 10
73.7627864376268
 20
-12.67700000000002
 10
51.23721356237297
 20
-12.67700000000002
 42
-0.9999999999999974
 10
49.82299999999998
 20
-11.26278643762686
 10
49.82299999999998
 20
-3.464101615137793
 42
-0.5773502691896257
 10
49.82299999999998
 20
3.464101615137736
 10
49.82299999999998
 20
11.26278643762686
 42
-1.000000000000038
 10
51.23721356237297
 20
12.67700000000002
 10
73.76278643762691
 20
12.67700000000002
 42
-0.999999999999995
  0
LWPOLYLINE
  5
5A4
330
1F
100
AcDbEntity
  8
slot_plate
100
AcDbPolyline
 90
       12
 70
     1
 43
0.0
 10
-29.82299999999998
 20
40.26278643762691
 10
-29.82299999999998
 20
32.46410161513774
 42
-0.5773502691896258
 10
-29.82299999999998
 20
25.53589838486221
 10
-29.82299999999998
 20
17.73721356237303
 42
-1.000000000000035
 10
-31.2372135623732
 20
16.32299999999998
 10
-53.76278643762703
 20
16.32299999999998
 42
-0.9999999999999974
 10
-55.17700000000008
 20
17.73721356237309
 10
-55.17700000000008
 20
25.53589838486221
 42
-0.5773502691896257
 10
-55.17700000000008
 20
32.46410161513774
 10
-55.17700000000008
 20
40.26278643762686
 42
-1.000000000000038
 10
-53.76278643762708
 20
41.67700000000002
 10
-31.23721356237309
 20
41.67700000000002
 42
-0.999999999999995
  0
LWPOLYLINE
  5
5A5
330
1F
100
AcDbEntity
  8
slot_plate
100
AcDbPolyline
 90
       12
 70
     1
 43
0.0
 10
5.177000000000021
 20
40.26278643762691
 10
5.177000000000021
 20
32.46410161513774
 42
-0.5773502691896258
 10
5.177000000000021
 20
25.53589838486221
 10
5.177000000000021
 20
17.73721356237303
 42
-1.000000000000035
 10
3.762786437626801
 20
16.32299999999998
 10
-18.76278643762703
 20
16.32299999999998
 42
-0.9999999999999974
 10
-20.17700000000002
 20
17.73721356237309
 10
-20.17700000000002
 20
25.53589838486221
 42
-0.5773502691896257
 10
-20.17700000000002
 20
32.46410161513774
 10
-20.17700000000002
 20
40.26278643762686
 42
-1.000000000000038
 10
-18.76278643762703
 20
41.67700000000002
 10
3.762786437626914
 20
41.67700000000002
 42
-0.999999999999995
  0
LWPOLYLINE
  5
5A6
330
1F
100
AcDbEntity
  8
slot_plate
100
AcDbPolyline
 90
       12
 70
     1
 43
0.0
 10
40.17700000000002
 20
40.26278643762691
 10
40.17700000000002
 20
32.46410161513774
 42
-0.5773502691896258
 10
40.17700000000002
 20
25.53589838486221
 10
40.17700000000002
 20
17.73721356237303
 42
-1.000000000000035
 10
38.7627864376268
 20
16.32299999999998
 10
16.23721356237297
 20
16.32299999999998
 42
-0.9999999999999974
 10
14.82299999999998
 20
17.73721356237309
 10
14.82299999999998
 20
25.53589838486221
 42
-0.5773502691896257
 10
14.82299999999998
 20
32.46410161513774
 10
14.82299999999998
 20
40.26278643762686
 42
-1.000000000000038
 10
16.23721356237297
 20
41.67700000000002
 10
38.76278643762691
 20
41.67700000000002
 42
-0.999999999999995
  0
LWPOLYLINE
  5
5A7
330
1F
100
AcDbEntity
  8
slot_plate
100
AcDbPolyline
 90
       12
 70
     1
 43
0.0
 10
75.17700000000002
 20
40.26278643762691
 10
75.17700000000002
 20
32.46410161513774
 42
-0.5773502691896258
 10
75.17700000000002
 20
25.53589838486221
 10
75.17700000000002
 20
17.73721356237303
 42
-1.000000000000035
 10
73.7627864376268
 20
16.32299999999998
 10
51.23721356237297
 20
16.32299999999998
 42
-0.9999999999999974
 10
49.82299999999998
 20
17.73721356237314
 10
49.82299999999998
 20
25.53589838486221
 42
-0.5773502691896257
 10
49.82299999999998
 20
32.46410161513774
 10
49.82299999999998
 20
40.26278643762686
 42
-1.000000000000038
 10
51.23721356237297
 20
41.67700000000002
 10
73.76278643762691
 20
41.67700000000002
 42
-0.999999999999995
  0
LWPOLYLINE
  5
5A8
330
1F
100
AcDbEntity
  8
slot_plate
100
AcDbPolyline
 90
       12
 70
     1
 43
0.0
 10
5.177000000000021
 20
69.26278643762691
 10
5.177000000000021
 20
61.46410161513774
 42
-0.5773502691896258
 10
5.177000000000021
 20
54.53589838486221
 10
5.177000000000021
 20
46.73721356237303
 42
-1.000000000000035
 10
3.762786437626801
 20
45.32299999999998
 10
-18.76278643762703
 20
45.32299999999998
 42
-0.9999999999999974
 10
-20.17700000000002
 20
46.73721356237309
 10
-20.17700000000002
 20
54.53589838486221
 42
-0.5773502691896257
 10
-20.17700000000002
 20
61.46410161513774
 10
-20.17700000000002
 20
69.26278643762686
 42
-1.000000000000038
 10
-18.76278643762703
 20
70.67700000000002
 10
3.762786437626914
 20
70.67700000000002
 42
-0.999999999999995
  0
LWPOLYLINE
  5
5A9
330
1F
100
AcDbEntity
  8
slot_plate
100
AcDbPolyline
 90
       12
 70
     1
 43
0.0
 10
40.17700000000002
 20
69.26278643762691
 10
40.17700000000002
 20
61.46410161513774
 42
-0.5773502691896258
 10
40.17700000000002
 20
54.53589838486221
 10
40.17700000000002
 20
46.73721356237303
 42
-1.000000000000035
 10
38.7627864376268
 20
45.32299999999998
 10
16.23721356237297
 20
45.32299999999998
 42
-0.9999999999999974
 10
14.82299999999998
 20
46.73721356237309
 10
14.82299999999998
 20
54.53589838486221
 42
-0.5773502691896257
 10
14.82299999999998
 20
61.46410161513774
 10
14.82299999999998
 20
69.26278643762686
 42
-1.000000000000038
 10
16.23721356237297
 20
70.67700000000002
 10
38.76278643762691
 20
70.67700000000002
 42
-0.999999999999995
  0
LWPOLYLINE
  5
5AA
330
1F
100
AcDbEntity
  8
slot_plate
100
AcDbPolyline
 90
       12
 70
     1
 43
0.0
 10
75.17700000000002
 20
69.26278643762691
 10
75.17700000000002
 20
61.46410161513774
 42
-0.5773502691896258
 10
75.17700000000002
 20
54.53589838486221
 10
75.17700000000002
 20
46.73721356237303
 42
-1.000000000000035
 10
73.7627864376268
 20
45.32299999999998
 10
51.23721356237297
 20
45.32299999999998
 42
-0.9999999999999974
 10
49.82299999999998
 20
46.73721356237314
 10
49.82299999999998
 20
54.53589838486221
 42
-0.5773502691896257
 10
49.82299999999998
 20
61.46410161513774
 10
49.82299999999998
 20
69.26278643762686
 42
-1.000000000000038
 10
51.23721356237297
 20
70.67700000000002
 10
73.76278643762691
 20
70.67700000000002
 42
-0.999999999999995
  0
CIRCLE
  5
5AC
330
1F
100
AcDbEntity
  8
slot_plate_slide_3C9
100
AcDbCircle
 10
75.00000000000009
 20
-78.33849999999994
 30
0.0
 40
1.5
  0
LWPOLYLINE
  5
681
330
1F
100
AcDbEntity
  8
slot_plate_slide_3C9
100
AcDbPolyline
 90
        4
 70
     1
 43
0.0
 10
-55.06066017177974
 20
76.27783982822021
 10
-57.06066017177974
 20
78.27783982822021
 42
-0.9999999999999986
 10
-54.93933982822007
 20
80.39916017177984
 10
-52.93933982822008
 20
78.39916017177984
 42
-0.9999999999999999
  0
LWPOLYLINE
  5
770
330
1F
100
AcDbEntity
  8
walls
100
AcDbPolyline
 90
        8
 70
     1
 43
0.0
 10
-100.0
 20
-97.99999999999997
 10
-100.0
 20
97.99999999999997
 42
-0.414213562373095
 10
-98.0
 20
99.99999999999997
 10
98.0
 20
100.0
 42
-0.414213562373095
 10
100.0
 20
98.0
 10
100.0
 20
-97.99999999999994
 42
-0.414213562373095
 10
98.0
 20
-99.99999999999994
 10
-98.0
 20
-99.99999999999997
 42
-0.414213562373095
  0
LWPOLYLINE
  5
771
330
1F
100
AcDbEntity
  8
walls
100
AcDbPolyline
 90
        8
 70
     1
 43
0.0
 10
-88.0
 20
-77.99999999999999
 10
-88.0
 20
77.99999999999996
 42
-0.414213562373095
 10
-78.0
 20
87.99999999999996
 10
78.0
 20
88.0
 42
-0.4142135623730953
 10
88.0
 20
78.0
 10
88.0
 20
-77.99999999999991
 42
-0.414213562373095
 10
78.0
 20
-87.99999999999991
 10
-78.0
 20
-87.99999999999999
 42
-0.4142135623730953
  0
LWPOLYLINE
  5
77E
330
1F
100
AcDbEntity
  8
slot_plate
100
AcDbPolyline
 90
       26
 70
     1
 43
0.0
 10
-65.5
 20
-75.99999999999999
 10
-65.50000000000006
 20
54.49999999999994
 42
-0.414213562373095
 10
-63.50000000000006
 20
56.49999999999994
 10
-56.88509924354793
 20
56.49999999999994
 42
0.1672335555028897
 10
-55.17700000000008
 20
54.53589838486221
 10
-55.17700000000008
 20
46.73721356237309
 42
0.9999999999999974
 10
-53.76278643762703
 20
45.32299999999998
 10
-31.2372135623732
 20
45.32299999999999
 42
1.000000000000035
 10
-29.82299999999998
 20
46.73721356237303
 10
-29.82299999999998
 20
54.53589838486226
 42
0.5773502691896262
 10
-29.82299999999998
 20
61.46410161513774
 10
-29.82299999999998
 20
69.26278643762691
 42
0.9999999999999952
 10
-31.23721356237309
 20
70.67700000000002
 10
-53.76278643762703
 20
70.67700000000008
 42
1.000000000000032
 10
-55.17700000000008
 20
69.26278643762691
 10
-55.17700000000008
 20
61.46410161513774
 42
0.1672335555028896
 10
-56.88509924354793
 20
59.49999999999994
 10
-60.50000000000006
 20
59.49999999999994
 42
-0.414213562373095
 10
-62.50000000000006
 20
61.49999999999994
 10
-62.50000000000002
 20
76.00000000000003
 42
-0.4142135623730943
 10
-52.50000000000002
 20
86.00000000000001
 10
76.0
 20
86.00000000000001
 42
-0.4142135623730953
 10
86.0
 20
76.00000000000001
 10
86.0
 20
-75.99999999999999
 42
-0.414213562373095
 10
76.0
 20
-85.99999999999999
 10
-55.5
 20
-85.99999999999999
 42
-0.414213562373095
  0
CIRCLE
  5
818
330
1F
100
AcDbEntity
  8
corner_holes
100
AcDbCircle
 10
92.5
 20
92.5
 30
0.0
 40
3.1
  0
CIRCLE
  5
81D
330
1F
100
AcDbEntity
  8
corner_holes
100
AcDbCircle
 10
-92.5
 20
92.5
 30
0.0
 40
3.1
  0
CIRCLE
  5
81E
330
1F
100
AcDbEntity
  8
corner_holes
100
AcDbCircle
 10
92.49999999999997
 20
-92.49999999999994
 30
0.0
 40
3.1
  0
CIRCLE
  5
81F
330
1F
100
AcDbEntity
  8
corner_holes
100
AcDbCircle
 10
-92.50000000000003
 20
-92.49999999999989
 30
0.0
 40
3.1
  0
CIRCLE
  5
823
330
1F
100
AcDbEntity
  8
corner_socket_head
100
AcDbCircle
 10
92.5
 20
92.5
 30
0.0
 40
5.1
  0
CIRCLE
  5
838
330
1F
100
AcDbEntity
  8
corner_socket_head
100
AcDbCircle
 10
-92.50000000000001
 20
92.5
 30
0.0
 40
5.1
  0
CIRCLE
  5
84A
330
1F
100
AcDbEntity
  8
corner_socket_head
100
AcDbCircle
 10
-92.50000000000003
 20
-92.49999999999989
 30
0.0
 40
5.1
  0
CIRCLE
  5
85C
330
1F
100
AcDbEntity
  8
corner_socket_head
100
AcDbCircle
 10
92.49999999999999
 20
-92.49999999999994
 30
0.0
 40
5.1
  0
LWPOLYLINE
  5
892
330
1F
100
AcDbEntity
  8
pusher
100
AcDbPolyline
 90
        8
 70
     1
 43
0.0
 10
-55.5
 20
86.00000000000004
 10
75.99999999999994
 20
86.00000000000001
 42
-0.414213562373095
 10
85.99999999999994
 20
76.00000000000001
 10
85.99999999999994
 20
-75.99999999999999
 42
-0.414213562373095
 10
75.99999999999994
 20
-85.99999999999999
 10
-55.5
 20
-85.99999999999999
 42
-0.414213562373095
 10
-65.5
 20
-75.99999999999999
 10
-65.5
 20
76.00000000000004
 42
-0.4142135623730951
  0
LWPOLYLINE
  5
8DE
330
1F
100
AcDbEntity
  8
pcb
100
AcDbPolyline
 90
       16
 70
     1
 43
0.0
 10
-45.5
 20
-68.67700000000002
 10
-45.5
 20
-67.49999999999989
 42
-0.414213562373095
 10
-44.5
 20
-66.49999999999989
 10
-40.5
 20
-66.49999999999989
 42
-0.414213562373095
 10
-39.5
 20
-67.49999999999989
 10
-39.5
 20
-68.67700000000002
 42
0.414213562373095
 10
-37.5
 20
-70.67700000000002
 10
-31.82299999999998
 20
-70.67700000000002
 42
0.414213562373095
 10
-29.82299999999998
 20
-68.67700000000002
 10
-29.82299999999998
 20
-47.32299999999998
 42
0.414213562373095
 10
-31.82299999999998
 20
-45.32299999999998
 10
-53.17700000000002
 20
-45.32299999999998
 42
0.414213562373095
 10
-55.17700000000002
 20
-47.32299999999998
 10
-55.17700000000002
 20
-68.67700000000002
 42
0.414213562373095
 10
-53.17700000000002
 20
-70.67700000000002
 10
-47.5
 20
-70.67700000000002
 42
0.414213562373095
  0
LWPOLYLINE
  5
900
330
1F
100
AcDbEntity
  8
pusher
100
AcDbPolyline
 90
        8
 70
     1
 43
0.0
 10
-31.82299999999998
 20
-70.67700000000002
 42
0.414213562373095
 10
-29.82299999999998
 20
-68.67700000000002
 10
-29.82299999999998
 20
-47.32299999999998
 42
0.414213562373095
 10
-31.82299999999998
 20
-45.32299999999998
 10
-53.17700000000002
 20
-45.32299999999998
 42
0.414213562373095
 10
-55.17700000000002
 20
-47.32299999999998
 10
-55.17700000000002
 20
-68.67700000000002
 42
0.414213562373095
 10
-53.17700000000002
 20
-70.67700000000002
  0
LWPOLYLINE
  5
955
330
1F
100
AcDbEntity
  8
pcb
100
AcDbPolyline
 90
       16
 70
     1
 43
0.0
 10
-10.5
 20
-68.67700000000002
 10
-10.5
 20
-67.49999999999989
 42
-0.414213562373095
 10
-9.5
 20
-66.49999999999989
 10
-5.5
 20
-66.49999999999989
 42
-0.414213562373095
 10
-4.5
 20
-67.49999999999989
 10
-4.5
 20
-68.67700000000002
 42
0.414213562373095
 10
-2.5
 20
-70.67700000000002
 10
3.177000000000021
 20
-70.67700000000002
 42
0.414213562373095
 10
5.177000000000021
 20
-68.67700000000002
 10
5.177000000000021
 20
-47.32299999999998
 42
0.414213562373095
 10
3.177000000000021
 20
-45.32299999999998
 10
-18.17700000000002
 20
-45.32299999999998
 42
0.414213562373095
 10
-20.17700000000002
 20
-47.32299999999998
 10
-20.17700000000002
 20
-68.67700000000002
 42
0.414213562373095
 10
-18.17700000000002
 20
-70.67700000000002
 10
-12.5
 20
-70.67700000000002
 42
0.414213562373095
  0
LWPOLYLINE
  5
956
330
1F
100
AcDbEntity
  8
pusher
100
AcDbPolyline
 90
        8
 70
     1
 43
0.0
 10
3.177000000000021
 20
-70.67700000000002
 42
0.414213562373095
 10
5.177000000000021
 20
-68.67700000000002
 10
5.177000000000021
 20
-47.32299999999998
 42
0.414213562373095
 10
3.177000000000021
 20
-45.32299999999998
 10
-18.17700000000002
 20
-45.32299999999998
 42
0.414213562373095
 10
-20.17700000000002
 20
-47.32299999999998
 10
-20.17700000000002
 20
-68.67700000000002
 42
0.414213562373095
 10
-18.17700000000002
 20
-70.67700000000002
  0
LWPOLYLINE
  5
957
330
1F
100
AcDbEntity
  8
pcb
100
AcDbPolyline
 90
       16
 70
     1
 43
0.0
 10
24.5
 20
-68.67700000000002
 10
24.5
 20
-67.49999999999989
 42
-0.414213562373095
 10
25.5
 20
-66.49999999999989
 10
29.5
 20
-66.49999999999989
 42
-0.414213562373095
 10
30.5
 20
-67.49999999999989
 10
30.5
 20
-68.67700000000002
 42
0.414213562373095
 10
32.5
 20
-70.67700000000002
 10
38.17700000000002
 20
-70.67700000000002
 42
0.414213562373095
 10
40.17700000000002
 20
-68.67700000000002
 10
40.17700000000002
 20
-47.32299999999998
 42
0.414213562373095
 10
38.17700000000002
 20
-45.32299999999998
 10
16.82299999999998
 20
-45.32299999999998
 42
0.414213562373095
 10
14.82299999999998
 20
-47.32299999999998
 10
14.82299999999998
 20
-68.67700000000002
 42
0.414213562373095
 10
16.82299999999998
 20
-70.67700000000002
 10
22.5
 20
-70.67700000000002
 42
0.414213562373095
  0
LWPOLYLINE
  5
958
330
1F
100
AcDbEntity
  8
pusher
100
AcDbPolyline
 90
        8
 70
     1
 43
0.0
 10
38.17700000000002
 20
-70.67700000000002
 42
0.414213562373095
 10
40.17700000000002
 20
-68.67700000000002
 10
40.17700000000002
 20
-47.32299999999998
 42
0.414213562373095
 10
38.17700000000002
 20
-45.32299999999998
 10
16.82299999999998
 20
-45.32299999999998
 42
0.414213562373095
 10
14.82299999999998
 20
-47.32299999999998
 10
14.82299999999998
 20
-68.67700000000002
 42
0.414213562373095
 10
16.82299999999998
 20
-70.67700000000002
  0
LWPOLYLINE
  5
959
330
1F
100
AcDbEntity
  8
pcb
100
AcDbPolyline
 90
       16
 70
     1
 43
0.0
 10
59.5
 20
-68.67700000000002
 10
59.5
 20
-67.49999999999989
 42
-0.414213562373095
 10
60.5
 20
-66.49999999999989
 10
64.5
 20
-66.49999999999989
 42
-0.414213562373095
 10
65.5
 20
-67.49999999999989
 10
65.5
 20
-68.67700000000002
 42
0.414213562373095
 10
67.5
 20
-70.67700000000002
 10
73.17700000000002
 20
-70.67700000000002
 42
0.414213562373095
 10
75.17700000000002
 20
-68.67700000000002
 10
75.17700000000002
 20
-47.32299999999998
 42
0.414213562373095
 10
73.17700000000002
 20
-45.32299999999998
 10
51.82299999999998
 20
-45.32299999999998
 42
0.414213562373095
 10
49.82299999999998
 20
-47.32299999999998
 10
49.82299999999998
 20
-68.67700000000002
 42
0.414213562373095
 10
51.82299999999998
 20
-70.67700000000002
 10
57.5
 20
-70.67700000000002
 42
0.414213562373095
  0
LWPOLYLINE
  5
95A
330
1F
100
AcDbEntity
  8
pusher
100
AcDbPolyline
 90
        8
 70
     1
 43
0.0
 10
73.17700000000002
 20
-70.67700000000002
 42
0.414213562373095
 10
75.17700000000002
 20
-68.67700000000002
 10
75.17700000000002
 20
-47.32299999999998
 42
0.414213562373095
 10
73.17700000000002
 20
-45.32299999999998
 10
51.82299999999998
 20
-45.32299999999998
 42
0.414213562373095
 10
49.82299999999998
 20
-47.32299999999998
 10
49.82299999999998
 20
-68.67700000000002
 42
0.414213562373095
 10
51.82299999999998
 20
-70.67700000000002
  0
LWPOLYLINE
  5
95B
330
1F
100
AcDbEntity
  8
pcb
100
AcDbPolyline
 90
       16
 70
     1
 43
0.0
 10
-45.5
 20
-39.67700000000002
 10
-45.5
 20
-38.49999999999989
 42
-0.414213562373095
 10
-44.5
 20
-37.49999999999989
 10
-40.5
 20
-37.49999999999989
 42
-0.414213562373095
 10
-39.5
 20
-38.49999999999989
 10
-39.5
 20
-39.67700000000002
 42
0.414213562373095
 10
-37.5
 20
-41.67700000000002
 10
-31.82299999999998
 20
-41.67700000000002
 42
0.414213562373095
 10
-29.82299999999998
 20
-39.67700000000002
 10
-29.82299999999998
 20
-18.32299999999998
 42
0.414213562373095
 10
-31.82299999999998
 20
-16.32299999999998
 10
-53.17700000000002
 20
-16.32299999999998
 42
0.414213562373095
 10
-55.17700000000002
 20
-18.32299999999998
 10
-55.17700000000002
 20
-39.67700000000002
 42
0.414213562373095
 10
-53.17700000000002
 20
-41.67700000000002
 10
-47.5
 20
-41.67700000000002
 42
0.414213562373095
  0
LWPOLYLINE
  5
95C
330
1F
100
AcDbEntity
  8
pusher
100
AcDbPolyline
 90
        8
 70
     1
 43
0.0
 10
-31.82299999999998
 20
-41.67700000000002
 42
0.414213562373095
 10
-29.82299999999998
 20
-39.67700000000002
 10
-29.82299999999998
 20
-18.32299999999998
 42
0.414213562373095
 10
-31.82299999999998
 20
-16.32299999999998
 10
-53.17700000000002
 20
-16.32299999999998
 42
0.414213562373095
 10
-55.17700000000002
 20
-18.32299999999998
 10
-55.17700000000002
 20
-39.67700000000002
 42
0.414213562373095
 10
-53.17700000000002
 20
-41.67700000000002
  0
LWPOLYLINE
  5
95D
330
1F
100
AcDbEntity
  8
pcb
100
AcDbPolyline
 90
       16
 70
     1
 43
0.0
 10
-10.5
 20
-39.67700000000002
 10
-10.5
 20
-38.49999999999989
 42
-0.414213562373095
 10
-9.5
 20
-37.49999999999989
 10
-5.5
 20
-37.49999999999989
 42
-0.414213562373095
 10
-4.5
 20
-38.49999999999989
 10
-4.5
 20
-39.67700000000002
 42
0.414213562373095
 10
-2.5
 20
-41.67700000000002
 10
3.177000000000021
 20
-41.67700000000002
 42
0.414213562373095
 10
5.177000000000021
 20
-39.67700000000002
 10
5.177000000000021
 20
-18.32299999999998
 42
0.414213562373095
 10
3.177000000000021
 20
-16.32299999999998
 10
-18.17700000000002
 20
-16.32299999999998
 42
0.414213562373095
 10
-20.17700000000002
 20
-18.32299999999998
 10
-20.17700000000002
 20
-39.67700000000002
 42
0.414213562373095
 10
-18.17700000000002
 20
-41.67700000000002
 10
-12.5
 20
-41.67700000000002
 42
0.414213562373095
  0
LWPOLYLINE
  5
95E
330
1F
100
AcDbEntity
  8
pusher
100
AcDbPolyline
 90
        8
 70
     1
 43
0.0
 10
3.177000000000021
 20
-41.67700000000002
 42
0.414213562373095
 10
5.177000000000021
 20
-39.67700000000002
 10
5.177000000000021
 20
-18.32299999999998
 42
0.414213562373095
 10
3.177000000000021
 20
-16.32299999999998
 10
-18.17700000000002
 20
-16.32299999999998
 42
0.414213562373095
 10
-20.17700000000002
 20
-18.32299999999998
 10
-20.17700000000002
 20
-39.67700000000002
 42
0.414213562373095
 10
-18.17700000000002
 20
-41.67700000000002
  0
LWPOLYLINE
  5
95F
330
1F
100
AcDbEntity
  8
pcb
100
AcDbPolyline
 90
       16
 70
     1
 43
0.0
 10
24.5
 20
-39.67700000000002
 10
24.5
 20
-38.49999999999989
 42
-0.414213562373095
 10
25.5
 20
-37.49999999999989
 10
29.5
 20
-37.49999999999989
 42
-0.414213562373095
 10
30.5
 20
-38.49999999999989
 10
30.5
 20
-39.67700000000002
 42
0.414213562373095
 10
32.5
 20
-41.67700000000002
 10
38.17700000000002
 20
-41.67700000000002
 42
0.414213562373095
 10
40.17700000000002
 20
-39.67700000000002
 10
40.17700000000002
 20
-18.32299999999998
 42
0.414213562373095
 10
38.17700000000002
 20
-16.32299999999998
 10
16.82299999999998
 20
-16.32299999999998
 42
0.414213562373095
 10
14.82299999999998
 20
-18.32299999999998
 10
14.82299999999998
 20
-39.67700000000002
 42
0.414213562373095
 10
16.82299999999998
 20
-41.67700000000002
 10
22.5
 20
-41.67700000000002
 42
0.414213562373095
  0
LWPOLYLINE
  5
960
330
1F
100
AcDbEntity
  8
pusher
100
AcDbPolyline
 90
        8
 70
     1
 43
0.0
 10
38.17700000000002
 20
-41.67700000000002
 42
0.414213562373095
 10
40.17700000000002
 20
-39.67700000000002
 10
40.17700000000002
 20
-18.32299999999998
 42
0.414213562373095
 10
38.17700000000002
 20
-16.32299999999998
 10
16.82299999999998
 20
-16.32299999999998
 42
0.414213562373095
 10
14.82299999999998
 20
-18.32299999999998
 10
14.82299999999998
 20
-39.67700000000002
 42
0.414213562373095
 10
16.82299999999998
 20
-41.67700000000002
  0
LWPOLYLINE
  5
961
330
1F
100
AcDbEntity
  8
pcb
100
AcDbPolyline
 90
       16
 70
     1
 43
0.0
 10
59.5
 20
-39.67700000000002
 10
59.5
 20
-38.49999999999989
 42
-0.414213562373095
 10
60.5
 20
-37.49999999999989
 10
64.5
 20
-37.49999999999989
 42
-0.414213562373095
 10
65.5
 20
-38.49999999999989
 10
65.5
 20
-39.67700000000002
 42
0.414213562373095
 10
67.5
 20
-41.67700000000002
 10
73.17700000000002
 20
-41.67700000000002
 42
0.414213562373095
 10
75.17700000000002
 20
-39.67700000000002
 10
75.17700000000002
 20
-18.32299999999998
 42
0.414213562373095
 10
73.17700000000002
 20
-16.32299999999998
 10
51.82299999999998
 20
-16.32299999999998
 42
0.414213562373095
 10
49.82299999999998
 20
-18.32299999999998
 10
49.82299999999998
 20
-39.67700000000002
 42
0.414213562373095
 10
51.82299999999998
 20
-41.67700000000002
 10
57.5
 20
-41.67700000000002
 42
0.414213562373095
  0
LWPOLYLINE
  5
962
330
1F
100
AcDbEntity
  8
pusher
100
AcDbPolyline
 90
        8
 70
     1
 43
0.0
 10
73.17700000000002
 20
-41.67700000000002
 42
0.414213562373095
 10
75.17700000000002
 20
-39.67700000000002
 10
75.17700000000002
 20
-18.32299999999998
 42
0.414213562373095
 10
73.17700000000002
 20
-16.32299999999998
 10
51.82299999999998
 20
-16.32299999999998
 42
0.414213562373095
 10
49.82299999999998
 20
-18.32299999999998
 10
49.82299999999998
 20
-39.67700000000002
 42
0.414213562373095
 10
51.82299999999998
 20
-41.67700000000002
  0
LWPOLYLINE
  5
963
330
1F
100
AcDbEntity
  8
pcb
100
AcDbPolyline
 90
       16
 70
     1
 43
0.0
 10
-45.5
 20
-10.67700000000002
 10
-45.5
 20
-9.499999999999886
 42
-0.414213562373095
 10
-44.5
 20
-8.499999999999886
 10
-40.5
 20
-8.499999999999886
 42
-0.414213562373095
 10
-39.5
 20
-9.499999999999886
 10
-39.5
 20
-10.67700000000002
 42
0.414213562373095
 10
-37.5
 20
-12.67700000000002
 10
-31.82299999999998
 20
-12.67700000000002
 42
0.414213562373095
 10
-29.82299999999998
 20
-10.67700000000002
 10
-29.82299999999998
 20
10.67700000000002
 42
0.414213562373095
 10
-31.82299999999998
 20
12.67700000000002
 10
-53.17700000000002
 20
12.67700000000002
 42
0.414213562373095
 10
-55.17700000000002
 20
10.67700000000002
 10
-55.17700000000002
 20
-10.67700000000002
 42
0.414213562373095
 10
-53.17700000000002
 20
-12.67700000000002
 10
-47.5
 20
-12.67700000000002
 42
0.414213562373095
  0
LWPOLYLINE
  5
964
330
1F
100
AcDbEntity
  8
pusher
100
AcDbPolyline
 90
        8
 70
     1
 43
0.0
 10
-31.82299999999998
 20
-12.67700000000002
 42
0.414213562373095
 10
-29.82299999999998
 20
-10.67700000000002
 10
-29.82299999999998
 20
10.67700000000002
 42
0.414213562373095
 10
-31.82299999999998
 20
12.67700000000002
 10
-53.17700000000002
 20
12.67700000000002
 42
0.414213562373095
 10
-55.17700000000002
 20
10.67700000000002
 10
-55.17700000000002
 20
-10.67700000000002
 42
0.414213562373095
 10
-53.17700000000002
 20
-12.67700000000002
  0
LWPOLYLINE
  5
965
330
1F
100
AcDbEntity
  8
pcb
100
AcDbPolyline
 90
       16
 70
     1
 43
0.0
 10
-10.5
 20
-10.67700000000002
 10
-10.5
 20
-9.499999999999886
 42
-0.414213562373095
 10
-9.5
 20
-8.499999999999886
 10
-5.5
 20
-8.499999999999886
 42
-0.414213562373095
 10
-4.5
 20
-9.499999999999886
 10
-4.5
 20
-10.67700000000002
 42
0.414213562373095
 10
-2.5
 20
-12.67700000000002
 10
3.177000000000021
 20
-12.67700000000002
 42
0.414213562373095
 10
5.177000000000021
 20
-10.67700000000002
 10
5.177000000000021
 20
10.67700000000002
 42
0.414213562373095
 10
3.177000000000021
 20
12.67700000000002
 10
-18.17700000000002
 20
12.67700000000002
 42
0.414213562373095
 10
-20.17700000000002
 20
10.67700000000002
 10
-20.17700000000002
 20
-10.67700000000002
 42
0.414213562373095
 10
-18.17700000000002
 20
-12.67700000000002
 10
-12.5
 20
-12.67700000000002
 42
0.414213562373095
  0
LWPOLYLINE
  5
966
330
1F
100
AcDbEntity
  8
pusher
100
AcDbPolyline
 90
        8
 70
     1
 43
0.0
 10
3.177000000000021
 20
-12.67700000000002
 42
0.414213562373095
 10
5.177000000000021
 20
-10.67700000000002
 10
5.177000000000021
 20
10.67700000000002
 42
0.414213562373095
 10
3.177000000000021
 20
12.67700000000002
 10
-18.17700000000002
 20
12.67700000000002
 42
0.414213562373095
 10
-20.17700000000002
 20
10.67700000000002
 10
-20.17700000000002
 20
-10.67700000000002
 42
0.414213562373095
 10
-18.17700000000002
 20
-12.67700000000002
  0
LWPOLYLINE
  5
967
330
1F
100
AcDbEntity
  8
pcb
100
AcDbPolyline
 90
       16
 70
     1
 43
0.0
 10
24.5
 20
-10.67700000000002
 10
24.5
 20
-9.499999999999886
 42
-0.414213562373095
 10
25.5
 20
-8.499999999999886
 10
29.5
 20
-8.499999999999886
 42
-0.414213562373095
 10
30.5
 20
-9.499999999999886
 10
30.5
 20
-10.67700000000002
 42
0.414213562373095
 10
32.5
 20
-12.67700000000002
 10
38.17700000000002
 20
-12.67700000000002
 42
0.414213562373095
 10
40.17700000000002
 20
-10.67700000000002
 10
40.17700000000002
 20
10.67700000000002
 42
0.414213562373095
 10
38.17700000000002
 20
12.67700000000002
 10
16.82299999999998
 20
12.67700000000002
 42
0.414213562373095
 10
14.82299999999998
 20
10.67700000000002
 10
14.82299999999998
 20
-10.67700000000002
 42
0.414213562373095
 10
16.82299999999998
 20
-12.67700000000002
 10
22.5
 20
-12.67700000000002
 42
0.414213562373095
  0
LWPOLYLINE
  5
968
330
1F
100
AcDbEntity
  8
pusher
100
AcDbPolyline
 90
        8
 70
     1
 43
0.0
 10
38.17700000000002
 20
-12.67700000000002
 42
0.414213562373095
 10
40.17700000000002
 20
-10.67700000000002
 10
40.17700000000002
 20
10.67700000000002
 42
0.414213562373095
 10
38.17700000000002
 20
12.67700000000002
 10
16.82299999999998
 20
12.67700000000002
 42
0.414213562373095
 10
14.82299999999998
 20
10.67700000000002
 10
14.82299999999998
 20
-10.67700000000002
 42
0.414213562373095
 10
16.82299999999998
 20
-12.67700000000002
  0
LWPOLYLINE
  5
969
330
1F
100
AcDbEntity
  8
pcb
100
AcDbPolyline
 90
       16
 70
     1
 43
0.0
 10
59.5
 20
-10.67700000000002
 10
59.5
 20
-9.499999999999886
 42
-0.414213562373095
 10
60.5
 20
-8.499999999999886
 10
64.5
 20
-8.499999999999886
 42
-0.414213562373095
 10
65.5
 20
-9.499999999999886
 10
65.5
 20
-10.67700000000002
 42
0.414213562373095
 10
67.5
 20
-12.67700000000002
 10
73.17700000000002
 20
-12.67700000000002
 42
0.414213562373095
 10
75.17700000000002
 20
-10.67700000000002
 10
75.17700000000002
 20
10.67700000000002
 42
0.414213562373095
 10
73.17700000000002
 20
12.67700000000002
 10
51.82299999999998
 20
12.67700000000002
 42
0.414213562373095
 10
49.82299999999998
 20
10.67700000000002
 10
49.82299999999998
 20
-10.67700000000002
 42
0.414213562373095
 10
51.82299999999998
 20
-12.67700000000002
 10
57.5
 20
-12.67700000000002
 42
0.414213562373095
  0
LWPOLYLINE
  5
96A
330
1F
100
AcDbEntity
  8
pusher
100
AcDbPolyline
 90
        8
 70
     1
 43
0.0
 10
73.17700000000002
 20
-12.67700000000002
 42
0.414213562373095
 10
75.17700000000002
 20
-10.67700000000002
 10
75.17700000000002
 20
10.67700000000002
 42
0.414213562373095
 10
73.17700000000002
 20
12.67700000000002
 10
51.82299999999998
 20
12.67700000000002
 42
0.414213562373095
 10
49.82299999999998
 20
10.67700000000002
 10
49.82299999999998
 20
-10.67700000000002
 42
0.414213562373095
 10
51.82299999999998
 20
-12.67700000000002
  0
LWPOLYLINE
  5
96B
330
1F
100
AcDbEntity
  8
pcb
100
AcDbPolyline
 90
       16
 70
     1
 43
0.0
 10
-45.5
 20
18.32299999999998
 10
-45.5
 20
19.50000000000011
 42
-0.414213562373095
 10
-44.5
 20
20.50000000000011
 10
-40.5
 20
20.50000000000011
 42
-0.414213562373095
 10
-39.5
 20
19.50000000000011
 10
-39.5
 20
18.32299999999998
 42
0.414213562373095
 10
-37.5
 20
16.32299999999998
 10
-31.82299999999998
 20
16.32299999999998
 42
0.414213562373095
 10
-29.82299999999998
 20
18.32299999999998
 10
-29.82299999999998
 20
39.67700000000002
 42
0.414213562373095
 10
-31.82299999999998
 20
41.67700000000002
 10
-53.17700000000002
 20
41.67700000000002
 42
0.414213562373095
 10
-55.17700000000002
 20
39.67700000000002
 10
-55.17700000000002
 20
18.32299999999998
 42
0.414213562373095
 10
-53.17700000000002
 20
16.32299999999998
 10
-47.5
 20
16.32299999999998
 42
0.414213562373095
  0
LWPOLYLINE
  5
96C
330
1F
100
AcDbEntity
  8
pusher
100
AcDbPolyline
 90
        8
 70
     1
 43
0.0
 10
-31.82299999999998
 20
16.32299999999998
 42
0.414213562373095
 10
-29.82299999999998
 20
18.32299999999998
 10
-29.82299999999998
 20
39.67700000000002
 42
0.414213562373095
 10
-31.82299999999998
 20
41.67700000000002
 10
-53.17700000000002
 20
41.67700000000002
 42
0.414213562373095
 10
-55.17700000000002
 20
39.67700000000002
 10
-55.17700000000002
 20
18.32299999999998
 42
0.414213562373095
 10
-53.17700000000002
 20
16.32299999999998
  0
LWPOLYLINE
  5
96D
330
1F
100
AcDbEntity
  8
pcb
100
AcDbPolyline
 90
       16
 70
     1
 43
0.0
 10
-10.5
 20
18.32299999999998
 10
-10.5
 20
19.50000000000011
 42
-0.414213562373095
 10
-9.5
 20
20.50000000000011
 10
-5.5
 20
20.50000000000011
 42
-0.414213562373095
 10
-4.5
 20
19.50000000000011
 10
-4.5
 20
18.32299999999998
 42
0.414213562373095
 10
-2.5
 20
16.32299999999998
 10
3.177000000000021
 20
16.32299999999998
 42
0.414213562373095
 10
5.177000000000021
 20
18.32299999999998
 10
5.177000000000021
 20
39.67700000000002
 42
0.414213562373095
 10
3.177000000000021
 20
41.67700000000002
 10
-18.17700000000002
 20
41.67700000000002
 42
0.414213562373095
 10
-20.17700000000002
 20
39.67700000000002
 10
-20.17700000000002
 20
18.32299999999998
 42
0.414213562373095
 10
-18.17700000000002
 20
16.32299999999998
 10
-12.5
 20
16.32299999999998
 42
0.414213562373095
  0
LWPOLYLINE
  5
96E
330
1F
100
AcDbEntity
  8
pusher
100
AcDbPolyline
 90
        8
 70
     1
 43
0.0
 10
3.177000000000021
 20
16.32299999999998
 42
0.414213562373095
 10
5.177000000000021
 20
18.32299999999998
 10
5.177000000000021
 20
39.67700000000002
 42
0.414213562373095
 10
3.177000000000021
 20
41.67700000000002
 10
-18.17700000000002
 20
41.67700000000002
 42
0.414213562373095
 10
-20.17700000000002
 20
39.67700000000002
 10
-20.17700000000002
 20
18.32299999999998
 42
0.414213562373095
 10
-18.17700000000002
 20
16.32299999999998
  0
LWPOLYLINE
  5
96F
330
1F
100
AcDbEntity
  8
pcb
100
AcDbPolyline
 90
       16
 70
     1
 43
0.0
 10
24.5
 20
18.32299999999998
 10
24.5
 20
19.50000000000011
 42
-0.414213562373095
 10
25.5
 20
20.50000000000011
 10
29.5
 20
20.50000000000011
 42
-0.414213562373095
 10
30.5
 20
19.50000000000011
 10
30.5
 20
18.32299999999998
 42
0.414213562373095
 10
32.5
 20
16.32299999999998
 10
38.17700000000002
 20
16.32299999999998
 42
0.414213562373095
 10
40.17700000000002
 20
18.32299999999998
 10
40.17700000000002
 20
39.67700000000002
 42
0.414213562373095
 10
38.17700000000002
 20
41.67700000000002
 10
16.82299999999998
 20
41.67700000000002
 42
0.414213562373095
 10
14.82299999999998
 20
39.67700000000002
 10
14.82299999999998
 20
18.32299999999998
 42
0.414213562373095
 10
16.82299999999998
 20
16.32299999999998
 10
22.5
 20
16.32299999999998
 42
0.414213562373095
  0
LWPOLYLINE
  5
970
330
1F
100
AcDbEntity
  8
pusher
100
AcDbPolyline
 90
        8
 70
     1
 43
0.0
 10
38.17700000000002
 20
16.32299999999998
 42
0.414213562373095
 10
40.17700000000002
 20
18.32299999999998
 10
40.17700000000002
 20
39.67700000000002
 42
0.414213562373095
 10
38.17700000000002
 20
41.67700000000002
 10
16.82299999999998
 20
41.67700000000002
 42
0.414213562373095
 10
14.82299999999998
 20
39.67700000000002
 10
14.82299999999998
 20
18.32299999999998
 42
0.414213562373095
 10
16.82299999999998
 20
16.32299999999998
  0
LWPOLYLINE
  5
971
330
1F
100
AcDbEntity
  8
pcb
100
AcDbPolyline
 90
       16
 70
     1
 43
0.0
 10
59.5
 20
18.32299999999998
 10
59.5
 20
19.50000000000011
 42
-0.414213562373095
 10
60.5
 20
20.50000000000011
 10
64.5
 20
20.50000000000011
 42
-0.414213562373095
 10
65.5
 20
19.50000000000011
 10
65.5
 20
18.32299999999998
 42
0.414213562373095
 10
67.5
 20
16.32299999999998
 10
73.17700000000002
 20
16.32299999999998
 42
0.414213562373095
 10
75.17700000000002
 20
18.32299999999998
 10
75.17700000000002
 20
39.67700000000002
 42
0.414213562373095
 10
73.17700000000002
 20
41.67700000000002
 10
51.82299999999998
 20
41.67700000000002
 42
0.414213562373095
 10
49.82299999999998
 20
39.67700000000002
 10
49.82299999999998
 20
18.32299999999998
 42
0.414213562373095
 10
51.82299999999998
 20
16.32299999999998
 10
57.5
 20
16.32299999999998
 42
0.414213562373095
  0
LWPOLYLINE
  5
972
330
1F
100
AcDbEntity
  8
pusher
100
AcDbPolyline
 90
        8
 70
     1
 43
0.0
 10
73.17700000000002
 20
16.32299999999998
 42
0.414213562373095
 10
75.17700000000002
 20
18.32299999999998
 10
75.17700000000002
 20
39.67700000000002
 42
0.414213562373095
 10
73.17700000000002
 20
41.67700000000002
 10
51.82299999999998
 20
41.67700000000002
 42
0.414213562373095
 10
49.82299999999998
 20
39.67700000000002
 10
49.82299999999998
 20
18.32299999999998
 42
0.414213562373095
 10
51.82299999999998
 20
16.32299999999998
  0
LWPOLYLINE
  5
973
330
1F
100
AcDbEntity
  8
pcb
100
AcDbPolyline
 90
       16
 70
     1
 43
0.0
 10
-45.5
 20
47.32299999999998
 10
-45.5
 20
48.50000000000011
 42
-0.414213562373095
 10
-44.5
 20
49.50000000000011
 10
-40.5
 20
49.50000000000011
 42
-0.414213562373095
 10
-39.5
 20
48.50000000000011
 10
-39.5
 20
47.32299999999998
 42
0.414213562373095
 10
-37.5
 20
45.32299999999998
 10
-31.82299999999998
 20
45.32299999999998
 42
0.414213562373095
 10
-29.82299999999998
 20
47.32299999999998
 10
-29.82299999999998
 20
68.67700000000002
 42
0.414213562373095
 10
-31.82299999999998
 20
70.67700000000002
 10
-53.17700000000002
 20
70.67700000000002
 42
0.414213562373095
 10
-55.17700000000002
 20
68.67700000000002
 10
-55.17700000000002
 20
47.32299999999998
 42
0.414213562373095
 10
-53.17700000000002
 20
45.32299999999998
 10
-47.5
 20
45.32299999999998
 42
0.414213562373095
  0
LWPOLYLINE
  5
974
330
1F
100
AcDbEntity
  8
pusher
100
AcDbPolyline
 90
        8
 70
     1
 43
0.0
 10
-31.82299999999998
 20
45.32299999999998
 42
0.414213562373095
 10
-29.82299999999998
 20
47.32299999999998
 10
-29.82299999999998
 20
68.67700000000002
 42
0.414213562373095
 10
-31.82299999999998
 20
70.67700000000002
 10
-53.17700000000002
 20
70.67700000000002
 42
0.414213562373095
 10
-55.17700000000002
 20
68.67700000000002
 10
-55.17700000000002
 20
47.32299999999998
 42
0.414213562373095
 10
-53.17700000000002
 20
45.32299999999998
  0
LWPOLYLINE
  5
975
330
1F
100
AcDbEntity
  8
pcb
100
AcDbPolyline
 90
       16
 70
     1
 43
0.0
 10
-10.5
 20
47.32299999999998
 10
-10.5
 20
48.50000000000011
 42
-0.414213562373095
 10
-9.5
 20
49.50000000000011
 10
-5.5
 20
49.50000000000011
 42
-0.414213562373095
 10
-4.5
 20
48.50000000000011
 10
-4.5
 20
47.32299999999998
 42
0.414213562373095
 10
-2.5
 20
45.32299999999998
 10
3.177000000000021
 20
45.32299999999998
 42
0.414213562373095
 10
5.177000000000021
 20
47.32299999999998
 10
5.177000000000021
 20
68.67700000000002
 42
0.414213562373095
 10
3.177000000000021
 20
70.67700000000002
 10
-18.17700000000002
 20
70.67700000000002
 42
0.414213562373095
 10
-20.17700000000002
 20
68.67700000000002
 10
-20.17700000000002
 20
47.32299999999998
 42
0.414213562373095
 10
-18.17700000000002
 20
45.32299999999998
 10
-12.5
 20
45.32299999999998
 42
0.414213562373095
  0
LWPOLYLINE
  5
976
330
1F
100
AcDbEntity
  8
pusher
100
AcDbPolyline
 90
        8
 70
     1
 43
0.0
 10
3.177000000000021
 20
45.32299999999998
 42
0.414213562373095
 10
5.177000000000021
 20
47.32299999999998
 10
5.177000000000021
 20
68.67700000000002
 42
0.414213562373095
 10
3.177000000000021
 20
70.67700000000002
 10
-18.17700000000002
 20
70.67700000000002
 42
0.414213562373095
 10
-20.17700000000002
 20
68.67700000000002
 10
-20.17700000000002
 20
47.32299999999998
 42
0.414213562373095
 10
-18.17700000000002
 20
45.32299999999998
  0
LWPOLYLINE
  5
977
330
1F
100
AcDbEntity
  8
pcb
100
AcDbPolyline
 90
       16
 70
     1
 43
0.0
 10
24.5
 20
47.32299999999998
 10
24.5
 20
48.50000000000011
 42
-0.414213562373095
 10
25.5
 20
49.50000000000011
 10
29.5
 20
49.50000000000011
 42
-0.414213562373095
 10
30.5
 20
48.50000000000011
 10
30.5
 20
47.32299999999998
 42
0.414213562373095
 10
32.5
 20
45.32299999999998
 10
38.17700000000002
 20
45.32299999999998
 42
0.414213562373095
 10
40.17700000000002
 20
47.32299999999998
 10
40.17700000000002
 20
68.67700000000002
 42
0.414213562373095
 10
38.17700000000002
 20
70.67700000000002
 10
16.82299999999998
 20
70.67700000000002
 42
0.414213562373095
 10
14.82299999999998
 20
68.67700000000002
 10
14.82299999999998
 20
47.32299999999998
 42
0.414213562373095
 10
16.82299999999998
 20
45.32299999999998
 10
22.5
 20
45.32299999999998
 42
0.414213562373095
  0
LWPOLYLINE
  5
978
330
1F
100
AcDbEntity
  8
pusher
100
AcDbPolyline
 90
        8
 70
     1
 43
0.0
 10
38.17700000000002
 20
45.32299999999998
 42
0.414213562373095
 10
40.17700000000002
 20
47.32299999999998
 10
40.17700000000002
 20
68.67700000000002
 42
0.414213562373095
 10
38.17700000000002
 20
70.67700000000002
 10
16.82299999999998
 20
70.67700000000002
 42
0.414213562373095
 10
14.82299999999998
 20
68.67700000000002
 10
14.82299999999998
 20
47.32299999999998
 42
0.414213562373095
 10
16.82299999999998
 20
45.32299999999998
  0
LWPOLYLINE
  5
979
330
1F
100
AcDbEntity
  8
pcb
100
AcDbPolyline
 90
       16
 70
     1
 43
0.0
 10
59.5
 20
47.32299999999998
 10
59.5
 20
48.50000000000011
 42
-0.414213562373095
 10
60.5
 20
49.50000000000011
 10
64.5
 20
49.50000000000011
 42
-0.414213562373095
 10
65.5
 20
48.50000000000011
 10
65.5
 20
47.32299999999998
 42
0.414213562373095
 10
67.5
 20
45.32299999999998
 10
73.17700000000002
 20
45.32299999999998
 42
0.414213562373095
 10
75.17700000000002
 20
47.32299999999998
 10
75.17700000000002
 20
68.67700000000002
 42
0.414213562373095
 10
73.17700000000002
 20
70.67700000000002
 10
51.82299999999998
 20
70.67700000000002
 42
0.414213562373095
 10
49.82299999999998
 20
68.67700000000002
 10
49.82299999999998
 20
47.32299999999998
 42
0.414213562373095
 10
51.82299999999998
 20
45.32299999999998
 10
57.5
 20
45.32299999999998
 42
0.414213562373095
  0
LWPOLYLINE
  5
97A
330
1F
100
AcDbEntity
  8
pusher
100
AcDbPolyline
 90
        8
 70
     1
 43
0.0
 10
73.17700000000002
 20
45.32299999999998
 42
0.414213562373095
 10
75.17700000000002
 20
47.32299999999998
 10
75.17700000000002
 20
68.67700000000002
 42
0.414213562373095
 10
73.17700000000002
 20
70.67700000000002
 10
51.82299999999998
 20
70.67700000000002
 42
0.414213562373095
 10
49.82299999999998
 20
68.67700000000002
 10
49.82299999999998
 20
47.32299999999998
 42
0.414213562373095
 10
51.82299999999998
 20
45.32299999999998
  0
CIRCLE
  5
9AF
330
1F
100
AcDbEntity
  8
clamper_clearance
100
AcDbCircle
 10
-24.99999999999996
 20
78.33850000000002
 30
0.0
 40
3.1
  0
CIRCLE
  5
9C5
330
1F
100
AcDbEntity
  8
clamper_clearance
100
AcDbCircle
 10
45.0000000000001
 20
-78.33849999999998
 30
0.0
 40
3.1
  0
ENDSEC
  0
SECTION
  2
OBJECTS
  0
DICTIONARY
  5
C
330
0
100
AcDbDictionary
281
     1
  3
ACAD_COLOR
350
73
  3
ACAD_DETAILVIEWSTYLE
350
122
  3
ACAD_GROUP
350
D
  3
ACAD_IMAGE_VARS
350
DC
  3
ACAD_LAYOUT
350
1A
  3
ACAD_MATERIAL
350
72
  3
ACAD_MLEADERSTYLE
350
B5
  3
ACAD_MLINESTYLE
350
17
  3
ACAD_PLOTSETTINGS
350
19
  3
ACAD_PLOTSTYLENAME
350
E
  3
ACAD_SCALELIST
350
B6
  3
ACAD_SECTIONVIEWSTYLE
350
123
  3
ACAD_TABLESTYLE
350
86
  3
ACAD_VISUALSTYLE
350
99
  3
ACDB_RECOMPOSE_DATA
350
A22
  3
AcDbVariableDictionary
350
66
  3
APPDATA
350
E1
  0
SUN
  5
ED
330
94
100
AcDbSun
 90
        1
290
     0
 63
     7
421
 16777215
 40
1.0
291
     1
 91
  2455826
 92
 54000000
292
     0
 70
     2
 71
   256
280
     1
  0
DICTIONARY
  5
13F
330
2
100
AcDbDictionary
280
     1
281
     1
  3
ACAD_LAYERSTATES
360
140
  3
ACLYDICTIONARY
360
9D2
  0
DICTIONARY
  5
73
102
{ACAD_REACTORS
330
C
102
}
330
C
100
AcDbDictionary
281
     1
  0
DICTIONARY
  5
122
102
{ACAD_REACTORS
330
C
102
}
330
C
100
AcDbDictionary
281
     1
  0
DICTIONARY
  5
D
102
{ACAD_REACTORS
330
C
102
}
330
C
100
AcDbDictionary
281
     1
  0
RASTERVARIABLES
  5
DC
102
{ACAD_REACTORS
330
C
102
}
330
C
100
AcDbRasterVariables
 90
        0
 70
     1
 71
     1
 72
     5
  0
DICTIONARY
  5
1A
102
{ACAD_REACTORS
330
C
102
}
330
C
100
AcDbDictionary
281
     1
  3
Model
350
22
  3
Sheet1
350
59
  3
Sheet2
350
5E
  0
DICTIONARY
  5
72
102
{ACAD_REACTORS
330
C
102
}
330
C
100
AcDbDictionary
281
     1
  3
ByBlock
350
E2
  3
ByLayer
350
96
  3
Global
350
98
  0
DICTIONARY
  5
B5
102
{ACAD_REACTORS
330
C
102
}
330
C
100
AcDbDictionary
281
     1
  3
Annotative
350
129
  3
Standard
350
124
  0
DICTIONARY
  5
17
102
{ACAD_REACTORS
330
C
102
}
330
C
100
AcDbDictionary
281
     1
  3
Standard
350
18
  0
DICTIONARY
  5
19
102
{ACAD_REACTORS
330
C
102
}
330
C
100
AcDbDictionary
281
     1
  0
ACDBDICTIONARYWDFLT
  5
E
102
{ACAD_REACTORS
330
C
102
}
330
C
100
AcDbDictionary
281
     1
  3
Normal
350
F
100
AcDbDictionaryWithDefault
340
F
  0
DICTIONARY
  5
B6
102
{ACAD_REACTORS
330
C
102
}
330
C
100
AcDbDictionary
281
     1
  3
A0
350
B7
  3
A1
350
B8
  3
A2
350
B9
  3
A3
350
BA
  3
A4
350
BB
  3
A5
350
BC
  3
A6
350
BD
  3
A7
350
BE
  3
A8
350
BF
  3
A9
350
C0
  3
B0
350
C1
  3
B1
350
C2
  3
B2
350
C3
  3
B3
350
C4
  3
B4
350
C5
  3
B5
350
C6
  3
B6
350
C7
  3
B7
350
C8
  3
B8
350
C9
  3
B9
350
CA
  3
C0
350
CB
  3
C1
350
CC
  3
C2
350
CD
  3
C3
350
CE
  3
C4
350
CF
  3
C5
350
D0
  3
C6
350
D1
  3
C7
350
D2
  3
C8
350
D3
  3
C9
350
D4
  3
D0
350
D5
  3
D1
350
D6
  3
D2
350
D7
  0
DICTIONARY
  5
123
102
{ACAD_REACTORS
330
C
102
}
330
C
100
AcDbDictionary
281
     1
  0
DICTIONARY
  5
86
102
{ACAD_REACTORS
330
C
102
}
330
C
100
AcDbDictionary
281
     1
  3
Standard
350
87
  0
DICTIONARY
  5
99
102
{ACAD_REACTORS
330
C
102
}
330
C
100
AcDbDictionary
281
     1
  3
2dWireframe
350
9F
  3
3D Hidden
350
A1
  3
3dWireframe
350
A0
  3
Basic
350
9E
  3
Brighten
350
A5
  3
ColorChange
350
A9
  3
Conceptual
350
A2
  3
Dim
350
A4
  3
EdgeColorOff
350
E7
  3
Facepattern
350
A8
  3
Flat
350
9A
  3
FlatWithEdges
350
9B
  3
Gouraud
350
9C
  3
GouraudWithEdges
350
9D
  3
Hidden
350
E4
  3
JitterOff
350
E5
  3
Linepattern
350
A7
  3
OverhangOff
350
E6
  3
Realistic
350
A3
  3
Shaded
350
EC
  3
Shaded with edges
350
EB
  3
Shades of Gray
350
E8
  3
Sketchy
350
E9
  3
Thicken
350
A6
  3
Wireframe
350
E3
  3
X-Ray
350
EA
  0
XRECORD
  5
A22
102
{ACAD_REACTORS
330
C
102
}
330
C
100
AcDbXrecord
280
     1
 90
        1
330
87
  0
DICTIONARY
  5
66
102
{ACAD_REACTORS
330
C
102
}
330
C
100
AcDbDictionary
281
     1
  3
CANNOSCALE
350
D8
  3
CMLEADERSTYLE
350
128
  3
CTABLESTYLE
350
89
  3
DIMASSOC
350
67
  3
HIDETEXT
350
6B
  3
LIGHTSINBLOCKS
350
DF
  3
XCLIPFRAME
350
E0
  0
DICTIONARY
  5
E1
102
{ACAD_REACTORS
330
C
102
}
330
C
100
AcDbDictionary
281
     1
  0
DICTIONARY
  5
140
102
{ACAD_REACTORS
330
13F
102
}
330
13F
100
AcDbDictionary
281
     1
  0
DICTIONARY
  5
9D2
102
{ACAD_REACTORS
330
13F
102
}
330
13F
100
AcDbDictionary
281
     1
1001
ACAD
1000
<All
  0
LAYOUT
  5
22
102
{ACAD_REACTORS
330
1A
102
}
330
1A
100
AcDbPlotSettings
  1

  2
none_device
  4
ANSI_A_(8.50_x_11.00_Inches)
  6

 40
6.35
 41
19.05
 42
6.35
 43
19.05
 44
215.9
 45
279.4
 46
11.11250000000003
 47
0.0000000000000142
 48
0.0
 49
0.0
140
0.0
141
0.0
142
1.0
143
1.263157894736842
 70
 11444
 72
     0
 73
     1
 74
     1
  7
monochrome.ctb
 75
     0
 76
     0
 77
     2
 78
   300
147
0.7916666666666665
148
-702.8076765758875
149
-496.2830551296954
100
AcDbLayout
  1
Model
 70
     1
 71
     0
 10
0.0
 20
0.0
 11
12.0
 21
9.0
 12
0.0
 22
0.0
 32
0.0
 14
-100.0
 24
-99.99999999999997
 34
0.0
 15
100.0
 25
100.0
 35
0.0
146
0.0
 13
0.0
 23
0.0
 33
0.0
 16
1.0
 26
0.0
 36
0.0
 17
0.0
 27
1.0
 37
0.0
 76
     0
330
1F
331
94
  0
LAYOUT
  5
59
102
{ACAD_REACTORS
330
1A
102
}
330
1A
100
AcDbPlotSettings
  1

  2
None
  4

  6

 40
0.0
 41
0.0
 42
0.0
 43
0.0
 44
0.0
 45
0.0
 46
0.0
 47
0.0
 48
0.0
 49
0.0
140
0.0
141
0.0
142
1.0
143
1.0
 70
   688
 72
     0
 73
     0
 74
     5
  7

 75
    16
 76
     0
 77
     2
 78
   300
147
1.0
148
0.0
149
0.0
100
AcDbLayout
  1
Sheet1
 70
     1
 71
     1
 10
0.0
 20
0.0
 11
12.0
 21
9.0
 12
0.0
 22
0.0
 32
0.0
 14
0.0
 24
0.0
 34
0.0
 15
0.0
 25
0.0
 35
0.0
146
0.0
 13
0.0
 23
0.0
 33
0.0
 16
1.0
 26
0.0
 36
0.0
 17
0.0
 27
1.0
 37
0.0
 76
     0
330
58
  0
LAYOUT
  5
5E
102
{ACAD_REACTORS
330
1A
102
}
330
1A
100
AcDbPlotSettings
  1

  2
None
  4

  6

 40
0.0
 41
0.0
 42
0.0
 43
0.0
 44
0.0
 45
0.0
 46
0.0
 47
0.0
 48
0.0
 49
0.0
140
0.0
141
0.0
142
1.0
143
1.0
 70
   688
 72
     0
 73
     0
 74
     5
  7

 75
    16
 76
     0
 77
     2
 78
   300
147
1.0
148
0.0
149
0.0
100
AcDbLayout
  1
Sheet2
 70
     1
 71
     2
 10
0.0
 20
0.0
 11
12.0
 21
9.0
 12
0.0
 22
0.0
 32
0.0
 14
0.0
 24
0.0
 34
0.0
 15
0.0
 25
0.0
 35
0.0
146
0.0
 13
0.0
 23
0.0
 33
0.0
 16
1.0
 26
0.0
 36
0.0
 17
0.0
 27
1.0
 37
0.0
 76
     0
330
5D
  0
MATERIAL
  5
E2
102
{ACAD_REACTORS
330
72
102
}
330
72
100
AcDbMaterial
  1
ByBlock
 72
     1
 94
      127
  0
MATERIAL
  5
96
102
{ACAD_REACTORS
330
72
102
}
330
72
100
AcDbMaterial
  1
ByLayer
 72
     1
 94
       63
  0
MATERIAL
  5
98
102
{ACAD_REACTORS
330
72
102
}
330
72
100
AcDbMaterial
  1
Global
 72
     1
 94
       63
  0
MLEADERSTYLE
  5
129
102
{ACAD_REACTORS
330
B5
102
}
330
B5
100
AcDbMLeaderStyle
179
     2
170
     2
171
     1
172
     0
 90
        2
 40
0.0
 41
0.0
173
     1
 91
-1056964608
340
14
 92
       -2
290
     1
 42
0.09
291
     1
 43
0.36
  3
Annotative
341
0
 44
0.18
300

342
11
174
     1
178
     1
175
     1
176
     0
 93
-1056964608
 45
0.18
292
     0
297
     0
 46
0.18
343
0
 94
-1056964608
 47
1.0
 49
1.0
140
1.0
293
     1
141
0.0
294
     1
177
     0
142
1.0
295
     0
296
     1
143
0.125
271
     0
272
     9
273
     9
298
     0
  0
MLEADERSTYLE
  5
124
102
{ACAD_REACTORS
330
B5
102
}
330
B5
100
AcDbMLeaderStyle
179
     2
170
     2
171
     1
172
     0
 90
        2
 40
0.0
 41
0.0
173
     1
 91
-1056964608
340
14
 92
       -2
290
     1
 42
0.09
291
     1
 43
0.36
  3
Standard
341
0
 44
0.18
300

342
11
174
     1
178
     6
175
     1
176
     0
 93
-1056964608
 45
0.18
292
     0
297
     0
 46
0.18
343
0
 94
-1056964608
 47
1.0
 49
1.0
140
1.0
293
     1
141
0.0
294
     1
177
     0
142
1.0
295
     0
296
     0
143
0.125
271
     0
272
     9
273
     9
298
     0
  0
MLINESTYLE
  5
18
102
{ACAD_REACTORS
330
17
102
}
330
17
100
AcDbMlineStyle
  2
STANDARD
 70
     0
  3

 62
   256
 51
90.0
 52
90.0
 71
     2
 49
0.5
 62
   256
  6
BYLAYER
 49
-0.5
 62
   256
  6
BYLAYER
  0
ACDBPLACEHOLDER
  5
F
102
{ACAD_REACTORS
330
E
102
}
330
E
  0
SCALE
  5
B7
102
{ACAD_REACTORS
330
B6
102
}
330
B6
100
AcDbScale
 70
     0
300
1:1
140
1.0
141
1.0
290
     1
  0
SCALE
  5
B8
102
{ACAD_REACTORS
330
B6
102
}
330
B6
100
AcDbScale
 70
     0
300
1:2
140
1.0
141
2.0
290
     0
  0
SCALE
  5
B9
102
{ACAD_REACTORS
330
B6
102
}
330
B6
100
AcDbScale
 70
     0
300
1:4
140
1.0
141
4.0
290
     0
  0
SCALE
  5
BA
102
{ACAD_REACTORS
330
B6
102
}
330
B6
100
AcDbScale
 70
     0
300
1:5
140
1.0
141
5.0
290
     0
  0
SCALE
  5
BB
102
{ACAD_REACTORS
330
B6
102
}
330
B6
100
AcDbScale
 70
     0
300
1:8
140
1.0
141
8.0
290
     0
  0
SCALE
  5
BC
102
{ACAD_REACTORS
330
B6
102
}
330
B6
100
AcDbScale
 70
     0
300
1:10
140
1.0
141
10.0
290
     0
  0
SCALE
  5
BD
102
{ACAD_REACTORS
330
B6
102
}
330
B6
100
AcDbScale
 70
     0
300
1:16
140
1.0
141
16.0
290
     0
  0
SCALE
  5
BE
102
{ACAD_REACTORS
330
B6
102
}
330
B6
100
AcDbScale
 70
     0
300
1:20
140
1.0
141
20.0
290
     0
  0
SCALE
  5
BF
102
{ACAD_REACTORS
330
B6
102
}
330
B6
100
AcDbScale
 70
     0
300
1:30
140
1.0
141
30.0
290
     0
  0
SCALE
  5
C0
102
{ACAD_REACTORS
330
B6
102
}
330
B6
100
AcDbScale
 70
     0
300
1:40
140
1.0
141
40.0
290
     0
  0
SCALE
  5
C1
102
{ACAD_REACTORS
330
B6
102
}
330
B6
100
AcDbScale
 70
     0
300
1:50
140
1.0
141
50.0
290
     0
  0
SCALE
  5
C2
102
{ACAD_REACTORS
330
B6
102
}
330
B6
100
AcDbScale
 70
     0
300
1:100
140
1.0
141
100.0
290
     0
  0
SCALE
  5
C3
102
{ACAD_REACTORS
330
B6
102
}
330
B6
100
AcDbScale
 70
     0
300
2:1
140
2.0
141
1.0
290
     0
  0
SCALE
  5
C4
102
{ACAD_REACTORS
330
B6
102
}
330
B6
100
AcDbScale
 70
     0
300
4:1
140
4.0
141
1.0
290
     0
  0
SCALE
  5
C5
102
{ACAD_REACTORS
330
B6
102
}
330
B6
100
AcDbScale
 70
     0
300
8:1
140
8.0
141
1.0
290
     0
  0
SCALE
  5
C6
102
{ACAD_REACTORS
330
B6
102
}
330
B6
100
AcDbScale
 70
     0
300
10:1
140
10.0
141
1.0
290
     0
  0
SCALE
  5
C7
102
{ACAD_REACTORS
330
B6
102
}
330
B6
100
AcDbScale
 70
     0
300
100:1
140
100.0
141
1.0
290
     0
  0
SCALE
  5
C8
102
{ACAD_REACTORS
330
B6
102
}
330
B6
100
AcDbScale
 70
     0
300
1/128" = 1'-0"
140
0.0078125
141
12.0
290
     0
  0
SCALE
  5
C9
102
{ACAD_REACTORS
330
B6
102
}
330
B6
100
AcDbScale
 70
     0
300
1/64" = 1'-0"
140
0.015625
141
12.0
290
     0
  0
SCALE
  5
CA
102
{ACAD_REACTORS
330
B6
102
}
330
B6
100
AcDbScale
 70
     0
300
1/32" = 1'-0"
140
0.03125
141
12.0
290
     0
  0
SCALE
  5
CB
102
{ACAD_REACTORS
330
B6
102
}
330
B6
100
AcDbScale
 70
     0
300
1/16" = 1'-0"
140
0.0625
141
12.0
290
     0
  0
SCALE
  5
CC
102
{ACAD_REACTORS
330
B6
102
}
330
B6
100
AcDbScale
 70
     0
300
3/32" = 1'-0"
140
0.09375
141
12.0
290
     0
  0
SCALE
  5
CD
102
{ACAD_REACTORS
330
B6
102
}
330
B6
100
AcDbScale
 70
     0
300
1/8" = 1'-0"
140
0.125
141
12.0
290
     0
  0
SCALE
  5
CE
102
{ACAD_REACTORS
330
B6
102
}
330
B6
100
AcDbScale
 70
     0
300
3/16" = 1'-0"
140
0.1875
141
12.0
290
     0
  0
SCALE
  5
CF
102
{ACAD_REACTORS
330
B6
102
}
330
B6
100
AcDbScale
 70
     0
300
1/4" = 1'-0"
140
0.25
141
12.0
290
     0
  0
SCALE
  5
D0
102
{ACAD_REACTORS
330
B6
102
}
330
B6
100
AcDbScale
 70
     0
300
3/8" = 1'-0"
140
0.375
141
12.0
290
     0
  0
SCALE
  5
D1
102
{ACAD_REACTORS
330
B6
102
}
330
B6
100
AcDbScale
 70
     0
300
1/2" = 1'-0"
140
0.5
141
12.0
290
     0
  0
SCALE
  5
D2
102
{ACAD_REACTORS
330
B6
102
}
330
B6
100
AcDbScale
 70
     0
300
3/4" = 1'-0"
140
0.75
141
12.0
290
     0
  0
SCALE
  5
D3
102
{ACAD_REACTORS
330
B6
102
}
330
B6
100
AcDbScale
 70
     0
300
1" = 1'-0"
140
1.0
141
12.0
290
     0
  0
SCALE
  5
D4
102
{ACAD_REACTORS
330
B6
102
}
330
B6
100
AcDbScale
 70
     0
300
1-1/2" = 1'-0"
140
1.5
141
12.0
290
     0
  0
SCALE
  5
D5
102
{ACAD_REACTORS
330
B6
102
}
330
B6
100
AcDbScale
 70
     0
300
3" = 1'-0"
140
3.0
141
12.0
290
     0
  0
SCALE
  5
D6
102
{ACAD_REACTORS
330
B6
102
}
330
B6
100
AcDbScale
 70
     0
300
6" = 1'-0"
140
6.0
141
12.0
290
     0
  0
SCALE
  5
D7
102
{ACAD_REACTORS
330
B6
102
}
330
B6
100
AcDbScale
 70
     0
300
1'-0" = 1'-0"
140
12.0
141
12.0
290
     0
  0
TABLESTYLE
  5
87
102
{ACAD_REACTORS
330
86
102
}
102
{ACAD_XDICTIONARY
360
A20
102
}
330
86
100
AcDbTableStyle
  3
Standard
 70
     0
 71
     0
 40
0.06
 41
0.06
280
     0
281
     0
  7
Standard
140
0.18
170
     2
 62
     0
 63
   257
283
     0
 90
      512
 91
        0
  1

274
    -2
284
     1
 64
     0
275
    -2
285
     1
 65
     0
276
    -2
286
     1
 66
     0
277
    -2
287
     1
 67
     0
278
    -2
288
     1
 68
     0
279
    -2
289
     1
 69
     0
  7
Standard
140
0.25
170
     5
 62
     0
 63
   257
283
     0
 90
      512
 91
        0
  1

274
    -2
284
     1
 64
     0
275
    -2
285
     1
 65
     0
276
    -2
286
     1
 66
     0
277
    -2
287
     1
 67
     0
278
    -2
288
     1
 68
     0
279
    -2
289
     1
 69
     0
  7
Standard
140
0.18
170
     5
 62
     0
 63
   257
283
     0
 90
      512
 91
        0
  1

274
    -2
284
     1
 64
     0
275
    -2
285
     1
 65
     0
276
    -2
286
     1
 66
     0
277
    -2
287
     1
 67
     0
278
    -2
288
     1
 68
     0
279
    -2
289
     1
 69
     0
  0
VISUALSTYLE
  5
9F
102
{ACAD_REACTORS
330
99
102
}
330
99
100
AcDbVisualStyle
  2
2dWireframe
 70
     4
177
     3
291
     0
 70
    58
 90
        0
176
     1
 90
        2
176
     1
 90
        1
176
     1
 90
        0
176
     1
 40
-0.6
176
     1
 40
-30.0
176
     1
 62
     7
420
 16777215
176
     1
 90
        1
176
     1
 90
        4
176
     1
 62
     7
176
     1
 62
   257
176
     1
 90
        1
176
     1
 90
        1
176
     1
 40
1.0
176
     1
 90
        0
176
     1
 62
   257
176
     1
 40
1.0
176
     1
 90
        1
176
     1
 90
        6
176
     1
 90
        2
176
     1
 62
     7
176
     1
 90
        5
176
     1
 90
        0
176
     1
 90
        0
176
     1
290
     0
176
     1
 90
        1
176
     1
 40
0.0
176
     1
 90
        0
176
     1
290
     1
176
     1
290
     1
176
     1
290
     0
176
     1
290
     0
176
     1
290
     0
176
     1
290
     0
176
     1
290
     0
176
     1
290
     0
176
     1
290
     0
176
     1
 90
       50
176
     1
 40
0.0
176
     1
 40
1.0
176
     1
 90
        0
176
     1
 62
   178
420
        0
176
     1
 90
       50
176
     1
 90
        3
176
     1
 62
     5
420
      255
176
     1
290
     0
176
     1
 90
       50
176
     1
 90
       50
176
     1
 90
       50
176
     1
290
     0
176
     1
 90
       50
176
     1
 62
   256
176
     0
 40
1.0
176
     0
 90
        2
176
     1
  1
strokes_ogs.tif
176
     1
290
     0
176
     1
 40
1.0
176
     1
 40
1.0
176
     1
  0
VISUALSTYLE
  5
A1
102
{ACAD_REACTORS
330
99
102
}
330
99
100
AcDbVisualStyle
  2
3D Hidden
 70
     6
177
     3
291
     0
 70
    58
 90
        1
176
     1
 90
        2
176
     1
 90
        2
176
     1
 90
        0
176
     1
 40
-0.6
176
     1
 40
-30.0
176
     1
 62
     7
420
 16777215
176
     1
 90
        2
176
     1
 90
        2
176
     1
 62
     7
176
     1
 62
   257
176
     1
 90
        2
176
     1
 90
        1
176
     1
 40
40.0
176
     1
 90
        0
176
     1
 62
   257
176
     1
 40
1.0
176
     1
 90
        1
176
     1
 90
        6
176
     1
 90
        2
176
     1
 62
     7
176
     1
 90
        3
176
     1
 90
        0
176
     1
 90
        0
176
     1
290
     0
176
     1
 90
        1
176
     1
 40
0.0
176
     1
 90
        0
176
     1
290
     0
176
     1
290
     1
176
     1
290
     1
176
     1
290
     0
176
     1
290
     0
176
     1
290
     0
176
     1
290
     0
176
     1
290
     0
176
     1
290
     0
176
     1
 90
       50
176
     1
 40
0.0
176
     1
 40
1.0
176
     1
 90
        0
176
     1
 62
   178
420
        0
176
     1
 90
       50
176
     1
 90
        3
176
     1
 62
     5
420
      255
176
     1
290
     0
176
     1
 90
       50
176
     1
 90
       50
176
     1
 90
       50
176
     1
290
     0
176
     1
 90
       50
176
     1
 62
   256
176
     0
 40
1.0
176
     0
 90
        2
176
     1
  1
strokes_ogs.tif
176
     1
290
     0
176
     1
 40
1.0
176
     1
 40
1.0
176
     1
  0
VISUALSTYLE
  5
A0
102
{ACAD_REACTORS
330
99
102
}
330
99
100
AcDbVisualStyle
  2
3dWireframe
 70
     5
177
     3
291
     0
 70
    58
 90
        0
176
     1
 90
        2
176
     1
 90
        1
176
     1
 90
        0
176
     1
 40
-0.6
176
     1
 40
-30.0
176
     1
 62
     7
420
 16777215
176
     1
 90
        1
176
     1
 90
        4
176
     1
 62
     7
176
     1
 62
   257
176
     1
 90
        1
176
     1
 90
        1
176
     1
 40
1.0
176
     1
 90
        0
176
     1
 62
   257
176
     1
 40
1.0
176
     1
 90
        1
176
     1
 90
        6
176
     1
 90
        2
176
     1
 62
     7
176
     1
 90
        5
176
     1
 90
        0
176
     1
 90
        0
176
     1
290
     0
176
     1
 90
        1
176
     1
 40
0.0
176
     1
 90
        0
176
     1
290
     0
176
     1
290
     1
176
     1
290
     1
176
     1
290
     0
176
     1
290
     0
176
     1
290
     0
176
     1
290
     0
176
     1
290
     0
176
     1
290
     0
176
     1
 90
       50
176
     1
 40
0.0
176
     1
 40
1.0
176
     1
 90
        0
176
     1
 62
   178
420
        0
176
     1
 90
       50
176
     1
 90
        3
176
     1
 62
     5
420
      255
176
     1
290
     0
176
     1
 90
       50
176
     1
 90
       50
176
     1
 90
       50
176
     1
290
     0
176
     1
 90
       50
176
     1
 62
   256
176
     0
 40
1.0
176
     0
 90
        2
176
     1
  1
strokes_ogs.tif
176
     1
290
     0
176
     1
 40
1.0
176
     1
 40
1.0
176
     1
  0
VISUALSTYLE
  5
9E
102
{ACAD_REACTORS
330
99
102
}
330
99
100
AcDbVisualStyle
  2
Basic
 70
     7
177
     3
291
     1
 70
    58
 90
        1
176
     1
 90
        0
176
     1
 90
        1
176
     1
 90
        0
176
     1
 40
-0.6
176
     1
 40
-30.0
176
     1
 62
     7
420
 16777215
176
     1
 90
        0
176
     1
 90
        4
176
     1
 62
     7
176
     1
 62
   257
176
     1
 90
        1
176
     1
 90
        1
176
     1
 40
1.0
176
     1
 90
        8
176
     1
 62
     7
176
     1
 40
1.0
176
     1
 90
        1
176
     1
 90
        6
176
     1
 90
        2
176
     1
 62
     7
176
     1
 90
        5
176
     1
 90
        0
176
     1
 90
        0
176
     1
290
     0
176
     1
 90
        1
176
     1
 40
0.0
176
     1
 90
        0
176
     1
290
     0
176
     1
290
     1
176
     1
290
     1
176
     1
290
     0
176
     1
290
     0
176
     1
290
     0
176
     1
290
     0
176
     1
290
     0
176
     1
290
     0
176
     1
 90
       50
176
     1
 40
0.0
176
     1
 40
1.0
176
     1
 90
        0
176
     1
 62
   178
420
        0
176
     1
 90
       50
176
     1
 90
        3
176
     1
 62
     5
420
      255
176
     1
290
     0
176
     1
 90
       50
176
     1
 90
       50
176
     1
 90
       50
176
     1
290
     0
176
     1
 90
       50
176
     1
 62
   256
176
     0
 40
1.0
176
     0
 90
        2
176
     1
  1
strokes_ogs.tif
176
     1
290
     0
176
     1
 40
1.0
176
     1
 40
1.0
176
     1
  0
VISUALSTYLE
  5
A5
102
{ACAD_REACTORS
330
99
102
}
330
99
100
AcDbVisualStyle
  2
Brighten
 70
    12
177
     3
291
     1
 70
    58
 90
        2
176
     1
 90
        2
176
     1
 90
        1
176
     1
 90
        0
176
     1
 40
-0.6
176
     1
 40
-30.0
176
     1
 62
     7
420
 16777215
176
     1
 90
        1
176
     1
 90
        4
176
     1
 62
     7
176
     1
 62
   257
176
     1
 90
        1
176
     1
 90
        1
176
     1
 40
1.0
176
     1
 90
        8
176
     1
 62
     7
176
     1
 40
1.0
176
     1
 90
        1
176
     1
 90
        6
176
     1
 90
        2
176
     1
 62
     7
176
     1
 90
        5
176
     1
 90
        0
176
     1
 90
        0
176
     1
290
     0
176
     1
 90
        1
176
     1
 40
50.0
176
     1
 90
        0
176
     1
290
     0
176
     1
290
     1
176
     1
290
     1
176
     1
290
     0
176
     1
290
     0
176
     1
290
     0
176
     1
290
     0
176
     1
290
     0
176
     1
290
     0
176
     1
 90
       50
176
     1
 40
0.0
176
     1
 40
1.0
176
     1
 90
        0
176
     1
 62
   178
420
        0
176
     1
 90
       50
176
     1
 90
        3
176
     1
 62
     5
420
      255
176
     1
290
     0
176
     1
 90
       50
176
     1
 90
       50
176
     1
 90
       50
176
     1
290
     0
176
     1
 90
       50
176
     1
 62
   256
176
     0
 40
1.0
176
     0
 90
        2
176
     1
  1
strokes_ogs.tif
176
     1
290
     0
176
     1
 40
1.0
176
     1
 40
1.0
176
     1
  0
VISUALSTYLE
  5
A9
102
{ACAD_REACTORS
330
99
102
}
330
99
100
AcDbVisualStyle
  2
ColorChange
 70
    16
177
     3
291
     1
 70
    58
 90
        2
176
     1
 90
        2
176
     1
 90
        3
176
     1
 90
        0
176
     1
 40
-0.6
176
     1
 40
-30.0
176
     1
 62
     8
420
  8421504
176
     1
 90
        1
176
     1
 90
        4
176
     1
 62
     7
176
     1
 62
   257
176
     1
 90
        1
176
     1
 90
        1
176
     1
 40
1.0
176
     1
 90
        8
176
     1
 62
     8
420
  8421504
176
     1
 40
1.0
176
     1
 90
        1
176
     1
 90
        6
176
     1
 90
        2
176
     1
 62
     7
176
     1
 90
        5
176
     1
 90
        0
176
     1
 90
        0
176
     1
290
     0
176
     1
 90
        1
176
     1
 40
0.0
176
     1
 90
        0
176
     1
290
     0
176
     1
290
     1
176
     1
290
     1
176
     1
290
     0
176
     1
290
     0
176
     1
290
     0
176
     1
290
     0
176
     1
290
     0
176
     1
290
     0
176
     1
 90
       50
176
     1
 40
0.0
176
     1
 40
1.0
176
     1
 90
        0
176
     1
 62
   178
420
        0
176
     1
 90
       50
176
     1
 90
        3
176
     1
 62
     5
420
      255
176
     1
290
     0
176
     1
 90
       50
176
     1
 90
       50
176
     1
 90
       50
176
     1
290
     0
176
     1
 90
       50
176
     1
 62
   256
176
     0
 40
1.0
176
     0
 90
        2
176
     1
  1
strokes_ogs.tif
176
     1
290
     0
176
     1
 40
1.0
176
     1
 40
1.0
176
     1
  0
VISUALSTYLE
  5
A2
102
{ACAD_REACTORS
330
99
102
}
330
99
100
AcDbVisualStyle
  2
Conceptual
 70
     9
177
     3
291
     0
 70
    58
 90
        3
176
     1
 90
        2
176
     1
 90
        1
176
     1
 90
        0
176
     1
 40
-0.6
176
     1
 40
-30.0
176
     1
 62
     7
420
 16777215
176
     1
 90
        2
176
     1
 90
        2
176
     1
 62
     7
176
     1
 62
   257
176
     1
 90
        1
176
     1
 90
        1
176
     1
 40
40.0
176
     1
 90
        8
176
     1
 62
     7
176
     1
 40
1.0
176
     1
 90
        1
176
     1
 90
        6
176
     1
 90
        2
176
     1
 62
     7
176
     1
 90
        3
176
     1
 90
        0
176
     1
 90
        0
176
     1
290
     0
176
     1
 90
        1
176
     1
 40
0.0
176
     1
 90
        0
176
     1
290
     0
176
     1
290
     1
176
     1
290
     1
176
     1
290
     0
176
     1
290
     0
176
     1
290
     0
176
     1
290
     0
176
     1
290
     0
176
     1
290
     0
176
     1
 90
       50
176
     1
 40
0.0
176
     1
 40
1.0
176
     1
 90
        0
176
     1
 62
   178
420
        0
176
     1
 90
       50
176
     1
 90
        3
176
     1
 62
     5
420
      255
176
     1
290
     0
176
     1
 90
       50
176
     1
 90
       50
176
     1
 90
       50
176
     1
290
     0
176
     1
 90
       50
176
     1
 62
   256
176
     0
 40
1.0
176
     0
 90
        2
176
     1
  1
strokes_ogs.tif
176
     1
290
     0
176
     1
 40
1.0
176
     1
 40
1.0
176
     1
  0
VISUALSTYLE
  5
A4
102
{ACAD_REACTORS
330
99
102
}
330
99
100
AcDbVisualStyle
  2
Dim
 70
    11
177
     3
291
     1
 70
    58
 90
        2
176
     1
 90
        2
176
     1
 90
        1
176
     1
 90
        0
176
     1
 40
-0.6
176
     1
 40
-30.0
176
     1
 62
     7
420
 16777215
176
     1
 90
        1
176
     1
 90
        4
176
     1
 62
     7
176
     1
 62
   257
176
     1
 90
        1
176
     1
 90
        1
176
     1
 40
1.0
176
     1
 90
        8
176
     1
 62
     7
176
     1
 40
1.0
176
     1
 90
        1
176
     1
 90
        6
176
     1
 90
        2
176
     1
 62
     7
176
     1
 90
        5
176
     1
 90
        0
176
     1
 90
        0
176
     1
290
     0
176
     1
 90
        1
176
     1
 40
-50.0
176
     1
 90
        0
176
     1
290
     0
176
     1
290
     1
176
     1
290
     1
176
     1
290
     0
176
     1
290
     0
176
     1
290
     0
176
     1
290
     0
176
     1
290
     0
176
     1
290
     0
176
     1
 90
       50
176
     1
 40
0.0
176
     1
 40
1.0
176
     1
 90
        0
176
     1
 62
   178
420
        0
176
     1
 90
       50
176
     1
 90
        3
176
     1
 62
     5
420
      255
176
     1
290
     0
176
     1
 90
       50
176
     1
 90
       50
176
     1
 90
       50
176
     1
290
     0
176
     1
 90
       50
176
     1
 62
   256
176
     0
 40
1.0
176
     0
 90
        2
176
     1
  1
strokes_ogs.tif
176
     1
290
     0
176
     1
 40
1.0
176
     1
 40
1.0
176
     1
  0
VISUALSTYLE
  5
E7
102
{ACAD_REACTORS
330
99
102
}
330
99
100
AcDbVisualStyle
  2
EdgeColorOff
 70
    22
177
     3
291
     1
 70
    58
 90
        2
176
     0
 90
        2
176
     0
 90
        0
176
     0
 90
        0
176
     0
 40
0.6
176
     0
 40
30.0
176
     0
 62
     7
420
 16777215
176
     0
 90
        1
176
     0
 90
        4
176
     0
 62
     7
176
     0
 62
   257
176
     0
 90
        1
176
     0
 90
        1
176
     0
 40
1.0
176
     0
 90
        8
176
     2
 62
     7
176
     0
 40
1.0
176
     0
 90
        1
176
     0
 90
        6
176
     0
 90
        2
176
     0
 62
     7
176
     0
 90
        5
176
     0
 90
        0
176
     0
 90
        0
176
     0
290
     0
176
     0
 90
        1
176
     0
 40
0.0
176
     0
 90
        0
176
     0
290
     0
176
     0
290
     1
176
     0
290
     1
176
     0
290
     0
176
     0
290
     0
176
     0
290
     0
176
     0
290
     0
176
     0
290
     0
176
     0
290
     0
176
     0
 90
       50
176
     0
 40
0.0
176
     0
 40
1.0
176
     0
 90
        0
176
     0
 62
   178
420
        0
176
     0
 90
       50
176
     0
 90
        3
176
     0
 62
     5
420
      255
176
     0
290
     0
176
     0
 90
       50
176
     0
 90
       50
176
     0
 90
       50
176
     0
290
     0
176
     0
 90
       50
176
     0
 62
   256
176
     0
 40
1.0
176
     0
 90
        2
176
     0
  1
strokes_ogs.tif
176
     0
290
     0
176
     0
 40
1.0
176
     0
 40
1.0
176
     0
  0
VISUALSTYLE
  5
A8
102
{ACAD_REACTORS
330
99
102
}
330
99
100
AcDbVisualStyle
  2
Facepattern
 70
    15
177
     3
291
     1
 70
    58
 90
        2
176
     1
 90
        2
176
     1
 90
        1
176
     1
 90
        0
176
     1
 40
-0.6
176
     1
 40
-30.0
176
     1
 62
     7
420
 16777215
176
     1
 90
        1
176
     1
 90
        4
176
     1
 62
     7
176
     1
 62
   257
176
     1
 90
        1
176
     1
 90
        1
176
     1
 40
1.0
176
     1
 90
        8
176
     1
 62
     7
176
     1
 40
1.0
176
     1
 90
        1
176
     1
 90
        6
176
     1
 90
        2
176
     1
 62
     7
176
     1
 90
        5
176
     1
 90
        0
176
     1
 90
        0
176
     1
290
     0
176
     1
 90
        1
176
     1
 40
0.0
176
     1
 90
        0
176
     1
290
     0
176
     1
290
     1
176
     1
290
     1
176
     1
290
     0
176
     1
290
     0
176
     1
290
     0
176
     1
290
     0
176
     1
290
     0
176
     1
290
     0
176
     1
 90
       50
176
     1
 40
0.0
176
     1
 40
1.0
176
     1
 90
        0
176
     1
 62
   178
420
        0
176
     1
 90
       50
176
     1
 90
        3
176
     1
 62
     5
420
      255
176
     1
290
     0
176
     1
 90
       50
176
     1
 90
       50
176
     1
 90
       50
176
     1
290
     0
176
     1
 90
       50
176
     1
 62
   256
176
     0
 40
1.0
176
     0
 90
        2
176
     1
  1
strokes_ogs.tif
176
     1
290
     0
176
     1
 40
1.0
176
     1
 40
1.0
176
     1
  0
VISUALSTYLE
  5
9A
102
{ACAD_REACTORS
330
99
102
}
330
99
100
AcDbVisualStyle
  2
Flat
 70
     0
177
     3
291
     1
 70
    58
 90
        2
176
     1
 90
        1
176
     1
 90
        1
176
     1
 90
        2
176
     1
 40
-0.6
176
     1
 40
30.0
176
     1
 62
     7
420
 16777215
176
     1
 90
        0
176
     1
 90
        4
176
     1
 62
     7
176
     1
 62
   257
176
     1
 90
        1
176
     1
 90
        1
176
     1
 40
1.0
176
     1
 90
        8
176
     1
 62
     7
176
     1
 40
1.0
176
     1
 90
        1
176
     1
 90
        6
176
     1
 90
        2
176
     1
 62
     7
176
     1
 90
        5
176
     1
 90
        0
176
     1
 90
        0
176
     1
290
     0
176
     1
 90
        1
176
     1
 40
0.0
176
     1
 90
        0
176
     1
290
     0
176
     1
290
     1
176
     1
290
     1
176
     1
290
     0
176
     1
290
     0
176
     1
290
     0
176
     1
290
     0
176
     1
290
     0
176
     1
290
     0
176
     1
 90
       50
176
     1
 40
0.0
176
     1
 40
1.0
176
     1
 90
        0
176
     1
 62
   178
420
        0
176
     1
 90
       50
176
     1
 90
        3
176
     1
 62
     5
420
      255
176
     1
290
     0
176
     1
 90
       50
176
     1
 90
       50
176
     1
 90
       50
176
     1
290
     0
176
     1
 90
       50
176
     1
 62
   256
176
     0
 40
1.0
176
     0
 90
        2
176
     1
  1
strokes_ogs.tif
176
     1
290
     0
176
     1
 40
1.0
176
     1
 40
1.0
176
     1
  0
VISUALSTYLE
  5
9B
102
{ACAD_REACTORS
330
99
102
}
330
99
100
AcDbVisualStyle
  2
FlatWithEdges
 70
     1
177
     3
291
     1
 70
    58
 90
        2
176
     1
 90
        1
176
     1
 90
        1
176
     1
 90
        2
176
     1
 40
-0.6
176
     1
 40
30.0
176
     1
 62
     7
420
 16777215
176
     1
 90
        1
176
     1
 90
        4
176
     1
 62
     7
176
     1
 62
   257
176
     1
 90
        1
176
     1
 90
        1
176
     1
 40
1.0
176
     1
 90
        0
176
     1
 62
   257
176
     1
 40
1.0
176
     1
 90
        1
176
     1
 90
        6
176
     1
 90
        2
176
     1
 62
     7
176
     1
 90
        5
176
     1
 90
        0
176
     1
 90
        0
176
     1
290
     0
176
     1
 90
        1
176
     1
 40
0.0
176
     1
 90
        0
176
     1
290
     0
176
     1
290
     1
176
     1
290
     1
176
     1
290
     0
176
     1
290
     0
176
     1
290
     0
176
     1
290
     0
176
     1
290
     0
176
     1
290
     0
176
     1
 90
       50
176
     1
 40
0.0
176
     1
 40
1.0
176
     1
 90
        0
176
     1
 62
   178
420
        0
176
     1
 90
       50
176
     1
 90
        3
176
     1
 62
     5
420
      255
176
     1
290
     0
176
     1
 90
       50
176
     1
 90
       50
176
     1
 90
       50
176
     1
290
     0
176
     1
 90
       50
176
     1
 62
   256
176
     0
 40
1.0
176
     0
 90
        2
176
     1
  1
strokes_ogs.tif
176
     1
290
     0
176
     1
 40
1.0
176
     1
 40
1.0
176
     1
  0
VISUALSTYLE
  5
9C
102
{ACAD_REACTORS
330
99
102
}
330
99
100
AcDbVisualStyle
  2
Gouraud
 70
     2
177
     3
291
     1
 70
    58
 90
        2
176
     1
 90
        2
176
     1
 90
        1
176
     1
 90
        2
176
     1
 40
-0.6
176
     1
 40
30.0
176
     1
 62
     7
420
 16777215
176
     1
 90
        0
176
     1
 90
        4
176
     1
 62
     7
176
     1
 62
   257
176
     1
 90
        1
176
     1
 90
        1
176
     1
 40
1.0
176
     1
 90
        0
176
     1
 62
     7
176
     1
 40
1.0
176
     1
 90
        1
176
     1
 90
        6
176
     1
 90
        2
176
     1
 62
     7
176
     1
 90
        5
176
     1
 90
        0
176
     1
 90
        0
176
     1
290
     0
176
     1
 90
        1
176
     1
 40
0.0
176
     1
 90
        0
176
     1
290
     0
176
     1
290
     1
176
     1
290
     1
176
     1
290
     0
176
     1
290
     0
176
     1
290
     0
176
     1
290
     0
176
     1
290
     0
176
     1
290
     0
176
     1
 90
       50
176
     1
 40
0.0
176
     1
 40
1.0
176
     1
 90
        0
176
     1
 62
   178
420
        0
176
     1
 90
       50
176
     1
 90
        3
176
     1
 62
     5
420
      255
176
     1
290
     0
176
     1
 90
       50
176
     1
 90
       50
176
     1
 90
       50
176
     1
290
     0
176
     1
 90
       50
176
     1
 62
   256
176
     0
 40
1.0
176
     0
 90
        2
176
     1
  1
strokes_ogs.tif
176
     1
290
     0
176
     1
 40
1.0
176
     1
 40
1.0
176
     1
  0
VISUALSTYLE
  5
9D
102
{ACAD_REACTORS
330
99
102
}
330
99
100
AcDbVisualStyle
  2
GouraudWithEdges
 70
     3
177
     3
291
     1
 70
    58
 90
        2
176
     1
 90
        2
176
     1
 90
        1
176
     1
 90
        2
176
     1
 40
-0.6
176
     1
 40
30.0
176
     1
 62
     7
420
 16777215
176
     1
 90
        1
176
     1
 90
        4
176
     1
 62
     7
176
     1
 62
   257
176
     1
 90
        1
176
     1
 90
        1
176
     1
 40
1.0
176
     1
 90
        0
176
     1
 62
   257
176
     1
 40
1.0
176
     1
 90
        1
176
     1
 90
        6
176
     1
 90
        2
176
     1
 62
     7
176
     1
 90
        5
176
     1
 90
        0
176
     1
 90
        0
176
     1
290
     0
176
     1
 90
        1
176
     1
 40
0.0
176
     1
 90
        0
176
     1
290
     0
176
     1
290
     1
176
     1
290
     1
176
     1
290
     0
176
     1
290
     0
176
     1
290
     0
176
     1
290
     0
176
     1
290
     0
176
     1
290
     0
176
     1
 90
       50
176
     1
 40
0.0
176
     1
 40
1.0
176
     1
 90
        0
176
     1
 62
   178
420
        0
176
     1
 90
       50
176
     1
 90
        3
176
     1
 62
     5
420
      255
176
     1
290
     0
176
     1
 90
       50
176
     1
 90
       50
176
     1
 90
       50
176
     1
290
     0
176
     1
 90
       50
176
     1
 62
   256
176
     0
 40
1.0
176
     0
 90
        2
176
     1
  1
strokes_ogs.tif
176
     1
290
     0
176
     1
 40
1.0
176
     1
 40
1.0
176
     1
  0
VISUALSTYLE
  5
E4
102
{ACAD_REACTORS
330
99
102
}
330
99
100
AcDbVisualStyle
  2
Hidden
 70
     6
177
     3
291
     0
 70
    58
 90
        1
176
     1
 90
        2
176
     1
 90
        2
176
     1
 90
        0
176
     1
 40
0.6
176
     1
 40
30.0
176
     1
 62
     7
420
 16777215
176
     1
 90
        2
176
     1
 90
        2
176
     1
 62
     7
176
     1
 62
   257
176
     1
 90
        2
176
     1
 90
        1
176
     1
 40
40.0
176
     1
 90
        0
176
     1
 62
   257
176
     1
 40
1.0
176
     1
 90
        1
176
     1
 90
        6
176
     1
 90
        2
176
     1
 62
     7
176
     1
 90
        3
176
     1
 90
        0
176
     1
 90
        0
176
     1
290
     0
176
     1
 90
        1
176
     1
 40
0.0
176
     1
 90
        0
176
     1
290
     0
176
     1
290
     1
176
     1
290
     1
176
     1
290
     0
176
     1
290
     0
176
     1
290
     0
176
     1
290
     0
176
     1
290
     0
176
     1
290
     0
176
     1
 90
       50
176
     1
 40
0.0
176
     1
 40
1.0
176
     1
 90
        0
176
     1
 62
   178
420
        0
176
     1
 90
       50
176
     1
 90
        3
176
     1
 62
     5
420
      255
176
     1
290
     0
176
     1
 90
       50
176
     1
 90
       50
176
     1
 90
       50
176
     1
290
     0
176
     1
 90
       50
176
     1
 62
   256
176
     0
 40
1.0
176
     0
 90
        2
176
     1
  1
strokes_ogs.tif
176
     1
290
     0
176
     1
 40
1.0
176
     1
 40
1.0
176
     1
  0
VISUALSTYLE
  5
E5
102
{ACAD_REACTORS
330
99
102
}
330
99
100
AcDbVisualStyle
  2
JitterOff
 70
    20
177
     3
291
     1
 70
    58
 90
        2
176
     0
 90
        2
176
     0
 90
        0
176
     0
 90
        0
176
     0
 40
0.6
176
     0
 40
30.0
176
     0
 62
     7
420
 16777215
176
     0
 90
        1
176
     0
 90
        4
176
     0
 62
     7
176
     0
 62
   257
176
     0
 90
        1
176
     0
 90
        1
176
     0
 40
1.0
176
     0
 90
       10
176
     2
 62
     7
176
     0
 40
1.0
176
     0
 90
        1
176
     0
 90
        6
176
     0
 90
        2
176
     0
 62
     7
176
     0
 90
        5
176
     0
 90
        0
176
     0
 90
        0
176
     0
290
     0
176
     0
 90
        1
176
     0
 40
0.0
176
     0
 90
        0
176
     0
290
     0
176
     0
290
     1
176
     0
290
     1
176
     0
290
     0
176
     0
290
     0
176
     0
290
     0
176
     0
290
     0
176
     0
290
     0
176
     0
290
     0
176
     0
 90
       50
176
     0
 40
0.0
176
     0
 40
1.0
176
     0
 90
        0
176
     0
 62
   178
420
        0
176
     0
 90
       50
176
     0
 90
        3
176
     0
 62
     5
420
      255
176
     0
290
     0
176
     0
 90
       50
176
     0
 90
       50
176
     0
 90
       50
176
     0
290
     0
176
     0
 90
       50
176
     0
 62
   256
176
     0
 40
1.0
176
     0
 90
        2
176
     0
  1
strokes_ogs.tif
176
     0
290
     0
176
     0
 40
1.0
176
     0
 40
1.0
176
     0
  0
VISUALSTYLE
  5
A7
102
{ACAD_REACTORS
330
99
102
}
330
99
100
AcDbVisualStyle
  2
Linepattern
 70
    14
177
     3
291
     1
 70
    58
 90
        2
176
     1
 90
        2
176
     1
 90
        1
176
     1
 90
        0
176
     1
 40
-0.6
176
     1
 40
-30.0
176
     1
 62
     7
420
 16777215
176
     1
 90
        1
176
     1
 90
        4
176
     1
 62
     7
176
     1
 62
   257
176
     1
 90
        7
176
     1
 90
        7
176
     1
 40
1.0
176
     1
 90
        8
176
     1
 62
     7
176
     1
 40
1.0
176
     1
 90
        1
176
     1
 90
        6
176
     1
 90
        2
176
     1
 62
     7
176
     1
 90
        5
176
     1
 90
        0
176
     1
 90
        0
176
     1
290
     0
176
     1
 90
        1
176
     1
 40
0.0
176
     1
 90
        0
176
     1
290
     0
176
     1
290
     1
176
     1
290
     1
176
     1
290
     0
176
     1
290
     0
176
     1
290
     0
176
     1
290
     0
176
     1
290
     0
176
     1
290
     0
176
     1
 90
       50
176
     1
 40
0.0
176
     1
 40
1.0
176
     1
 90
        0
176
     1
 62
   178
420
        0
176
     1
 90
       50
176
     1
 90
        3
176
     1
 62
     5
420
      255
176
     1
290
     0
176
     1
 90
       50
176
     1
 90
       50
176
     1
 90
       50
176
     1
290
     0
176
     1
 90
       50
176
     1
 62
   256
176
     0
 40
1.0
176
     0
 90
        2
176
     1
  1
strokes_ogs.tif
176
     1
290
     0
176
     1
 40
1.0
176
     1
 40
1.0
176
     1
  0
VISUALSTYLE
  5
E6
102
{ACAD_REACTORS
330
99
102
}
330
99
100
AcDbVisualStyle
  2
OverhangOff
 70
    21
177
     3
291
     1
 70
    58
 90
        2
176
     0
 90
        2
176
     0
 90
        0
176
     0
 90
        0
176
     0
 40
0.6
176
     0
 40
30.0
176
     0
 62
     7
420
 16777215
176
     0
 90
        1
176
     0
 90
        4
176
     0
 62
     7
176
     0
 62
   257
176
     0
 90
        1
176
     0
 90
        1
176
     0
 40
1.0
176
     0
 90
        9
176
     2
 62
     7
176
     0
 40
1.0
176
     0
 90
        1
176
     0
 90
        6
176
     0
 90
        2
176
     0
 62
     7
176
     0
 90
        5
176
     0
 90
        0
176
     0
 90
        0
176
     0
290
     0
176
     0
 90
        1
176
     0
 40
0.0
176
     0
 90
        0
176
     0
290
     0
176
     0
290
     1
176
     0
290
     1
176
     0
290
     0
176
     0
290
     0
176
     0
290
     0
176
     0
290
     0
176
     0
290
     0
176
     0
290
     0
176
     0
 90
       50
176
     0
 40
0.0
176
     0
 40
1.0
176
     0
 90
        0
176
     0
 62
   178
420
        0
176
     0
 90
       50
176
     0
 90
        3
176
     0
 62
     5
420
      255
176
     0
290
     0
176
     0
 90
       50
176
     0
 90
       50
176
     0
 90
       50
176
     0
290
     0
176
     0
 90
       50
176
     0
 62
   256
176
     0
 40
1.0
176
     0
 90
        2
176
     0
  1
strokes_ogs.tif
176
     0
290
     0
176
     0
 40
1.0
176
     0
 40
1.0
176
     0
  0
VISUALSTYLE
  5
A3
102
{ACAD_REACTORS
330
99
102
}
330
99
100
AcDbVisualStyle
  2
Realistic
 70
     8
177
     3
291
     0
 70
    58
 90
        2
176
     1
 90
        2
176
     1
 90
        1
176
     1
 90
        0
176
     1
 40
-0.6
176
     1
 40
-30.0
176
     1
 62
     7
420
 16777215
176
     1
 90
        1
176
     1
 90
        0
176
     1
 62
     7
176
     1
 62
   257
176
     1
 90
        1
176
     1
 90
        1
176
     1
 40
1.0
176
     1
 90
        8
176
     1
 62
     8
420
  7895160
176
     1
 40
1.0
176
     1
 90
        1
176
     1
 90
        6
176
     1
 90
        2
176
     1
 62
     7
176
     1
 90
        5
176
     1
 90
        0
176
     1
 90
        0
176
     1
290
     0
176
     1
 90
       13
176
     1
 40
0.0
176
     1
 90
        0
176
     1
290
     0
176
     1
290
     1
176
     1
290
     1
176
     1
290
     0
176
     1
290
     0
176
     1
290
     0
176
     1
290
     0
176
     1
290
     0
176
     1
290
     0
176
     1
 90
       50
176
     1
 40
0.0
176
     1
 40
1.0
176
     1
 90
        0
176
     1
 62
   178
420
        0
176
     1
 90
       50
176
     1
 90
        3
176
     1
 62
     5
420
      255
176
     1
290
     0
176
     1
 90
       50
176
     1
 90
       50
176
     1
 90
       50
176
     1
290
     0
176
     1
 90
       50
176
     1
 62
   256
176
     0
 40
1.0
176
     0
 90
        2
176
     1
  1
strokes_ogs.tif
176
     1
290
     0
176
     1
 40
1.0
176
     1
 40
1.0
176
     1
  0
VISUALSTYLE
  5
EC
102
{ACAD_REACTORS
330
99
102
}
330
99
100
AcDbVisualStyle
  2
Shaded
 70
    27
177
     3
291
     0
 70
    58
 90
        2
176
     1
 90
        2
176
     1
 90
        1
176
     1
 90
        2
176
     1
 40
0.6
176
     1
 40
30.0
176
     1
 62
     7
420
 16777215
176
     1
 90
        0
176
     1
 90
        4
176
     1
 62
     7
176
     1
 62
   257
176
     1
 90
        1
176
     1
 90
        1
176
     1
 40
1.0
176
     1
 90
        8
176
     1
 62
   257
176
     1
 40
1.0
176
     1
 90
        1
176
     1
 90
        6
176
     1
 90
        2
176
     1
 62
     8
420
  7895160
176
     1
 90
        3
176
     1
 90
        0
176
     1
 90
        0
176
     1
290
     0
176
     1
 90
        5
176
     1
 40
0.0
176
     1
 90
        0
176
     1
290
     0
176
     1
290
     1
176
     1
290
     1
176
     1
290
     0
176
     1
290
     0
176
     1
290
     0
176
     1
290
     0
176
     1
290
     0
176
     1
290
     0
176
     1
 90
       50
176
     1
 40
0.0
176
     1
 40
1.0
176
     1
 90
        0
176
     1
 62
   178
420
        0
176
     1
 90
       50
176
     1
 90
        3
176
     1
 62
     5
420
      255
176
     1
290
     0
176
     1
 90
       50
176
     1
 90
       50
176
     1
 90
       50
176
     1
290
     0
176
     1
 90
       50
176
     1
 62
   256
176
     0
 40
1.0
176
     0
 90
        2
176
     1
  1
strokes_ogs.tif
176
     1
290
     0
176
     1
 40
1.0
176
     1
 40
1.0
176
     1
  0
VISUALSTYLE
  5
EB
102
{ACAD_REACTORS
330
99
102
}
330
99
100
AcDbVisualStyle
  2
Shaded with edges
 70
    26
177
     3
291
     0
 70
    58
 90
        2
176
     1
 90
        2
176
     1
 90
        1
176
     1
 90
        2
176
     1
 40
0.6
176
     1
 40
30.0
176
     1
 62
     7
420
 16777215
176
     1
 90
        1
176
     1
 90
       10
176
     1
 62
     7
176
     1
 62
   257
176
     1
 90
        2
176
     1
 90
        1
176
     1
 40
1.0
176
     1
 90
        8
176
     1
 62
   257
176
     1
 40
1.0
176
     1
 90
        1
176
     1
 90
        6
176
     1
 90
        2
176
     1
 62
     7
176
     1
 90
        3
176
     1
 90
        0
176
     1
 90
        0
176
     1
290
     0
176
     1
 90
        5
176
     1
 40
0.0
176
     1
 90
        0
176
     1
290
     0
176
     1
290
     1
176
     1
290
     1
176
     1
290
     0
176
     1
290
     0
176
     1
290
     0
176
     1
290
     0
176
     1
290
     0
176
     1
290
     0
176
     1
 90
       50
176
     1
 40
0.0
176
     1
 40
1.0
176
     1
 90
        0
176
     1
 62
   178
420
        0
176
     1
 90
       50
176
     1
 90
        3
176
     1
 62
     5
420
      255
176
     1
290
     0
176
     1
 90
       50
176
     1
 90
       50
176
     1
 90
       50
176
     1
290
     0
176
     1
 90
       50
176
     1
 62
   256
176
     0
 40
1.0
176
     0
 90
        2
176
     1
  1
strokes_ogs.tif
176
     1
290
     0
176
     1
 40
1.0
176
     1
 40
1.0
176
     1
  0
VISUALSTYLE
  5
E8
102
{ACAD_REACTORS
330
99
102
}
330
99
100
AcDbVisualStyle
  2
Shades of Gray
 70
    23
177
     3
291
     0
 70
    58
 90
        2
176
     1
 90
        2
176
     1
 90
        3
176
     1
 90
        0
176
     1
 40
0.6
176
     1
 40
30.0
176
     1
 62
     7
420
 16777215
176
     1
 90
        2
176
     1
 90
        2
176
     1
 62
     7
176
     1
 62
     7
176
     1
 90
        1
176
     1
 90
        1
176
     1
 40
40.0
176
     1
 90
        8
176
     1
 62
     7
176
     1
 40
1.0
176
     1
 90
        1
176
     1
 90
        6
176
     1
 90
        2
176
     1
 62
     7
176
     1
 90
        3
176
     1
 90
        0
176
     1
 90
        0
176
     1
290
     0
176
     1
 90
        1
176
     1
 40
0.0
176
     1
 90
        0
176
     1
290
     0
176
     1
290
     1
176
     1
290
     1
176
     1
290
     0
176
     1
290
     0
176
     1
290
     0
176
     1
290
     0
176
     1
290
     0
176
     1
290
     0
176
     1
 90
       50
176
     1
 40
0.0
176
     1
 40
1.0
176
     1
 90
        0
176
     1
 62
   178
420
        0
176
     1
 90
       50
176
     1
 90
        3
176
     1
 62
     5
420
      255
176
     1
290
     0
176
     1
 90
       50
176
     1
 90
       50
176
     1
 90
       50
176
     1
290
     0
176
     1
 90
       50
176
     1
 62
   256
176
     0
 40
1.0
176
     0
 90
        2
176
     1
  1
strokes_ogs.tif
176
     1
290
     0
176
     1
 40
1.0
176
     1
 40
1.0
176
     1
  0
VISUALSTYLE
  5
E9
102
{ACAD_REACTORS
330
99
102
}
330
99
100
AcDbVisualStyle
  2
Sketchy
 70
    24
177
     3
291
     0
 70
    58
 90
        1
176
     1
 90
        2
176
     1
 90
        2
176
     1
 90
        0
176
     1
 40
0.6
176
     1
 40
30.0
176
     1
 62
     7
420
 16777215
176
     1
 90
        2
176
     1
 90
        2
176
     1
 62
     7
176
     1
 62
     7
176
     1
 90
        1
176
     1
 90
        1
176
     1
 40
40.0
176
     1
 90
       11
176
     1
 62
     7
176
     1
 40
1.0
176
     1
 90
        1
176
     1
 90
        6
176
     1
 90
        2
176
     1
 62
     7
176
     1
 90
        6
176
     1
 90
        0
176
     1
 90
        0
176
     1
290
     0
176
     1
 90
        1
176
     1
 40
0.0
176
     1
 90
        0
176
     1
290
     0
176
     1
290
     1
176
     1
290
     1
176
     1
290
     0
176
     1
290
     0
176
     1
290
     0
176
     1
290
     0
176
     1
290
     0
176
     1
290
     0
176
     1
 90
       50
176
     1
 40
0.0
176
     1
 40
1.0
176
     1
 90
        0
176
     1
 62
   178
420
        0
176
     1
 90
       50
176
     1
 90
        3
176
     1
 62
     5
420
      255
176
     1
290
     0
176
     1
 90
       50
176
     1
 90
       50
176
     1
 90
       50
176
     1
290
     0
176
     1
 90
       50
176
     1
 62
   256
176
     0
 40
1.0
176
     0
 90
        2
176
     1
  1
strokes_ogs.tif
176
     1
290
     0
176
     1
 40
1.0
176
     1
 40
1.0
176
     1
  0
VISUALSTYLE
  5
A6
102
{ACAD_REACTORS
330
99
102
}
330
99
100
AcDbVisualStyle
  2
Thicken
 70
    13
177
     3
291
     1
 70
    58
 90
        2
176
     1
 90
        2
176
     1
 90
        1
176
     1
 90
        0
176
     1
 40
-0.6
176
     1
 40
-30.0
176
     1
 62
     7
420
 16777215
176
     1
 90
        1
176
     1
 90
        4
176
     1
 62
     7
176
     1
 62
   257
176
     1
 90
        1
176
     1
 90
        1
176
     1
 40
1.0
176
     1
 90
       12
176
     1
 62
     7
176
     1
 40
1.0
176
     1
 90
        1
176
     1
 90
        6
176
     1
 90
        2
176
     1
 62
     7
176
     1
 90
        5
176
     1
 90
        0
176
     1
 90
        0
176
     1
290
     0
176
     1
 90
        1
176
     1
 40
0.0
176
     1
 90
        0
176
     1
290
     0
176
     1
290
     1
176
     1
290
     1
176
     1
290
     0
176
     1
290
     0
176
     1
290
     0
176
     1
290
     0
176
     1
290
     0
176
     1
290
     0
176
     1
 90
       50
176
     1
 40
0.0
176
     1
 40
1.0
176
     1
 90
        0
176
     1
 62
   178
420
        0
176
     1
 90
       50
176
     1
 90
        3
176
     1
 62
     5
420
      255
176
     1
290
     0
176
     1
 90
       50
176
     1
 90
       50
176
     1
 90
       50
176
     1
290
     0
176
     1
 90
       50
176
     1
 62
   256
176
     0
 40
1.0
176
     0
 90
        2
176
     1
  1
strokes_ogs.tif
176
     1
290
     0
176
     1
 40
1.0
176
     1
 40
1.0
176
     1
  0
VISUALSTYLE
  5
E3
102
{ACAD_REACTORS
330
99
102
}
330
99
100
AcDbVisualStyle
  2
Wireframe
 70
     5
177
     3
291
     0
 70
    58
 90
        0
176
     1
 90
        2
176
     1
 90
        0
176
     1
 90
        0
176
     1
 40
0.6
176
     1
 40
30.0
176
     1
 62
     7
420
 16777215
176
     1
 90
        1
176
     1
 90
        4
176
     1
 62
     7
176
     1
 62
   257
176
     1
 90
        1
176
     1
 90
        1
176
     1
 40
1.0
176
     1
 90
        0
176
     1
 62
   257
176
     1
 40
1.0
176
     1
 90
        1
176
     1
 90
        6
176
     1
 90
        2
176
     1
 62
     7
176
     1
 90
        3
176
     1
 90
        0
176
     1
 90
        0
176
     1
290
     0
176
     1
 90
        1
176
     1
 40
0.0
176
     1
 90
        0
176
     1
290
     0
176
     1
290
     1
176
     1
290
     1
176
     1
290
     0
176
     1
290
     0
176
     1
290
     0
176
     1
290
     0
176
     1
290
     0
176
     1
290
     0
176
     1
 90
       50
176
     1
 40
0.0
176
     1
 40
1.0
176
     1
 90
        0
176
     1
 62
   178
420
        0
176
     1
 90
       50
176
     1
 90
        3
176
     1
 62
     5
420
      255
176
     1
290
     0
176
     1
 90
       50
176
     1
 90
       50
176
     1
 90
       50
176
     1
290
     0
176
     1
 90
       50
176
     1
 62
   256
176
     0
 40
1.0
176
     0
 90
        2
176
     1
  1
strokes_ogs.tif
176
     1
290
     0
176
     1
 40
1.0
176
     1
 40
1.0
176
     1
  0
VISUALSTYLE
  5
EA
102
{ACAD_REACTORS
330
99
102
}
330
99
100
AcDbVisualStyle
  2
X-Ray
 70
    25
177
     3
291
     0
 70
    58
 90
        2
176
     1
 90
        2
176
     1
 90
        1
176
     1
 90
        1
176
     1
 40
0.5
176
     1
 40
30.0
176
     1
 62
     7
420
 16777215
176
     1
 90
        1
176
     1
 90
        0
176
     1
 62
     7
176
     1
 62
   257
176
     1
 90
        1
176
     1
 90
        1
176
     1
 40
1.0
176
     1
 90
        8
176
     1
 62
     7
176
     1
 40
1.0
176
     1
 90
        1
176
     1
 90
        6
176
     1
 90
        2
176
     1
 62
     7
176
     1
 90
        3
176
     1
 90
        0
176
     1
 90
        0
176
     1
290
     0
176
     1
 90
       13
176
     1
 40
0.0
176
     1
 90
        0
176
     1
290
     0
176
     1
290
     1
176
     1
290
     1
176
     1
290
     0
176
     1
290
     0
176
     1
290
     0
176
     1
290
     0
176
     1
290
     0
176
     1
290
     0
176
     1
 90
       50
176
     1
 40
0.0
176
     1
 40
1.0
176
     1
 90
        0
176
     1
 62
   178
420
        0
176
     1
 90
       50
176
     1
 90
        3
176
     1
 62
     5
420
      255
176
     1
290
     0
176
     1
 90
       50
176
     1
 90
       50
176
     1
 90
       50
176
     1
290
     0
176
     1
 90
       50
176
     1
 62
   256
176
     0
 40
1.0
176
     0
 90
        2
176
     1
  1
strokes_ogs.tif
176
     1
290
     0
176
     1
 40
1.0
176
     1
 40
1.0
176
     1
  0
DICTIONARYVAR
  5
D8
102
{ACAD_REACTORS
330
66
102
}
330
66
100
DictionaryVariables
280
     0
  1
1:1
  0
DICTIONARYVAR
  5
128
102
{ACAD_REACTORS
330
66
102
}
330
66
100
DictionaryVariables
280
     0
  1
Standard
  0
DICTIONARYVAR
  5
89
102
{ACAD_REACTORS
330
66
102
}
330
66
100
DictionaryVariables
280
     0
  1
Standard
  0
DICTIONARYVAR
  5
67
102
{ACAD_REACTORS
330
66
102
}
330
66
100
DictionaryVariables
280
     0
  1
2
  0
DICTIONARYVAR
  5
6B
102
{ACAD_REACTORS
330
66
102
}
330
66
100
DictionaryVariables
280
     0
  1
1
  0
DICTIONARYVAR
  5
DF
102
{ACAD_REACTORS
330
66
102
}
330
66
100
DictionaryVariables
280
     0
  1
0
  0
DICTIONARYVAR
  5
E0
102
{ACAD_REACTORS
330
66
102
}
330
66
100
DictionaryVariables
280
     0
  1
0
  0
DICTIONARY
  5
A20
330
87
100
AcDbDictionary
280
     1
281
     1
  3
ACAD_ROUNDTRIP_2008_TABLESTYLE_CELLSTYLEMAP
360
A21
  0
CELLSTYLEMAP
  5
A21
102
{ACAD_REACTORS
330
A20
102
}
330
A20
100
AcDbCellStyleMap
 90
        3
300
CELLSTYLE
  1
TABLEFORMAT_BEGIN
 90
        5
170
     1
 91
        0
 92
    32768
 62
   257
 93
        1
300
CONTENTFORMAT
  1
CONTENTFORMAT_BEGIN
 90
        0
 91
        0
 92
      512
 93
        0
300

 40
0.0
140
1.0
 94
        5
 62
     0
340
11
144
0.25
309
CONTENTFORMAT_END
171
     0
 94
        6
 95
        1
302
GRIDFORMAT
  1
GRIDFORMAT_BEGIN
 90
        0
 91
        1
 62
     0
 92
       -2
340
0
 93
        0
 40
0.045
309
GRIDFORMAT_END
 95
        2
302
GRIDFORMAT
  1
GRIDFORMAT_BEGIN
 90
        0
 91
        1
 62
     0
 92
       -2
340
0
 93
        0
 40
0.045
309
GRIDFORMAT_END
 95
        4
302
GRIDFORMAT
  1
GRIDFORMAT_BEGIN
 90
        0
 91
        1
 62
     0
 92
       -2
340
0
 93
        0
 40
0.045
309
GRIDFORMAT_END
 95
        8
302
GRIDFORMAT
  1
GRIDFORMAT_BEGIN
 90
        0
 91
        1
 62
     0
 92
       -2
340
0
 93
        0
 40
0.045
309
GRIDFORMAT_END
 95
       16
302
GRIDFORMAT
  1
GRIDFORMAT_BEGIN
 90
        0
 91
        1
 62
     0
 92
       -2
340
0
 93
        0
 40
0.045
309
GRIDFORMAT_END
 95
       32
302
GRIDFORMAT
  1
GRIDFORMAT_BEGIN
 90
        0
 91
        1
 62
     0
 92
       -2
340
0
 93
        0
 40
0.045
309
GRIDFORMAT_END
309
TABLEFORMAT_END
  1
CELLSTYLE_BEGIN
 90
        1
 91
        1
300
_TITLE
309
CELLSTYLE_END
300
CELLSTYLE
  1
TABLEFORMAT_BEGIN
 90
        5
170
     1
 91
        0
 92
        0
 62
   257
 93
        1
300
CONTENTFORMAT
  1
CONTENTFORMAT_BEGIN
 90
        0
 91
        0
 92
      512
 93
        0
300

 40
0.0
140
1.0
 94
        5
 62
     0
340
11
144
0.18
309
CONTENTFORMAT_END
171
     0
 94
        6
 95
        1
302
GRIDFORMAT
  1
GRIDFORMAT_BEGIN
 90
        0
 91
        1
 62
     0
 92
       -2
340
0
 93
        0
 40
0.045
309
GRIDFORMAT_END
 95
        2
302
GRIDFORMAT
  1
GRIDFORMAT_BEGIN
 90
        0
 91
        1
 62
     0
 92
       -2
340
0
 93
        0
 40
0.045
309
GRIDFORMAT_END
 95
        4
302
GRIDFORMAT
  1
GRIDFORMAT_BEGIN
 90
        0
 91
        1
 62
     0
 92
       -2
340
0
 93
        0
 40
0.045
309
GRIDFORMAT_END
 95
        8
302
GRIDFORMAT
  1
GRIDFORMAT_BEGIN
 90
        0
 91
        1
 62
     0
 92
       -2
340
0
 93
        0
 40
0.045
309
GRIDFORMAT_END
 95
       16
302
GRIDFORMAT
  1
GRIDFORMAT_BEGIN
 90
        0
 91
        1
 62
     0
 92
       -2
340
0
 93
        0
 40
0.045
309
GRIDFORMAT_END
 95
       32
302
GRIDFORMAT
  1
GRIDFORMAT_BEGIN
 90
        0
 91
        1
 62
     0
 92
       -2
340
0
 93
        0
 40
0.045
309
GRIDFORMAT_END
309
TABLEFORMAT_END
  1
CELLSTYLE_BEGIN
 90
        2
 91
        1
300
_HEADER
309
CELLSTYLE_END
300
CELLSTYLE
  1
TABLEFORMAT_BEGIN
 90
        5
170
     1
 91
        0
 92
        0
 62
   257
 93
        1
300
CONTENTFORMAT
  1
CONTENTFORMAT_BEGIN
 90
        0
 91
        0
 92
      512
 93
        0
300

 40
0.0
140
1.0
 94
        2
 62
     0
340
11
144
0.18
309
CONTENTFORMAT_END
171
     0
 94
        6
 95
        1
302
GRIDFORMAT
  1
GRIDFORMAT_BEGIN
 90
        0
 91
        1
 62
     0
 92
       -2
340
0
 93
        0
 40
0.045
309
GRIDFORMAT_END
 95
        2
302
GRIDFORMAT
  1
GRIDFORMAT_BEGIN
 90
        0
 91
        1
 62
     0
 92
       -2
340
0
 93
        0
 40
0.045
309
GRIDFORMAT_END
 95
        4
302
GRIDFORMAT
  1
GRIDFORMAT_BEGIN
 90
        0
 91
        1
 62
     0
 92
       -2
340
0
 93
        0
 40
0.045
309
GRIDFORMAT_END
 95
        8
302
GRIDFORMAT
  1
GRIDFORMAT_BEGIN
 90
        0
 91
        1
 62
     0
 92
       -2
340
0
 93
        0
 40
0.045
309
GRIDFORMAT_END
 95
       16
302
GRIDFORMAT
  1
GRIDFORMAT_BEGIN
 90
        0
 91
        1
 62
     0
 92
       -2
340
0
 93
        0
 40
0.045
309
GRIDFORMAT_END
 95
       32
302
GRIDFORMAT
  1
GRIDFORMAT_BEGIN
 90
        0
 91
        1
 62
     0
 92
       -2
340
0
 93
        0
 40
0.045
309
GRIDFORMAT_END
309
TABLEFORMAT_END
  1
CELLSTYLE_BEGIN
 90
        3
 91
        2
300
_DATA
309
CELLSTYLE_END
  0
ENDSEC
  0
EOF
