  0
SECTION
  2
HEADER
  9
$ACADVER
  1
AC1032
  9
$ACADMAINTVER
 90
        4
  9
$DWGCODEPAGE
  3
ANSI_1251
  9
$LASTSAVEDBY
  1
grey
  9
$REQUIREDVERSIONS
160
                 0
  9
$INSBASE
 10
0.0
 20
0.0
 30
0.0
  9
$EXTMIN
 10
-100.0
 20
-100.0
 30
0.0
  9
$EXTMAX
 10
100.0000000000001
 20
100.0
 30
0.0
  9
$LIMMIN
 10
0.0
 20
0.0
  9
$LIMMAX
 10
12.0
 20
9.0
  9
$ORTHOMODE
 70
     0
  9
$REGENMODE
 70
     1
  9
$FILLMODE
 70
     1
  9
$QTEXTMODE
 70
     0
  9
$MIRRTEXT
 70
     0
  9
$LTSCALE
 40
1.0
  9
$ATTMODE
 70
     1
  9
$TEXTSIZE
 40
0.2
  9
$TRACEWID
 40
0.05
  9
$TEXTSTYLE
  7
Standard
  9
$CLAYER
  8
0
  9
$CELTYPE
  6
ByLayer
  9
$CECOLOR
 62
   256
  9
$CELTSCALE
 40
1.0
  9
$DISPSILH
 70
     0
  9
$DIMSCALE
 40
1.0
  9
$DIMASZ
 40
0.18
  9
$DIMEXO
 40
0.0625
  9
$DIMDLI
 40
0.38
  9
$DIMRND
 40
0.0
  9
$DIMDLE
 40
0.0
  9
$DIMEXE
 40
0.18
  9
$DIMTP
 40
0.0
  9
$DIMTM
 40
0.0
  9
$DIMTXT
 40
0.18
  9
$DIMCEN
 40
-0.09
  9
$DIMTSZ
 40
0.0
  9
$DIMTOL
 70
     0
  9
$DIMLIM
 70
     0
  9
$DIMTIH
 70
     1
  9
$DIMTOH
 70
     1
  9
$DIMSE1
 70
     0
  9
$DIMSE2
 70
     0
  9
$DIMTAD
 70
     0
  9
$DIMZIN
 70
     0
  9
$DIMBLK
  1

  9
$DIMASO
 70
     1
  9
$DIMSHO
 70
     1
  9
$DIMPOST
  1

  9
$DIMAPOST
  1

  9
$DIMALT
 70
     0
  9
$DIMALTD
 70
     2
  9
$DIMALTF
 40
25.4
  9
$DIMLFAC
 40
1.0
  9
$DIMTOFL
 70
     0
  9
$DIMTVP
 40
0.0
  9
$DIMTIX
 70
     0
  9
$DIMSOXD
 70
     0
  9
$DIMSAH
 70
     0
  9
$DIMBLK1
  1

  9
$DIMBLK2
  1

  9
$DIMSTYLE
  2
Standard
  9
$DIMCLRD
 70
     0
  9
$DIMCLRE
 70
     0
  9
$DIMCLRT
 70
     0
  9
$DIMTFAC
 40
1.0
  9
$DIMGAP
 40
0.09
  9
$DIMJUST
 70
     0
  9
$DIMSD1
 70
     0
  9
$DIMSD2
 70
     0
  9
$DIMTOLJ
 70
     1
  9
$DIMTZIN
 70
     0
  9
$DIMALTZ
 70
     0
  9
$DIMALTTZ
 70
     0
  9
$DIMUPT
 70
     0
  9
$DIMDEC
 70
     4
  9
$DIMTDEC
 70
     4
  9
$DIMALTU
 70
     2
  9
$DIMALTTD
 70
     2
  9
$DIMTXSTY
  7
Standard
  9
$DIMAUNIT
 70
     0
  9
$DIMADEC
 70
     0
  9
$DIMALTRND
 40
0.0
  9
$DIMAZIN
 70
     0
  9
$DIMDSEP
 70
    46
  9
$DIMATFIT
 70
     3
  9
$DIMFRAC
 70
     0
  9
$DIMLDRBLK
  1

  9
$DIMLUNIT
 70
     2
  9
$DIMLWD
 70
    -2
  9
$DIMLWE
 70
    -2
  9
$DIMTMOVE
 70
     0
  9
$DIMFXL
 40
1.0
  9
$DIMFXLON
 70
     0
  9
$DIMJOGANG
 40
0.7853981633974483
  9
$DIMTFILL
 70
     0
  9
$DIMTFILLCLR
 70
     0
  9
$DIMARCSYM
 70
     0
  9
$DIMLTYPE
  6

  9
$DIMLTEX1
  6

  9
$DIMLTEX2
  6

  9
$DIMTXTDIRECTION
 70
     0
  9
$LUNITS
 70
     2
  9
$LUPREC
 70
     4
  9
$SKETCHINC
 40
0.1
  9
$FILLETRAD
 40
1.0
  9
$AUNITS
 70
     0
  9
$AUPREC
 70
     0
  9
$MENU
  1
.
  9
$ELEVATION
 40
0.0
  9
$PELEVATION
 40
0.0
  9
$THICKNESS
 40
0.0
  9
$LIMCHECK
 70
     0
  9
$CHAMFERA
 40
0.0
  9
$CHAMFERB
 40
0.0
  9
$CHAMFERC
 40
0.0
  9
$CHAMFERD
 40
0.0
  9
$SKPOLY
 70
     0
  9
$TDCREATE
 40
2452643.063384271
  9
$TDUCREATE
 40
2452643.063384271
  9
$TDUPDATE
 40
2458909.551746736
  9
$TDUUPDATE
 40
2458909.551746736
  9
$TDINDWG
 40
0.0000000347
  9
$TDUSRTIMER
 40
0.0307597685
  9
$USRTIMER
 70
     1
  9
$ANGBASE
 50
0.0
  9
$ANGDIR
 70
     0
  9
$PDMODE
 70
     0
  9
$PDSIZE
 40
0.0
  9
$PLINEWID
 40
0.0
  9
$SPLFRAME
 70
     0
  9
$SPLINETYPE
 70
     6
  9
$SPLINESEGS
 70
     8
  9
$HANDSEED
  5
DB0
  9
$SURFTAB1
 70
     6
  9
$SURFTAB2
 70
     6
  9
$SURFTYPE
 70
     6
  9
$SURFU
 70
     6
  9
$SURFV
 70
     6
  9
$UCSBASE
  2

  9
$UCSNAME
  2

  9
$UCSORG
 10
0.0
 20
0.0
 30
0.0
  9
$UCSXDIR
 10
1.0
 20
0.0
 30
0.0
  9
$UCSYDIR
 10
0.0
 20
1.0
 30
0.0
  9
$UCSORTHOREF
  2

  9
$UCSORTHOVIEW
 70
     0
  9
$UCSORGTOP
 10
0.0
 20
0.0
 30
0.0
  9
$UCSORGBOTTOM
 10
0.0
 20
0.0
 30
0.0
  9
$UCSORGLEFT
 10
0.0
 20
0.0
 30
0.0
  9
$UCSORGRIGHT
 10
0.0
 20
0.0
 30
0.0
  9
$UCSORGFRONT
 10
0.0
 20
0.0
 30
0.0
  9
$UCSORGBACK
 10
0.0
 20
0.0
 30
0.0
  9
$PUCSBASE
  2

  9
$PUCSNAME
  2

  9
$PUCSORG
 10
0.0
 20
0.0
 30
0.0
  9
$PUCSXDIR
 10
1.0
 20
0.0
 30
0.0
  9
$PUCSYDIR
 10
0.0
 20
1.0
 30
0.0
  9
$PUCSORTHOREF
  2

  9
$PUCSORTHOVIEW
 70
     0
  9
$PUCSORGTOP
 10
0.0
 20
0.0
 30
0.0
  9
$PUCSORGBOTTOM
 10
0.0
 20
0.0
 30
0.0
  9
$PUCSORGLEFT
 10
0.0
 20
0.0
 30
0.0
  9
$PUCSORGRIGHT
 10
0.0
 20
0.0
 30
0.0
  9
$PUCSORGFRONT
 10
0.0
 20
0.0
 30
0.0
  9
$PUCSORGBACK
 10
0.0
 20
0.0
 30
0.0
  9
$USERI1
 70
     0
  9
$USERI2
 70
     0
  9
$USERI3
 70
     0
  9
$USERI4
 70
     0
  9
$USERI5
 70
     0
  9
$USERR1
 40
0.0
  9
$USERR2
 40
0.0
  9
$USERR3
 40
0.0
  9
$USERR4
 40
0.0
  9
$USERR5
 40
0.0
  9
$WORLDVIEW
 70
     1
  9
$SHADEDGE
 70
     3
  9
$SHADEDIF
 70
    70
  9
$TILEMODE
 70
     1
  9
$MAXACTVP
 70
    64
  9
$PINSBASE
 10
0.0
 20
0.0
 30
0.0
  9
$PLIMCHECK
 70
     0
  9
$PEXTMIN
 10
0.0
 20
0.0
 30
0.0
  9
$PEXTMAX
 10
0.0
 20
0.0
 30
0.0
  9
$PLIMMIN
 10
0.0
 20
0.0
  9
$PLIMMAX
 10
0.0
 20
0.0
  9
$UNITMODE
 70
     0
  9
$VISRETAIN
 70
     1
  9
$PLINEGEN
 70
     0
  9
$PSLTSCALE
 70
     1
  9
$TREEDEPTH
 70
  3020
  9
$CMLSTYLE
  2
Standard
  9
$CMLJUST
 70
     0
  9
$CMLSCALE
 40
1.0
  9
$PROXYGRAPHICS
 70
     1
  9
$MEASUREMENT
 70
     0
  9
$CELWEIGHT
370
    -1
  9
$ENDCAPS
280
     0
  9
$JOINSTYLE
280
     0
  9
$LWDISPLAY
290
     0
  9
$INSUNITS
 70
     1
  9
$HYPERLINKBASE
  1

  9
$STYLESHEET
  1

  9
$XEDIT
290
     1
  9
$CEPSNTYPE
380
     0
  9
$PSTYLEMODE
290
     1
  9
$FINGERPRINTGUID
  2
{FDEAD576-A652-11D2-9A35-0060089B3A3F}
  9
$VERSIONGUID
  2
{FBC2AE19-5C5C-49EC-81BC-71B1A3362A02}
  9
$EXTNAMES
290
     1
  9
$PSVPSCALE
 40
0.0
  9
$OLESTARTUP
290
     0
  9
$SORTENTS
280
   127
  9
$INDEXCTL
280
     0
  9
$HIDETEXT
280
     1
  9
$XCLIPFRAME
280
     0
  9
$HALOGAP
280
     0
  9
$OBSCOLOR
 70
   257
  9
$OBSLTYPE
280
     0
  9
$INTERSECTIONDISPLAY
280
     0
  9
$INTERSECTIONCOLOR
 70
   257
  9
$DIMASSOC
280
     2
  9
$PROJECTNAME
  1

  9
$CAMERADISPLAY
290
     0
  9
$LENSLENGTH
 40
50.0
  9
$CAMERAHEIGHT
 40
0.0
  9
$STEPSPERSEC
 40
2.0
  9
$STEPSIZE
 40
6.0
  9
$3DDWFPREC
 40
2.0
  9
$PSOLWIDTH
 40
0.25
  9
$PSOLHEIGHT
 40
4.0
  9
$LOFTANG1
 40
1.570796326794897
  9
$LOFTANG2
 40
1.570796326794897
  9
$LOFTMAG1
 40
0.0
  9
$LOFTMAG2
 40
0.0
  9
$LOFTPARAM
 70
     7
  9
$LOFTNORMALS
280
     1
  9
$LATITUDE
 40
37.795
  9
$LONGITUDE
 40
-122.394
  9
$NORTHDIRECTION
 40
0.0
  9
$TIMEZONE
 70
 -8000
  9
$LIGHTGLYPHDISPLAY
280
     1
  9
$TILEMODELIGHTSYNCH
280
     1
  9
$CMATERIAL
347
96
  9
$SOLIDHIST
280
     1
  9
$SHOWHIST
280
     1
  9
$DWFFRAME
280
     2
  9
$DGNFRAME
280
     2
  9
$REALWORLDSCALE
290
     1
  9
$INTERFERECOLOR
 62
     1
  9
$CSHADOW
280
     0
  9
$SHADOWPLANELOCATION
 40
0.0
  0
ENDSEC
  0
SECTION
  2
CLASSES
  0
CLASS
  1
ACDBDICTIONARYWDFLT
  2
AcDbDictionaryWithDefault
  3
ObjectDBX Classes
 90
        0
 91
        3
280
     0
281
     0
  0
CLASS
  1
ACDBPLACEHOLDER
  2
AcDbPlaceHolder
  3
ObjectDBX Classes
 90
        0
 91
        1
280
     0
281
     0
  0
CLASS
  1
LAYOUT
  2
AcDbLayout
  3
ObjectDBX Classes
 90
        0
 91
        1
280
     0
281
     0
  0
CLASS
  1
DICTIONARYVAR
  2
AcDbDictionaryVar
  3
ObjectDBX Classes
 90
        0
 91
        3
280
     0
281
     0
  0
CLASS
  1
TABLESTYLE
  2
AcDbTableStyle
  3
ObjectDBX Classes
 90
     4095
 91
        3
280
     0
281
     0
  0
CLASS
  1
MATERIAL
  2
AcDbMaterial
  3
ObjectDBX Classes
 90
     1153
 91
        3
280
     0
281
     0
  0
CLASS
  1
VISUALSTYLE
  2
AcDbVisualStyle
  3
ObjectDBX Classes
 90
     4095
 91
        3
280
     0
281
     0
  0
CLASS
  1
SCALE
  2
AcDbScale
  3
ObjectDBX Classes
 90
     1153
 91
        3
280
     0
281
     0
  0
CLASS
  1
CELLSTYLEMAP
  2
AcDbCellStyleMap
  3
ObjectDBX Classes
 90
     1152
 91
        3
280
     0
281
     0
  0
CLASS
  1
RASTERVARIABLES
  2
AcDbRasterVariables
  3
ISM
 90
        0
 91
        3
280
     0
281
     0
  0
CLASS
  1
SUN
  2
AcDbSun
  3
SCENEOE
 90
     1153
 91
        3
280
     0
281
     0
  0
CLASS
  1
MLEADERSTYLE
  2
AcDbMLeaderStyle
  3
ACDB_MLEADERSTYLE_CLASS
 90
     4095
 91
        3
280
     0
281
     0
  0
CLASS
  1
DIMASSOC
  2
AcDbDimAssoc
  3
"AcDbDimAssoc|Product Desc:     AcDim ARX App For Dimension|Company:          Autodesk, Inc.|WEB Address:      www.autodesk.com"
 90
        0
 91
        3
280
     0
281
     0
  0
ENDSEC
  0
SECTION
  2
TABLES
  0
TABLE
  2
VPORT
  5
8
330
0
100
AcDbSymbolTable
 70
     1
  0
VPORT
  5
94
330
8
100
AcDbSymbolTableRecord
100
AcDbViewportTableRecord
  2
*Active
 70
     0
 10
0.0
 20
0.0
 11
1.0
 21
1.0
 12
40.68359768723117
 22
16.89858118393503
 13
0.0
 23
0.0
 14
0.5
 24
0.5
 15
0.5
 25
0.5
 16
0.0
 26
0.0
 36
1.0
 17
-27.66959356597999
 27
-19.53870295786237
 37
0.0
 40
312.8012135026179
 41
2.020408163265306
 42
50.0
 43
0.0
 44
0.0
 50
0.0
 51
0.0
 71
    16
 72
  1000
 73
     1
 74
     3
 75
     0
 76
     0
 77
     0
 78
     0
281
     0
 65
     1
110
0.0
120
0.0
130
0.0
111
1.0
121
0.0
131
0.0
112
0.0
122
1.0
132
0.0
 79
     0
146
0.0
348
9F
 60
     2
 61
     5
292
     1
282
     1
141
0.0
142
0.0
 63
   250
421
  3355443
361
ED
  0
ENDTAB
  0
TABLE
  2
LTYPE
  5
5
330
0
100
AcDbSymbolTable
 70
     1
  0
LTYPE
  5
14
330
5
100
AcDbSymbolTableRecord
100
AcDbLinetypeTableRecord
  2
ByBlock
 70
     0
  3

 72
    65
 73
     0
 40
0.0
  0
LTYPE
  5
15
330
5
100
AcDbSymbolTableRecord
100
AcDbLinetypeTableRecord
  2
ByLayer
 70
     0
  3

 72
    65
 73
     0
 40
0.0
  0
LTYPE
  5
16
330
5
100
AcDbSymbolTableRecord
100
AcDbLinetypeTableRecord
  2
Continuous
 70
     0
  3
Solid line
 72
    65
 73
     0
 40
0.0
  0
ENDTAB
  0
TABLE
  2
LAYER
  5
2
102
{ACAD_XDICTIONARY
360
18C
102
}
330
0
100
AcDbSymbolTable
 70
    12
  0
LAYER
  5
10
330
2
100
AcDbSymbolTableRecord
100
AcDbLayerTableRecord
  2
0
 70
     0
 62
    -7
  6
Continuous
370
    -3
390
F
347
98
348
0
  0
LAYER
  5
18F
330
2
100
AcDbSymbolTableRecord
100
AcDbLayerTableRecord
  2
base_plate
 70
     0
 62
     7
  6
Continuous
370
    -3
390
F
347
98
348
0
1001
AcAecLayerStandard
1000

1000

  0
LAYER
  5
192
330
2
100
AcDbSymbolTableRecord
100
AcDbLayerTableRecord
  2
cu_towers
 70
     0
 62
     7
  6
Continuous
370
    -3
390
F
347
98
348
0
1001
AcAecLayerStandard
1000

1000

  0
LAYER
  5
40F
330
2
100
AcDbSymbolTableRecord
100
AcDbLayerTableRecord
  2
pin_holes
 70
     0
 62
     7
  6
Continuous
370
    -3
390
F
347
98
348
0
1001
AcAecLayerStandard
1000

1000

  0
LAYER
  5
416
330
2
100
AcDbSymbolTableRecord
100
AcDbLayerTableRecord
  2
pcb
 70
     0
 62
     7
  6
Continuous
370
    -3
390
F
347
98
348
0
1001
AcAecLayerStandard
1000

1000

  0
LAYER
  5
4CA
330
2
100
AcDbSymbolTableRecord
100
AcDbLayerTableRecord
  2
Defpoints
 70
     0
 62
    -7
  6
Continuous
290
     0
370
    -3
390
F
347
98
348
0
  0
LAYER
  5
62A
330
2
100
AcDbSymbolTableRecord
100
AcDbLayerTableRecord
  2
plate_mounts
 70
     0
 62
     7
  6
Continuous
370
    -3
390
F
347
98
348
0
1001
AcAecLayerStandard
1000

1000

  0
LAYER
  5
84D
330
2
100
AcDbSymbolTableRecord
100
AcDbLayerTableRecord
  2
connector
 70
     0
 62
     7
  6
Continuous
370
    -3
390
F
347
98
348
0
1001
AcAecLayerStandard
1000

1000

  0
LAYER
  5
897
330
2
100
AcDbSymbolTableRecord
100
AcDbLayerTableRecord
  2
slot_plate
 70
     0
 62
     7
  6
Continuous
370
    -3
390
F
347
98
348
0
1001
AcAecLayerStandard
1000

1000

  0
LAYER
  5
B9F
330
2
100
AcDbSymbolTableRecord
100
AcDbLayerTableRecord
  2
spacer_pcb
 70
     0
 62
     7
  6
Continuous
370
    -3
390
F
347
98
348
0
1001
AcAecLayerStandard
1000

1000

  0
LAYER
  5
CAE
330
2
100
AcDbSymbolTableRecord
100
AcDbLayerTableRecord
  2
pusher_plate
 70
     0
 62
     7
  6
Continuous
370
    -3
390
F
347
98
348
0
1001
AcAecLayerStandard
1000

1000

  0
LAYER
  5
D95
330
2
100
AcDbSymbolTableRecord
100
AcDbLayerTableRecord
  2
cu_base
 70
     0
 62
     7
  6
Continuous
370
    -3
390
F
347
98
348
0
1001
AcAecLayerStandard
1000

1000

  0
ENDTAB
  0
TABLE
  2
STYLE
  5
3
330
0
100
AcDbSymbolTable
 70
     2
  0
STYLE
  5
11
330
3
100
AcDbSymbolTableRecord
100
AcDbTextStyleTableRecord
  2
Standard
 70
     0
 40
0.0
 41
1.0
 50
0.0
 71
     0
 42
0.2
  3
arial.ttf
  4

1001
ACAD
1000
Arial
1071
        0
  0
STYLE
  5
125
330
3
100
AcDbSymbolTableRecord
100
AcDbTextStyleTableRecord
  2
Annotative
 70
     0
 40
0.0
 41
1.0
 50
0.0
 71
     0
 42
0.2
  3
arial.ttf
  4

1001
ACAD
1000
Arial
1071
        0
1001
AcadAnnotative
1000
AnnotativeData
1002
{
1070
     1
1070
     1
1002
}
  0
ENDTAB
  0
TABLE
  2
VIEW
  5
6
330
0
100
AcDbSymbolTable
 70
     0
  0
ENDTAB
  0
TABLE
  2
UCS
  5
7
330
0
100
AcDbSymbolTable
 70
     0
  0
ENDTAB
  0
TABLE
  2
APPID
  5
9
330
0
100
AcDbSymbolTable
 70
     3
  0
APPID
  5
12
330
9
100
AcDbSymbolTableRecord
100
AcDbRegAppTableRecord
  2
ACAD
 70
     0
  0
APPID
  5
126
330
9
100
AcDbSymbolTableRecord
100
AcDbRegAppTableRecord
  2
AcadAnnotative
 70
     0
  0
APPID
  5
190
330
9
100
AcDbSymbolTableRecord
100
AcDbRegAppTableRecord
  2
AcAecLayerStandard
 70
     0
  0
ENDTAB
  0
TABLE
  2
DIMSTYLE
  5
A
330
0
100
AcDbSymbolTable
 70
     2
100
AcDbDimStyleTable
  0
DIMSTYLE
105
27
330
A
100
AcDbSymbolTableRecord
100
AcDbDimStyleTableRecord
  2
Standard
 70
     0
141
-0.09
178
     0
340
11
  0
DIMSTYLE
105
127
330
A
100
AcDbSymbolTableRecord
100
AcDbDimStyleTableRecord
  2
Annotative
 70
     0
 40
0.0
141
-0.09
178
     0
340
11
1001
AcadAnnotative
1000
AnnotativeData
1002
{
1070
     1
1070
     1
1002
}
  0
ENDTAB
  0
TABLE
  2
BLOCK_RECORD
  5
1
330
0
100
AcDbSymbolTable
 70
     7
  0
BLOCK_RECORD
  5
1F
330
1
100
AcDbSymbolTableRecord
100
AcDbBlockTableRecord
  2
*Model_Space
340
22
 70
     0
280
     1
281
     0
  0
BLOCK_RECORD
  5
58
330
1
100
AcDbSymbolTableRecord
100
AcDbBlockTableRecord
  2
*Paper_Space
340
59
 70
     0
280
     1
281
     0
  0
BLOCK_RECORD
  5
5D
330
1
100
AcDbSymbolTableRecord
100
AcDbBlockTableRecord
  2
*Paper_Space0
340
5E
 70
     0
280
     1
281
     0
  0
BLOCK_RECORD
  5
7C1
330
1
100
AcDbSymbolTableRecord
100
AcDbBlockTableRecord
  2
*D58
340
0
 70
     0
280
     1
281
     0
  0
BLOCK_RECORD
  5
8C1
330
1
100
AcDbSymbolTableRecord
100
AcDbBlockTableRecord
  2
*D64
340
0
 70
     0
280
     1
281
     0
  0
BLOCK_RECORD
  5
8E3
330
1
100
AcDbSymbolTableRecord
100
AcDbBlockTableRecord
  2
*D65
340
0
 70
     0
280
     1
281
     0
  0
BLOCK_RECORD
  5
AF9
330
1
100
AcDbSymbolTableRecord
100
AcDbBlockTableRecord
  2
*D72
340
0
 70
     0
280
     1
281
     0
  0
BLOCK_RECORD
  5
B38
330
1
100
AcDbSymbolTableRecord
100
AcDbBlockTableRecord
  2
*D73
340
0
 70
     0
280
     1
281
     0
  0
BLOCK_RECORD
  5
B48
330
1
100
AcDbSymbolTableRecord
100
AcDbBlockTableRecord
  2
*D74
340
0
 70
     0
280
     1
281
     0
  0
ENDTAB
  0
ENDSEC
  0
SECTION
  2
BLOCKS
  0
BLOCK
  5
20
330
1F
100
AcDbEntity
  8
0
100
AcDbBlockBegin
  2
*Model_Space
 70
     0
 10
0.0
 20
0.0
 30
0.0
  3
*Model_Space
  1

  0
ENDBLK
  5
21
330
1F
100
AcDbEntity
  8
0
100
AcDbBlockEnd
  0
BLOCK
  5
5A
330
58
100
AcDbEntity
 67
     1
  8
0
100
AcDbBlockBegin
  2
*Paper_Space
 70
     0
 10
0.0
 20
0.0
 30
0.0
  3
*Paper_Space
  1

  0
ENDBLK
  5
5B
330
58
100
AcDbEntity
 67
     1
  8
0
100
AcDbBlockEnd
  0
BLOCK
  5
5F
330
5D
100
AcDbEntity
  8
0
100
AcDbBlockBegin
  2
*Paper_Space0
 70
     0
 10
0.0
 20
0.0
 30
0.0
  3
*Paper_Space0
  1

  0
ENDBLK
  5
60
330
5D
100
AcDbEntity
  8
0
100
AcDbBlockEnd
  0
BLOCK
  5
7C2
330
7C1
100
AcDbEntity
  8
0
100
AcDbBlockBegin
  2
*D58
 70
     1
 10
0.0
 20
0.0
 30
0.0
  3
*D58
  1

  0
LINE
  5
7C4
330
7C1
100
AcDbEntity
  8
pcb
 62
     0
370
    -2
100
AcDbLine
 10
5.0625
 20
195.0
 30
0.0
 11
29.47749602138587
 21
195.0
 31
0.0
  0
LINE
  5
7C5
330
7C1
100
AcDbEntity
  8
pcb
 62
     0
370
    -2
100
AcDbLine
 10
5.0625
 20
4.999999999999986
 30
0.0
 11
29.47749602138586
 21
4.999999999999984
 31
0.0
  0
LINE
  5
7C6
330
7C1
100
AcDbEntity
  8
pcb
 62
     0
370
    -2
100
AcDbLine
 10
29.29749602138587
 20
194.82
 30
0.0
 11
29.29749602138587
 21
100.18
 31
0.0
  0
LINE
  5
7C7
330
7C1
100
AcDbEntity
  8
pcb
 62
     0
370
    -2
100
AcDbLine
 10
29.29749602138586
 20
5.179999999999984
 30
0.0
 11
29.29749602138586
 21
99.81999999999995
 31
0.0
  0
SOLID
  5
7C8
330
7C1
100
AcDbEntity
  8
pcb
 62
     0
100
AcDbTrace
 10
29.32749602138587
 20
194.82
 30
0.0
 11
29.26749602138587
 21
194.82
 31
0.0
 12
29.29749602138587
 22
195.0
 32
0.0
 13
29.29749602138587
 23
195.0
 33
0.0
  0
SOLID
  5
7C9
330
7C1
100
AcDbEntity
  8
pcb
 62
     0
100
AcDbTrace
 10
29.26749602138586
 20
5.179999999999984
 30
0.0
 11
29.32749602138586
 21
5.179999999999984
 31
0.0
 12
29.29749602138586
 22
4.999999999999984
 32
0.0
 13
29.29749602138586
 23
4.999999999999984
 33
0.0
  0
MTEXT
  5
7CA
330
7C1
100
AcDbEntity
  8
pcb
 62
     0
100
AcDbMText
 10
29.29749602138587
 20
100.0
 30
0.0
 40
0.18
 41
0.0
 46
0.0
 71
     5
 72
     1
  1
\A1;190.0000
 73
     1
 44
1.0
  0
POINT
  5
7CB
330
7C1
100
AcDbEntity
  8
Defpoints
 62
     0
100
AcDbPoint
 10
5.0
 20
195.0
 30
0.0
  0
POINT
  5
7CC
330
7C1
100
AcDbEntity
  8
Defpoints
 62
     0
100
AcDbPoint
 10
5.0
 20
4.999999999999986
 30
0.0
  0
POINT
  5
7CD
330
7C1
100
AcDbEntity
  8
Defpoints
 62
     0
100
AcDbPoint
 10
29.29749602138586
 20
4.999999999999984
 30
0.0
  0
ENDBLK
  5
7C3
330
7C1
100
AcDbEntity
  8
0
100
AcDbBlockEnd
  0
BLOCK
  5
8C2
330
8C1
100
AcDbEntity
  8
0
100
AcDbBlockBegin
  2
*D64
 70
     1
 10
0.0
 20
0.0
 30
0.0
  3
*D64
  1

  0
LINE
  5
8C4
330
8C1
100
AcDbEntity
  8
slot_plate
 62
     0
370
    -2
100
AcDbLine
 10
366.9602521652425
 20
-61.47244437378515
 30
0.0
 11
366.9602521652425
 21
-56.21589680580403
 31
0.0
  0
LINE
  5
8C5
330
8C1
100
AcDbEntity
  8
slot_plate
 62
     0
370
    -2
100
AcDbLine
 10
497.3142521652426
 20
-61.47244437378515
 30
0.0
 11
497.3142521652426
 21
-56.21589680580403
 31
0.0
  0
LINE
  5
8C6
330
8C1
100
AcDbEntity
  8
slot_plate
 62
     0
370
    -2
100
AcDbLine
 10
367.1402521652425
 20
-56.39589680580403
 30
0.0
 11
431.4472521652426
 21
-56.39589680580403
 31
0.0
  0
LINE
  5
8C7
330
8C1
100
AcDbEntity
  8
slot_plate
 62
     0
370
    -2
100
AcDbLine
 10
497.1342521652426
 20
-56.39589680580403
 30
0.0
 11
432.8272521652426
 21
-56.39589680580403
 31
0.0
  0
SOLID
  5
8C8
330
8C1
100
AcDbEntity
  8
slot_plate
 62
     0
100
AcDbTrace
 10
367.1402521652425
 20
-56.36589680580403
 30
0.0
 11
367.1402521652425
 21
-56.42589680580403
 31
0.0
 12
366.9602521652425
 22
-56.39589680580403
 32
0.0
 13
366.9602521652425
 23
-56.39589680580403
 33
0.0
  0
SOLID
  5
8C9
330
8C1
100
AcDbEntity
  8
slot_plate
 62
     0
100
AcDbTrace
 10
497.1342521652426
 20
-56.42589680580403
 30
0.0
 11
497.1342521652426
 21
-56.36589680580403
 31
0.0
 12
497.3142521652426
 22
-56.39589680580403
 32
0.0
 13
497.3142521652426
 23
-56.39589680580403
 33
0.0
  0
MTEXT
  5
8CA
330
8C1
100
AcDbEntity
  8
slot_plate
 62
     0
100
AcDbMText
 10
432.1372521652426
 20
-56.39589680580403
 30
0.0
 40
0.18
 41
0.0
 46
0.0
 71
     5
 72
     1
  1
\A1;130.3540
 73
     1
 44
1.0
  0
POINT
  5
8CB
330
8C1
100
AcDbEntity
  8
Defpoints
 62
     0
100
AcDbPoint
 10
366.9602521652425
 20
-61.53494437378515
 30
0.0
  0
POINT
  5
8CC
330
8C1
100
AcDbEntity
  8
Defpoints
 62
     0
100
AcDbPoint
 10
497.3142521652426
 20
-61.53494437378515
 30
0.0
  0
POINT
  5
8CD
330
8C1
100
AcDbEntity
  8
Defpoints
 62
     0
100
AcDbPoint
 10
497.3142521652426
 20
-56.39589680580403
 30
0.0
  0
ENDBLK
  5
8C3
330
8C1
100
AcDbEntity
  8
0
100
AcDbBlockEnd
  0
BLOCK
  5
8E4
330
8E3
100
AcDbEntity
  8
0
100
AcDbBlockBegin
  2
*D65
 70
     1
 10
0.0
 20
0.0
 30
0.0
  3
*D65
  1

  0
LINE
  5
8E6
330
8E3
100
AcDbEntity
  8
pcb
 62
     0
370
    -2
100
AcDbLine
 10
200.0625
 20
200.0
 30
0.0
 11
267.2446385813534
 21
200.0
 31
0.0
  0
LINE
  5
8E7
330
8E3
100
AcDbEntity
  8
pcb
 62
     0
370
    -2
100
AcDbLine
 10
165.2395
 20
170.677
 30
0.0
 11
267.2446385813534
 21
170.677
 31
0.0
  0
LINE
  5
8E8
330
8E3
100
AcDbEntity
  8
pcb
 62
     0
370
    -2
100
AcDbLine
 10
267.0646385813534
 20
199.82
 30
0.0
 11
267.0646385813534
 21
185.5185
 31
0.0
  0
LINE
  5
8E9
330
8E3
100
AcDbEntity
  8
pcb
 62
     0
370
    -2
100
AcDbLine
 10
267.0646385813534
 20
170.857
 30
0.0
 11
267.0646385813534
 21
185.1584999999999
 31
0.0
  0
SOLID
  5
8EA
330
8E3
100
AcDbEntity
  8
pcb
 62
     0
100
AcDbTrace
 10
267.0946385813534
 20
199.82
 30
0.0
 11
267.0346385813534
 21
199.82
 31
0.0
 12
267.0646385813534
 22
200.0
 32
0.0
 13
267.0646385813534
 23
200.0
 33
0.0
  0
SOLID
  5
8EB
330
8E3
100
AcDbEntity
  8
pcb
 62
     0
100
AcDbTrace
 10
267.0346385813534
 20
170.857
 30
0.0
 11
267.0946385813534
 21
170.857
 31
0.0
 12
267.0646385813534
 22
170.677
 32
0.0
 13
267.0646385813534
 23
170.677
 33
0.0
  0
MTEXT
  5
8EC
330
8E3
100
AcDbEntity
  8
pcb
 62
     0
100
AcDbMText
 10
267.0646385813534
 20
185.3385
 30
0.0
 40
0.18
 41
0.0
 46
0.0
 71
     5
 72
     1
  1
\A1;29.3230
 73
     1
 44
1.0
  0
POINT
  5
8ED
330
8E3
100
AcDbEntity
  8
Defpoints
 62
     0
100
AcDbPoint
 10
200.0
 20
200.0
 30
0.0
  0
POINT
  5
8EE
330
8E3
100
AcDbEntity
  8
Defpoints
 62
     0
100
AcDbPoint
 10
165.177
 20
170.677
 30
0.0
  0
POINT
  5
8EF
330
8E3
100
AcDbEntity
  8
Defpoints
 62
     0
100
AcDbPoint
 10
267.0646385813534
 20
170.677
 30
0.0
  0
ENDBLK
  5
8E5
330
8E3
100
AcDbEntity
  8
0
100
AcDbBlockEnd
  0
BLOCK
  5
AFA
330
AF9
100
AcDbEntity
  8
0
100
AcDbBlockBegin
  2
*D72
 70
     1
 10
0.0
 20
0.0
 30
0.0
  3
*D72
  1

  0
LINE
  5
AFC
330
AF9
100
AcDbEntity
  8
cu_towers
 62
     0
370
    -2
100
AcDbLine
 10
-18.95580582617584
 20
10.95580582617567
 30
0.0
 11
-18.66430918787186
 21
10.66430918787168
 31
0.0
  0
LINE
  5
AFD
330
AF9
100
AcDbEntity
  8
cu_towers
 62
     0
370
    -2
100
AcDbLine
 10
-19.87504464171835
 20
10.03656701063318
 30
0.0
 11
-19.58354800341437
 21
9.745070372329192
 31
0.0
  0
LINE
  5
AFE
330
AF9
100
AcDbEntity
  8
cu_towers
 62
     0
370
    -2
100
AcDbLine
 10
-18.91886762909902
 20
10.66430918787168
 30
0.0
 11
-19.07120781625668
 21
10.51196900071401
 31
0.0
  0
LINE
  5
AFF
330
AF9
100
AcDbEntity
  8
cu_towers
 62
     0
370
    -2
100
AcDbLine
 10
-19.58354800341437
 20
9.999628813556349
 30
0.0
 11
-19.4312078162567
 21
10.15196900071401
 31
0.0
  0
SOLID
  5
B00
330
AF9
100
AcDbEntity
  8
cu_towers
 62
     0
100
AcDbTrace
 10
-18.89765442566342
 20
10.64309598443608
 30
0.0
 11
-18.94008083253461
 21
10.68552239130728
 31
0.0
 12
-18.79158840848543
 22
10.79158840848526
 32
0.0
 13
-18.79158840848543
 23
10.79158840848526
 33
0.0
  0
SOLID
  5
B01
330
AF9
100
AcDbEntity
  8
cu_towers
 62
     0
100
AcDbTrace
 10
-19.60476120684996
 20
10.02084201699195
 30
0.0
 11
-19.56233479997877
 21
9.978415610120752
 31
0.0
 12
-19.71082722402795
 22
9.872349592942772
 32
0.0
 13
-19.71082722402795
 23
9.872349592942772
 33
0.0
  0
MTEXT
  5
B02
330
AF9
100
AcDbEntity
  8
cu_towers
 62
     0
100
AcDbMText
 10
-19.25120781625669
 20
10.33196900071401
 30
0.0
 40
0.18
 41
0.0
 46
0.0
 71
     5
 72
     1
  1
\A1;1.3000
 73
     1
 44
1.0
  0
POINT
  5
B03
330
AF9
100
AcDbEntity
  8
Defpoints
 62
     0
100
AcDbPoint
 10
-19.0
 20
10.99999999999983
 30
0.0
  0
POINT
  5
B04
330
AF9
100
AcDbEntity
  8
Defpoints
 62
     0
100
AcDbPoint
 10
-19.91923881554251
 20
10.08076118445734
 30
0.0
  0
POINT
  5
B05
330
AF9
100
AcDbEntity
  8
Defpoints
 62
     0
100
AcDbPoint
 10
-19.71082722402795
 20
9.872349592942772
 30
0.0
  0
ENDBLK
  5
AFB
330
AF9
100
AcDbEntity
  8
0
100
AcDbBlockEnd
  0
BLOCK
  5
B39
330
B38
100
AcDbEntity
  8
0
100
AcDbBlockBegin
  2
*D73
 70
     1
 10
0.0
 20
0.0
 30
0.0
  3
*D73
  1

  0
LINE
  5
B3B
330
B38
100
AcDbEntity
  8
cu_towers
 62
     0
370
    -2
100
AcDbLine
 10
-75.04850000000005
 20
55.86249999999995
 30
0.0
 11
-75.04850000000005
 21
58.57972314046035
 31
0.0
  0
LINE
  5
B3C
330
B38
100
AcDbEntity
  8
cu_towers
 62
     0
370
    -2
100
AcDbLine
 10
-90.1285
 20
55.86249999999995
 30
0.0
 11
-90.1285
 21
58.57972314046035
 31
0.0
  0
LINE
  5
B3D
330
B38
100
AcDbEntity
  8
cu_towers
 62
     0
370
    -2
100
AcDbLine
 10
-75.22850000000005
 20
58.39972314046035
 30
0.0
 11
-81.9842142857143
 21
58.39972314046035
 31
0.0
  0
LINE
  5
B3E
330
B38
100
AcDbEntity
  8
cu_towers
 62
     0
370
    -2
100
AcDbLine
 10
-89.9485
 20
58.39972314046035
 30
0.0
 11
-83.19278571428575
 21
58.39972314046035
 31
0.0
  0
SOLID
  5
B3F
330
B38
100
AcDbEntity
  8
cu_towers
 62
     0
100
AcDbTrace
 10
-75.22850000000005
 20
58.36972314046034
 30
0.0
 11
-75.22850000000005
 21
58.42972314046035
 31
0.0
 12
-75.04850000000005
 22
58.39972314046035
 32
0.0
 13
-75.04850000000005
 23
58.39972314046035
 33
0.0
  0
SOLID
  5
B40
330
B38
100
AcDbEntity
  8
cu_towers
 62
     0
100
AcDbTrace
 10
-89.9485
 20
58.42972314046035
 30
0.0
 11
-89.9485
 21
58.36972314046034
 31
0.0
 12
-90.1285
 22
58.39972314046035
 32
0.0
 13
-90.1285
 23
58.39972314046035
 33
0.0
  0
MTEXT
  5
B41
330
B38
100
AcDbEntity
  8
cu_towers
 62
     0
100
AcDbMText
 10
-82.58850000000002
 20
58.39972314046035
 30
0.0
 40
0.18
 41
0.0
 46
0.0
 71
     5
 72
     1
  1
\A1;15.0800
 73
     1
 44
1.0
  0
POINT
  5
B42
330
B38
100
AcDbEntity
  8
Defpoints
 62
     0
100
AcDbPoint
 10
-75.04850000000005
 20
55.79999999999995
 30
0.0
  0
POINT
  5
B43
330
B38
100
AcDbEntity
  8
Defpoints
 62
     0
100
AcDbPoint
 10
-90.1285
 20
55.79999999999995
 30
0.0
  0
POINT
  5
B44
330
B38
100
AcDbEntity
  8
Defpoints
 62
     0
100
AcDbPoint
 10
-90.1285
 20
58.39972314046035
 30
0.0
  0
ENDBLK
  5
B3A
330
B38
100
AcDbEntity
  8
0
100
AcDbBlockEnd
  0
BLOCK
  5
B49
330
B48
100
AcDbEntity
  8
0
100
AcDbBlockBegin
  2
*D74
 70
     1
 10
0.0
 20
0.0
 30
0.0
  3
*D74
  1

  0
LINE
  5
B4B
330
B48
100
AcDbEntity
  8
cu_towers
 62
     0
370
    -2
100
AcDbLine
 10
-82.52600000000002
 20
55.79999999999995
 30
0.0
 11
-71.19961719542891
 21
55.79999999999995
 31
0.0
  0
LINE
  5
B4C
330
B48
100
AcDbEntity
  8
cu_towers
 62
     0
370
    -2
100
AcDbLine
 10
-82.52600000000002
 20
-55.80000000000001
 30
0.0
 11
-71.19961719542891
 21
-55.80000000000001
 31
0.0
  0
LINE
  5
B4D
330
B48
100
AcDbEntity
  8
cu_towers
 62
     0
370
    -2
100
AcDbLine
 10
-71.37961719542892
 20
55.61999999999995
 30
0.0
 11
-71.37961719542892
 21
0.1799999999999713
 31
0.0
  0
LINE
  5
B4E
330
B48
100
AcDbEntity
  8
cu_towers
 62
     0
370
    -2
100
AcDbLine
 10
-71.37961719542892
 20
-55.62000000000001
 30
0.0
 11
-71.37961719542892
 21
-0.1800000000000281
 31
0.0
  0
SOLID
  5
B4F
330
B48
100
AcDbEntity
  8
cu_towers
 62
     0
100
AcDbTrace
 10
-71.34961719542892
 20
55.61999999999995
 30
0.0
 11
-71.40961719542892
 21
55.61999999999995
 31
0.0
 12
-71.37961719542892
 22
55.79999999999995
 32
0.0
 13
-71.37961719542892
 23
55.79999999999995
 33
0.0
  0
SOLID
  5
B50
330
B48
100
AcDbEntity
  8
cu_towers
 62
     0
100
AcDbTrace
 10
-71.40961719542892
 20
-55.62000000000001
 30
0.0
 11
-71.34961719542892
 21
-55.62000000000001
 31
0.0
 12
-71.37961719542892
 22
-55.80000000000001
 32
0.0
 13
-71.37961719542892
 23
-55.80000000000001
 33
0.0
  0
MTEXT
  5
B51
330
B48
100
AcDbEntity
  8
cu_towers
 62
     0
100
AcDbMText
 10
-71.37961719542892
 20
-0.0000000000000284
 30
0.0
 40
0.18
 41
0.0
 46
0.0
 71
     5
 72
     1
  1
\A1;111.6000
 73
     1
 44
1.0
  0
POINT
  5
B52
330
B48
100
AcDbEntity
  8
Defpoints
 62
     0
100
AcDbPoint
 10
-82.58850000000002
 20
55.79999999999995
 30
0.0
  0
POINT
  5
B53
330
B48
100
AcDbEntity
  8
Defpoints
 62
     0
100
AcDbPoint
 10
-82.58850000000002
 20
-55.80000000000001
 30
0.0
  0
POINT
  5
B54
330
B48
100
AcDbEntity
  8
Defpoints
 62
     0
100
AcDbPoint
 10
-71.37961719542892
 20
-55.80000000000001
 30
0.0
  0
ENDBLK
  5
B4A
330
B48
100
AcDbEntity
  8
0
100
AcDbBlockEnd
  0
ENDSEC
  0
SECTION
  2
ENTITIES
  0
LWPOLYLINE
  5
12D
102
{ACAD_REACTORS
102
}
330
1F
100
AcDbEntity
  8
base_plate
100
AcDbPolyline
 90
        4
 70
     1
 43
0.0
 10
-100.0
 20
-100.0
 10
-100.0
 20
99.99999999999997
 10
100.0
 20
99.99999999999997
 10
100.0
 20
-100.0
  0
CIRCLE
  5
821
330
1F
100
AcDbEntity
  8
plate_mounts
100
AcDbCircle
 10
-95.0
 20
95.0
 30
0.0
 40
1.25
  0
CIRCLE
  5
822
330
1F
100
AcDbEntity
  8
plate_mounts
100
AcDbCircle
 10
-31.66666666666666
 20
95.00000000000003
 30
0.0
 40
1.25
  0
CIRCLE
  5
823
330
1F
100
AcDbEntity
  8
plate_mounts
100
AcDbCircle
 10
31.66666666666669
 20
95.00000000000003
 30
0.0
 40
1.25
  0
CIRCLE
  5
837
330
1F
100
AcDbEntity
  8
plate_mounts
100
AcDbCircle
 10
-95.0
 20
-95.0
 30
0.0
 40
1.25
  0
CIRCLE
  5
838
330
1F
100
AcDbEntity
  8
plate_mounts
100
AcDbCircle
 10
-95.0
 20
-31.66666666666669
 30
0.0
 40
1.25
  0
CIRCLE
  5
839
330
1F
100
AcDbEntity
  8
plate_mounts
100
AcDbCircle
 10
-95.0
 20
31.66666666666669
 30
0.0
 40
1.25
  0
CIRCLE
  5
83B
330
1F
100
AcDbEntity
  8
plate_mounts
100
AcDbCircle
 10
95.00000000000074
 20
94.99999999999966
 30
0.0
 40
1.25
  0
CIRCLE
  5
83C
330
1F
100
AcDbEntity
  8
plate_mounts
100
AcDbCircle
 10
95.00000000000006
 20
-95.00000000000034
 30
0.0
 40
1.25
  0
CIRCLE
  5
83D
330
1F
100
AcDbEntity
  8
plate_mounts
100
AcDbCircle
 10
95.00000000000028
 20
-31.66666666666704
 30
0.0
 40
1.25
  0
CIRCLE
  5
83E
330
1F
100
AcDbEntity
  8
plate_mounts
100
AcDbCircle
 10
95.00000000000051
 20
31.66666666666634
 30
0.0
 40
1.25
  0
CIRCLE
  5
83F
330
1F
100
AcDbEntity
  8
plate_mounts
100
AcDbCircle
 10
-31.66666666666663
 20
-95.00000000000009
 30
0.0
 40
1.25
  0
CIRCLE
  5
840
330
1F
100
AcDbEntity
  8
plate_mounts
100
AcDbCircle
 10
31.66666666666671
 20
-95.00000000000006
 30
0.0
 40
1.25
  0
LWPOLYLINE
  5
847
330
1F
100
AcDbEntity
  8
connector
100
AcDbPolyline
 90
        4
 70
     1
 43
0.0
 10
-79.46000000000004
 20
-50.79999999999998
 10
-84.53999999999999
 20
-50.79999999999998
 10
-84.53999999999999
 20
50.79999999999998
 10
-79.46000000000004
 20
50.79999999999998
  0
LWPOLYLINE
  5
85B
330
1F
100
AcDbEntity
  8
pcb
100
AcDbPolyline
 90
        8
 70
     1
 43
0.0
 10
-100.0
 20
-99.0
 10
-100.0
 20
98.99999999999997
 42
-0.414213562373095
 10
-99.0
 20
99.99999999999997
 10
99.00000000000003
 20
99.99999999999997
 42
-0.414213562373095
 10
100.0
 20
98.99999999999997
 10
100.0
 20
-99.0
 42
-0.414213562373095
 10
99.00000000000003
 20
-100.0
 10
-99.0
 20
-100.0
 42
-0.414213562373095
  0
CIRCLE
  5
901
330
1F
100
AcDbEntity
  8
pin_holes
100
AcDbCircle
 10
-63.5
 20
68.99999999999994
 30
0.0
 40
1.0
  0
CIRCLE
  5
911
330
1F
100
AcDbEntity
  8
pin_holes
100
AcDbCircle
 10
-60.5
 20
68.99999999999994
 30
0.0
 40
1.0
  0
CIRCLE
  5
921
330
1F
100
AcDbEntity
  8
pin_holes
100
AcDbCircle
 10
-54.0
 20
68.99999999999994
 30
0.0
 40
1.0
  0
CIRCLE
  5
931
330
1F
100
AcDbEntity
  8
pin_holes
100
AcDbCircle
 10
-51.0
 20
68.99999999999994
 30
0.0
 40
1.0
  0
LWPOLYLINE
  5
953
330
1F
100
AcDbEntity
  8
cu_towers
100
AcDbPolyline
 90
       20
 70
     1
 43
0.0
 10
-65.17700000000002
 20
66.49999999999994
 10
-65.17700000000002
 20
46.32299999999992
 42
0.414213562373095
 10
-64.17700000000002
 20
45.32299999999992
 10
-40.82299999999998
 20
45.32299999999992
 42
0.414213562373095
 10
-39.82299999999998
 20
46.32299999999992
 10
-39.82299999999998
 20
69.67699999999996
 42
0.414213562373095
 10
-40.82299999999998
 20
70.67699999999996
 10
-48.5
 20
70.67699999999996
 42
0.414213562373095
 10
-49.5
 20
69.67699999999996
 10
-49.5
 20
68.99999999999994
 42
-0.414213562373095
 10
-51.0
 20
67.49999999999994
 10
-54.0
 20
67.49999999999994
 42
-0.414213562373095
 10
-55.5
 20
68.99999999999994
 10
-55.5
 20
69.67699999999996
 42
0.414213562373095
 10
-56.5
 20
70.67699999999996
 10
-58.0
 20
70.67699999999996
 42
0.414213562373095
 10
-59.0
 20
69.67699999999996
 10
-59.0
 20
68.99999999999994
 42
-0.414213562373095
 10
-60.5
 20
67.49999999999994
 10
-64.17700000000002
 20
67.49999999999994
 42
0.414213562373095
  0
LWPOLYLINE
  5
96E
330
1F
100
AcDbEntity
  8
pcb
100
AcDbPolyline
 90
       20
 70
     1
 43
0.0
 10
-65.37700000000002
 20
66.49999999999994
 10
-65.37700000000002
 20
46.32299999999992
 42
0.414213562373095
 10
-64.17700000000002
 20
45.12299999999993
 10
-40.82299999999998
 20
45.12299999999993
 42
0.414213562373095
 10
-39.62299999999998
 20
46.32299999999992
 10
-39.62299999999998
 20
69.67699999999996
 42
0.414213562373095
 10
-40.82299999999998
 20
70.87699999999995
 10
-48.5
 20
70.87699999999995
 42
0.414213562373095
 10
-49.7
 20
69.67699999999996
 10
-49.7
 20
68.99999999999994
 42
-0.414213562373095
 10
-51.0
 20
67.69999999999993
 10
-54.0
 20
67.69999999999993
 42
-0.414213562373095
 10
-55.3
 20
68.99999999999994
 10
-55.3
 20
69.67699999999996
 42
0.414213562373095
 10
-56.5
 20
70.87699999999995
 10
-58.0
 20
70.87699999999995
 42
0.414213562373095
 10
-59.2
 20
69.67699999999996
 10
-59.2
 20
68.99999999999994
 42
-0.414213562373095
 10
-60.5
 20
67.69999999999993
 10
-64.17700000000002
 20
67.69999999999993
 42
0.414213562373095
  0
CIRCLE
  5
985
330
1F
100
AcDbEntity
  8
pin_holes
100
AcDbCircle
 10
-63.5
 20
-47.00000000000017
 30
0.0
 40
1.0
  0
CIRCLE
  5
986
330
1F
100
AcDbEntity
  8
pin_holes
100
AcDbCircle
 10
-60.5
 20
-47.00000000000017
 30
0.0
 40
1.0
  0
CIRCLE
  5
987
330
1F
100
AcDbEntity
  8
pin_holes
100
AcDbCircle
 10
-54.0
 20
-47.00000000000017
 30
0.0
 40
1.0
  0
CIRCLE
  5
988
330
1F
100
AcDbEntity
  8
pin_holes
100
AcDbCircle
 10
-51.0
 20
-47.00000000000017
 30
0.0
 40
1.0
  0
LWPOLYLINE
  5
989
330
1F
100
AcDbEntity
  8
cu_towers
100
AcDbPolyline
 90
       20
 70
     1
 43
0.0
 10
-65.17700000000002
 20
-49.50000000000017
 10
-65.17700000000002
 20
-69.67700000000008
 42
0.414213562373095
 10
-64.17700000000002
 20
-70.67700000000008
 10
-40.82299999999998
 20
-70.67700000000008
 42
0.414213562373095
 10
-39.82299999999998
 20
-69.67700000000008
 10
-39.82299999999998
 20
-46.32300000000004
 42
0.414213562373095
 10
-40.82299999999998
 20
-45.32300000000004
 10
-48.5
 20
-45.32300000000004
 42
0.414213562373095
 10
-49.5
 20
-46.32300000000004
 10
-49.5
 20
-47.00000000000017
 42
-0.414213562373095
 10
-51.0
 20
-48.50000000000017
 10
-54.0
 20
-48.50000000000017
 42
-0.414213562373095
 10
-55.5
 20
-47.00000000000017
 10
-55.5
 20
-46.32300000000004
 42
0.414213562373095
 10
-56.5
 20
-45.32300000000004
 10
-58.0
 20
-45.32300000000004
 42
0.414213562373095
 10
-59.0
 20
-46.32300000000004
 10
-59.0
 20
-47.00000000000017
 42
-0.414213562373095
 10
-60.5
 20
-48.50000000000017
 10
-64.17700000000002
 20
-48.50000000000017
 42
0.414213562373095
  0
LWPOLYLINE
  5
98A
330
1F
100
AcDbEntity
  8
pcb
100
AcDbPolyline
 90
       20
 70
     1
 43
0.0
 10
-65.37700000000001
 20
-49.50000000000017
 10
-65.37700000000001
 20
-69.67700000000008
 42
0.414213562373095
 10
-64.17700000000002
 20
-70.87700000000012
 10
-40.82299999999998
 20
-70.87700000000012
 42
0.414213562373095
 10
-39.62299999999999
 20
-69.67700000000008
 10
-39.62299999999999
 20
-46.32300000000004
 42
0.414213562373095
 10
-40.82299999999998
 20
-45.1230000000001
 10
-48.5
 20
-45.1230000000001
 42
0.414213562373095
 10
-49.69999999999999
 20
-46.32300000000004
 10
-49.69999999999999
 20
-47.00000000000017
 42
-0.414213562373095
 10
-51.0
 20
-48.30000000000013
 10
-54.0
 20
-48.30000000000013
 42
-0.414213562373095
 10
-55.30000000000001
 20
-47.00000000000017
 10
-55.30000000000001
 20
-46.32300000000004
 42
0.414213562373095
 10
-56.5
 20
-45.1230000000001
 10
-58.0
 20
-45.1230000000001
 42
0.414213562373095
 10
-59.19999999999999
 20
-46.32300000000004
 10
-59.19999999999999
 20
-47.00000000000017
 42
-0.414213562373095
 10
-60.5
 20
-48.30000000000013
 10
-64.17700000000002
 20
-48.30000000000013
 42
0.414213562373095
  0
CIRCLE
  5
A76
330
1F
100
AcDbEntity
  8
pin_holes
100
AcDbCircle
 10
-28.5
 20
-47.00000000000017
 30
0.0
 40
1.0
  0
CIRCLE
  5
A77
330
1F
100
AcDbEntity
  8
pin_holes
100
AcDbCircle
 10
-25.5
 20
-47.00000000000017
 30
0.0
 40
1.0
  0
CIRCLE
  5
A78
330
1F
100
AcDbEntity
  8
pin_holes
100
AcDbCircle
 10
-19.0
 20
-47.00000000000017
 30
0.0
 40
1.0
  0
CIRCLE
  5
A79
330
1F
100
AcDbEntity
  8
pin_holes
100
AcDbCircle
 10
-16.0
 20
-47.00000000000017
 30
0.0
 40
1.0
  0
LWPOLYLINE
  5
A7A
330
1F
100
AcDbEntity
  8
cu_towers
100
AcDbPolyline
 90
       20
 70
     1
 43
0.0
 10
-30.17700000000002
 20
-49.50000000000017
 10
-30.17700000000002
 20
-69.67700000000008
 42
0.414213562373095
 10
-29.17700000000002
 20
-70.67700000000008
 10
-5.822999999999979
 20
-70.67700000000008
 42
0.414213562373095
 10
-4.822999999999979
 20
-69.67700000000008
 10
-4.822999999999979
 20
-46.32300000000004
 42
0.414213562373095
 10
-5.822999999999979
 20
-45.32300000000004
 10
-13.5
 20
-45.32300000000004
 42
0.414213562373095
 10
-14.5
 20
-46.32300000000004
 10
-14.5
 20
-47.00000000000017
 42
-0.414213562373095
 10
-16.0
 20
-48.50000000000017
 10
-19.0
 20
-48.50000000000017
 42
-0.414213562373095
 10
-20.5
 20
-47.00000000000017
 10
-20.5
 20
-46.32300000000004
 42
0.414213562373095
 10
-21.5
 20
-45.32300000000004
 10
-23.0
 20
-45.32300000000004
 42
0.414213562373095
 10
-24.0
 20
-46.32300000000004
 10
-24.0
 20
-47.00000000000017
 42
-0.414213562373095
 10
-25.5
 20
-48.50000000000017
 10
-29.17700000000002
 20
-48.50000000000017
 42
0.414213562373095
  0
LWPOLYLINE
  5
A7B
330
1F
100
AcDbEntity
  8
pcb
100
AcDbPolyline
 90
       20
 70
     1
 43
0.0
 10
-30.37700000000001
 20
-49.50000000000017
 10
-30.37700000000001
 20
-69.67700000000008
 42
0.414213562373095
 10
-29.17700000000002
 20
-70.87700000000012
 10
-5.822999999999979
 20
-70.87700000000012
 42
0.414213562373095
 10
-4.62299999999999
 20
-69.67700000000008
 10
-4.62299999999999
 20
-46.32300000000004
 42
0.414213562373095
 10
-5.822999999999979
 20
-45.1230000000001
 10
-13.5
 20
-45.1230000000001
 42
0.414213562373095
 10
-14.69999999999999
 20
-46.32300000000004
 10
-14.69999999999999
 20
-47.00000000000017
 42
-0.414213562373095
 10
-16.0
 20
-48.30000000000013
 10
-19.0
 20
-48.30000000000013
 42
-0.414213562373095
 10
-20.30000000000001
 20
-47.00000000000017
 10
-20.30000000000001
 20
-46.32300000000004
 42
0.414213562373095
 10
-21.5
 20
-45.1230000000001
 10
-23.0
 20
-45.1230000000001
 42
0.414213562373095
 10
-24.19999999999999
 20
-46.32300000000004
 10
-24.19999999999999
 20
-47.00000000000017
 42
-0.414213562373095
 10
-25.5
 20
-48.30000000000013
 10
-29.17700000000002
 20
-48.30000000000013
 42
0.414213562373095
  0
CIRCLE
  5
A7C
330
1F
100
AcDbEntity
  8
pin_holes
100
AcDbCircle
 10
6.5
 20
-47.00000000000017
 30
0.0
 40
1.0
  0
CIRCLE
  5
A7D
330
1F
100
AcDbEntity
  8
pin_holes
100
AcDbCircle
 10
9.5
 20
-47.00000000000017
 30
0.0
 40
1.0
  0
CIRCLE
  5
A7E
330
1F
100
AcDbEntity
  8
pin_holes
100
AcDbCircle
 10
16.0
 20
-47.00000000000017
 30
0.0
 40
1.0
  0
CIRCLE
  5
A7F
330
1F
100
AcDbEntity
  8
pin_holes
100
AcDbCircle
 10
19.0
 20
-47.00000000000017
 30
0.0
 40
1.0
  0
LWPOLYLINE
  5
A80
330
1F
100
AcDbEntity
  8
cu_towers
100
AcDbPolyline
 90
       20
 70
     1
 43
0.0
 10
4.822999999999979
 20
-49.50000000000017
 10
4.822999999999979
 20
-69.67700000000008
 42
0.414213562373095
 10
5.822999999999979
 20
-70.67700000000008
 10
29.17700000000002
 20
-70.67700000000008
 42
0.414213562373095
 10
30.17700000000002
 20
-69.67700000000008
 10
30.17700000000002
 20
-46.32300000000004
 42
0.414213562373095
 10
29.17700000000002
 20
-45.32300000000004
 10
21.5
 20
-45.32300000000004
 42
0.414213562373095
 10
20.5
 20
-46.32300000000004
 10
20.5
 20
-47.00000000000017
 42
-0.414213562373095
 10
19.0
 20
-48.50000000000017
 10
16.0
 20
-48.50000000000017
 42
-0.414213562373095
 10
14.5
 20
-47.00000000000017
 10
14.5
 20
-46.32300000000004
 42
0.414213562373095
 10
13.5
 20
-45.32300000000004
 10
12.0
 20
-45.32300000000004
 42
0.414213562373095
 10
11.0
 20
-46.32300000000004
 10
11.0
 20
-47.00000000000017
 42
-0.414213562373095
 10
9.5
 20
-48.50000000000017
 10
5.822999999999979
 20
-48.50000000000017
 42
0.414213562373095
  0
LWPOLYLINE
  5
A81
330
1F
100
AcDbEntity
  8
pcb
100
AcDbPolyline
 90
       20
 70
     1
 43
0.0
 10
4.62299999999999
 20
-49.50000000000017
 10
4.62299999999999
 20
-69.67700000000008
 42
0.414213562373095
 10
5.822999999999979
 20
-70.87700000000012
 10
29.17700000000002
 20
-70.87700000000012
 42
0.414213562373095
 10
30.37700000000001
 20
-69.67700000000008
 10
30.37700000000001
 20
-46.32300000000004
 42
0.414213562373095
 10
29.17700000000002
 20
-45.1230000000001
 10
21.5
 20
-45.1230000000001
 42
0.414213562373095
 10
20.30000000000001
 20
-46.32300000000004
 10
20.30000000000001
 20
-47.00000000000017
 42
-0.414213562373095
 10
19.0
 20
-48.30000000000013
 10
16.0
 20
-48.30000000000013
 42
-0.414213562373095
 10
14.69999999999999
 20
-47.00000000000017
 10
14.69999999999999
 20
-46.32300000000004
 42
0.414213562373095
 10
13.5
 20
-45.1230000000001
 10
12.0
 20
-45.1230000000001
 42
0.414213562373095
 10
10.80000000000001
 20
-46.32300000000004
 10
10.80000000000001
 20
-47.00000000000017
 42
-0.414213562373095
 10
9.5
 20
-48.30000000000013
 10
5.822999999999979
 20
-48.30000000000013
 42
0.414213562373095
  0
CIRCLE
  5
A82
330
1F
100
AcDbEntity
  8
pin_holes
100
AcDbCircle
 10
41.5
 20
-47.00000000000017
 30
0.0
 40
1.0
  0
CIRCLE
  5
A83
330
1F
100
AcDbEntity
  8
pin_holes
100
AcDbCircle
 10
44.5
 20
-47.00000000000017
 30
0.0
 40
1.0
  0
CIRCLE
  5
A84
330
1F
100
AcDbEntity
  8
pin_holes
100
AcDbCircle
 10
51.0
 20
-47.00000000000017
 30
0.0
 40
1.0
  0
CIRCLE
  5
A85
330
1F
100
AcDbEntity
  8
pin_holes
100
AcDbCircle
 10
54.0
 20
-47.00000000000017
 30
0.0
 40
1.0
  0
LWPOLYLINE
  5
A86
330
1F
100
AcDbEntity
  8
cu_towers
100
AcDbPolyline
 90
       20
 70
     1
 43
0.0
 10
39.82299999999998
 20
-49.50000000000017
 10
39.82299999999998
 20
-69.67700000000008
 42
0.414213562373095
 10
40.82299999999998
 20
-70.67700000000008
 10
64.17700000000002
 20
-70.67700000000008
 42
0.414213562373095
 10
65.17700000000002
 20
-69.67700000000008
 10
65.17700000000002
 20
-46.32300000000004
 42
0.414213562373095
 10
64.17700000000002
 20
-45.32300000000004
 10
56.5
 20
-45.32300000000004
 42
0.414213562373095
 10
55.5
 20
-46.32300000000004
 10
55.5
 20
-47.00000000000017
 42
-0.414213562373095
 10
54.0
 20
-48.50000000000017
 10
51.0
 20
-48.50000000000017
 42
-0.414213562373095
 10
49.5
 20
-47.00000000000017
 10
49.5
 20
-46.32300000000004
 42
0.414213562373095
 10
48.5
 20
-45.32300000000004
 10
47.0
 20
-45.32300000000004
 42
0.414213562373095
 10
46.0
 20
-46.32300000000004
 10
46.0
 20
-47.00000000000017
 42
-0.414213562373095
 10
44.5
 20
-48.50000000000017
 10
40.82299999999998
 20
-48.50000000000017
 42
0.414213562373095
  0
LWPOLYLINE
  5
A87
330
1F
100
AcDbEntity
  8
pcb
100
AcDbPolyline
 90
       20
 70
     1
 43
0.0
 10
39.62299999999999
 20
-49.50000000000017
 10
39.62299999999999
 20
-69.67700000000008
 42
0.414213562373095
 10
40.82299999999998
 20
-70.87700000000012
 10
64.17700000000002
 20
-70.87700000000012
 42
0.414213562373095
 10
65.37700000000001
 20
-69.67700000000008
 10
65.37700000000001
 20
-46.32300000000004
 42
0.414213562373095
 10
64.17700000000002
 20
-45.1230000000001
 10
56.5
 20
-45.1230000000001
 42
0.414213562373095
 10
55.30000000000001
 20
-46.32300000000004
 10
55.30000000000001
 20
-47.00000000000017
 42
-0.414213562373095
 10
54.0
 20
-48.30000000000013
 10
51.0
 20
-48.30000000000013
 42
-0.414213562373095
 10
49.69999999999999
 20
-47.00000000000017
 10
49.69999999999999
 20
-46.32300000000004
 42
0.414213562373095
 10
48.5
 20
-45.1230000000001
 10
47.0
 20
-45.1230000000001
 42
0.414213562373095
 10
45.80000000000001
 20
-46.32300000000004
 10
45.80000000000001
 20
-47.00000000000017
 42
-0.414213562373095
 10
44.5
 20
-48.30000000000013
 10
40.82299999999998
 20
-48.30000000000013
 42
0.414213562373095
  0
CIRCLE
  5
A88
330
1F
100
AcDbEntity
  8
pin_holes
100
AcDbCircle
 10
-63.5
 20
-18.00000000000017
 30
0.0
 40
1.0
  0
CIRCLE
  5
A89
330
1F
100
AcDbEntity
  8
pin_holes
100
AcDbCircle
 10
-60.5
 20
-18.00000000000017
 30
0.0
 40
1.0
  0
CIRCLE
  5
A8A
330
1F
100
AcDbEntity
  8
pin_holes
100
AcDbCircle
 10
-54.0
 20
-18.00000000000017
 30
0.0
 40
1.0
  0
CIRCLE
  5
A8B
330
1F
100
AcDbEntity
  8
pin_holes
100
AcDbCircle
 10
-51.0
 20
-18.00000000000017
 30
0.0
 40
1.0
  0
LWPOLYLINE
  5
A8C
330
1F
100
AcDbEntity
  8
cu_towers
100
AcDbPolyline
 90
       20
 70
     1
 43
0.0
 10
-65.17700000000002
 20
-20.50000000000017
 10
-65.17700000000002
 20
-40.67700000000008
 42
0.414213562373095
 10
-64.17700000000002
 20
-41.67700000000008
 10
-40.82299999999998
 20
-41.67700000000008
 42
0.414213562373095
 10
-39.82299999999998
 20
-40.67700000000008
 10
-39.82299999999998
 20
-17.32300000000004
 42
0.414213562373095
 10
-40.82299999999998
 20
-16.32300000000004
 10
-48.5
 20
-16.32300000000004
 42
0.414213562373095
 10
-49.5
 20
-17.32300000000004
 10
-49.5
 20
-18.00000000000017
 42
-0.414213562373095
 10
-51.0
 20
-19.50000000000017
 10
-54.0
 20
-19.50000000000017
 42
-0.414213562373095
 10
-55.5
 20
-18.00000000000017
 10
-55.5
 20
-17.32300000000004
 42
0.414213562373095
 10
-56.5
 20
-16.32300000000004
 10
-58.0
 20
-16.32300000000004
 42
0.414213562373095
 10
-59.0
 20
-17.32300000000004
 10
-59.0
 20
-18.00000000000017
 42
-0.414213562373095
 10
-60.5
 20
-19.50000000000017
 10
-64.17700000000002
 20
-19.50000000000017
 42
0.414213562373095
  0
LWPOLYLINE
  5
A8D
330
1F
100
AcDbEntity
  8
pcb
100
AcDbPolyline
 90
       20
 70
     1
 43
0.0
 10
-65.37700000000001
 20
-20.50000000000017
 10
-65.37700000000001
 20
-40.67700000000008
 42
0.414213562373095
 10
-64.17700000000002
 20
-41.87700000000012
 10
-40.82299999999998
 20
-41.87700000000012
 42
0.414213562373095
 10
-39.62299999999999
 20
-40.67700000000008
 10
-39.62299999999999
 20
-17.32300000000004
 42
0.414213562373095
 10
-40.82299999999998
 20
-16.1230000000001
 10
-48.5
 20
-16.1230000000001
 42
0.414213562373095
 10
-49.69999999999999
 20
-17.32300000000004
 10
-49.69999999999999
 20
-18.00000000000017
 42
-0.414213562373095
 10
-51.0
 20
-19.30000000000013
 10
-54.0
 20
-19.30000000000013
 42
-0.414213562373095
 10
-55.30000000000001
 20
-18.00000000000017
 10
-55.30000000000001
 20
-17.32300000000004
 42
0.414213562373095
 10
-56.5
 20
-16.1230000000001
 10
-58.0
 20
-16.1230000000001
 42
0.414213562373095
 10
-59.19999999999999
 20
-17.32300000000004
 10
-59.19999999999999
 20
-18.00000000000017
 42
-0.414213562373095
 10
-60.5
 20
-19.30000000000013
 10
-64.17700000000002
 20
-19.30000000000013
 42
0.414213562373095
  0
CIRCLE
  5
A8E
330
1F
100
AcDbEntity
  8
pin_holes
100
AcDbCircle
 10
-28.5
 20
-18.00000000000017
 30
0.0
 40
1.0
  0
CIRCLE
  5
A8F
330
1F
100
AcDbEntity
  8
pin_holes
100
AcDbCircle
 10
-25.5
 20
-18.00000000000017
 30
0.0
 40
1.0
  0
CIRCLE
  5
A90
330
1F
100
AcDbEntity
  8
pin_holes
100
AcDbCircle
 10
-19.0
 20
-18.00000000000017
 30
0.0
 40
1.0
  0
CIRCLE
  5
A91
330
1F
100
AcDbEntity
  8
pin_holes
100
AcDbCircle
 10
-16.0
 20
-18.00000000000017
 30
0.0
 40
1.0
  0
LWPOLYLINE
  5
A92
330
1F
100
AcDbEntity
  8
cu_towers
100
AcDbPolyline
 90
       20
 70
     1
 43
0.0
 10
-30.17700000000002
 20
-20.50000000000017
 10
-30.17700000000002
 20
-40.67700000000008
 42
0.414213562373095
 10
-29.17700000000002
 20
-41.67700000000008
 10
-5.822999999999979
 20
-41.67700000000008
 42
0.414213562373095
 10
-4.822999999999979
 20
-40.67700000000008
 10
-4.822999999999979
 20
-17.32300000000004
 42
0.414213562373095
 10
-5.822999999999979
 20
-16.32300000000004
 10
-13.5
 20
-16.32300000000004
 42
0.414213562373095
 10
-14.5
 20
-17.32300000000004
 10
-14.5
 20
-18.00000000000017
 42
-0.414213562373095
 10
-16.0
 20
-19.50000000000017
 10
-19.0
 20
-19.50000000000017
 42
-0.414213562373095
 10
-20.5
 20
-18.00000000000017
 10
-20.5
 20
-17.32300000000004
 42
0.414213562373095
 10
-21.5
 20
-16.32300000000004
 10
-23.0
 20
-16.32300000000004
 42
0.414213562373095
 10
-24.0
 20
-17.32300000000004
 10
-24.0
 20
-18.00000000000017
 42
-0.414213562373095
 10
-25.5
 20
-19.50000000000017
 10
-29.17700000000002
 20
-19.50000000000017
 42
0.414213562373095
  0
LWPOLYLINE
  5
A93
330
1F
100
AcDbEntity
  8
pcb
100
AcDbPolyline
 90
       20
 70
     1
 43
0.0
 10
-30.37700000000001
 20
-20.50000000000017
 10
-30.37700000000001
 20
-40.67700000000008
 42
0.414213562373095
 10
-29.17700000000002
 20
-41.87700000000012
 10
-5.822999999999979
 20
-41.87700000000012
 42
0.414213562373095
 10
-4.62299999999999
 20
-40.67700000000008
 10
-4.62299999999999
 20
-17.32300000000004
 42
0.414213562373095
 10
-5.822999999999979
 20
-16.1230000000001
 10
-13.5
 20
-16.1230000000001
 42
0.414213562373095
 10
-14.69999999999999
 20
-17.32300000000004
 10
-14.69999999999999
 20
-18.00000000000017
 42
-0.414213562373095
 10
-16.0
 20
-19.30000000000013
 10
-19.0
 20
-19.30000000000013
 42
-0.414213562373095
 10
-20.30000000000001
 20
-18.00000000000017
 10
-20.30000000000001
 20
-17.32300000000004
 42
0.414213562373095
 10
-21.5
 20
-16.1230000000001
 10
-23.0
 20
-16.1230000000001
 42
0.414213562373095
 10
-24.19999999999999
 20
-17.32300000000004
 10
-24.19999999999999
 20
-18.00000000000017
 42
-0.414213562373095
 10
-25.5
 20
-19.30000000000013
 10
-29.17700000000002
 20
-19.30000000000013
 42
0.414213562373095
  0
CIRCLE
  5
A94
330
1F
100
AcDbEntity
  8
pin_holes
100
AcDbCircle
 10
6.5
 20
-18.00000000000017
 30
0.0
 40
1.0
  0
CIRCLE
  5
A95
330
1F
100
AcDbEntity
  8
pin_holes
100
AcDbCircle
 10
9.5
 20
-18.00000000000017
 30
0.0
 40
1.0
  0
CIRCLE
  5
A96
330
1F
100
AcDbEntity
  8
pin_holes
100
AcDbCircle
 10
16.0
 20
-18.00000000000017
 30
0.0
 40
1.0
  0
CIRCLE
  5
A97
330
1F
100
AcDbEntity
  8
pin_holes
100
AcDbCircle
 10
19.0
 20
-18.00000000000017
 30
0.0
 40
1.0
  0
LWPOLYLINE
  5
A98
330
1F
100
AcDbEntity
  8
cu_towers
100
AcDbPolyline
 90
       20
 70
     1
 43
0.0
 10
4.822999999999979
 20
-20.50000000000017
 10
4.822999999999979
 20
-40.67700000000008
 42
0.414213562373095
 10
5.822999999999979
 20
-41.67700000000008
 10
29.17700000000002
 20
-41.67700000000008
 42
0.414213562373095
 10
30.17700000000002
 20
-40.67700000000008
 10
30.17700000000002
 20
-17.32300000000004
 42
0.414213562373095
 10
29.17700000000002
 20
-16.32300000000004
 10
21.5
 20
-16.32300000000004
 42
0.414213562373095
 10
20.5
 20
-17.32300000000004
 10
20.5
 20
-18.00000000000017
 42
-0.414213562373095
 10
19.0
 20
-19.50000000000017
 10
16.0
 20
-19.50000000000017
 42
-0.414213562373095
 10
14.5
 20
-18.00000000000017
 10
14.5
 20
-17.32300000000004
 42
0.414213562373095
 10
13.5
 20
-16.32300000000004
 10
12.0
 20
-16.32300000000004
 42
0.414213562373095
 10
11.0
 20
-17.32300000000004
 10
11.0
 20
-18.00000000000017
 42
-0.414213562373095
 10
9.5
 20
-19.50000000000017
 10
5.822999999999979
 20
-19.50000000000017
 42
0.414213562373095
  0
LWPOLYLINE
  5
A99
330
1F
100
AcDbEntity
  8
pcb
100
AcDbPolyline
 90
       20
 70
     1
 43
0.0
 10
4.62299999999999
 20
-20.50000000000017
 10
4.62299999999999
 20
-40.67700000000008
 42
0.414213562373095
 10
5.822999999999979
 20
-41.87700000000012
 10
29.17700000000002
 20
-41.87700000000012
 42
0.414213562373095
 10
30.37700000000001
 20
-40.67700000000008
 10
30.37700000000001
 20
-17.32300000000004
 42
0.414213562373095
 10
29.17700000000002
 20
-16.1230000000001
 10
21.5
 20
-16.1230000000001
 42
0.414213562373095
 10
20.30000000000001
 20
-17.32300000000004
 10
20.30000000000001
 20
-18.00000000000017
 42
-0.414213562373095
 10
19.0
 20
-19.30000000000013
 10
16.0
 20
-19.30000000000013
 42
-0.414213562373095
 10
14.69999999999999
 20
-18.00000000000017
 10
14.69999999999999
 20
-17.32300000000004
 42
0.414213562373095
 10
13.5
 20
-16.1230000000001
 10
12.0
 20
-16.1230000000001
 42
0.414213562373095
 10
10.80000000000001
 20
-17.32300000000004
 10
10.80000000000001
 20
-18.00000000000017
 42
-0.414213562373095
 10
9.5
 20
-19.30000000000013
 10
5.822999999999979
 20
-19.30000000000013
 42
0.414213562373095
  0
CIRCLE
  5
A9A
330
1F
100
AcDbEntity
  8
pin_holes
100
AcDbCircle
 10
41.5
 20
-18.00000000000017
 30
0.0
 40
1.0
  0
CIRCLE
  5
A9B
330
1F
100
AcDbEntity
  8
pin_holes
100
AcDbCircle
 10
44.5
 20
-18.00000000000017
 30
0.0
 40
1.0
  0
CIRCLE
  5
A9C
330
1F
100
AcDbEntity
  8
pin_holes
100
AcDbCircle
 10
51.0
 20
-18.00000000000017
 30
0.0
 40
1.0
  0
CIRCLE
  5
A9D
330
1F
100
AcDbEntity
  8
pin_holes
100
AcDbCircle
 10
54.0
 20
-18.00000000000017
 30
0.0
 40
1.0
  0
LWPOLYLINE
  5
A9E
330
1F
100
AcDbEntity
  8
cu_towers
100
AcDbPolyline
 90
       20
 70
     1
 43
0.0
 10
39.82299999999998
 20
-20.50000000000017
 10
39.82299999999998
 20
-40.67700000000008
 42
0.414213562373095
 10
40.82299999999998
 20
-41.67700000000008
 10
64.17700000000002
 20
-41.67700000000008
 42
0.414213562373095
 10
65.17700000000002
 20
-40.67700000000008
 10
65.17700000000002
 20
-17.32300000000004
 42
0.414213562373095
 10
64.17700000000002
 20
-16.32300000000004
 10
56.5
 20
-16.32300000000004
 42
0.414213562373095
 10
55.5
 20
-17.32300000000004
 10
55.5
 20
-18.00000000000017
 42
-0.414213562373095
 10
54.0
 20
-19.50000000000017
 10
51.0
 20
-19.50000000000017
 42
-0.414213562373095
 10
49.5
 20
-18.00000000000017
 10
49.5
 20
-17.32300000000004
 42
0.414213562373095
 10
48.5
 20
-16.32300000000004
 10
47.0
 20
-16.32300000000004
 42
0.414213562373095
 10
46.0
 20
-17.32300000000004
 10
46.0
 20
-18.00000000000017
 42
-0.414213562373095
 10
44.5
 20
-19.50000000000017
 10
40.82299999999998
 20
-19.50000000000017
 42
0.414213562373095
  0
LWPOLYLINE
  5
A9F
330
1F
100
AcDbEntity
  8
pcb
100
AcDbPolyline
 90
       20
 70
     1
 43
0.0
 10
39.62299999999999
 20
-20.50000000000017
 10
39.62299999999999
 20
-40.67700000000008
 42
0.414213562373095
 10
40.82299999999998
 20
-41.87700000000012
 10
64.17700000000002
 20
-41.87700000000012
 42
0.414213562373095
 10
65.37700000000001
 20
-40.67700000000008
 10
65.37700000000001
 20
-17.32300000000004
 42
0.414213562373095
 10
64.17700000000002
 20
-16.1230000000001
 10
56.5
 20
-16.1230000000001
 42
0.414213562373095
 10
55.30000000000001
 20
-17.32300000000004
 10
55.30000000000001
 20
-18.00000000000017
 42
-0.414213562373095
 10
54.0
 20
-19.30000000000013
 10
51.0
 20
-19.30000000000013
 42
-0.414213562373095
 10
49.69999999999999
 20
-18.00000000000017
 10
49.69999999999999
 20
-17.32300000000004
 42
0.414213562373095
 10
48.5
 20
-16.1230000000001
 10
47.0
 20
-16.1230000000001
 42
0.414213562373095
 10
45.80000000000001
 20
-17.32300000000004
 10
45.80000000000001
 20
-18.00000000000017
 42
-0.414213562373095
 10
44.5
 20
-19.30000000000013
 10
40.82299999999998
 20
-19.30000000000013
 42
0.414213562373095
  0
CIRCLE
  5
AA0
330
1F
100
AcDbEntity
  8
pin_holes
100
AcDbCircle
 10
-63.5
 20
10.99999999999983
 30
0.0
 40
1.0
  0
CIRCLE
  5
AA1
330
1F
100
AcDbEntity
  8
pin_holes
100
AcDbCircle
 10
-60.5
 20
10.99999999999983
 30
0.0
 40
1.0
  0
CIRCLE
  5
AA2
330
1F
100
AcDbEntity
  8
pin_holes
100
AcDbCircle
 10
-54.0
 20
10.99999999999983
 30
0.0
 40
1.0
  0
CIRCLE
  5
AA3
330
1F
100
AcDbEntity
  8
pin_holes
100
AcDbCircle
 10
-51.0
 20
10.99999999999983
 30
0.0
 40
1.0
  0
LWPOLYLINE
  5
AA4
330
1F
100
AcDbEntity
  8
cu_towers
100
AcDbPolyline
 90
       20
 70
     1
 43
0.0
 10
-65.17700000000002
 20
8.49999999999983
 10
-65.17700000000002
 20
-11.67700000000008
 42
0.414213562373095
 10
-64.17700000000002
 20
-12.67700000000008
 10
-40.82299999999998
 20
-12.67700000000008
 42
0.414213562373095
 10
-39.82299999999998
 20
-11.67700000000008
 10
-39.82299999999998
 20
11.67699999999996
 42
0.414213562373095
 10
-40.82299999999998
 20
12.67699999999996
 10
-48.5
 20
12.67699999999996
 42
0.414213562373095
 10
-49.5
 20
11.67699999999996
 10
-49.5
 20
10.99999999999983
 42
-0.414213562373095
 10
-51.0
 20
9.49999999999983
 10
-54.0
 20
9.49999999999983
 42
-0.414213562373095
 10
-55.5
 20
10.99999999999983
 10
-55.5
 20
11.67699999999996
 42
0.414213562373095
 10
-56.5
 20
12.67699999999996
 10
-58.0
 20
12.67699999999996
 42
0.414213562373095
 10
-59.0
 20
11.67699999999996
 10
-59.0
 20
10.99999999999983
 42
-0.414213562373095
 10
-60.5
 20
9.49999999999983
 10
-64.17700000000002
 20
9.49999999999983
 42
0.414213562373095
  0
LWPOLYLINE
  5
AA5
330
1F
100
AcDbEntity
  8
pcb
100
AcDbPolyline
 90
       20
 70
     1
 43
0.0
 10
-65.37700000000001
 20
8.49999999999983
 10
-65.37700000000001
 20
-11.67700000000008
 42
0.414213562373095
 10
-64.17700000000002
 20
-12.87700000000012
 10
-40.82299999999998
 20
-12.87700000000012
 42
0.414213562373095
 10
-39.62299999999999
 20
-11.67700000000008
 10
-39.62299999999999
 20
11.67699999999996
 42
0.414213562373095
 10
-40.82299999999998
 20
12.8769999999999
 10
-48.5
 20
12.8769999999999
 42
0.414213562373095
 10
-49.69999999999999
 20
11.67699999999996
 10
-49.69999999999999
 20
10.99999999999983
 42
-0.414213562373095
 10
-51.0
 20
9.699999999999875
 10
-54.0
 20
9.699999999999875
 42
-0.414213562373095
 10
-55.30000000000001
 20
10.99999999999983
 10
-55.30000000000001
 20
11.67699999999996
 42
0.414213562373095
 10
-56.5
 20
12.8769999999999
 10
-58.0
 20
12.8769999999999
 42
0.414213562373095
 10
-59.19999999999999
 20
11.67699999999996
 10
-59.19999999999999
 20
10.99999999999983
 42
-0.414213562373095
 10
-60.5
 20
9.699999999999875
 10
-64.17700000000002
 20
9.699999999999875
 42
0.414213562373095
  0
CIRCLE
  5
AA6
330
1F
100
AcDbEntity
  8
pin_holes
100
AcDbCircle
 10
-28.5
 20
10.99999999999983
 30
0.0
 40
1.0
  0
CIRCLE
  5
AA7
330
1F
100
AcDbEntity
  8
pin_holes
100
AcDbCircle
 10
-25.5
 20
10.99999999999983
 30
0.0
 40
1.0
  0
CIRCLE
  5
AA8
102
{ACAD_REACTORS
330
AF8
102
}
330
1F
100
AcDbEntity
  8
pin_holes
100
AcDbCircle
 10
-19.0
 20
10.99999999999983
 30
0.0
 40
1.0
  0
CIRCLE
  5
AA9
330
1F
100
AcDbEntity
  8
pin_holes
100
AcDbCircle
 10
-16.0
 20
10.99999999999983
 30
0.0
 40
1.0
  0
LWPOLYLINE
  5
AAA
330
1F
100
AcDbEntity
  8
cu_towers
100
AcDbPolyline
 90
       20
 70
     1
 43
0.0
 10
-30.17700000000002
 20
8.49999999999983
 10
-30.17700000000002
 20
-11.67700000000008
 42
0.414213562373095
 10
-29.17700000000002
 20
-12.67700000000008
 10
-5.822999999999979
 20
-12.67700000000008
 42
0.414213562373095
 10
-4.822999999999979
 20
-11.67700000000008
 10
-4.822999999999979
 20
11.67699999999996
 42
0.414213562373095
 10
-5.822999999999979
 20
12.67699999999996
 10
-13.5
 20
12.67699999999996
 42
0.414213562373095
 10
-14.5
 20
11.67699999999996
 10
-14.5
 20
10.99999999999983
 42
-0.414213562373095
 10
-16.0
 20
9.49999999999983
 10
-19.0
 20
9.49999999999983
 42
-0.414213562373095
 10
-20.5
 20
10.99999999999983
 10
-20.5
 20
11.67699999999996
 42
0.414213562373095
 10
-21.5
 20
12.67699999999996
 10
-23.0
 20
12.67699999999996
 42
0.414213562373095
 10
-24.0
 20
11.67699999999996
 10
-24.0
 20
10.99999999999983
 42
-0.414213562373095
 10
-25.5
 20
9.49999999999983
 10
-29.17700000000002
 20
9.49999999999983
 42
0.414213562373095
  0
LWPOLYLINE
  5
AAB
330
1F
100
AcDbEntity
  8
pcb
100
AcDbPolyline
 90
       20
 70
     1
 43
0.0
 10
-30.37700000000001
 20
8.49999999999983
 10
-30.37700000000001
 20
-11.67700000000008
 42
0.414213562373095
 10
-29.17700000000002
 20
-12.87700000000012
 10
-5.822999999999979
 20
-12.87700000000012
 42
0.414213562373095
 10
-4.62299999999999
 20
-11.67700000000008
 10
-4.62299999999999
 20
11.67699999999996
 42
0.414213562373095
 10
-5.822999999999979
 20
12.8769999999999
 10
-13.5
 20
12.8769999999999
 42
0.414213562373095
 10
-14.69999999999999
 20
11.67699999999996
 10
-14.69999999999999
 20
10.99999999999983
 42
-0.414213562373095
 10
-16.0
 20
9.699999999999875
 10
-19.0
 20
9.699999999999875
 42
-0.414213562373095
 10
-20.30000000000001
 20
10.99999999999983
 10
-20.30000000000001
 20
11.67699999999996
 42
0.414213562373095
 10
-21.5
 20
12.8769999999999
 10
-23.0
 20
12.8769999999999
 42
0.414213562373095
 10
-24.19999999999999
 20
11.67699999999996
 10
-24.19999999999999
 20
10.99999999999983
 42
-0.414213562373095
 10
-25.5
 20
9.699999999999875
 10
-29.17700000000002
 20
9.699999999999875
 42
0.414213562373095
  0
CIRCLE
  5
AAC
330
1F
100
AcDbEntity
  8
pin_holes
100
AcDbCircle
 10
6.5
 20
10.99999999999983
 30
0.0
 40
1.0
  0
CIRCLE
  5
AAD
330
1F
100
AcDbEntity
  8
pin_holes
100
AcDbCircle
 10
9.5
 20
10.99999999999983
 30
0.0
 40
1.0
  0
CIRCLE
  5
AAE
330
1F
100
AcDbEntity
  8
pin_holes
100
AcDbCircle
 10
16.0
 20
10.99999999999983
 30
0.0
 40
1.0
  0
CIRCLE
  5
AAF
330
1F
100
AcDbEntity
  8
pin_holes
100
AcDbCircle
 10
19.0
 20
10.99999999999983
 30
0.0
 40
1.0
  0
LWPOLYLINE
  5
AB0
330
1F
100
AcDbEntity
  8
cu_towers
100
AcDbPolyline
 90
       20
 70
     1
 43
0.0
 10
4.822999999999979
 20
8.49999999999983
 10
4.822999999999979
 20
-11.67700000000008
 42
0.414213562373095
 10
5.822999999999979
 20
-12.67700000000008
 10
29.17700000000002
 20
-12.67700000000008
 42
0.414213562373095
 10
30.17700000000002
 20
-11.67700000000008
 10
30.17700000000002
 20
11.67699999999996
 42
0.414213562373095
 10
29.17700000000002
 20
12.67699999999996
 10
21.5
 20
12.67699999999996
 42
0.414213562373095
 10
20.5
 20
11.67699999999996
 10
20.5
 20
10.99999999999983
 42
-0.414213562373095
 10
19.0
 20
9.49999999999983
 10
16.0
 20
9.49999999999983
 42
-0.414213562373095
 10
14.5
 20
10.99999999999983
 10
14.5
 20
11.67699999999996
 42
0.414213562373095
 10
13.5
 20
12.67699999999996
 10
12.0
 20
12.67699999999996
 42
0.414213562373095
 10
11.0
 20
11.67699999999996
 10
11.0
 20
10.99999999999983
 42
-0.414213562373095
 10
9.5
 20
9.49999999999983
 10
5.822999999999979
 20
9.49999999999983
 42
0.414213562373095
  0
LWPOLYLINE
  5
AB1
330
1F
100
AcDbEntity
  8
pcb
100
AcDbPolyline
 90
       20
 70
     1
 43
0.0
 10
4.62299999999999
 20
8.49999999999983
 10
4.62299999999999
 20
-11.67700000000008
 42
0.414213562373095
 10
5.822999999999979
 20
-12.87700000000012
 10
29.17700000000002
 20
-12.87700000000012
 42
0.414213562373095
 10
30.37700000000001
 20
-11.67700000000008
 10
30.37700000000001
 20
11.67699999999996
 42
0.414213562373095
 10
29.17700000000002
 20
12.8769999999999
 10
21.5
 20
12.8769999999999
 42
0.414213562373095
 10
20.30000000000001
 20
11.67699999999996
 10
20.30000000000001
 20
10.99999999999983
 42
-0.414213562373095
 10
19.0
 20
9.699999999999875
 10
16.0
 20
9.699999999999875
 42
-0.414213562373095
 10
14.69999999999999
 20
10.99999999999983
 10
14.69999999999999
 20
11.67699999999996
 42
0.414213562373095
 10
13.5
 20
12.8769999999999
 10
12.0
 20
12.8769999999999
 42
0.414213562373095
 10
10.80000000000001
 20
11.67699999999996
 10
10.80000000000001
 20
10.99999999999983
 42
-0.414213562373095
 10
9.5
 20
9.699999999999875
 10
5.822999999999979
 20
9.699999999999875
 42
0.414213562373095
  0
CIRCLE
  5
AB2
330
1F
100
AcDbEntity
  8
pin_holes
100
AcDbCircle
 10
41.5
 20
10.99999999999983
 30
0.0
 40
1.0
  0
CIRCLE
  5
AB3
330
1F
100
AcDbEntity
  8
pin_holes
100
AcDbCircle
 10
44.5
 20
10.99999999999983
 30
0.0
 40
1.0
  0
CIRCLE
  5
AB4
330
1F
100
AcDbEntity
  8
pin_holes
100
AcDbCircle
 10
51.0
 20
10.99999999999983
 30
0.0
 40
1.0
  0
CIRCLE
  5
AB5
330
1F
100
AcDbEntity
  8
pin_holes
100
AcDbCircle
 10
54.0
 20
10.99999999999983
 30
0.0
 40
1.0
  0
LWPOLYLINE
  5
AB6
330
1F
100
AcDbEntity
  8
cu_towers
100
AcDbPolyline
 90
       20
 70
     1
 43
0.0
 10
39.82299999999998
 20
8.49999999999983
 10
39.82299999999998
 20
-11.67700000000008
 42
0.414213562373095
 10
40.82299999999998
 20
-12.67700000000008
 10
64.17700000000002
 20
-12.67700000000008
 42
0.414213562373095
 10
65.17700000000002
 20
-11.67700000000008
 10
65.17700000000002
 20
11.67699999999996
 42
0.414213562373095
 10
64.17700000000002
 20
12.67699999999996
 10
56.5
 20
12.67699999999996
 42
0.414213562373095
 10
55.5
 20
11.67699999999996
 10
55.5
 20
10.99999999999983
 42
-0.414213562373095
 10
54.0
 20
9.49999999999983
 10
51.0
 20
9.49999999999983
 42
-0.414213562373095
 10
49.5
 20
10.99999999999983
 10
49.5
 20
11.67699999999996
 42
0.414213562373095
 10
48.5
 20
12.67699999999996
 10
47.0
 20
12.67699999999996
 42
0.414213562373095
 10
46.0
 20
11.67699999999996
 10
46.0
 20
10.99999999999983
 42
-0.414213562373095
 10
44.5
 20
9.49999999999983
 10
40.82299999999998
 20
9.49999999999983
 42
0.414213562373095
  0
LWPOLYLINE
  5
AB7
330
1F
100
AcDbEntity
  8
pcb
100
AcDbPolyline
 90
       20
 70
     1
 43
0.0
 10
39.62299999999999
 20
8.49999999999983
 10
39.62299999999999
 20
-11.67700000000008
 42
0.414213562373095
 10
40.82299999999998
 20
-12.87700000000012
 10
64.17700000000002
 20
-12.87700000000012
 42
0.414213562373095
 10
65.37700000000001
 20
-11.67700000000008
 10
65.37700000000001
 20
11.67699999999996
 42
0.414213562373095
 10
64.17700000000002
 20
12.8769999999999
 10
56.5
 20
12.8769999999999
 42
0.414213562373095
 10
55.30000000000001
 20
11.67699999999996
 10
55.30000000000001
 20
10.99999999999983
 42
-0.414213562373095
 10
54.0
 20
9.699999999999875
 10
51.0
 20
9.699999999999875
 42
-0.414213562373095
 10
49.69999999999999
 20
10.99999999999983
 10
49.69999999999999
 20
11.67699999999996
 42
0.414213562373095
 10
48.5
 20
12.8769999999999
 10
47.0
 20
12.8769999999999
 42
0.414213562373095
 10
45.80000000000001
 20
11.67699999999996
 10
45.80000000000001
 20
10.99999999999983
 42
-0.414213562373095
 10
44.5
 20
9.699999999999875
 10
40.82299999999998
 20
9.699999999999875
 42
0.414213562373095
  0
CIRCLE
  5
AB8
330
1F
100
AcDbEntity
  8
pin_holes
100
AcDbCircle
 10
-63.5
 20
39.99999999999983
 30
0.0
 40
1.0
  0
CIRCLE
  5
AB9
330
1F
100
AcDbEntity
  8
pin_holes
100
AcDbCircle
 10
-60.5
 20
39.99999999999983
 30
0.0
 40
1.0
  0
CIRCLE
  5
ABA
330
1F
100
AcDbEntity
  8
pin_holes
100
AcDbCircle
 10
-54.0
 20
39.99999999999983
 30
0.0
 40
1.0
  0
CIRCLE
  5
ABB
330
1F
100
AcDbEntity
  8
pin_holes
100
AcDbCircle
 10
-51.0
 20
39.99999999999983
 30
0.0
 40
1.0
  0
LWPOLYLINE
  5
ABC
330
1F
100
AcDbEntity
  8
cu_towers
100
AcDbPolyline
 90
       20
 70
     1
 43
0.0
 10
-65.17700000000002
 20
37.49999999999983
 10
-65.17700000000002
 20
17.32299999999992
 42
0.414213562373095
 10
-64.17700000000002
 20
16.32299999999992
 10
-40.82299999999998
 20
16.32299999999992
 42
0.414213562373095
 10
-39.82299999999998
 20
17.32299999999992
 10
-39.82299999999998
 20
40.67699999999996
 42
0.414213562373095
 10
-40.82299999999998
 20
41.67699999999996
 10
-48.5
 20
41.67699999999996
 42
0.414213562373095
 10
-49.5
 20
40.67699999999996
 10
-49.5
 20
39.99999999999983
 42
-0.414213562373095
 10
-51.0
 20
38.49999999999983
 10
-54.0
 20
38.49999999999983
 42
-0.414213562373095
 10
-55.5
 20
39.99999999999983
 10
-55.5
 20
40.67699999999996
 42
0.414213562373095
 10
-56.5
 20
41.67699999999996
 10
-58.0
 20
41.67699999999996
 42
0.414213562373095
 10
-59.0
 20
40.67699999999996
 10
-59.0
 20
39.99999999999983
 42
-0.414213562373095
 10
-60.5
 20
38.49999999999983
 10
-64.17700000000002
 20
38.49999999999983
 42
0.414213562373095
  0
LWPOLYLINE
  5
ABD
330
1F
100
AcDbEntity
  8
pcb
100
AcDbPolyline
 90
       20
 70
     1
 43
0.0
 10
-65.37700000000001
 20
37.49999999999983
 10
-65.37700000000001
 20
17.32299999999992
 42
0.414213562373095
 10
-64.17700000000002
 20
16.12299999999988
 10
-40.82299999999998
 20
16.12299999999988
 42
0.414213562373095
 10
-39.62299999999999
 20
17.32299999999992
 10
-39.62299999999999
 20
40.67699999999996
 42
0.414213562373095
 10
-40.82299999999998
 20
41.8769999999999
 10
-48.5
 20
41.8769999999999
 42
0.414213562373095
 10
-49.69999999999999
 20
40.67699999999996
 10
-49.69999999999999
 20
39.99999999999983
 42
-0.414213562373095
 10
-51.0
 20
38.69999999999987
 10
-54.0
 20
38.69999999999987
 42
-0.414213562373095
 10
-55.30000000000001
 20
39.99999999999983
 10
-55.30000000000001
 20
40.67699999999996
 42
0.414213562373095
 10
-56.5
 20
41.8769999999999
 10
-58.0
 20
41.8769999999999
 42
0.414213562373095
 10
-59.19999999999999
 20
40.67699999999996
 10
-59.19999999999999
 20
39.99999999999983
 42
-0.414213562373095
 10
-60.5
 20
38.69999999999987
 10
-64.17700000000002
 20
38.69999999999987
 42
0.414213562373095
  0
CIRCLE
  5
ABE
330
1F
100
AcDbEntity
  8
pin_holes
100
AcDbCircle
 10
-28.5
 20
39.99999999999983
 30
0.0
 40
1.0
  0
CIRCLE
  5
ABF
330
1F
100
AcDbEntity
  8
pin_holes
100
AcDbCircle
 10
-25.5
 20
39.99999999999983
 30
0.0
 40
1.0
  0
CIRCLE
  5
AC0
330
1F
100
AcDbEntity
  8
pin_holes
100
AcDbCircle
 10
-19.0
 20
39.99999999999983
 30
0.0
 40
1.0
  0
CIRCLE
  5
AC1
330
1F
100
AcDbEntity
  8
pin_holes
100
AcDbCircle
 10
-16.0
 20
39.99999999999983
 30
0.0
 40
1.0
  0
LWPOLYLINE
  5
AC2
330
1F
100
AcDbEntity
  8
cu_towers
100
AcDbPolyline
 90
       20
 70
     1
 43
0.0
 10
-30.17700000000002
 20
37.49999999999983
 10
-30.17700000000002
 20
17.32299999999992
 42
0.414213562373095
 10
-29.17700000000002
 20
16.32299999999992
 10
-5.822999999999979
 20
16.32299999999992
 42
0.414213562373095
 10
-4.822999999999979
 20
17.32299999999992
 10
-4.822999999999979
 20
40.67699999999996
 42
0.414213562373095
 10
-5.822999999999979
 20
41.67699999999996
 10
-13.5
 20
41.67699999999996
 42
0.414213562373095
 10
-14.5
 20
40.67699999999996
 10
-14.5
 20
39.99999999999983
 42
-0.414213562373095
 10
-16.0
 20
38.49999999999983
 10
-19.0
 20
38.49999999999983
 42
-0.414213562373095
 10
-20.5
 20
39.99999999999983
 10
-20.5
 20
40.67699999999996
 42
0.414213562373095
 10
-21.5
 20
41.67699999999996
 10
-23.0
 20
41.67699999999996
 42
0.414213562373095
 10
-24.0
 20
40.67699999999996
 10
-24.0
 20
39.99999999999983
 42
-0.414213562373095
 10
-25.5
 20
38.49999999999983
 10
-29.17700000000002
 20
38.49999999999983
 42
0.414213562373095
  0
LWPOLYLINE
  5
AC3
330
1F
100
AcDbEntity
  8
pcb
100
AcDbPolyline
 90
       20
 70
     1
 43
0.0
 10
-30.37700000000001
 20
37.49999999999983
 10
-30.37700000000001
 20
17.32299999999992
 42
0.414213562373095
 10
-29.17700000000002
 20
16.12299999999988
 10
-5.822999999999979
 20
16.12299999999988
 42
0.414213562373095
 10
-4.62299999999999
 20
17.32299999999992
 10
-4.62299999999999
 20
40.67699999999996
 42
0.414213562373095
 10
-5.822999999999979
 20
41.8769999999999
 10
-13.5
 20
41.8769999999999
 42
0.414213562373095
 10
-14.69999999999999
 20
40.67699999999996
 10
-14.69999999999999
 20
39.99999999999983
 42
-0.414213562373095
 10
-16.0
 20
38.69999999999987
 10
-19.0
 20
38.69999999999987
 42
-0.414213562373095
 10
-20.30000000000001
 20
39.99999999999983
 10
-20.30000000000001
 20
40.67699999999996
 42
0.414213562373095
 10
-21.5
 20
41.8769999999999
 10
-23.0
 20
41.8769999999999
 42
0.414213562373095
 10
-24.19999999999999
 20
40.67699999999996
 10
-24.19999999999999
 20
39.99999999999983
 42
-0.414213562373095
 10
-25.5
 20
38.69999999999987
 10
-29.17700000000002
 20
38.69999999999987
 42
0.414213562373095
  0
CIRCLE
  5
AC4
330
1F
100
AcDbEntity
  8
pin_holes
100
AcDbCircle
 10
6.5
 20
39.99999999999983
 30
0.0
 40
1.0
  0
CIRCLE
  5
AC5
330
1F
100
AcDbEntity
  8
pin_holes
100
AcDbCircle
 10
9.5
 20
39.99999999999983
 30
0.0
 40
1.0
  0
CIRCLE
  5
AC6
330
1F
100
AcDbEntity
  8
pin_holes
100
AcDbCircle
 10
16.0
 20
39.99999999999983
 30
0.0
 40
1.0
  0
CIRCLE
  5
AC7
330
1F
100
AcDbEntity
  8
pin_holes
100
AcDbCircle
 10
19.0
 20
39.99999999999983
 30
0.0
 40
1.0
  0
LWPOLYLINE
  5
AC8
330
1F
100
AcDbEntity
  8
cu_towers
100
AcDbPolyline
 90
       20
 70
     1
 43
0.0
 10
4.822999999999979
 20
37.49999999999983
 10
4.822999999999979
 20
17.32299999999992
 42
0.414213562373095
 10
5.822999999999979
 20
16.32299999999992
 10
29.17700000000002
 20
16.32299999999992
 42
0.414213562373095
 10
30.17700000000002
 20
17.32299999999992
 10
30.17700000000002
 20
40.67699999999996
 42
0.414213562373095
 10
29.17700000000002
 20
41.67699999999996
 10
21.5
 20
41.67699999999996
 42
0.414213562373095
 10
20.5
 20
40.67699999999996
 10
20.5
 20
39.99999999999983
 42
-0.414213562373095
 10
19.0
 20
38.49999999999983
 10
16.0
 20
38.49999999999983
 42
-0.414213562373095
 10
14.5
 20
39.99999999999983
 10
14.5
 20
40.67699999999996
 42
0.414213562373095
 10
13.5
 20
41.67699999999996
 10
12.0
 20
41.67699999999996
 42
0.414213562373095
 10
11.0
 20
40.67699999999996
 10
11.0
 20
39.99999999999983
 42
-0.414213562373095
 10
9.5
 20
38.49999999999983
 10
5.822999999999979
 20
38.49999999999983
 42
0.414213562373095
  0
LWPOLYLINE
  5
AC9
330
1F
100
AcDbEntity
  8
pcb
100
AcDbPolyline
 90
       20
 70
     1
 43
0.0
 10
4.62299999999999
 20
37.49999999999983
 10
4.62299999999999
 20
17.32299999999992
 42
0.414213562373095
 10
5.822999999999979
 20
16.12299999999988
 10
29.17700000000002
 20
16.12299999999988
 42
0.414213562373095
 10
30.37700000000001
 20
17.32299999999992
 10
30.37700000000001
 20
40.67699999999996
 42
0.414213562373095
 10
29.17700000000002
 20
41.8769999999999
 10
21.5
 20
41.8769999999999
 42
0.414213562373095
 10
20.30000000000001
 20
40.67699999999996
 10
20.30000000000001
 20
39.99999999999983
 42
-0.414213562373095
 10
19.0
 20
38.69999999999987
 10
16.0
 20
38.69999999999987
 42
-0.414213562373095
 10
14.69999999999999
 20
39.99999999999983
 10
14.69999999999999
 20
40.67699999999996
 42
0.414213562373095
 10
13.5
 20
41.8769999999999
 10
12.0
 20
41.8769999999999
 42
0.414213562373095
 10
10.80000000000001
 20
40.67699999999996
 10
10.80000000000001
 20
39.99999999999983
 42
-0.414213562373095
 10
9.5
 20
38.69999999999987
 10
5.822999999999979
 20
38.69999999999987
 42
0.414213562373095
  0
CIRCLE
  5
ACA
330
1F
100
AcDbEntity
  8
pin_holes
100
AcDbCircle
 10
41.5
 20
39.99999999999983
 30
0.0
 40
1.0
  0
CIRCLE
  5
ACB
330
1F
100
AcDbEntity
  8
pin_holes
100
AcDbCircle
 10
44.5
 20
39.99999999999983
 30
0.0
 40
1.0
  0
CIRCLE
  5
ACC
330
1F
100
AcDbEntity
  8
pin_holes
100
AcDbCircle
 10
51.0
 20
39.99999999999983
 30
0.0
 40
1.0
  0
CIRCLE
  5
ACD
330
1F
100
AcDbEntity
  8
pin_holes
100
AcDbCircle
 10
54.0
 20
39.99999999999983
 30
0.0
 40
1.0
  0
LWPOLYLINE
  5
ACE
330
1F
100
AcDbEntity
  8
cu_towers
100
AcDbPolyline
 90
       20
 70
     1
 43
0.0
 10
39.82299999999998
 20
37.49999999999983
 10
39.82299999999998
 20
17.32299999999992
 42
0.414213562373095
 10
40.82299999999998
 20
16.32299999999992
 10
64.17700000000002
 20
16.32299999999992
 42
0.414213562373095
 10
65.17700000000002
 20
17.32299999999992
 10
65.17700000000002
 20
40.67699999999996
 42
0.414213562373095
 10
64.17700000000002
 20
41.67699999999996
 10
56.5
 20
41.67699999999996
 42
0.414213562373095
 10
55.5
 20
40.67699999999996
 10
55.5
 20
39.99999999999983
 42
-0.414213562373095
 10
54.0
 20
38.49999999999983
 10
51.0
 20
38.49999999999983
 42
-0.414213562373095
 10
49.5
 20
39.99999999999983
 10
49.5
 20
40.67699999999996
 42
0.414213562373095
 10
48.5
 20
41.67699999999996
 10
47.0
 20
41.67699999999996
 42
0.414213562373095
 10
46.0
 20
40.67699999999996
 10
46.0
 20
39.99999999999983
 42
-0.414213562373095
 10
44.5
 20
38.49999999999983
 10
40.82299999999998
 20
38.49999999999983
 42
0.414213562373095
  0
LWPOLYLINE
  5
ACF
330
1F
100
AcDbEntity
  8
pcb
100
AcDbPolyline
 90
       20
 70
     1
 43
0.0
 10
39.62299999999999
 20
37.49999999999983
 10
39.62299999999999
 20
17.32299999999992
 42
0.414213562373095
 10
40.82299999999998
 20
16.12299999999988
 10
64.17700000000002
 20
16.12299999999988
 42
0.414213562373095
 10
65.37700000000001
 20
17.32299999999992
 10
65.37700000000001
 20
40.67699999999996
 42
0.414213562373095
 10
64.17700000000002
 20
41.8769999999999
 10
56.5
 20
41.8769999999999
 42
0.414213562373095
 10
55.30000000000001
 20
40.67699999999996
 10
55.30000000000001
 20
39.99999999999983
 42
-0.414213562373095
 10
54.0
 20
38.69999999999987
 10
51.0
 20
38.69999999999987
 42
-0.414213562373095
 10
49.69999999999999
 20
39.99999999999983
 10
49.69999999999999
 20
40.67699999999996
 42
0.414213562373095
 10
48.5
 20
41.8769999999999
 10
47.0
 20
41.8769999999999
 42
0.414213562373095
 10
45.80000000000001
 20
40.67699999999996
 10
45.80000000000001
 20
39.99999999999983
 42
-0.414213562373095
 10
44.5
 20
38.69999999999987
 10
40.82299999999998
 20
38.69999999999987
 42
0.414213562373095
  0
CIRCLE
  5
AD6
330
1F
100
AcDbEntity
  8
pin_holes
100
AcDbCircle
 10
-28.50000000000006
 20
68.99999999999983
 30
0.0
 40
1.0
  0
CIRCLE
  5
AD7
330
1F
100
AcDbEntity
  8
pin_holes
100
AcDbCircle
 10
-25.50000000000006
 20
68.99999999999983
 30
0.0
 40
1.0
  0
CIRCLE
  5
AD8
330
1F
100
AcDbEntity
  8
pin_holes
100
AcDbCircle
 10
-19.00000000000006
 20
68.99999999999983
 30
0.0
 40
1.0
  0
CIRCLE
  5
AD9
330
1F
100
AcDbEntity
  8
pin_holes
100
AcDbCircle
 10
-16.00000000000006
 20
68.99999999999983
 30
0.0
 40
1.0
  0
LWPOLYLINE
  5
ADA
330
1F
100
AcDbEntity
  8
cu_towers
100
AcDbPolyline
 90
       20
 70
     1
 43
0.0
 10
-30.17700000000008
 20
66.49999999999983
 10
-30.17700000000008
 20
46.32299999999992
 42
0.414213562373095
 10
-29.17700000000008
 20
45.32299999999992
 10
-5.823000000000036
 20
45.32299999999992
 42
0.414213562373095
 10
-4.823000000000036
 20
46.32299999999992
 10
-4.823000000000036
 20
69.67699999999996
 42
0.414213562373095
 10
-5.823000000000036
 20
70.67699999999996
 10
-13.50000000000006
 20
70.67699999999996
 42
0.414213562373095
 10
-14.50000000000006
 20
69.67699999999996
 10
-14.50000000000006
 20
68.99999999999983
 42
-0.414213562373095
 10
-16.00000000000006
 20
67.49999999999983
 10
-19.00000000000006
 20
67.49999999999983
 42
-0.414213562373095
 10
-20.50000000000006
 20
68.99999999999983
 10
-20.50000000000006
 20
69.67699999999996
 42
0.414213562373095
 10
-21.50000000000006
 20
70.67699999999996
 10
-23.00000000000006
 20
70.67699999999996
 42
0.414213562373095
 10
-24.00000000000006
 20
69.67699999999996
 10
-24.00000000000006
 20
68.99999999999983
 42
-0.414213562373095
 10
-25.50000000000006
 20
67.49999999999983
 10
-29.17700000000008
 20
67.49999999999983
 42
0.414213562373095
  0
LWPOLYLINE
  5
ADB
330
1F
100
AcDbEntity
  8
pcb
100
AcDbPolyline
 90
       20
 70
     1
 43
0.0
 10
-30.37700000000001
 20
66.49999999999983
 10
-30.37700000000001
 20
46.32299999999992
 42
0.414213562373095
 10
-29.17700000000008
 20
45.12299999999988
 10
-5.823000000000036
 20
45.12299999999988
 42
0.414213562373095
 10
-4.62299999999999
 20
46.32299999999992
 10
-4.62299999999999
 20
69.67699999999996
 42
0.414213562373095
 10
-5.823000000000036
 20
70.8769999999999
 10
-13.50000000000006
 20
70.8769999999999
 42
0.414213562373095
 10
-14.69999999999999
 20
69.67699999999996
 10
-14.69999999999999
 20
68.99999999999983
 42
-0.414213562373095
 10
-16.00000000000006
 20
67.69999999999987
 10
-19.00000000000006
 20
67.69999999999987
 42
-0.414213562373095
 10
-20.30000000000001
 20
68.99999999999983
 10
-20.30000000000001
 20
69.67699999999996
 42
0.414213562373095
 10
-21.50000000000006
 20
70.8769999999999
 10
-23.00000000000006
 20
70.8769999999999
 42
0.414213562373095
 10
-24.19999999999999
 20
69.67699999999996
 10
-24.19999999999999
 20
68.99999999999983
 42
-0.414213562373095
 10
-25.50000000000006
 20
67.69999999999987
 10
-29.17700000000008
 20
67.69999999999987
 42
0.414213562373095
  0
CIRCLE
  5
ADC
330
1F
100
AcDbEntity
  8
pin_holes
100
AcDbCircle
 10
6.499999999999943
 20
68.99999999999983
 30
0.0
 40
1.0
  0
CIRCLE
  5
ADD
330
1F
100
AcDbEntity
  8
pin_holes
100
AcDbCircle
 10
9.499999999999943
 20
68.99999999999983
 30
0.0
 40
1.0
  0
CIRCLE
  5
ADE
330
1F
100
AcDbEntity
  8
pin_holes
100
AcDbCircle
 10
15.99999999999994
 20
68.99999999999983
 30
0.0
 40
1.0
  0
CIRCLE
  5
ADF
330
1F
100
AcDbEntity
  8
pin_holes
100
AcDbCircle
 10
18.99999999999994
 20
68.99999999999983
 30
0.0
 40
1.0
  0
LWPOLYLINE
  5
AE0
330
1F
100
AcDbEntity
  8
cu_towers
100
AcDbPolyline
 90
       20
 70
     1
 43
0.0
 10
4.822999999999922
 20
66.49999999999983
 10
4.822999999999922
 20
46.32299999999992
 42
0.414213562373095
 10
5.822999999999922
 20
45.32299999999992
 10
29.17699999999996
 20
45.32299999999992
 42
0.414213562373095
 10
30.17699999999996
 20
46.32299999999992
 10
30.17699999999996
 20
69.67699999999996
 42
0.414213562373095
 10
29.17699999999996
 20
70.67699999999996
 10
21.49999999999994
 20
70.67699999999996
 42
0.414213562373095
 10
20.49999999999994
 20
69.67699999999996
 10
20.49999999999994
 20
68.99999999999983
 42
-0.414213562373095
 10
18.99999999999994
 20
67.49999999999983
 10
15.99999999999994
 20
67.49999999999983
 42
-0.414213562373095
 10
14.49999999999994
 20
68.99999999999983
 10
14.49999999999994
 20
69.67699999999996
 42
0.414213562373095
 10
13.49999999999994
 20
70.67699999999996
 10
11.99999999999994
 20
70.67699999999996
 42
0.414213562373095
 10
10.99999999999994
 20
69.67699999999996
 10
10.99999999999994
 20
68.99999999999983
 42
-0.414213562373095
 10
9.499999999999943
 20
67.49999999999983
 10
5.822999999999922
 20
67.49999999999983
 42
0.414213562373095
  0
LWPOLYLINE
  5
AE1
330
1F
100
AcDbEntity
  8
pcb
100
AcDbPolyline
 90
       20
 70
     1
 43
0.0
 10
4.62299999999999
 20
66.49999999999983
 10
4.62299999999999
 20
46.32299999999992
 42
0.414213562373095
 10
5.822999999999922
 20
45.12299999999988
 10
29.17699999999996
 20
45.12299999999988
 42
0.414213562373095
 10
30.37700000000001
 20
46.32299999999992
 10
30.37700000000001
 20
69.67699999999996
 42
0.414213562373095
 10
29.17699999999996
 20
70.8769999999999
 10
21.49999999999994
 20
70.8769999999999
 42
0.414213562373095
 10
20.30000000000001
 20
69.67699999999996
 10
20.30000000000001
 20
68.99999999999983
 42
-0.414213562373095
 10
18.99999999999994
 20
67.69999999999987
 10
15.99999999999994
 20
67.69999999999987
 42
-0.414213562373095
 10
14.69999999999999
 20
68.99999999999983
 10
14.69999999999999
 20
69.67699999999996
 42
0.414213562373095
 10
13.49999999999994
 20
70.8769999999999
 10
11.99999999999994
 20
70.8769999999999
 42
0.414213562373095
 10
10.80000000000001
 20
69.67699999999996
 10
10.80000000000001
 20
68.99999999999983
 42
-0.414213562373095
 10
9.499999999999943
 20
67.69999999999987
 10
5.822999999999922
 20
67.69999999999987
 42
0.414213562373095
  0
CIRCLE
  5
AE2
330
1F
100
AcDbEntity
  8
pin_holes
100
AcDbCircle
 10
41.49999999999994
 20
68.99999999999983
 30
0.0
 40
1.0
  0
CIRCLE
  5
AE3
330
1F
100
AcDbEntity
  8
pin_holes
100
AcDbCircle
 10
44.49999999999994
 20
68.99999999999983
 30
0.0
 40
1.0
  0
CIRCLE
  5
AE4
330
1F
100
AcDbEntity
  8
pin_holes
100
AcDbCircle
 10
50.99999999999994
 20
68.99999999999983
 30
0.0
 40
1.0
  0
CIRCLE
  5
AE5
330
1F
100
AcDbEntity
  8
pin_holes
100
AcDbCircle
 10
53.99999999999994
 20
68.99999999999983
 30
0.0
 40
1.0
  0
LWPOLYLINE
  5
AE6
330
1F
100
AcDbEntity
  8
cu_towers
100
AcDbPolyline
 90
       20
 70
     1
 43
0.0
 10
39.82299999999992
 20
66.49999999999983
 10
39.82299999999992
 20
46.32299999999992
 42
0.414213562373095
 10
40.82299999999992
 20
45.32299999999992
 10
64.17699999999996
 20
45.32299999999992
 42
0.414213562373095
 10
65.17699999999996
 20
46.32299999999992
 10
65.17699999999996
 20
69.67699999999996
 42
0.414213562373095
 10
64.17699999999996
 20
70.67699999999996
 10
56.49999999999994
 20
70.67699999999996
 42
0.414213562373095
 10
55.49999999999994
 20
69.67699999999996
 10
55.49999999999994
 20
68.99999999999983
 42
-0.414213562373095
 10
53.99999999999994
 20
67.49999999999983
 10
50.99999999999994
 20
67.49999999999983
 42
-0.414213562373095
 10
49.49999999999994
 20
68.99999999999983
 10
49.49999999999994
 20
69.67699999999996
 42
0.414213562373095
 10
48.49999999999994
 20
70.67699999999996
 10
46.99999999999994
 20
70.67699999999996
 42
0.414213562373095
 10
45.99999999999994
 20
69.67699999999996
 10
45.99999999999994
 20
68.99999999999983
 42
-0.414213562373095
 10
44.49999999999994
 20
67.49999999999983
 10
40.82299999999992
 20
67.49999999999983
 42
0.414213562373095
  0
LWPOLYLINE
  5
AE7
330
1F
100
AcDbEntity
  8
pcb
100
AcDbPolyline
 90
       20
 70
     1
 43
0.0
 10
39.62299999999999
 20
66.49999999999983
 10
39.62299999999999
 20
46.32299999999992
 42
0.414213562373095
 10
40.82299999999992
 20
45.12299999999988
 10
64.17699999999996
 20
45.12299999999988
 42
0.414213562373095
 10
65.37700000000001
 20
46.32299999999992
 10
65.37700000000001
 20
69.67699999999996
 42
0.414213562373095
 10
64.17699999999996
 20
70.8769999999999
 10
56.49999999999994
 20
70.8769999999999
 42
0.414213562373095
 10
55.30000000000001
 20
69.67699999999996
 10
55.30000000000001
 20
68.99999999999983
 42
-0.414213562373095
 10
53.99999999999994
 20
67.69999999999987
 10
50.99999999999994
 20
67.69999999999987
 42
-0.414213562373095
 10
49.69999999999999
 20
68.99999999999983
 10
49.69999999999999
 20
69.67699999999996
 42
0.414213562373095
 10
48.49999999999994
 20
70.8769999999999
 10
46.99999999999994
 20
70.8769999999999
 42
0.414213562373095
 10
45.80000000000001
 20
69.67699999999996
 10
45.80000000000001
 20
68.99999999999983
 42
-0.414213562373095
 10
44.49999999999994
 20
67.69999999999987
 10
40.82299999999992
 20
67.69999999999987
 42
0.414213562373095
  0
LWPOLYLINE
  5
B55
330
1F
100
AcDbEntity
  8
slot_plate
100
AcDbPolyline
 90
        8
 70
     1
 43
0.0
 10
-89.5
 20
-54.0
 10
-89.5
 20
54.0
 42
-0.414213562373095
 10
-87.5
 20
56.0
 10
-76.5
 20
56.0
 42
-0.414213562373095
 10
-74.5
 20
54.0
 10
-74.5
 20
-54.0
 42
-0.414213562373095
 10
-76.5
 20
-56.0
 10
-87.5
 20
-56.0
 42
-0.414213562373095
  0
CIRCLE
  5
B71
330
1F
100
AcDbEntity
  8
connector
100
AcDbCircle
 10
-83.27
 20
49.52999999999998
 30
0.0
 40
0.6940285490373804
  0
LWPOLYLINE
  5
B9D
330
1F
100
AcDbEntity
  8
spacer_pcb
100
AcDbPolyline
 90
        8
 70
     1
 43
0.0
 10
-40.82299999999998
 20
-70.87700000000001
 10
-64.17700000000002
 20
-70.87700000000001
 42
-0.414213562373095
 10
-65.37700000000001
 20
-69.67699999999999
 10
-65.37700000000001
 20
-46.32299999999998
 42
-0.414213562373095
 10
-64.17700000000002
 20
-45.12299999999999
 10
-40.82299999999998
 20
-45.12299999999999
 42
-0.414213562373095
 10
-39.62299999999999
 20
-46.32299999999998
 10
-39.62299999999999
 20
-69.67699999999999
 42
-0.414213562373095
  0
LWPOLYLINE
  5
BA1
330
1F
100
AcDbEntity
  8
spacer_pcb
100
AcDbPolyline
 90
        8
 70
     1
 43
0.0
 10
-5.822999999999979
 20
-70.877
 10
-29.17700000000002
 20
-70.877
 42
-0.414213562373095
 10
-30.37700000000001
 20
-69.67699999999999
 10
-30.37700000000001
 20
-46.32299999999998
 42
-0.414213562373095
 10
-29.17700000000002
 20
-45.12299999999999
 10
-5.822999999999979
 20
-45.12299999999999
 42
-0.414213562373095
 10
-4.62299999999999
 20
-46.32299999999998
 10
-4.62299999999999
 20
-69.67699999999999
 42
-0.414213562373095
  0
LWPOLYLINE
  5
BA2
330
1F
100
AcDbEntity
  8
spacer_pcb
100
AcDbPolyline
 90
        8
 70
     1
 43
0.0
 10
29.17700000000002
 20
-70.877
 10
5.822999999999979
 20
-70.877
 42
-0.414213562373095
 10
4.62299999999999
 20
-69.67699999999996
 10
4.62299999999999
 20
-46.32299999999995
 42
-0.414213562373095
 10
5.822999999999979
 20
-45.12299999999996
 10
29.17700000000002
 20
-45.12299999999996
 42
-0.414213562373095
 10
30.37700000000001
 20
-46.32299999999995
 10
30.37700000000001
 20
-69.67699999999996
 42
-0.414213562373095
  0
LWPOLYLINE
  5
BA3
330
1F
100
AcDbEntity
  8
spacer_pcb
100
AcDbPolyline
 90
        8
 70
     1
 43
0.0
 10
64.17700000000002
 20
-70.87699999999998
 10
40.82299999999998
 20
-70.87699999999998
 42
-0.414213562373095
 10
39.62299999999999
 20
-69.67699999999996
 10
39.62299999999999
 20
-46.32299999999995
 42
-0.414213562373095
 10
40.82299999999998
 20
-45.12299999999996
 10
64.17700000000002
 20
-45.12299999999996
 42
-0.414213562373095
 10
65.37700000000001
 20
-46.32299999999995
 10
65.37700000000001
 20
-69.67699999999996
 42
-0.414213562373095
  0
LWPOLYLINE
  5
BA4
330
1F
100
AcDbEntity
  8
spacer_pcb
100
AcDbPolyline
 90
        8
 70
     1
 43
0.0
 10
-40.82299999999998
 20
-41.87700000000001
 10
-64.17700000000002
 20
-41.87700000000001
 42
-0.414213562373095
 10
-65.37700000000001
 20
-40.67699999999999
 10
-65.37700000000001
 20
-17.32299999999998
 42
-0.414213562373095
 10
-64.17700000000002
 20
-16.12299999999999
 10
-40.82299999999998
 20
-16.12299999999999
 42
-0.414213562373095
 10
-39.62299999999999
 20
-17.32299999999998
 10
-39.62299999999999
 20
-40.67699999999999
 42
-0.414213562373095
  0
LWPOLYLINE
  5
BA5
330
1F
100
AcDbEntity
  8
spacer_pcb
100
AcDbPolyline
 90
        8
 70
     1
 43
0.0
 10
-5.822999999999979
 20
-41.87700000000001
 10
-29.17700000000002
 20
-41.87700000000001
 42
-0.414213562373095
 10
-30.37700000000001
 20
-40.67699999999999
 10
-30.37700000000001
 20
-17.32299999999998
 42
-0.414213562373095
 10
-29.17700000000002
 20
-16.12299999999999
 10
-5.822999999999979
 20
-16.12299999999999
 42
-0.414213562373095
 10
-4.62299999999999
 20
-17.32299999999998
 10
-4.62299999999999
 20
-40.67699999999999
 42
-0.414213562373095
  0
LWPOLYLINE
  5
BA6
330
1F
100
AcDbEntity
  8
spacer_pcb
100
AcDbPolyline
 90
        8
 70
     1
 43
0.0
 10
29.17700000000002
 20
-41.87699999999998
 10
5.822999999999979
 20
-41.87699999999998
 42
-0.414213562373095
 10
4.62299999999999
 20
-40.67699999999996
 10
4.62299999999999
 20
-17.32299999999995
 42
-0.414213562373095
 10
5.822999999999979
 20
-16.12299999999996
 10
29.17700000000002
 20
-16.12299999999996
 42
-0.414213562373095
 10
30.37700000000001
 20
-17.32299999999995
 10
30.37700000000001
 20
-40.67699999999996
 42
-0.414213562373095
  0
LWPOLYLINE
  5
BA7
330
1F
100
AcDbEntity
  8
spacer_pcb
100
AcDbPolyline
 90
        8
 70
     1
 43
0.0
 10
64.17700000000002
 20
-41.87699999999998
 10
40.82299999999998
 20
-41.87699999999998
 42
-0.414213562373095
 10
39.62299999999999
 20
-40.67699999999996
 10
39.62299999999999
 20
-17.32299999999995
 42
-0.414213562373095
 10
40.82299999999998
 20
-16.12299999999996
 10
64.17700000000002
 20
-16.12299999999996
 42
-0.414213562373095
 10
65.37700000000001
 20
-17.32299999999995
 10
65.37700000000001
 20
-40.67699999999996
 42
-0.414213562373095
  0
LWPOLYLINE
  5
BA8
330
1F
100
AcDbEntity
  8
spacer_pcb
100
AcDbPolyline
 90
        8
 70
     1
 43
0.0
 10
-40.82299999999998
 20
-12.87700000000001
 10
-64.17700000000002
 20
-12.87700000000001
 42
-0.414213562373095
 10
-65.37700000000001
 20
-11.67699999999999
 10
-65.37700000000001
 20
11.67700000000002
 42
-0.414213562373095
 10
-64.17700000000002
 20
12.87700000000001
 10
-40.82299999999998
 20
12.87700000000001
 42
-0.414213562373095
 10
-39.62299999999999
 20
11.67700000000002
 10
-39.62299999999999
 20
-11.67699999999999
 42
-0.414213562373095
  0
LWPOLYLINE
  5
BA9
330
1F
100
AcDbEntity
  8
spacer_pcb
100
AcDbPolyline
 90
        8
 70
     1
 43
0.0
 10
-5.822999999999979
 20
-12.87700000000001
 10
-29.17700000000002
 20
-12.87700000000001
 42
-0.414213562373095
 10
-30.37700000000001
 20
-11.67699999999999
 10
-30.37700000000001
 20
11.67700000000002
 42
-0.414213562373095
 10
-29.17700000000002
 20
12.87700000000001
 10
-5.822999999999979
 20
12.87700000000001
 42
-0.414213562373095
 10
-4.62299999999999
 20
11.67700000000002
 10
-4.62299999999999
 20
-11.67699999999999
 42
-0.414213562373095
  0
LWPOLYLINE
  5
BAA
330
1F
100
AcDbEntity
  8
spacer_pcb
100
AcDbPolyline
 90
        8
 70
     1
 43
0.0
 10
29.17700000000002
 20
-12.87700000000001
 10
5.822999999999979
 20
-12.87700000000001
 42
-0.414213562373095
 10
4.62299999999999
 20
-11.67699999999996
 10
4.62299999999999
 20
11.67700000000002
 42
-0.414213562373095
 10
5.822999999999979
 20
12.87700000000001
 10
29.17700000000002
 20
12.87700000000001
 42
-0.414213562373095
 10
30.37700000000001
 20
11.67700000000002
 10
30.37700000000001
 20
-11.67699999999996
 42
-0.414213562373095
  0
LWPOLYLINE
  5
BAB
330
1F
100
AcDbEntity
  8
spacer_pcb
100
AcDbPolyline
 90
        8
 70
     1
 43
0.0
 10
64.17700000000002
 20
-12.87699999999998
 10
40.82299999999998
 20
-12.87699999999998
 42
-0.414213562373095
 10
39.62299999999999
 20
-11.67699999999996
 10
39.62299999999999
 20
11.67700000000005
 42
-0.414213562373095
 10
40.82299999999998
 20
12.87700000000004
 10
64.17700000000002
 20
12.87700000000004
 42
-0.414213562373095
 10
65.37700000000001
 20
11.67700000000005
 10
65.37700000000001
 20
-11.67699999999996
 42
-0.414213562373095
  0
LWPOLYLINE
  5
BAC
330
1F
100
AcDbEntity
  8
spacer_pcb
100
AcDbPolyline
 90
        8
 70
     1
 43
0.0
 10
-40.82300000000001
 20
16.12299999999999
 10
-64.17700000000005
 20
16.12299999999999
 42
-0.414213562373095
 10
-65.37700000000004
 20
17.32300000000001
 10
-65.37700000000004
 20
40.67700000000002
 42
-0.414213562373095
 10
-64.17700000000005
 20
41.87700000000001
 10
-40.82300000000001
 20
41.87700000000001
 42
-0.414213562373095
 10
-39.62300000000002
 20
40.67700000000002
 10
-39.62300000000002
 20
17.32300000000001
 42
-0.414213562373095
  0
LWPOLYLINE
  5
BAD
330
1F
100
AcDbEntity
  8
spacer_pcb
100
AcDbPolyline
 90
        8
 70
     1
 43
0.0
 10
-5.823000000000008
 20
16.12299999999999
 10
-29.17700000000005
 20
16.12299999999999
 42
-0.414213562373095
 10
-30.37700000000004
 20
17.32300000000004
 10
-30.37700000000004
 20
40.67700000000002
 42
-0.414213562373095
 10
-29.17700000000005
 20
41.87700000000001
 10
-5.823000000000008
 20
41.87700000000001
 42
-0.414213562373095
 10
-4.623000000000019
 20
40.67700000000002
 10
-4.623000000000019
 20
17.32300000000004
 42
-0.414213562373095
  0
LWPOLYLINE
  5
BAE
330
1F
100
AcDbEntity
  8
spacer_pcb
100
AcDbPolyline
 90
        8
 70
     1
 43
0.0
 10
29.17700000000002
 20
16.12299999999999
 10
5.822999999999979
 20
16.12299999999999
 42
-0.414213562373095
 10
4.62299999999999
 20
17.32300000000004
 10
4.62299999999999
 20
40.67700000000002
 42
-0.414213562373095
 10
5.822999999999979
 20
41.87700000000001
 10
29.17700000000002
 20
41.87700000000001
 42
-0.414213562373095
 10
30.37700000000001
 20
40.67700000000002
 10
30.37700000000001
 20
17.32300000000004
 42
-0.414213562373095
  0
LWPOLYLINE
  5
BAF
330
1F
100
AcDbEntity
  8
spacer_pcb
100
AcDbPolyline
 90
        8
 70
     1
 43
0.0
 10
64.17700000000002
 20
16.12300000000002
 10
40.82299999999998
 20
16.12300000000002
 42
-0.414213562373095
 10
39.62299999999999
 20
17.32300000000004
 10
39.62299999999999
 20
40.67700000000005
 42
-0.414213562373095
 10
40.82299999999998
 20
41.87700000000004
 10
64.17700000000002
 20
41.87700000000004
 42
-0.414213562373095
 10
65.37700000000001
 20
40.67700000000005
 10
65.37700000000001
 20
17.32300000000004
 42
-0.414213562373095
  0
LWPOLYLINE
  5
BB0
330
1F
100
AcDbEntity
  8
spacer_pcb
100
AcDbPolyline
 90
        8
 70
     1
 43
0.0
 10
-40.82300000000001
 20
45.12299999999999
 10
-64.17700000000005
 20
45.12299999999999
 42
-0.414213562373095
 10
-65.37700000000004
 20
46.32300000000001
 10
-65.37700000000004
 20
69.67700000000002
 42
-0.414213562373095
 10
-64.17700000000005
 20
70.87700000000001
 10
-40.82300000000001
 20
70.87700000000001
 42
-0.414213562373095
 10
-39.62300000000002
 20
69.67700000000002
 10
-39.62300000000002
 20
46.32300000000001
 42
-0.414213562373095
  0
LWPOLYLINE
  5
BB1
330
1F
100
AcDbEntity
  8
spacer_pcb
100
AcDbPolyline
 90
        8
 70
     1
 43
0.0
 10
-5.823000000000008
 20
45.12299999999999
 10
-29.17700000000005
 20
45.12299999999999
 42
-0.414213562373095
 10
-30.37700000000004
 20
46.32300000000004
 10
-30.37700000000004
 20
69.67700000000002
 42
-0.414213562373095
 10
-29.17700000000005
 20
70.87700000000001
 10
-5.823000000000008
 20
70.87700000000001
 42
-0.414213562373095
 10
-4.623000000000019
 20
69.67700000000002
 10
-4.623000000000019
 20
46.32300000000004
 42
-0.414213562373095
  0
LWPOLYLINE
  5
BB2
330
1F
100
AcDbEntity
  8
spacer_pcb
100
AcDbPolyline
 90
        8
 70
     1
 43
0.0
 10
29.17699999999999
 20
45.12299999999999
 10
5.822999999999951
 20
45.12299999999999
 42
-0.414213562373095
 10
4.622999999999962
 20
46.32300000000004
 10
4.622999999999962
 20
69.67700000000002
 42
-0.414213562373095
 10
5.822999999999951
 20
70.87700000000001
 10
29.17699999999999
 20
70.87700000000001
 42
-0.414213562373095
 10
30.37699999999998
 20
69.67700000000002
 10
30.37699999999998
 20
46.32300000000004
 42
-0.414213562373095
  0
LWPOLYLINE
  5
BB3
330
1F
100
AcDbEntity
  8
spacer_pcb
100
AcDbPolyline
 90
        8
 70
     1
 43
0.0
 10
64.17700000000002
 20
45.12300000000002
 10
40.82299999999995
 20
45.12300000000002
 42
-0.414213562373095
 10
39.62299999999996
 20
46.32300000000004
 10
39.62299999999996
 20
69.67700000000008
 42
-0.414213562373095
 10
40.82299999999995
 20
70.87700000000001
 10
64.17700000000002
 20
70.87700000000001
 42
-0.414213562373095
 10
65.37699999999995
 20
69.67700000000008
 10
65.37699999999995
 20
46.32300000000004
 42
-0.414213562373095
  0
LWPOLYLINE
  5
BCA
330
1F
100
AcDbEntity
  8
spacer_pcb
100
AcDbPolyline
 90
        8
 70
     1
 43
0.0
 10
-80.46000000000004
 20
-50.79999999999998
 10
-83.53999999999999
 20
-50.79999999999998
 42
-0.414213562373095
 10
-84.53999999999999
 20
-49.79999999999998
 10
-84.53999999999999
 20
49.79999999999998
 42
-0.414213562373095
 10
-83.53999999999999
 20
50.79999999999998
 10
-80.46000000000004
 20
50.79999999999998
 42
-0.414213562373095
 10
-79.46000000000004
 20
49.79999999999998
 10
-79.46000000000004
 20
-49.79999999999998
 42
-0.414213562373095
  0
LWPOLYLINE
  5
C47
102
{ACAD_REACTORS
102
}
330
1F
100
AcDbEntity
  8
slot_plate
100
AcDbPolyline
 90
        8
 70
     1
 43
0.0
 10
-100.0
 20
-98.0
 10
-100.0
 20
97.99999999999997
 42
-0.414213562373095
 10
-98.0
 20
99.99999999999997
 10
98.00000000000006
 20
99.99999999999997
 42
-0.414213562373095
 10
100.0000000000001
 20
97.99999999999997
 10
100.0000000000001
 20
-98.0
 42
-0.414213562373095
 10
98.00000000000006
 20
-100.0
 10
-98.0
 20
-100.0
 42
-0.414213562373095
  0
LWPOLYLINE
  5
C66
330
1F
100
AcDbEntity
  8
pusher_plate
100
AcDbPolyline
 90
        8
 70
     1
 43
0.0
 10
-42.5
 20
-49.41421356237313
 10
-42.5
 20
-66.58578643762692
 42
-1.00000000000004
 10
-43.91421356237311
 20
-68.00000000000003
 10
-61.08578643762689
 20
-68.00000000000003
 42
-0.9999999999999999
 10
-62.5
 20
-66.58578643762692
 10
-62.5
 20
-49.41421356237313
 42
-0.9999999999999999
 10
-61.08578643762689
 20
-48.00000000000003
 10
-43.91421356237311
 20
-48.00000000000003
 42
-1.00000000000004
  0
LWPOLYLINE
  5
C80
330
1F
100
AcDbEntity
  8
slot_plate
100
AcDbPolyline
 90
       12
 70
     1
 43
0.0
 10
-39.82299999999998
 20
-46.73721356237309
 10
-39.82299999999998
 20
-54.53589838486226
 42
-0.5773502691896258
 10
-39.82299999999998
 20
-61.46410161513779
 10
-39.82299999999998
 20
-69.26278643762697
 42
-1.000000000000035
 10
-41.23721356237314
 20
-70.67700000000002
 10
-63.76278643762697
 20
-70.67700000000002
 42
-0.9999999999999974
 10
-65.17700000000002
 20
-69.26278643762691
 10
-65.17700000000002
 20
-61.46410161513779
 42
-0.5773502691896257
 10
-65.17700000000002
 20
-54.53589838486226
 10
-65.17700000000002
 20
-46.73721356237314
 42
-1.000000000000038
 10
-63.76278643762703
 20
-45.32299999999998
 10
-41.23721356237309
 20
-45.32299999999998
 42
-0.999999999999995
  0
LWPOLYLINE
  5
CD3
330
1F
100
AcDbEntity
  8
pusher_plate
100
AcDbPolyline
 90
        8
 70
     1
 43
0.0
 10
-7.5
 20
-49.41421356237313
 10
-7.5
 20
-66.58578643762692
 42
-1.00000000000004
 10
-8.914213562373106
 20
-68.00000000000003
 10
-26.08578643762689
 20
-68.00000000000003
 42
-0.9999999999999999
 10
-27.5
 20
-66.58578643762692
 10
-27.5
 20
-49.41421356237313
 42
-0.9999999999999999
 10
-26.08578643762689
 20
-48.00000000000003
 10
-8.914213562373106
 20
-48.00000000000003
 42
-1.00000000000004
  0
LWPOLYLINE
  5
CD4
330
1F
100
AcDbEntity
  8
pusher_plate
100
AcDbPolyline
 90
        8
 70
     1
 43
0.0
 10
27.5
 20
-49.41421356237311
 10
27.5
 20
-66.5857864376269
 42
-1.00000000000004
 10
26.08578643762689
 20
-68.0
 10
8.914213562373106
 20
-68.0
 42
-0.9999999999999999
 10
7.5
 20
-66.5857864376269
 10
7.5
 20
-49.41421356237311
 42
-0.9999999999999999
 10
8.914213562373106
 20
-48.0
 10
26.08578643762689
 20
-48.0
 42
-1.00000000000004
  0
LWPOLYLINE
  5
CD5
330
1F
100
AcDbEntity
  8
pusher_plate
100
AcDbPolyline
 90
        8
 70
     1
 43
0.0
 10
62.5
 20
-49.41421356237311
 10
62.5
 20
-66.5857864376269
 42
-1.00000000000004
 10
61.08578643762689
 20
-68.0
 10
43.91421356237311
 20
-68.0
 42
-0.9999999999999999
 10
42.5
 20
-66.5857864376269
 10
42.5
 20
-49.41421356237311
 42
-0.9999999999999999
 10
43.91421356237311
 20
-48.0
 10
61.08578643762689
 20
-48.0
 42
-1.00000000000004
  0
LWPOLYLINE
  5
CD6
330
1F
100
AcDbEntity
  8
pusher_plate
100
AcDbPolyline
 90
        8
 70
     1
 43
0.0
 10
-42.5
 20
-20.41421356237313
 10
-42.5
 20
-37.58578643762692
 42
-1.00000000000004
 10
-43.91421356237311
 20
-39.00000000000003
 10
-61.08578643762689
 20
-39.00000000000003
 42
-0.9999999999999999
 10
-62.5
 20
-37.58578643762692
 10
-62.5
 20
-20.41421356237313
 42
-0.9999999999999999
 10
-61.08578643762689
 20
-19.00000000000003
 10
-43.91421356237311
 20
-19.00000000000003
 42
-1.00000000000004
  0
LWPOLYLINE
  5
CD7
330
1F
100
AcDbEntity
  8
pusher_plate
100
AcDbPolyline
 90
        8
 70
     1
 43
0.0
 10
-7.5
 20
-20.41421356237313
 10
-7.5
 20
-37.58578643762692
 42
-1.00000000000004
 10
-8.914213562373106
 20
-39.00000000000003
 10
-26.08578643762689
 20
-39.00000000000003
 42
-0.9999999999999999
 10
-27.5
 20
-37.58578643762692
 10
-27.5
 20
-20.41421356237313
 42
-0.9999999999999999
 10
-26.08578643762689
 20
-19.00000000000003
 10
-8.914213562373106
 20
-19.00000000000003
 42
-1.00000000000004
  0
LWPOLYLINE
  5
CD8
330
1F
100
AcDbEntity
  8
pusher_plate
100
AcDbPolyline
 90
        8
 70
     1
 43
0.0
 10
27.5
 20
-20.41421356237311
 10
27.5
 20
-37.58578643762689
 42
-1.00000000000004
 10
26.08578643762689
 20
-39.0
 10
8.914213562373106
 20
-39.0
 42
-0.9999999999999999
 10
7.5
 20
-37.58578643762689
 10
7.5
 20
-20.41421356237311
 42
-0.9999999999999999
 10
8.914213562373106
 20
-19.0
 10
26.08578643762689
 20
-19.0
 42
-1.00000000000004
  0
LWPOLYLINE
  5
CD9
330
1F
100
AcDbEntity
  8
pusher_plate
100
AcDbPolyline
 90
        8
 70
     1
 43
0.0
 10
62.5
 20
-20.41421356237311
 10
62.5
 20
-37.58578643762689
 42
-1.00000000000004
 10
61.08578643762689
 20
-39.0
 10
43.91421356237311
 20
-39.0
 42
-0.9999999999999999
 10
42.5
 20
-37.58578643762689
 10
42.5
 20
-20.41421356237311
 42
-0.9999999999999999
 10
43.91421356237311
 20
-19.0
 10
61.08578643762689
 20
-19.0
 42
-1.00000000000004
  0
LWPOLYLINE
  5
CDA
330
1F
100
AcDbEntity
  8
pusher_plate
100
AcDbPolyline
 90
        8
 70
     1
 43
0.0
 10
-42.5
 20
8.585786437626837
 10
-42.5
 20
-8.58578643762695
 42
-1.00000000000004
 10
-43.91421356237311
 20
-10.00000000000003
 10
-61.08578643762689
 20
-10.00000000000003
 42
-0.9999999999999999
 10
-62.5
 20
-8.58578643762695
 10
-62.5
 20
8.585786437626837
 42
-0.9999999999999999
 10
-61.08578643762689
 20
9.999999999999943
 10
-43.91421356237311
 20
9.999999999999943
 42
-1.00000000000004
  0
LWPOLYLINE
  5
CDB
330
1F
100
AcDbEntity
  8
pusher_plate
100
AcDbPolyline
 90
        8
 70
     1
 43
0.0
 10
-7.5
 20
8.585786437626894
 10
-7.5
 20
-8.585786437626894
 42
-1.00000000000004
 10
-8.914213562373106
 20
-10.00000000000003
 10
-26.08578643762689
 20
-10.00000000000003
 42
-0.9999999999999999
 10
-27.5
 20
-8.585786437626894
 10
-27.5
 20
8.585786437626894
 42
-0.9999999999999999
 10
-26.08578643762689
 20
10.0
 10
-8.914213562373106
 20
10.0
 42
-1.00000000000004
  0
LWPOLYLINE
  5
CDC
330
1F
100
AcDbEntity
  8
pusher_plate
100
AcDbPolyline
 90
        8
 70
     1
 43
0.0
 10
27.5
 20
8.585786437626894
 10
27.5
 20
-8.585786437626894
 42
-1.00000000000004
 10
26.08578643762689
 20
-10.0
 10
8.914213562373106
 20
-10.0
 42
-0.9999999999999999
 10
7.5
 20
-8.585786437626894
 10
7.5
 20
8.585786437626894
 42
-0.9999999999999999
 10
8.914213562373106
 20
10.0
 10
26.08578643762689
 20
10.0
 42
-1.00000000000004
  0
LWPOLYLINE
  5
CDD
330
1F
100
AcDbEntity
  8
pusher_plate
100
AcDbPolyline
 90
        8
 70
     1
 43
0.0
 10
62.5
 20
8.585786437626894
 10
62.5
 20
-8.585786437626894
 42
-1.00000000000004
 10
61.08578643762689
 20
-10.0
 10
43.91421356237311
 20
-10.0
 42
-0.9999999999999999
 10
42.5
 20
-8.585786437626894
 10
42.5
 20
8.585786437626894
 42
-0.9999999999999999
 10
43.91421356237311
 20
10.0
 10
61.08578643762689
 20
10.0
 42
-1.00000000000004
  0
LWPOLYLINE
  5
CDE
330
1F
100
AcDbEntity
  8
pusher_plate
100
AcDbPolyline
 90
        8
 70
     1
 43
0.0
 10
-42.50000000000003
 20
37.58578643762684
 10
-42.50000000000003
 20
20.41421356237305
 42
-1.00000000000004
 10
-43.91421356237313
 20
18.99999999999994
 10
-61.08578643762692
 20
18.99999999999994
 42
-0.9999999999999999
 10
-62.50000000000003
 20
20.41421356237305
 10
-62.50000000000003
 20
37.58578643762684
 42
-0.9999999999999999
 10
-61.08578643762692
 20
38.99999999999994
 10
-43.91421356237313
 20
38.99999999999994
 42
-1.00000000000004
  0
LWPOLYLINE
  5
CDF
330
1F
100
AcDbEntity
  8
pusher_plate
100
AcDbPolyline
 90
        8
 70
     1
 43
0.0
 10
-7.500000000000028
 20
37.58578643762689
 10
-7.500000000000028
 20
20.41421356237311
 42
-1.00000000000004
 10
-8.914213562373135
 20
19.0
 10
-26.08578643762692
 20
19.0
 42
-0.9999999999999999
 10
-27.50000000000003
 20
20.41421356237311
 10
-27.50000000000003
 20
37.58578643762689
 42
-0.9999999999999999
 10
-26.08578643762692
 20
39.0
 10
-8.914213562373135
 20
39.0
 42
-1.00000000000004
  0
LWPOLYLINE
  5
CE0
330
1F
100
AcDbEntity
  8
pusher_plate
100
AcDbPolyline
 90
        8
 70
     1
 43
0.0
 10
27.5
 20
37.58578643762689
 10
27.5
 20
20.41421356237311
 42
-1.00000000000004
 10
26.08578643762689
 20
19.0
 10
8.914213562373106
 20
19.0
 42
-0.9999999999999999
 10
7.5
 20
20.41421356237311
 10
7.5
 20
37.58578643762689
 42
-0.9999999999999999
 10
8.914213562373106
 20
39.0
 10
26.08578643762689
 20
39.0
 42
-1.00000000000004
  0
LWPOLYLINE
  5
CE1
330
1F
100
AcDbEntity
  8
pusher_plate
100
AcDbPolyline
 90
        8
 70
     1
 43
0.0
 10
62.5
 20
37.58578643762689
 10
62.5
 20
20.41421356237311
 42
-1.00000000000004
 10
61.08578643762689
 20
19.0
 10
43.91421356237311
 20
19.0
 42
-0.9999999999999999
 10
42.5
 20
20.41421356237311
 10
42.5
 20
37.58578643762689
 42
-0.9999999999999999
 10
43.91421356237311
 20
39.0
 10
61.08578643762689
 20
39.0
 42
-1.00000000000004
  0
LWPOLYLINE
  5
CE2
330
1F
100
AcDbEntity
  8
pusher_plate
100
AcDbPolyline
 90
        8
 70
     1
 43
0.0
 10
-42.50000000000003
 20
66.58578643762684
 10
-42.50000000000003
 20
49.41421356237305
 42
-1.00000000000004
 10
-43.91421356237313
 20
47.99999999999994
 10
-61.08578643762692
 20
47.99999999999994
 42
-0.9999999999999999
 10
-62.50000000000003
 20
49.41421356237305
 10
-62.50000000000003
 20
66.58578643762684
 42
-0.9999999999999999
 10
-61.08578643762692
 20
67.99999999999994
 10
-43.91421356237313
 20
67.99999999999994
 42
-1.00000000000004
  0
LWPOLYLINE
  5
CE3
330
1F
100
AcDbEntity
  8
pusher_plate
100
AcDbPolyline
 90
        8
 70
     1
 43
0.0
 10
-7.500000000000028
 20
66.5857864376269
 10
-7.500000000000028
 20
49.41421356237311
 42
-1.00000000000004
 10
-8.914213562373135
 20
48.0
 10
-26.08578643762692
 20
48.0
 42
-0.9999999999999999
 10
-27.50000000000003
 20
49.41421356237311
 10
-27.50000000000003
 20
66.5857864376269
 42
-0.9999999999999999
 10
-26.08578643762692
 20
68.0
 10
-8.914213562373135
 20
68.0
 42
-1.00000000000004
  0
LWPOLYLINE
  5
CE4
330
1F
100
AcDbEntity
  8
pusher_plate
100
AcDbPolyline
 90
        8
 70
     1
 43
0.0
 10
27.49999999999997
 20
66.5857864376269
 10
27.49999999999997
 20
49.41421356237311
 42
-1.00000000000004
 10
26.08578643762687
 20
48.0
 10
8.914213562373078
 20
48.0
 42
-0.9999999999999999
 10
7.499999999999972
 20
49.41421356237311
 10
7.499999999999972
 20
66.5857864376269
 42
-0.9999999999999999
 10
8.914213562373078
 20
68.0
 10
26.08578643762687
 20
68.0
 42
-1.00000000000004
  0
LWPOLYLINE
  5
CE5
330
1F
100
AcDbEntity
  8
pusher_plate
100
AcDbPolyline
 90
        8
 70
     1
 43
0.0
 10
62.49999999999994
 20
66.5857864376269
 10
62.49999999999994
 20
49.41421356237311
 42
-1.00000000000004
 10
61.08578643762687
 20
48.0
 10
43.91421356237308
 20
48.0
 42
-0.9999999999999999
 10
42.49999999999997
 20
49.41421356237311
 10
42.49999999999997
 20
66.5857864376269
 42
-0.9999999999999999
 10
43.91421356237308
 20
68.0
 10
61.08578643762687
 20
68.0
 42
-1.00000000000004
  0
LWPOLYLINE
  5
CE6
330
1F
100
AcDbEntity
  8
slot_plate
100
AcDbPolyline
 90
       12
 70
     1
 43
0.0
 10
-4.822999999999979
 20
-46.73721356237309
 10
-4.822999999999979
 20
-54.53589838486226
 42
-0.5773502691896258
 10
-4.822999999999979
 20
-61.46410161513779
 10
-4.822999999999979
 20
-69.26278643762697
 42
-1.000000000000035
 10
-6.237213562373142
 20
-70.67700000000002
 10
-28.76278643762697
 20
-70.67700000000002
 42
-0.9999999999999974
 10
-30.17700000000002
 20
-69.26278643762691
 10
-30.17700000000002
 20
-61.46410161513779
 42
-0.5773502691896257
 10
-30.17700000000002
 20
-54.53589838486226
 10
-30.17700000000002
 20
-46.73721356237314
 42
-1.000000000000038
 10
-28.76278643762703
 20
-45.32299999999998
 10
-6.237213562373086
 20
-45.32299999999998
 42
-0.999999999999995
  0
LWPOLYLINE
  5
CE7
330
1F
100
AcDbEntity
  8
slot_plate
100
AcDbPolyline
 90
       12
 70
     1
 43
0.0
 10
30.17700000000002
 20
-46.73721356237309
 10
30.17700000000002
 20
-54.53589838486226
 42
-0.5773502691896258
 10
30.17700000000002
 20
-61.46410161513779
 10
30.17700000000002
 20
-69.26278643762697
 42
-1.000000000000035
 10
28.76278643762686
 20
-70.67700000000002
 10
6.237213562373029
 20
-70.67700000000002
 42
-0.9999999999999974
 10
4.822999999999979
 20
-69.26278643762691
 10
4.822999999999979
 20
-61.46410161513779
 42
-0.5773502691896257
 10
4.822999999999979
 20
-54.53589838486226
 10
4.822999999999979
 20
-46.73721356237314
 42
-1.000000000000038
 10
6.237213562372972
 20
-45.32299999999998
 10
28.76278643762691
 20
-45.32299999999998
 42
-0.999999999999995
  0
LWPOLYLINE
  5
CE8
330
1F
100
AcDbEntity
  8
slot_plate
100
AcDbPolyline
 90
       12
 70
     1
 43
0.0
 10
65.17700000000002
 20
-46.73721356237309
 10
65.17700000000002
 20
-54.53589838486226
 42
-0.5773502691896258
 10
65.17700000000002
 20
-61.46410161513779
 10
65.17700000000002
 20
-69.26278643762697
 42
-1.000000000000035
 10
63.76278643762686
 20
-70.67700000000002
 10
41.23721356237303
 20
-70.67700000000002
 42
-0.9999999999999974
 10
39.82299999999998
 20
-69.26278643762691
 10
39.82299999999998
 20
-61.46410161513779
 42
-0.5773502691896257
 10
39.82299999999998
 20
-54.53589838486226
 10
39.82299999999998
 20
-46.73721356237314
 42
-1.000000000000038
 10
41.23721356237297
 20
-45.32299999999998
 10
63.76278643762691
 20
-45.32299999999998
 42
-0.999999999999995
  0
LWPOLYLINE
  5
CE9
330
1F
100
AcDbEntity
  8
slot_plate
100
AcDbPolyline
 90
       12
 70
     1
 43
0.0
 10
-39.82299999999998
 20
-17.73721356237309
 10
-39.82299999999998
 20
-25.53589838486226
 42
-0.5773502691896258
 10
-39.82299999999998
 20
-32.46410161513779
 10
-39.82299999999998
 20
-40.26278643762697
 42
-1.000000000000035
 10
-41.23721356237314
 20
-41.67700000000002
 10
-63.76278643762697
 20
-41.67700000000002
 42
-0.9999999999999974
 10
-65.17700000000002
 20
-40.26278643762691
 10
-65.17700000000002
 20
-32.46410161513779
 42
-0.5773502691896257
 10
-65.17700000000002
 20
-25.53589838486226
 10
-65.17700000000002
 20
-17.73721356237314
 42
-1.000000000000038
 10
-63.76278643762703
 20
-16.32299999999998
 10
-41.23721356237309
 20
-16.32299999999998
 42
-0.999999999999995
  0
LWPOLYLINE
  5
CEA
330
1F
100
AcDbEntity
  8
slot_plate
100
AcDbPolyline
 90
       12
 70
     1
 43
0.0
 10
-4.822999999999979
 20
-17.73721356237309
 10
-4.822999999999979
 20
-25.53589838486226
 42
-0.5773502691896258
 10
-4.822999999999979
 20
-32.46410161513779
 10
-4.822999999999979
 20
-40.26278643762697
 42
-1.000000000000035
 10
-6.237213562373142
 20
-41.67700000000002
 10
-28.76278643762697
 20
-41.67700000000002
 42
-0.9999999999999974
 10
-30.17700000000002
 20
-40.26278643762691
 10
-30.17700000000002
 20
-32.46410161513779
 42
-0.5773502691896257
 10
-30.17700000000002
 20
-25.53589838486226
 10
-30.17700000000002
 20
-17.73721356237314
 42
-1.000000000000038
 10
-28.76278643762703
 20
-16.32299999999998
 10
-6.237213562373086
 20
-16.32299999999998
 42
-0.999999999999995
  0
LWPOLYLINE
  5
CEB
330
1F
100
AcDbEntity
  8
slot_plate
100
AcDbPolyline
 90
       12
 70
     1
 43
0.0
 10
30.17700000000002
 20
-17.73721356237309
 10
30.17700000000002
 20
-25.53589838486226
 42
-0.5773502691896258
 10
30.17700000000002
 20
-32.46410161513779
 10
30.17700000000002
 20
-40.26278643762697
 42
-1.000000000000035
 10
28.76278643762686
 20
-41.67700000000002
 10
6.237213562373029
 20
-41.67700000000002
 42
-0.9999999999999974
 10
4.822999999999979
 20
-40.26278643762691
 10
4.822999999999979
 20
-32.46410161513779
 42
-0.5773502691896257
 10
4.822999999999979
 20
-25.53589838486226
 10
4.822999999999979
 20
-17.73721356237314
 42
-1.000000000000038
 10
6.237213562372972
 20
-16.32299999999998
 10
28.76278643762691
 20
-16.32299999999998
 42
-0.999999999999995
  0
LWPOLYLINE
  5
CEC
330
1F
100
AcDbEntity
  8
slot_plate
100
AcDbPolyline
 90
       12
 70
     1
 43
0.0
 10
65.17700000000002
 20
-17.73721356237309
 10
65.17700000000002
 20
-25.53589838486226
 42
-0.5773502691896258
 10
65.17700000000002
 20
-32.46410161513779
 10
65.17700000000002
 20
-40.26278643762697
 42
-1.000000000000035
 10
63.76278643762686
 20
-41.67700000000002
 10
41.23721356237303
 20
-41.67700000000002
 42
-0.9999999999999974
 10
39.82299999999998
 20
-40.26278643762691
 10
39.82299999999998
 20
-32.46410161513779
 42
-0.5773502691896257
 10
39.82299999999998
 20
-25.53589838486226
 10
39.82299999999998
 20
-17.73721356237314
 42
-1.000000000000038
 10
41.23721356237297
 20
-16.32299999999998
 10
63.76278643762691
 20
-16.32299999999998
 42
-0.999999999999995
  0
LWPOLYLINE
  5
CED
330
1F
100
AcDbEntity
  8
slot_plate
100
AcDbPolyline
 90
       12
 70
     1
 43
0.0
 10
-39.82299999999998
 20
11.26278643762691
 10
-39.82299999999998
 20
3.464101615137736
 42
-0.5773502691896258
 10
-39.82299999999998
 20
-3.464101615137793
 10
-39.82299999999998
 20
-11.26278643762697
 42
-1.000000000000035
 10
-41.23721356237314
 20
-12.67700000000002
 10
-63.76278643762697
 20
-12.67700000000002
 42
-0.9999999999999974
 10
-65.17700000000002
 20
-11.26278643762691
 10
-65.17700000000002
 20
-3.464101615137793
 42
-0.5773502691896257
 10
-65.17700000000002
 20
3.464101615137736
 10
-65.17700000000002
 20
11.26278643762686
 42
-1.000000000000038
 10
-63.76278643762703
 20
12.67700000000002
 10
-41.23721356237309
 20
12.67700000000002
 42
-0.999999999999995
  0
LWPOLYLINE
  5
CEE
330
1F
100
AcDbEntity
  8
slot_plate
100
AcDbPolyline
 90
       12
 70
     1
 43
0.0
 10
-4.822999999999979
 20
11.26278643762691
 10
-4.822999999999979
 20
3.464101615137736
 42
-0.5773502691896258
 10
-4.822999999999979
 20
-3.464101615137793
 10
-4.822999999999979
 20
-11.26278643762697
 42
-1.000000000000035
 10
-6.237213562373142
 20
-12.67700000000002
 10
-28.76278643762697
 20
-12.67700000000002
 42
-0.9999999999999974
 10
-30.17700000000002
 20
-11.26278643762691
 10
-30.17700000000002
 20
-3.464101615137793
 42
-0.5773502691896257
 10
-30.17700000000002
 20
3.464101615137736
 10
-30.17700000000002
 20
11.26278643762686
 42
-1.000000000000038
 10
-28.76278643762703
 20
12.67700000000002
 10
-6.237213562373086
 20
12.67700000000002
 42
-0.999999999999995
  0
LWPOLYLINE
  5
CEF
330
1F
100
AcDbEntity
  8
slot_plate
100
AcDbPolyline
 90
       12
 70
     1
 43
0.0
 10
30.17700000000002
 20
11.26278643762691
 10
30.17700000000002
 20
3.464101615137736
 42
-0.5773502691896258
 10
30.17700000000002
 20
-3.464101615137793
 10
30.17700000000002
 20
-11.26278643762697
 42
-1.000000000000035
 10
28.76278643762686
 20
-12.67700000000002
 10
6.237213562373029
 20
-12.67700000000002
 42
-0.9999999999999974
 10
4.822999999999979
 20
-11.26278643762691
 10
4.822999999999979
 20
-3.464101615137793
 42
-0.5773502691896257
 10
4.822999999999979
 20
3.464101615137736
 10
4.822999999999979
 20
11.26278643762686
 42
-1.000000000000038
 10
6.237213562372972
 20
12.67700000000002
 10
28.76278643762691
 20
12.67700000000002
 42
-0.999999999999995
  0
LWPOLYLINE
  5
CF0
330
1F
100
AcDbEntity
  8
slot_plate
100
AcDbPolyline
 90
       12
 70
     1
 43
0.0
 10
65.17700000000002
 20
11.26278643762691
 10
65.17700000000002
 20
3.464101615137793
 42
-0.5773502691896258
 10
65.17700000000002
 20
-3.464101615137793
 10
65.17700000000002
 20
-11.26278643762691
 42
-1.000000000000035
 10
63.76278643762686
 20
-12.67700000000002
 10
41.23721356237303
 20
-12.67700000000002
 42
-0.9999999999999974
 10
39.82299999999998
 20
-11.26278643762691
 10
39.82299999999998
 20
-3.464101615137793
 42
-0.5773502691896257
 10
39.82299999999998
 20
3.464101615137793
 10
39.82299999999998
 20
11.26278643762691
 42
-1.000000000000038
 10
41.23721356237297
 20
12.67700000000002
 10
63.76278643762691
 20
12.67700000000002
 42
-0.999999999999995
  0
LWPOLYLINE
  5
CF1
330
1F
100
AcDbEntity
  8
slot_plate
100
AcDbPolyline
 90
       12
 70
     1
 43
0.0
 10
-39.82299999999998
 20
40.26278643762691
 10
-39.82299999999998
 20
32.46410161513774
 42
-0.5773502691896258
 10
-39.82299999999998
 20
25.53589838486221
 10
-39.82299999999998
 20
17.73721356237303
 42
-1.000000000000035
 10
-41.23721356237314
 20
16.32299999999998
 10
-63.76278643762697
 20
16.32299999999998
 42
-0.9999999999999974
 10
-65.17700000000002
 20
17.73721356237309
 10
-65.17700000000002
 20
25.53589838486221
 42
-0.5773502691896257
 10
-65.17700000000002
 20
32.46410161513774
 10
-65.17700000000002
 20
40.26278643762686
 42
-1.000000000000038
 10
-63.76278643762703
 20
41.67700000000002
 10
-41.23721356237309
 20
41.67700000000002
 42
-0.999999999999995
  0
LWPOLYLINE
  5
CF2
330
1F
100
AcDbEntity
  8
slot_plate
100
AcDbPolyline
 90
       12
 70
     1
 43
0.0
 10
-4.822999999999979
 20
40.26278643762691
 10
-4.822999999999979
 20
32.46410161513774
 42
-0.5773502691896258
 10
-4.822999999999979
 20
25.53589838486221
 10
-4.822999999999979
 20
17.73721356237303
 42
-1.000000000000035
 10
-6.237213562373142
 20
16.32299999999998
 10
-28.76278643762697
 20
16.32299999999998
 42
-0.9999999999999974
 10
-30.17700000000002
 20
17.73721356237309
 10
-30.17700000000002
 20
25.53589838486221
 42
-0.5773502691896257
 10
-30.17700000000002
 20
32.46410161513774
 10
-30.17700000000002
 20
40.26278643762686
 42
-1.000000000000038
 10
-28.76278643762703
 20
41.67700000000002
 10
-6.237213562373086
 20
41.67700000000002
 42
-0.999999999999995
  0
LWPOLYLINE
  5
CF3
330
1F
100
AcDbEntity
  8
slot_plate
100
AcDbPolyline
 90
       12
 70
     1
 43
0.0
 10
30.17700000000002
 20
40.26278643762691
 10
30.17700000000002
 20
32.46410161513774
 42
-0.5773502691896258
 10
30.17700000000002
 20
25.53589838486221
 10
30.17700000000002
 20
17.73721356237303
 42
-1.000000000000035
 10
28.76278643762686
 20
16.32299999999998
 10
6.237213562373029
 20
16.32299999999998
 42
-0.9999999999999974
 10
4.822999999999979
 20
17.73721356237309
 10
4.822999999999979
 20
25.53589838486221
 42
-0.5773502691896257
 10
4.822999999999979
 20
32.46410161513774
 10
4.822999999999979
 20
40.26278643762686
 42
-1.000000000000038
 10
6.237213562372972
 20
41.67700000000002
 10
28.76278643762691
 20
41.67700000000002
 42
-0.999999999999995
  0
LWPOLYLINE
  5
CF4
330
1F
100
AcDbEntity
  8
slot_plate
100
AcDbPolyline
 90
       12
 70
     1
 43
0.0
 10
65.17700000000002
 20
40.26278643762691
 10
65.17700000000002
 20
32.46410161513779
 42
-0.5773502691896258
 10
65.17700000000002
 20
25.53589838486221
 10
65.17700000000002
 20
17.73721356237309
 42
-1.000000000000035
 10
63.76278643762686
 20
16.32299999999998
 10
41.23721356237303
 20
16.32299999999998
 42
-0.9999999999999974
 10
39.82299999999998
 20
17.73721356237309
 10
39.82299999999998
 20
25.53589838486221
 42
-0.5773502691896257
 10
39.82299999999998
 20
32.46410161513779
 10
39.82299999999998
 20
40.26278643762691
 42
-1.000000000000038
 10
41.23721356237297
 20
41.67700000000002
 10
63.76278643762691
 20
41.67700000000002
 42
-0.999999999999995
  0
LWPOLYLINE
  5
CF5
330
1F
100
AcDbEntity
  8
slot_plate
100
AcDbPolyline
 90
       12
 70
     1
 43
0.0
 10
-39.82299999999998
 20
69.26278643762691
 10
-39.82299999999998
 20
61.46410161513774
 42
-0.5773502691896258
 10
-39.82299999999998
 20
54.53589838486221
 10
-39.82299999999998
 20
46.73721356237303
 42
-1.000000000000035
 10
-41.23721356237314
 20
45.32299999999998
 10
-63.76278643762697
 20
45.32299999999998
 42
-0.9999999999999974
 10
-65.17700000000002
 20
46.73721356237309
 10
-65.17700000000002
 20
54.53589838486221
 42
-0.5773502691896257
 10
-65.17700000000002
 20
61.46410161513774
 10
-65.17700000000002
 20
69.26278643762686
 42
-1.000000000000038
 10
-63.76278643762703
 20
70.67700000000002
 10
-41.23721356237309
 20
70.67700000000002
 42
-0.999999999999995
  0
LWPOLYLINE
  5
CF6
330
1F
100
AcDbEntity
  8
slot_plate
100
AcDbPolyline
 90
       12
 70
     1
 43
0.0
 10
-4.822999999999979
 20
69.26278643762691
 10
-4.822999999999979
 20
61.46410161513774
 42
-0.5773502691896258
 10
-4.822999999999979
 20
54.53589838486221
 10
-4.822999999999979
 20
46.73721356237303
 42
-1.000000000000035
 10
-6.237213562373199
 20
45.32299999999998
 10
-28.76278643762703
 20
45.32299999999998
 42
-0.9999999999999974
 10
-30.17700000000002
 20
46.73721356237309
 10
-30.17700000000002
 20
54.53589838486221
 42
-0.5773502691896257
 10
-30.17700000000002
 20
61.46410161513774
 10
-30.17700000000002
 20
69.26278643762686
 42
-1.000000000000038
 10
-28.76278643762703
 20
70.67700000000002
 10
-6.237213562373086
 20
70.67700000000002
 42
-0.999999999999995
  0
LWPOLYLINE
  5
CF7
330
1F
100
AcDbEntity
  8
slot_plate
100
AcDbPolyline
 90
       12
 70
     1
 43
0.0
 10
30.17700000000002
 20
69.26278643762691
 10
30.17700000000002
 20
61.46410161513774
 42
-0.5773502691896258
 10
30.17700000000002
 20
54.53589838486221
 10
30.17700000000002
 20
46.73721356237303
 42
-1.000000000000035
 10
28.7627864376268
 20
45.32299999999998
 10
6.237213562372972
 20
45.32299999999998
 42
-0.9999999999999974
 10
4.822999999999979
 20
46.73721356237309
 10
4.822999999999979
 20
54.53589838486221
 42
-0.5773502691896257
 10
4.822999999999979
 20
61.46410161513774
 10
4.822999999999979
 20
69.26278643762686
 42
-1.000000000000038
 10
6.237213562372972
 20
70.67700000000002
 10
28.76278643762691
 20
70.67700000000002
 42
-0.999999999999995
  0
LWPOLYLINE
  5
CF8
330
1F
100
AcDbEntity
  8
slot_plate
100
AcDbPolyline
 90
       12
 70
     1
 43
0.0
 10
65.17699999999999
 20
69.26278643762691
 10
65.17699999999999
 20
61.46410161513779
 42
-0.5773502691896258
 10
65.17699999999999
 20
54.53589838486221
 10
65.17699999999999
 20
46.73721356237309
 42
-1.000000000000035
 10
63.76278643762683
 20
45.32299999999998
 10
41.237213562373
 20
45.32299999999998
 42
-0.9999999999999974
 10
39.82299999999995
 20
46.73721356237309
 10
39.82299999999995
 20
54.53589838486221
 42
-0.5773502691896257
 10
39.82299999999995
 20
61.46410161513779
 10
39.82299999999995
 20
69.26278643762691
 42
-1.000000000000038
 10
41.23721356237294
 20
70.67700000000002
 10
63.76278643762689
 20
70.67700000000002
 42
-0.999999999999995
  0
LWPOLYLINE
  5
D35
330
1F
100
AcDbEntity
  8
pusher_plate
100
AcDbPolyline
 90
        8
 70
     1
 43
0.0
 10
-100.0
 20
-98.0
 10
-100.0
 20
98.0
 42
-0.414213562373095
 10
-98.0
 20
100.0
 10
98.0
 20
100.0
 42
-0.414213562373095
 10
100.0
 20
98.0
 10
100.0
 20
-98.0
 42
-0.414213562373095
 10
98.0
 20
-100.0
 10
-98.0
 20
-100.0
 42
-0.414213562373095
  0
LWPOLYLINE
  5
D57
330
1F
100
AcDbEntity
  8
pusher_plate
100
AcDbPolyline
 90
        8
 70
     1
 43
0.0
 10
-89.49999999999997
 20
-54.0
 10
-89.49999999999997
 20
54.0
 42
-0.414213562373095
 10
-87.49999999999997
 20
56.0
 10
-76.5
 20
56.0
 42
-0.414213562373095
 10
-74.5
 20
54.0
 10
-74.5
 20
-54.0
 42
-0.414213562373095
 10
-76.5
 20
-56.0
 10
-87.49999999999997
 20
-56.0
 42
-0.414213562373095
  0
LWPOLYLINE
  5
D88
330
1F
100
AcDbEntity
  8
spacer_pcb
100
AcDbPolyline
 90
        8
 70
     1
 43
0.0
 10
-100.0
 20
-98.99999999999999
 10
-100.0
 20
98.99999999999999
 42
-0.414213562373095
 10
-99.0
 20
100.0
 10
99.0
 20
100.0
 42
-0.414213562373095
 10
100.0
 20
98.99999999999999
 10
100.0
 20
-98.99999999999999
 42
-0.414213562373095
 10
99.0
 20
-100.0
 10
-99.0
 20
-100.0
 42
-0.414213562373095
  0
LWPOLYLINE
  5
D93
330
1F
100
AcDbEntity
  8
cu_base
100
AcDbPolyline
 90
        8
 70
     1
 43
0.0
 10
-100.0
 20
-98.99999999999997
 10
-100.0
 20
99.0
 42
-0.414213562373095
 10
-99.0
 20
100.0
 10
99.00000000000003
 20
100.0
 42
-0.414213562373095
 10
100.0
 20
99.0
 10
100.0
 20
-98.99999999999997
 42
-0.414213562373095
 10
99.00000000000003
 20
-99.99999999999997
 10
-99.0
 20
-99.99999999999997
 42
-0.414213562373095
  0
ENDSEC
  0
SECTION
  2
OBJECTS
  0
DICTIONARY
  5
C
330
0
100
AcDbDictionary
281
     1
  3
ACAD_COLOR
350
73
  3
ACAD_DETAILVIEWSTYLE
350
122
  3
ACAD_GROUP
350
D
  3
ACAD_IMAGE_VARS
350
DC
  3
ACAD_LAYOUT
350
1A
  3
ACAD_MATERIAL
350
72
  3
ACAD_MLEADERSTYLE
350
B5
  3
ACAD_MLINESTYLE
350
17
  3
ACAD_PLOTSETTINGS
350
19
  3
ACAD_PLOTSTYLENAME
350
E
  3
ACAD_SCALELIST
350
B6
  3
ACAD_SECTIONVIEWSTYLE
350
123
  3
ACAD_TABLESTYLE
350
86
  3
ACAD_VISUALSTYLE
350
99
  3
ACDB_RECOMPOSE_DATA
350
DAF
  3
AcDbVariableDictionary
350
66
  3
APPDATA
350
E1
  0
SUN
  5
ED
330
94
100
AcDbSun
 90
        1
290
     0
 63
     7
421
 16777215
 40
1.0
291
     1
 91
  2455826
 92
 54000000
292
     0
 70
     2
 71
   256
280
     1
  0
DICTIONARY
  5
18C
330
2
100
AcDbDictionary
280
     1
281
     1
  3
ACAD_LAYERSTATES
360
18D
  3
ACLYDICTIONARY
360
D96
  0
DICTIONARY
  5
73
102
{ACAD_REACTORS
330
C
102
}
330
C
100
AcDbDictionary
281
     1
  0
DICTIONARY
  5
122
102
{ACAD_REACTORS
330
C
102
}
330
C
100
AcDbDictionary
281
     1
  0
DICTIONARY
  5
D
102
{ACAD_REACTORS
330
C
102
}
330
C
100
AcDbDictionary
281
     1
  0
RASTERVARIABLES
  5
DC
102
{ACAD_REACTORS
330
C
102
}
330
C
100
AcDbRasterVariables
 90
        0
 70
     1
 71
     1
 72
     5
  0
DICTIONARY
  5
1A
102
{ACAD_REACTORS
330
C
102
}
330
C
100
AcDbDictionary
281
     1
  3
Model
350
22
  3
Sheet1
350
59
  3
Sheet2
350
5E
  0
DICTIONARY
  5
72
102
{ACAD_REACTORS
330
C
102
}
330
C
100
AcDbDictionary
281
     1
  3
ByBlock
350
E2
  3
ByLayer
350
96
  3
Global
350
98
  0
DICTIONARY
  5
B5
102
{ACAD_REACTORS
330
C
102
}
330
C
100
AcDbDictionary
281
     1
  3
Annotative
350
129
  3
Standard
350
124
  0
DICTIONARY
  5
17
102
{ACAD_REACTORS
330
C
102
}
330
C
100
AcDbDictionary
281
     1
  3
Standard
350
18
  0
DICTIONARY
  5
19
102
{ACAD_REACTORS
330
C
102
}
330
C
100
AcDbDictionary
281
     1
  0
ACDBDICTIONARYWDFLT
  5
E
102
{ACAD_REACTORS
330
C
102
}
330
C
100
AcDbDictionary
281
     1
  3
Normal
350
F
100
AcDbDictionaryWithDefault
340
F
  0
DICTIONARY
  5
B6
102
{ACAD_REACTORS
330
C
102
}
330
C
100
AcDbDictionary
281
     1
  3
A0
350
B7
  3
A1
350
B8
  3
A2
350
B9
  3
A3
350
BA
  3
A4
350
BB
  3
A5
350
BC
  3
A6
350
BD
  3
A7
350
BE
  3
A8
350
BF
  3
A9
350
C0
  3
B0
350
C1
  3
B1
350
C2
  3
B2
350
C3
  3
B3
350
C4
  3
B4
350
C5
  3
B5
350
C6
  3
B6
350
C7
  3
B7
350
C8
  3
B8
350
C9
  3
B9
350
CA
  3
C0
350
CB
  3
C1
350
CC
  3
C2
350
CD
  3
C3
350
CE
  3
C4
350
CF
  3
C5
350
D0
  3
C6
350
D1
  3
C7
350
D2
  3
C8
350
D3
  3
C9
350
D4
  3
D0
350
D5
  3
D1
350
D6
  3
D2
350
D7
  0
DICTIONARY
  5
123
102
{ACAD_REACTORS
330
C
102
}
330
C
100
AcDbDictionary
281
     1
  0
DICTIONARY
  5
86
102
{ACAD_REACTORS
330
C
102
}
330
C
100
AcDbDictionary
281
     1
  3
Standard
350
87
  0
DICTIONARY
  5
99
102
{ACAD_REACTORS
330
C
102
}
330
C
100
AcDbDictionary
281
     1
  3
2dWireframe
350
9F
  3
3D Hidden
350
A1
  3
3dWireframe
350
A0
  3
Basic
350
9E
  3
Brighten
350
A5
  3
ColorChange
350
A9
  3
Conceptual
350
A2
  3
Dim
350
A4
  3
EdgeColorOff
350
E7
  3
Facepattern
350
A8
  3
Flat
350
9A
  3
FlatWithEdges
350
9B
  3
Gouraud
350
9C
  3
GouraudWithEdges
350
9D
  3
Hidden
350
E4
  3
JitterOff
350
E5
  3
Linepattern
350
A7
  3
OverhangOff
350
E6
  3
Realistic
350
A3
  3
Shaded
350
EC
  3
Shaded with edges
350
EB
  3
Shades of Gray
350
E8
  3
Sketchy
350
E9
  3
Thicken
350
A6
  3
Wireframe
350
E3
  3
X-Ray
350
EA
  0
XRECORD
  5
DAF
102
{ACAD_REACTORS
330
C
102
}
330
C
100
AcDbXrecord
280
     1
 90
        1
330
87
  0
DICTIONARY
  5
66
102
{ACAD_REACTORS
330
C
102
}
330
C
100
AcDbDictionary
281
     1
  3
CANNOSCALE
350
D8
  3
CMLEADERSTYLE
350
128
  3
CTABLESTYLE
350
89
  3
DIMASSOC
350
67
  3
HIDETEXT
350
6B
  3
LIGHTSINBLOCKS
350
DF
  3
XCLIPFRAME
350
E0
  0
DICTIONARY
  5
E1
102
{ACAD_REACTORS
330
C
102
}
330
C
100
AcDbDictionary
281
     1
  0
DICTIONARY
  5
18D
102
{ACAD_REACTORS
330
18C
102
}
330
18C
100
AcDbDictionary
281
     1
  0
DICTIONARY
  5
D96
102
{ACAD_REACTORS
330
18C
102
}
330
18C
100
AcDbDictionary
281
     1
1001
ACAD
1000
<All
  0
LAYOUT
  5
22
102
{ACAD_REACTORS
330
1A
102
}
330
1A
100
AcDbPlotSettings
  1

  2
none_device
  4
ANSI_A_(8.50_x_11.00_Inches)
  6

 40
6.35
 41
19.05
 42
6.35
 43
19.05
 44
215.9
 45
279.4
 46
11.11250000000003
 47
0.0000000000000142
 48
0.0
 49
0.0
140
0.0
141
0.0
142
1.0
143
1.263157894736842
 70
 11444
 72
     0
 73
     1
 74
     1
  7
monochrome.ctb
 75
     0
 76
     0
 77
     2
 78
   300
147
0.7916666666666665
148
-702.8076765758875
149
-496.2830551296954
100
AcDbLayout
  1
Model
 70
     1
 71
     0
 10
0.0
 20
0.0
 11
12.0
 21
9.0
 12
0.0
 22
0.0
 32
0.0
 14
-100.0
 24
-100.0
 34
0.0
 15
100.0000000000001
 25
100.0
 35
0.0
146
0.0
 13
0.0
 23
0.0
 33
0.0
 16
1.0
 26
0.0
 36
0.0
 17
0.0
 27
1.0
 37
0.0
 76
     0
330
1F
331
94
  0
LAYOUT
  5
59
102
{ACAD_REACTORS
330
1A
102
}
330
1A
100
AcDbPlotSettings
  1

  2
None
  4

  6

 40
0.0
 41
0.0
 42
0.0
 43
0.0
 44
0.0
 45
0.0
 46
0.0
 47
0.0
 48
0.0
 49
0.0
140
0.0
141
0.0
142
1.0
143
1.0
 70
   688
 72
     0
 73
     0
 74
     5
  7

 75
    16
 76
     0
 77
     2
 78
   300
147
1.0
148
0.0
149
0.0
100
AcDbLayout
  1
Sheet1
 70
     1
 71
     1
 10
0.0
 20
0.0
 11
12.0
 21
9.0
 12
0.0
 22
0.0
 32
0.0
 14
0.0
 24
0.0
 34
0.0
 15
0.0
 25
0.0
 35
0.0
146
0.0
 13
0.0
 23
0.0
 33
0.0
 16
1.0
 26
0.0
 36
0.0
 17
0.0
 27
1.0
 37
0.0
 76
     0
330
58
  0
LAYOUT
  5
5E
102
{ACAD_REACTORS
330
1A
102
}
330
1A
100
AcDbPlotSettings
  1

  2
None
  4

  6

 40
0.0
 41
0.0
 42
0.0
 43
0.0
 44
0.0
 45
0.0
 46
0.0
 47
0.0
 48
0.0
 49
0.0
140
0.0
141
0.0
142
1.0
143
1.0
 70
   688
 72
     0
 73
     0
 74
     5
  7

 75
    16
 76
     0
 77
     2
 78
   300
147
1.0
148
0.0
149
0.0
100
AcDbLayout
  1
Sheet2
 70
     1
 71
     2
 10
0.0
 20
0.0
 11
12.0
 21
9.0
 12
0.0
 22
0.0
 32
0.0
 14
0.0
 24
0.0
 34
0.0
 15
0.0
 25
0.0
 35
0.0
146
0.0
 13
0.0
 23
0.0
 33
0.0
 16
1.0
 26
0.0
 36
0.0
 17
0.0
 27
1.0
 37
0.0
 76
     0
330
5D
  0
MATERIAL
  5
E2
102
{ACAD_REACTORS
330
72
102
}
330
72
100
AcDbMaterial
  1
ByBlock
 72
     1
 94
      127
  0
MATERIAL
  5
96
102
{ACAD_REACTORS
330
72
102
}
330
72
100
AcDbMaterial
  1
ByLayer
 72
     1
 94
       63
  0
MATERIAL
  5
98
102
{ACAD_REACTORS
330
72
102
}
330
72
100
AcDbMaterial
  1
Global
 72
     1
 94
       63
  0
MLEADERSTYLE
  5
129
102
{ACAD_REACTORS
330
B5
102
}
330
B5
100
AcDbMLeaderStyle
179
     2
170
     2
171
     1
172
     0
 90
        2
 40
0.0
 41
0.0
173
     1
 91
-1056964608
340
14
 92
       -2
290
     1
 42
0.09
291
     1
 43
0.36
  3
Annotative
341
0
 44
0.18
300

342
11
174
     1
178
     1
175
     1
176
     0
 93
-1056964608
 45
0.18
292
     0
297
     0
 46
0.18
343
0
 94
-1056964608
 47
1.0
 49
1.0
140
1.0
293
     1
141
0.0
294
     1
177
     0
142
1.0
295
     0
296
     1
143
0.125
271
     0
272
     9
273
     9
298
     0
  0
MLEADERSTYLE
  5
124
102
{ACAD_REACTORS
330
B5
102
}
330
B5
100
AcDbMLeaderStyle
179
     2
170
     2
171
     1
172
     0
 90
        2
 40
0.0
 41
0.0
173
     1
 91
-1056964608
340
14
 92
       -2
290
     1
 42
0.09
291
     1
 43
0.36
  3
Standard
341
0
 44
0.18
300

342
11
174
     1
178
     6
175
     1
176
     0
 93
-1056964608
 45
0.18
292
     0
297
     0
 46
0.18
343
0
 94
-1056964608
 47
1.0
 49
1.0
140
1.0
293
     1
141
0.0
294
     1
177
     0
142
1.0
295
     0
296
     0
143
0.125
271
     0
272
     9
273
     9
298
     0
  0
MLINESTYLE
  5
18
102
{ACAD_REACTORS
330
17
102
}
330
17
100
AcDbMlineStyle
  2
STANDARD
 70
     0
  3

 62
   256
 51
90.0
 52
90.0
 71
     2
 49
0.5
 62
   256
  6
BYLAYER
 49
-0.5
 62
   256
  6
BYLAYER
  0
ACDBPLACEHOLDER
  5
F
102
{ACAD_REACTORS
330
E
102
}
330
E
  0
SCALE
  5
B7
102
{ACAD_REACTORS
330
B6
102
}
330
B6
100
AcDbScale
 70
     0
300
1:1
140
1.0
141
1.0
290
     1
  0
SCALE
  5
B8
102
{ACAD_REACTORS
330
B6
102
}
330
B6
100
AcDbScale
 70
     0
300
1:2
140
1.0
141
2.0
290
     0
  0
SCALE
  5
B9
102
{ACAD_REACTORS
330
B6
102
}
330
B6
100
AcDbScale
 70
     0
300
1:4
140
1.0
141
4.0
290
     0
  0
SCALE
  5
BA
102
{ACAD_REACTORS
330
B6
102
}
330
B6
100
AcDbScale
 70
     0
300
1:5
140
1.0
141
5.0
290
     0
  0
SCALE
  5
BB
102
{ACAD_REACTORS
330
B6
102
}
330
B6
100
AcDbScale
 70
     0
300
1:8
140
1.0
141
8.0
290
     0
  0
SCALE
  5
BC
102
{ACAD_REACTORS
330
B6
102
}
330
B6
100
AcDbScale
 70
     0
300
1:10
140
1.0
141
10.0
290
     0
  0
SCALE
  5
BD
102
{ACAD_REACTORS
330
B6
102
}
330
B6
100
AcDbScale
 70
     0
300
1:16
140
1.0
141
16.0
290
     0
  0
SCALE
  5
BE
102
{ACAD_REACTORS
330
B6
102
}
330
B6
100
AcDbScale
 70
     0
300
1:20
140
1.0
141
20.0
290
     0
  0
SCALE
  5
BF
102
{ACAD_REACTORS
330
B6
102
}
330
B6
100
AcDbScale
 70
     0
300
1:30
140
1.0
141
30.0
290
     0
  0
SCALE
  5
C0
102
{ACAD_REACTORS
330
B6
102
}
330
B6
100
AcDbScale
 70
     0
300
1:40
140
1.0
141
40.0
290
     0
  0
SCALE
  5
C1
102
{ACAD_REACTORS
330
B6
102
}
330
B6
100
AcDbScale
 70
     0
300
1:50
140
1.0
141
50.0
290
     0
  0
SCALE
  5
C2
102
{ACAD_REACTORS
330
B6
102
}
330
B6
100
AcDbScale
 70
     0
300
1:100
140
1.0
141
100.0
290
     0
  0
SCALE
  5
C3
102
{ACAD_REACTORS
330
B6
102
}
330
B6
100
AcDbScale
 70
     0
300
2:1
140
2.0
141
1.0
290
     0
  0
SCALE
  5
C4
102
{ACAD_REACTORS
330
B6
102
}
330
B6
100
AcDbScale
 70
     0
300
4:1
140
4.0
141
1.0
290
     0
  0
SCALE
  5
C5
102
{ACAD_REACTORS
330
B6
102
}
330
B6
100
AcDbScale
 70
     0
300
8:1
140
8.0
141
1.0
290
     0
  0
SCALE
  5
C6
102
{ACAD_REACTORS
330
B6
102
}
330
B6
100
AcDbScale
 70
     0
300
10:1
140
10.0
141
1.0
290
     0
  0
SCALE
  5
C7
102
{ACAD_REACTORS
330
B6
102
}
330
B6
100
AcDbScale
 70
     0
300
100:1
140
100.0
141
1.0
290
     0
  0
SCALE
  5
C8
102
{ACAD_REACTORS
330
B6
102
}
330
B6
100
AcDbScale
 70
     0
300
1/128" = 1'-0"
140
0.0078125
141
12.0
290
     0
  0
SCALE
  5
C9
102
{ACAD_REACTORS
330
B6
102
}
330
B6
100
AcDbScale
 70
     0
300
1/64" = 1'-0"
140
0.015625
141
12.0
290
     0
  0
SCALE
  5
CA
102
{ACAD_REACTORS
330
B6
102
}
330
B6
100
AcDbScale
 70
     0
300
1/32" = 1'-0"
140
0.03125
141
12.0
290
     0
  0
SCALE
  5
CB
102
{ACAD_REACTORS
330
B6
102
}
330
B6
100
AcDbScale
 70
     0
300
1/16" = 1'-0"
140
0.0625
141
12.0
290
     0
  0
SCALE
  5
CC
102
{ACAD_REACTORS
330
B6
102
}
330
B6
100
AcDbScale
 70
     0
300
3/32" = 1'-0"
140
0.09375
141
12.0
290
     0
  0
SCALE
  5
CD
102
{ACAD_REACTORS
330
B6
102
}
330
B6
100
AcDbScale
 70
     0
300
1/8" = 1'-0"
140
0.125
141
12.0
290
     0
  0
SCALE
  5
CE
102
{ACAD_REACTORS
330
B6
102
}
330
B6
100
AcDbScale
 70
     0
300
3/16" = 1'-0"
140
0.1875
141
12.0
290
     0
  0
SCALE
  5
CF
102
{ACAD_REACTORS
330
B6
102
}
330
B6
100
AcDbScale
 70
     0
300
1/4" = 1'-0"
140
0.25
141
12.0
290
     0
  0
SCALE
  5
D0
102
{ACAD_REACTORS
330
B6
102
}
330
B6
100
AcDbScale
 70
     0
300
3/8" = 1'-0"
140
0.375
141
12.0
290
     0
  0
SCALE
  5
D1
102
{ACAD_REACTORS
330
B6
102
}
330
B6
100
AcDbScale
 70
     0
300
1/2" = 1'-0"
140
0.5
141
12.0
290
     0
  0
SCALE
  5
D2
102
{ACAD_REACTORS
330
B6
102
}
330
B6
100
AcDbScale
 70
     0
300
3/4" = 1'-0"
140
0.75
141
12.0
290
     0
  0
SCALE
  5
D3
102
{ACAD_REACTORS
330
B6
102
}
330
B6
100
AcDbScale
 70
     0
300
1" = 1'-0"
140
1.0
141
12.0
290
     0
  0
SCALE
  5
D4
102
{ACAD_REACTORS
330
B6
102
}
330
B6
100
AcDbScale
 70
     0
300
1-1/2" = 1'-0"
140
1.5
141
12.0
290
     0
  0
SCALE
  5
D5
102
{ACAD_REACTORS
330
B6
102
}
330
B6
100
AcDbScale
 70
     0
300
3" = 1'-0"
140
3.0
141
12.0
290
     0
  0
SCALE
  5
D6
102
{ACAD_REACTORS
330
B6
102
}
330
B6
100
AcDbScale
 70
     0
300
6" = 1'-0"
140
6.0
141
12.0
290
     0
  0
SCALE
  5
D7
102
{ACAD_REACTORS
330
B6
102
}
330
B6
100
AcDbScale
 70
     0
300
1'-0" = 1'-0"
140
12.0
141
12.0
290
     0
  0
TABLESTYLE
  5
87
102
{ACAD_REACTORS
330
86
102
}
102
{ACAD_XDICTIONARY
360
DAD
102
}
330
86
100
AcDbTableStyle
  3
Standard
 70
     0
 71
     0
 40
0.06
 41
0.06
280
     0
281
     0
  7
Standard
140
0.18
170
     2
 62
     0
 63
   257
283
     0
 90
      512
 91
        0
  1

274
    -2
284
     1
 64
     0
275
    -2
285
     1
 65
     0
276
    -2
286
     1
 66
     0
277
    -2
287
     1
 67
     0
278
    -2
288
     1
 68
     0
279
    -2
289
     1
 69
     0
  7
Standard
140
0.25
170
     5
 62
     0
 63
   257
283
     0
 90
      512
 91
        0
  1

274
    -2
284
     1
 64
     0
275
    -2
285
     1
 65
     0
276
    -2
286
     1
 66
     0
277
    -2
287
     1
 67
     0
278
    -2
288
     1
 68
     0
279
    -2
289
     1
 69
     0
  7
Standard
140
0.18
170
     5
 62
     0
 63
   257
283
     0
 90
      512
 91
        0
  1

274
    -2
284
     1
 64
     0
275
    -2
285
     1
 65
     0
276
    -2
286
     1
 66
     0
277
    -2
287
     1
 67
     0
278
    -2
288
     1
 68
     0
279
    -2
289
     1
 69
     0
  0
VISUALSTYLE
  5
9F
102
{ACAD_REACTORS
330
99
102
}
330
99
100
AcDbVisualStyle
  2
2dWireframe
 70
     4
177
     3
291
     0
 70
    58
 90
        0
176
     1
 90
        2
176
     1
 90
        1
176
     1
 90
        0
176
     1
 40
-0.6
176
     1
 40
-30.0
176
     1
 62
     7
420
 16777215
176
     1
 90
        1
176
     1
 90
        4
176
     1
 62
     7
176
     1
 62
   257
176
     1
 90
        1
176
     1
 90
        1
176
     1
 40
1.0
176
     1
 90
        0
176
     1
 62
   257
176
     1
 40
1.0
176
     1
 90
        1
176
     1
 90
        6
176
     1
 90
        2
176
     1
 62
     7
176
     1
 90
        5
176
     1
 90
        0
176
     1
 90
        0
176
     1
290
     0
176
     1
 90
        1
176
     1
 40
0.0
176
     1
 90
        0
176
     1
290
     1
176
     1
290
     1
176
     1
290
     0
176
     1
290
     0
176
     1
290
     0
176
     1
290
     0
176
     1
290
     0
176
     1
290
     0
176
     1
290
     0
176
     1
 90
       50
176
     1
 40
0.0
176
     1
 40
1.0
176
     1
 90
        0
176
     1
 62
   178
420
        0
176
     1
 90
       50
176
     1
 90
        3
176
     1
 62
     5
420
      255
176
     1
290
     0
176
     1
 90
       50
176
     1
 90
       50
176
     1
 90
       50
176
     1
290
     0
176
     1
 90
       50
176
     1
 62
   256
176
     0
 40
1.0
176
     0
 90
        2
176
     1
  1
strokes_ogs.tif
176
     1
290
     0
176
     1
 40
1.0
176
     1
 40
1.0
176
     1
  0
VISUALSTYLE
  5
A1
102
{ACAD_REACTORS
330
99
102
}
330
99
100
AcDbVisualStyle
  2
3D Hidden
 70
     6
177
     3
291
     0
 70
    58
 90
        1
176
     1
 90
        2
176
     1
 90
        2
176
     1
 90
        0
176
     1
 40
-0.6
176
     1
 40
-30.0
176
     1
 62
     7
420
 16777215
176
     1
 90
        2
176
     1
 90
        2
176
     1
 62
     7
176
     1
 62
   257
176
     1
 90
        2
176
     1
 90
        1
176
     1
 40
40.0
176
     1
 90
        0
176
     1
 62
   257
176
     1
 40
1.0
176
     1
 90
        1
176
     1
 90
        6
176
     1
 90
        2
176
     1
 62
     7
176
     1
 90
        3
176
     1
 90
        0
176
     1
 90
        0
176
     1
290
     0
176
     1
 90
        1
176
     1
 40
0.0
176
     1
 90
        0
176
     1
290
     0
176
     1
290
     1
176
     1
290
     1
176
     1
290
     0
176
     1
290
     0
176
     1
290
     0
176
     1
290
     0
176
     1
290
     0
176
     1
290
     0
176
     1
 90
       50
176
     1
 40
0.0
176
     1
 40
1.0
176
     1
 90
        0
176
     1
 62
   178
420
        0
176
     1
 90
       50
176
     1
 90
        3
176
     1
 62
     5
420
      255
176
     1
290
     0
176
     1
 90
       50
176
     1
 90
       50
176
     1
 90
       50
176
     1
290
     0
176
     1
 90
       50
176
     1
 62
   256
176
     0
 40
1.0
176
     0
 90
        2
176
     1
  1
strokes_ogs.tif
176
     1
290
     0
176
     1
 40
1.0
176
     1
 40
1.0
176
     1
  0
VISUALSTYLE
  5
A0
102
{ACAD_REACTORS
330
99
102
}
330
99
100
AcDbVisualStyle
  2
3dWireframe
 70
     5
177
     3
291
     0
 70
    58
 90
        0
176
     1
 90
        2
176
     1
 90
        1
176
     1
 90
        0
176
     1
 40
-0.6
176
     1
 40
-30.0
176
     1
 62
     7
420
 16777215
176
     1
 90
        1
176
     1
 90
        4
176
     1
 62
     7
176
     1
 62
   257
176
     1
 90
        1
176
     1
 90
        1
176
     1
 40
1.0
176
     1
 90
        0
176
     1
 62
   257
176
     1
 40
1.0
176
     1
 90
        1
176
     1
 90
        6
176
     1
 90
        2
176
     1
 62
     7
176
     1
 90
        5
176
     1
 90
        0
176
     1
 90
        0
176
     1
290
     0
176
     1
 90
        1
176
     1
 40
0.0
176
     1
 90
        0
176
     1
290
     0
176
     1
290
     1
176
     1
290
     1
176
     1
290
     0
176
     1
290
     0
176
     1
290
     0
176
     1
290
     0
176
     1
290
     0
176
     1
290
     0
176
     1
 90
       50
176
     1
 40
0.0
176
     1
 40
1.0
176
     1
 90
        0
176
     1
 62
   178
420
        0
176
     1
 90
       50
176
     1
 90
        3
176
     1
 62
     5
420
      255
176
     1
290
     0
176
     1
 90
       50
176
     1
 90
       50
176
     1
 90
       50
176
     1
290
     0
176
     1
 90
       50
176
     1
 62
   256
176
     0
 40
1.0
176
     0
 90
        2
176
     1
  1
strokes_ogs.tif
176
     1
290
     0
176
     1
 40
1.0
176
     1
 40
1.0
176
     1
  0
VISUALSTYLE
  5
9E
102
{ACAD_REACTORS
330
99
102
}
330
99
100
AcDbVisualStyle
  2
Basic
 70
     7
177
     3
291
     1
 70
    58
 90
        1
176
     1
 90
        0
176
     1
 90
        1
176
     1
 90
        0
176
     1
 40
-0.6
176
     1
 40
-30.0
176
     1
 62
     7
420
 16777215
176
     1
 90
        0
176
     1
 90
        4
176
     1
 62
     7
176
     1
 62
   257
176
     1
 90
        1
176
     1
 90
        1
176
     1
 40
1.0
176
     1
 90
        8
176
     1
 62
     7
176
     1
 40
1.0
176
     1
 90
        1
176
     1
 90
        6
176
     1
 90
        2
176
     1
 62
     7
176
     1
 90
        5
176
     1
 90
        0
176
     1
 90
        0
176
     1
290
     0
176
     1
 90
        1
176
     1
 40
0.0
176
     1
 90
        0
176
     1
290
     0
176
     1
290
     1
176
     1
290
     1
176
     1
290
     0
176
     1
290
     0
176
     1
290
     0
176
     1
290
     0
176
     1
290
     0
176
     1
290
     0
176
     1
 90
       50
176
     1
 40
0.0
176
     1
 40
1.0
176
     1
 90
        0
176
     1
 62
   178
420
        0
176
     1
 90
       50
176
     1
 90
        3
176
     1
 62
     5
420
      255
176
     1
290
     0
176
     1
 90
       50
176
     1
 90
       50
176
     1
 90
       50
176
     1
290
     0
176
     1
 90
       50
176
     1
 62
   256
176
     0
 40
1.0
176
     0
 90
        2
176
     1
  1
strokes_ogs.tif
176
     1
290
     0
176
     1
 40
1.0
176
     1
 40
1.0
176
     1
  0
VISUALSTYLE
  5
A5
102
{ACAD_REACTORS
330
99
102
}
330
99
100
AcDbVisualStyle
  2
Brighten
 70
    12
177
     3
291
     1
 70
    58
 90
        2
176
     1
 90
        2
176
     1
 90
        1
176
     1
 90
        0
176
     1
 40
-0.6
176
     1
 40
-30.0
176
     1
 62
     7
420
 16777215
176
     1
 90
        1
176
     1
 90
        4
176
     1
 62
     7
176
     1
 62
   257
176
     1
 90
        1
176
     1
 90
        1
176
     1
 40
1.0
176
     1
 90
        8
176
     1
 62
     7
176
     1
 40
1.0
176
     1
 90
        1
176
     1
 90
        6
176
     1
 90
        2
176
     1
 62
     7
176
     1
 90
        5
176
     1
 90
        0
176
     1
 90
        0
176
     1
290
     0
176
     1
 90
        1
176
     1
 40
50.0
176
     1
 90
        0
176
     1
290
     0
176
     1
290
     1
176
     1
290
     1
176
     1
290
     0
176
     1
290
     0
176
     1
290
     0
176
     1
290
     0
176
     1
290
     0
176
     1
290
     0
176
     1
 90
       50
176
     1
 40
0.0
176
     1
 40
1.0
176
     1
 90
        0
176
     1
 62
   178
420
        0
176
     1
 90
       50
176
     1
 90
        3
176
     1
 62
     5
420
      255
176
     1
290
     0
176
     1
 90
       50
176
     1
 90
       50
176
     1
 90
       50
176
     1
290
     0
176
     1
 90
       50
176
     1
 62
   256
176
     0
 40
1.0
176
     0
 90
        2
176
     1
  1
strokes_ogs.tif
176
     1
290
     0
176
     1
 40
1.0
176
     1
 40
1.0
176
     1
  0
VISUALSTYLE
  5
A9
102
{ACAD_REACTORS
330
99
102
}
330
99
100
AcDbVisualStyle
  2
ColorChange
 70
    16
177
     3
291
     1
 70
    58
 90
        2
176
     1
 90
        2
176
     1
 90
        3
176
     1
 90
        0
176
     1
 40
-0.6
176
     1
 40
-30.0
176
     1
 62
     8
420
  8421504
176
     1
 90
        1
176
     1
 90
        4
176
     1
 62
     7
176
     1
 62
   257
176
     1
 90
        1
176
     1
 90
        1
176
     1
 40
1.0
176
     1
 90
        8
176
     1
 62
     8
420
  8421504
176
     1
 40
1.0
176
     1
 90
        1
176
     1
 90
        6
176
     1
 90
        2
176
     1
 62
     7
176
     1
 90
        5
176
     1
 90
        0
176
     1
 90
        0
176
     1
290
     0
176
     1
 90
        1
176
     1
 40
0.0
176
     1
 90
        0
176
     1
290
     0
176
     1
290
     1
176
     1
290
     1
176
     1
290
     0
176
     1
290
     0
176
     1
290
     0
176
     1
290
     0
176
     1
290
     0
176
     1
290
     0
176
     1
 90
       50
176
     1
 40
0.0
176
     1
 40
1.0
176
     1
 90
        0
176
     1
 62
   178
420
        0
176
     1
 90
       50
176
     1
 90
        3
176
     1
 62
     5
420
      255
176
     1
290
     0
176
     1
 90
       50
176
     1
 90
       50
176
     1
 90
       50
176
     1
290
     0
176
     1
 90
       50
176
     1
 62
   256
176
     0
 40
1.0
176
     0
 90
        2
176
     1
  1
strokes_ogs.tif
176
     1
290
     0
176
     1
 40
1.0
176
     1
 40
1.0
176
     1
  0
VISUALSTYLE
  5
A2
102
{ACAD_REACTORS
330
99
102
}
330
99
100
AcDbVisualStyle
  2
Conceptual
 70
     9
177
     3
291
     0
 70
    58
 90
        3
176
     1
 90
        2
176
     1
 90
        1
176
     1
 90
        0
176
     1
 40
-0.6
176
     1
 40
-30.0
176
     1
 62
     7
420
 16777215
176
     1
 90
        2
176
     1
 90
        2
176
     1
 62
     7
176
     1
 62
   257
176
     1
 90
        1
176
     1
 90
        1
176
     1
 40
40.0
176
     1
 90
        8
176
     1
 62
     7
176
     1
 40
1.0
176
     1
 90
        1
176
     1
 90
        6
176
     1
 90
        2
176
     1
 62
     7
176
     1
 90
        3
176
     1
 90
        0
176
     1
 90
        0
176
     1
290
     0
176
     1
 90
        1
176
     1
 40
0.0
176
     1
 90
        0
176
     1
290
     0
176
     1
290
     1
176
     1
290
     1
176
     1
290
     0
176
     1
290
     0
176
     1
290
     0
176
     1
290
     0
176
     1
290
     0
176
     1
290
     0
176
     1
 90
       50
176
     1
 40
0.0
176
     1
 40
1.0
176
     1
 90
        0
176
     1
 62
   178
420
        0
176
     1
 90
       50
176
     1
 90
        3
176
     1
 62
     5
420
      255
176
     1
290
     0
176
     1
 90
       50
176
     1
 90
       50
176
     1
 90
       50
176
     1
290
     0
176
     1
 90
       50
176
     1
 62
   256
176
     0
 40
1.0
176
     0
 90
        2
176
     1
  1
strokes_ogs.tif
176
     1
290
     0
176
     1
 40
1.0
176
     1
 40
1.0
176
     1
  0
VISUALSTYLE
  5
A4
102
{ACAD_REACTORS
330
99
102
}
330
99
100
AcDbVisualStyle
  2
Dim
 70
    11
177
     3
291
     1
 70
    58
 90
        2
176
     1
 90
        2
176
     1
 90
        1
176
     1
 90
        0
176
     1
 40
-0.6
176
     1
 40
-30.0
176
     1
 62
     7
420
 16777215
176
     1
 90
        1
176
     1
 90
        4
176
     1
 62
     7
176
     1
 62
   257
176
     1
 90
        1
176
     1
 90
        1
176
     1
 40
1.0
176
     1
 90
        8
176
     1
 62
     7
176
     1
 40
1.0
176
     1
 90
        1
176
     1
 90
        6
176
     1
 90
        2
176
     1
 62
     7
176
     1
 90
        5
176
     1
 90
        0
176
     1
 90
        0
176
     1
290
     0
176
     1
 90
        1
176
     1
 40
-50.0
176
     1
 90
        0
176
     1
290
     0
176
     1
290
     1
176
     1
290
     1
176
     1
290
     0
176
     1
290
     0
176
     1
290
     0
176
     1
290
     0
176
     1
290
     0
176
     1
290
     0
176
     1
 90
       50
176
     1
 40
0.0
176
     1
 40
1.0
176
     1
 90
        0
176
     1
 62
   178
420
        0
176
     1
 90
       50
176
     1
 90
        3
176
     1
 62
     5
420
      255
176
     1
290
     0
176
     1
 90
       50
176
     1
 90
       50
176
     1
 90
       50
176
     1
290
     0
176
     1
 90
       50
176
     1
 62
   256
176
     0
 40
1.0
176
     0
 90
        2
176
     1
  1
strokes_ogs.tif
176
     1
290
     0
176
     1
 40
1.0
176
     1
 40
1.0
176
     1
  0
VISUALSTYLE
  5
E7
102
{ACAD_REACTORS
330
99
102
}
330
99
100
AcDbVisualStyle
  2
EdgeColorOff
 70
    22
177
     3
291
     1
 70
    58
 90
        2
176
     0
 90
        2
176
     0
 90
        0
176
     0
 90
        0
176
     0
 40
0.6
176
     0
 40
30.0
176
     0
 62
     7
420
 16777215
176
     0
 90
        1
176
     0
 90
        4
176
     0
 62
     7
176
     0
 62
   257
176
     0
 90
        1
176
     0
 90
        1
176
     0
 40
1.0
176
     0
 90
        8
176
     2
 62
     7
176
     0
 40
1.0
176
     0
 90
        1
176
     0
 90
        6
176
     0
 90
        2
176
     0
 62
     7
176
     0
 90
        5
176
     0
 90
        0
176
     0
 90
        0
176
     0
290
     0
176
     0
 90
        1
176
     0
 40
0.0
176
     0
 90
        0
176
     0
290
     0
176
     0
290
     1
176
     0
290
     1
176
     0
290
     0
176
     0
290
     0
176
     0
290
     0
176
     0
290
     0
176
     0
290
     0
176
     0
290
     0
176
     0
 90
       50
176
     0
 40
0.0
176
     0
 40
1.0
176
     0
 90
        0
176
     0
 62
   178
420
        0
176
     0
 90
       50
176
     0
 90
        3
176
     0
 62
     5
420
      255
176
     0
290
     0
176
     0
 90
       50
176
     0
 90
       50
176
     0
 90
       50
176
     0
290
     0
176
     0
 90
       50
176
     0
 62
   256
176
     0
 40
1.0
176
     0
 90
        2
176
     0
  1
strokes_ogs.tif
176
     0
290
     0
176
     0
 40
1.0
176
     0
 40
1.0
176
     0
  0
VISUALSTYLE
  5
A8
102
{ACAD_REACTORS
330
99
102
}
330
99
100
AcDbVisualStyle
  2
Facepattern
 70
    15
177
     3
291
     1
 70
    58
 90
        2
176
     1
 90
        2
176
     1
 90
        1
176
     1
 90
        0
176
     1
 40
-0.6
176
     1
 40
-30.0
176
     1
 62
     7
420
 16777215
176
     1
 90
        1
176
     1
 90
        4
176
     1
 62
     7
176
     1
 62
   257
176
     1
 90
        1
176
     1
 90
        1
176
     1
 40
1.0
176
     1
 90
        8
176
     1
 62
     7
176
     1
 40
1.0
176
     1
 90
        1
176
     1
 90
        6
176
     1
 90
        2
176
     1
 62
     7
176
     1
 90
        5
176
     1
 90
        0
176
     1
 90
        0
176
     1
290
     0
176
     1
 90
        1
176
     1
 40
0.0
176
     1
 90
        0
176
     1
290
     0
176
     1
290
     1
176
     1
290
     1
176
     1
290
     0
176
     1
290
     0
176
     1
290
     0
176
     1
290
     0
176
     1
290
     0
176
     1
290
     0
176
     1
 90
       50
176
     1
 40
0.0
176
     1
 40
1.0
176
     1
 90
        0
176
     1
 62
   178
420
        0
176
     1
 90
       50
176
     1
 90
        3
176
     1
 62
     5
420
      255
176
     1
290
     0
176
     1
 90
       50
176
     1
 90
       50
176
     1
 90
       50
176
     1
290
     0
176
     1
 90
       50
176
     1
 62
   256
176
     0
 40
1.0
176
     0
 90
        2
176
     1
  1
strokes_ogs.tif
176
     1
290
     0
176
     1
 40
1.0
176
     1
 40
1.0
176
     1
  0
VISUALSTYLE
  5
9A
102
{ACAD_REACTORS
330
99
102
}
330
99
100
AcDbVisualStyle
  2
Flat
 70
     0
177
     3
291
     1
 70
    58
 90
        2
176
     1
 90
        1
176
     1
 90
        1
176
     1
 90
        2
176
     1
 40
-0.6
176
     1
 40
30.0
176
     1
 62
     7
420
 16777215
176
     1
 90
        0
176
     1
 90
        4
176
     1
 62
     7
176
     1
 62
   257
176
     1
 90
        1
176
     1
 90
        1
176
     1
 40
1.0
176
     1
 90
        8
176
     1
 62
     7
176
     1
 40
1.0
176
     1
 90
        1
176
     1
 90
        6
176
     1
 90
        2
176
     1
 62
     7
176
     1
 90
        5
176
     1
 90
        0
176
     1
 90
        0
176
     1
290
     0
176
     1
 90
        1
176
     1
 40
0.0
176
     1
 90
        0
176
     1
290
     0
176
     1
290
     1
176
     1
290
     1
176
     1
290
     0
176
     1
290
     0
176
     1
290
     0
176
     1
290
     0
176
     1
290
     0
176
     1
290
     0
176
     1
 90
       50
176
     1
 40
0.0
176
     1
 40
1.0
176
     1
 90
        0
176
     1
 62
   178
420
        0
176
     1
 90
       50
176
     1
 90
        3
176
     1
 62
     5
420
      255
176
     1
290
     0
176
     1
 90
       50
176
     1
 90
       50
176
     1
 90
       50
176
     1
290
     0
176
     1
 90
       50
176
     1
 62
   256
176
     0
 40
1.0
176
     0
 90
        2
176
     1
  1
strokes_ogs.tif
176
     1
290
     0
176
     1
 40
1.0
176
     1
 40
1.0
176
     1
  0
VISUALSTYLE
  5
9B
102
{ACAD_REACTORS
330
99
102
}
330
99
100
AcDbVisualStyle
  2
FlatWithEdges
 70
     1
177
     3
291
     1
 70
    58
 90
        2
176
     1
 90
        1
176
     1
 90
        1
176
     1
 90
        2
176
     1
 40
-0.6
176
     1
 40
30.0
176
     1
 62
     7
420
 16777215
176
     1
 90
        1
176
     1
 90
        4
176
     1
 62
     7
176
     1
 62
   257
176
     1
 90
        1
176
     1
 90
        1
176
     1
 40
1.0
176
     1
 90
        0
176
     1
 62
   257
176
     1
 40
1.0
176
     1
 90
        1
176
     1
 90
        6
176
     1
 90
        2
176
     1
 62
     7
176
     1
 90
        5
176
     1
 90
        0
176
     1
 90
        0
176
     1
290
     0
176
     1
 90
        1
176
     1
 40
0.0
176
     1
 90
        0
176
     1
290
     0
176
     1
290
     1
176
     1
290
     1
176
     1
290
     0
176
     1
290
     0
176
     1
290
     0
176
     1
290
     0
176
     1
290
     0
176
     1
290
     0
176
     1
 90
       50
176
     1
 40
0.0
176
     1
 40
1.0
176
     1
 90
        0
176
     1
 62
   178
420
        0
176
     1
 90
       50
176
     1
 90
        3
176
     1
 62
     5
420
      255
176
     1
290
     0
176
     1
 90
       50
176
     1
 90
       50
176
     1
 90
       50
176
     1
290
     0
176
     1
 90
       50
176
     1
 62
   256
176
     0
 40
1.0
176
     0
 90
        2
176
     1
  1
strokes_ogs.tif
176
     1
290
     0
176
     1
 40
1.0
176
     1
 40
1.0
176
     1
  0
VISUALSTYLE
  5
9C
102
{ACAD_REACTORS
330
99
102
}
330
99
100
AcDbVisualStyle
  2
Gouraud
 70
     2
177
     3
291
     1
 70
    58
 90
        2
176
     1
 90
        2
176
     1
 90
        1
176
     1
 90
        2
176
     1
 40
-0.6
176
     1
 40
30.0
176
     1
 62
     7
420
 16777215
176
     1
 90
        0
176
     1
 90
        4
176
     1
 62
     7
176
     1
 62
   257
176
     1
 90
        1
176
     1
 90
        1
176
     1
 40
1.0
176
     1
 90
        0
176
     1
 62
     7
176
     1
 40
1.0
176
     1
 90
        1
176
     1
 90
        6
176
     1
 90
        2
176
     1
 62
     7
176
     1
 90
        5
176
     1
 90
        0
176
     1
 90
        0
176
     1
290
     0
176
     1
 90
        1
176
     1
 40
0.0
176
     1
 90
        0
176
     1
290
     0
176
     1
290
     1
176
     1
290
     1
176
     1
290
     0
176
     1
290
     0
176
     1
290
     0
176
     1
290
     0
176
     1
290
     0
176
     1
290
     0
176
     1
 90
       50
176
     1
 40
0.0
176
     1
 40
1.0
176
     1
 90
        0
176
     1
 62
   178
420
        0
176
     1
 90
       50
176
     1
 90
        3
176
     1
 62
     5
420
      255
176
     1
290
     0
176
     1
 90
       50
176
     1
 90
       50
176
     1
 90
       50
176
     1
290
     0
176
     1
 90
       50
176
     1
 62
   256
176
     0
 40
1.0
176
     0
 90
        2
176
     1
  1
strokes_ogs.tif
176
     1
290
     0
176
     1
 40
1.0
176
     1
 40
1.0
176
     1
  0
VISUALSTYLE
  5
9D
102
{ACAD_REACTORS
330
99
102
}
330
99
100
AcDbVisualStyle
  2
GouraudWithEdges
 70
     3
177
     3
291
     1
 70
    58
 90
        2
176
     1
 90
        2
176
     1
 90
        1
176
     1
 90
        2
176
     1
 40
-0.6
176
     1
 40
30.0
176
     1
 62
     7
420
 16777215
176
     1
 90
        1
176
     1
 90
        4
176
     1
 62
     7
176
     1
 62
   257
176
     1
 90
        1
176
     1
 90
        1
176
     1
 40
1.0
176
     1
 90
        0
176
     1
 62
   257
176
     1
 40
1.0
176
     1
 90
        1
176
     1
 90
        6
176
     1
 90
        2
176
     1
 62
     7
176
     1
 90
        5
176
     1
 90
        0
176
     1
 90
        0
176
     1
290
     0
176
     1
 90
        1
176
     1
 40
0.0
176
     1
 90
        0
176
     1
290
     0
176
     1
290
     1
176
     1
290
     1
176
     1
290
     0
176
     1
290
     0
176
     1
290
     0
176
     1
290
     0
176
     1
290
     0
176
     1
290
     0
176
     1
 90
       50
176
     1
 40
0.0
176
     1
 40
1.0
176
     1
 90
        0
176
     1
 62
   178
420
        0
176
     1
 90
       50
176
     1
 90
        3
176
     1
 62
     5
420
      255
176
     1
290
     0
176
     1
 90
       50
176
     1
 90
       50
176
     1
 90
       50
176
     1
290
     0
176
     1
 90
       50
176
     1
 62
   256
176
     0
 40
1.0
176
     0
 90
        2
176
     1
  1
strokes_ogs.tif
176
     1
290
     0
176
     1
 40
1.0
176
     1
 40
1.0
176
     1
  0
VISUALSTYLE
  5
E4
102
{ACAD_REACTORS
330
99
102
}
330
99
100
AcDbVisualStyle
  2
Hidden
 70
     6
177
     3
291
     0
 70
    58
 90
        1
176
     1
 90
        2
176
     1
 90
        2
176
     1
 90
        0
176
     1
 40
0.6
176
     1
 40
30.0
176
     1
 62
     7
420
 16777215
176
     1
 90
        2
176
     1
 90
        2
176
     1
 62
     7
176
     1
 62
   257
176
     1
 90
        2
176
     1
 90
        1
176
     1
 40
40.0
176
     1
 90
        0
176
     1
 62
   257
176
     1
 40
1.0
176
     1
 90
        1
176
     1
 90
        6
176
     1
 90
        2
176
     1
 62
     7
176
     1
 90
        3
176
     1
 90
        0
176
     1
 90
        0
176
     1
290
     0
176
     1
 90
        1
176
     1
 40
0.0
176
     1
 90
        0
176
     1
290
     0
176
     1
290
     1
176
     1
290
     1
176
     1
290
     0
176
     1
290
     0
176
     1
290
     0
176
     1
290
     0
176
     1
290
     0
176
     1
290
     0
176
     1
 90
       50
176
     1
 40
0.0
176
     1
 40
1.0
176
     1
 90
        0
176
     1
 62
   178
420
        0
176
     1
 90
       50
176
     1
 90
        3
176
     1
 62
     5
420
      255
176
     1
290
     0
176
     1
 90
       50
176
     1
 90
       50
176
     1
 90
       50
176
     1
290
     0
176
     1
 90
       50
176
     1
 62
   256
176
     0
 40
1.0
176
     0
 90
        2
176
     1
  1
strokes_ogs.tif
176
     1
290
     0
176
     1
 40
1.0
176
     1
 40
1.0
176
     1
  0
VISUALSTYLE
  5
E5
102
{ACAD_REACTORS
330
99
102
}
330
99
100
AcDbVisualStyle
  2
JitterOff
 70
    20
177
     3
291
     1
 70
    58
 90
        2
176
     0
 90
        2
176
     0
 90
        0
176
     0
 90
        0
176
     0
 40
0.6
176
     0
 40
30.0
176
     0
 62
     7
420
 16777215
176
     0
 90
        1
176
     0
 90
        4
176
     0
 62
     7
176
     0
 62
   257
176
     0
 90
        1
176
     0
 90
        1
176
     0
 40
1.0
176
     0
 90
       10
176
     2
 62
     7
176
     0
 40
1.0
176
     0
 90
        1
176
     0
 90
        6
176
     0
 90
        2
176
     0
 62
     7
176
     0
 90
        5
176
     0
 90
        0
176
     0
 90
        0
176
     0
290
     0
176
     0
 90
        1
176
     0
 40
0.0
176
     0
 90
        0
176
     0
290
     0
176
     0
290
     1
176
     0
290
     1
176
     0
290
     0
176
     0
290
     0
176
     0
290
     0
176
     0
290
     0
176
     0
290
     0
176
     0
290
     0
176
     0
 90
       50
176
     0
 40
0.0
176
     0
 40
1.0
176
     0
 90
        0
176
     0
 62
   178
420
        0
176
     0
 90
       50
176
     0
 90
        3
176
     0
 62
     5
420
      255
176
     0
290
     0
176
     0
 90
       50
176
     0
 90
       50
176
     0
 90
       50
176
     0
290
     0
176
     0
 90
       50
176
     0
 62
   256
176
     0
 40
1.0
176
     0
 90
        2
176
     0
  1
strokes_ogs.tif
176
     0
290
     0
176
     0
 40
1.0
176
     0
 40
1.0
176
     0
  0
VISUALSTYLE
  5
A7
102
{ACAD_REACTORS
330
99
102
}
330
99
100
AcDbVisualStyle
  2
Linepattern
 70
    14
177
     3
291
     1
 70
    58
 90
        2
176
     1
 90
        2
176
     1
 90
        1
176
     1
 90
        0
176
     1
 40
-0.6
176
     1
 40
-30.0
176
     1
 62
     7
420
 16777215
176
     1
 90
        1
176
     1
 90
        4
176
     1
 62
     7
176
     1
 62
   257
176
     1
 90
        7
176
     1
 90
        7
176
     1
 40
1.0
176
     1
 90
        8
176
     1
 62
     7
176
     1
 40
1.0
176
     1
 90
        1
176
     1
 90
        6
176
     1
 90
        2
176
     1
 62
     7
176
     1
 90
        5
176
     1
 90
        0
176
     1
 90
        0
176
     1
290
     0
176
     1
 90
        1
176
     1
 40
0.0
176
     1
 90
        0
176
     1
290
     0
176
     1
290
     1
176
     1
290
     1
176
     1
290
     0
176
     1
290
     0
176
     1
290
     0
176
     1
290
     0
176
     1
290
     0
176
     1
290
     0
176
     1
 90
       50
176
     1
 40
0.0
176
     1
 40
1.0
176
     1
 90
        0
176
     1
 62
   178
420
        0
176
     1
 90
       50
176
     1
 90
        3
176
     1
 62
     5
420
      255
176
     1
290
     0
176
     1
 90
       50
176
     1
 90
       50
176
     1
 90
       50
176
     1
290
     0
176
     1
 90
       50
176
     1
 62
   256
176
     0
 40
1.0
176
     0
 90
        2
176
     1
  1
strokes_ogs.tif
176
     1
290
     0
176
     1
 40
1.0
176
     1
 40
1.0
176
     1
  0
VISUALSTYLE
  5
E6
102
{ACAD_REACTORS
330
99
102
}
330
99
100
AcDbVisualStyle
  2
OverhangOff
 70
    21
177
     3
291
     1
 70
    58
 90
        2
176
     0
 90
        2
176
     0
 90
        0
176
     0
 90
        0
176
     0
 40
0.6
176
     0
 40
30.0
176
     0
 62
     7
420
 16777215
176
     0
 90
        1
176
     0
 90
        4
176
     0
 62
     7
176
     0
 62
   257
176
     0
 90
        1
176
     0
 90
        1
176
     0
 40
1.0
176
     0
 90
        9
176
     2
 62
     7
176
     0
 40
1.0
176
     0
 90
        1
176
     0
 90
        6
176
     0
 90
        2
176
     0
 62
     7
176
     0
 90
        5
176
     0
 90
        0
176
     0
 90
        0
176
     0
290
     0
176
     0
 90
        1
176
     0
 40
0.0
176
     0
 90
        0
176
     0
290
     0
176
     0
290
     1
176
     0
290
     1
176
     0
290
     0
176
     0
290
     0
176
     0
290
     0
176
     0
290
     0
176
     0
290
     0
176
     0
290
     0
176
     0
 90
       50
176
     0
 40
0.0
176
     0
 40
1.0
176
     0
 90
        0
176
     0
 62
   178
420
        0
176
     0
 90
       50
176
     0
 90
        3
176
     0
 62
     5
420
      255
176
     0
290
     0
176
     0
 90
       50
176
     0
 90
       50
176
     0
 90
       50
176
     0
290
     0
176
     0
 90
       50
176
     0
 62
   256
176
     0
 40
1.0
176
     0
 90
        2
176
     0
  1
strokes_ogs.tif
176
     0
290
     0
176
     0
 40
1.0
176
     0
 40
1.0
176
     0
  0
VISUALSTYLE
  5
A3
102
{ACAD_REACTORS
330
99
102
}
330
99
100
AcDbVisualStyle
  2
Realistic
 70
     8
177
     3
291
     0
 70
    58
 90
        2
176
     1
 90
        2
176
     1
 90
        1
176
     1
 90
        0
176
     1
 40
-0.6
176
     1
 40
-30.0
176
     1
 62
     7
420
 16777215
176
     1
 90
        1
176
     1
 90
        0
176
     1
 62
     7
176
     1
 62
   257
176
     1
 90
        1
176
     1
 90
        1
176
     1
 40
1.0
176
     1
 90
        8
176
     1
 62
     8
420
  7895160
176
     1
 40
1.0
176
     1
 90
        1
176
     1
 90
        6
176
     1
 90
        2
176
     1
 62
     7
176
     1
 90
        5
176
     1
 90
        0
176
     1
 90
        0
176
     1
290
     0
176
     1
 90
       13
176
     1
 40
0.0
176
     1
 90
        0
176
     1
290
     0
176
     1
290
     1
176
     1
290
     1
176
     1
290
     0
176
     1
290
     0
176
     1
290
     0
176
     1
290
     0
176
     1
290
     0
176
     1
290
     0
176
     1
 90
       50
176
     1
 40
0.0
176
     1
 40
1.0
176
     1
 90
        0
176
     1
 62
   178
420
        0
176
     1
 90
       50
176
     1
 90
        3
176
     1
 62
     5
420
      255
176
     1
290
     0
176
     1
 90
       50
176
     1
 90
       50
176
     1
 90
       50
176
     1
290
     0
176
     1
 90
       50
176
     1
 62
   256
176
     0
 40
1.0
176
     0
 90
        2
176
     1
  1
strokes_ogs.tif
176
     1
290
     0
176
     1
 40
1.0
176
     1
 40
1.0
176
     1
  0
VISUALSTYLE
  5
EC
102
{ACAD_REACTORS
330
99
102
}
330
99
100
AcDbVisualStyle
  2
Shaded
 70
    27
177
     3
291
     0
 70
    58
 90
        2
176
     1
 90
        2
176
     1
 90
        1
176
     1
 90
        2
176
     1
 40
0.6
176
     1
 40
30.0
176
     1
 62
     7
420
 16777215
176
     1
 90
        0
176
     1
 90
        4
176
     1
 62
     7
176
     1
 62
   257
176
     1
 90
        1
176
     1
 90
        1
176
     1
 40
1.0
176
     1
 90
        8
176
     1
 62
   257
176
     1
 40
1.0
176
     1
 90
        1
176
     1
 90
        6
176
     1
 90
        2
176
     1
 62
     8
420
  7895160
176
     1
 90
        3
176
     1
 90
        0
176
     1
 90
        0
176
     1
290
     0
176
     1
 90
        5
176
     1
 40
0.0
176
     1
 90
        0
176
     1
290
     0
176
     1
290
     1
176
     1
290
     1
176
     1
290
     0
176
     1
290
     0
176
     1
290
     0
176
     1
290
     0
176
     1
290
     0
176
     1
290
     0
176
     1
 90
       50
176
     1
 40
0.0
176
     1
 40
1.0
176
     1
 90
        0
176
     1
 62
   178
420
        0
176
     1
 90
       50
176
     1
 90
        3
176
     1
 62
     5
420
      255
176
     1
290
     0
176
     1
 90
       50
176
     1
 90
       50
176
     1
 90
       50
176
     1
290
     0
176
     1
 90
       50
176
     1
 62
   256
176
     0
 40
1.0
176
     0
 90
        2
176
     1
  1
strokes_ogs.tif
176
     1
290
     0
176
     1
 40
1.0
176
     1
 40
1.0
176
     1
  0
VISUALSTYLE
  5
EB
102
{ACAD_REACTORS
330
99
102
}
330
99
100
AcDbVisualStyle
  2
Shaded with edges
 70
    26
177
     3
291
     0
 70
    58
 90
        2
176
     1
 90
        2
176
     1
 90
        1
176
     1
 90
        2
176
     1
 40
0.6
176
     1
 40
30.0
176
     1
 62
     7
420
 16777215
176
     1
 90
        1
176
     1
 90
       10
176
     1
 62
     7
176
     1
 62
   257
176
     1
 90
        2
176
     1
 90
        1
176
     1
 40
1.0
176
     1
 90
        8
176
     1
 62
   257
176
     1
 40
1.0
176
     1
 90
        1
176
     1
 90
        6
176
     1
 90
        2
176
     1
 62
     7
176
     1
 90
        3
176
     1
 90
        0
176
     1
 90
        0
176
     1
290
     0
176
     1
 90
        5
176
     1
 40
0.0
176
     1
 90
        0
176
     1
290
     0
176
     1
290
     1
176
     1
290
     1
176
     1
290
     0
176
     1
290
     0
176
     1
290
     0
176
     1
290
     0
176
     1
290
     0
176
     1
290
     0
176
     1
 90
       50
176
     1
 40
0.0
176
     1
 40
1.0
176
     1
 90
        0
176
     1
 62
   178
420
        0
176
     1
 90
       50
176
     1
 90
        3
176
     1
 62
     5
420
      255
176
     1
290
     0
176
     1
 90
       50
176
     1
 90
       50
176
     1
 90
       50
176
     1
290
     0
176
     1
 90
       50
176
     1
 62
   256
176
     0
 40
1.0
176
     0
 90
        2
176
     1
  1
strokes_ogs.tif
176
     1
290
     0
176
     1
 40
1.0
176
     1
 40
1.0
176
     1
  0
VISUALSTYLE
  5
E8
102
{ACAD_REACTORS
330
99
102
}
330
99
100
AcDbVisualStyle
  2
Shades of Gray
 70
    23
177
     3
291
     0
 70
    58
 90
        2
176
     1
 90
        2
176
     1
 90
        3
176
     1
 90
        0
176
     1
 40
0.6
176
     1
 40
30.0
176
     1
 62
     7
420
 16777215
176
     1
 90
        2
176
     1
 90
        2
176
     1
 62
     7
176
     1
 62
     7
176
     1
 90
        1
176
     1
 90
        1
176
     1
 40
40.0
176
     1
 90
        8
176
     1
 62
     7
176
     1
 40
1.0
176
     1
 90
        1
176
     1
 90
        6
176
     1
 90
        2
176
     1
 62
     7
176
     1
 90
        3
176
     1
 90
        0
176
     1
 90
        0
176
     1
290
     0
176
     1
 90
        1
176
     1
 40
0.0
176
     1
 90
        0
176
     1
290
     0
176
     1
290
     1
176
     1
290
     1
176
     1
290
     0
176
     1
290
     0
176
     1
290
     0
176
     1
290
     0
176
     1
290
     0
176
     1
290
     0
176
     1
 90
       50
176
     1
 40
0.0
176
     1
 40
1.0
176
     1
 90
        0
176
     1
 62
   178
420
        0
176
     1
 90
       50
176
     1
 90
        3
176
     1
 62
     5
420
      255
176
     1
290
     0
176
     1
 90
       50
176
     1
 90
       50
176
     1
 90
       50
176
     1
290
     0
176
     1
 90
       50
176
     1
 62
   256
176
     0
 40
1.0
176
     0
 90
        2
176
     1
  1
strokes_ogs.tif
176
     1
290
     0
176
     1
 40
1.0
176
     1
 40
1.0
176
     1
  0
VISUALSTYLE
  5
E9
102
{ACAD_REACTORS
330
99
102
}
330
99
100
AcDbVisualStyle
  2
Sketchy
 70
    24
177
     3
291
     0
 70
    58
 90
        1
176
     1
 90
        2
176
     1
 90
        2
176
     1
 90
        0
176
     1
 40
0.6
176
     1
 40
30.0
176
     1
 62
     7
420
 16777215
176
     1
 90
        2
176
     1
 90
        2
176
     1
 62
     7
176
     1
 62
     7
176
     1
 90
        1
176
     1
 90
        1
176
     1
 40
40.0
176
     1
 90
       11
176
     1
 62
     7
176
     1
 40
1.0
176
     1
 90
        1
176
     1
 90
        6
176
     1
 90
        2
176
     1
 62
     7
176
     1
 90
        6
176
     1
 90
        0
176
     1
 90
        0
176
     1
290
     0
176
     1
 90
        1
176
     1
 40
0.0
176
     1
 90
        0
176
     1
290
     0
176
     1
290
     1
176
     1
290
     1
176
     1
290
     0
176
     1
290
     0
176
     1
290
     0
176
     1
290
     0
176
     1
290
     0
176
     1
290
     0
176
     1
 90
       50
176
     1
 40
0.0
176
     1
 40
1.0
176
     1
 90
        0
176
     1
 62
   178
420
        0
176
     1
 90
       50
176
     1
 90
        3
176
     1
 62
     5
420
      255
176
     1
290
     0
176
     1
 90
       50
176
     1
 90
       50
176
     1
 90
       50
176
     1
290
     0
176
     1
 90
       50
176
     1
 62
   256
176
     0
 40
1.0
176
     0
 90
        2
176
     1
  1
strokes_ogs.tif
176
     1
290
     0
176
     1
 40
1.0
176
     1
 40
1.0
176
     1
  0
VISUALSTYLE
  5
A6
102
{ACAD_REACTORS
330
99
102
}
330
99
100
AcDbVisualStyle
  2
Thicken
 70
    13
177
     3
291
     1
 70
    58
 90
        2
176
     1
 90
        2
176
     1
 90
        1
176
     1
 90
        0
176
     1
 40
-0.6
176
     1
 40
-30.0
176
     1
 62
     7
420
 16777215
176
     1
 90
        1
176
     1
 90
        4
176
     1
 62
     7
176
     1
 62
   257
176
     1
 90
        1
176
     1
 90
        1
176
     1
 40
1.0
176
     1
 90
       12
176
     1
 62
     7
176
     1
 40
1.0
176
     1
 90
        1
176
     1
 90
        6
176
     1
 90
        2
176
     1
 62
     7
176
     1
 90
        5
176
     1
 90
        0
176
     1
 90
        0
176
     1
290
     0
176
     1
 90
        1
176
     1
 40
0.0
176
     1
 90
        0
176
     1
290
     0
176
     1
290
     1
176
     1
290
     1
176
     1
290
     0
176
     1
290
     0
176
     1
290
     0
176
     1
290
     0
176
     1
290
     0
176
     1
290
     0
176
     1
 90
       50
176
     1
 40
0.0
176
     1
 40
1.0
176
     1
 90
        0
176
     1
 62
   178
420
        0
176
     1
 90
       50
176
     1
 90
        3
176
     1
 62
     5
420
      255
176
     1
290
     0
176
     1
 90
       50
176
     1
 90
       50
176
     1
 90
       50
176
     1
290
     0
176
     1
 90
       50
176
     1
 62
   256
176
     0
 40
1.0
176
     0
 90
        2
176
     1
  1
strokes_ogs.tif
176
     1
290
     0
176
     1
 40
1.0
176
     1
 40
1.0
176
     1
  0
VISUALSTYLE
  5
E3
102
{ACAD_REACTORS
330
99
102
}
330
99
100
AcDbVisualStyle
  2
Wireframe
 70
     5
177
     3
291
     0
 70
    58
 90
        0
176
     1
 90
        2
176
     1
 90
        0
176
     1
 90
        0
176
     1
 40
0.6
176
     1
 40
30.0
176
     1
 62
     7
420
 16777215
176
     1
 90
        1
176
     1
 90
        4
176
     1
 62
     7
176
     1
 62
   257
176
     1
 90
        1
176
     1
 90
        1
176
     1
 40
1.0
176
     1
 90
        0
176
     1
 62
   257
176
     1
 40
1.0
176
     1
 90
        1
176
     1
 90
        6
176
     1
 90
        2
176
     1
 62
     7
176
     1
 90
        3
176
     1
 90
        0
176
     1
 90
        0
176
     1
290
     0
176
     1
 90
        1
176
     1
 40
0.0
176
     1
 90
        0
176
     1
290
     0
176
     1
290
     1
176
     1
290
     1
176
     1
290
     0
176
     1
290
     0
176
     1
290
     0
176
     1
290
     0
176
     1
290
     0
176
     1
290
     0
176
     1
 90
       50
176
     1
 40
0.0
176
     1
 40
1.0
176
     1
 90
        0
176
     1
 62
   178
420
        0
176
     1
 90
       50
176
     1
 90
        3
176
     1
 62
     5
420
      255
176
     1
290
     0
176
     1
 90
       50
176
     1
 90
       50
176
     1
 90
       50
176
     1
290
     0
176
     1
 90
       50
176
     1
 62
   256
176
     0
 40
1.0
176
     0
 90
        2
176
     1
  1
strokes_ogs.tif
176
     1
290
     0
176
     1
 40
1.0
176
     1
 40
1.0
176
     1
  0
VISUALSTYLE
  5
EA
102
{ACAD_REACTORS
330
99
102
}
330
99
100
AcDbVisualStyle
  2
X-Ray
 70
    25
177
     3
291
     0
 70
    58
 90
        2
176
     1
 90
        2
176
     1
 90
        1
176
     1
 90
        1
176
     1
 40
0.5
176
     1
 40
30.0
176
     1
 62
     7
420
 16777215
176
     1
 90
        1
176
     1
 90
        0
176
     1
 62
     7
176
     1
 62
   257
176
     1
 90
        1
176
     1
 90
        1
176
     1
 40
1.0
176
     1
 90
        8
176
     1
 62
     7
176
     1
 40
1.0
176
     1
 90
        1
176
     1
 90
        6
176
     1
 90
        2
176
     1
 62
     7
176
     1
 90
        3
176
     1
 90
        0
176
     1
 90
        0
176
     1
290
     0
176
     1
 90
       13
176
     1
 40
0.0
176
     1
 90
        0
176
     1
290
     0
176
     1
290
     1
176
     1
290
     1
176
     1
290
     0
176
     1
290
     0
176
     1
290
     0
176
     1
290
     0
176
     1
290
     0
176
     1
290
     0
176
     1
 90
       50
176
     1
 40
0.0
176
     1
 40
1.0
176
     1
 90
        0
176
     1
 62
   178
420
        0
176
     1
 90
       50
176
     1
 90
        3
176
     1
 62
     5
420
      255
176
     1
290
     0
176
     1
 90
       50
176
     1
 90
       50
176
     1
 90
       50
176
     1
290
     0
176
     1
 90
       50
176
     1
 62
   256
176
     0
 40
1.0
176
     0
 90
        2
176
     1
  1
strokes_ogs.tif
176
     1
290
     0
176
     1
 40
1.0
176
     1
 40
1.0
176
     1
  0
DICTIONARYVAR
  5
D8
102
{ACAD_REACTORS
330
66
102
}
330
66
100
DictionaryVariables
280
     0
  1
1:1
  0
DICTIONARYVAR
  5
128
102
{ACAD_REACTORS
330
66
102
}
330
66
100
DictionaryVariables
280
     0
  1
Standard
  0
DICTIONARYVAR
  5
89
102
{ACAD_REACTORS
330
66
102
}
330
66
100
DictionaryVariables
280
     0
  1
Standard
  0
DICTIONARYVAR
  5
67
102
{ACAD_REACTORS
330
66
102
}
330
66
100
DictionaryVariables
280
     0
  1
2
  0
DICTIONARYVAR
  5
6B
102
{ACAD_REACTORS
330
66
102
}
330
66
100
DictionaryVariables
280
     0
  1
1
  0
DICTIONARYVAR
  5
DF
102
{ACAD_REACTORS
330
66
102
}
330
66
100
DictionaryVariables
280
     0
  1
0
  0
DICTIONARYVAR
  5
E0
102
{ACAD_REACTORS
330
66
102
}
330
66
100
DictionaryVariables
280
     0
  1
0
  0
DICTIONARY
  5
DAD
330
87
100
AcDbDictionary
280
     1
281
     1
  3
ACAD_ROUNDTRIP_2008_TABLESTYLE_CELLSTYLEMAP
360
DAE
  0
CELLSTYLEMAP
  5
DAE
102
{ACAD_REACTORS
330
DAD
102
}
330
DAD
100
AcDbCellStyleMap
 90
        3
300
CELLSTYLE
  1
TABLEFORMAT_BEGIN
 90
        5
170
     1
 91
        0
 92
    32768
 62
   257
 93
        1
300
CONTENTFORMAT
  1
CONTENTFORMAT_BEGIN
 90
        0
 91
        0
 92
      512
 93
        0
300

 40
0.0
140
1.0
 94
        5
 62
     0
340
11
144
0.25
309
CONTENTFORMAT_END
171
     0
 94
        6
 95
        1
302
GRIDFORMAT
  1
GRIDFORMAT_BEGIN
 90
        0
 91
        1
 62
     0
 92
       -2
340
0
 93
        0
 40
0.045
309
GRIDFORMAT_END
 95
        2
302
GRIDFORMAT
  1
GRIDFORMAT_BEGIN
 90
        0
 91
        1
 62
     0
 92
       -2
340
0
 93
        0
 40
0.045
309
GRIDFORMAT_END
 95
        4
302
GRIDFORMAT
  1
GRIDFORMAT_BEGIN
 90
        0
 91
        1
 62
     0
 92
       -2
340
0
 93
        0
 40
0.045
309
GRIDFORMAT_END
 95
        8
302
GRIDFORMAT
  1
GRIDFORMAT_BEGIN
 90
        0
 91
        1
 62
     0
 92
       -2
340
0
 93
        0
 40
0.045
309
GRIDFORMAT_END
 95
       16
302
GRIDFORMAT
  1
GRIDFORMAT_BEGIN
 90
        0
 91
        1
 62
     0
 92
       -2
340
0
 93
        0
 40
0.045
309
GRIDFORMAT_END
 95
       32
302
GRIDFORMAT
  1
GRIDFORMAT_BEGIN
 90
        0
 91
        1
 62
     0
 92
       -2
340
0
 93
        0
 40
0.045
309
GRIDFORMAT_END
309
TABLEFORMAT_END
  1
CELLSTYLE_BEGIN
 90
        1
 91
        1
300
_TITLE
309
CELLSTYLE_END
300
CELLSTYLE
  1
TABLEFORMAT_BEGIN
 90
        5
170
     1
 91
        0
 92
        0
 62
   257
 93
        1
300
CONTENTFORMAT
  1
CONTENTFORMAT_BEGIN
 90
        0
 91
        0
 92
      512
 93
        0
300

 40
0.0
140
1.0
 94
        5
 62
     0
340
11
144
0.18
309
CONTENTFORMAT_END
171
     0
 94
        6
 95
        1
302
GRIDFORMAT
  1
GRIDFORMAT_BEGIN
 90
        0
 91
        1
 62
     0
 92
       -2
340
0
 93
        0
 40
0.045
309
GRIDFORMAT_END
 95
        2
302
GRIDFORMAT
  1
GRIDFORMAT_BEGIN
 90
        0
 91
        1
 62
     0
 92
       -2
340
0
 93
        0
 40
0.045
309
GRIDFORMAT_END
 95
        4
302
GRIDFORMAT
  1
GRIDFORMAT_BEGIN
 90
        0
 91
        1
 62
     0
 92
       -2
340
0
 93
        0
 40
0.045
309
GRIDFORMAT_END
 95
        8
302
GRIDFORMAT
  1
GRIDFORMAT_BEGIN
 90
        0
 91
        1
 62
     0
 92
       -2
340
0
 93
        0
 40
0.045
309
GRIDFORMAT_END
 95
       16
302
GRIDFORMAT
  1
GRIDFORMAT_BEGIN
 90
        0
 91
        1
 62
     0
 92
       -2
340
0
 93
        0
 40
0.045
309
GRIDFORMAT_END
 95
       32
302
GRIDFORMAT
  1
GRIDFORMAT_BEGIN
 90
        0
 91
        1
 62
     0
 92
       -2
340
0
 93
        0
 40
0.045
309
GRIDFORMAT_END
309
TABLEFORMAT_END
  1
CELLSTYLE_BEGIN
 90
        2
 91
        1
300
_HEADER
309
CELLSTYLE_END
300
CELLSTYLE
  1
TABLEFORMAT_BEGIN
 90
        5
170
     1
 91
        0
 92
        0
 62
   257
 93
        1
300
CONTENTFORMAT
  1
CONTENTFORMAT_BEGIN
 90
        0
 91
        0
 92
      512
 93
        0
300

 40
0.0
140
1.0
 94
        2
 62
     0
340
11
144
0.18
309
CONTENTFORMAT_END
171
     0
 94
        6
 95
        1
302
GRIDFORMAT
  1
GRIDFORMAT_BEGIN
 90
        0
 91
        1
 62
     0
 92
       -2
340
0
 93
        0
 40
0.045
309
GRIDFORMAT_END
 95
        2
302
GRIDFORMAT
  1
GRIDFORMAT_BEGIN
 90
        0
 91
        1
 62
     0
 92
       -2
340
0
 93
        0
 40
0.045
309
GRIDFORMAT_END
 95
        4
302
GRIDFORMAT
  1
GRIDFORMAT_BEGIN
 90
        0
 91
        1
 62
     0
 92
       -2
340
0
 93
        0
 40
0.045
309
GRIDFORMAT_END
 95
        8
302
GRIDFORMAT
  1
GRIDFORMAT_BEGIN
 90
        0
 91
        1
 62
     0
 92
       -2
340
0
 93
        0
 40
0.045
309
GRIDFORMAT_END
 95
       16
302
GRIDFORMAT
  1
GRIDFORMAT_BEGIN
 90
        0
 91
        1
 62
     0
 92
       -2
340
0
 93
        0
 40
0.045
309
GRIDFORMAT_END
 95
       32
302
GRIDFORMAT
  1
GRIDFORMAT_BEGIN
 90
        0
 91
        1
 62
     0
 92
       -2
340
0
 93
        0
 40
0.045
309
GRIDFORMAT_END
309
TABLEFORMAT_END
  1
CELLSTYLE_BEGIN
 90
        3
 91
        2
300
_DATA
309
CELLSTYLE_END
  0
ENDSEC
  0
EOF
