DBRep_DrawableShape

CASCADE Topology V1, (c) Matra-Datavision
Locations 1
1
              1               0               0               0 
              0               1               0               0 
              0               0               1               0 
Curve2ds 8
1 0 0 0 -1 
1 6.2831853071795862 0 0 -1 
1 0 0 1 0 
1 0 -16 1 0 
1 0 0 0 -1 
1 6.2831853071795862 0 0 -1 
1 0 0 1 0 
1 0 -16 1 0 
Curves 6
1 1.5 80 -5.4000000000000004 0 0 1 
2 0 80 -5.4000000000000004 0 0 1 1 0 -0 -0 1 0 1.5
2 0 80 10.6 0 0 1 1 0 -0 -0 1 0 1.5
1 21.5 -80 -5.4000000000000004 0 0 1 
2 20 -80 -5.4000000000000004 0 0 1 1 0 -0 -0 1 0 1.5
2 20 -80 10.6 0 0 1 1 0 -0 -0 1 0 1.5
Polygon3D 0
PolygonOnTriangulations 0
Surfaces 6
2 0 80 -5.4000000000000004 -0 -0 -1 1 0 -0 -0 1 0 1.5
1 -1.1395334437828526e-16 80 -5.4000000000000004 0 0 1 1 0 -0 -0 1 0 
1 -1.1395334437828526e-16 80 10.6 0 0 1 1 0 -0 -0 1 0 
2 20 -80 -5.4000000000000004 -0 -0 -1 1 0 -0 -0 1 0 1.5
1 20 -80 -5.4000000000000004 0 0 1 1 0 -0 -0 1 0 
1 20 -80 10.6 0 0 1 1 0 -0 -0 1 0 
Triangulations 0

TShapes 28
Ve
1e-07
1.5 80 -5.4
0 0

0101101
*
Ve
1e-07
1.5 80 10.6
0 0

0101101
*
Ed
 1e-07 1 1 0
1  1 0 0 16
3  1 2CN 1 0 0 16
0

0101000
+28 0 -27 0 *
Ed
 1e-07 1 1 0
1  2 0 0 6.28318530717959
2  3 1 0 0 6.28318530717959
0

0101000
+28 0 -28 0 *
Ed
 1e-07 1 1 0
1  3 0 0 6.28318530717959
2  4 1 0 0 6.28318530717959
0

0101000
+27 0 -27 0 *
Wi

0101100
+26 0 -26 0 -25 0 +24 0 *
Fa
0  1e-07 1 0

0101000
+23 0 *
Wi

0101100
+25 0 *
Fa
0  1e-07 2 0

0101000
+21 0 *
Wi

0101100
+24 0 *
Fa
0  1e-07 3 0

0101000
+19 0 *
Sh

0101100
+22 0 +20 0 -18 0 *
So

0100000
-17 0 *
Ve
1e-07
21.5 -80 -5.4
0 0

0101101
*
Ve
1e-07
21.5 -80 10.6
0 0

0101101
*
Ed
 1e-07 1 1 0
1  4 0 0 16
3  5 6CN 4 0 0 16
0

0101000
+15 0 -14 0 *
Ed
 1e-07 1 1 0
1  5 0 0 6.28318530717959
2  7 4 0 0 6.28318530717959
0

0101000
+15 0 -15 0 *
Ed
 1e-07 1 1 0
1  6 0 0 6.28318530717959
2  8 4 0 0 6.28318530717959
0

0101000
+14 0 -14 0 *
Wi

0101100
+13 0 -13 0 -12 0 +11 0 *
Fa
0  1e-07 4 0

0101000
+10 0 *
Wi

0101100
+12 0 *
Fa
0  1e-07 5 0

0101000
+8 0 *
Wi

0101100
+11 0 *
Fa
0  1e-07 6 0

0101000
+6 0 *
Sh

0101100
+9 0 +7 0 -5 0 *
So

0100000
-4 0 *
Co

0100000
+16 0 +3 0 *
Co

1100000
+2 0 *

+1 1 