DBRep_DrawableShape

CASCADE Topology V1, (c) Matra-Datavision
Locations 1
1
              1               0               0               0 
              0               1               0               0 
              0               0               1               0 
Curve2ds 0
Curves 240
1 -55 -70.5 2.0063999999999997 0 0 1 
1 -55 -45.5 2.0063999999999997 0 0 1 
1 -55 -70.5 2.0063999999999997 0 1 0 
1 -55 -70.5 3.1063999999999998 0 1 0 
1 -30 -45.5 2.0063999999999997 0 0 1 
1 -55 -45.5 2.0063999999999997 1 0 0 
1 -55 -45.5 3.1063999999999998 1 0 0 
1 -30 -70.5 2.0063999999999997 0 0 1 
1 -30 -45.5 2.0063999999999997 0 -1 0 
1 -30 -45.5 3.1063999999999998 0 -1 0 
1 -30 -70.5 2.0063999999999997 -1 0 0 
1 -30 -70.5 3.1063999999999998 -1 0 0 
1 -20 -70.5 2.0063999999999997 0 0 1 
1 -20 -45.5 2.0063999999999997 0 0 1 
1 -20 -70.5 2.0063999999999997 0 1 0 
1 -20 -70.5 3.1063999999999998 0 1 0 
1 5 -45.5 2.0063999999999997 0 0 1 
1 -20 -45.5 2.0063999999999997 1 0 0 
1 -20 -45.5 3.1063999999999998 1 0 0 
1 5 -70.5 2.0063999999999997 0 0 1 
1 5 -45.5 2.0063999999999997 0 -1 0 
1 5 -45.5 3.1063999999999998 0 -1 0 
1 5 -70.5 2.0063999999999997 -1 0 0 
1 5 -70.5 3.1063999999999998 -1 0 0 
1 15 -70.5 2.0063999999999997 0 0 1 
1 15 -45.5 2.0063999999999997 0 0 1 
1 15 -70.5 2.0063999999999997 0 1 0 
1 15 -70.5 3.1063999999999998 0 1 0 
1 40 -45.5 2.0063999999999997 0 0 1 
1 15 -45.5 2.0063999999999997 1 0 0 
1 15 -45.5 3.1063999999999998 1 0 0 
1 40 -70.5 2.0063999999999997 0 0 1 
1 40 -45.5 2.0063999999999997 0 -1 0 
1 40 -45.5 3.1063999999999998 0 -1 0 
1 40 -70.5 2.0063999999999997 -1 0 0 
1 40 -70.5 3.1063999999999998 -1 0 0 
1 50 -70.5 2.0063999999999997 0 0 1 
1 50 -45.5 2.0063999999999997 0 0 1 
1 50 -70.5 2.0063999999999997 0 1 0 
1 50 -70.5 3.1063999999999998 0 1 0 
1 75 -45.5 2.0063999999999997 0 0 1 
1 50 -45.5 2.0063999999999997 1 0 0 
1 50 -45.5 3.1063999999999998 1 0 0 
1 75 -70.5 2.0063999999999997 0 0 1 
1 75 -45.5 2.0063999999999997 0 -1 0 
1 75 -45.5 3.1063999999999998 0 -1 0 
1 75 -70.5 2.0063999999999997 -1 0 0 
1 75 -70.5 3.1063999999999998 -1 0 0 
1 -55 -41.5 2.0063999999999997 0 0 1 
1 -55 -16.5 2.0063999999999997 0 0 1 
1 -55 -41.5 2.0063999999999997 0 1 0 
1 -55 -41.5 3.1063999999999998 0 1 0 
1 -30 -16.5 2.0063999999999997 0 0 1 
1 -55 -16.5 2.0063999999999997 1 0 0 
1 -55 -16.5 3.1063999999999998 1 0 0 
1 -30 -41.5 2.0063999999999997 0 0 1 
1 -30 -16.5 2.0063999999999997 0 -1 0 
1 -30 -16.5 3.1063999999999998 0 -1 0 
1 -30 -41.5 2.0063999999999997 -1 0 0 
1 -30 -41.5 3.1063999999999998 -1 0 0 
1 -20 -41.5 2.0063999999999997 0 0 1 
1 -20 -16.5 2.0063999999999997 0 0 1 
1 -20 -41.5 2.0063999999999997 0 1 0 
1 -20 -41.5 3.1063999999999998 0 1 0 
1 5 -16.5 2.0063999999999997 0 0 1 
1 -20 -16.5 2.0063999999999997 1 0 0 
1 -20 -16.5 3.1063999999999998 1 0 0 
1 5 -41.5 2.0063999999999997 0 0 1 
1 5 -16.5 2.0063999999999997 0 -1 0 
1 5 -16.5 3.1063999999999998 0 -1 0 
1 5 -41.5 2.0063999999999997 -1 0 0 
1 5 -41.5 3.1063999999999998 -1 0 0 
1 15 -41.5 2.0063999999999997 0 0 1 
1 15 -16.5 2.0063999999999997 0 0 1 
1 15 -41.5 2.0063999999999997 0 1 0 
1 15 -41.5 3.1063999999999998 0 1 0 
1 40 -16.5 2.0063999999999997 0 0 1 
1 15 -16.5 2.0063999999999997 1 0 0 
1 15 -16.5 3.1063999999999998 1 0 0 
1 40 -41.5 2.0063999999999997 0 0 1 
1 40 -16.5 2.0063999999999997 0 -1 0 
1 40 -16.5 3.1063999999999998 0 -1 0 
1 40 -41.5 2.0063999999999997 -1 0 0 
1 40 -41.5 3.1063999999999998 -1 0 0 
1 50 -41.5 2.0063999999999997 0 0 1 
1 50 -16.5 2.0063999999999997 0 0 1 
1 50 -41.5 2.0063999999999997 0 1 0 
1 50 -41.5 3.1063999999999998 0 1 0 
1 75 -16.5 2.0063999999999997 0 0 1 
1 50 -16.5 2.0063999999999997 1 0 0 
1 50 -16.5 3.1063999999999998 1 0 0 
1 75 -41.5 2.0063999999999997 0 0 1 
1 75 -16.5 2.0063999999999997 0 -1 0 
1 75 -16.5 3.1063999999999998 0 -1 0 
1 75 -41.5 2.0063999999999997 -1 0 0 
1 75 -41.5 3.1063999999999998 -1 0 0 
1 -55 -12.5 2.0063999999999997 0 0 1 
1 -55 12.5 2.0063999999999997 0 0 1 
1 -55 -12.5 2.0063999999999997 0 1 0 
1 -55 -12.5 3.1063999999999998 0 1 0 
1 -30 12.5 2.0063999999999997 0 0 1 
1 -55 12.5 2.0063999999999997 1 0 0 
1 -55 12.5 3.1063999999999998 1 0 0 
1 -30 -12.5 2.0063999999999997 0 0 1 
1 -30 12.5 2.0063999999999997 0 -1 0 
1 -30 12.5 3.1063999999999998 0 -1 0 
1 -30 -12.5 2.0063999999999997 -1 0 0 
1 -30 -12.5 3.1063999999999998 -1 0 0 
1 -20 -12.5 2.0063999999999997 0 0 1 
1 -20 12.5 2.0063999999999997 0 0 1 
1 -20 -12.5 2.0063999999999997 0 1 0 
1 -20 -12.5 3.1063999999999998 0 1 0 
1 5 12.5 2.0063999999999997 0 0 1 
1 -20 12.5 2.0063999999999997 1 0 0 
1 -20 12.5 3.1063999999999998 1 0 0 
1 5 -12.5 2.0063999999999997 0 0 1 
1 5 12.5 2.0063999999999997 0 -1 0 
1 5 12.5 3.1063999999999998 0 -1 0 
1 5 -12.5 2.0063999999999997 -1 0 0 
1 5 -12.5 3.1063999999999998 -1 0 0 
1 15 -12.5 2.0063999999999997 0 0 1 
1 15 12.5 2.0063999999999997 0 0 1 
1 15 -12.5 2.0063999999999997 0 1 0 
1 15 -12.5 3.1063999999999998 0 1 0 
1 40 12.5 2.0063999999999997 0 0 1 
1 15 12.5 2.0063999999999997 1 0 0 
1 15 12.5 3.1063999999999998 1 0 0 
1 40 -12.5 2.0063999999999997 0 0 1 
1 40 12.5 2.0063999999999997 0 -1 0 
1 40 12.5 3.1063999999999998 0 -1 0 
1 40 -12.5 2.0063999999999997 -1 0 0 
1 40 -12.5 3.1063999999999998 -1 0 0 
1 50 -12.5 2.0063999999999997 0 0 1 
1 50 12.5 2.0063999999999997 0 0 1 
1 50 -12.5 2.0063999999999997 0 1 0 
1 50 -12.5 3.1063999999999998 0 1 0 
1 75 12.5 2.0063999999999997 0 0 1 
1 50 12.5 2.0063999999999997 1 0 0 
1 50 12.5 3.1063999999999998 1 0 0 
1 75 -12.5 2.0063999999999997 0 0 1 
1 75 12.5 2.0063999999999997 0 -1 0 
1 75 12.5 3.1063999999999998 0 -1 0 
1 75 -12.5 2.0063999999999997 -1 0 0 
1 75 -12.5 3.1063999999999998 -1 0 0 
1 -55 16.5 2.0063999999999997 0 0 1 
1 -55 41.5 2.0063999999999997 0 0 1 
1 -55 16.5 2.0063999999999997 0 1 0 
1 -55 16.5 3.1063999999999998 0 1 0 
1 -30 41.5 2.0063999999999997 0 0 1 
1 -55 41.5 2.0063999999999997 1 0 0 
1 -55 41.5 3.1063999999999998 1 0 0 
1 -30 16.5 2.0063999999999997 0 0 1 
1 -30 41.5 2.0063999999999997 0 -1 0 
1 -30 41.5 3.1063999999999998 0 -1 0 
1 -30 16.5 2.0063999999999997 -1 0 0 
1 -30 16.5 3.1063999999999998 -1 0 0 
1 -20 16.5 2.0063999999999997 0 0 1 
1 -20 41.5 2.0063999999999997 0 0 1 
1 -20 16.5 2.0063999999999997 0 1 0 
1 -20 16.5 3.1063999999999998 0 1 0 
1 5 41.5 2.0063999999999997 0 0 1 
1 -20 41.5 2.0063999999999997 1 0 0 
1 -20 41.5 3.1063999999999998 1 0 0 
1 5 16.5 2.0063999999999997 0 0 1 
1 5 41.5 2.0063999999999997 0 -1 0 
1 5 41.5 3.1063999999999998 0 -1 0 
1 5 16.5 2.0063999999999997 -1 0 0 
1 5 16.5 3.1063999999999998 -1 0 0 
1 15 16.5 2.0063999999999997 0 0 1 
1 15 41.5 2.0063999999999997 0 0 1 
1 15 16.5 2.0063999999999997 0 1 0 
1 15 16.5 3.1063999999999998 0 1 0 
1 40 41.5 2.0063999999999997 0 0 1 
1 15 41.5 2.0063999999999997 1 0 0 
1 15 41.5 3.1063999999999998 1 0 0 
1 40 16.5 2.0063999999999997 0 0 1 
1 40 41.5 2.0063999999999997 0 -1 0 
1 40 41.5 3.1063999999999998 0 -1 0 
1 40 16.5 2.0063999999999997 -1 0 0 
1 40 16.5 3.1063999999999998 -1 0 0 
1 50 16.5 2.0063999999999997 0 0 1 
1 50 41.5 2.0063999999999997 0 0 1 
1 50 16.5 2.0063999999999997 0 1 0 
1 50 16.5 3.1063999999999998 0 1 0 
1 75 41.5 2.0063999999999997 0 0 1 
1 50 41.5 2.0063999999999997 1 0 0 
1 50 41.5 3.1063999999999998 1 0 0 
1 75 16.5 2.0063999999999997 0 0 1 
1 75 41.5 2.0063999999999997 0 -1 0 
1 75 41.5 3.1063999999999998 0 -1 0 
1 75 16.5 2.0063999999999997 -1 0 0 
1 75 16.5 3.1063999999999998 -1 0 0 
1 -55 45.5 2.0063999999999997 0 0 1 
1 -55 70.5 2.0063999999999997 0 0 1 
1 -55 45.5 2.0063999999999997 0 1 0 
1 -55 45.5 3.1063999999999998 0 1 0 
1 -30 70.5 2.0063999999999997 0 0 1 
1 -55 70.5 2.0063999999999997 1 0 0 
1 -55 70.5 3.1063999999999998 1 0 0 
1 -30 45.5 2.0063999999999997 0 0 1 
1 -30 70.5 2.0063999999999997 0 -1 0 
1 -30 70.5 3.1063999999999998 0 -1 0 
1 -30 45.5 2.0063999999999997 -1 0 0 
1 -30 45.5 3.1063999999999998 -1 0 0 
1 -20 45.5 2.0063999999999997 0 0 1 
1 -20 70.5 2.0063999999999997 0 0 1 
1 -20 45.5 2.0063999999999997 0 1 0 
1 -20 45.5 3.1063999999999998 0 1 0 
1 5 70.5 2.0063999999999997 0 0 1 
1 -20 70.5 2.0063999999999997 1 0 0 
1 -20 70.5 3.1063999999999998 1 0 0 
1 5 45.5 2.0063999999999997 0 0 1 
1 5 70.5 2.0063999999999997 0 -1 0 
1 5 70.5 3.1063999999999998 0 -1 0 
1 5 45.5 2.0063999999999997 -1 0 0 
1 5 45.5 3.1063999999999998 -1 0 0 
1 15 45.5 2.0063999999999997 0 0 1 
1 15 70.5 2.0063999999999997 0 0 1 
1 15 45.5 2.0063999999999997 0 1 0 
1 15 45.5 3.1063999999999998 0 1 0 
1 40 70.5 2.0063999999999997 0 0 1 
1 15 70.5 2.0063999999999997 1 0 0 
1 15 70.5 3.1063999999999998 1 0 0 
1 40 45.5 2.0063999999999997 0 0 1 
1 40 70.5 2.0063999999999997 0 -1 0 
1 40 70.5 3.1063999999999998 0 -1 0 
1 40 45.5 2.0063999999999997 -1 0 0 
1 40 45.5 3.1063999999999998 -1 0 0 
1 50 45.5 2.0063999999999997 0 0 1 
1 50 70.5 2.0063999999999997 0 0 1 
1 50 45.5 2.0063999999999997 0 1 0 
1 50 45.5 3.1063999999999998 0 1 0 
1 75 70.5 2.0063999999999997 0 0 1 
1 50 70.5 2.0063999999999997 1 0 0 
1 50 70.5 3.1063999999999998 1 0 0 
1 75 45.5 2.0063999999999997 0 0 1 
1 75 70.5 2.0063999999999997 0 -1 0 
1 75 70.5 3.1063999999999998 0 -1 0 
1 75 45.5 2.0063999999999997 -1 0 0 
1 75 45.5 3.1063999999999998 -1 0 0 
Polygon3D 0
PolygonOnTriangulations 0
Surfaces 120
1 -55 -70.5 2.0063999999999997 -1 0 0 0 1 0 0 0 -1 
1 -55 -45.5 2.0063999999999997 0 1 0 1 0 0 0 0 -1 
1 -30 -45.5 2.0063999999999997 1 0 -0 0 -1 0 0 -0 -1 
1 -30 -70.5 2.0063999999999997 0 -1 0 -1 0 0 -0 -0 -1 
1 -42.5 -58 2.0063999999999997 -0 -0 -1 -1 0 0 0 1 -0 
1 -42.5 -58 3.1063999999999998 -0 -0 -1 -1 0 0 0 1 -0 
1 -20 -70.5 2.0063999999999997 -1 0 0 0 1 0 0 0 -1 
1 -20 -45.5 2.0063999999999997 0 1 0 1 0 0 0 0 -1 
1 5 -45.5 2.0063999999999997 1 0 -0 0 -1 0 0 -0 -1 
1 5 -70.5 2.0063999999999997 0 -1 0 -1 0 0 -0 -0 -1 
1 -7.5 -58 2.0063999999999997 -0 -0 -1 -1 0 0 0 1 -0 
1 -7.5 -58 3.1063999999999998 -0 -0 -1 -1 0 0 0 1 -0 
1 15 -70.5 2.0063999999999997 -1 0 0 0 1 0 0 0 -1 
1 15 -45.5 2.0063999999999997 0 1 0 1 0 0 0 0 -1 
1 40 -45.5 2.0063999999999997 1 0 -0 0 -1 0 0 -0 -1 
1 40 -70.5 2.0063999999999997 0 -1 0 -1 0 0 -0 -0 -1 
1 27.5 -58 2.0063999999999997 -0 -0 -1 -1 0 0 0 1 -0 
1 27.5 -58 3.1063999999999998 -0 -0 -1 -1 0 0 0 1 -0 
1 50 -70.5 2.0063999999999997 -1 0 0 0 1 0 0 0 -1 
1 50 -45.5 2.0063999999999997 0 1 0 1 0 0 0 0 -1 
1 75 -45.5 2.0063999999999997 1 0 -0 0 -1 0 0 -0 -1 
1 75 -70.5 2.0063999999999997 0 -1 0 -1 0 0 -0 -0 -1 
1 62.5 -58 2.0063999999999997 -0 -0 -1 -1 0 0 0 1 -0 
1 62.5 -58 3.1063999999999998 -0 -0 -1 -1 0 0 0 1 -0 
1 -55 -41.5 2.0063999999999997 -1 0 0 0 1 0 0 0 -1 
1 -55 -16.5 2.0063999999999997 0 1 0 1 0 0 0 0 -1 
1 -30 -16.5 2.0063999999999997 1 0 -0 0 -1 0 0 -0 -1 
1 -30 -41.5 2.0063999999999997 0 -1 0 -1 0 0 -0 -0 -1 
1 -42.5 -29 2.0063999999999997 -0 -0 -1 -1 0 0 0 1 -0 
1 -42.5 -29 3.1063999999999998 -0 -0 -1 -1 0 0 0 1 -0 
1 -20 -41.5 2.0063999999999997 -1 0 0 0 1 0 0 0 -1 
1 -20 -16.5 2.0063999999999997 0 1 0 1 0 0 0 0 -1 
1 5 -16.5 2.0063999999999997 1 0 -0 0 -1 0 0 -0 -1 
1 5 -41.5 2.0063999999999997 0 -1 0 -1 0 0 -0 -0 -1 
1 -7.5 -29 2.0063999999999997 -0 -0 -1 -1 0 0 0 1 -0 
1 -7.5 -29 3.1063999999999998 -0 -0 -1 -1 0 0 0 1 -0 
1 15 -41.5 2.0063999999999997 -1 0 0 0 1 0 0 0 -1 
1 15 -16.5 2.0063999999999997 0 1 0 1 0 0 0 0 -1 
1 40 -16.5 2.0063999999999997 1 0 -0 0 -1 0 0 -0 -1 
1 40 -41.5 2.0063999999999997 0 -1 0 -1 0 0 -0 -0 -1 
1 27.5 -29 2.0063999999999997 -0 -0 -1 -1 0 0 0 1 -0 
1 27.5 -29 3.1063999999999998 -0 -0 -1 -1 0 0 0 1 -0 
1 50 -41.5 2.0063999999999997 -1 0 0 0 1 0 0 0 -1 
1 50 -16.5 2.0063999999999997 0 1 0 1 0 0 0 0 -1 
1 75 -16.5 2.0063999999999997 1 0 -0 0 -1 0 0 -0 -1 
1 75 -41.5 2.0063999999999997 0 -1 0 -1 0 0 -0 -0 -1 
1 62.5 -29 2.0063999999999997 -0 -0 -1 -1 0 0 0 1 -0 
1 62.5 -29 3.1063999999999998 -0 -0 -1 -1 0 0 0 1 -0 
1 -55 -12.5 2.0063999999999997 -1 0 0 0 1 0 0 0 -1 
1 -55 12.5 2.0063999999999997 0 1 0 1 0 0 0 0 -1 
1 -30 12.5 2.0063999999999997 1 0 -0 0 -1 0 0 -0 -1 
1 -30 -12.5 2.0063999999999997 0 -1 0 -1 0 0 -0 -0 -1 
1 -42.5 0 2.0063999999999997 -0 -0 -1 -1 0 0 0 1 -0 
1 -42.5 0 3.1063999999999998 -0 -0 -1 -1 0 0 0 1 -0 
1 -20 -12.5 2.0063999999999997 -1 0 0 0 1 0 0 0 -1 
1 -20 12.5 2.0063999999999997 0 1 0 1 0 0 0 0 -1 
1 5 12.5 2.0063999999999997 1 0 -0 0 -1 0 0 -0 -1 
1 5 -12.5 2.0063999999999997 0 -1 0 -1 0 0 -0 -0 -1 
1 -7.5 0 2.0063999999999997 -0 -0 -1 -1 0 0 0 1 -0 
1 -7.5 0 3.1063999999999998 -0 -0 -1 -1 0 0 0 1 -0 
1 15 -12.5 2.0063999999999997 -1 0 0 0 1 0 0 0 -1 
1 15 12.5 2.0063999999999997 0 1 0 1 0 0 0 0 -1 
1 40 12.5 2.0063999999999997 1 0 -0 0 -1 0 0 -0 -1 
1 40 -12.5 2.0063999999999997 0 -1 0 -1 0 0 -0 -0 -1 
1 27.5 0 2.0063999999999997 -0 -0 -1 -1 0 0 0 1 -0 
1 27.5 0 3.1063999999999998 -0 -0 -1 -1 0 0 0 1 -0 
1 50 -12.5 2.0063999999999997 -1 0 0 0 1 0 0 0 -1 
1 50 12.5 2.0063999999999997 0 1 0 1 0 0 0 0 -1 
1 75 12.5 2.0063999999999997 1 0 -0 0 -1 0 0 -0 -1 
1 75 -12.5 2.0063999999999997 0 -1 0 -1 0 0 -0 -0 -1 
1 62.5 0 2.0063999999999997 -0 -0 -1 -1 0 0 0 1 -0 
1 62.5 0 3.1063999999999998 -0 -0 -1 -1 0 0 0 1 -0 
1 -55 16.5 2.0063999999999997 -1 0 0 0 1 0 0 0 -1 
1 -55 41.5 2.0063999999999997 0 1 0 1 0 0 0 0 -1 
1 -30 41.5 2.0063999999999997 1 0 -0 0 -1 0 0 -0 -1 
1 -30 16.5 2.0063999999999997 0 -1 0 -1 0 0 -0 -0 -1 
1 -42.5 29 2.0063999999999997 -0 -0 -1 -1 0 0 0 1 -0 
1 -42.5 29 3.1063999999999998 -0 -0 -1 -1 0 0 0 1 -0 
1 -20 16.5 2.0063999999999997 -1 0 0 0 1 0 0 0 -1 
1 -20 41.5 2.0063999999999997 0 1 0 1 0 0 0 0 -1 
1 5 41.5 2.0063999999999997 1 0 -0 0 -1 0 0 -0 -1 
1 5 16.5 2.0063999999999997 0 -1 0 -1 0 0 -0 -0 -1 
1 -7.5 29 2.0063999999999997 -0 -0 -1 -1 0 0 0 1 -0 
1 -7.5 29 3.1063999999999998 -0 -0 -1 -1 0 0 0 1 -0 
1 15 16.5 2.0063999999999997 -1 0 0 0 1 0 0 0 -1 
1 15 41.5 2.0063999999999997 0 1 0 1 0 0 0 0 -1 
1 40 41.5 2.0063999999999997 1 0 -0 0 -1 0 0 -0 -1 
1 40 16.5 2.0063999999999997 0 -1 0 -1 0 0 -0 -0 -1 
1 27.5 29 2.0063999999999997 -0 -0 -1 -1 0 0 0 1 -0 
1 27.5 29 3.1063999999999998 -0 -0 -1 -1 0 0 0 1 -0 
1 50 16.5 2.0063999999999997 -1 0 0 0 1 0 0 0 -1 
1 50 41.5 2.0063999999999997 0 1 0 1 0 0 0 0 -1 
1 75 41.5 2.0063999999999997 1 0 -0 0 -1 0 0 -0 -1 
1 75 16.5 2.0063999999999997 0 -1 0 -1 0 0 -0 -0 -1 
1 62.5 29 2.0063999999999997 -0 -0 -1 -1 0 0 0 1 -0 
1 62.5 29 3.1063999999999998 -0 -0 -1 -1 0 0 0 1 -0 
1 -55 45.5 2.0063999999999997 -1 0 0 0 1 0 0 0 -1 
1 -55 70.5 2.0063999999999997 0 1 0 1 0 0 0 0 -1 
1 -30 70.5 2.0063999999999997 1 0 -0 0 -1 0 0 -0 -1 
1 -30 45.5 2.0063999999999997 0 -1 0 -1 0 0 -0 -0 -1 
1 -42.5 58 2.0063999999999997 -0 -0 -1 -1 0 0 0 1 -0 
1 -42.5 58 3.1063999999999998 -0 -0 -1 -1 0 0 0 1 -0 
1 -20 45.5 2.0063999999999997 -1 0 0 0 1 0 0 0 -1 
1 -20 70.5 2.0063999999999997 0 1 0 1 0 0 0 0 -1 
1 5 70.5 2.0063999999999997 1 0 -0 0 -1 0 0 -0 -1 
1 5 45.5 2.0063999999999997 0 -1 0 -1 0 0 -0 -0 -1 
1 -7.5 58 2.0063999999999997 -0 -0 -1 -1 0 0 0 1 -0 
1 -7.5 58 3.1063999999999998 -0 -0 -1 -1 0 0 0 1 -0 
1 15 45.5 2.0063999999999997 -1 0 0 0 1 0 0 0 -1 
1 15 70.5 2.0063999999999997 0 1 0 1 0 0 0 0 -1 
1 40 70.5 2.0063999999999997 1 0 -0 0 -1 0 0 -0 -1 
1 40 45.5 2.0063999999999997 0 -1 0 -1 0 0 -0 -0 -1 
1 27.5 58 2.0063999999999997 -0 -0 -1 -1 0 0 0 1 -0 
1 27.5 58 3.1063999999999998 -0 -0 -1 -1 0 0 0 1 -0 
1 50 45.5 2.0063999999999997 -1 0 0 0 1 0 0 0 -1 
1 50 70.5 2.0063999999999997 0 1 0 1 0 0 0 0 -1 
1 75 70.5 2.0063999999999997 1 0 -0 0 -1 0 0 -0 -1 
1 75 45.5 2.0063999999999997 0 -1 0 -1 0 0 -0 -0 -1 
1 62.5 58 2.0063999999999997 -0 -0 -1 -1 0 0 0 1 -0 
1 62.5 58 3.1063999999999998 -0 -0 -1 -1 0 0 0 1 -0 
Triangulations 0

TShapes 682
Ve
1e-07
-55 -70.5 2.0064
0 0

0101101
*
Ve
1e-07
-55 -70.5 3.1064
0 0

0101101
*
Ed
 1e-07 1 1 0
1  1 0 0 1.1
0

0101000
+682 0 -681 0 *
Ve
1e-07
-55 -45.5 2.0064
0 0

0101101
*
Ve
1e-07
-55 -45.5 3.1064
0 0

0101101
*
Ed
 1e-07 1 1 0
1  2 0 0 1.1
0

0101000
+679 0 -678 0 *
Ed
 1e-07 1 1 0
1  3 0 0 25
0

0101000
+682 0 -679 0 *
Ed
 1e-07 1 1 0
1  4 0 0 25
0

0101000
+681 0 -678 0 *
Wi

0101100
+680 0 -677 0 -676 0 +675 0 *
Fa
0  1e-07 1 0

0101000
+674 0 *
Ve
1e-07
-30 -45.5 2.0064
0 0

0101101
*
Ve
1e-07
-30 -45.5 3.1064
0 0

0101101
*
Ed
 1e-07 1 1 0
1  5 0 0 1.1
0

0101000
+672 0 -671 0 *
Ed
 1e-07 1 1 0
1  6 0 0 25
0

0101000
+679 0 -672 0 *
Ed
 1e-07 1 1 0
1  7 0 0 25
0

0101000
+678 0 -671 0 *
Wi

0101100
+677 0 -670 0 -669 0 +668 0 *
Fa
0  1e-07 2 0

0101000
+667 0 *
Ve
1e-07
-30 -70.5 2.0064
0 0

0101101
*
Ve
1e-07
-30 -70.5 3.1064
0 0

0101101
*
Ed
 1e-07 1 1 0
1  8 0 0 1.1
0

0101000
+665 0 -664 0 *
Ed
 1e-07 1 1 0
1  9 0 0 25
0

0101000
+672 0 -665 0 *
Ed
 1e-07 1 1 0
1  10 0 0 25
0

0101000
+671 0 -664 0 *
Wi

0101100
+670 0 -663 0 -662 0 +661 0 *
Fa
0  1e-07 3 0

0101000
+660 0 *
Ed
 1e-07 1 1 0
1  11 0 0 25
0

0101000
+665 0 -682 0 *
Ed
 1e-07 1 1 0
1  12 0 0 25
0

0101000
+664 0 -681 0 *
Wi

0101100
+663 0 -680 0 -658 0 +657 0 *
Fa
0  1e-07 4 0

0101000
+656 0 *
Wi

0101100
+676 0 +669 0 +662 0 +658 0 *
Fa
0  1e-07 5 0

0101000
+654 0 *
Wi

0101100
+675 0 +668 0 +661 0 +657 0 *
Fa
0  1e-07 6 0

0101000
+652 0 *
Sh

0101100
+673 0 +666 0 +659 0 +655 0 +653 0 -651 0 *
So

0100000
+650 0 *
Ve
1e-07
-20 -70.5 2.0064
0 0

0101101
*
Ve
1e-07
-20 -70.5 3.1064
0 0

0101101
*
Ed
 1e-07 1 1 0
1  13 0 0 1.1
0

0101000
+648 0 -647 0 *
Ve
1e-07
-20 -45.5 2.0064
0 0

0101101
*
Ve
1e-07
-20 -45.5 3.1064
0 0

0101101
*
Ed
 1e-07 1 1 0
1  14 0 0 1.1
0

0101000
+645 0 -644 0 *
Ed
 1e-07 1 1 0
1  15 0 0 25
0

0101000
+648 0 -645 0 *
Ed
 1e-07 1 1 0
1  16 0 0 25
0

0101000
+647 0 -644 0 *
Wi

0101100
+646 0 -643 0 -642 0 +641 0 *
Fa
0  1e-07 7 0

0101000
+640 0 *
Ve
1e-07
5 -45.5 2.0064
0 0

0101101
*
Ve
1e-07
5 -45.5 3.1064
0 0

0101101
*
Ed
 1e-07 1 1 0
1  17 0 0 1.1
0

0101000
+638 0 -637 0 *
Ed
 1e-07 1 1 0
1  18 0 0 25
0

0101000
+645 0 -638 0 *
Ed
 1e-07 1 1 0
1  19 0 0 25
0

0101000
+644 0 -637 0 *
Wi

0101100
+643 0 -636 0 -635 0 +634 0 *
Fa
0  1e-07 8 0

0101000
+633 0 *
Ve
1e-07
5 -70.5 2.0064
0 0

0101101
*
Ve
1e-07
5 -70.5 3.1064
0 0

0101101
*
Ed
 1e-07 1 1 0
1  20 0 0 1.1
0

0101000
+631 0 -630 0 *
Ed
 1e-07 1 1 0
1  21 0 0 25
0

0101000
+638 0 -631 0 *
Ed
 1e-07 1 1 0
1  22 0 0 25
0

0101000
+637 0 -630 0 *
Wi

0101100
+636 0 -629 0 -628 0 +627 0 *
Fa
0  1e-07 9 0

0101000
+626 0 *
Ed
 1e-07 1 1 0
1  23 0 0 25
0

0101000
+631 0 -648 0 *
Ed
 1e-07 1 1 0
1  24 0 0 25
0

0101000
+630 0 -647 0 *
Wi

0101100
+629 0 -646 0 -624 0 +623 0 *
Fa
0  1e-07 10 0

0101000
+622 0 *
Wi

0101100
+642 0 +635 0 +628 0 +624 0 *
Fa
0  1e-07 11 0

0101000
+620 0 *
Wi

0101100
+641 0 +634 0 +627 0 +623 0 *
Fa
0  1e-07 12 0

0101000
+618 0 *
Sh

0101100
+639 0 +632 0 +625 0 +621 0 +619 0 -617 0 *
So

0100000
+616 0 *
Ve
1e-07
15 -70.5 2.0064
0 0

0101101
*
Ve
1e-07
15 -70.5 3.1064
0 0

0101101
*
Ed
 1e-07 1 1 0
1  25 0 0 1.1
0

0101000
+614 0 -613 0 *
Ve
1e-07
15 -45.5 2.0064
0 0

0101101
*
Ve
1e-07
15 -45.5 3.1064
0 0

0101101
*
Ed
 1e-07 1 1 0
1  26 0 0 1.1
0

0101000
+611 0 -610 0 *
Ed
 1e-07 1 1 0
1  27 0 0 25
0

0101000
+614 0 -611 0 *
Ed
 1e-07 1 1 0
1  28 0 0 25
0

0101000
+613 0 -610 0 *
Wi

0101100
+612 0 -609 0 -608 0 +607 0 *
Fa
0  1e-07 13 0

0101000
+606 0 *
Ve
1e-07
40 -45.5 2.0064
0 0

0101101
*
Ve
1e-07
40 -45.5 3.1064
0 0

0101101
*
Ed
 1e-07 1 1 0
1  29 0 0 1.1
0

0101000
+604 0 -603 0 *
Ed
 1e-07 1 1 0
1  30 0 0 25
0

0101000
+611 0 -604 0 *
Ed
 1e-07 1 1 0
1  31 0 0 25
0

0101000
+610 0 -603 0 *
Wi

0101100
+609 0 -602 0 -601 0 +600 0 *
Fa
0  1e-07 14 0

0101000
+599 0 *
Ve
1e-07
40 -70.5 2.0064
0 0

0101101
*
Ve
1e-07
40 -70.5 3.1064
0 0

0101101
*
Ed
 1e-07 1 1 0
1  32 0 0 1.1
0

0101000
+597 0 -596 0 *
Ed
 1e-07 1 1 0
1  33 0 0 25
0

0101000
+604 0 -597 0 *
Ed
 1e-07 1 1 0
1  34 0 0 25
0

0101000
+603 0 -596 0 *
Wi

0101100
+602 0 -595 0 -594 0 +593 0 *
Fa
0  1e-07 15 0

0101000
+592 0 *
Ed
 1e-07 1 1 0
1  35 0 0 25
0

0101000
+597 0 -614 0 *
Ed
 1e-07 1 1 0
1  36 0 0 25
0

0101000
+596 0 -613 0 *
Wi

0101100
+595 0 -612 0 -590 0 +589 0 *
Fa
0  1e-07 16 0

0101000
+588 0 *
Wi

0101100
+608 0 +601 0 +594 0 +590 0 *
Fa
0  1e-07 17 0

0101000
+586 0 *
Wi

0101100
+607 0 +600 0 +593 0 +589 0 *
Fa
0  1e-07 18 0

0101000
+584 0 *
Sh

0101100
+605 0 +598 0 +591 0 +587 0 +585 0 -583 0 *
So

0100000
+582 0 *
Ve
1e-07
50 -70.5 2.0064
0 0

0101101
*
Ve
1e-07
50 -70.5 3.1064
0 0

0101101
*
Ed
 1e-07 1 1 0
1  37 0 0 1.1
0

0101000
+580 0 -579 0 *
Ve
1e-07
50 -45.5 2.0064
0 0

0101101
*
Ve
1e-07
50 -45.5 3.1064
0 0

0101101
*
Ed
 1e-07 1 1 0
1  38 0 0 1.1
0

0101000
+577 0 -576 0 *
Ed
 1e-07 1 1 0
1  39 0 0 25
0

0101000
+580 0 -577 0 *
Ed
 1e-07 1 1 0
1  40 0 0 25
0

0101000
+579 0 -576 0 *
Wi

0101100
+578 0 -575 0 -574 0 +573 0 *
Fa
0  1e-07 19 0

0101000
+572 0 *
Ve
1e-07
75 -45.5 2.0064
0 0

0101101
*
Ve
1e-07
75 -45.5 3.1064
0 0

0101101
*
Ed
 1e-07 1 1 0
1  41 0 0 1.1
0

0101000
+570 0 -569 0 *
Ed
 1e-07 1 1 0
1  42 0 0 25
0

0101000
+577 0 -570 0 *
Ed
 1e-07 1 1 0
1  43 0 0 25
0

0101000
+576 0 -569 0 *
Wi

0101100
+575 0 -568 0 -567 0 +566 0 *
Fa
0  1e-07 20 0

0101000
+565 0 *
Ve
1e-07
75 -70.5 2.0064
0 0

0101101
*
Ve
1e-07
75 -70.5 3.1064
0 0

0101101
*
Ed
 1e-07 1 1 0
1  44 0 0 1.1
0

0101000
+563 0 -562 0 *
Ed
 1e-07 1 1 0
1  45 0 0 25
0

0101000
+570 0 -563 0 *
Ed
 1e-07 1 1 0
1  46 0 0 25
0

0101000
+569 0 -562 0 *
Wi

0101100
+568 0 -561 0 -560 0 +559 0 *
Fa
0  1e-07 21 0

0101000
+558 0 *
Ed
 1e-07 1 1 0
1  47 0 0 25
0

0101000
+563 0 -580 0 *
Ed
 1e-07 1 1 0
1  48 0 0 25
0

0101000
+562 0 -579 0 *
Wi

0101100
+561 0 -578 0 -556 0 +555 0 *
Fa
0  1e-07 22 0

0101000
+554 0 *
Wi

0101100
+574 0 +567 0 +560 0 +556 0 *
Fa
0  1e-07 23 0

0101000
+552 0 *
Wi

0101100
+573 0 +566 0 +559 0 +555 0 *
Fa
0  1e-07 24 0

0101000
+550 0 *
Sh

0101100
+571 0 +564 0 +557 0 +553 0 +551 0 -549 0 *
So

0100000
+548 0 *
Ve
1e-07
-55 -41.5 2.0064
0 0

0101101
*
Ve
1e-07
-55 -41.5 3.1064
0 0

0101101
*
Ed
 1e-07 1 1 0
1  49 0 0 1.1
0

0101000
+546 0 -545 0 *
Ve
1e-07
-55 -16.5 2.0064
0 0

0101101
*
Ve
1e-07
-55 -16.5 3.1064
0 0

0101101
*
Ed
 1e-07 1 1 0
1  50 0 0 1.1
0

0101000
+543 0 -542 0 *
Ed
 1e-07 1 1 0
1  51 0 0 25
0

0101000
+546 0 -543 0 *
Ed
 1e-07 1 1 0
1  52 0 0 25
0

0101000
+545 0 -542 0 *
Wi

0101100
+544 0 -541 0 -540 0 +539 0 *
Fa
0  1e-07 25 0

0101000
+538 0 *
Ve
1e-07
-30 -16.5 2.0064
0 0

0101101
*
Ve
1e-07
-30 -16.5 3.1064
0 0

0101101
*
Ed
 1e-07 1 1 0
1  53 0 0 1.1
0

0101000
+536 0 -535 0 *
Ed
 1e-07 1 1 0
1  54 0 0 25
0

0101000
+543 0 -536 0 *
Ed
 1e-07 1 1 0
1  55 0 0 25
0

0101000
+542 0 -535 0 *
Wi

0101100
+541 0 -534 0 -533 0 +532 0 *
Fa
0  1e-07 26 0

0101000
+531 0 *
Ve
1e-07
-30 -41.5 2.0064
0 0

0101101
*
Ve
1e-07
-30 -41.5 3.1064
0 0

0101101
*
Ed
 1e-07 1 1 0
1  56 0 0 1.1
0

0101000
+529 0 -528 0 *
Ed
 1e-07 1 1 0
1  57 0 0 25
0

0101000
+536 0 -529 0 *
Ed
 1e-07 1 1 0
1  58 0 0 25
0

0101000
+535 0 -528 0 *
Wi

0101100
+534 0 -527 0 -526 0 +525 0 *
Fa
0  1e-07 27 0

0101000
+524 0 *
Ed
 1e-07 1 1 0
1  59 0 0 25
0

0101000
+529 0 -546 0 *
Ed
 1e-07 1 1 0
1  60 0 0 25
0

0101000
+528 0 -545 0 *
Wi

0101100
+527 0 -544 0 -522 0 +521 0 *
Fa
0  1e-07 28 0

0101000
+520 0 *
Wi

0101100
+540 0 +533 0 +526 0 +522 0 *
Fa
0  1e-07 29 0

0101000
+518 0 *
Wi

0101100
+539 0 +532 0 +525 0 +521 0 *
Fa
0  1e-07 30 0

0101000
+516 0 *
Sh

0101100
+537 0 +530 0 +523 0 +519 0 +517 0 -515 0 *
So

0100000
+514 0 *
Ve
1e-07
-20 -41.5 2.0064
0 0

0101101
*
Ve
1e-07
-20 -41.5 3.1064
0 0

0101101
*
Ed
 1e-07 1 1 0
1  61 0 0 1.1
0

0101000
+512 0 -511 0 *
Ve
1e-07
-20 -16.5 2.0064
0 0

0101101
*
Ve
1e-07
-20 -16.5 3.1064
0 0

0101101
*
Ed
 1e-07 1 1 0
1  62 0 0 1.1
0

0101000
+509 0 -508 0 *
Ed
 1e-07 1 1 0
1  63 0 0 25
0

0101000
+512 0 -509 0 *
Ed
 1e-07 1 1 0
1  64 0 0 25
0

0101000
+511 0 -508 0 *
Wi

0101100
+510 0 -507 0 -506 0 +505 0 *
Fa
0  1e-07 31 0

0101000
+504 0 *
Ve
1e-07
5 -16.5 2.0064
0 0

0101101
*
Ve
1e-07
5 -16.5 3.1064
0 0

0101101
*
Ed
 1e-07 1 1 0
1  65 0 0 1.1
0

0101000
+502 0 -501 0 *
Ed
 1e-07 1 1 0
1  66 0 0 25
0

0101000
+509 0 -502 0 *
Ed
 1e-07 1 1 0
1  67 0 0 25
0

0101000
+508 0 -501 0 *
Wi

0101100
+507 0 -500 0 -499 0 +498 0 *
Fa
0  1e-07 32 0

0101000
+497 0 *
Ve
1e-07
5 -41.5 2.0064
0 0

0101101
*
Ve
1e-07
5 -41.5 3.1064
0 0

0101101
*
Ed
 1e-07 1 1 0
1  68 0 0 1.1
0

0101000
+495 0 -494 0 *
Ed
 1e-07 1 1 0
1  69 0 0 25
0

0101000
+502 0 -495 0 *
Ed
 1e-07 1 1 0
1  70 0 0 25
0

0101000
+501 0 -494 0 *
Wi

0101100
+500 0 -493 0 -492 0 +491 0 *
Fa
0  1e-07 33 0

0101000
+490 0 *
Ed
 1e-07 1 1 0
1  71 0 0 25
0

0101000
+495 0 -512 0 *
Ed
 1e-07 1 1 0
1  72 0 0 25
0

0101000
+494 0 -511 0 *
Wi

0101100
+493 0 -510 0 -488 0 +487 0 *
Fa
0  1e-07 34 0

0101000
+486 0 *
Wi

0101100
+506 0 +499 0 +492 0 +488 0 *
Fa
0  1e-07 35 0

0101000
+484 0 *
Wi

0101100
+505 0 +498 0 +491 0 +487 0 *
Fa
0  1e-07 36 0

0101000
+482 0 *
Sh

0101100
+503 0 +496 0 +489 0 +485 0 +483 0 -481 0 *
So

0100000
+480 0 *
Ve
1e-07
15 -41.5 2.0064
0 0

0101101
*
Ve
1e-07
15 -41.5 3.1064
0 0

0101101
*
Ed
 1e-07 1 1 0
1  73 0 0 1.1
0

0101000
+478 0 -477 0 *
Ve
1e-07
15 -16.5 2.0064
0 0

0101101
*
Ve
1e-07
15 -16.5 3.1064
0 0

0101101
*
Ed
 1e-07 1 1 0
1  74 0 0 1.1
0

0101000
+475 0 -474 0 *
Ed
 1e-07 1 1 0
1  75 0 0 25
0

0101000
+478 0 -475 0 *
Ed
 1e-07 1 1 0
1  76 0 0 25
0

0101000
+477 0 -474 0 *
Wi

0101100
+476 0 -473 0 -472 0 +471 0 *
Fa
0  1e-07 37 0

0101000
+470 0 *
Ve
1e-07
40 -16.5 2.0064
0 0

0101101
*
Ve
1e-07
40 -16.5 3.1064
0 0

0101101
*
Ed
 1e-07 1 1 0
1  77 0 0 1.1
0

0101000
+468 0 -467 0 *
Ed
 1e-07 1 1 0
1  78 0 0 25
0

0101000
+475 0 -468 0 *
Ed
 1e-07 1 1 0
1  79 0 0 25
0

0101000
+474 0 -467 0 *
Wi

0101100
+473 0 -466 0 -465 0 +464 0 *
Fa
0  1e-07 38 0

0101000
+463 0 *
Ve
1e-07
40 -41.5 2.0064
0 0

0101101
*
Ve
1e-07
40 -41.5 3.1064
0 0

0101101
*
Ed
 1e-07 1 1 0
1  80 0 0 1.1
0

0101000
+461 0 -460 0 *
Ed
 1e-07 1 1 0
1  81 0 0 25
0

0101000
+468 0 -461 0 *
Ed
 1e-07 1 1 0
1  82 0 0 25
0

0101000
+467 0 -460 0 *
Wi

0101100
+466 0 -459 0 -458 0 +457 0 *
Fa
0  1e-07 39 0

0101000
+456 0 *
Ed
 1e-07 1 1 0
1  83 0 0 25
0

0101000
+461 0 -478 0 *
Ed
 1e-07 1 1 0
1  84 0 0 25
0

0101000
+460 0 -477 0 *
Wi

0101100
+459 0 -476 0 -454 0 +453 0 *
Fa
0  1e-07 40 0

0101000
+452 0 *
Wi

0101100
+472 0 +465 0 +458 0 +454 0 *
Fa
0  1e-07 41 0

0101000
+450 0 *
Wi

0101100
+471 0 +464 0 +457 0 +453 0 *
Fa
0  1e-07 42 0

0101000
+448 0 *
Sh

0101100
+469 0 +462 0 +455 0 +451 0 +449 0 -447 0 *
So

0100000
+446 0 *
Ve
1e-07
50 -41.5 2.0064
0 0

0101101
*
Ve
1e-07
50 -41.5 3.1064
0 0

0101101
*
Ed
 1e-07 1 1 0
1  85 0 0 1.1
0

0101000
+444 0 -443 0 *
Ve
1e-07
50 -16.5 2.0064
0 0

0101101
*
Ve
1e-07
50 -16.5 3.1064
0 0

0101101
*
Ed
 1e-07 1 1 0
1  86 0 0 1.1
0

0101000
+441 0 -440 0 *
Ed
 1e-07 1 1 0
1  87 0 0 25
0

0101000
+444 0 -441 0 *
Ed
 1e-07 1 1 0
1  88 0 0 25
0

0101000
+443 0 -440 0 *
Wi

0101100
+442 0 -439 0 -438 0 +437 0 *
Fa
0  1e-07 43 0

0101000
+436 0 *
Ve
1e-07
75 -16.5 2.0064
0 0

0101101
*
Ve
1e-07
75 -16.5 3.1064
0 0

0101101
*
Ed
 1e-07 1 1 0
1  89 0 0 1.1
0

0101000
+434 0 -433 0 *
Ed
 1e-07 1 1 0
1  90 0 0 25
0

0101000
+441 0 -434 0 *
Ed
 1e-07 1 1 0
1  91 0 0 25
0

0101000
+440 0 -433 0 *
Wi

0101100
+439 0 -432 0 -431 0 +430 0 *
Fa
0  1e-07 44 0

0101000
+429 0 *
Ve
1e-07
75 -41.5 2.0064
0 0

0101101
*
Ve
1e-07
75 -41.5 3.1064
0 0

0101101
*
Ed
 1e-07 1 1 0
1  92 0 0 1.1
0

0101000
+427 0 -426 0 *
Ed
 1e-07 1 1 0
1  93 0 0 25
0

0101000
+434 0 -427 0 *
Ed
 1e-07 1 1 0
1  94 0 0 25
0

0101000
+433 0 -426 0 *
Wi

0101100
+432 0 -425 0 -424 0 +423 0 *
Fa
0  1e-07 45 0

0101000
+422 0 *
Ed
 1e-07 1 1 0
1  95 0 0 25
0

0101000
+427 0 -444 0 *
Ed
 1e-07 1 1 0
1  96 0 0 25
0

0101000
+426 0 -443 0 *
Wi

0101100
+425 0 -442 0 -420 0 +419 0 *
Fa
0  1e-07 46 0

0101000
+418 0 *
Wi

0101100
+438 0 +431 0 +424 0 +420 0 *
Fa
0  1e-07 47 0

0101000
+416 0 *
Wi

0101100
+437 0 +430 0 +423 0 +419 0 *
Fa
0  1e-07 48 0

0101000
+414 0 *
Sh

0101100
+435 0 +428 0 +421 0 +417 0 +415 0 -413 0 *
So

0100000
+412 0 *
Ve
1e-07
-55 -12.5 2.0064
0 0

0101101
*
Ve
1e-07
-55 -12.5 3.1064
0 0

0101101
*
Ed
 1e-07 1 1 0
1  97 0 0 1.1
0

0101000
+410 0 -409 0 *
Ve
1e-07
-55 12.5 2.0064
0 0

0101101
*
Ve
1e-07
-55 12.5 3.1064
0 0

0101101
*
Ed
 1e-07 1 1 0
1  98 0 0 1.1
0

0101000
+407 0 -406 0 *
Ed
 1e-07 1 1 0
1  99 0 0 25
0

0101000
+410 0 -407 0 *
Ed
 1e-07 1 1 0
1  100 0 0 25
0

0101000
+409 0 -406 0 *
Wi

0101100
+408 0 -405 0 -404 0 +403 0 *
Fa
0  1e-07 49 0

0101000
+402 0 *
Ve
1e-07
-30 12.5 2.0064
0 0

0101101
*
Ve
1e-07
-30 12.5 3.1064
0 0

0101101
*
Ed
 1e-07 1 1 0
1  101 0 0 1.1
0

0101000
+400 0 -399 0 *
Ed
 1e-07 1 1 0
1  102 0 0 25
0

0101000
+407 0 -400 0 *
Ed
 1e-07 1 1 0
1  103 0 0 25
0

0101000
+406 0 -399 0 *
Wi

0101100
+405 0 -398 0 -397 0 +396 0 *
Fa
0  1e-07 50 0

0101000
+395 0 *
Ve
1e-07
-30 -12.5 2.0064
0 0

0101101
*
Ve
1e-07
-30 -12.5 3.1064
0 0

0101101
*
Ed
 1e-07 1 1 0
1  104 0 0 1.1
0

0101000
+393 0 -392 0 *
Ed
 1e-07 1 1 0
1  105 0 0 25
0

0101000
+400 0 -393 0 *
Ed
 1e-07 1 1 0
1  106 0 0 25
0

0101000
+399 0 -392 0 *
Wi

0101100
+398 0 -391 0 -390 0 +389 0 *
Fa
0  1e-07 51 0

0101000
+388 0 *
Ed
 1e-07 1 1 0
1  107 0 0 25
0

0101000
+393 0 -410 0 *
Ed
 1e-07 1 1 0
1  108 0 0 25
0

0101000
+392 0 -409 0 *
Wi

0101100
+391 0 -408 0 -386 0 +385 0 *
Fa
0  1e-07 52 0

0101000
+384 0 *
Wi

0101100
+404 0 +397 0 +390 0 +386 0 *
Fa
0  1e-07 53 0

0101000
+382 0 *
Wi

0101100
+403 0 +396 0 +389 0 +385 0 *
Fa
0  1e-07 54 0

0101000
+380 0 *
Sh

0101100
+401 0 +394 0 +387 0 +383 0 +381 0 -379 0 *
So

0100000
+378 0 *
Ve
1e-07
-20 -12.5 2.0064
0 0

0101101
*
Ve
1e-07
-20 -12.5 3.1064
0 0

0101101
*
Ed
 1e-07 1 1 0
1  109 0 0 1.1
0

0101000
+376 0 -375 0 *
Ve
1e-07
-20 12.5 2.0064
0 0

0101101
*
Ve
1e-07
-20 12.5 3.1064
0 0

0101101
*
Ed
 1e-07 1 1 0
1  110 0 0 1.1
0

0101000
+373 0 -372 0 *
Ed
 1e-07 1 1 0
1  111 0 0 25
0

0101000
+376 0 -373 0 *
Ed
 1e-07 1 1 0
1  112 0 0 25
0

0101000
+375 0 -372 0 *
Wi

0101100
+374 0 -371 0 -370 0 +369 0 *
Fa
0  1e-07 55 0

0101000
+368 0 *
Ve
1e-07
5 12.5 2.0064
0 0

0101101
*
Ve
1e-07
5 12.5 3.1064
0 0

0101101
*
Ed
 1e-07 1 1 0
1  113 0 0 1.1
0

0101000
+366 0 -365 0 *
Ed
 1e-07 1 1 0
1  114 0 0 25
0

0101000
+373 0 -366 0 *
Ed
 1e-07 1 1 0
1  115 0 0 25
0

0101000
+372 0 -365 0 *
Wi

0101100
+371 0 -364 0 -363 0 +362 0 *
Fa
0  1e-07 56 0

0101000
+361 0 *
Ve
1e-07
5 -12.5 2.0064
0 0

0101101
*
Ve
1e-07
5 -12.5 3.1064
0 0

0101101
*
Ed
 1e-07 1 1 0
1  116 0 0 1.1
0

0101000
+359 0 -358 0 *
Ed
 1e-07 1 1 0
1  117 0 0 25
0

0101000
+366 0 -359 0 *
Ed
 1e-07 1 1 0
1  118 0 0 25
0

0101000
+365 0 -358 0 *
Wi

0101100
+364 0 -357 0 -356 0 +355 0 *
Fa
0  1e-07 57 0

0101000
+354 0 *
Ed
 1e-07 1 1 0
1  119 0 0 25
0

0101000
+359 0 -376 0 *
Ed
 1e-07 1 1 0
1  120 0 0 25
0

0101000
+358 0 -375 0 *
Wi

0101100
+357 0 -374 0 -352 0 +351 0 *
Fa
0  1e-07 58 0

0101000
+350 0 *
Wi

0101100
+370 0 +363 0 +356 0 +352 0 *
Fa
0  1e-07 59 0

0101000
+348 0 *
Wi

0101100
+369 0 +362 0 +355 0 +351 0 *
Fa
0  1e-07 60 0

0101000
+346 0 *
Sh

0101100
+367 0 +360 0 +353 0 +349 0 +347 0 -345 0 *
So

0100000
+344 0 *
Ve
1e-07
15 -12.5 2.0064
0 0

0101101
*
Ve
1e-07
15 -12.5 3.1064
0 0

0101101
*
Ed
 1e-07 1 1 0
1  121 0 0 1.1
0

0101000
+342 0 -341 0 *
Ve
1e-07
15 12.5 2.0064
0 0

0101101
*
Ve
1e-07
15 12.5 3.1064
0 0

0101101
*
Ed
 1e-07 1 1 0
1  122 0 0 1.1
0

0101000
+339 0 -338 0 *
Ed
 1e-07 1 1 0
1  123 0 0 25
0

0101000
+342 0 -339 0 *
Ed
 1e-07 1 1 0
1  124 0 0 25
0

0101000
+341 0 -338 0 *
Wi

0101100
+340 0 -337 0 -336 0 +335 0 *
Fa
0  1e-07 61 0

0101000
+334 0 *
Ve
1e-07
40 12.5 2.0064
0 0

0101101
*
Ve
1e-07
40 12.5 3.1064
0 0

0101101
*
Ed
 1e-07 1 1 0
1  125 0 0 1.1
0

0101000
+332 0 -331 0 *
Ed
 1e-07 1 1 0
1  126 0 0 25
0

0101000
+339 0 -332 0 *
Ed
 1e-07 1 1 0
1  127 0 0 25
0

0101000
+338 0 -331 0 *
Wi

0101100
+337 0 -330 0 -329 0 +328 0 *
Fa
0  1e-07 62 0

0101000
+327 0 *
Ve
1e-07
40 -12.5 2.0064
0 0

0101101
*
Ve
1e-07
40 -12.5 3.1064
0 0

0101101
*
Ed
 1e-07 1 1 0
1  128 0 0 1.1
0

0101000
+325 0 -324 0 *
Ed
 1e-07 1 1 0
1  129 0 0 25
0

0101000
+332 0 -325 0 *
Ed
 1e-07 1 1 0
1  130 0 0 25
0

0101000
+331 0 -324 0 *
Wi

0101100
+330 0 -323 0 -322 0 +321 0 *
Fa
0  1e-07 63 0

0101000
+320 0 *
Ed
 1e-07 1 1 0
1  131 0 0 25
0

0101000
+325 0 -342 0 *
Ed
 1e-07 1 1 0
1  132 0 0 25
0

0101000
+324 0 -341 0 *
Wi

0101100
+323 0 -340 0 -318 0 +317 0 *
Fa
0  1e-07 64 0

0101000
+316 0 *
Wi

0101100
+336 0 +329 0 +322 0 +318 0 *
Fa
0  1e-07 65 0

0101000
+314 0 *
Wi

0101100
+335 0 +328 0 +321 0 +317 0 *
Fa
0  1e-07 66 0

0101000
+312 0 *
Sh

0101100
+333 0 +326 0 +319 0 +315 0 +313 0 -311 0 *
So

0100000
+310 0 *
Ve
1e-07
50 -12.5 2.0064
0 0

0101101
*
Ve
1e-07
50 -12.5 3.1064
0 0

0101101
*
Ed
 1e-07 1 1 0
1  133 0 0 1.1
0

0101000
+308 0 -307 0 *
Ve
1e-07
50 12.5 2.0064
0 0

0101101
*
Ve
1e-07
50 12.5 3.1064
0 0

0101101
*
Ed
 1e-07 1 1 0
1  134 0 0 1.1
0

0101000
+305 0 -304 0 *
Ed
 1e-07 1 1 0
1  135 0 0 25
0

0101000
+308 0 -305 0 *
Ed
 1e-07 1 1 0
1  136 0 0 25
0

0101000
+307 0 -304 0 *
Wi

0101100
+306 0 -303 0 -302 0 +301 0 *
Fa
0  1e-07 67 0

0101000
+300 0 *
Ve
1e-07
75 12.5 2.0064
0 0

0101101
*
Ve
1e-07
75 12.5 3.1064
0 0

0101101
*
Ed
 1e-07 1 1 0
1  137 0 0 1.1
0

0101000
+298 0 -297 0 *
Ed
 1e-07 1 1 0
1  138 0 0 25
0

0101000
+305 0 -298 0 *
Ed
 1e-07 1 1 0
1  139 0 0 25
0

0101000
+304 0 -297 0 *
Wi

0101100
+303 0 -296 0 -295 0 +294 0 *
Fa
0  1e-07 68 0

0101000
+293 0 *
Ve
1e-07
75 -12.5 2.0064
0 0

0101101
*
Ve
1e-07
75 -12.5 3.1064
0 0

0101101
*
Ed
 1e-07 1 1 0
1  140 0 0 1.1
0

0101000
+291 0 -290 0 *
Ed
 1e-07 1 1 0
1  141 0 0 25
0

0101000
+298 0 -291 0 *
Ed
 1e-07 1 1 0
1  142 0 0 25
0

0101000
+297 0 -290 0 *
Wi

0101100
+296 0 -289 0 -288 0 +287 0 *
Fa
0  1e-07 69 0

0101000
+286 0 *
Ed
 1e-07 1 1 0
1  143 0 0 25
0

0101000
+291 0 -308 0 *
Ed
 1e-07 1 1 0
1  144 0 0 25
0

0101000
+290 0 -307 0 *
Wi

0101100
+289 0 -306 0 -284 0 +283 0 *
Fa
0  1e-07 70 0

0101000
+282 0 *
Wi

0101100
+302 0 +295 0 +288 0 +284 0 *
Fa
0  1e-07 71 0

0101000
+280 0 *
Wi

0101100
+301 0 +294 0 +287 0 +283 0 *
Fa
0  1e-07 72 0

0101000
+278 0 *
Sh

0101100
+299 0 +292 0 +285 0 +281 0 +279 0 -277 0 *
So

0100000
+276 0 *
Ve
1e-07
-55 16.5 2.0064
0 0

0101101
*
Ve
1e-07
-55 16.5 3.1064
0 0

0101101
*
Ed
 1e-07 1 1 0
1  145 0 0 1.1
0

0101000
+274 0 -273 0 *
Ve
1e-07
-55 41.5 2.0064
0 0

0101101
*
Ve
1e-07
-55 41.5 3.1064
0 0

0101101
*
Ed
 1e-07 1 1 0
1  146 0 0 1.1
0

0101000
+271 0 -270 0 *
Ed
 1e-07 1 1 0
1  147 0 0 25
0

0101000
+274 0 -271 0 *
Ed
 1e-07 1 1 0
1  148 0 0 25
0

0101000
+273 0 -270 0 *
Wi

0101100
+272 0 -269 0 -268 0 +267 0 *
Fa
0  1e-07 73 0

0101000
+266 0 *
Ve
1e-07
-30 41.5 2.0064
0 0

0101101
*
Ve
1e-07
-30 41.5 3.1064
0 0

0101101
*
Ed
 1e-07 1 1 0
1  149 0 0 1.1
0

0101000
+264 0 -263 0 *
Ed
 1e-07 1 1 0
1  150 0 0 25
0

0101000
+271 0 -264 0 *
Ed
 1e-07 1 1 0
1  151 0 0 25
0

0101000
+270 0 -263 0 *
Wi

0101100
+269 0 -262 0 -261 0 +260 0 *
Fa
0  1e-07 74 0

0101000
+259 0 *
Ve
1e-07
-30 16.5 2.0064
0 0

0101101
*
Ve
1e-07
-30 16.5 3.1064
0 0

0101101
*
Ed
 1e-07 1 1 0
1  152 0 0 1.1
0

0101000
+257 0 -256 0 *
Ed
 1e-07 1 1 0
1  153 0 0 25
0

0101000
+264 0 -257 0 *
Ed
 1e-07 1 1 0
1  154 0 0 25
0

0101000
+263 0 -256 0 *
Wi

0101100
+262 0 -255 0 -254 0 +253 0 *
Fa
0  1e-07 75 0

0101000
+252 0 *
Ed
 1e-07 1 1 0
1  155 0 0 25
0

0101000
+257 0 -274 0 *
Ed
 1e-07 1 1 0
1  156 0 0 25
0

0101000
+256 0 -273 0 *
Wi

0101100
+255 0 -272 0 -250 0 +249 0 *
Fa
0  1e-07 76 0

0101000
+248 0 *
Wi

0101100
+268 0 +261 0 +254 0 +250 0 *
Fa
0  1e-07 77 0

0101000
+246 0 *
Wi

0101100
+267 0 +260 0 +253 0 +249 0 *
Fa
0  1e-07 78 0

0101000
+244 0 *
Sh

0101100
+265 0 +258 0 +251 0 +247 0 +245 0 -243 0 *
So

0100000
+242 0 *
Ve
1e-07
-20 16.5 2.0064
0 0

0101101
*
Ve
1e-07
-20 16.5 3.1064
0 0

0101101
*
Ed
 1e-07 1 1 0
1  157 0 0 1.1
0

0101000
+240 0 -239 0 *
Ve
1e-07
-20 41.5 2.0064
0 0

0101101
*
Ve
1e-07
-20 41.5 3.1064
0 0

0101101
*
Ed
 1e-07 1 1 0
1  158 0 0 1.1
0

0101000
+237 0 -236 0 *
Ed
 1e-07 1 1 0
1  159 0 0 25
0

0101000
+240 0 -237 0 *
Ed
 1e-07 1 1 0
1  160 0 0 25
0

0101000
+239 0 -236 0 *
Wi

0101100
+238 0 -235 0 -234 0 +233 0 *
Fa
0  1e-07 79 0

0101000
+232 0 *
Ve
1e-07
5 41.5 2.0064
0 0

0101101
*
Ve
1e-07
5 41.5 3.1064
0 0

0101101
*
Ed
 1e-07 1 1 0
1  161 0 0 1.1
0

0101000
+230 0 -229 0 *
Ed
 1e-07 1 1 0
1  162 0 0 25
0

0101000
+237 0 -230 0 *
Ed
 1e-07 1 1 0
1  163 0 0 25
0

0101000
+236 0 -229 0 *
Wi

0101100
+235 0 -228 0 -227 0 +226 0 *
Fa
0  1e-07 80 0

0101000
+225 0 *
Ve
1e-07
5 16.5 2.0064
0 0

0101101
*
Ve
1e-07
5 16.5 3.1064
0 0

0101101
*
Ed
 1e-07 1 1 0
1  164 0 0 1.1
0

0101000
+223 0 -222 0 *
Ed
 1e-07 1 1 0
1  165 0 0 25
0

0101000
+230 0 -223 0 *
Ed
 1e-07 1 1 0
1  166 0 0 25
0

0101000
+229 0 -222 0 *
Wi

0101100
+228 0 -221 0 -220 0 +219 0 *
Fa
0  1e-07 81 0

0101000
+218 0 *
Ed
 1e-07 1 1 0
1  167 0 0 25
0

0101000
+223 0 -240 0 *
Ed
 1e-07 1 1 0
1  168 0 0 25
0

0101000
+222 0 -239 0 *
Wi

0101100
+221 0 -238 0 -216 0 +215 0 *
Fa
0  1e-07 82 0

0101000
+214 0 *
Wi

0101100
+234 0 +227 0 +220 0 +216 0 *
Fa
0  1e-07 83 0

0101000
+212 0 *
Wi

0101100
+233 0 +226 0 +219 0 +215 0 *
Fa
0  1e-07 84 0

0101000
+210 0 *
Sh

0101100
+231 0 +224 0 +217 0 +213 0 +211 0 -209 0 *
So

0100000
+208 0 *
Ve
1e-07
15 16.5 2.0064
0 0

0101101
*
Ve
1e-07
15 16.5 3.1064
0 0

0101101
*
Ed
 1e-07 1 1 0
1  169 0 0 1.1
0

0101000
+206 0 -205 0 *
Ve
1e-07
15 41.5 2.0064
0 0

0101101
*
Ve
1e-07
15 41.5 3.1064
0 0

0101101
*
Ed
 1e-07 1 1 0
1  170 0 0 1.1
0

0101000
+203 0 -202 0 *
Ed
 1e-07 1 1 0
1  171 0 0 25
0

0101000
+206 0 -203 0 *
Ed
 1e-07 1 1 0
1  172 0 0 25
0

0101000
+205 0 -202 0 *
Wi

0101100
+204 0 -201 0 -200 0 +199 0 *
Fa
0  1e-07 85 0

0101000
+198 0 *
Ve
1e-07
40 41.5 2.0064
0 0

0101101
*
Ve
1e-07
40 41.5 3.1064
0 0

0101101
*
Ed
 1e-07 1 1 0
1  173 0 0 1.1
0

0101000
+196 0 -195 0 *
Ed
 1e-07 1 1 0
1  174 0 0 25
0

0101000
+203 0 -196 0 *
Ed
 1e-07 1 1 0
1  175 0 0 25
0

0101000
+202 0 -195 0 *
Wi

0101100
+201 0 -194 0 -193 0 +192 0 *
Fa
0  1e-07 86 0

0101000
+191 0 *
Ve
1e-07
40 16.5 2.0064
0 0

0101101
*
Ve
1e-07
40 16.5 3.1064
0 0

0101101
*
Ed
 1e-07 1 1 0
1  176 0 0 1.1
0

0101000
+189 0 -188 0 *
Ed
 1e-07 1 1 0
1  177 0 0 25
0

0101000
+196 0 -189 0 *
Ed
 1e-07 1 1 0
1  178 0 0 25
0

0101000
+195 0 -188 0 *
Wi

0101100
+194 0 -187 0 -186 0 +185 0 *
Fa
0  1e-07 87 0

0101000
+184 0 *
Ed
 1e-07 1 1 0
1  179 0 0 25
0

0101000
+189 0 -206 0 *
Ed
 1e-07 1 1 0
1  180 0 0 25
0

0101000
+188 0 -205 0 *
Wi

0101100
+187 0 -204 0 -182 0 +181 0 *
Fa
0  1e-07 88 0

0101000
+180 0 *
Wi

0101100
+200 0 +193 0 +186 0 +182 0 *
Fa
0  1e-07 89 0

0101000
+178 0 *
Wi

0101100
+199 0 +192 0 +185 0 +181 0 *
Fa
0  1e-07 90 0

0101000
+176 0 *
Sh

0101100
+197 0 +190 0 +183 0 +179 0 +177 0 -175 0 *
So

0100000
+174 0 *
Ve
1e-07
50 16.5 2.0064
0 0

0101101
*
Ve
1e-07
50 16.5 3.1064
0 0

0101101
*
Ed
 1e-07 1 1 0
1  181 0 0 1.1
0

0101000
+172 0 -171 0 *
Ve
1e-07
50 41.5 2.0064
0 0

0101101
*
Ve
1e-07
50 41.5 3.1064
0 0

0101101
*
Ed
 1e-07 1 1 0
1  182 0 0 1.1
0

0101000
+169 0 -168 0 *
Ed
 1e-07 1 1 0
1  183 0 0 25
0

0101000
+172 0 -169 0 *
Ed
 1e-07 1 1 0
1  184 0 0 25
0

0101000
+171 0 -168 0 *
Wi

0101100
+170 0 -167 0 -166 0 +165 0 *
Fa
0  1e-07 91 0

0101000
+164 0 *
Ve
1e-07
75 41.5 2.0064
0 0

0101101
*
Ve
1e-07
75 41.5 3.1064
0 0

0101101
*
Ed
 1e-07 1 1 0
1  185 0 0 1.1
0

0101000
+162 0 -161 0 *
Ed
 1e-07 1 1 0
1  186 0 0 25
0

0101000
+169 0 -162 0 *
Ed
 1e-07 1 1 0
1  187 0 0 25
0

0101000
+168 0 -161 0 *
Wi

0101100
+167 0 -160 0 -159 0 +158 0 *
Fa
0  1e-07 92 0

0101000
+157 0 *
Ve
1e-07
75 16.5 2.0064
0 0

0101101
*
Ve
1e-07
75 16.5 3.1064
0 0

0101101
*
Ed
 1e-07 1 1 0
1  188 0 0 1.1
0

0101000
+155 0 -154 0 *
Ed
 1e-07 1 1 0
1  189 0 0 25
0

0101000
+162 0 -155 0 *
Ed
 1e-07 1 1 0
1  190 0 0 25
0

0101000
+161 0 -154 0 *
Wi

0101100
+160 0 -153 0 -152 0 +151 0 *
Fa
0  1e-07 93 0

0101000
+150 0 *
Ed
 1e-07 1 1 0
1  191 0 0 25
0

0101000
+155 0 -172 0 *
Ed
 1e-07 1 1 0
1  192 0 0 25
0

0101000
+154 0 -171 0 *
Wi

0101100
+153 0 -170 0 -148 0 +147 0 *
Fa
0  1e-07 94 0

0101000
+146 0 *
Wi

0101100
+166 0 +159 0 +152 0 +148 0 *
Fa
0  1e-07 95 0

0101000
+144 0 *
Wi

0101100
+165 0 +158 0 +151 0 +147 0 *
Fa
0  1e-07 96 0

0101000
+142 0 *
Sh

0101100
+163 0 +156 0 +149 0 +145 0 +143 0 -141 0 *
So

0100000
+140 0 *
Ve
1e-07
-55 45.5 2.0064
0 0

0101101
*
Ve
1e-07
-55 45.5 3.1064
0 0

0101101
*
Ed
 1e-07 1 1 0
1  193 0 0 1.1
0

0101000
+138 0 -137 0 *
Ve
1e-07
-55 70.5 2.0064
0 0

0101101
*
Ve
1e-07
-55 70.5 3.1064
0 0

0101101
*
Ed
 1e-07 1 1 0
1  194 0 0 1.1
0

0101000
+135 0 -134 0 *
Ed
 1e-07 1 1 0
1  195 0 0 25
0

0101000
+138 0 -135 0 *
Ed
 1e-07 1 1 0
1  196 0 0 25
0

0101000
+137 0 -134 0 *
Wi

0101100
+136 0 -133 0 -132 0 +131 0 *
Fa
0  1e-07 97 0

0101000
+130 0 *
Ve
1e-07
-30 70.5 2.0064
0 0

0101101
*
Ve
1e-07
-30 70.5 3.1064
0 0

0101101
*
Ed
 1e-07 1 1 0
1  197 0 0 1.1
0

0101000
+128 0 -127 0 *
Ed
 1e-07 1 1 0
1  198 0 0 25
0

0101000
+135 0 -128 0 *
Ed
 1e-07 1 1 0
1  199 0 0 25
0

0101000
+134 0 -127 0 *
Wi

0101100
+133 0 -126 0 -125 0 +124 0 *
Fa
0  1e-07 98 0

0101000
+123 0 *
Ve
1e-07
-30 45.5 2.0064
0 0

0101101
*
Ve
1e-07
-30 45.5 3.1064
0 0

0101101
*
Ed
 1e-07 1 1 0
1  200 0 0 1.1
0

0101000
+121 0 -120 0 *
Ed
 1e-07 1 1 0
1  201 0 0 25
0

0101000
+128 0 -121 0 *
Ed
 1e-07 1 1 0
1  202 0 0 25
0

0101000
+127 0 -120 0 *
Wi

0101100
+126 0 -119 0 -118 0 +117 0 *
Fa
0  1e-07 99 0

0101000
+116 0 *
Ed
 1e-07 1 1 0
1  203 0 0 25
0

0101000
+121 0 -138 0 *
Ed
 1e-07 1 1 0
1  204 0 0 25
0

0101000
+120 0 -137 0 *
Wi

0101100
+119 0 -136 0 -114 0 +113 0 *
Fa
0  1e-07 100 0

0101000
+112 0 *
Wi

0101100
+132 0 +125 0 +118 0 +114 0 *
Fa
0  1e-07 101 0

0101000
+110 0 *
Wi

0101100
+131 0 +124 0 +117 0 +113 0 *
Fa
0  1e-07 102 0

0101000
+108 0 *
Sh

0101100
+129 0 +122 0 +115 0 +111 0 +109 0 -107 0 *
So

0100000
+106 0 *
Ve
1e-07
-20 45.5 2.0064
0 0

0101101
*
Ve
1e-07
-20 45.5 3.1064
0 0

0101101
*
Ed
 1e-07 1 1 0
1  205 0 0 1.1
0

0101000
+104 0 -103 0 *
Ve
1e-07
-20 70.5 2.0064
0 0

0101101
*
Ve
1e-07
-20 70.5 3.1064
0 0

0101101
*
Ed
 1e-07 1 1 0
1  206 0 0 1.1
0

0101000
+101 0 -100 0 *
Ed
 1e-07 1 1 0
1  207 0 0 25
0

0101000
+104 0 -101 0 *
Ed
 1e-07 1 1 0
1  208 0 0 25
0

0101000
+103 0 -100 0 *
Wi

0101100
+102 0 -99 0 -98 0 +97 0 *
Fa
0  1e-07 103 0

0101000
+96 0 *
Ve
1e-07
5 70.5 2.0064
0 0

0101101
*
Ve
1e-07
5 70.5 3.1064
0 0

0101101
*
Ed
 1e-07 1 1 0
1  209 0 0 1.1
0

0101000
+94 0 -93 0 *
Ed
 1e-07 1 1 0
1  210 0 0 25
0

0101000
+101 0 -94 0 *
Ed
 1e-07 1 1 0
1  211 0 0 25
0

0101000
+100 0 -93 0 *
Wi

0101100
+99 0 -92 0 -91 0 +90 0 *
Fa
0  1e-07 104 0

0101000
+89 0 *
Ve
1e-07
5 45.5 2.0064
0 0

0101101
*
Ve
1e-07
5 45.5 3.1064
0 0

0101101
*
Ed
 1e-07 1 1 0
1  212 0 0 1.1
0

0101000
+87 0 -86 0 *
Ed
 1e-07 1 1 0
1  213 0 0 25
0

0101000
+94 0 -87 0 *
Ed
 1e-07 1 1 0
1  214 0 0 25
0

0101000
+93 0 -86 0 *
Wi

0101100
+92 0 -85 0 -84 0 +83 0 *
Fa
0  1e-07 105 0

0101000
+82 0 *
Ed
 1e-07 1 1 0
1  215 0 0 25
0

0101000
+87 0 -104 0 *
Ed
 1e-07 1 1 0
1  216 0 0 25
0

0101000
+86 0 -103 0 *
Wi

0101100
+85 0 -102 0 -80 0 +79 0 *
Fa
0  1e-07 106 0

0101000
+78 0 *
Wi

0101100
+98 0 +91 0 +84 0 +80 0 *
Fa
0  1e-07 107 0

0101000
+76 0 *
Wi

0101100
+97 0 +90 0 +83 0 +79 0 *
Fa
0  1e-07 108 0

0101000
+74 0 *
Sh

0101100
+95 0 +88 0 +81 0 +77 0 +75 0 -73 0 *
So

0100000
+72 0 *
Ve
1e-07
15 45.5 2.0064
0 0

0101101
*
Ve
1e-07
15 45.5 3.1064
0 0

0101101
*
Ed
 1e-07 1 1 0
1  217 0 0 1.1
0

0101000
+70 0 -69 0 *
Ve
1e-07
15 70.5 2.0064
0 0

0101101
*
Ve
1e-07
15 70.5 3.1064
0 0

0101101
*
Ed
 1e-07 1 1 0
1  218 0 0 1.1
0

0101000
+67 0 -66 0 *
Ed
 1e-07 1 1 0
1  219 0 0 25
0

0101000
+70 0 -67 0 *
Ed
 1e-07 1 1 0
1  220 0 0 25
0

0101000
+69 0 -66 0 *
Wi

0101100
+68 0 -65 0 -64 0 +63 0 *
Fa
0  1e-07 109 0

0101000
+62 0 *
Ve
1e-07
40 70.5 2.0064
0 0

0101101
*
Ve
1e-07
40 70.5 3.1064
0 0

0101101
*
Ed
 1e-07 1 1 0
1  221 0 0 1.1
0

0101000
+60 0 -59 0 *
Ed
 1e-07 1 1 0
1  222 0 0 25
0

0101000
+67 0 -60 0 *
Ed
 1e-07 1 1 0
1  223 0 0 25
0

0101000
+66 0 -59 0 *
Wi

0101100
+65 0 -58 0 -57 0 +56 0 *
Fa
0  1e-07 110 0

0101000
+55 0 *
Ve
1e-07
40 45.5 2.0064
0 0

0101101
*
Ve
1e-07
40 45.5 3.1064
0 0

0101101
*
Ed
 1e-07 1 1 0
1  224 0 0 1.1
0

0101000
+53 0 -52 0 *
Ed
 1e-07 1 1 0
1  225 0 0 25
0

0101000
+60 0 -53 0 *
Ed
 1e-07 1 1 0
1  226 0 0 25
0

0101000
+59 0 -52 0 *
Wi

0101100
+58 0 -51 0 -50 0 +49 0 *
Fa
0  1e-07 111 0

0101000
+48 0 *
Ed
 1e-07 1 1 0
1  227 0 0 25
0

0101000
+53 0 -70 0 *
Ed
 1e-07 1 1 0
1  228 0 0 25
0

0101000
+52 0 -69 0 *
Wi

0101100
+51 0 -68 0 -46 0 +45 0 *
Fa
0  1e-07 112 0

0101000
+44 0 *
Wi

0101100
+64 0 +57 0 +50 0 +46 0 *
Fa
0  1e-07 113 0

0101000
+42 0 *
Wi

0101100
+63 0 +56 0 +49 0 +45 0 *
Fa
0  1e-07 114 0

0101000
+40 0 *
Sh

0101100
+61 0 +54 0 +47 0 +43 0 +41 0 -39 0 *
So

0100000
+38 0 *
Ve
1e-07
50 45.5 2.0064
0 0

0101101
*
Ve
1e-07
50 45.5 3.1064
0 0

0101101
*
Ed
 1e-07 1 1 0
1  229 0 0 1.1
0

0101000
+36 0 -35 0 *
Ve
1e-07
50 70.5 2.0064
0 0

0101101
*
Ve
1e-07
50 70.5 3.1064
0 0

0101101
*
Ed
 1e-07 1 1 0
1  230 0 0 1.1
0

0101000
+33 0 -32 0 *
Ed
 1e-07 1 1 0
1  231 0 0 25
0

0101000
+36 0 -33 0 *
Ed
 1e-07 1 1 0
1  232 0 0 25
0

0101000
+35 0 -32 0 *
Wi

0101100
+34 0 -31 0 -30 0 +29 0 *
Fa
0  1e-07 115 0

0101000
+28 0 *
Ve
1e-07
75 70.5 2.0064
0 0

0101101
*
Ve
1e-07
75 70.5 3.1064
0 0

0101101
*
Ed
 1e-07 1 1 0
1  233 0 0 1.1
0

0101000
+26 0 -25 0 *
Ed
 1e-07 1 1 0
1  234 0 0 25
0

0101000
+33 0 -26 0 *
Ed
 1e-07 1 1 0
1  235 0 0 25
0

0101000
+32 0 -25 0 *
Wi

0101100
+31 0 -24 0 -23 0 +22 0 *
Fa
0  1e-07 116 0

0101000
+21 0 *
Ve
1e-07
75 45.5 2.0064
0 0

0101101
*
Ve
1e-07
75 45.5 3.1064
0 0

0101101
*
Ed
 1e-07 1 1 0
1  236 0 0 1.1
0

0101000
+19 0 -18 0 *
Ed
 1e-07 1 1 0
1  237 0 0 25
0

0101000
+26 0 -19 0 *
Ed
 1e-07 1 1 0
1  238 0 0 25
0

0101000
+25 0 -18 0 *
Wi

0101100
+24 0 -17 0 -16 0 +15 0 *
Fa
0  1e-07 117 0

0101000
+14 0 *
Ed
 1e-07 1 1 0
1  239 0 0 25
0

0101000
+19 0 -36 0 *
Ed
 1e-07 1 1 0
1  240 0 0 25
0

0101000
+18 0 -35 0 *
Wi

0101100
+17 0 -34 0 -12 0 +11 0 *
Fa
0  1e-07 118 0

0101000
+10 0 *
Wi

0101100
+30 0 +23 0 +16 0 +12 0 *
Fa
0  1e-07 119 0

0101000
+8 0 *
Wi

0101100
+29 0 +22 0 +15 0 +11 0 *
Fa
0  1e-07 120 0

0101000
+6 0 *
Sh

0101100
+27 0 +20 0 +13 0 +9 0 +7 0 -5 0 *
So

0100000
+4 0 *
Co

0100000
+649 0 +615 0 +581 0 +547 0 +513 0 +479 0 +445 0 +411 0 +377 0 +343 0 
+309 0 +275 0 +241 0 +207 0 +173 0 +139 0 +105 0 +71 0 +37 0 +3 0 
*
Co

1100000
+2 0 *

+1 1 