DBRep_DrawableShape

CASCADE Topology V1, (c) Matra-Datavision
Locations 1
1
              1               0               0               0 
              0               1               0               0 
              0               0               1               0 
Curve2ds 44
1 0 0 1 0 
1 0 0 1 0 
1 0 0 1 0 
1 0 0 1 0 
1 0 0 1 0 
1 0 0 1 0 
1 0 0 1 0 
1 0 0 1 0 
1 0 0 1 0 
1 0 0 1 0 
1 0 0 1 0 
1 0 0 0 -1 
1 6.2831853071795862 0 0 -1 
1 0 -7 1 0 
1 0 0 0 -1 
1 6.2831853071795862 0 0 -1 
1 0 -7 1 0 
1 0 0 0 -1 
1 6.2831853071795862 0 0 -1 
1 0 -7 1 0 
1 0 0 0 -1 
1 6.2831853071795862 0 0 -1 
1 0 -7 1 0 
1 0 0 0 -1 
1 6.2831853071795862 0 0 -1 
1 0 -7 1 0 
1 0 0 0 -1 
1 6.2831853071795862 0 0 -1 
1 0 -7 1 0 
1 0 0 0 -1 
1 6.2831853071795862 0 0 -1 
1 0 -7 1 0 
1 0 0 0 -1 
1 6.2831853071795862 0 0 -1 
1 0 -7 1 0 
1 0 0 0 -1 
1 6.2831853071795862 0 0 -1 
1 0 -7 1 0 
1 0 0 0 -1 
1 6.2831853071795862 0 0 -1 
1 0 -7 1 0 
1 0 0 0 -1 
1 6.2831853071795862 0 0 -1 
1 0 -7 1 0 
Curves 45
1 -100 -100 -25.400000000000002 0 0 1 
1 -100 99.999999999999972 -25.400000000000002 0 0 1 
1 -100 -100 -25.400000000000002 0 1 0 
1 -100 -100 -5.4000000000000021 0 1 0 
1 100 -100 -25.400000000000002 0 0 1 
1 100 -100 -25.400000000000002 -1 0 0 
1 100 -100 -5.4000000000000021 -1 0 0 
1 100 99.999999999999972 -25.400000000000002 0 0 1 
1 -100 99.999999999999972 -25.400000000000002 1 0 0 
1 -100 99.999999999999972 -5.4000000000000021 1 0 0 
1 100 99.999999999999972 -25.400000000000002 0 -1 0 
1 100 99.999999999999972 -5.4000000000000021 0 -1 0 
2 93.000000000000014 -93.000000000000043 -5.4000000000000021 0 0 1 1 0 -0 -0 1 0 3.2000000000000002
2 31 -93.000000000000028 -5.4000000000000021 0 0 1 1 0 -0 -0 1 0 3.2000000000000002
2 93.000000000000114 -31.000000000000139 -5.4000000000000021 0 0 1 1 0 -0 -0 1 0 3.2000000000000002
2 -31 -93.000000000000014 -5.4000000000000021 0 0 1 1 0 -0 -0 1 0 3.2000000000000002
2 -92.999999999999986 -93.000000000000028 -5.4000000000000021 0 0 1 1 0 -0 -0 1 0 3.2000000000000002
2 93.000000000000156 30.999999999999861 -5.4000000000000021 0 0 1 1 0 -0 -0 1 0 3.2000000000000002
2 93 93.000000000000014 -5.4000000000000021 0 0 1 1 0 -0 -0 1 0 3.2000000000000002
2 31 93 -5.4000000000000021 0 0 1 1 0 -0 -0 1 0 3.2000000000000002
2 -92.999999999999972 1.7800000000000001e-14 -5.4000000000000021 0 0 1 1 0 -0 -0 1 0 3.2000000000000002
2 -31 92.999999999999986 -5.4000000000000021 0 0 1 1 0 -0 -0 1 0 3.2000000000000002
2 -93 92.999999999999972 -5.4000000000000021 0 0 1 1 0 -0 -0 1 0 3.2000000000000002
1 96.200000000000017 -93.000000000000043 -5.4000000000000021 -0 0 -1 
2 93.000000000000014 -93.000000000000043 -12.400000000000002 0 0 1 1 0 -0 -0 1 0 3.2000000000000002
1 34.200000000000003 -93.000000000000028 -5.4000000000000021 -0 0 -1 
2 31 -93.000000000000028 -12.400000000000002 0 0 1 1 0 -0 -0 1 0 3.2000000000000002
1 96.200000000000117 -31.000000000000139 -5.4000000000000021 -0 0 -1 
2 93.000000000000114 -31.000000000000139 -12.400000000000002 0 0 1 1 0 -0 -0 1 0 3.2000000000000002
1 -27.800000000000001 -93.000000000000014 -5.4000000000000021 -0 0 -1 
2 -31 -93.000000000000014 -12.400000000000002 0 0 1 1 0 -0 -0 1 0 3.2000000000000002
1 -89.799999999999983 -93.000000000000028 -5.4000000000000021 -0 0 -1 
2 -92.999999999999986 -93.000000000000028 -12.400000000000002 0 0 1 1 0 -0 -0 1 0 3.2000000000000002
1 96.200000000000159 30.999999999999861 -5.4000000000000021 -0 0 -1 
2 93.000000000000156 30.999999999999861 -12.400000000000002 0 0 1 1 0 -0 -0 1 0 3.2000000000000002
1 96.200000000000003 93.000000000000014 -5.4000000000000021 -0 0 -1 
2 93 93.000000000000014 -12.400000000000002 0 0 1 1 0 -0 -0 1 0 3.2000000000000002
1 34.200000000000003 93 -5.4000000000000021 -0 0 -1 
2 31 93 -12.400000000000002 0 0 1 1 0 -0 -0 1 0 3.2000000000000002
1 -89.799999999999969 1.7800000000000001e-14 -5.4000000000000021 -0 0 -1 
2 -92.999999999999972 1.7800000000000001e-14 -12.400000000000002 0 0 1 1 0 -0 -0 1 0 3.2000000000000002
1 -27.800000000000001 92.999999999999986 -5.4000000000000021 -0 0 -1 
2 -31 92.999999999999986 -12.400000000000002 0 0 1 1 0 -0 -0 1 0 3.2000000000000002
1 -89.799999999999997 92.999999999999972 -5.4000000000000021 -0 0 -1 
2 -93 92.999999999999972 -12.400000000000002 0 0 1 1 0 -0 -0 1 0 3.2000000000000002
Polygon3D 0
PolygonOnTriangulations 0
Surfaces 28
1 -100 -100 -25.400000000000002 -1 0 0 0 1 0 0 0 -1 
1 100 -100 -25.400000000000002 0 -1 0 -1 0 0 -0 -0 -1 
1 -100 99.999999999999972 -25.400000000000002 0 1 0 1 0 0 0 0 -1 
1 0 -9.0949470177292826e-15 -25.400000000000002 -0 -0 -1 -1 0 0 0 1 -0 
1 0 -9.0949470177292826e-15 -5.4000000000000021 -0 -0 -1 -1 0 0 0 1 -0 
2 93.000000000000014 -93.000000000000043 -5.4000000000000021 0 0 1 1 0 -0 -0 1 0 3.2000000000000002
2 31 -93.000000000000028 -5.4000000000000021 0 0 1 1 0 -0 -0 1 0 3.2000000000000002
2 93.000000000000114 -31.000000000000139 -5.4000000000000021 0 0 1 1 0 -0 -0 1 0 3.2000000000000002
2 -31 -93.000000000000014 -5.4000000000000021 0 0 1 1 0 -0 -0 1 0 3.2000000000000002
2 -92.999999999999986 -93.000000000000028 -5.4000000000000021 0 0 1 1 0 -0 -0 1 0 3.2000000000000002
2 93.000000000000156 30.999999999999861 -5.4000000000000021 0 0 1 1 0 -0 -0 1 0 3.2000000000000002
2 93 93.000000000000014 -5.4000000000000021 0 0 1 1 0 -0 -0 1 0 3.2000000000000002
2 31 93 -5.4000000000000021 0 0 1 1 0 -0 -0 1 0 3.2000000000000002
2 -92.999999999999972 1.7800000000000001e-14 -5.4000000000000021 0 0 1 1 0 -0 -0 1 0 3.2000000000000002
2 -31 92.999999999999986 -5.4000000000000021 0 0 1 1 0 -0 -0 1 0 3.2000000000000002
2 -93 92.999999999999972 -5.4000000000000021 0 0 1 1 0 -0 -0 1 0 3.2000000000000002
1 100 99.999999999999972 -25.400000000000002 1 0 -0 0 -1 0 0 -0 -1 
1 93.000000000000014 -93.000000000000057 -12.400000000000002 0 0 1 1 0 -0 -0 1 0 
1 31 -93.000000000000028 -12.400000000000002 0 0 1 1 0 -0 -0 1 0 
1 93.000000000000099 -31.000000000000142 -12.400000000000002 0 0 1 1 0 -0 -0 1 0 
1 -31 -93.000000000000014 -12.400000000000002 0 0 1 1 0 -0 -0 1 0 
1 -92.999999999999986 -93.000000000000043 -12.400000000000002 0 0 1 1 0 -0 -0 1 0 
1 93.000000000000156 30.999999999999861 -12.400000000000002 0 0 1 1 0 -0 -0 1 0 
1 92.999999999999986 93 -12.400000000000002 0 0 1 1 0 -0 -0 1 0 
1 31 93 -12.400000000000002 0 0 1 1 0 -0 -0 1 0 
1 -92.999999999999957 1.8326570426180774e-14 -12.400000000000002 0 0 1 1 0 -0 -0 1 0 
1 -31 92.999999999999986 -12.400000000000002 0 0 1 1 0 -0 -0 1 0 
1 -93 92.999999999999957 -12.400000000000002 0 0 1 1 0 -0 -0 1 0 
Triangulations 0

TShapes 146
Ve
1e-07
-100 -100 -25.4
0 0

0101101
*
Ve
1e-07
-100 -100 -5.4
0 0

0101101
*
Ed
 1e-07 1 1 0
1  1 0 0 20
0

0101000
+146 0 -145 0 *
Ve
1e-07
-100 100 -25.4
0 0

0101101
*
Ve
1e-07
-100 100 -5.4
0 0

0101101
*
Ed
 1e-07 1 1 0
1  2 0 0 20
0

0101000
+143 0 -142 0 *
Ed
 1e-07 1 1 0
1  3 0 0 200
0

0101000
+146 0 -143 0 *
Ed
 1e-07 1 1 0
1  4 0 0 200
0

0101000
+145 0 -142 0 *
Wi

0101100
+144 0 -141 0 -140 0 +139 0 *
Fa
0  1e-07 1 0

0101000
+138 0 *
Ve
1e-07
100 -100 -25.4
0 0

0101101
*
Ve
1e-07
100 -100 -5.4
0 0

0101101
*
Ed
 1e-07 1 1 0
1  5 0 0 20
0

0101000
+136 0 -135 0 *
Ed
 1e-07 1 1 0
1  6 0 0 200
0

0101000
+136 0 -146 0 *
Ed
 1e-07 1 1 0
1  7 0 0 200
0

0101000
+135 0 -145 0 *
Wi

0101100
+134 0 -144 0 -133 0 +132 0 *
Fa
0  1e-07 2 0

0101000
+131 0 *
Ve
1e-07
100 100 -25.4
0 0

0101101
*
Ve
1e-07
100 100 -5.4
0 0

0101101
*
Ed
 1e-07 1 1 0
1  8 0 0 20
0

0101000
+129 0 -128 0 *
Ed
 1e-07 1 1 0
1  9 0 0 200
0

0101000
+143 0 -129 0 *
Ed
 1e-07 1 1 0
1  10 0 0 200
0

0101000
+142 0 -128 0 *
Wi

0101100
+141 0 -127 0 -126 0 +125 0 *
Fa
0  1e-07 3 0

0101000
+124 0 *
Ed
 1e-07 1 1 0
1  11 0 0 200
0

0101000
+129 0 -136 0 *
Wi

0101100
+140 0 +126 0 +122 0 +133 0 *
Fa
0  1e-07 4 0

0101000
+121 0 *
Ed
 1e-07 1 1 0
1  12 0 0 200
0

0101000
+128 0 -135 0 *
Wi

0101100
+139 0 +132 0 +125 0 +119 0 *
Ve
1e-07
96.2 -93 -5.4
0 0

0101101
*
Ed
 1e-07 1 1 0
1  13 0 0 6.28318530717959
2  1 6 0 0 6.28318530717959
0

0101000
+117 0 -117 0 *
Wi

0101100
+116 0 *
Ve
1e-07
34.2 -93 -5.4
0 0

0101101
*
Ed
 1e-07 1 1 0
1  14 0 0 6.28318530717959
2  2 7 0 0 6.28318530717959
0

0101000
+114 0 -114 0 *
Wi

0101100
+113 0 *
Ve
1e-07
96.2000000000001 -31.0000000000001 -5.4
0 0

0101101
*
Ed
 1e-07 1 1 0
1  15 0 0 6.28318530717959
2  3 8 0 0 6.28318530717959
0

0101000
+111 0 -111 0 *
Wi

0101100
+110 0 *
Ve
1e-07
-27.8 -93 -5.4
0 0

0101101
*
Ed
 1e-07 1 1 0
1  16 0 0 6.28318530717959
2  4 9 0 0 6.28318530717959
0

0101000
+108 0 -108 0 *
Wi

0101100
+107 0 *
Ve
1e-07
-89.8 -93 -5.4
0 0

0101101
*
Ed
 1e-07 1 1 0
1  17 0 0 6.28318530717959
2  5 10 0 0 6.28318530717959
0

0101000
+105 0 -105 0 *
Wi

0101100
+104 0 *
Ve
1e-07
96.2000000000002 30.9999999999999 -5.4
0 0

0101101
*
Ed
 1e-07 1 1 0
1  18 0 0 6.28318530717959
2  6 11 0 0 6.28318530717959
0

0101000
+102 0 -102 0 *
Wi

0101100
+101 0 *
Ve
1e-07
96.2 93 -5.4
0 0

0101101
*
Ed
 1e-07 1 1 0
1  19 0 0 6.28318530717959
2  7 12 0 0 6.28318530717959
0

0101000
+99 0 -99 0 *
Wi

0101100
+98 0 *
Ve
1e-07
34.2 93 -5.4
0 0

0101101
*
Ed
 1e-07 1 1 0
1  20 0 0 6.28318530717959
2  8 13 0 0 6.28318530717959
0

0101000
+96 0 -96 0 *
Wi

0101100
+95 0 *
Ve
1e-07
-89.8 1.78e-14 -5.4
0 0

0101101
*
Ed
 1e-07 1 1 0
1  21 0 0 6.28318530717959
2  9 14 0 0 6.28318530717959
0

0101000
+93 0 -93 0 *
Wi

0101100
+92 0 *
Ve
1e-07
-27.8 93 -5.4
0 0

0101101
*
Ed
 1e-07 1 1 0
1  22 0 0 6.28318530717959
2  10 15 0 0 6.28318530717959
0

0101000
+90 0 -90 0 *
Wi

0101100
+89 0 *
Ve
1e-07
-89.8 93 -5.4
0 0

0101101
*
Ed
 1e-07 1 1 0
1  23 0 0 6.28318530717959
2  11 16 0 0 6.28318530717959
0

0101000
+87 0 -87 0 *
Wi

0101100
+86 0 *
Fa
0  1e-07 5 0

0101000
+118 0 +115 0 +112 0 +109 0 +106 0 +103 0 +100 0 +97 0 +94 0 +91 0 
+88 0 +85 0 *
Wi

0101100
+127 0 -134 0 -122 0 +119 0 *
Fa
0  1e-07 17 0

0101000
+83 0 *
Ve
1e-07
96.2 -93 -12.4
0 0

0101101
*
Ed
 1e-07 1 1 0
1  24 0 0 7
3  12 13CN 6 0 0 7
0

0101000
+117 0 -81 0 *
Ed
 1e-07 1 1 0
1  25 0 0 6.28318530717959
2  14 6 0 0 6.28318530717959
0

0101000
+81 0 -81 0 *
Wi

0101100
+80 0 -80 0 -116 0 +79 0 *
Fa
0  1e-07 6 0

0101000
+78 0 *
Ve
1e-07
34.2 -93 -12.4
0 0

0101101
*
Ed
 1e-07 1 1 0
1  26 0 0 7
3  15 16CN 7 0 0 7
0

0101000
+114 0 -76 0 *
Ed
 1e-07 1 1 0
1  27 0 0 6.28318530717959
2  17 7 0 0 6.28318530717959
0

0101000
+76 0 -76 0 *
Wi

0101100
+75 0 -75 0 -113 0 +74 0 *
Fa
0  1e-07 7 0

0101000
+73 0 *
Ve
1e-07
96.2000000000001 -31.0000000000001 -12.4
0 0

0101101
*
Ed
 1e-07 1 1 0
1  28 0 0 7
3  18 19CN 8 0 0 7
0

0101000
+111 0 -71 0 *
Ed
 1e-07 1 1 0
1  29 0 0 6.28318530717959
2  20 8 0 0 6.28318530717959
0

0101000
+71 0 -71 0 *
Wi

0101100
+70 0 -70 0 -110 0 +69 0 *
Fa
0  1e-07 8 0

0101000
+68 0 *
Ve
1e-07
-27.8 -93 -12.4
0 0

0101101
*
Ed
 1e-07 1 1 0
1  30 0 0 7
3  21 22CN 9 0 0 7
0

0101000
+108 0 -66 0 *
Ed
 1e-07 1 1 0
1  31 0 0 6.28318530717959
2  23 9 0 0 6.28318530717959
0

0101000
+66 0 -66 0 *
Wi

0101100
+65 0 -65 0 -107 0 +64 0 *
Fa
0  1e-07 9 0

0101000
+63 0 *
Ve
1e-07
-89.8 -93 -12.4
0 0

0101101
*
Ed
 1e-07 1 1 0
1  32 0 0 7
3  24 25CN 10 0 0 7
0

0101000
+105 0 -61 0 *
Ed
 1e-07 1 1 0
1  33 0 0 6.28318530717959
2  26 10 0 0 6.28318530717959
0

0101000
+61 0 -61 0 *
Wi

0101100
+60 0 -60 0 -104 0 +59 0 *
Fa
0  1e-07 10 0

0101000
+58 0 *
Ve
1e-07
96.2000000000002 30.9999999999999 -12.4
0 0

0101101
*
Ed
 1e-07 1 1 0
1  34 0 0 7
3  27 28CN 11 0 0 7
0

0101000
+102 0 -56 0 *
Ed
 1e-07 1 1 0
1  35 0 0 6.28318530717959
2  29 11 0 0 6.28318530717959
0

0101000
+56 0 -56 0 *
Wi

0101100
+55 0 -55 0 -101 0 +54 0 *
Fa
0  1e-07 11 0

0101000
+53 0 *
Ve
1e-07
96.2 93 -12.4
0 0

0101101
*
Ed
 1e-07 1 1 0
1  36 0 0 7
3  30 31CN 12 0 0 7
0

0101000
+99 0 -51 0 *
Ed
 1e-07 1 1 0
1  37 0 0 6.28318530717959
2  32 12 0 0 6.28318530717959
0

0101000
+51 0 -51 0 *
Wi

0101100
+50 0 -50 0 -98 0 +49 0 *
Fa
0  1e-07 12 0

0101000
+48 0 *
Ve
1e-07
34.2 93 -12.4
0 0

0101101
*
Ed
 1e-07 1 1 0
1  38 0 0 7
3  33 34CN 13 0 0 7
0

0101000
+96 0 -46 0 *
Ed
 1e-07 1 1 0
1  39 0 0 6.28318530717959
2  35 13 0 0 6.28318530717959
0

0101000
+46 0 -46 0 *
Wi

0101100
+45 0 -45 0 -95 0 +44 0 *
Fa
0  1e-07 13 0

0101000
+43 0 *
Ve
1e-07
-89.8 1.78e-14 -12.4
0 0

0101101
*
Ed
 1e-07 1 1 0
1  40 0 0 7
3  36 37CN 14 0 0 7
0

0101000
+93 0 -41 0 *
Ed
 1e-07 1 1 0
1  41 0 0 6.28318530717959
2  38 14 0 0 6.28318530717959
0

0101000
+41 0 -41 0 *
Wi

0101100
+40 0 -40 0 -92 0 +39 0 *
Fa
0  1e-07 14 0

0101000
+38 0 *
Ve
1e-07
-27.8 93 -12.4
0 0

0101101
*
Ed
 1e-07 1 1 0
1  42 0 0 7
3  39 40CN 15 0 0 7
0

0101000
+90 0 -36 0 *
Ed
 1e-07 1 1 0
1  43 0 0 6.28318530717959
2  41 15 0 0 6.28318530717959
0

0101000
+36 0 -36 0 *
Wi

0101100
+35 0 -35 0 -89 0 +34 0 *
Fa
0  1e-07 15 0

0101000
+33 0 *
Ve
1e-07
-89.8 93 -12.4
0 0

0101101
*
Ed
 1e-07 1 1 0
1  44 0 0 7
3  42 43CN 16 0 0 7
0

0101000
+87 0 -31 0 *
Ed
 1e-07 1 1 0
1  45 0 0 6.28318530717959
2  44 16 0 0 6.28318530717959
0

0101000
+31 0 -31 0 *
Wi

0101100
+30 0 -30 0 -86 0 +29 0 *
Fa
0  1e-07 16 0

0101000
+28 0 *
Wi

0101100
+79 0 *
Fa
0  1e-07 18 0

0101000
+26 0 *
Wi

0101100
+74 0 *
Fa
0  1e-07 19 0

0101000
+24 0 *
Wi

0101100
+69 0 *
Fa
0  1e-07 20 0

0101000
+22 0 *
Wi

0101100
+64 0 *
Fa
0  1e-07 21 0

0101000
+20 0 *
Wi

0101100
+59 0 *
Fa
0  1e-07 22 0

0101000
+18 0 *
Wi

0101100
+54 0 *
Fa
0  1e-07 23 0

0101000
+16 0 *
Wi

0101100
+49 0 *
Fa
0  1e-07 24 0

0101000
+14 0 *
Wi

0101100
+44 0 *
Fa
0  1e-07 25 0

0101000
+12 0 *
Wi

0101100
+39 0 *
Fa
0  1e-07 26 0

0101000
+10 0 *
Wi

0101100
+34 0 *
Fa
0  1e-07 27 0

0101000
+8 0 *
Wi

0101100
+29 0 *
Fa
0  1e-07 28 0

0101000
+6 0 *
Sh

0101100
+137 0 +130 0 +123 0 +120 0 -84 0 +82 0 -77 0 -72 0 -67 0 -62 0 
-57 0 -52 0 -47 0 -42 0 -37 0 -32 0 -27 0 +25 0 +23 0 +21 0 
+19 0 +17 0 +15 0 +13 0 +11 0 +9 0 +7 0 +5 0 *
So

0100000
+4 0 *
Co

0100000
+3 0 *
Co

1100000
+2 0 *

+1 1 